<svg viewBox="0 0 492 492" xmlns="http://www.w3.org/2000/svg" xml:space="preserve" style="fill-rule:evenodd;clip-rule:evenodd;stroke-linejoin:round;stroke-miterlimit:2"><path d="M520.189 855.057c6.376-6.376 155.46-50.106 177.562-63.784 76.884-47.581 128.708-110.564 149.98-158.6 45.214-102.103 73.537-231.758 24.134-329.266-65.844-129.959-154.256-182.862-280.996-213.764-71.375-17.402-167.009 1.079-189.63 8.62-56.238 18.746-113.577 51.315-165.495 89.643-14.358 10.599-71.366 84.516-77.576 101.71-20.463 56.666-50.59 160.006-24.134 262.034 21.809 84.109 54.017 160.611 160.323 236.175 23.037 16.375 144.912 67.232 175.838 67.232 6.991 0 20.687 3.448 20.687 3.448l-6.895 6.896c-8.673 8.673-10.833 29.795-20.687 39.65-1.818 1.817-3.448 6.895-3.448 6.895s3.953-1.219 5.172 0c.92.921 29.563-3.705 31.03-5.172 6.165-6.165 47.358 6.084 55.165-1.723 7.86-7.861-14.409-31.649-22.411-39.65-1.155-1.156-8.619-8.222-8.619-5.172" style="fill:#fff" transform="scale(.48)"/><path d="M228.124 414.473c-1.645 2.386-2.92 5.58-4.157 8.871-1.17 3.112-2.28 6.347-4.298 8.365-1.297 1.297-2.596 4.851-2.596 4.851a3.84 3.84 0 0 0 4.787 4.844l.12-.024.006.002c.35.122 1.534.32 3.246.153 3.163-.306 9.777-1.4 12.6-2.127 1.159-.299 1.99-.724 2.492-1.058.197-.023 1.238-.134 2.037-.122 2.317.033 5.28.396 8.272.723 4.431.484 8.917.85 11.913.362 2.131-.348 3.733-1.152 4.754-2.174 2.088-2.088 2.535-5.404.882-9.272-2.262-5.296-8.729-12.28-11.639-15.19a27.704 27.704 0 0 0-.802-.76c1.26-.498 2.735-1.062 4.25-1.598 20.43-7.223 68.377-21.938 76.95-27.243 37.703-23.332 63.05-54.282 73.481-77.838 22.152-50.022 35.702-113.567 11.499-161.338-32.204-63.562-75.407-89.488-137.394-104.602-35.06-8.548-82.035.521-93.147 4.225-27.353 9.118-55.252 24.94-80.503 43.583-4.258 3.143-16.18 17.49-25.64 30.35-6.417 8.724-11.678 16.796-12.928 20.256-9.999 27.687-24.617 78.191-11.69 128.044 10.67 41.147 26.441 78.563 78.448 115.53 7.87 5.594 39.35 19.498 62.724 27.299 10.37 3.46 19.215 5.682 23.903 5.682.694 0 1.54.08 2.43.206Zm12.63 23.555a.934.934 0 0 0 .067-.061l-.068.06Zm5.278-26.437a3.84 3.84 0 0 1 .943-3.879c.35-.349 1.109-.915 2.341-1.496 1.585-.746 4.412-1.828 8.115-3.138 20.022-7.078 67.067-21.333 75.469-26.532 36.106-22.345 60.51-51.86 70.5-74.418 21.254-47.996 34.893-108.92 11.67-154.757-31.007-61.199-72.68-86.06-132.362-100.612-33.461-8.158-78.294.515-88.899 4.05-26.635 8.879-53.782 24.323-78.37 42.475-4.013 2.962-15.102 16.603-24.015 28.722-5.831 7.928-10.756 15.17-11.891 18.314-9.646 26.711-23.95 75.415-11.48 123.508 10.268 39.597 25.415 75.624 75.463 111.198 7.61 5.41 38.104 18.73 60.706 26.274 9.333 3.115 17.253 5.287 21.472 5.287 3.67 0 10.867 1.772 10.867 1.772a3.84 3.84 0 0 1 1.778 6.439l-3.31 3.31c-1.76 1.76-2.714 4.856-3.873 7.939-.939 2.497-1.949 4.999-3.187 7.187l8.256-1.372c.754-.499 1.742-.903 2.975-1.112 2.069-.35 5.283-.175 8.822.192 3.858.4 8.171.999 11.473.933.585-.012 1.299-.11 1.828-.2-.235-.68-.64-1.748-1.098-2.526-2.465-4.188-6.954-8.883-9.113-11.042-.165-.165-.98-.849-1.596-1.361a3.841 3.841 0 0 1-3.665-3.836c0-.5.066-.936.18-1.32Zm7.49 1.563c-.027.435-.127.85-.286 1.233.157-.344.262-.75.286-1.233Z"/></svg>