<svg viewBox="0 0 246 246" xmlns="http://www.w3.org/2000/svg" xml:space="preserve" style="fill-rule:evenodd;clip-rule:evenodd;stroke-linejoin:round;stroke-miterlimit:2"><path d="M124.845 205.214c1.531-1.531 37.311-12.026 42.615-15.309 18.453-11.419 30.89-26.535 35.995-38.063 10.852-24.505 17.649-55.622 5.793-79.024-15.803-31.191-37.022-43.887-67.44-51.304-17.129-4.176-40.082.259-45.511 2.069C82.8 28.082 69.039 35.899 56.579 45.097c-3.446 2.544-17.128 20.284-18.619 24.411-4.911 13.6-12.141 38.401-5.792 62.888 5.234 20.186 12.964 38.547 38.478 56.682 5.529 3.93 34.779 16.136 42.201 16.136 1.678 0 4.965.827 4.965.827l-1.655 1.655c-2.082 2.082-2.6 7.151-4.965 9.516-.436.436-.828 1.655-.828 1.655s.949-.292 1.242 0c.221.221 7.095-.889 7.447-1.241 1.479-1.48 11.366 1.46 13.24-.414 1.886-1.886-3.459-7.595-5.379-9.516-.277-.277-2.069-1.973-2.069-1.241" style="fill:#fff"/><path d="M114.062 207.237c-.823 1.193-1.46 2.79-2.079 4.435-.584 1.556-1.14 3.173-2.149 4.182-.648.649-1.298 2.426-1.298 2.426a1.923 1.923 0 0 0 2.394 2.422l.06-.012.003.001c.175.061.767.16 1.623.077 1.581-.153 4.889-.701 6.3-1.064a4.136 4.136 0 0 0 1.246-.529 9.44 9.44 0 0 1 1.018-.061c1.159.017 2.641.198 4.136.361 2.216.242 4.459.426 5.957.182 1.066-.174 1.866-.576 2.377-1.087 1.044-1.044 1.268-2.702.441-4.637-1.131-2.647-4.365-6.14-5.819-7.594a12.782 12.782 0 0 0-.402-.38 60.82 60.82 0 0 1 2.126-.8c10.215-3.611 34.188-10.968 38.475-13.621 18.851-11.666 31.524-27.141 36.74-38.919 11.076-25.011 17.851-56.783 5.749-80.669-16.101-31.781-37.703-44.744-68.697-52.301-17.529-4.274-41.017.261-46.573 2.113-13.676 4.558-27.626 12.47-40.252 21.791-2.129 1.571-8.09 8.745-12.819 15.175-3.209 4.362-5.84 8.398-6.464 10.128-5 13.844-12.309 39.096-5.845 64.022 5.334 20.574 13.22 39.281 39.223 57.765 3.935 2.797 19.676 9.749 31.362 13.649 5.185 1.731 9.608 2.842 11.952 2.842.347 0 .77.04 1.215.103Zm6.315 11.777a.55.55 0 0 0 .034-.031l-.034.031Zm2.639-13.218a1.919 1.919 0 0 1 .472-1.94c.174-.174.554-.457 1.17-.748.792-.373 2.206-.914 4.058-1.569 10.01-3.539 33.533-10.667 37.734-13.266 18.053-11.172 30.255-25.93 35.25-37.209 10.627-23.998 17.446-54.46 5.835-77.378-15.503-30.6-36.34-43.03-66.181-50.306-16.731-4.079-39.147.257-44.449 2.024-13.318 4.44-26.892 12.162-39.186 21.238-2.006 1.481-7.55 8.302-12.007 14.361-2.916 3.964-5.378 7.585-5.946 9.157-4.823 13.356-11.975 37.707-5.739 61.754 5.133 19.799 12.707 37.812 37.731 55.599 3.805 2.705 19.052 9.365 30.353 13.137 4.667 1.557 8.626 2.644 10.736 2.644 1.835 0 5.433.885 5.433.885a1.918 1.918 0 0 1 .889 3.22l-1.655 1.655c-.88.88-1.357 2.428-1.936 3.969-.469 1.249-.974 2.5-1.594 3.594l4.129-.686c.377-.25.871-.452 1.487-.556 1.034-.175 2.641-.088 4.411.096 1.929.2 4.086.499 5.737.467a6.76 6.76 0 0 0 .914-.101c-.118-.339-.321-.874-.549-1.262-1.233-2.095-3.478-4.442-4.557-5.521a24.33 24.33 0 0 0-.798-.681 1.922 1.922 0 0 1-1.833-1.918c0-.25.034-.468.091-.659Zm3.745.781a1.913 1.913 0 0 1-.143.616c.079-.172.131-.375.143-.616Z"/></svg>