<svg viewBox="0 0 246 246" xmlns="http://www.w3.org/2000/svg" xml:space="preserve" style="fill-rule:evenodd;clip-rule:evenodd;stroke-linejoin:round;stroke-miterlimit:2"><ellipse cx="128.64" cy="122.88" rx="109.309" ry="109.92" style="fill:#fff"/><path d="M128.64 10.505c-61.681 0-111.764 50.35-111.764 112.375S66.959 235.255 128.64 235.255s111.764-50.35 111.764-112.375S190.321 10.505 128.64 10.505Zm0 4.91c58.978 0 106.854 48.157 106.854 107.465 0 59.308-47.876 107.465-106.854 107.465S21.786 182.188 21.786 122.88c0-59.308 47.876-107.465 106.854-107.465Z"/><path d="M195.159 38.688c14.707 23.573 21.1 37.134 21.616 59.169.474 20.25-13.359 55.523-24.809 70.577-11.414 15.006-25.059 27.958-43.758 34.697-7.758 2.795-24.12 9.115-33.366 10.478-15.164 2.235-25.637 2.115-43.211-.427a2.457 2.457 0 0 0-2.781 2.078 2.457 2.457 0 0 0 2.079 2.781c18.15 2.626 28.967 2.734 44.629.425 9.504-1.401 26.34-7.843 34.314-10.717 19.63-7.073 34.019-20.589 46.002-36.343 11.946-15.706 26.304-52.535 25.809-73.663-.536-22.942-7.047-37.112-22.359-61.654a2.456 2.456 0 0 0-3.382-.783 2.456 2.456 0 0 0-.783 3.382Z"/><path d="M17.048 123.784c6.257 15.795 16.488 32.378 28.619 42.947 13.472 11.737 34.323 24.13 52.277 27.443 12.935 2.387 26.047 8.523 35.259 15.176 8.431 6.09 13.753 12.822 20.053 21.097a2.455 2.455 0 0 0 3.906-2.974c-6.612-8.685-12.236-15.712-21.085-22.103-9.729-7.027-23.58-13.503-37.242-16.024-17.167-3.167-37.062-15.094-49.942-26.317-11.587-10.094-21.304-25.968-27.28-41.053a2.455 2.455 0 0 0-4.565 1.808ZM48.061 48.504c10.807 33.965 24.352 55.472 42.089 80.361 15.34 21.524 46.811 53.293 63.666 64.916 16.536 11.403 25.267 12.642 39.119 18.708a2.457 2.457 0 0 0 3.234-1.264 2.457 2.457 0 0 0-1.264-3.234c-13.555-5.934-22.122-7.094-38.302-18.252-16.54-11.405-47.402-42.601-62.455-63.724-17.439-24.471-30.783-45.604-41.409-78.999a2.455 2.455 0 0 0-4.678 1.488ZM100.379 19.353c24.001 16.144 31.321 24.381 41.91 45.353 10.651 21.097 12.483 60.736 18.575 79.57 3.046 9.415 6.109 21.519 10.582 30.633 3.27 6.663 7.377 11.738 12.503 13.633 17.512 6.475 16.066 4.185 27.775 5.654a2.456 2.456 0 0 0 .611-4.872c-11.245-1.411-9.865.832-26.684-5.386-4.121-1.524-7.168-5.835-9.797-11.193-4.376-8.916-7.339-20.769-10.318-29.981-6.148-19.006-8.115-58.981-18.865-80.27-11.014-21.816-18.586-30.423-43.552-47.215a2.456 2.456 0 0 0-3.407.667 2.456 2.456 0 0 0 .667 3.407Z"/></svg>