<svg viewBox="0 0 492 492" xmlns="http://www.w3.org/2000/svg" xml:space="preserve" style="fill-rule:evenodd;clip-rule:evenodd;stroke-linecap:round;stroke-linejoin:round;stroke-miterlimit:1.5"><circle cx="606.5" cy="558.5" r="374.5" style="fill:#fff;stroke:#000;stroke-width:16.77px" transform="matrix(.58376 0 0 .58702 -96.771 -82.092)"/><path d="M821.84 155.786c62.539 100.238 89.422 158.012 91.616 251.714C915.473 493.704 856.743 643.917 808 708S700.853 827.225 621 856c-32.777 11.811-101.939 38.397-141 44.155-64.222 9.467-108.575 8.992-183-1.772" style="fill:none;stroke:#000;stroke-width:20.46px" transform="scale(.48)"/><path d="M80.544 512C106.03 576.333 147.589 643.951 197 687c54.902 47.833 139.788 98.5 212.955 112 55.412 10.224 111.587 36.5 151.045 65 36 26.002 58.803 54.667 85.705 90M210 199c44.652 140.333 100.671 229.167 173.955 332 63.317 88.848 193.179 220.026 262.75 268 68.161 47.002 104.197 52 161.295 77M423.955 72.15C525.97 140.767 556.992 175.858 602 265c44.585 88.304 52.5 254.167 78 333 20.921 64.678 41.843 160.194 90 178 71.522 26.445 65.637 17 113.456 23" style="fill:none;stroke:#000;stroke-width:20.46px" transform="scale(.48)"/></svg>