<svg viewBox="0 0 246 246" xmlns="http://www.w3.org/2000/svg" xml:space="preserve" style="fill-rule:evenodd;clip-rule:evenodd;stroke-linecap:round;stroke-linejoin:round;stroke-miterlimit:1.5"><path d="M190.32 105.84c-1.12-10.103-37.952-21.228-61.2-20.903-19.6.274-55.096 1.697-61.476 20.542-1.471 4.342 34.874 15.761 68.452 11.998 28.015-3.14 51.465-3.684 54.224-11.637" style="fill:#fff"/><path d="M191.695 106.335c.01-.029.02-.058.028-.087l.017-.06.002-.011v-.002l.002-.009.011-.048.002-.01.001-.005.003-.018.006-.038.001-.009.001-.007.003-.028.003-.028.001-.007.001-.009.002-.038.001-.019v-.005l.001-.01V105.815l-.002-.061a1.462 1.462 0 0 0-.009-.093c-.167-1.467-.912-2.972-2.215-4.448-1.709-1.935-4.425-3.871-7.87-5.696-12.85-6.807-36.09-12.271-52.585-12.041-11.883.166-29.545.771-43.168 5.324-9.469 3.165-16.984 8.269-19.673 16.21-.21.622-.168 1.315.251 2.047.492.861 1.76 1.935 3.788 2.993 9.751 5.092 38.749 11.929 65.961 8.879 19.731-2.211 37.209-3.165 46.874-6.27 4.674-1.502 7.614-3.617 8.562-6.324Zm-2.881-.661c-.182-.842-.701-1.678-1.45-2.526-1.525-1.727-3.973-3.42-7.047-5.049-12.505-6.624-35.124-11.925-51.177-11.701-11.637.163-28.94.715-42.282 5.174-8.403 2.809-15.244 7.132-17.739 14.114.105.125.299.341.482.49.5.408 1.192.836 2.05 1.284 9.501 4.961 37.768 11.536 64.282 8.565 16.75-1.878 31.863-2.817 41.867-4.985 3.196-.693 5.853-1.505 7.838-2.534 1.542-.8 2.658-1.696 3.176-2.832Z"/><path d="M78.571 101.298c0-2.481-9.688 2.834-8.341 5.528.809 1.619 11.109 3.038 12.728 3.848 3.697 1.848.173-10.152-4.387-9.376Z" style="fill:#fff"/><path d="M79.418 99.956a2.019 2.019 0 0 0-.762-.48c-.553-.207-1.468-.2-2.546.144-2.164.69-5.244 2.658-6.546 4.486-.84 1.18-1.002 2.362-.525 3.315.154.308.437.645.888.945.575.383 1.54.773 2.72 1.127 3.332 1.001 8.607 1.818 9.715 2.372.965.482 1.715.383 2.251.098.697-.371 1.248-1.292 1.221-2.672-.037-1.927-1.122-5.031-2.779-7.066-1.04-1.277-2.305-2.118-3.637-2.269Zm-1.94 2.102a1.332 1.332 0 0 0 1.317.553c.682-.116 1.284.323 1.839.895 1.173 1.21 2.044 3.155 2.389 4.728.076.344.1.759.105 1.08-1.727-.58-6.552-1.422-9.715-2.372-.752-.226-1.629-.63-1.951-.783a.717.717 0 0 1 .033-.099c.09-.209.237-.42.414-.637.886-1.076 2.482-2.151 3.906-2.822.542-.255 1.261-.448 1.663-.543Z"/><path d="M66.72 108.24c6.899 16.035 18.87 83.231 27.84 103.92 5.912 13.635 27.32 12.36 40.32 12.96 12.928.597 36.636 1.105 40.56-6 10.405-18.84 12.652-93.089 15.36-110.4 1.12-7.16-7.005 6.309-64.8 7.68-20.674.49-60.76-11.6-59.28-8.16Z" style="fill:#fff"/><clipPath id="a"><path d="M66.72 108.24c6.899 16.035 18.87 83.231 27.84 103.92 5.912 13.635 27.32 12.36 40.32 12.96 12.928.597 36.636 1.105 40.56-6 10.405-18.84 12.652-93.089 15.36-110.4 1.12-7.16-7.005 6.309-64.8 7.68-20.674.49-60.76-11.6-59.28-8.16Z"/></clipPath><g clip-path="url(#a)"><path d="M95.358 211.094a1.324 1.324 0 0 0-.798-.266c-.871 0-1.167.558-1.255.724a1.27 1.27 0 0 0-.019 1.212c.05.103.292.541 1 .783 2.169.742 18.464 4.463 19.279 4.588 13.987 2.146 35.908.693 36.148.685 7.632-.275 25.769-1.039 27.001-1.039a1.333 1.333 0 0 0 0-2.664c-1.236 0-19.438.765-27.096 1.04-.237.009-21.855 1.461-35.649-.655-.774-.119-15.824-3.55-18.611-4.408Zm-.73 2.396-.068.002a1.5 1.5 0 0 0 .068-.002Zm.063-.004-.062.004.038-.002.024-.002Zm.281-.059Z"/></g><path d="M66.72 108.24c6.899 16.035 18.87 83.231 27.84 103.92 5.912 13.635 27.32 12.36 40.32 12.96 12.928.597 36.636 1.105 40.56-6 10.405-18.84 12.652-93.089 15.36-110.4 1.12-7.16-7.005 6.309-64.8 7.68-20.674.49-60.76-11.6-59.28-8.16Z" style="fill:none;stroke:#000;stroke-width:2.92px"/><path d="M192.259 108.635c-.478-8.194-6.988-14.129-16.391-18.097-13.394-5.653-32.653-7.414-46.787-7.039-19.301.513-39.397 3.344-51.64 8.845-8.868 3.984-13.654 9.491-12.147 16.216a1.463 1.463 0 0 0 1.746 1.106 1.463 1.463 0 0 0 1.106-1.746c-.583-2.598.129-4.913 1.82-6.969 1.874-2.278 4.876-4.236 8.673-5.941 11.975-5.38 31.641-8.088 50.52-8.589 13.764-.366 32.528 1.304 45.573 6.81 8.224 3.47 14.191 8.408 14.609 15.574a1.462 1.462 0 0 0 2.918-.17Z"/><path d="M66.72 108.24c6.899 16.035 18.87 83.231 27.84 103.92 5.912 13.635 27.32 12.36 40.32 12.96 12.928.597 36.636 1.105 40.56-6 10.405-18.84 12.652-93.089 15.36-110.4 1.12-7.16-7.005 6.309-64.8 7.68-20.674.49-60.76-11.6-59.28-8.16Z" style="fill:#fff"/><clipPath id="b"><path d="M66.72 108.24c6.899 16.035 18.87 83.231 27.84 103.92 5.912 13.635 27.32 12.36 40.32 12.96 12.928.597 36.636 1.105 40.56-6 10.405-18.84 12.652-93.089 15.36-110.4 1.12-7.16-7.005 6.309-64.8 7.68-20.674.49-60.76-11.6-59.28-8.16Z"/></clipPath><g clip-path="url(#b)"><path d="M95.358 211.094a1.324 1.324 0 0 0-.798-.266c-.871 0-1.167.558-1.255.724a1.27 1.27 0 0 0-.019 1.212c.05.103.292.541 1 .783 2.169.742 18.464 4.463 19.279 4.588 13.987 2.146 35.908.693 36.148.685 7.632-.275 25.769-1.039 27.001-1.039a1.333 1.333 0 0 0 0-2.664c-1.236 0-19.438.765-27.096 1.04-.237.009-21.855 1.461-35.649-.655-.774-.119-15.824-3.55-18.611-4.408Zm-.73 2.396-.068.002a1.5 1.5 0 0 0 .068-.002Zm.063-.004-.062.004.038-.002.024-.002Zm.281-.059Z"/></g><path d="M66.72 108.24c6.899 16.035 18.87 83.231 27.84 103.92 5.912 13.635 27.32 12.36 40.32 12.96 12.928.597 36.636 1.105 40.56-6 10.405-18.84 12.652-93.089 15.36-110.4 1.12-7.16-7.005 6.309-64.8 7.68-20.674.49-60.76-11.6-59.28-8.16Z" style="fill:none;stroke:#000;stroke-width:2.92px"/><path d="M78.047 98.802a1.538 1.538 0 0 0-.083.08c-.174.18-.453.689-.591 1.223-.111.432-.135.863-.104 1.078.051.35.201.59.338.746.371.424.852.612 1.485.39.164-.057.682-.314 1.192-1.335l.003-.005c.056-.114.097-.237.119-.366.175-.696.379-2.153.559-4.166.791-8.863 1.996-29.784 5.598-39.45 4.385-11.767 10.796-39.795 45.034-38.323 26.493 1.139 34.026 19.282 38.274 29.88 2.675 6.674 2.282 19.478 2.758 27.268.119 1.942.297 3.595.567 4.814-1.835.004-3.773.656-5.451 1.718-2.802 1.772-4.764 4.649-4.587 7.092.002.028.004.055.008.083.072.643.512 1.321 1.701 1.483.408.055 1.03.037 1.792.035 2.577.44 5.289 1.018 6.391 1.242 2.474 1.235 3.744 1.663 4.471 1.866.211.059.438.116.569.149l.105.066.059.039c.399.318.83.34 1.263.179a.885.885 0 0 0 .11-.05l.055-.026a1.33 1.33 0 0 0 .661-.851 1.88 1.88 0 0 0 .075-.337c.088-.663.193-2.821-.308-5.239-.093-.798-.218-1.542-.385-2.108-.643-2.176-1.747-3.569-3.057-4.391a9.369 9.369 0 0 0-.481-.401 5.822 5.822 0 0 1-.335-.876c-.285-1.108-.446-2.72-.564-4.649-.49-8.03-.187-21.218-2.944-28.097-4.501-11.228-12.564-30.344-40.633-31.551-36.04-1.549-43.028 27.669-47.644 40.055-3.212 8.619-4.601 26.012-5.432 36.277-.228 2.814-.414 5.08-.588 6.458Zm97.023-15.064a3.373 3.373 0 0 0-.326-.158c-1.714-.712-3.83-.079-5.575 1.025-1.217.77-2.264 1.794-2.869 2.879a4.56 4.56 0 0 0-.338.751l.652.106.58.1c1.812.032 4.344.168 6.777 1.333.224.042.51.111.834.211.812.249 1.972.675 2.875 1.069a35.284 35.284 0 0 0-.164-2.365c-.081-.4-.182-.808-.306-1.218-.405-1.334-1.057-2.688-2.14-3.733Z"/></svg>