<svg viewBox="0 0 492 492" xmlns="http://www.w3.org/2000/svg" xml:space="preserve" style="fill-rule:evenodd;clip-rule:evenodd;stroke-linecap:round;stroke-linejoin:round;stroke-miterlimit:1.5"><g transform="scale(.48)"><path d="M793 519.513c-4.667-80-158.132-168.086-255-165.513-81.666 2.169-229.567 13.438-256.152 162.651-6.126 34.382 145.308 124.804 285.219 95.005C683.796 586.795 781.503 582.49 793 519.513" style="fill:#fff;stroke:#000;stroke-width:15.24px" transform="matrix(1 0 0 .52621 0 167.626)"/><path d="M327.381 422.074c0-10.338-40.367 11.811-34.756 23.033 3.372 6.745 46.288 12.66 53.033 16.033 15.403 7.702.723-42.299-18.277-39.066Z" style="fill:#fff"/><path d="M330.91 416.482c-.835-.864-1.906-1.522-3.175-1.998-2.305-.864-6.119-.835-10.609.598-9.016 2.876-21.852 11.075-27.274 18.693-3.501 4.918-4.177 9.842-2.191 13.814.641 1.283 1.824 2.684 3.702 3.936 2.393 1.595 6.418 3.221 11.333 4.698 13.884 4.17 35.863 7.572 40.48 9.881 4.02 2.01 7.145 1.595 9.378.408 2.904-1.545 5.2-5.383 5.089-11.132-.156-8.031-4.675-20.962-11.58-29.441-4.333-5.321-9.603-8.824-15.153-9.457Zm-8.086 8.758a5.551 5.551 0 0 0 5.488 2.305c2.844-.484 5.35 1.345 7.661 3.73 4.888 5.041 8.519 13.144 9.956 19.699.315 1.435.416 3.163.439 4.501-7.199-2.418-27.301-5.925-40.479-9.883-3.135-.942-6.789-2.624-8.131-3.263.039-.145.087-.297.137-.412.377-.87.987-1.752 1.728-2.653 3.687-4.484 10.34-8.965 16.273-11.76 2.258-1.063 5.255-1.865 6.928-2.264Z"/><path d="M278 451c28.745 66.812 78.624 346.794 116 433 24.632 56.813 113.833 51.5 168 54 53.866 2.486 152.649 4.606 169-25 43.355-78.501 52.717-387.869 64-460 4.667-29.833-29.187 26.289-270 32-86.143 2.043-253.167-48.333-247-34Z" style="fill:#fff"/><clipPath id="a"><path d="M278 451c28.745 66.812 78.624 346.794 116 433 24.632 56.813 113.833 51.5 168 54 53.866 2.486 152.649 4.606 169-25 43.355-78.501 52.717-387.869 64-460 4.667-29.833-29.187 26.289-270 32-86.143 2.043-253.167-48.333-247-34Z"/></clipPath><g clip-path="url(#a)"><path d="M397.326 879.558A5.523 5.523 0 0 0 394 878.45c-3.631 0-4.863 2.323-5.229 3.017-.792 1.502-.986 3.187-.081 5.048.209.43 1.22 2.255 4.168 3.264 9.037 3.094 76.933 18.597 80.33 19.118 58.281 8.939 149.616 2.888 150.618 2.852 31.797-1.144 107.369-4.329 112.501-4.329a5.553 5.553 0 0 0 5.55-5.55 5.552 5.552 0 0 0-5.55-5.55c-5.15 0-80.99 3.189-112.9 4.336-.988.036-91.062 6.085-148.536-2.731-3.224-.494-65.934-14.792-77.545-18.367Zm-3.042 9.985-.284.007c.097 0 .192-.002.284-.007Zm.261-.02-.258.02.16-.009.098-.011Zm1.171-.245a5.433 5.433 0 0 1-1.101.237 4.898 4.898 0 0 0 1.101-.237Z"/></g><path d="M278 451c28.745 66.812 78.624 346.794 116 433 24.632 56.813 113.833 51.5 168 54 53.866 2.486 152.649 4.606 169-25 43.355-78.501 52.717-387.869 64-460 4.667-29.833-29.187 26.289-270 32-86.143 2.043-253.167-48.333-247-34Z" style="fill:none;stroke:#000;stroke-width:12.18px"/><path d="M795 453c-4.667-80-160.132-101.573-257-99-132.567 3.521-274.295 33.227-260 97" style="fill:none;stroke:#000;stroke-width:12.18px"/><path d="M278 451c28.745 66.812 78.624 346.794 116 433 24.632 56.813 113.833 51.5 168 54 53.866 2.486 152.649 4.606 169-25 43.355-78.501 52.717-387.869 64-460 4.667-29.833-29.187 26.289-270 32-86.143 2.043-253.167-48.333-247-34Z" style="fill:#fff"/><clipPath id="b"><path d="M278 451c28.745 66.812 78.624 346.794 116 433 24.632 56.813 113.833 51.5 168 54 53.866 2.486 152.649 4.606 169-25 43.355-78.501 52.717-387.869 64-460 4.667-29.833-29.187 26.289-270 32-86.143 2.043-253.167-48.333-247-34Z"/></clipPath><g clip-path="url(#b)"><path d="M397.326 879.558A5.523 5.523 0 0 0 394 878.45c-3.631 0-4.863 2.323-5.229 3.017-.792 1.502-.986 3.187-.081 5.048.209.43 1.22 2.255 4.168 3.264 9.037 3.094 76.933 18.597 80.33 19.118 58.281 8.939 149.616 2.888 150.618 2.852 31.797-1.144 107.369-4.329 112.501-4.329a5.553 5.553 0 0 0 5.55-5.55 5.552 5.552 0 0 0-5.55-5.55c-5.15 0-80.99 3.189-112.9 4.336-.988.036-91.062 6.085-148.536-2.731-3.224-.494-65.934-14.792-77.545-18.367Zm-3.042 9.985-.284.007c.097 0 .192-.002.284-.007Zm.261-.02-.258.02.16-.009.098-.011Zm1.171-.245a5.433 5.433 0 0 1-1.101.237 4.898 4.898 0 0 0 1.101-.237Z"/></g><path d="M278 451c28.745 66.812 78.624 346.794 116 433 24.632 56.813 113.833 51.5 168 54 53.866 2.486 152.649 4.606 169-25 43.355-78.501 52.717-387.869 64-460 4.667-29.833-29.187 26.289-270 32-86.143 2.043-253.167-48.333-247-34Z" style="fill:none;stroke:#000;stroke-width:12.18px"/><path d="M325.196 411.675a6.66 6.66 0 0 0-.345.332c-.727.751-1.89 2.871-2.464 5.099-.463 1.798-.563 3.595-.433 4.488.212 1.462.838 2.461 1.406 3.11 1.547 1.768 3.552 2.549 6.191 1.625.681-.238 2.841-1.309 4.968-5.562l.009-.02a5.49 5.49 0 0 0 .496-1.527c.729-2.9 1.582-8.968 2.33-17.355 3.297-36.932 8.318-124.103 23.326-164.377 18.272-49.029 44.98-165.815 187.639-159.681C658.71 82.553 690.097 158.15 707.797 202.31c11.146 27.806 9.508 81.158 11.491 113.615.494 8.093 1.235 14.98 2.36 20.057-7.645.017-15.717 2.734-22.712 7.16-11.672 7.384-19.849 19.37-19.109 29.55.005.115.016.23.03.345.3 2.681 2.133 5.503 7.088 6.178 1.7.231 4.293.156 7.469.148 10.735 1.831 22.036 4.24 26.627 5.175 10.309 5.144 15.601 6.927 18.63 7.773.881.246 1.824.485 2.372.621l.437.277.246.16c1.661 1.325 3.456 1.418 5.263.749a3.93 3.93 0 0 0 .458-.208l.227-.112a5.533 5.533 0 0 0 2.755-3.545c.137-.424.244-.89.312-1.404.367-2.762.803-11.753-1.282-21.829-.388-3.323-.908-6.423-1.605-8.783-2.68-9.067-7.277-14.872-12.739-18.294a37.433 37.433 0 0 0-2.002-1.671c-.096-.2-1.001-2.117-1.395-3.649-1.187-4.621-1.86-11.335-2.351-19.375-2.043-33.455-.778-88.406-12.267-117.068-18.753-46.786-52.35-126.434-169.304-131.463-150.165-6.456-179.284 115.286-198.517 166.895-13.382 35.911-19.173 108.382-22.635 151.155-.948 11.724-1.722 21.168-2.448 26.908Zm404.263-62.767a13.487 13.487 0 0 0-1.36-.656c-7.139-2.968-15.959-.329-23.229 4.27-5.072 3.209-9.434 7.473-11.952 11.996a18.597 18.597 0 0 0-1.408 3.128l2.713.441 2.419.416c7.55.134 18.1.702 28.237 5.554.932.175 2.123.465 3.477.88 3.38 1.039 8.216 2.813 11.976 4.456-.12-3.102-.327-6.59-.681-9.857a55.625 55.625 0 0 0-1.277-5.073c-1.686-5.557-4.405-11.201-8.915-15.555Z"/></g></svg>