<?xml version="1.0" encoding="UTF-8" standalone="no"?>
<!DOCTYPE svg PUBLIC "-//W3C//DTD SVG 1.1//EN" "http://www.w3.org/Graphics/SVG/1.1/DTD/svg11.dtd">
<svg width="100%" height="100%" viewBox="0 0 492 492" version="1.1" xmlns="http://www.w3.org/2000/svg" xmlns:xlink="http://www.w3.org/1999/xlink" xml:space="preserve" xmlns:serif="http://www.serif.com/" style="fill-rule:evenodd;clip-rule:evenodd;stroke-linecap:round;stroke-linejoin:round;stroke-miterlimit:1.5;">
    <g transform="matrix(0.48,0,0,0.48,0,0)">
        <g transform="matrix(1,0,0,0.526213,0,167.626)">
            <path d="M793,519.513C788.333,439.513 634.868,351.427 538,354C456.334,356.169 308.433,367.438 281.848,516.651C275.722,551.033 427.156,641.455 567.067,611.656C683.796,586.795 781.503,582.49 793,519.513" style="fill:white;stroke:black;stroke-width:15.24px;"/>
        </g>
        <path d="M327.381,422.074C327.381,411.736 287.014,433.885 292.625,445.107C295.997,451.852 338.913,457.767 345.658,461.14C361.061,468.842 346.381,418.841 327.381,422.074Z" style="fill:white;"/>
        <path d="M330.91,416.482C330.075,415.618 329.004,414.96 327.735,414.484C325.43,413.62 321.616,413.649 317.126,415.082C308.11,417.958 295.274,426.157 289.852,433.775C286.351,438.693 285.675,443.617 287.661,447.589C288.302,448.872 289.485,450.273 291.363,451.525C293.756,453.12 297.781,454.746 302.696,456.223C316.58,460.393 338.559,463.795 343.176,466.104C347.196,468.114 350.321,467.699 352.554,466.512C355.458,464.967 357.754,461.129 357.643,455.38C357.487,447.349 352.968,434.418 346.063,425.939C341.73,420.618 336.46,417.115 330.91,416.482ZM322.824,425.24C323.098,425.636 323.425,425.998 323.801,426.315C325.05,427.369 326.7,427.819 328.312,427.545C331.156,427.061 333.662,428.89 335.973,431.275C340.861,436.316 344.492,444.419 345.929,450.974C346.244,452.409 346.345,454.137 346.368,455.475C339.169,453.057 319.067,449.55 305.889,445.592C302.754,444.65 299.1,442.968 297.758,442.329C297.797,442.184 297.845,442.032 297.895,441.917C298.272,441.047 298.882,440.165 299.623,439.264C303.31,434.78 309.963,430.299 315.896,427.504C318.154,426.441 321.151,425.639 322.824,425.24Z"/>
        <path d="M278,451C306.745,517.812 356.624,797.794 394,884C418.632,940.813 507.833,935.5 562,938C615.866,940.486 714.649,942.606 731,913C774.355,834.499 783.717,525.131 795,453C799.667,423.167 765.813,479.289 525,485C438.857,487.043 271.833,436.667 278,451Z" style="fill:white;"/>
        <clipPath id="_clip1">
            <path d="M278,451C306.745,517.812 356.624,797.794 394,884C418.632,940.813 507.833,935.5 562,938C615.866,940.486 714.649,942.606 731,913C774.355,834.499 783.717,525.131 795,453C799.667,423.167 765.813,479.289 525,485C438.857,487.043 271.833,436.667 278,451Z"/>
        </clipPath>
        <g clip-path="url(#_clip1)">
            <path d="M397.326,879.558C396.398,878.862 395.247,878.45 394,878.45C390.369,878.45 389.137,880.773 388.771,881.467C387.979,882.969 387.785,884.654 388.69,886.515C388.899,886.945 389.91,888.77 392.858,889.779C401.895,892.873 469.791,908.376 473.188,908.897C531.469,917.836 622.804,911.785 623.806,911.749C655.603,910.605 731.175,907.42 736.307,907.42C739.37,907.42 741.857,904.933 741.857,901.87C741.857,898.806 739.37,896.32 736.307,896.32C731.157,896.32 655.317,899.509 623.407,900.656C622.419,900.692 532.345,906.741 474.871,897.925C471.647,897.431 408.937,883.133 397.326,879.558ZM394.284,889.543L394,889.55C394.097,889.55 394.192,889.548 394.284,889.543ZM394.545,889.523L394.287,889.543L394.447,889.534L394.545,889.523ZM395.716,889.278C395.363,889.393 394.995,889.474 394.615,889.515C395.028,889.473 395.393,889.389 395.716,889.278Z"/>
        </g>
        <path d="M278,451C306.745,517.812 356.624,797.794 394,884C418.632,940.813 507.833,935.5 562,938C615.866,940.486 714.649,942.606 731,913C774.355,834.499 783.717,525.131 795,453C799.667,423.167 765.813,479.289 525,485C438.857,487.043 271.833,436.667 278,451Z" style="fill:none;stroke:black;stroke-width:12.18px;"/>
        <path d="M795,453C790.333,373 634.868,351.427 538,354C405.433,357.521 263.705,387.227 278,451" style="fill:none;stroke:black;stroke-width:12.18px;"/>
        <path d="M278,451C306.745,517.812 356.624,797.794 394,884C418.632,940.813 507.833,935.5 562,938C615.866,940.486 714.649,942.606 731,913C774.355,834.499 783.717,525.131 795,453C799.667,423.167 765.813,479.289 525,485C438.857,487.043 271.833,436.667 278,451Z" style="fill:white;"/>
        <clipPath id="_clip2">
            <path d="M278,451C306.745,517.812 356.624,797.794 394,884C418.632,940.813 507.833,935.5 562,938C615.866,940.486 714.649,942.606 731,913C774.355,834.499 783.717,525.131 795,453C799.667,423.167 765.813,479.289 525,485C438.857,487.043 271.833,436.667 278,451Z"/>
        </clipPath>
        <g clip-path="url(#_clip2)">
            <path d="M397.326,879.558C396.398,878.862 395.247,878.45 394,878.45C390.369,878.45 389.137,880.773 388.771,881.467C387.979,882.969 387.785,884.654 388.69,886.515C388.899,886.945 389.91,888.77 392.858,889.779C401.895,892.873 469.791,908.376 473.188,908.897C531.469,917.836 622.804,911.785 623.806,911.749C655.603,910.605 731.175,907.42 736.307,907.42C739.37,907.42 741.857,904.933 741.857,901.87C741.857,898.806 739.37,896.32 736.307,896.32C731.157,896.32 655.317,899.509 623.407,900.656C622.419,900.692 532.345,906.741 474.871,897.925C471.647,897.431 408.937,883.133 397.326,879.558ZM394.284,889.543L394,889.55C394.097,889.55 394.192,889.548 394.284,889.543ZM394.545,889.523L394.287,889.543L394.447,889.534L394.545,889.523ZM395.716,889.278C395.363,889.393 394.995,889.474 394.615,889.515C395.028,889.473 395.393,889.389 395.716,889.278Z"/>
        </g>
        <path d="M278,451C306.745,517.812 356.624,797.794 394,884C418.632,940.813 507.833,935.5 562,938C615.866,940.486 714.649,942.606 731,913C774.355,834.499 783.717,525.131 795,453C799.667,423.167 765.813,479.289 525,485C438.857,487.043 271.833,436.667 278,451Z" style="fill:none;stroke:black;stroke-width:12.18px;"/>
        <path d="M325.196,411.675C325.08,411.779 324.965,411.889 324.851,412.007C324.124,412.758 322.961,414.878 322.387,417.106C321.924,418.904 321.824,420.701 321.954,421.594C322.166,423.056 322.792,424.055 323.36,424.704C324.907,426.472 326.912,427.253 329.551,426.329C330.232,426.091 332.392,425.02 334.519,420.767L334.528,420.747C334.763,420.273 334.933,419.76 335.024,419.22C335.753,416.32 336.606,410.252 337.354,401.865C340.651,364.933 345.672,277.762 360.68,237.488C378.952,188.459 405.66,71.673 548.319,77.807C658.71,82.553 690.097,158.15 707.797,202.31C718.943,230.116 717.305,283.468 719.288,315.925C719.782,324.018 720.523,330.905 721.648,335.982C714.003,335.999 705.931,338.716 698.936,343.142C687.264,350.526 679.087,362.512 679.827,372.692C679.832,372.807 679.843,372.922 679.857,373.037C680.157,375.718 681.99,378.54 686.945,379.215C688.645,379.446 691.238,379.371 694.414,379.363C705.149,381.194 716.45,383.603 721.041,384.538C731.35,389.682 736.642,391.465 739.671,392.311C740.552,392.557 741.495,392.796 742.043,392.932L742.48,393.209L742.726,393.369C744.387,394.694 746.182,394.787 747.989,394.118C748.06,394.092 748.224,394.027 748.447,393.91L748.674,393.798C750.069,393.049 751.058,391.752 751.429,390.253C751.566,389.829 751.673,389.363 751.741,388.849C752.108,386.087 752.544,377.096 750.459,367.02C750.071,363.697 749.551,360.597 748.854,358.237C746.174,349.17 741.577,343.365 736.115,339.943C735.472,339.367 734.805,338.81 734.113,338.272C734.017,338.072 733.112,336.155 732.718,334.623C731.531,330.002 730.858,323.288 730.367,315.248C728.324,281.793 729.589,226.842 718.1,198.18C699.347,151.394 665.75,71.746 548.796,66.717C398.631,60.261 369.512,182.003 350.279,233.612C336.897,269.523 331.106,341.994 327.644,384.767C326.696,396.491 325.922,405.935 325.196,411.675ZM729.459,348.908C729.017,348.663 728.563,348.445 728.099,348.252C720.96,345.284 712.14,347.923 704.87,352.522C699.798,355.731 695.436,359.995 692.918,364.518C692.34,365.556 691.859,366.602 691.51,367.646L694.223,368.087L696.642,368.503C704.192,368.637 714.742,369.205 724.879,374.057C725.811,374.232 727.002,374.522 728.356,374.937C731.736,375.976 736.572,377.75 740.332,379.393C740.212,376.291 740.005,372.803 739.651,369.536C739.313,367.872 738.892,366.17 738.374,364.463C736.688,358.906 733.969,353.262 729.459,348.908Z"/>
    </g>
</svg>
