<svg viewBox="0 0 246 246" xmlns="http://www.w3.org/2000/svg" xml:space="preserve" style="fill-rule:evenodd;clip-rule:evenodd;stroke-linejoin:round;stroke-miterlimit:2"><path d="M219.619 17.77c-4.126 4.127-.151 36.152-.151 43.005v124.298c0 14.388.754 44.914 0 45.669-.328.327-74.305-.17-80.969-.152-9.227.026-41.833.946-58.023.946-1.594 0-20.65-.421-20.65-1.589 0-6.723-.542-22.394-.794-29.783-.549-16.072-1.986-67.261-1.986-74.262 0-19.33.397-38.595.397-57.979 0-6.858-.478-46.78 2.383-49.64 1.163-1.163 28.43-1.191 31.769-1.191 10.345 0 79.326-.397 91.338-.397 8.427 0 32.599 1.075 36.686 1.075Z" style="fill:#fff"/><path d="M220.251 18.402a.894.894 0 0 0-.632-1.525c-4.087 0-28.259-1.076-36.686-1.076-12.012 0-80.993.397-91.338.397-2.678 0-20.707.019-28.409.624-1.412.11-2.492.245-3.097.397-.472.118-.762.299-.895.432-.238.239-.485.649-.691 1.236-.361 1.03-.667 2.728-.911 4.898-1.346 11.931-1.043 38.639-1.043 44.138 0 19.384-.397 38.649-.397 57.979 0 7.003 1.438 58.214 1.986 74.292.252 7.382.794 23.036.794 29.753 0 .275.099.589.444.85.287.217 1.11.476 2.318.649 4.963.71 17.498.983 18.782.983 16.191 0 48.799-.92 58.025-.945 5.999-.017 66.527.384 78.811.226 1.31-.017 2.106-.049 2.277-.078.308-.054.454-.202.51-.258.093-.093.248-.304.327-.681.107-.513.184-1.775.225-3.589.193-8.666-.29-30.515-.29-42.031V60.775c0-4.794-1.948-21.916-1.701-33.172.062-2.822.26-5.266.673-7.03.234-1 .508-1.76.918-2.171Zm-1.539 211.49c-.354.011-.851.024-1.423.031-12.281.158-72.796-.243-78.793-.226-9.226.025-41.83.945-58.02.945-1.266 0-13.633-.265-18.529-.965a13.036 13.036 0 0 1-1.229-.25c-.026-6.986-.547-22.081-.793-29.294-.549-16.065-1.986-67.233-1.986-74.231 0-19.33.398-38.595.398-57.979 0-5.474-.309-32.061 1.03-43.937.195-1.726.422-3.131.694-4.098.112-.398.204-.707.328-.889a29.66 29.66 0 0 1 2.937-.396c7.664-.601 25.605-.618 28.269-.618 10.345 0 79.326-.397 91.338-.397 7.674 0 28.402.892 35.133 1.052-.18.443-.339.953-.473 1.526-.435 1.856-.655 4.428-.72 7.398-.247 11.269 1.701 28.411 1.701 33.211v124.298c0 11.505.483 33.333.29 41.991a46.86 46.86 0 0 1-.152 2.828Z"/><path d="M212.611 52.798c0 8.974.953 50.314.953 55.597v52.737c0 10.331-1.346 46.424-1.346 46.424s-6.351 6.558-6.596 6.313c-.159-.158-23.998-.472-29.228 1.271-3.615 1.205-104.299 2.764-105.157 1.906-4.015-4.014-15.697-47.938-16.203-49.242-7.301-18.84-19.903-77.295-22.874-83.237-.159-.317 7.327-6.619 7.711-6.584 5.756.51 39.222 1.047 62.8 1.704 2.284.064 18.579.372 20.35.433 8.661.298 51.837-.286 54.326.317 3.035.736 13.946 48.806 15.466 55.972.175.828 20.39 70.162 19.405 71.147-1.231 1.231-6.596 6.669-6.596 6.313 0-3.782-9.19-38.711-12.073-44.477-5.632-11.265-16.884-61.453-18.108-65.128-2.062-6.186-4.448-11.099-4.448-18.108 0-.131-32.565.604-32.649.52-.172-.171-55.755-1.744-74.911-1.406-15.857.279-26.981-.067-30.995-.067" style="fill:#fff"/><path d="M211.591 200.152c-4.567-17.965-17.762-63.26-17.904-63.929-1.218-5.744-8.461-37.72-12.866-50.658-.802-2.354-1.523-4.097-2.095-4.986-.41-.638-.851-.933-1.169-1.01-2.496-.605-45.816-.044-54.505-.342-1.772-.061-18.072-.369-20.356-.433-23.558-.656-56.995-1.191-62.746-1.702a.997.997 0 0 0-.494.087c-.134.059-.413.231-.784.504-1.479 1.089-4.928 3.99-6.427 5.43-.395.38-.668.679-.779.841-.103.15-.15.279-.172.366a.899.899 0 0 0 .067.647c.069.138.144.305.223.5a.86.86 0 0 0 .052.13c3.403 8.592 15.478 64.243 22.565 82.529.354.913 6.176 22.687 11.015 37.045 1.469 4.36 2.851 8.044 3.964 10.28.53 1.063 1.02 1.822 1.425 2.227.07.071.268.237.66.299.398.064 1.436.117 3.008.15 13.583.29 68.733-.53 91.917-1.425 5.933-.229 9.82-.492 10.486-.714 4.138-1.379 20.052-1.426 26.332-1.321 1.077.018 1.977.055 2.307.07.241.104.553.091.936-.169.046-.027.094-.059.143-.095 1.228-.899 6.466-6.295 6.466-6.295l.03-.033c.106-.12.24-.336.255-.691a2.842 2.842 0 0 0-.016-.35c.16-4.328 1.329-36.34 1.329-45.972v-52.737c0-5.283-.953-46.623-.953-55.597a.894.894 0 0 0-1.787 0c0 8.974.953 50.314.953 55.597v52.737c0 7.379-.688 27.908-1.08 39.02ZM33.703 86.105c3.938 11.851 15.357 63.812 22.164 81.376.355.914 6.194 22.732 11.042 37.12 1.234 3.662 2.403 6.839 3.399 9.052.531 1.181.992 2.073 1.391 2.571.379.026 1.384.09 2.612.117 13.567.289 68.653-.531 91.81-1.425 5.651-.218 9.356-.412 9.99-.624 4.653-1.55 23.863-1.52 28.528-1.375-.948-6.714-9.197-37.742-11.889-43.125-5.643-11.286-16.93-61.564-18.157-65.245-2.006-6.019-4.294-10.856-4.481-17.513h-.027c-4.748.021-26.592.499-30.969.539-.496.005-.794 0-.855-.007a.831.831 0 0 1-.095-.014 73.972 73.972 0 0 0-1.48-.074c-9.295-.376-56.009-1.618-73.237-1.315-14.428.255-24.939-.009-29.746-.058Zm6.35-7.211c-1.112.743-4.878 3.889-6.484 5.422 4.739.046 15.301.317 29.848.06 17.253-.304 64.033.94 73.341 1.317.981.04 1.57.075 1.699.094.094.001.354.002.643-.001 4.378-.04 26.228-.518 30.977-.539.621-.002.993.013 1.061.025.72.127.749.738.749.884 0 6.902 2.371 11.734 4.401 17.826 1.223 3.667 12.439 53.767 18.061 65.01 2.642 5.285 10.523 34.852 11.945 43.085 1.448-1.401 4.005-3.881 5.038-4.9a23.802 23.802 0 0 0-.287-1.643c-2.558-11.958-18.948-68.194-19.106-68.94-1.213-5.721-8.423-37.567-12.81-50.453-.639-1.875-1.211-3.339-1.697-4.239a5.389 5.389 0 0 0-.41-.618c-3.453-.564-45.509.022-54.032-.271-1.77-.061-18.061-.369-20.344-.433-23.266-.648-56.15-1.181-62.593-1.686Z"/><path d="M219.619 16.873c-4.126.687.603 35.286-.151 35.411-.328.055-17.926.104-19.856.264-4.961.413-54.449-.292-61.113-.289-9.227.004-41.833.157-58.023.157-1.594 0-23.43.912-23.43.718 0-1.118.397-24.699.397-27.922 0-1.14-.478-7.778 2.383-8.253 1.163-.194 28.43-.198 31.769-.198 10.345 0 79.326-.066 91.338-.066 8.427 0 32.599.178 36.686.178Z" style="fill:#fff"/><path d="M219.798 17.749a.894.894 0 0 0-.179-1.769c-4.087 0-28.259-.179-36.686-.179-12.012 0-80.993.066-91.338.066-3.354 0-30.747.016-31.916.21-1.16.193-1.976 1.071-2.463 2.338-.883 2.296-.667 5.959-.667 6.797 0 3.223-.397 26.804-.397 27.922 0 .23.056.631.57.836.06.024.387.086.938.085 3.552-.007 21.382-.745 22.816-.745 16.19 0 48.797-.153 58.023-.158 6.672-.003 56.22.7 61.187.287 1.938-.161 19.599-.219 19.928-.273.22-.037.655-.184.782-.804.123-.596-.105-3.637-.452-7.728-.607-7.134-1.501-17.598-.995-23.397.101-1.163.255-2.126.492-2.814.074-.217.154-.4.248-.544.031-.047.09-.111.109-.13Zm-2.016.013a7.927 7.927 0 0 0-.288 1.016c-1.09 5.002-.036 17.716.669 26.007.244 2.874.394 5.506.453 6.635-3.334.047-17.369.096-19.078.238-4.955.412-54.384-.296-61.04-.293-9.226.005-41.832.158-58.022.158-1.399 0-18.385.702-22.527.742.061-4.485.388-24.131.388-27.053 0-.659-.177-3.227.286-5.274.133-.59.316-1.134.596-1.546.191-.282.427-.498.753-.552 1.158-.192 28.3-.186 31.623-.186 10.345 0 79.326-.066 91.338-.066 7.569 0 27.836.144 34.849.174Z"/><path d="M66.6 39.538c3.703-3.703 8.427-5.984 12.264-9.821 1.713-1.713 4.999-3.33 6.289-4.621" style="fill:#fff"/><path d="M67.232 40.17c3.702-3.703 8.427-5.985 12.264-9.821 1.713-1.713 4.998-3.33 6.289-4.621a.894.894 0 0 0-1.264-1.264c-1.29 1.291-4.576 2.908-6.289 4.621-3.837 3.837-8.561 6.118-12.264 9.821a.894.894 0 0 0 1.264 1.264Z"/><path d="M71.467 44.448c-.155-.361 11.862-11.389 13.903-13.43.758-.757 2.928-1.637 2.928-2.602" style="fill:#fff"/><path d="M87.406 28.367c-.017.025-.061.091-.096.129-.1.111-.228.218-.368.325-.729.559-1.728 1.09-2.204 1.565-1.841 1.842-11.783 10.984-13.64 13.057-.375.418-.5.753-.516.857a.895.895 0 0 0 1.703.505c.035-.044.092-.111.144-.17 1.848-2.062 11.741-11.153 13.573-12.985.525-.525 1.737-1.104 2.415-1.735.508-.472.775-.999.775-1.499a.894.894 0 0 0-1.786-.049Z"/><path d="M179.989 28.926c-.32 1.275-1.454 7.124-.635 7.943.124.124 1.077 0 1.271 0 3.503 0 31.88-.111 32.087-.318.188-.188-.635-2.526-.635-3.177 0-.658.419-3.711 0-4.13-.333-.332-20.672.318-22.239.318-2.496 0-10.188-.636-9.849-.636Z" style="fill:#fff"/><path d="M179.071 28.927c-.008-.214.074-.421.263-.619.031-.032.212-.275.655-.275.061 0 .12.006.178.018l.038.004c1.011.102 7.407.613 9.633.613 1.412 0 18.055-.526 21.612-.389.415.016.693.051.81.082a.956.956 0 0 1 .449.251c.173.174.361.538.417 1.066.11 1.043-.156 3.156-.156 3.696 0 .495.521 2.015.63 2.696.097.601-.13.987-.256 1.113a.875.875 0 0 1-.415.237c-.086.023-.447.062-1.04.083-4.784.169-28.108.259-31.264.259-.168 0-.861.078-1.2.043a1.16 1.16 0 0 1-.703-.304 1.669 1.669 0 0 1-.4-.714c-.123-.412-.171-1.041-.145-1.785.069-1.999.631-4.94.894-6.075Zm1.617.966c1.996.171 7.178.562 9.15.562 1.253 0 14.521-.416 19.948-.412.586.001 1.167.017 1.558.032.012.26.022.606.009.887-.048.977-.17 2.05-.17 2.412 0 .335.173 1.066.363 1.783.047.177.096.377.14.565-5.075.166-27.942.253-31.061.253-.077 0-.365.015-.615.029a7.032 7.032 0 0 1-.047-.94c.056-1.616.456-3.887.725-5.171Zm-.198-1.706a.885.885 0 0 1 .331.413.766.766 0 0 0-.331-.413Z"/><path d="M66.533 52.906c.133 4.419-.408 6.461-.408 7.398 0 3.13.506 21.476.506 18.486" style="fill:#fff"/><path d="M67.492 78.554c-.078-2.582-.473-15.725-.473-18.25 0-.941.541-2.99.407-7.425a.894.894 0 0 0-1.786.054c.133 4.403-.408 6.437-.408 7.371 0 2.83.413 18.044.495 18.868.015.151.05.239.062.271a.832.832 0 0 0 .679.555c.279.05.642.022.911-.403.012-.019.145-.268.145-.805a.873.873 0 0 0-.032-.236Z"/><path d="M124.076 60.327c13.088-1.305 19.775 1.353 28.375 7.624 5.901 4.302 7.797 14.149 7.797 12.199" style="fill:#fff"/><path d="M160.705 79.383c-.824-2.159-3.109-8.787-7.727-12.154-8.787-6.407-15.619-9.124-28.99-7.791a.893.893 0 1 0 .177 1.778c12.803-1.276 19.347 1.322 27.76 7.457 4.559 3.324 6.599 10.102 7.251 11.706.132.326.261.524.332.603a.914.914 0 0 0 .512.296.885.885 0 0 0 .618-.093c.116-.063.503-.326.503-1.035a.891.891 0 0 0-.436-.767Z"/><path d="M190.637 126.709c2.851.076 14.649-4.355 16.465-.721 4.52 9.041 1.192 33.009 1.192 44.08" style="fill:#fff"/><path d="M190.613 127.603c1.731.045 6.724-1.532 10.835-2.022 1.256-.15 2.423-.196 3.359-.027.69.124 1.248.337 1.496.833 1.763 3.527 2.266 9.388 2.278 15.836.017 9.918-1.181 21.203-1.181 27.845a.893.893 0 0 0 1.787 0c0-6.643 1.198-17.929 1.181-27.848-.012-6.777-.614-12.926-2.467-16.632-.67-1.34-2.378-1.953-4.628-1.926-2.619.032-6.015.828-8.752 1.456-1.69.387-3.105.718-3.861.698a.894.894 0 0 0-.047 1.787Z"/><path d="M107.463 59.878c5.222-.624 17.893-1.657 26.05 4.636 6.897 5.321 11.29 10.238 12.304 15.67" style="fill:#fff"/><path d="M107.569 60.765c5.089-.608 17.449-1.677 25.398 4.456 6.678 5.153 10.99 9.867 11.971 15.127a.894.894 0 1 0 1.757-.328c-1.046-5.605-5.52-10.723-12.636-16.214-8.365-6.453-21.348-5.455-26.702-4.816a.894.894 0 0 0 .212 1.775Z"/><path d="M70.096 78.333c2.289-2.288 2.101-10.748 14.621-16.043 10.614-4.488 23.6-4.616 33.59 2.188 5.944 4.048 9.545 15.717 9.505 15.717" style="fill:#fff"/><path d="M126.936 80.371a.894.894 0 0 0 .876.717c.302 0 .59-.113.783-.463.035-.063.146-.244.102-.558a4.423 4.423 0 0 0-.129-.472c-.627-1.989-4.236-12.094-9.758-15.856-10.243-6.976-23.558-6.874-34.441-2.272-9.093 3.845-11.72 9.305-13.295 13.046-.594 1.41-.983 2.562-1.61 3.189a.894.894 0 0 0 1.264 1.263c.747-.746 1.285-2.079 1.993-3.759 1.461-3.47 3.908-8.526 12.344-12.093 10.344-4.374 23.003-4.528 32.739 2.103 5.177 3.526 8.472 13.052 9.06 14.917l.072.238Zm.27-.833Zm.006-.006a.894.894 0 0 1 .006-.005l-.006.005Z"/><path d="M194.979 125.93c1.612-1.613 2.138-15.09 1.401-15.827-4.178-4.178-4.077-20.157 4.368-19.856 5.551.198 5.54 16.013-.744 19.842-1.661 1.012-.515 12.187-.515 14.884" style="fill:#fff"/><path d="M195.633 110.616c.032.266.182 1.6.181 2.925-.003 2.967-.287 7.197-.84 9.848-.131.629-.274 1.163-.437 1.554-.065.155-.117.282-.19.355a.893.893 0 1 0 1.263 1.263c.407-.407.824-1.416 1.114-2.807.573-2.749.874-7.135.877-10.212.001-1.365-.06-2.48-.173-3.107-.093-.516-.282-.83-.416-.964-.907-.907-1.563-2.442-1.974-4.227-.648-2.821-.652-6.266.179-9.089.844-2.871 2.553-5.12 5.5-5.015.817.029 1.442.561 1.928 1.348.602.975.981 2.322 1.162 3.832.338 2.837-.042 6.24-1.178 8.98-.717 1.73-1.73 3.197-3.09 4.026-.275.167-.538.463-.735.908-.279.632-.458 1.677-.536 2.952-.234 3.82.327 9.89.327 11.787a.893.893 0 0 0 1.787 0c0-1.879-.562-7.893-.33-11.678.046-.751.122-1.408.248-1.911.056-.227.186-.505.212-.559 2.682-1.661 4.359-5.324 4.95-9.182.526-3.43.204-6.987-.878-9.313-.844-1.815-2.154-2.917-3.804-2.976-3.81-.136-6.186 2.584-7.278 6.297-.913 3.103-.918 6.892-.205 9.993.479 2.086 1.293 3.863 2.336 4.972Z"/><path d="M202.493 170.301c3.084 0 3.159-.233 5.801-.233 1.263 0 5.875-.291 5.134-.291" style="fill:#fff"/><path d="M213.173 168.921c-.703.046-3.906.253-4.879.253-2.642 0-2.717.234-5.801.234a.894.894 0 0 0 0 1.787c3.084 0 3.159-.234 5.801-.234 1.178 0 5.166-.254 5.393-.302.431-.093.565-.376.605-.448.194-.355.176-.701-.122-1.029-.024-.027-.224-.299-.742-.299a.86.86 0 0 0-.255.038Zm.21 1.748.045.002-.045-.002Zm-.135-.016.044.007.044.006.043.003a.853.853 0 0 1-.131-.016Z"/><path d="M78.234 95.261c1.005-.187.694 7.155 1.938 7.927.188.117 22.257-.491 22.552-.491 5.322 0 27.856.386 28.171.191.285-.177-1.573-7.232-2.21-7.627-.505-.313-39.86.437-43.686.437-1.556 0-7.281-.437-6.765-.437Z" style="fill:#fff"/><path d="M78.57 94.403c.978.076 5.213.402 6.429.402 3.444 0 35.677-.608 42.458-.501.656.01 1.094.03 1.27.054.235.031.371.108.429.144.174.108.478.456.735 1.051.621 1.439 1.534 4.775 1.823 6.351.098.534.112.922.086 1.08a.92.92 0 0 1-.434.663.898.898 0 0 1-.276.115c-.087.021-.398.052-.899.062-3.93.079-22.674-.234-27.467-.234-.265 0-18.165.493-21.879.506a7.858 7.858 0 0 1-.806-.023.896.896 0 0 1-.338-.126c-.389-.241-.777-.861-1.001-1.77-.357-1.447-.487-3.773-.722-5.295a8.195 8.195 0 0 0-.185-.824c-.156-.077-.23-.169-.245-.184a.863.863 0 0 1-.24-.582.854.854 0 0 1 .263-.662c.028-.028.192-.235.585-.26l-.008.001c.145-.018.286-.008.422.032Zm49.599 1.71c.104.231.269.609.389.953.518 1.482 1.123 3.722 1.366 4.968-.418.008-.969.016-1.569.016-6.1.001-21.374-.247-25.631-.247-.265 0-18.17.493-21.886.506l-.218-.001a1.945 1.945 0 0 1-.088-.215c-.118-.363-.209-.827-.287-1.338-.225-1.464-.348-3.274-.556-4.465 1.716.131 4.329.302 5.31.302 3.442 0 35.654-.608 42.429-.501.276.004.543.014.741.022Z"/><path d="M129.578 30.056c-3.68-4.664-11.105.77-8.26 4.765 4.251 5.969 12.863 1.069 8.26-4.765Z" style="fill:#fff"/><path d="M130.056 29.678c-2.474-3.135-6.458-2.242-8.562-.023-1.454 1.534-1.995 3.663-.673 5.52 2.831 3.974 7.413 3.535 9.515 1.206 1.43-1.584 1.805-4.061-.28-6.703Zm-.957.755c1.598 2.025 1.427 3.917.332 5.131-1.687 1.868-5.346 2.092-7.617-1.097-.954-1.339-.484-2.866.565-3.973 1.651-1.741 4.778-2.522 6.72-.061Z"/><path d="M145.658 30.056c-3.68-4.664-11.105.77-8.26 4.765 4.251 5.969 12.863 1.069 8.26-4.765Z" style="fill:#fff"/><path d="M146.136 29.678c-2.474-3.135-6.458-2.242-8.562-.023-1.454 1.534-1.995 3.663-.673 5.52 2.831 3.974 7.413 3.535 9.515 1.206 1.43-1.584 1.805-4.061-.28-6.703Zm-.957.755c1.598 2.025 1.427 3.917.332 5.131-1.687 1.868-5.346 2.092-7.617-1.097-.954-1.339-.484-2.866.565-3.973 1.651-1.741 4.778-2.522 6.72-.061Z"/><path d="M161.498 30.056c-3.68-4.664-11.105.77-8.26 4.765 4.251 5.969 12.863 1.069 8.26-4.765Z" style="fill:#fff"/><path d="M161.976 29.678c-2.474-3.135-6.458-2.242-8.562-.023-1.454 1.534-1.995 3.663-.673 5.52 2.831 3.974 7.413 3.535 9.515 1.206 1.43-1.584 1.805-4.061-.28-6.703Zm-.957.755c1.598 2.025 1.427 3.917.332 5.131-1.687 1.868-5.346 2.092-7.617-1.097-.954-1.339-.484-2.866.565-3.973 1.651-1.741 4.778-2.522 6.72-.061ZM89.045 27.925c-5.422-8.246-15.316-6.514-20.795-1.271-3.722 3.561-5.372 8.69-2.404 13.363 5.887 9.268 17.307 9.595 22.917 4.531 3.785-3.416 5.101-9.294.282-16.623Zm-1.493.982c4.149 6.31 3.272 11.373.013 14.315-4.955 4.473-15.011 4.023-20.211-4.163-2.473-3.895-.97-8.146 2.132-11.114 4.757-4.552 13.357-6.199 18.066.962Z"/><path d="M170.993 85.203c1.501-.751 3.527-1.938 6.354-4.766" style="fill:#fff"/><path d="M171.393 86.002c1.555-.778 3.656-2.004 6.586-4.933a.894.894 0 0 0-1.264-1.263c-2.725 2.725-4.675 3.874-6.122 4.598a.892.892 0 1 0 .8 1.598Z"/><path d="M39.795 78.382c-2.256 1.128-3.892 3.483-5.928 5.519-.309.309 17.645 1.651 23.916.613 3.262-.539 98.772 3.237 104.661 3.067 8.463-.246 7.94-.132 8.055-.246 1.195-1.195 6.459-6.5 6.459-6.5s-27.856-.38-34.343-.696c-2.247-.11-31.838-.041-42.681-.041-5.276 0-23.473.437-25.386.287-10.184-.796-20.682-1.679-34.753-2.003Z" style="fill:#fff"/><path d="M39.815 77.489a.89.89 0 0 0-.42.094c-2.335 1.167-4.052 3.579-6.16 5.686a.857.857 0 0 0-.254.786c.027.162.096.35.281.521.066.061.353.243.891.328 2.773.438 18.063 1.437 23.776.492 3.258-.539 98.659 3.248 104.541 3.078 5.939-.172 7.463-.168 7.883-.189.495-.025.607-.165.68-.225.054-.043.143-.142.143-.142l-.046.049c1.196-1.196 6.462-6.503 6.462-6.503a.895.895 0 0 0-.622-1.523s-27.83-.379-34.312-.695c-2.249-.109-31.87-.041-42.724-.041-5.262 0-23.409.438-25.316.289-10.199-.797-20.711-1.68-34.803-2.005Zm130.248 9.017c-.638.016-2.435.03-7.645.181-5.896.172-101.515-3.594-104.78-3.054-4.989.825-17.458.121-21.969-.344 1.407-1.556 2.697-3.123 4.334-4.008 13.937.328 24.361 1.204 34.476 1.995 1.918.15 20.164-.284 25.455-.284 10.832 0 40.393-.07 42.638.039 5.408.263 25.656.572 32.27.668-1.532 1.542-3.828 3.855-4.779 4.807Z"/></svg>