<?xml version="1.0" encoding="UTF-8" standalone="no"?>
<!DOCTYPE svg PUBLIC "-//W3C//DTD SVG 1.1//EN" "http://www.w3.org/Graphics/SVG/1.1/DTD/svg11.dtd">
<svg width="100%" height="100%" viewBox="0 0 492 492" version="1.1" xmlns="http://www.w3.org/2000/svg" xmlns:xlink="http://www.w3.org/1999/xlink" xml:space="preserve" xmlns:serif="http://www.serif.com/" style="fill-rule:evenodd;clip-rule:evenodd;stroke-linejoin:round;stroke-miterlimit:2;">
    <g transform="matrix(0.48,0,0,0.48,0,0)">
        <g transform="matrix(1.02285,0,0,1.02285,-3.06204,-1.58965)">
            <path d="M897.629,73.943C880.82,90.752 897.011,221.209 897.011,249.125L897.011,755.463C897.011,814.074 900.085,938.424 897.011,941.498C895.677,942.832 594.325,940.805 567.179,940.88C529.595,940.984 396.771,944.733 330.818,944.733C324.327,944.733 246.698,943.019 246.698,938.262C246.698,910.872 244.49,847.039 243.463,816.935C241.229,751.468 235.374,542.943 235.374,514.427C235.374,435.683 236.992,357.205 236.992,278.243C236.992,250.306 235.046,87.684 246.698,76.032C251.437,71.293 362.512,71.179 376.114,71.179C418.255,71.179 699.254,69.561 748.183,69.561C782.515,69.561 880.978,73.943 897.629,73.943Z" style="fill:white;"/>
            <path d="M900.202,76.517C901.244,75.476 901.555,73.91 900.992,72.55C900.428,71.19 899.101,70.303 897.629,70.303C880.978,70.303 782.515,65.921 748.183,65.921C699.254,65.921 418.255,67.539 376.114,67.539C365.205,67.539 291.76,67.617 260.387,70.079C254.635,70.53 250.236,71.079 247.771,71.697C245.846,72.179 244.669,72.914 244.124,73.458C243.154,74.429 242.149,76.099 241.309,78.493C239.84,82.686 238.594,89.605 237.597,98.446C232.117,147.048 233.352,255.843 233.352,278.243C233.352,357.205 231.734,435.683 231.734,514.427C231.734,542.954 237.59,751.565 239.825,817.059C240.851,847.132 243.058,910.9 243.058,938.262C243.058,939.38 243.462,940.661 244.866,941.722C246.037,942.607 249.387,943.661 254.308,944.365C274.525,947.259 325.59,948.373 330.818,948.373C396.774,948.373 529.603,944.624 567.189,944.52C591.624,944.452 838.19,946.087 888.232,945.442C893.568,945.373 896.808,945.244 897.506,945.123C898.76,944.904 899.355,944.301 899.585,944.072C899.963,943.693 900.595,942.836 900.915,941.3C901.35,939.209 901.666,934.069 901.831,926.677C902.618,891.378 900.651,802.374 900.651,755.463L900.651,249.125C900.651,229.595 892.717,159.85 893.722,113.999C893.973,102.503 894.779,92.546 896.462,85.36C897.416,81.286 898.531,78.188 900.202,76.517ZM893.935,938.035C892.49,938.08 890.466,938.133 888.138,938.163C838.108,938.808 591.598,937.172 567.168,937.24C529.586,937.344 396.768,941.093 330.818,941.093C325.66,941.093 275.284,940.014 255.339,937.159C253.493,936.894 251.543,936.446 250.333,936.144C250.229,907.683 248.103,846.195 247.101,816.811C244.867,751.37 239.014,542.931 239.014,514.427C239.014,435.683 240.632,357.205 240.632,278.243C240.632,255.944 239.376,147.643 244.831,99.262C245.624,92.233 246.548,86.508 247.658,82.568C248.115,80.948 248.489,79.691 248.994,78.95C250.133,78.733 255.372,77.774 260.956,77.336C292.175,74.887 365.259,74.818 376.114,74.818C418.255,74.818 699.254,73.201 748.183,73.201C779.445,73.201 863.881,76.834 891.303,77.484L891.303,77.484C890.569,79.289 889.921,81.367 889.374,83.7C887.602,91.264 886.709,101.74 886.443,113.839C885.438,159.745 893.371,229.572 893.371,249.125L893.371,755.463C893.371,802.33 895.339,891.249 894.553,926.515C894.445,931.356 894.134,935.673 893.935,938.035Z"/>
            <path d="M869.081,216.63C869.081,253.187 872.963,421.59 872.963,443.107L872.963,657.937C872.963,700.022 867.48,847.05 867.48,847.05C867.48,847.05 841.608,873.765 840.609,872.767C839.964,872.121 742.854,870.841 721.547,877.943C706.823,882.852 296.677,889.204 293.182,885.708C276.829,869.355 229.239,690.428 227.18,685.114C197.437,608.371 146.103,370.251 134.001,346.046C133.354,344.751 163.848,319.083 165.412,319.222C188.86,321.302 325.184,323.49 421.233,326.166C430.535,326.425 496.915,327.679 504.129,327.928C539.409,329.141 715.293,326.764 725.43,329.222C737.792,332.22 782.241,528.036 788.431,557.225C789.146,560.599 871.492,843.038 867.48,847.05C862.465,852.066 840.609,874.214 840.609,872.767C840.609,857.361 803.175,715.072 791.431,691.585C768.487,645.697 722.654,441.251 717.665,426.283C709.264,401.081 699.546,381.069 699.546,352.517C699.546,351.984 566.889,354.977 566.546,354.634C565.849,353.937 339.428,347.532 261.392,348.907C196.798,350.046 151.484,348.634 135.132,348.634" style="fill:white;"/>
            <path d="M864.926,816.89C846.323,743.707 792.569,559.193 791.992,556.47C787.03,533.071 757.524,402.815 739.58,350.11C736.316,340.522 733.376,333.421 731.049,329.799C729.378,327.198 727.581,325.998 726.287,325.684C716.117,323.218 539.651,325.507 504.254,324.29C497.038,324.042 430.639,322.787 421.334,322.527C325.368,319.854 189.161,317.674 165.734,315.596C165.318,315.559 164.614,315.56 163.722,315.949C163.175,316.187 162.039,316.888 160.528,318C154.502,322.436 140.452,334.256 134.347,340.121C132.737,341.667 131.627,342.887 131.173,343.549C130.754,344.16 130.563,344.683 130.472,345.038C130.186,346.157 130.423,347.03 130.745,347.674C131.027,348.237 131.33,348.916 131.654,349.71C131.711,349.893 131.782,350.069 131.865,350.238C145.729,385.239 194.916,611.938 223.786,686.43C225.226,690.145 248.944,778.847 268.654,837.335C274.639,855.096 280.271,870.101 284.805,879.21C286.961,883.541 288.957,886.631 290.608,888.282C290.895,888.569 291.702,889.245 293.299,889.501C294.92,889.76 299.146,889.975 305.55,890.112C360.882,891.293 585.54,887.953 679.979,884.306C704.151,883.372 719.983,882.302 722.698,881.396C739.552,875.778 804.382,875.588 829.964,876.015C834.348,876.088 838.013,876.24 839.361,876.301C840.34,876.725 841.614,876.673 843.172,875.614C843.36,875.501 843.555,875.373 843.754,875.227C848.757,871.566 870.095,849.582 870.095,849.582C870.137,849.538 870.179,849.493 870.219,849.447C870.649,848.958 871.195,848.078 871.255,846.632C871.27,846.285 871.249,845.808 871.19,845.207C871.841,827.577 876.603,697.175 876.603,657.937L876.603,443.107C876.603,421.59 872.721,253.187 872.721,216.63C872.721,214.621 871.09,212.99 869.081,212.99C867.072,212.99 865.441,214.621 865.441,216.63C865.441,253.187 869.323,421.59 869.323,443.107L869.323,657.937C869.323,687.995 866.524,771.625 864.926,816.89ZM140.285,352.308C156.325,400.586 202.845,612.252 230.574,683.799C232.017,687.522 255.802,776.401 275.553,835.01C280.581,849.93 285.34,862.871 289.397,871.885C291.563,876.697 293.439,880.329 295.067,882.358C296.608,882.467 300.704,882.727 305.706,882.834C360.973,884.013 585.369,880.674 679.698,877.031C702.718,876.142 717.81,875.352 720.396,874.49C739.347,868.173 817.603,868.295 836.605,868.885C832.745,841.537 799.14,715.141 788.176,693.213C765.189,647.24 719.21,442.43 714.211,427.434C706.038,402.914 696.72,383.212 695.958,356.095L695.847,356.095C676.506,356.179 587.522,358.126 569.694,358.29C567.672,358.309 566.457,358.289 566.208,358.263C566.072,358.248 565.943,358.229 565.822,358.203C565.379,358.176 562.988,358.033 559.792,357.904C521.928,356.372 331.639,351.309 261.456,352.547C202.685,353.583 159.866,352.509 140.285,352.308ZM166.154,322.935C161.621,325.96 146.282,338.776 139.74,345.022C159.043,345.209 202.068,346.313 261.328,345.268C331.61,344.029 522.169,349.096 560.087,350.63C564.084,350.792 566.485,350.935 567.008,351.014C567.392,351.017 568.451,351.022 569.628,351.011C587.461,350.847 676.469,348.9 695.816,348.816C698.345,348.805 699.861,348.868 700.139,348.917C703.07,349.434 703.186,351.922 703.186,352.517C703.186,380.632 712.846,400.316 721.118,425.132C726.098,440.072 771.785,644.155 794.687,689.957C805.45,711.483 837.557,831.928 843.348,865.467C849.245,859.758 859.664,849.657 863.871,845.504C863.69,844.211 863.291,841.567 862.702,838.812C852.28,790.101 785.514,561.017 784.87,557.981C779.929,534.677 750.559,404.947 732.689,352.456C730.088,344.816 727.755,338.856 725.774,335.19C725.229,334.181 724.41,333.07 724.105,332.669C710.038,330.371 538.72,332.759 504.004,331.565C496.792,331.317 430.431,330.064 421.132,329.804C326.355,327.164 192.398,324.991 166.154,322.935Z"/>
            <g transform="matrix(1,0,0,0.166269,0,57.995)">
                <path d="M897.629,73.943C880.82,90.752 900.085,938.424 897.011,941.498C895.677,942.832 823.992,944.036 816.126,947.968C795.921,958.071 594.325,940.805 567.179,940.88C529.595,940.984 396.771,944.733 330.818,944.733C324.327,944.733 235.374,967.077 235.374,962.32C235.374,934.929 236.992,357.205 236.992,278.243C236.992,250.306 235.046,87.684 246.698,76.032C251.437,71.293 362.512,71.179 376.114,71.179C418.255,71.179 699.254,69.561 748.183,69.561C782.515,69.561 880.978,73.943 897.629,73.943Z" style="fill:white;"/>
            </g>
            <g transform="matrix(1,0,0,0.166269,0,57.995)">
                <path d="M898.358,95.386C900.156,93.185 901.408,83.225 901.256,72.142C901.1,60.788 899.523,52.051 897.629,52.051C880.978,52.051 782.515,47.669 748.183,47.669C699.254,47.669 418.255,49.287 376.114,49.287C362.449,49.287 250.862,49.676 246.101,54.436C241.376,59.161 238.05,80.678 236.066,111.711C232.47,167.954 233.352,257.71 233.352,278.243C233.352,357.205 231.734,934.929 231.734,962.32C231.734,967.967 231.963,977.783 234.054,982.792C234.3,983.382 235.631,984.898 237.878,984.875C252.346,984.723 324.976,966.625 330.818,966.625C396.772,966.625 529.596,962.876 567.18,962.772C594.36,962.696 796.198,979.9 816.428,969.785C824.322,965.838 896.269,964.432 897.608,963.093C898.503,962.198 900.275,958.597 900.794,943.396C901.293,928.811 900.366,854.307 898.95,754.074C896.481,579.287 892.836,322.935 894.897,180.842C895.31,152.362 895.938,128.758 896.902,111.896C897.204,106.599 897.53,102.101 897.913,98.581C898.039,97.416 898.28,95.871 898.358,95.386ZM890.145,95.703C889.702,103.024 889.309,111.342 888.973,120.596C884.53,243.149 888.827,554.645 891.696,757.78C892.691,828.196 893.302,892.673 893.544,920.335C879.961,921.491 822.788,922.67 815.825,926.152C795.643,936.243 594.291,918.913 567.177,918.988C529.593,919.092 396.771,922.841 330.818,922.841C325.122,922.841 255.925,940.046 239.055,941.04C239.303,831.149 240.632,349.814 240.632,278.243C240.632,262.087 239.912,199.18 241.798,149.026C242.342,134.573 243.088,121.243 244.227,111.141C245.006,104.228 245.966,98.956 247.295,97.627C252.012,92.911 362.575,93.07 376.114,93.07C418.255,93.07 699.254,91.453 748.183,91.453C779.016,91.453 861.577,94.987 890.145,95.703Z"/>
            </g>
            <path d="M274.294,162.614C289.377,147.531 308.623,138.237 324.251,122.608C331.229,115.63 344.614,109.043 349.872,103.785" style="fill:white;"/>
            <path d="M276.868,165.188C291.95,150.105 311.197,140.811 326.825,125.182C333.803,118.204 347.188,111.617 352.446,106.359C353.866,104.938 353.866,102.631 352.446,101.211C351.025,99.79 348.719,99.79 347.298,101.211C342.04,106.469 328.656,113.056 321.678,120.034C306.049,135.663 286.803,144.958 271.72,160.04C270.299,161.461 270.299,163.767 271.72,165.188C273.14,166.608 275.447,166.608 276.868,165.188Z"/>
            <path d="M294.118,182.615C293.489,181.147 342.441,136.223 350.756,127.909C353.842,124.823 362.683,121.241 362.683,117.307" style="fill:white;"/>
            <path d="M359.048,117.107C358.98,117.211 358.798,117.48 358.659,117.633C358.249,118.086 357.73,118.523 357.16,118.96C354.189,121.236 350.117,123.4 348.182,125.335C340.679,132.838 300.182,170.077 292.616,178.522C291.089,180.226 290.58,181.588 290.516,182.012C290.389,182.849 290.547,183.521 290.773,184.049C291.564,185.895 293.706,186.752 295.552,185.961C296.439,185.581 297.097,184.889 297.454,184.069C297.597,183.893 297.825,183.617 298.038,183.38C305.565,174.979 345.866,137.946 353.33,130.483C355.467,128.346 360.404,125.984 363.168,123.415C365.237,121.491 366.323,119.347 366.323,117.307C366.323,115.298 364.692,113.667 362.683,113.667C360.741,113.667 359.152,115.191 359.048,117.107Z"/>
            <path d="M736.194,119.388C734.89,124.58 730.27,148.406 733.606,151.742C734.11,152.247 737.993,151.742 738.783,151.742C753.052,151.742 868.65,151.291 869.492,150.448C870.257,149.683 866.904,140.156 866.904,137.507C866.904,134.826 868.61,122.389 866.904,120.683C865.55,119.329 782.695,121.977 776.313,121.977C766.144,121.977 734.81,119.388 736.194,119.388Z" style="fill:white;"/>
            <path d="M732.451,119.39C732.421,118.518 732.753,117.674 733.524,116.87C733.652,116.738 734.386,115.748 736.194,115.748C736.44,115.748 736.683,115.773 736.919,115.823L737.072,115.839C741.192,116.255 767.245,118.337 776.313,118.337C782.066,118.337 849.861,116.194 864.351,116.753C866.041,116.818 867.173,116.96 867.652,117.086C868.636,117.345 869.185,117.816 869.478,118.109C870.186,118.817 870.952,120.298 871.179,122.448C871.627,126.699 870.544,135.306 870.544,137.507C870.544,139.524 872.666,145.712 873.111,148.487C873.503,150.935 872.58,152.508 872.066,153.022C871.812,153.276 871.315,153.737 870.374,153.989C870.027,154.082 868.554,154.242 866.141,154.327C846.652,155.015 751.638,155.382 738.783,155.382C738.1,155.382 735.277,155.697 733.896,155.557C732.439,155.41 731.492,154.776 731.032,154.316C730.385,153.669 729.788,152.711 729.401,151.41C728.902,149.732 728.704,147.167 728.809,144.137C729.094,135.995 731.379,124.012 732.451,119.39ZM739.039,123.326C747.17,124.021 768.282,125.617 776.313,125.617C781.419,125.617 835.465,123.922 857.573,123.937C859.958,123.939 862.326,124.006 863.917,124.066C863.968,125.124 864.01,126.537 863.955,127.679C863.762,131.662 863.264,136.033 863.264,137.507C863.264,138.871 863.966,141.847 864.742,144.77C864.933,145.489 865.132,146.303 865.312,147.069C844.64,147.745 751.49,148.102 738.783,148.102C738.471,148.102 737.298,148.163 736.278,148.22C736.164,147.179 736.04,145.674 736.085,144.391C736.315,137.808 737.944,128.557 739.039,123.326ZM738.233,116.374C738.546,116.585 738.827,116.846 739.065,117.15C739.282,117.429 739.456,117.735 739.582,118.058C739.389,117.49 739.005,116.857 738.233,116.374Z"/>
            <path d="M274.02,217.071C274.563,235.071 272.359,243.389 272.359,247.207C272.359,259.956 274.418,334.692 274.418,322.512" style="fill:white;"/>
            <path d="M277.928,321.55C277.608,311.03 275.999,257.494 275.999,247.207C275.999,243.375 278.203,235.026 277.659,216.961C277.598,214.953 275.919,213.372 273.911,213.432C271.903,213.493 270.322,215.172 270.382,217.18C270.923,235.115 268.719,243.403 268.719,247.207C268.719,258.735 270.403,320.71 270.738,324.069C270.8,324.683 270.941,325.042 270.991,325.17C271.703,326.987 273.082,327.315 273.755,327.434C274.893,327.634 276.372,327.522 277.465,325.79C277.515,325.712 278.058,324.7 278.058,322.512C278.058,322.179 278.013,321.856 277.928,321.55Z"/>
            <path d="M508.427,247.299C561.739,241.987 588.983,252.813 624.016,278.356C648.051,295.88 655.775,335.993 655.775,328.052" style="fill:white;"/>
            <path d="M657.637,324.925C654.282,316.132 644.974,289.132 626.16,275.415C590.368,249.318 562.535,238.249 508.066,243.677C506.067,243.877 504.606,245.661 504.805,247.66C505.004,249.659 506.789,251.121 508.788,250.921C560.944,245.724 587.599,256.308 621.872,281.297C640.443,294.838 648.755,322.452 651.407,328.985C651.946,330.311 652.47,331.118 652.763,331.442C653.491,332.248 654.266,332.528 654.849,332.646C655.75,332.829 656.587,332.692 657.366,332.267C657.836,332.011 659.415,330.941 659.415,328.052C659.415,326.724 658.702,325.56 657.637,324.925Z"/>
            <path d="M779.567,517.715C791.18,518.021 839.24,499.973 846.64,514.774C865.053,551.604 851.493,649.241 851.493,694.338" style="fill:white;"/>
            <path d="M779.471,521.353C786.521,521.539 806.859,515.112 823.608,513.118C828.724,512.509 833.476,512.32 837.292,513.008C840.102,513.515 842.374,514.381 843.384,516.402C850.567,530.768 852.616,554.643 852.663,580.91C852.735,621.312 847.853,667.282 847.853,694.338C847.853,696.347 849.484,697.978 851.493,697.978C853.502,697.978 855.133,696.347 855.133,694.338C855.133,667.279 860.015,621.303 859.943,580.897C859.894,553.292 857.444,528.244 849.896,513.147C847.167,507.688 840.206,505.19 831.04,505.3C820.371,505.429 806.538,508.674 795.388,511.231C788.507,512.809 782.74,514.157 779.663,514.076C777.655,514.023 775.982,515.61 775.929,517.619C775.876,519.627 777.463,521.3 779.471,521.353Z"/>
            <path d="M440.752,245.47C462.022,242.929 513.641,238.72 546.868,264.356C574.963,286.033 592.859,306.061 596.989,328.191" style="fill:white;"/>
            <path d="M441.184,249.084C461.913,246.608 512.263,242.254 544.644,267.238C571.847,288.226 589.412,307.432 593.411,328.859C593.78,330.834 595.682,332.138 597.657,331.769C599.632,331.401 600.936,329.498 600.567,327.523C596.306,304.69 578.079,283.84 549.091,261.474C515.019,235.186 462.132,239.25 440.32,241.856C438.325,242.094 436.899,243.907 437.138,245.902C437.376,247.896 439.189,249.322 441.184,249.084Z"/>
            <path d="M288.536,320.651C297.858,311.329 297.093,276.865 348.095,255.297C391.331,237.014 444.232,236.493 484.924,264.209C509.139,280.702 523.808,328.233 523.645,328.233" style="fill:white;"/>
            <path d="M520.076,328.953C520.411,330.618 521.882,331.873 523.645,331.873C524.876,331.873 526.05,331.414 526.835,329.985C526.977,329.728 527.429,328.992 527.25,327.712C527.232,327.59 527.08,326.916 526.725,325.791C524.17,317.688 509.471,276.524 486.974,261.201C445.248,232.781 391.011,233.197 346.678,251.945C309.638,267.608 298.935,289.848 292.518,305.087C290.098,310.834 288.515,315.524 285.962,318.078C284.542,319.498 284.542,321.805 285.962,323.225C287.383,324.646 289.689,324.646 291.11,323.225C294.151,320.184 296.345,314.757 299.227,307.913C305.181,293.774 315.149,273.182 349.513,258.65C391.65,240.831 443.217,240.205 482.875,267.217C503.964,281.581 517.387,320.385 519.783,327.98C519.911,328.388 520.031,328.796 520.076,328.953ZM521.179,325.557C520.832,325.874 520.449,326.33 520.21,327.028C520.409,326.46 520.745,325.957 521.179,325.557ZM521.203,325.534C521.848,324.949 522.705,324.593 523.645,324.593C522.743,324.593 521.931,324.885 521.225,325.514L521.203,325.534Z"/>
            <path d="M797.253,514.538C803.823,507.968 805.965,453.07 802.962,450.067C785.943,433.047 786.356,367.957 820.757,369.182C843.366,369.987 843.322,434.413 817.727,450.008C810.957,454.133 815.625,499.653 815.625,510.64" style="fill:white;"/>
            <path d="M799.919,452.155C800.048,453.24 800.659,458.675 800.655,464.072C800.646,476.158 799.487,493.391 797.236,504.19C796.703,506.751 796.118,508.924 795.454,510.52C795.191,511.151 794.976,511.667 794.679,511.964C793.259,513.384 793.259,515.691 794.679,517.111C796.1,518.532 798.406,518.532 799.827,517.112C801.485,515.454 803.183,511.34 804.363,505.676C806.697,494.477 807.925,476.61 807.935,464.078C807.939,458.517 807.692,453.972 807.23,451.419C806.851,449.319 806.083,448.04 805.536,447.493C801.842,443.798 799.168,437.546 797.497,430.272C794.857,418.782 794.842,404.746 798.223,393.249C801.663,381.552 808.624,372.392 820.627,372.82C823.959,372.938 826.504,375.106 828.484,378.312C830.935,382.282 832.481,387.77 833.215,393.921C834.594,405.479 833.046,419.339 828.418,430.502C825.497,437.547 821.371,443.525 815.833,446.9C814.711,447.583 813.637,448.786 812.835,450.602C811.7,453.173 810.972,457.433 810.654,462.624C809.7,478.186 811.985,502.913 811.985,510.64C811.985,512.649 813.616,514.28 815.625,514.28C817.634,514.28 819.265,512.649 819.265,510.64C819.265,502.985 816.975,478.488 817.92,463.07C818.108,460.01 818.418,457.335 818.93,455.283C819.16,454.36 819.688,453.229 819.792,453.009C830.721,446.241 837.552,431.321 839.96,415.603C842.101,401.631 840.79,387.141 836.381,377.665C832.942,370.274 827.607,365.784 820.886,365.544C805.367,364.992 795.687,376.071 791.239,391.196C787.521,403.837 787.5,419.269 790.402,431.902C792.355,440.401 795.669,447.638 799.919,452.155Z"/>
            <path d="M827.863,695.29C840.428,695.29 840.734,694.338 851.493,694.338C856.638,694.338 875.426,693.154 872.407,693.154" style="fill:white;"/>
            <path d="M871.369,689.665C868.508,689.854 855.458,690.698 851.493,690.698C840.734,690.698 840.428,691.65 827.863,691.65C825.854,691.65 824.223,693.281 824.223,695.29C824.223,697.299 825.854,698.93 827.863,698.93C840.428,698.93 840.734,697.978 851.493,697.978C856.292,697.978 872.541,696.944 873.462,696.745C875.218,696.366 875.765,695.216 875.926,694.92C876.717,693.476 876.643,692.067 875.432,690.728C875.334,690.62 874.52,689.514 872.407,689.514C872.047,689.514 871.698,689.566 871.369,689.665ZM872.225,696.789C872.284,696.792 872.345,696.794 872.407,696.794L872.225,696.789ZM871.677,696.72L871.853,696.752C871.914,696.759 871.975,696.767 872.035,696.775L872.209,696.788C872.016,696.779 871.839,696.755 871.677,696.72Z"/>
            <g transform="matrix(1.51927,0,0,0.943013,-784.966,278.803)">
                <path d="M728.408,117.501C731.104,116.693 730.27,148.406 733.606,151.742C734.11,152.247 793.282,149.621 794.072,149.621C808.341,149.621 868.763,151.291 869.605,150.448C870.37,149.683 865.388,119.207 863.682,117.501C862.328,116.147 756.805,119.388 746.547,119.388C742.375,119.388 727.024,117.501 728.408,117.501Z" style="fill:white;"/>
            </g>
            <g transform="matrix(1.51927,0,0,0.943013,-784.966,278.803)">
                <path d="M729.309,113.792C731.932,114.123 743.288,115.528 746.547,115.528C755.783,115.528 842.208,112.904 860.388,113.366C862.148,113.41 863.32,113.497 863.795,113.6C864.424,113.735 864.789,114.065 864.945,114.222C865.41,114.687 866.226,116.192 866.915,118.76C868.581,124.976 871.029,139.39 871.803,146.196C872.066,148.503 872.104,150.178 872.033,150.86C871.86,152.51 871.283,153.314 870.869,153.728C870.721,153.876 870.484,154.084 870.129,154.223C869.896,154.314 869.062,154.445 867.72,154.489C857.182,154.833 806.923,153.481 794.072,153.481C793.361,153.481 745.368,155.608 735.409,155.665C734.187,155.672 733.433,155.614 733.249,155.565C732.772,155.438 732.487,155.166 732.342,155.022C731.299,153.979 730.26,151.304 729.658,147.374C728.701,141.124 728.353,131.077 727.722,124.501C727.602,123.256 727.367,121.778 727.226,120.942C726.807,120.609 726.609,120.215 726.57,120.147C726.084,119.309 725.941,118.418 725.926,117.633C725.907,116.672 726.072,115.67 726.631,114.774C726.705,114.655 727.145,113.759 728.198,113.652L728.178,113.655C728.568,113.579 728.945,113.622 729.309,113.792ZM862.297,121.183C862.577,122.178 863.018,123.811 863.341,125.298C864.731,131.7 866.351,141.377 867.002,146.758C865.881,146.793 864.406,146.825 862.796,146.826C846.44,146.83 805.487,145.761 794.072,145.761C793.361,145.761 745.354,147.888 735.392,147.946C735.188,147.947 734.988,147.946 734.806,147.943C734.721,147.648 734.63,147.306 734.571,147.014C734.253,145.443 734.01,143.439 733.8,141.231C733.197,134.909 732.869,127.091 732.309,121.947C736.912,122.51 743.916,123.248 746.547,123.248C755.776,123.248 842.144,120.623 860.312,121.084C861.052,121.103 861.768,121.145 862.297,121.183Z"/>
            </g>
            <g transform="matrix(1,0,0,1,-115,-3.5773)">
                <path d="M645.838,127.565C630.849,108.568 600.601,130.703 612.19,146.977C629.507,171.294 664.591,151.331 645.838,127.565Z" style="fill:white;"/>
            </g>
            <g transform="matrix(1,0,0,1,-115,-3.5773)">
                <path d="M647.788,126.027C637.71,113.254 621.477,116.895 612.909,125.934C606.986,132.181 604.782,140.856 610.167,148.418C621.698,164.609 640.364,162.819 648.926,153.332C654.751,146.879 656.282,136.791 647.788,126.027L647.788,126.027ZM643.889,129.103C650.398,137.353 649.703,145.059 645.239,150.004C638.369,157.615 623.464,158.527 614.213,145.537C610.327,140.079 612.239,133.86 616.513,129.351C623.239,122.257 635.979,119.079 643.889,129.103L643.889,129.103Z"/>
            </g>
            <g transform="matrix(1,0,0,1,-49.4969,-3.5773)">
                <path d="M645.838,127.565C630.849,108.568 600.601,130.703 612.19,146.977C629.507,171.294 664.591,151.331 645.838,127.565Z" style="fill:white;"/>
            </g>
            <g transform="matrix(1,0,0,1,-49.4969,-3.5773)">
                <path d="M647.788,126.027C637.71,113.254 621.477,116.895 612.909,125.934C606.986,132.181 604.782,140.856 610.167,148.418C621.698,164.609 640.364,162.819 648.926,153.332C654.751,146.879 656.282,136.791 647.788,126.027L647.788,126.027ZM643.889,129.103C650.398,137.353 649.703,145.059 645.239,150.004C638.369,157.615 623.464,158.527 614.213,145.537C610.327,140.079 612.239,133.86 616.513,129.351C623.239,122.257 635.979,119.079 643.889,129.103L643.889,129.103Z"/>
            </g>
            <g transform="matrix(1,0,0,1,15.0285,-3.5773)">
                <path d="M645.838,127.565C630.849,108.568 600.601,130.703 612.19,146.977C629.507,171.294 664.591,151.331 645.838,127.565Z" style="fill:white;"/>
            </g>
            <g transform="matrix(1,0,0,1,15.0285,-3.5773)">
                <path d="M647.788,126.027C637.71,113.254 621.477,116.895 612.909,125.934C606.986,132.181 604.782,140.856 610.167,148.418C621.698,164.609 640.364,162.819 648.926,153.332C654.751,146.879 656.282,136.791 647.788,126.027L647.788,126.027ZM643.889,129.103C650.398,137.353 649.703,145.059 645.239,150.004C638.369,157.615 623.464,158.527 614.213,145.537C610.327,140.079 612.239,133.86 616.513,129.351C623.239,122.257 635.979,119.079 643.889,129.103L643.889,129.103Z"/>
            </g>
            <g transform="matrix(2.58661,0,0,2.58661,-1309.2,-217.558)">
                <path d="M647.538,128.688C638.999,115.702 623.417,118.431 614.789,126.686C608.928,132.295 606.329,140.373 611.003,147.732C620.274,162.328 638.26,162.843 647.094,154.868C653.055,149.487 655.128,140.231 647.538,128.688L647.538,128.688ZM645.186,130.235C651.721,140.173 650.34,148.146 645.208,152.779C637.404,159.823 621.568,159.116 613.378,146.223C609.483,140.09 611.85,133.395 616.735,128.72C624.228,121.551 637.771,118.958 645.186,130.235L645.186,130.235Z"/>
            </g>
            <path d="M699.546,348.634C705.661,345.577 713.912,340.739 725.43,329.222" style="fill:white;"/>
            <path d="M701.174,351.89C707.51,348.722 716.071,343.728 728.003,331.796C729.424,330.375 729.424,328.068 728.003,326.648C726.583,325.227 724.276,325.227 722.856,326.648C711.753,337.751 703.813,342.431 697.919,345.378C696.122,346.277 695.392,348.465 696.291,350.262C697.189,352.059 699.377,352.788 701.174,351.89Z"/>
            <path d="M165.101,320.849C155.911,325.444 149.247,335.037 140.952,343.332C139.696,344.589 212.831,350.056 238.379,345.83C251.665,343.632 640.732,359.016 664.722,358.32C699.197,357.32 697.067,357.786 697.532,357.32C702.401,352.452 723.844,330.841 723.844,330.841C723.844,330.841 610.373,329.292 583.946,328.005C574.794,327.559 454.25,327.841 410.083,327.841C388.59,327.841 314.463,329.618 306.672,329.009C265.184,325.765 222.423,322.171 165.101,320.849Z" style="fill:white;"/>
            <path d="M165.185,317.21C164.591,317.196 164.004,317.328 163.473,317.593C153.961,322.349 146.964,332.172 138.379,340.758C137.371,341.766 137.169,342.883 137.345,343.958C137.453,344.618 137.736,345.384 138.489,346.08C138.758,346.329 139.927,347.07 142.117,347.417C153.414,349.202 215.7,353.271 238.973,349.421C252.244,347.226 640.865,362.654 664.828,361.959C689.019,361.257 695.23,361.274 696.939,361.188C698.957,361.086 699.41,360.516 699.71,360.274C699.929,360.097 700.291,359.693 700.291,359.693C700.291,359.693 700.184,359.817 700.106,359.894C704.977,355.024 726.428,333.405 726.428,333.405C727.457,332.368 727.766,330.817 727.214,329.465C726.662,328.113 725.354,327.222 723.894,327.202C723.894,327.202 610.526,325.655 584.123,324.369C574.962,323.923 454.295,324.201 410.083,324.201C388.649,324.201 314.725,325.987 306.955,325.38C265.409,322.131 222.588,318.534 165.185,317.21ZM695.758,353.944C693.157,354.008 685.841,354.066 664.617,354.682C640.599,355.379 251.086,340.039 237.785,342.239C217.465,345.6 166.671,342.731 148.296,340.839C154.025,334.498 159.282,328.118 165.949,324.51L165.951,324.51C222.723,325.847 265.184,329.416 306.388,332.637C314.2,333.248 388.531,331.481 410.083,331.481C454.205,331.481 574.627,331.195 583.769,331.64C605.802,332.713 688.285,333.97 715.224,334.359C708.986,340.643 699.631,350.064 695.758,353.944Z"/>
        </g>
    </g>
</svg>
