<svg viewBox="0 0 492 492" xmlns="http://www.w3.org/2000/svg" xml:space="preserve" style="fill-rule:evenodd;clip-rule:evenodd;stroke-linejoin:round;stroke-miterlimit:2"><path d="M897.629 73.943c-16.809 16.809-.618 147.266-.618 175.182v506.338c0 58.611 3.074 182.961 0 186.035-1.334 1.334-302.686-.693-329.832-.618-37.584.104-170.408 3.853-236.361 3.853-6.491 0-84.12-1.714-84.12-6.471 0-27.39-2.208-91.223-3.235-121.327-2.234-65.467-8.089-273.992-8.089-302.508 0-78.744 1.618-157.222 1.618-236.184 0-27.937-1.946-190.559 9.706-202.211 4.739-4.739 115.814-4.853 129.416-4.853 42.141 0 323.14-1.618 372.069-1.618 34.332 0 132.795 4.382 149.446 4.382Z" style="fill:#fff" transform="matrix(.49097 0 0 .49097 -1.47 -.763)"/><path d="M440.5 36.804a1.787 1.787 0 0 0-1.263-3.05c-8.175 0-56.517-2.152-73.373-2.152-24.022 0-161.984.794-182.674.794-5.356 0-41.415.039-56.818 1.248-2.824.22-4.984.49-6.194.794-.945.237-1.523.597-1.79.864-.477.477-.97 1.297-1.383 2.473-.721 2.058-1.333 5.455-1.822 9.796-2.69 23.862-2.084 77.277-2.084 88.274 0 38.768-.795 77.298-.795 115.96 0 14.005 2.875 116.426 3.973 148.582.503 14.765 1.587 46.073 1.587 59.507 0 .548.198 1.177.888 1.698.575.435 2.22.952 4.635 1.298 9.926 1.42 34.997 1.968 37.564 1.968 32.383 0 97.597-1.84 116.05-1.892 11.998-.033 133.054.77 157.623.453 2.62-.034 4.21-.097 4.553-.157.616-.107.908-.403 1.02-.516.186-.186.497-.607.654-1.36.213-1.027.368-3.551.45-7.18.386-17.331-.58-61.03-.58-84.06V121.548c0-9.588-3.895-43.83-3.402-66.342.123-5.644.52-10.533 1.345-14.061.469-2 1.016-3.521 1.837-4.342Zm-3.076 422.978c-.71.022-1.703.048-2.846.063-24.564.317-145.592-.487-157.586-.453-18.452.05-83.661 1.892-116.04 1.892-2.533 0-27.266-.53-37.059-1.932-.906-.13-1.863-.35-2.457-.498-.051-13.974-1.095-44.162-1.587-58.589-1.097-32.13-3.97-134.466-3.97-148.46 0-38.662.794-77.192.794-115.96 0-10.948-.617-64.12 2.061-87.874.39-3.45.843-6.261 1.388-8.196.225-.795.408-1.412.656-1.776.56-.107 3.132-.577 5.873-.793 15.328-1.202 51.21-1.236 56.54-1.236 20.689 0 158.65-.794 182.673-.794 15.349 0 56.804 1.784 70.267 2.103-.36.886-.678 1.907-.947 3.052-.87 3.714-1.308 8.857-1.439 14.797-.493 22.539 3.402 56.821 3.402 66.421v248.596c0 23.01.966 66.667.58 83.981a94.893 94.893 0 0 1-.303 5.656Z"/><path d="M869.081 216.63c0 36.557 3.882 204.96 3.882 226.477v214.83c0 42.085-5.483 189.113-5.483 189.113s-25.872 26.715-26.871 25.717c-.645-.646-97.755-1.926-119.062 5.176-14.724 4.909-424.87 11.261-428.365 7.765-16.353-16.353-63.943-195.28-66.002-200.594-29.743-76.743-81.077-314.863-93.179-339.068-.647-1.295 29.847-26.963 31.411-26.824 23.448 2.08 159.772 4.268 255.821 6.944 9.302.259 75.682 1.513 82.896 1.762 35.28 1.213 211.164-1.164 221.301 1.294 12.362 2.998 56.811 198.814 63.001 228.003.715 3.374 83.061 285.813 79.049 289.825-5.015 5.016-26.871 27.164-26.871 25.717 0-15.406-37.434-157.695-49.178-181.182-22.944-45.888-68.777-250.334-73.766-265.302-8.401-25.202-18.119-45.214-18.119-73.766 0-.533-132.657 2.46-133 2.117-.697-.697-227.118-7.102-305.154-5.727-64.594 1.139-109.908-.273-126.26-.273" style="fill:#fff" transform="matrix(.49097 0 0 .49097 -1.47 -.763)"/><path d="M423.181 400.304c-9.133-35.93-35.525-126.521-35.808-127.858-2.436-11.488-16.923-75.44-25.733-101.316-1.602-4.708-3.046-8.194-4.188-9.972-.82-1.277-1.703-1.866-2.338-2.02-4.993-1.211-91.632-.088-109.011-.685-3.543-.122-36.143-.738-40.711-.866-47.117-1.312-113.99-2.382-125.492-3.402a1.978 1.978 0 0 0-.988.173c-.268.117-.826.46-1.568 1.007-2.958 2.178-9.856 7.981-12.854 10.86-.79.76-1.335 1.359-1.558 1.684-.206.3-.3.556-.344.73-.14.55-.024.979.134 1.295.138.276.287.61.446 1 .028.09.063.176.104.259 6.806 17.184 30.956 128.486 45.13 165.06.707 1.823 12.352 45.373 22.029 74.089 2.938 8.72 5.703 16.087 7.93 20.559 1.058 2.126 2.038 3.643 2.848 4.454.141.14.538.473 1.322.598.796.128 2.87.233 6.014.3 27.167.58 137.467-1.06 183.833-2.85 11.868-.459 19.64-.984 20.974-1.429 8.275-2.758 40.104-2.851 52.664-2.642 2.152.036 3.952.11 4.614.14.48.209 1.106.183 1.87-.337.093-.055.189-.118.286-.19 2.457-1.797 12.933-12.59 12.933-12.59.02-.022.041-.044.06-.067.212-.24.48-.672.51-1.382a5.25 5.25 0 0 0-.032-.7c.32-8.655 2.657-72.678 2.657-91.943V216.788c0-10.564-1.906-93.244-1.906-111.193a1.788 1.788 0 0 0-3.574 0c0 17.949 1.906 100.63 1.906 111.193v105.475c0 14.757-1.374 55.817-2.159 78.04ZM67.406 172.209c7.875 23.703 30.715 127.624 44.329 162.751.708 1.828 12.386 45.465 22.083 74.24 2.469 7.325 4.805 13.679 6.797 18.105 1.063 2.362 1.984 4.145 2.784 5.142.756.053 2.767.18 5.223.233 27.134.58 137.306-1.06 183.618-2.849 11.302-.436 18.712-.824 19.982-1.247 9.304-3.102 47.725-3.042 57.055-2.752-1.896-13.427-18.395-75.484-23.778-86.25-11.285-22.57-33.86-123.126-36.314-130.489-4.013-12.038-8.588-21.711-8.962-35.025h-.054c-9.496.041-53.184.997-61.937 1.078-.993.01-1.59 0-1.712-.013a1.896 1.896 0 0 1-.19-.03c-.217-.013-1.39-.083-2.96-.147-18.59-.752-112.016-3.238-146.473-2.63-28.855.509-49.878-.018-59.491-.117Zm12.7-14.421c-2.225 1.485-9.756 7.777-12.968 10.844 9.477.092 30.601.634 59.696.12 34.506-.608 128.064 1.88 146.681 2.633 1.962.08 3.141.15 3.398.189.189.001.708.004 1.286-.002 8.756-.08 52.456-1.036 61.955-1.078 1.241-.005 1.986.026 2.122.05 1.44.254 1.496 1.475 1.496 1.768 0 13.803 4.743 23.467 8.804 35.651 2.445 7.335 24.876 107.533 36.12 130.02 5.284 10.57 21.048 69.704 23.891 86.17 2.895-2.802 8.01-7.762 10.076-9.8a48.857 48.857 0 0 0-.574-3.286c-5.117-23.916-37.897-136.389-38.213-137.88-2.426-11.44-16.845-75.134-25.619-100.905-1.277-3.751-2.422-6.678-3.395-8.477-.268-.496-.67-1.041-.82-1.238-6.906-1.128-91.017.044-108.062-.542-3.54-.122-36.122-.737-40.687-.865-46.533-1.296-112.302-2.363-125.186-3.372Z"/><path d="M897.629 73.943c-16.809 16.809 2.456 864.481-.618 867.555-1.334 1.334-73.019 2.538-80.885 6.47-20.205 10.103-221.801-7.163-248.947-7.088-37.584.104-170.408 3.853-236.361 3.853-6.491 0-95.444 22.344-95.444 17.587 0-27.391 1.618-605.115 1.618-684.077 0-27.937-1.946-190.559 9.706-202.211 4.739-4.739 115.814-4.853 129.416-4.853 42.141 0 323.14-1.618 372.069-1.618 34.332 0 132.795 4.382 149.446 4.382Z" style="fill:#fff" transform="matrix(.49097 0 0 .08163 -1.47 27.71)"/><path d="M439.595 35.497a1.786 1.786 0 0 0-.358-3.537c-8.175 0-56.517-.358-73.373-.358-24.022 0-161.984.132-182.674.132-6.709 0-61.495.032-63.832.42-2.32.386-3.953 2.143-4.927 4.676-1.765 4.591-1.332 11.918-1.332 13.594 0 6.446-.795 53.607-.795 55.843 0 .461.113 1.263 1.14 1.672.12.048.774.172 1.877.17 7.103-.013 42.762-1.49 45.63-1.49 32.382 0 97.594-.306 116.046-.315 13.345-.006 112.441 1.399 122.373.573 3.876-.322 39.2-.437 39.857-.546.44-.073 1.31-.367 1.564-1.608.245-1.19-.21-7.273-.905-15.455-1.212-14.269-3.002-35.195-1.99-46.795.203-2.325.511-4.251.984-5.628.149-.432.309-.8.497-1.087.062-.095.18-.221.218-.26Zm-4.032.026c-.218.598-.41 1.277-.575 2.032-2.182 10.005-.072 35.433 1.336 52.015a433.37 433.37 0 0 1 .908 13.27c-6.67.095-34.74.19-38.158.475-9.909.824-108.766-.59-122.078-.585-18.453.009-83.664.315-116.045.315-2.796 0-36.77 1.404-45.052 1.485.121-8.97.774-48.263.774-54.106 0-1.318-.354-6.454.572-10.548.267-1.18.634-2.268 1.193-3.093.382-.564.854-.994 1.506-1.103 2.316-.385 56.599-.372 63.246-.372 20.69 0 158.652-.132 182.674-.132 15.138 0 55.673.289 69.699.347Z"/><path d="M274.294 162.614c15.083-15.083 34.329-24.377 49.957-40.006 6.978-6.978 20.363-13.565 25.621-18.823" style="fill:#fff" transform="matrix(.49097 0 0 .49097 -1.47 -.763)"/><path d="M134.464 80.339c7.404-7.405 16.854-11.968 24.527-19.642 3.426-3.426 9.997-6.66 12.579-9.241a1.788 1.788 0 0 0-2.528-2.528c-2.581 2.582-9.152 5.816-12.578 9.242-7.674 7.673-17.123 12.237-24.528 19.641a1.788 1.788 0 0 0 2.528 2.528Z"/><path d="M294.118 182.615c-.629-1.468 48.323-46.392 56.638-54.706 3.086-3.086 11.927-6.668 11.927-10.602" style="fill:#fff" transform="matrix(.49097 0 0 .49097 -1.47 -.763)"/><path d="M174.811 56.733a2.487 2.487 0 0 1-.19.258 5.559 5.559 0 0 1-.737.652c-1.458 1.117-3.458 2.18-4.408 3.13-3.683 3.683-23.566 21.966-27.28 26.113-.75.836-1 1.505-1.032 1.713-.062.411.016.74.126 1a1.788 1.788 0 0 0 3.28.01c.07-.086.183-.222.287-.338 3.696-4.125 23.482-22.307 27.147-25.971 1.05-1.05 3.473-2.209 4.83-3.47 1.016-.945 1.55-1.997 1.55-2.999a1.788 1.788 0 0 0-3.573-.098Z"/><path d="M736.194 119.388c-1.304 5.192-5.924 29.018-2.588 32.354.504.505 4.387 0 5.177 0 14.269 0 129.867-.451 130.709-1.294.765-.765-2.588-10.292-2.588-12.941 0-2.681 1.706-15.118 0-16.824-1.354-1.354-84.209 1.294-90.591 1.294-10.169 0-41.503-2.589-40.119-2.589Z" style="fill:#fff" transform="matrix(.49097 0 0 .49097 -1.47 -.763)"/><path d="M358.14 57.854c-.015-.428.148-.843.527-1.238.063-.064.423-.55 1.31-.55.122 0 .241.012.357.036l.075.008c2.023.204 14.814 1.227 19.266 1.227 2.825 0 36.11-1.052 43.224-.778.83.032 1.385.102 1.62.163.484.128.753.359.897.503.348.347.724 1.074.835 2.13.22 2.087-.312 6.313-.312 7.394 0 .99 1.042 4.028 1.26 5.39.193 1.202-.26 1.975-.512 2.227a1.754 1.754 0 0 1-.831.475c-.17.045-.894.124-2.078.166-9.569.337-56.218.518-62.529.518-.335 0-1.721.154-2.4.085-.715-.072-1.18-.383-1.405-.609-.318-.317-.611-.788-.801-1.427-.245-.823-.342-2.083-.29-3.57.139-3.998 1.26-9.881 1.787-12.15Zm3.235 1.932c3.992.341 14.357 1.125 18.3 1.125 2.507 0 29.042-.832 39.896-.825 1.171.001 2.334.034 3.115.063.025.52.045 1.214.018 1.774-.094 1.956-.339 4.102-.339 4.826 0 .67.345 2.13.726 3.565.094.353.191.753.28 1.13-10.15.331-55.883.506-62.122.506-.153 0-.73.03-1.23.058-.056-.51-.117-1.25-.095-1.88.113-3.232.913-7.774 1.45-10.342Zm-.396-3.413a1.789 1.789 0 0 1 .662.827 1.54 1.54 0 0 0-.662-.827Z"/><path d="M274.02 217.071c.543 18-1.661 26.318-1.661 30.136 0 12.749 2.059 87.485 2.059 75.305" style="fill:#fff" transform="matrix(.49097 0 0 .49097 -1.47 -.763)"/><path d="M134.984 157.108c-.157-5.165-.947-31.45-.947-36.5 0-1.882 1.082-5.98.815-14.85a1.788 1.788 0 0 0-3.573.107c.266 8.806-.816 12.875-.816 14.743 0 5.66.826 36.087.99 37.736.031.302.1.478.125.541.35.892 1.027 1.053 1.357 1.112.559.098 1.285.043 1.822-.808.024-.038.29-.535.29-1.609 0-.163-.021-.322-.063-.472Z"/><path d="M508.427 247.299c53.312-5.312 80.556 5.514 115.589 31.057 24.035 17.524 31.759 57.637 31.759 49.696" style="fill:#fff" transform="matrix(.49097 0 0 .49097 -1.47 -.763)"/><path d="M321.409 158.765c-1.647-4.317-6.217-17.573-15.454-24.308-17.573-12.813-31.238-18.247-57.98-15.582a1.788 1.788 0 0 0 .354 3.556c25.607-2.551 38.694 2.645 55.52 14.914 9.118 6.648 13.2 20.206 14.501 23.413.265.651.522 1.047.666 1.206.357.396.738.534 1.024.592.442.09.853.022 1.236-.187.23-.125 1.006-.65 1.006-2.069 0-.652-.35-1.223-.873-1.535Z"/><path d="M779.567 517.715c11.613.306 59.673-17.742 67.073-2.941 18.413 36.83 4.853 134.467 4.853 179.564" style="fill:#fff" transform="matrix(.49097 0 0 .49097 -1.47 -.763)"/><path d="M381.226 255.205c3.46.09 13.446-3.065 21.67-4.044 2.511-.299 4.844-.391 6.718-.054 1.38.25 2.495.675 2.99 1.667 3.527 7.053 4.533 18.775 4.556 31.671.036 19.836-2.361 42.406-2.361 55.69a1.788 1.788 0 0 0 3.574 0c0-13.285 2.397-35.858 2.362-55.696-.024-13.553-1.227-25.851-4.933-33.263-1.34-2.68-4.758-3.907-9.258-3.853-5.238.063-12.03 1.657-17.504 2.912-3.378.775-6.21 1.437-7.72 1.397a1.788 1.788 0 0 0-.094 3.573Z"/><path d="M440.752 245.47c21.27-2.541 72.889-6.75 106.116 18.886 28.095 21.677 45.991 41.705 50.121 63.835" style="fill:#fff" transform="matrix(.49097 0 0 .49097 -1.47 -.763)"/><path d="M215.137 121.53c10.178-1.216 34.898-3.354 50.796 8.912 13.356 10.305 21.98 19.734 23.943 30.254a1.788 1.788 0 0 0 3.513-.656c-2.092-11.21-11.04-21.447-25.273-32.428-16.728-12.906-42.694-10.91-53.403-9.631a1.787 1.787 0 0 0 .424 3.548Z"/><path d="M288.536 320.651c9.322-9.322 8.557-43.786 59.559-65.354 43.236-18.283 96.137-18.804 136.829 8.912 24.215 16.493 38.884 64.024 38.721 64.024" style="fill:#fff" transform="matrix(.49097 0 0 .49097 -1.47 -.763)"/><path d="M253.87 160.742a1.789 1.789 0 0 0 1.753 1.434c.605 0 1.18-.225 1.566-.927.07-.126.292-.487.204-1.116a9.014 9.014 0 0 0-.258-.943c-1.254-3.978-8.47-24.189-19.516-31.712-20.486-13.953-47.115-13.749-68.881-4.544-18.185 7.69-23.44 18.61-26.59 26.09-1.189 2.823-1.966 5.125-3.22 6.38a1.788 1.788 0 0 0 2.528 2.526c1.493-1.493 2.57-4.157 3.985-7.518 2.923-6.941 7.817-17.051 24.689-24.186 20.688-8.749 46.006-9.056 65.476 4.206 10.354 7.052 16.945 26.104 18.121 29.833.063.2.122.4.144.477Zm.542-1.667c-.17.156-.358.38-.475.722.097-.279.262-.526.475-.722Zm.012-.011a1.779 1.779 0 0 1 1.2-.462c-.444 0-.842.143-1.189.452l-.01.01Z"/><path d="M797.253 514.538c6.57-6.57 8.712-61.468 5.709-64.471-17.019-17.02-16.606-82.11 17.795-80.885 22.609.805 22.565 65.231-3.03 80.826-6.77 4.125-2.102 49.645-2.102 60.632" style="fill:#fff" transform="matrix(.49097 0 0 .49097 -1.47 -.763)"/><path d="M391.265 221.23c.063.533.363 3.202.361 5.851-.004 5.934-.573 14.395-1.678 19.697-.262 1.257-.55 2.324-.875 3.108-.13.31-.235.563-.38.709a1.788 1.788 0 0 0 2.527 2.527c.814-.814 1.647-2.833 2.227-5.614 1.146-5.499 1.749-14.27 1.753-20.424.002-2.73-.119-4.961-.346-6.215-.186-1.03-.563-1.659-.831-1.927-1.814-1.814-3.127-4.884-3.947-8.455-1.296-5.641-1.304-12.533.356-18.177 1.69-5.743 5.107-10.24 11-10.03 1.636.058 2.885 1.122 3.857 2.696 1.204 1.95 1.963 4.644 2.323 7.664.677 5.674-.083 12.479-2.355 17.96-1.434 3.459-3.46 6.394-6.179 8.05-.55.336-1.078.927-1.472 1.818-.557 1.262-.914 3.354-1.07 5.903-.469 7.64.653 19.78.653 23.574a1.788 1.788 0 0 0 3.574 0c0-3.758-1.124-15.786-.66-23.355.092-1.503.244-2.816.496-3.824.113-.453.372-1.008.423-1.116 5.366-3.323 8.72-10.648 9.902-18.365 1.05-6.86.407-13.974-1.757-18.627-1.689-3.628-4.308-5.833-7.608-5.95-7.62-.272-12.372 5.168-14.556 12.594-1.825 6.206-1.835 13.783-.41 19.985.958 4.173 2.585 7.726 4.672 9.944Z"/><path d="M827.863 695.29c12.565 0 12.871-.952 23.63-.952 5.145 0 23.933-1.184 20.914-1.184" style="fill:#fff" transform="matrix(.49097 0 0 .49097 -1.47 -.763)"/><path d="M426.345 337.84c-1.405.093-7.812.508-9.759.508-5.282 0-5.433.467-11.602.467a1.788 1.788 0 0 0 0 3.574c6.17 0 6.32-.467 11.602-.467 2.356 0 10.334-.508 10.786-.606.862-.186 1.13-.75 1.21-.896.388-.709.352-1.4-.243-2.058-.048-.053-.447-.596-1.485-.596-.177 0-.348.026-.51.074Zm.42 3.498c.029.002.059.003.09.003l-.09-.003Zm-.27-.034.087.016.09.011.085.007a1.584 1.584 0 0 1-.261-.034Z"/><path d="M728.408 117.501c2.696-.808 1.862 30.905 5.198 34.241.504.505 59.676-2.121 60.466-2.121 14.269 0 74.691 1.67 75.533.827.765-.765-4.217-31.241-5.923-32.947-1.354-1.354-106.877 1.887-117.135 1.887-4.172 0-19.523-1.887-18.139-1.887Z" style="fill:#fff" transform="matrix(.74591 0 0 .46299 -386.863 136.12)"/><path d="M157.138 188.805c1.957.153 10.427.804 12.858.804 6.89 0 71.355-1.215 84.916-1.001 1.312.02 2.187.06 2.54.108.47.062.742.215.859.288.347.215.955.912 1.47 2.1 1.242 2.879 3.068 9.552 3.645 12.703.196 1.069.225 1.844.172 2.16-.13.764-.56 1.136-.868 1.328-.11.068-.288.165-.552.229-.174.042-.796.103-1.797.123-7.86.16-45.35-.467-54.935-.467-.53 0-36.33.985-43.758 1.012-.911.003-1.474-.024-1.611-.047a1.769 1.769 0 0 1-.677-.251c-.778-.483-1.553-1.722-2.002-3.541-.713-2.894-.973-7.545-1.444-10.59-.09-.576-.264-1.26-.37-1.648-.312-.154-.46-.336-.489-.368-.363-.388-.47-.8-.48-1.164a1.712 1.712 0 0 1 .526-1.324c.055-.055.383-.47 1.168-.519l-.015.001c.291-.035.573-.015.844.064Zm99.198 3.422c.208.46.537 1.216.778 1.905 1.037 2.964 2.245 7.444 2.731 9.936-.836.016-1.936.03-3.137.031-12.2.002-42.748-.493-51.262-.493-.53 0-36.34.985-43.77 1.012-.153 0-.302 0-.438-.002a4.127 4.127 0 0 1-.175-.43c-.237-.727-.418-1.655-.575-2.677-.45-2.927-.694-6.547-1.112-8.929 3.433.261 8.658.603 10.62.603 6.884 0 71.307-1.216 84.859-1.002.552.009 1.086.028 1.48.046Z"/><path d="M645.838 127.565c-14.989-18.997-45.237 3.138-33.648 19.412 17.317 24.317 52.401 4.354 33.648-19.412Z" style="fill:#fff" transform="matrix(.49097 0 0 .49097 -57.931 -2.52)"/><path d="M260.112 59.356c-4.948-6.271-12.918-4.484-17.124-.046-2.908 3.067-3.99 7.326-1.347 11.04 5.662 7.948 14.826 7.07 19.03 2.412 2.86-3.168 3.611-8.121-.559-13.406Zm-1.914 1.51c3.196 4.05 2.854 7.834.663 10.262-3.373 3.737-10.691 4.184-15.233-2.193-1.908-2.68-.97-5.733 1.13-7.947 3.301-3.483 9.556-5.043 13.44-.122Z"/><path d="M645.838 127.565c-14.989-18.997-45.237 3.138-33.648 19.412 17.317 24.317 52.401 4.354 33.648-19.412Z" style="fill:#fff" transform="matrix(.49097 0 0 .49097 -25.771 -2.52)"/><path d="M292.272 59.356c-4.948-6.271-12.918-4.484-17.124-.046-2.908 3.067-3.99 7.326-1.347 11.04 5.662 7.948 14.826 7.07 19.03 2.412 2.86-3.168 3.611-8.121-.559-13.406Zm-1.914 1.51c3.195 4.05 2.854 7.834.663 10.262-3.373 3.737-10.691 4.184-15.233-2.193-1.908-2.68-.97-5.733 1.129-7.947 3.302-3.483 9.557-5.043 13.44-.122Z"/><path d="M645.838 127.565c-14.989-18.997-45.237 3.138-33.648 19.412 17.317 24.317 52.401 4.354 33.648-19.412Z" style="fill:#fff" transform="matrix(.49097 0 0 .49097 5.909 -2.52)"/><path d="M323.952 59.356c-4.948-6.271-12.918-4.484-17.125-.046-2.908 3.067-3.99 7.326-1.346 11.04 5.662 7.948 14.826 7.07 19.03 2.412 2.86-3.168 3.611-8.121-.56-13.406Zm-1.914 1.51c3.195 4.05 2.854 7.834.662 10.262-3.373 3.737-10.69 4.184-15.232-2.193-1.908-2.68-.97-5.733 1.129-7.947 3.302-3.483 9.557-5.043 13.44-.122ZM178.091 55.85c-10.844-16.492-30.632-13.026-41.59-2.543-7.442 7.123-10.743 17.382-4.807 26.727 11.773 18.536 34.615 19.19 45.833 9.062 7.57-6.833 10.203-18.588.564-33.247Zm-2.987 1.964c8.3 12.62 6.545 22.746.028 28.63-9.91 8.945-30.021 8.047-40.422-8.326-4.947-7.789-1.94-16.291 4.263-22.228 9.516-9.104 26.715-12.397 36.131 1.924Z"/><path d="M699.546 348.634c6.115-3.057 14.366-7.895 25.884-19.412" style="fill:#fff" transform="matrix(.49097 0 0 .49097 -1.47 -.763)"/><path d="M342.784 172.004c3.111-1.556 7.314-4.008 13.172-9.866a1.788 1.788 0 0 0-2.527-2.527c-5.45 5.45-9.35 7.749-12.243 9.196a1.788 1.788 0 0 0 1.598 3.197Z"/><path d="M165.101 320.849c-9.19 4.595-15.854 14.188-24.149 22.483-1.256 1.257 71.879 6.724 97.427 2.498 13.286-2.198 402.353 13.186 426.343 12.49 34.475-1 32.345-.534 32.81-1 4.869-4.868 26.312-26.479 26.312-26.479s-113.471-1.549-139.898-2.836c-9.152-.446-129.696-.164-173.863-.164-21.493 0-95.62 1.777-103.411 1.168-41.488-3.244-84.249-6.838-141.571-8.16Z" style="fill:#fff" transform="matrix(.49097 0 0 .49097 -1.47 -.763)"/><path d="M79.63 154.977a1.787 1.787 0 0 0-.84.188c-4.67 2.335-8.105 7.158-12.32 11.373-.495.495-.594 1.044-.508 1.571.053.324.192.7.562 1.042.132.122.706.486 1.781.657 5.547.876 36.127 2.874 47.553.983 6.516-1.077 197.316 6.497 209.081 6.156 11.878-.344 14.927-.336 15.766-.378.99-.05 1.213-.33 1.36-.449a3.48 3.48 0 0 0 .286-.285s-.053.06-.091.098a9954.286 9954.286 0 0 0 12.923-13.005 1.787 1.787 0 0 0-1.244-3.045s-55.66-.76-68.623-1.391c-4.498-.22-63.741-.083-85.448-.083-10.524 0-46.818.877-50.633.58-20.397-1.596-41.421-3.362-69.604-4.012Zm260.495 18.035c-1.277.032-4.869.06-15.29.362-11.791.343-203.03-7.189-209.56-6.109-9.976 1.65-34.915.242-43.936-.687 2.813-3.113 5.394-6.246 8.667-8.017 27.874.656 48.721 2.409 68.95 3.99 3.836.3 40.33-.567 50.912-.567 21.662 0 80.786-.14 85.274.078 10.818.526 51.314 1.144 64.54 1.335-3.062 3.085-7.655 7.71-9.557 9.615Z"/></svg>