<svg viewBox="0 0 246 246" xmlns="http://www.w3.org/2000/svg" xml:space="preserve" style="fill-rule:evenodd;clip-rule:evenodd;stroke-linejoin:round;stroke-miterlimit:2"><path d="M132.167 147.708c-3.72-3.053-10.687-5.611-14.853-7-3.856-1.285-8.83-4.296-11.467-6.933-3.025-3.025-3.032-7.299-5.333-9.6-6.715-6.716-12.692-16.426-20.267-24-2.788-2.788-2.174-8.84-5.333-12-2.3-2.3-12.578-14.756-13.867-17.334-1.743-3.486-2.084-7.9-3.733-11.2-1.293-2.584-6.406-11.188-5.067-13.866.974-1.948 1.867-4.637 1.867-6.934 0-1.833-1.26-5.213-.534-6.666 3.554-7.108 7.393-17.26 11.734-21.6.672-.673 2.83-1.549 4-2.134 6.786-3.393 10.053-4.613 15.2.534.754.754 2.74.57 3.733 1.066 1.893.947 5.061-.669 6.933.267 2.407 1.203 14.286 7.619 16 9.333 1.573 1.573 3.068 4.536 4 6.4 1.177 2.355 3.696 2.096 5.067 3.467 1.583 1.583 1.176 7.843 3.733 10.4 2.523 2.523 6.977 4.088 8.534 7.2 2.214 4.429 2.949 9.491 5.866 13.867 1.653 2.478 5.741 3.747 6.934 6.133 2.431 4.864 4.661 10.39 7.2 15.467 1.494 2.989 5.456 4.246 7.2 7.733 1.178 2.357.782 5.816 1.6 8.267.784 2.352 3.353 3.545 4 6.133 2.17 8.68-1.254 20.187-7.2 26.133-.442.442-1.848 2.21-2.856 3.726" style="fill:#fff"/><path d="M133.012 146.678c-3.829-3.143-10.989-5.804-15.277-7.234-3.68-1.226-8.43-4.095-10.946-6.611-1.673-1.673-2.307-3.781-3.035-5.641-.597-1.528-1.254-2.914-2.299-3.959-6.715-6.715-12.691-16.425-20.266-24-1.243-1.243-1.655-3.244-2.181-5.256-.65-2.488-1.41-5.002-3.153-6.744-2.255-2.256-12.352-14.459-13.617-16.987-1.743-3.487-2.083-7.901-3.733-11.2-.887-1.775-3.623-6.437-4.727-9.98-.209-.672-.358-1.297-.406-1.842-.03-.341-.043-.636.066-.854 1.057-2.113 2.008-5.036 2.008-7.529 0-1.148-.458-2.879-.673-4.405-.093-.664-.199-1.27-.001-1.666 3.492-6.985 7.218-16.988 11.483-21.253.61-.61 2.594-1.354 3.654-1.884 3.743-1.872 6.289-3.131 8.774-2.731 1.578.253 3.087 1.213 4.889 3.015.462.462 1.198.763 2.047.925.706.134 1.525.137 2.032.391 1.159.579 2.702.472 4.247.266.98-.131 1.96-.363 2.687 0 2.351 1.176 13.979 7.409 15.653 9.084 1.485 1.485 2.871 4.295 3.751 6.054.756 1.512 1.915 2.218 3.133 2.733.785.332 1.616.512 2.183 1.08.194.194.302.521.423.903.283.897.475 2.053.714 3.251.469 2.349 1.154 4.803 2.596 6.246 1.318 1.318 3.131 2.397 4.826 3.541 1.424.961 2.776 1.949 3.458 3.313 2.239 4.477 3.001 9.586 5.95 14.01.915 1.373 2.478 2.443 4.005 3.468 1.17.786 2.339 1.509 2.845 2.522 2.432 4.863 4.662 10.39 7.2 15.466.831 1.661 2.312 2.873 3.863 4.122 1.251 1.008 2.556 2.048 3.337 3.612.523 1.044.669 2.339.802 3.638.161 1.567.289 3.144.726 4.454.451 1.352 1.38 2.394 2.323 3.446.68.758 1.381 1.518 1.648 2.589 2.065 8.26-1.191 19.21-6.849 24.869-.467.466-1.959 2.328-3.023 3.929a1.332 1.332 0 1 0 2.218 1.475c.951-1.43 2.272-3.104 2.688-3.521 6.234-6.234 9.826-18.298 7.551-27.398-.379-1.517-1.286-2.647-2.249-3.721-.699-.779-1.446-1.51-1.78-2.51-.38-1.142-.463-2.519-.603-3.884-.167-1.632-.413-3.245-1.069-4.558-.962-1.923-2.51-3.255-4.049-4.494-1.24-.999-2.487-1.91-3.151-3.239-2.538-5.076-4.768-10.603-7.2-15.467-.566-1.131-1.646-2.085-2.906-2.97-1.459-1.024-3.203-1.945-4.11-3.306-2.886-4.328-3.594-9.343-5.784-13.724-.874-1.748-2.526-3.098-4.35-4.329-1.552-1.047-3.227-2.011-4.433-3.217-.625-.625-1.003-1.537-1.302-2.521-.355-1.164-.578-2.433-.805-3.586-.376-1.914-.866-3.532-1.626-4.293-.676-.675-1.558-1.064-2.49-1.431-.853-.337-1.796-.627-2.327-1.689-.985-1.97-2.588-5.085-4.25-6.746-1.753-1.754-13.884-8.352-16.346-9.583-1.147-.574-2.685-.465-4.231-.259-.981.131-1.967.36-2.702-.008-.599-.299-1.488-.429-2.349-.562a7.22 7.22 0 0 1-.693-.133c-.134-.035-.267-.044-.346-.122-2.315-2.315-4.322-3.436-6.349-3.762-2.923-.469-5.986.778-10.388 2.979-1.279.639-3.611 1.647-4.346 2.383-4.415 4.415-8.368 14.716-11.983 21.946-.384.768-.435 1.938-.254 3.228.197 1.4.647 2.982.647 4.034 0 2.101-.836 4.557-1.726 6.338-.509 1.018-.432 2.72.179 4.68 1.147 3.68 3.965 8.535 4.887 10.378 1.65 3.299 1.99 7.713 3.734 11.2 1.313 2.628 11.772 15.335 14.116 17.68 1.417 1.417 1.93 3.51 2.459 5.534.654 2.502 1.329 4.92 2.874 6.466 7.575 7.574 13.552 17.284 20.267 24 1.027 1.027 1.498 2.517 2.094 4.065.73 1.898 1.584 3.88 3.239 5.535 2.757 2.757 7.955 5.911 11.987 7.255 4.044 1.348 10.819 3.802 14.43 6.766a1.334 1.334 0 0 0 1.875-.185 1.334 1.334 0 0 0-.185-1.875Z"/><path d="M71.714 7.375c.408-.817-.534 3.011-.534 4 0 3.413-.266 6.494-.266 9.866 0 4.799-.707 9.88.8 14.4.855 2.566 3.733 7.607 3.733 9.867" style="fill:#fff"/><path d="M70.967 7.637c-.157.819-.579 3.087-.579 3.738 0 3.413-.266 6.494-.266 9.866 0 4.883-.693 10.052.84 14.651.518 1.553 1.767 4.005 2.686 6.21.559 1.341 1.007 2.574 1.007 3.406a.793.793 0 0 0 1.584 0c0-.977-.473-2.441-1.129-4.015-.903-2.168-2.136-4.576-2.645-6.102-1.48-4.441-.759-9.435-.759-14.15 0-3.372.266-6.453.266-9.866 0-.783.602-3.363.634-3.95.037-.687-.48-.901-.63-.935-.126-.029-.651-.11-.971.531a.785.785 0 0 0-.038.616Z"/><path d="M73.847 6.041c5.615 0 19.88 24.654 17.867 26.667-.049.049-1.223-1.646-1.334-1.867-1.731-3.462-6.275-12.408-8.8-14.933l-6.933-6.933c-.835-.835-3.723-1.067-2.933-1.067" style="fill:#fff"/><path d="M89.855 28.054c-2.159-4.2-5.625-10.616-7.715-12.706l-6.933-6.933c-.266-.266-.68-.502-1.155-.682-.623-.237-1.494-.423-1.942-.51a.782.782 0 0 0-.396-.107c-.437 0-.624.176-.658.207a.742.742 0 0 0-.257.734c.013.075.101.521.653.652.211.05.988.167 1.715.394.364.113.725.237.92.432l6.933 6.933c2.488 2.488 6.946 11.316 8.652 14.728.109.218 1.168 1.754 1.419 2.02.517.551 1.083.152 1.183.052.297-.298.497-.874.392-1.718-.157-1.25-.943-3.351-2.15-5.836-2.733-5.626-7.611-13.303-11.654-17.405-1.09-1.106-2.127-1.958-3.049-2.467-.717-.396-1.382-.593-1.966-.593a.793.793 0 0 0 0 1.584c.359 0 .759.152 1.2.395.815.451 1.723 1.215 2.687 2.193 3.943 4.001 8.691 11.497 11.357 16.985.279.574.535 1.126.764 1.648Z"/><path d="M87.447 10.841c7.846 3.923 14.049 17.364 15.467 25.867.542 3.255-.267 6.224-.267 9.333" style="fill:#fff"/><path d="M87.093 11.55c3.029 1.514 5.789 4.514 8.116 8.076 3.555 5.439 6.088 12.199 6.923 17.212.535 3.21-.277 6.137-.277 9.203a.792.792 0 1 0 1.584 0c0-3.152.806-6.163.256-9.463-.865-5.19-3.48-12.189-7.16-17.819-2.495-3.818-5.486-7.002-8.734-8.626a.792.792 0 0 0-.708 1.417Z"/><path d="M103.714 43.375c3.79 1.895 7.507 8.678 6.133 12.8" style="fill:#fff"/><path d="M103.359 44.083c2.129 1.065 4.208 3.797 5.273 6.63.689 1.832.963 3.714.464 5.211a.792.792 0 1 0 1.502.501c.6-1.8.344-4.067-.484-6.269-1.21-3.219-3.627-6.28-6.046-7.49a.792.792 0 0 0-.709 1.417Z"/><path d="M104.78 40.708c4.781-2.39 12.148 12.709 13.067 15.467" style="fill:#fff"/><path d="M105.134 41.416c.513-.256 1.068-.205 1.642.03.722.294 1.462.862 2.206 1.593 3.774 3.705 7.485 11.5 8.114 13.386a.792.792 0 1 0 1.502-.501c-.658-1.975-4.553-10.135-8.506-14.016-.912-.895-1.833-1.568-2.717-1.929-1.032-.421-2.028-.44-2.949.021a.791.791 0 1 0 .708 1.416Z"/><path d="M96.514 63.908c1.789 10.735 7.514 19.889 15.733 26.933" style="fill:#fff"/><path d="M95.732 64.038c1.821 10.922 7.639 20.238 15.999 27.405a.793.793 0 0 0 1.031-1.203c-8.076-6.922-13.709-15.913-15.467-26.462a.793.793 0 0 0-1.563.26Z"/><path d="M92.78 68.708c-4.099 4.099 6.666 15.999 9.334 18.667" style="fill:#fff"/><path d="M92.22 68.148c-1.426 1.426-1.434 3.657-.476 6.177 1.966 5.175 7.904 11.705 9.81 13.61a.792.792 0 0 0 1.12-1.12c-1.83-1.83-7.561-8.082-9.449-13.053-.695-1.829-.919-3.459.115-4.494a.792.792 0 0 0-1.12-1.12Z"/><path d="M108.247 109.775c-3.188-1.594-2.807-14.246-1.867-17.067" style="fill:#fff"/><path d="M108.601 109.066c-.347-.173-.609-.55-.847-1.034-.303-.615-.536-1.395-.718-2.274-.894-4.306-.542-10.886.096-12.799a.793.793 0 0 0-1.503-.501c-.679 2.036-1.095 9.039-.144 13.622.258 1.243.62 2.315 1.085 3.088.373.62.822 1.065 1.323 1.315a.791.791 0 1 0 .708-1.417Z"/><path d="M68.78 40.975c-.392 0 1.474 5.754 1.6 6.133 2.124 6.371 5.585 12.252 10.4 17.067" style="fill:#fff"/><path d="M69.54 41.199a.793.793 0 0 0-.76-1.016c-.296 0-.86.183-.845.968.018.972 1.576 5.854 1.694 6.208 2.162 6.487 5.689 12.473 10.591 17.376a.792.792 0 0 0 1.12-1.12c-4.727-4.727-8.123-10.502-10.208-16.757-.102-.305-1.408-4.996-1.592-5.659Zm-.388.475Z"/><path d="M66.647 9.508c-3.218 0-6.734 15.266-5.6 18.667 1.509 4.527 2.174 9.907 5.867 13.6" style="fill:#fff"/><path d="M66.647 8.716c-.566 0-1.162.274-1.727.849-.631.641-1.263 1.698-1.841 3.014-1.477 3.362-2.665 8.471-2.966 12.069-.138 1.648-.077 2.997.183 3.777 1.545 4.637 2.275 10.127 6.058 13.91a.792.792 0 0 0 1.12-1.12c-3.603-3.603-4.203-8.874-5.676-13.291-.216-.648-.221-1.773-.107-3.144.289-3.447 1.423-8.343 2.838-11.564.41-.933.84-1.721 1.283-2.272.182-.226.361-.408.545-.529.098-.065.192-.115.29-.115a.793.793 0 0 0 0-1.584Z"/><path d="M75.714 88.441c-3.255-1.627-7.99-16.05-7.2-20 .391-1.954 1.333-4.787 1.333-6.666" style="fill:#fff"/><path d="M76.068 87.733c-.434-.217-.878-.728-1.351-1.411-.825-1.192-1.666-2.892-2.438-4.785-1.175-2.882-2.182-6.209-2.698-8.913-.326-1.704-.467-3.146-.291-4.027.4-2 1.349-4.9 1.349-6.822a.793.793 0 0 0-1.584 0c0 1.836-.936 4.601-1.318 6.511-.179.894-.113 2.287.164 3.944.609 3.652 2.209 8.67 3.961 12.267 1.153 2.368 2.428 4.118 3.497 4.653a.793.793 0 0 0 .709-1.417Z"/><path d="M53.58 37.241c0 7.973 6.608 16.209 12 21.6" style="fill:#fff"/><path d="M52.788 37.241c0 8.168 6.709 16.637 12.232 22.16a.792.792 0 0 0 1.12-1.12c-5.26-5.26-11.768-13.261-11.768-21.04a.793.793 0 0 0-1.584 0Z"/><path d="M55.714 27.641c0 6.351 4.367 15.335 8.266 20.534" style="fill:#fff"/><path d="M54.922 27.641c0 6.494 4.437 15.693 8.425 21.009a.792.792 0 0 0 1.267-.95c-3.811-5.082-8.108-13.852-8.108-20.059a.793.793 0 0 0-1.584 0Z"/><path d="M98.114 11.108c4.29 4.29 14.913 18.212 13.333 24.533" style="fill:#fff"/><path d="M97.554 11.668c2.961 2.961 8.983 10.574 11.795 17.014 1.138 2.608 1.771 5.001 1.33 6.767a.793.793 0 0 0 1.536.384c.507-2.026-.109-4.793-1.414-7.784-2.892-6.623-9.082-14.456-12.127-17.501a.792.792 0 0 0-1.12 1.12Z"/><path d="M119.223 29.127c2.086 4.171 1.989 12.076 3.424 16.381 1.186 3.559 4.277 6.698 5.6 10.667 1.389 4.168-.267 8.306-.267 12.266v.534c.192.192.76-.906.8-1.067.692-2.768.267-6.24.267-9.333 0-1.59-4.304-18.971-4.8-19.467" style="fill:#fff"/><path d="M123.593 39.555c.039.109.322.922.582 1.833.674 2.362 1.702 6.38 2.558 9.949-.22-.36-.444-.717-.667-1.071-1.051-1.67-2.094-3.287-2.668-5.008-.705-2.115-1.026-5.116-1.434-8.098-.429-3.13-.958-6.238-2.033-8.387a.792.792 0 1 0-1.416.708c1.01 2.021 1.476 4.951 1.879 7.894.423 3.089.771 6.193 1.502 8.384.612 1.836 1.708 3.569 2.829 5.351 1.054 1.673 2.129 3.392 2.771 5.315.656 1.969.579 3.931.352 5.869-.244 2.081-.66 4.137-.66 6.147v.534c0 .21.084.411.232.56a.837.837 0 0 0 .613.254.954.954 0 0 0 .582-.207c.152-.116.349-.354.516-.624.218-.353.392-.754.418-.858.706-2.825.29-6.368.29-9.525 0-1.288-2.769-12.81-4.141-17.622-.285-1.001-.516-1.722-.649-2.025a1.247 1.247 0 0 0-.242-.38.792.792 0 0 0-1.214 1.007Z"/><path d="M135.015 55.54c5.97 11.941-1.067 12.305-1.067 22.134" style="fill:#fff"/><path d="M134.306 55.895c3.406 6.812 2.392 9.659 1.01 12.868-1.005 2.33-2.16 4.837-2.16 8.911a.793.793 0 0 0 1.584 0c0-3.79 1.096-6.117 2.03-8.285 1.525-3.54 2.711-6.686-1.047-14.203a.793.793 0 0 0-1.417.709Z"/><path d="M137.047 60.708c5.125 5.125 3.725 17.464 1.5 24.14-.619 1.858-2.198 11.081-2.198 11.081s1.21-2.79 1.498-3.221c1.662-2.493 5.751-17.434 5.751-17.225 0 1.55-.404 11.605-.037 11.605.465 0-1.382 8.561.686 3.22.953-2.462 1.6-8.533 1.6-8.533s.267 1.416.267 2.133c0 3.252.431 13.143-.267 17.067-.022.124 7.084-15.644 4.8-22.667" style="fill:#fff"/><path d="M142.66 81.447c-.039 1.782-.062 3.535-.028 4.608.018.56.06.963.109 1.145.026.097.059.176.093.239-.035.392-.161 1.752-.267 2.695-.106.936-.137 1.762-.054 2.052.12.418.398.58.62.639a.826.826 0 0 0 .728-.136c.098-.069.239-.202.386-.446.167-.276.409-.799.738-1.649.151-.39.295-.868.43-1.398.075 4.094.101 9.114-.348 11.64a.736.736 0 0 0 .074.498c.17.336.44.459.773.431.067-.006.38-.007.607-.374a6.74 6.74 0 0 0 .241-.512c.677-1.533 2.967-7.027 4.243-12.557.877-3.802 1.252-7.622.395-10.259a.792.792 0 1 0-1.506.49c.787 2.42.373 5.923-.432 9.412-.667 2.89-1.617 5.769-2.459 8.052.103-4.449-.097-9.857-.097-12.109 0-.766-.281-2.28-.281-2.28a.792.792 0 0 0-1.566.063s-.275 2.63-.734 5.097a.88.88 0 0 0-.072-.133c-.187-1.749.137-9.804.137-11.172a.734.734 0 0 0-.399-.69.77.77 0 0 0-.5-.097.751.751 0 0 0-.486.26c-.014.015-.154.234-.282.667-.54 1.826-2.857 10.121-4.506 14.408.404-2.119.825-4.164 1.081-4.933 1.364-4.09 2.421-10.261 1.921-15.674-.346-3.736-1.445-7.109-3.612-9.276a.792.792 0 0 0-1.12 1.12c1.933 1.933 2.846 4.969 3.154 8.302.48 5.189-.538 11.106-1.845 15.027-.626 1.878-2.228 11.199-2.228 11.199a.792.792 0 0 0 1.508.449s1.154-2.683 1.43-3.098c.98-1.469 2.802-7.202 4.154-11.7Z"/><path d="M155.628 86.917c-.282-.4-.069 6.11-.448 8.191-.807 4.44-3.04 8.444-5.333 12.267" style="fill:#fff"/><path d="M156.329 87.285a.792.792 0 0 0-.053-.823.772.772 0 0 0-.684-.354c-.183.003-.668.086-.808.713-.175.784-.041 6.266-.383 8.145-.79 4.346-2.988 8.26-5.233 12.001a.793.793 0 0 0 1.358.815c2.342-3.903 4.609-7.999 5.433-12.532.312-1.713.364-7.095.37-7.965Zm-1.32.127a.71.71 0 0 0 .293.227.791.791 0 0 1-.293-.227Z"/><path d="M160.961 96.636c0 8.842-1.735 19.759-8.181 26.205" style="fill:#fff"/><path d="M160.169 96.636c0 8.648-1.644 19.341-7.949 25.645a.792.792 0 0 0 1.12 1.12c6.588-6.587 8.413-17.728 8.413-26.765a.793.793 0 0 0-1.584 0Z"/><path d="M119.18 106.041c0 12.839 9.636 21.521 16.267 31.467 1.328 1.993 4.058 8.267 5.333 8.267" style="fill:#fff"/><path d="M140.877 144.989c-.08-.08-.579-.583-.903-1.065-1.323-1.969-2.939-5.461-3.868-6.855-3.313-4.97-7.378-9.623-10.613-14.639-3.157-4.892-5.521-10.131-5.521-16.389a.793.793 0 0 0-1.584 0c0 6.582 2.454 12.103 5.774 17.248 3.24 5.022 7.309 9.682 10.626 14.658.93 1.396 2.547 4.89 3.871 6.86.468.696.92 1.217 1.294 1.475.295.203.579.285.827.285a.793.793 0 0 0 .097-1.578Z"/><path d="M147.714 140.441c3.312-3.226-1.631-10.995-2.667-14.024-1.402-4.095 0-8.311-2.667-12.206-1.085-1.586-3.371-1.893-4.266-3.636" style="fill:#fff"/><path d="M148.266 141.009c1.513-1.474 1.622-3.762 1.007-6.218-.814-3.248-2.85-6.8-3.477-8.63-.678-1.983-.665-3.996-.818-5.983-.169-2.186-.524-4.34-1.944-6.415-.608-.887-1.533-1.438-2.45-1.99-.692-.416-1.388-.823-1.766-1.56a.792.792 0 0 0-1.409.723c.517 1.007 1.412 1.625 2.358 2.194.722.435 1.482.83 1.96 1.528 1.246 1.821 1.523 3.722 1.671 5.642.163 2.118.176 4.26.9 6.374.617 1.804 2.636 5.3 3.438 8.502.462 1.845.562 3.59-.575 4.698a.793.793 0 0 0 1.105 1.135Z"/><path d="M130.38 146.041c-1.649-1.649-.782-5.191-3.2-6.4-3.014-1.507-7.489-2.141-10.666-3.2-1.941-.647-16.612-20.65-18.667-23.733" style="fill:#fff"/><path d="M116.784 135.696a5.032 5.032 0 0 1-.431-.346c-.443-.407-1.033-1.044-1.73-1.848-4.798-5.53-14.479-18.776-16.117-21.233a.792.792 0 0 0-1.318.878c1.65 2.476 11.405 15.821 16.238 21.393.879 1.013 1.604 1.775 2.097 2.19.306.258.564.404.74.463 3.145 1.048 7.579 1.665 10.563 3.157.983.491 1.234 1.496 1.471 2.507.327 1.391.6 2.821 1.523 3.744a.792.792 0 0 0 1.12-1.12c-.726-.726-.844-1.891-1.101-2.986-.346-1.475-.869-2.844-2.305-3.562-3.038-1.519-7.543-2.171-10.75-3.237Z"/><path d="M98.699 122.285c-2.604-8.353-13.119-23.476-13.119-30.11" style="fill:#fff"/><path d="M99.456 122.049c-1.573-5.042-6.001-12.539-9.299-19.168-2.118-4.258-3.785-8.134-3.785-10.706a.793.793 0 0 0-1.584 0c0 2.735 1.698 6.883 3.951 11.411 3.259 6.552 7.651 13.952 9.204 18.934a.793.793 0 0 0 1.513-.471Z"/><path d="M74.114 68.441c-.901 2.102 10.381 12.782 12.266 14.667" style="fill:#fff"/><path d="M74.856 68.717a.793.793 0 0 0-1.47-.588c-.129.301-.16.699-.03 1.18.125.462.413 1.047.84 1.712 2.512 3.909 10.101 11.124 11.624 12.647a.792.792 0 0 0 1.12-1.12c-1.311-1.311-7.2-6.903-10.308-10.857-.753-.959-1.339-1.811-1.628-2.47a2.832 2.832 0 0 1-.148-.504Z"/><path d="M81.847 36.708c-1.411 7.055 3.934 14.268 6.933 20.267" style="fill:#fff"/><path d="M81.07 36.553c-.737 3.686.263 7.418 1.867 11.008 1.539 3.445 3.631 6.759 5.135 9.768a.791.791 0 1 0 1.417-.708c-1.495-2.99-3.576-6.282-5.106-9.707-1.466-3.28-2.433-6.682-1.759-10.051a.794.794 0 0 0-.622-.932.794.794 0 0 0-.932.622Z"/><path d="M91.447 41.775c5.766-1.153 12.631 13.626 14.133 18.133" style="fill:#fff"/><path d="M91.602 42.551c1.51-.302 3.057.747 4.587 2.331 4.011 4.15 7.609 12.183 8.64 15.277a.792.792 0 0 0 1.503-.501c-1.073-3.217-4.833-11.561-9.004-15.877-1.977-2.046-4.086-3.173-6.036-2.783a.792.792 0 1 0 .31 1.553Z"/><path d="M131.447 147.108c1.732.648 10.012-2.107 11.14-2.429 2.48-.707 2.375-1.843 4.479-3.246.737-.491 3.488-2.325 4.531-3.958.123-.193 4.117-1.744 4.117-3.7" style="fill:#fff"/><path d="M152.526 138.472c.533-.272 2.49-1.307 3.435-2.303.684-.721 1.085-1.549 1.085-2.394a1.333 1.333 0 0 0-2.664 0c0 .184-.148.331-.29.491-.301.339-.709.639-1.114.902-.919.595-1.85 1.011-2.073 1.159a1.443 1.443 0 0 0-.431.431c-.948 1.484-3.477 3.12-4.147 3.567-.948.632-1.501 1.212-1.999 1.736-.517.545-.945 1.006-2.106 1.337-.779.222-5.016 1.625-8.075 2.225-.604.119-1.157.205-1.62.238-.264.019-.478.05-.613 0a1.333 1.333 0 0 0-.934 2.495c.646.241 2.029.205 3.68-.119 3.141-.616 7.492-2.049 8.292-2.277 1.543-.44 2.278-1.021 2.958-1.702.496-.497.941-1.081 1.895-1.717.762-.508 3.472-2.36 4.721-4.069Z"/><path d="M184.982 231.301c3.549.7 4.953.501 6.303-.282 3.122-1.813 3.864-3.905 3.808-3.905" style="fill:#fff"/><path d="M193.795 226.813c-.118.22-1.037 1.81-3.179 3.054-1.151.668-2.351.724-5.376.128a1.332 1.332 0 0 0-.516 2.613c4.074.804 5.68.462 7.229-.438 3.315-1.924 4.279-4.19 4.406-4.609.248-.82-.219-1.28-.301-1.366a1.286 1.286 0 0 0-.965-.413c-.632 0-1.162.441-1.298 1.031Zm.053.774c.236.68.75.859 1.245.859a1.333 1.333 0 0 1-1.245-.859Z"/><path d="M143.127 142.095c2.913-2.488-6.514-12.218-9.013-22.454-.552-2.26-.745-4.795-1.6-6.933-.884-2.208-3.12-9.333-5.867-9.333" style="fill:#fff"/><path d="M143.641 142.697c.515-.44.785-1.025.826-1.755.046-.838-.247-1.917-.806-3.18-1.916-4.329-7.04-11.193-8.778-18.308-.561-2.296-.766-4.869-1.634-7.04-.633-1.583-1.959-5.625-3.654-7.912-.888-1.198-1.917-1.919-2.948-1.919a.793.793 0 0 0 0 1.584c.367 0 .701.226 1.036.542.454.429.879 1.032 1.277 1.714 1.301 2.228 2.297 5.276 2.818 6.579.842 2.104 1.023 4.602 1.566 6.827 1.762 7.214 6.926 14.185 8.869 18.574.37.836.619 1.563.667 2.168.031.388-.017.708-.267.921a.792.792 0 0 0 1.028 1.205Z"/><path d="M128.065 144.787c-.39-.023 2.836 2.434 4.589 3.274 6.242 2.992 14.492 10.367 17.377 16.136 3.304 6.609 6.695 12.838 10.571 19.764 3.642 6.508 7.713 13.631 12.544 22.263 1.407 2.515 9.787 21.915 10.956 23.877 1.101 1.848-4.572 3.468-4.572 3.468s2.819 4.267 5.371 5.081c3.247 1.036 8.702.875 12.853-2.33 4.405-3.401 1.891-8.582 2.038-10.755.147-2.174-1.515 1.098-5.579.349-2.648-.488-12.597-22.632-15.078-27.593-2.072-4.143-11.794-21.018-18.058-32.806-1.985-3.736-3.623-6.961-4.56-9.109-1.704-3.905-.585-21.936-.801-22.152-.763-.763-6.091 3.588-6.79 4.288-2.915 2.915-5.798 5.073-9.66 5.688-1.489.238-7.211.795-11.201.557Z" style="fill:#fff"/><path d="M182.825 230.544a4.318 4.318 0 0 1-.558.444c-1.259.781-3.103 1.3-3.103 1.3a1.332 1.332 0 0 0-.746 2.015s1.082 1.638 2.534 3.134c1.069 1.102 2.344 2.099 3.544 2.482 3.554 1.134 9.528.964 14.072-2.545 2.619-2.022 3.204-4.563 3.133-6.932-.058-1.94-.652-3.729-.58-4.787.067-.998-.25-1.496-.491-1.735-.359-.357-.845-.557-1.526-.391-.27.066-.664.26-1.169.51-.714.354-1.812.835-3.353.587a6.793 6.793 0 0 1-.581-.599c-.72-.882-1.606-2.293-2.587-4.011-3.978-6.97-9.356-18.829-11.088-22.291-2.073-4.147-11.803-21.036-18.073-32.835-1.965-3.699-3.587-6.891-4.515-9.017-.422-.966-.616-2.882-.735-5.16-.303-5.773.068-13.719.074-15.888.001-.552-.062-.891-.092-.982a1.313 1.313 0 0 0-.328-.531c-.39-.391-1.251-.678-2.389-.201-1.903.799-5.685 3.89-6.284 4.489-2.702 2.702-5.348 4.745-8.927 5.315-1.452.231-7.026.774-10.913.542-.69-.041-1.035.318-1.228.617-.173.268-.428.819.021 1.505.083.128.312.389.679.699.95.803 3.115 2.339 4.462 2.985 6.016 2.882 13.982 9.971 16.761 15.53 3.314 6.627 6.714 12.873 10.601 19.819 3.642 6.507 7.712 13.63 12.543 22.263 1.365 2.438 9.278 20.725 10.842 23.669Zm-28.434-94.487c-.074 3.151-.312 9.785-.049 14.795.141 2.692.456 4.944.954 6.087.947 2.169 2.6 5.427 4.605 9.201 6.258 11.778 15.973 28.637 18.043 32.776 1.995 3.991 8.804 19.036 12.808 25.147.789 1.203 1.497 2.086 2.047 2.553.433.368.842.547 1.172.608 1.983.365 3.489-.062 4.568-.528.108.795.297 1.746.418 2.77.222 1.885.161 4.118-2.017 5.8-3.758 2.901-8.695 3.053-11.634 2.115-.841-.268-1.693-1.027-2.442-1.799a19.804 19.804 0 0 1-1.197-1.363c.955-.386 2.082-.925 2.802-1.544 1.127-.969 1.451-2.126.778-3.255-1.168-1.96-9.533-21.335-10.939-23.846-4.831-8.633-8.902-15.756-12.544-22.263-3.865-6.907-7.246-13.119-10.542-19.71-2.989-5.979-11.523-13.64-17.993-16.741a12.89 12.89 0 0 1-1.254-.713c3.229-.099 6.43-.431 7.501-.601 4.144-.661 7.264-2.934 10.392-6.062.418-.418 2.581-2.206 4.303-3.295.071-.044.145-.089.22-.132Z"/></svg>