<?xml version="1.0" encoding="UTF-8" standalone="no"?>
<!DOCTYPE svg PUBLIC "-//W3C//DTD SVG 1.1//EN" "http://www.w3.org/Graphics/SVG/1.1/DTD/svg11.dtd">
<svg width="100%" height="100%" viewBox="0 0 492 492" version="1.1" xmlns="http://www.w3.org/2000/svg" xmlns:xlink="http://www.w3.org/1999/xlink" xml:space="preserve" xmlns:serif="http://www.serif.com/" style="fill-rule:evenodd;clip-rule:evenodd;stroke-linejoin:round;stroke-miterlimit:2;">
    <g transform="matrix(0.48,0,0,0.48,0,0)">
        <g>
            <path d="M550.695,615.45C535.196,602.728 506.165,592.07 488.807,586.284C472.741,580.928 452.016,568.382 441.029,557.395C428.426,544.792 428.395,526.984 418.807,517.395C390.827,489.414 365.923,448.956 334.362,417.395C322.746,405.778 325.305,380.561 312.14,367.395C302.557,357.812 259.733,305.914 254.362,295.173C247.098,280.645 245.68,262.252 238.807,248.506C233.422,237.737 212.115,201.889 217.695,190.728C221.752,182.614 225.473,171.408 225.473,161.839C225.473,154.199 220.223,140.117 223.251,134.061C238.059,104.446 254.056,62.145 272.14,44.061C274.943,41.259 283.933,37.609 288.807,35.173C317.085,21.033 330.696,15.952 352.14,37.395C355.281,40.536 363.558,39.77 367.695,41.839C375.584,45.784 388.782,39.049 396.584,42.95C406.612,47.964 456.109,74.697 463.251,81.839C469.806,88.394 476.033,100.737 479.918,108.506C484.823,118.316 495.316,117.237 501.029,122.95C507.625,129.547 505.93,155.629 516.584,166.284C527.098,176.797 545.656,183.316 552.14,196.284C561.367,214.738 564.43,235.83 576.584,254.061C583.47,264.389 600.503,269.677 605.473,279.617C615.605,299.882 624.897,322.909 635.473,344.061C641.701,356.517 658.21,361.756 665.473,376.284C670.384,386.105 668.735,400.515 672.14,410.728C675.407,420.529 686.111,425.501 688.807,436.284C697.848,472.45 683.582,520.396 658.807,545.173C656.967,547.012 651.107,554.38 646.907,560.695" style="fill:white;"/>
            <path d="M554.217,611.16C538.26,598.064 508.431,586.975 490.562,581.018C475.23,575.908 455.439,563.956 444.953,553.47C437.983,546.5 435.343,537.718 432.31,529.966C429.821,523.602 427.085,517.824 422.731,513.47C394.752,485.49 369.848,445.032 338.287,413.47C333.108,408.292 331.393,399.954 329.201,391.572C326.491,381.202 323.325,370.731 316.064,363.47C306.666,354.071 264.594,303.226 259.326,292.691C252.062,278.162 250.644,259.77 243.771,246.024C240.073,238.63 228.676,219.203 224.075,204.443C223.203,201.643 222.582,199.039 222.384,196.766C222.26,195.347 222.205,194.118 222.66,193.21C227.062,184.405 231.023,172.223 231.023,161.839C231.023,157.056 229.116,149.843 228.221,143.481C227.832,140.718 227.392,138.19 228.215,136.543C242.768,107.438 258.292,65.758 276.064,47.986C278.606,45.444 286.87,42.346 291.289,40.137C306.884,32.339 317.49,27.092 327.846,28.757C334.421,29.814 340.707,33.811 348.216,41.319C350.143,43.247 353.208,44.501 356.746,45.173C359.688,45.731 363.102,45.747 365.213,46.803C370.04,49.217 376.47,48.772 382.907,47.912C386.991,47.367 391.074,46.4 394.102,47.914C403.9,52.813 452.348,78.785 459.327,85.764C465.512,91.948 471.289,103.658 474.954,110.988C478.104,117.29 482.933,120.23 488.009,122.376C491.279,123.759 494.74,124.51 497.104,126.875C497.913,127.683 498.362,129.047 498.865,130.639C500.045,134.375 500.846,139.193 501.842,144.182C503.797,153.97 506.65,164.198 512.66,170.208C518.15,175.698 525.704,180.196 532.769,184.964C538.698,188.965 544.334,193.082 547.176,198.766C556.503,217.421 559.679,238.709 571.967,257.14C575.781,262.862 582.292,267.32 588.653,271.592C593.528,274.866 598.399,277.878 600.509,282.099C610.641,302.364 619.933,325.391 630.509,346.543C633.969,353.464 640.143,358.514 646.603,363.718C651.817,367.917 657.252,372.252 660.509,378.766C662.685,383.118 663.294,388.513 663.85,393.926C664.521,400.454 665.055,407.024 666.875,412.483C668.752,418.115 672.623,422.457 676.555,426.843C679.387,430.001 682.307,433.168 683.422,437.63C692.026,472.045 678.458,517.671 654.882,541.248C652.939,543.191 646.721,550.952 642.285,557.621C640.589,560.171 641.282,563.619 643.833,565.316C646.383,567.012 649.831,566.319 651.528,563.769C655.492,557.809 660.995,550.833 662.731,549.097C688.706,523.121 703.671,472.855 694.191,434.938C692.611,428.616 688.831,423.907 684.82,419.433C681.909,416.186 678.795,413.143 677.405,408.973C675.82,404.219 675.476,398.477 674.892,392.792C674.194,385.991 673.172,379.271 670.437,373.802C666.43,365.788 659.98,360.239 653.566,355.073C648.399,350.911 643.205,347.115 640.437,341.579C629.861,320.427 620.57,297.4 610.437,277.135C608.08,272.42 603.579,268.444 598.329,264.759C592.251,260.492 584.984,256.655 581.202,250.983C569.18,232.95 566.23,212.055 557.104,193.802C553.462,186.517 546.578,180.892 538.978,175.763C532.514,171.401 525.532,167.383 520.509,162.359C517.905,159.755 516.329,155.955 515.082,151.856C513.605,147.003 512.676,141.717 511.731,136.913C510.162,128.939 508.122,122.195 504.953,119.026C502.138,116.211 498.462,114.592 494.58,113.061C491.025,111.658 487.095,110.451 484.882,106.024C480.778,97.817 474.1,84.839 467.175,77.915C459.869,70.609 409.324,43.115 399.066,37.986C394.289,35.598 387.88,36.049 381.437,36.91C377.349,37.456 373.243,38.408 370.178,36.875C367.685,35.629 363.98,35.088 360.391,34.534C359.391,34.38 358.407,34.214 357.503,33.978C356.945,33.833 356.39,33.796 356.064,33.47C346.417,23.823 338.056,19.155 329.608,17.798C317.429,15.84 304.665,21.038 286.325,30.208C280.997,32.872 271.28,37.073 268.216,40.137C249.82,58.532 233.35,101.454 218.287,131.579C216.686,134.781 216.474,139.656 217.229,145.028C218.05,150.861 219.923,157.454 219.923,161.839C219.923,170.592 216.443,180.823 212.731,188.246C210.611,192.488 210.932,199.578 213.478,207.746C218.257,223.079 230.002,243.306 233.843,250.988C240.716,264.734 242.134,283.127 249.398,297.655C254.872,308.602 298.449,361.552 308.215,371.319C314.121,377.225 316.257,385.944 318.462,394.379C321.187,404.803 323.998,414.88 330.438,421.319C361.999,452.88 386.903,493.339 414.882,521.319C419.162,525.599 421.125,531.808 423.608,538.258C426.652,546.165 430.21,554.424 437.104,561.319C448.593,572.808 470.252,585.949 487.052,591.549C503.899,597.165 532.13,607.393 547.174,619.74C549.542,621.684 553.042,621.339 554.986,618.971C556.929,616.604 556.584,613.104 554.217,611.16Z"/>
            <path d="M298.807,30.728C300.508,27.324 296.584,43.276 296.584,47.395C296.584,61.616 295.473,74.454 295.473,88.506C295.473,108.5 292.528,129.672 298.807,148.506C302.37,159.197 314.362,180.199 314.362,189.617" style="fill:white;"/>
            <path d="M295.695,31.823C295.042,35.235 293.284,44.683 293.284,47.395C293.284,61.616 292.173,74.454 292.173,88.506C292.173,108.849 289.288,130.386 295.676,149.549C297.833,156.019 303.038,166.238 306.867,175.425C309.194,181.011 311.062,186.152 311.062,189.617C311.062,191.438 312.541,192.917 314.362,192.917C316.183,192.917 317.662,191.438 317.662,189.617C317.662,185.547 315.693,179.447 312.959,172.887C309.196,163.856 304.057,153.822 301.937,147.462C295.769,128.958 298.773,108.15 298.773,88.506C298.773,74.454 299.884,61.616 299.884,47.395C299.884,44.134 302.392,33.383 302.524,30.937C302.678,28.077 300.524,27.185 299.902,27.041C299.375,26.919 297.189,26.583 295.855,29.252C295.439,30.084 295.408,31.009 295.695,31.823Z"/>
            <path d="M307.695,25.173C331.094,25.173 390.529,127.895 382.14,136.284C381.937,136.487 377.044,129.425 376.584,128.506C369.372,114.081 350.438,76.803 339.918,66.284C331.311,57.678 319.126,45.493 311.029,37.395C307.551,33.917 295.518,32.95 298.807,32.95" style="fill:white;"/>
            <path d="M374.397,116.893C365.4,99.393 350.958,72.656 342.251,63.95C333.645,55.344 321.46,43.159 313.362,35.061C312.254,33.953 310.529,32.972 308.55,32.219C305.953,31.231 302.325,30.456 300.459,30.095C299.973,29.812 299.409,29.65 298.807,29.65C296.986,29.65 296.207,30.385 296.065,30.511C295.006,31.444 294.809,32.525 294.994,33.571C295.049,33.881 295.416,35.742 297.717,36.289C298.595,36.498 301.832,36.983 304.862,37.927C306.381,38.401 307.884,38.917 308.695,39.728C316.793,47.826 328.978,60.011 337.584,68.617C347.951,78.984 366.525,115.767 373.633,129.982C374.089,130.893 378.502,137.294 379.544,138.401C381.701,140.694 384.057,139.034 384.473,138.617C385.714,137.376 386.547,134.976 386.107,131.46C385.454,126.252 382.179,117.494 377.15,107.142C365.761,83.7 345.436,51.713 328.593,34.621C324.051,30.013 319.73,26.464 315.889,24.342C312.902,22.691 310.129,21.873 307.695,21.873C305.874,21.873 304.395,23.351 304.395,25.173C304.395,26.994 305.874,28.473 307.695,28.473C309.193,28.473 310.859,29.103 312.697,30.119C316.093,31.995 319.877,35.18 323.892,39.254C340.322,55.927 360.103,87.159 371.213,110.026C372.375,112.418 373.442,114.715 374.397,116.893Z"/>
            <path d="M364.362,45.173C397.052,61.517 422.902,117.523 428.807,152.95C431.067,166.513 427.695,178.884 427.695,191.839" style="fill:white;"/>
            <path d="M362.886,48.124C375.507,54.435 387.007,66.935 396.706,81.774C411.519,104.437 422.07,132.603 425.551,153.493C427.781,166.867 424.395,179.064 424.395,191.839C424.395,193.661 425.874,195.139 427.695,195.139C429.517,195.139 430.995,193.661 430.995,191.839C430.995,178.704 434.354,166.16 432.062,152.408C428.458,130.785 417.563,101.621 402.23,78.163C391.832,62.253 379.369,48.986 365.838,42.221C364.209,41.406 362.225,42.068 361.411,43.697C360.596,45.326 361.257,47.31 362.886,48.124Z"/>
            <path d="M432.14,180.728C447.932,188.624 463.42,216.887 457.695,234.061" style="fill:white;"/>
            <path d="M430.664,183.68C439.535,188.115 448.194,199.501 452.632,211.304C455.503,218.938 456.645,226.778 454.565,233.018C453.989,234.746 454.924,236.616 456.652,237.192C458.38,237.768 460.25,236.833 460.826,235.105C463.326,227.605 462.26,218.157 458.81,208.981C453.767,195.569 443.696,182.816 433.616,177.776C431.987,176.962 430.003,177.623 429.188,179.252C428.374,180.881 429.035,182.865 430.664,183.68Z"/>
            <path d="M436.584,169.617C456.503,159.658 487.198,222.57 491.029,234.061" style="fill:white;"/>
            <path d="M438.06,172.569C440.198,171.5 442.507,171.713 444.901,172.69C447.909,173.918 450.991,176.283 454.093,179.328C469.818,194.766 485.279,227.247 487.898,235.105C488.474,236.833 490.345,237.768 492.072,237.192C493.8,236.616 494.735,234.746 494.159,233.018C491.416,224.788 475.187,190.788 458.716,174.618C454.918,170.89 451.079,168.083 447.395,166.579C443.097,164.825 438.947,164.746 435.109,166.665C433.48,167.48 432.818,169.464 433.633,171.093C434.447,172.722 436.431,173.383 438.06,172.569Z"/>
            <path d="M402.14,266.284C409.595,311.014 433.452,349.154 467.695,378.506" style="fill:white;"/>
            <path d="M398.885,266.826C406.469,312.332 430.71,351.151 465.548,381.011C466.931,382.197 469.016,382.036 470.201,380.654C471.386,379.271 471.226,377.186 469.843,376C436.193,347.158 412.721,309.696 405.395,265.741C405.096,263.945 403.394,262.729 401.597,263.029C399.801,263.328 398.585,265.03 398.885,266.826Z"/>
            <path d="M386.584,286.284C369.504,303.364 414.357,352.945 425.473,364.061" style="fill:white;"/>
            <path d="M384.251,283.95C378.31,289.891 378.277,299.186 382.266,309.687C390.457,331.249 415.202,358.457 423.14,366.395C424.428,367.683 426.519,367.683 427.807,366.395C429.095,365.107 429.095,363.016 427.807,361.728C420.182,354.104 396.303,328.053 388.436,307.343C385.541,299.723 384.607,292.928 388.918,288.617C390.206,287.329 390.206,285.238 388.918,283.95C387.63,282.662 385.539,282.662 384.251,283.95Z"/>
            <path d="M451.029,457.395C437.748,450.754 439.332,398.039 443.251,386.284" style="fill:white;"/>
            <path d="M452.505,454.443C451.058,453.72 449.966,452.149 448.975,450.134C447.714,447.572 446.742,444.319 445.982,440.658C442.259,422.718 443.724,395.3 446.382,387.327C446.958,385.599 446.022,383.729 444.295,383.153C442.567,382.577 440.696,383.512 440.12,385.24C437.292,393.725 435.558,422.905 439.52,441.999C440.595,447.18 442.102,451.644 444.04,454.865C445.596,457.451 447.465,459.302 449.553,460.346C451.182,461.161 453.166,460.5 453.98,458.871C454.795,457.241 454.134,455.258 452.505,454.443Z"/>
            <path d="M286.584,170.728C284.951,170.728 292.725,194.706 293.251,196.284C302.1,222.831 316.522,247.333 336.584,267.395" style="fill:white;"/>
            <path d="M289.749,171.662C289.837,171.366 289.884,171.052 289.884,170.728C289.884,168.907 288.406,167.428 286.584,167.428C285.351,167.428 282.999,168.192 283.061,171.463C283.137,175.512 289.629,195.853 290.12,197.327C299.131,224.358 313.824,249.301 334.251,269.728C335.539,271.016 337.63,271.016 338.918,269.728C340.206,268.44 340.206,266.349 338.918,265.061C319.221,245.365 305.07,221.304 296.382,195.24C295.959,193.971 290.518,174.424 289.749,171.662ZM288.132,173.642C287.67,173.889 287.144,174.028 286.584,174.028C287.149,174.028 287.669,173.906 288.132,173.642Z"/>
            <path d="M277.695,39.617C264.289,39.617 249.639,103.224 254.362,117.395C260.649,136.257 263.42,158.675 278.807,174.061" style="fill:white;"/>
            <path d="M277.695,36.317C275.339,36.317 272.855,37.459 270.498,39.856C267.872,42.527 265.238,46.93 262.829,52.411C256.675,66.42 251.724,87.71 250.47,102.699C249.896,109.565 250.149,115.189 251.231,118.438C257.672,137.759 260.713,160.634 276.473,176.395C277.761,177.683 279.852,177.683 281.14,176.395C282.428,175.107 282.428,173.016 281.14,171.728C266.128,156.715 263.627,134.755 257.493,116.351C256.592,113.648 256.569,108.961 257.047,103.249C258.248,88.888 262.975,68.488 268.872,55.066C270.58,51.178 272.369,47.896 274.219,45.598C274.975,44.66 275.721,43.901 276.486,43.396C276.897,43.124 277.286,42.917 277.695,42.917C279.517,42.917 280.995,41.438 280.995,39.617C280.995,37.796 279.517,36.317 277.695,36.317Z"/>
            <path d="M315.473,368.506C301.912,361.725 282.182,301.628 285.473,285.173C287.102,277.028 291.029,265.226 291.029,257.395" style="fill:white;"/>
            <path d="M316.949,365.554C315.142,364.651 313.294,362.522 311.323,359.675C307.884,354.708 304.378,347.624 301.163,339.737C296.268,327.727 292.071,313.867 289.92,302.602C288.563,295.499 287.974,289.493 288.709,285.82C290.375,277.489 294.329,265.405 294.329,257.395C294.329,255.573 292.85,254.095 291.029,254.095C289.208,254.095 287.729,255.573 287.729,257.395C287.729,265.047 283.829,276.567 282.237,284.525C281.492,288.25 281.768,294.052 282.92,300.958C285.459,316.176 292.124,337.085 299.424,352.071C304.23,361.938 309.544,369.231 313.997,371.457C315.626,372.272 317.61,371.611 318.425,369.982C319.239,368.353 318.578,366.369 316.949,365.554Z"/>
            <path d="M223.251,155.173C223.251,188.393 250.785,222.707 273.251,245.173" style="fill:white;"/>
            <path d="M219.951,155.173C219.951,189.203 247.904,224.493 270.918,247.506C272.206,248.794 274.297,248.794 275.585,247.506C276.872,246.218 276.872,244.127 275.584,242.839C253.666,220.921 226.551,187.583 226.551,155.173C226.551,153.351 225.072,151.873 223.251,151.873C221.43,151.873 219.951,153.351 219.951,155.173Z"/>
            <path d="M232.14,115.173C232.14,141.633 250.338,179.066 266.584,200.728" style="fill:white;"/>
            <path d="M228.84,115.173C228.84,142.23 247.331,180.556 263.944,202.708C265.037,204.165 267.107,204.461 268.564,203.368C270.021,202.275 270.317,200.205 269.224,198.748C253.345,177.575 235.44,141.035 235.44,115.173C235.44,113.351 233.961,111.873 232.14,111.873C230.319,111.873 228.84,113.351 228.84,115.173Z"/>
            <path d="M408.807,46.284C426.683,64.16 470.946,122.168 464.362,148.506" style="fill:white;"/>
            <path d="M406.473,48.617C418.812,60.955 443.906,92.677 455.62,119.51C460.363,130.373 463.001,140.346 461.161,147.706C460.719,149.472 461.795,151.266 463.562,151.707C465.329,152.149 467.122,151.073 467.564,149.306C469.675,140.863 467.11,129.333 461.669,116.869C449.621,89.273 423.829,56.639 411.14,43.95C409.852,42.662 407.761,42.662 406.473,43.95C405.185,45.238 405.185,47.329 406.473,48.617Z"/>
            <path d="M496.763,121.362C505.453,138.742 505.05,171.679 511.029,189.617C515.971,204.445 528.851,217.527 534.362,234.061C540.151,251.427 533.251,268.672 533.251,285.173L533.251,287.395C534.051,288.195 536.417,283.622 536.584,282.95C539.468,271.415 537.695,256.95 537.695,244.061C537.695,237.437 519.761,165.016 517.695,162.95" style="fill:white;"/>
            <path d="M514.973,164.814C515.132,165.266 516.314,168.656 517.395,172.448C520.202,182.292 524.488,199.032 528.054,213.905C527.136,212.404 526.205,210.918 525.275,209.441C520.895,202.483 516.551,195.748 514.159,188.573C511.222,179.762 509.884,167.26 508.182,154.832C506.396,141.794 504.193,128.843 499.714,119.886C498.9,118.257 496.916,117.595 495.287,118.41C493.658,119.225 492.997,121.208 493.811,122.837C498.023,131.26 499.963,143.468 501.643,155.728C503.406,168.599 504.856,181.535 507.898,190.661C510.449,198.314 515.016,205.534 519.689,212.957C524.077,219.927 528.56,227.091 531.232,235.105C533.966,243.308 533.646,251.485 532.7,259.557C531.683,268.231 529.951,276.797 529.951,285.173L529.951,287.395C529.951,288.27 530.299,289.109 530.918,289.728C531.658,290.468 532.523,290.789 533.472,290.788C534.167,290.788 535.033,290.585 535.897,289.923C536.527,289.44 537.349,288.451 538.046,287.324C538.955,285.855 539.678,284.183 539.786,283.751C542.729,271.978 540.995,257.216 540.995,244.061C540.995,238.697 529.46,190.689 523.742,170.638C522.552,166.466 521.592,163.461 521.039,162.201C520.666,161.35 520.264,160.852 520.029,160.617C518.741,159.329 516.65,159.329 515.362,160.617C514.221,161.758 514.091,163.53 514.973,164.814Z"/>
            <g transform="matrix(1,0,0,1,2.6431,-2.64311)">
                <path d="M559.918,234.061C584.795,283.816 555.473,285.332 555.473,326.284" style="fill:white;"/>
                <path d="M556.966,235.537C571.159,263.923 566.93,275.786 561.171,289.154C556.988,298.865 552.173,309.311 552.173,326.284C552.173,328.105 553.652,329.584 555.473,329.584C557.295,329.584 558.773,328.105 558.773,326.284C558.773,310.495 563.341,300.799 567.233,291.765C573.587,277.015 578.529,263.905 562.869,232.586C562.055,230.957 560.071,230.295 558.442,231.11C556.813,231.924 556.152,233.908 556.966,235.537Z"/>
            </g>
            <path d="M571.029,252.95C592.383,274.305 586.552,325.716 577.28,353.533C574.699,361.275 568.121,399.706 568.121,399.706C568.121,399.706 573.164,388.081 574.362,386.284C581.288,375.895 598.327,313.643 598.327,314.513C598.327,320.969 596.643,362.868 598.17,362.868C600.108,362.868 592.412,398.538 601.029,376.284C605.001,366.023 607.695,340.728 607.695,340.728C607.695,340.728 608.807,346.631 608.807,349.617C608.807,363.167 610.603,404.378 607.695,420.728C607.604,421.244 637.211,355.547 627.695,326.284" style="fill:white;"/>
            <path d="M594.416,339.362C594.253,346.789 594.158,354.09 594.302,358.565C594.377,360.897 594.552,362.575 594.754,363.335C594.861,363.736 594.999,364.065 595.143,364.33C594.995,365.963 594.471,371.631 594.028,375.56C593.588,379.46 593.46,382.899 593.805,384.106C594.303,385.851 595.464,386.523 596.389,386.772C597.234,386.999 598.283,387.007 599.421,386.203C599.828,385.916 600.415,385.361 601.028,384.347C601.725,383.194 602.735,381.017 604.106,377.475C604.735,375.851 605.334,373.859 605.896,371.651C606.207,388.708 606.318,409.624 604.446,420.15C604.252,421.241 604.597,421.918 604.754,422.226C605.464,423.624 606.587,424.138 607.976,424.019C608.254,423.995 609.558,423.991 610.506,422.464C610.561,422.375 610.932,421.64 611.51,420.331C614.328,413.941 623.872,391.05 629.188,368.006C632.842,352.166 634.406,336.25 630.834,325.263C630.271,323.531 628.407,322.582 626.675,323.145C624.943,323.709 623.994,325.572 624.557,327.304C627.836,337.388 626.111,351.984 622.757,366.523C619.979,378.562 616.019,390.558 612.514,400.071C612.941,381.534 612.107,358.999 612.107,349.617C612.107,346.427 610.939,340.118 610.939,340.118C610.636,338.509 609.199,337.365 607.564,337.431C605.928,337.496 604.587,338.751 604.414,340.379C604.414,340.379 603.267,351.337 601.354,361.616C601.265,361.412 601.164,361.228 601.054,361.062C600.275,353.776 601.627,320.213 601.627,314.513C601.627,312.598 600.411,311.895 599.963,311.639C599.33,311.277 598.637,311.13 597.878,311.234C597.355,311.305 596.576,311.5 595.853,312.316C595.795,312.381 595.211,313.293 594.678,315.094C592.428,322.703 582.776,357.266 575.906,375.13C577.586,366.302 579.342,357.781 580.41,354.576C586.091,337.535 590.496,311.82 588.41,289.265C586.971,273.7 582.391,259.646 573.362,250.617C572.074,249.329 569.983,249.329 568.695,250.617C567.408,251.905 567.407,253.996 568.695,255.284C576.75,263.339 580.554,275.986 581.839,289.873C583.839,311.497 579.595,336.15 574.149,352.489C571.541,360.313 564.869,399.149 564.869,399.149C564.587,400.795 565.579,402.392 567.18,402.869C568.78,403.345 570.484,402.551 571.149,401.019C571.149,401.019 575.958,389.84 577.108,388.114C581.19,381.991 588.784,358.103 594.416,339.362Z"/>
            <path d="M648.45,362.156C647.277,360.487 648.161,387.614 646.584,396.284C643.221,414.781 633.918,431.468 624.362,447.395" style="fill:white;"/>
            <path d="M651.372,363.687C651.926,362.628 651.884,361.303 651.15,360.259C650.242,358.966 649.115,358.77 648.3,358.783C647.539,358.794 645.516,359.143 644.934,361.753C644.205,365.021 644.762,387.861 643.338,395.693C640.046,413.799 630.886,430.108 621.532,445.697C620.595,447.259 621.103,449.287 622.664,450.224C624.226,451.162 626.255,450.654 627.192,449.093C636.951,432.828 646.397,415.764 649.831,396.874C651.129,389.738 651.346,367.313 651.372,363.687ZM645.872,364.216C646.255,364.706 646.677,364.995 647.092,365.163C646.628,364.955 646.207,364.636 645.872,364.216Z"/>
            <path d="M670.672,402.651C670.672,439.493 663.443,484.981 636.584,511.839" style="fill:white;"/>
            <path d="M667.372,402.651C667.372,438.683 660.519,483.238 634.251,509.506C632.963,510.794 632.963,512.885 634.251,514.173C635.539,515.461 637.63,515.461 638.918,514.173C666.367,486.723 673.972,440.303 673.972,402.651C673.972,400.83 672.493,399.351 670.672,399.351C668.851,399.351 667.372,400.83 667.372,402.651Z"/>
            <path d="M496.584,441.839C496.584,495.335 536.735,531.509 564.362,572.95C569.897,581.253 581.27,607.395 586.584,607.395" style="fill:white;"/>
            <path d="M586.987,604.12C586.652,603.788 584.576,601.692 583.226,599.684C577.713,591.478 570.981,576.929 567.108,571.12C553.303,550.413 536.368,531.023 522.886,510.126C509.735,489.743 499.884,467.913 499.884,441.839C499.884,440.018 498.406,438.539 496.584,438.539C494.763,438.539 493.284,440.018 493.284,441.839C493.284,469.261 503.509,492.266 517.34,513.704C530.84,534.629 547.794,554.047 561.616,574.781C565.492,580.594 572.23,595.152 577.748,603.364C579.695,606.263 581.578,608.433 583.138,609.508C584.366,610.355 585.55,610.695 586.584,610.695C588.406,610.695 589.884,609.216 589.884,607.395C589.884,605.71 588.619,604.318 586.987,604.12Z"/>
            <g transform="matrix(1,0,0,0.973913,0,12.019)">
                <path d="M615.473,588.506C629.275,574.704 608.681,541.463 604.362,528.506C598.522,510.984 604.362,492.95 593.251,476.284C588.728,469.5 579.203,468.187 575.473,460.728" style="fill:white;"/>
                <path d="M617.776,590.933C624.081,584.628 624.531,574.838 621.97,564.332C618.581,550.434 610.094,535.239 607.484,527.409C604.657,518.928 604.711,510.315 604.073,501.814C603.371,492.46 601.891,483.245 595.974,474.37C593.443,470.574 589.586,468.215 585.766,465.855C582.882,464.074 579.985,462.332 578.409,459.181C577.577,457.517 575.586,456.86 573.966,457.714C572.346,458.568 571.706,460.612 572.538,462.276C574.691,466.583 578.421,469.226 582.363,471.662C585.37,473.52 588.536,475.209 590.528,478.198C595.722,485.989 596.877,494.123 597.493,502.334C598.173,511.397 598.226,520.562 601.24,529.603C603.813,537.321 612.227,552.279 615.567,565.978C617.492,573.873 617.909,581.34 613.171,586.078C611.866,587.383 611.838,589.53 613.109,590.87C614.38,592.21 616.471,592.238 617.776,590.933Z"/>
            </g>
            <path d="M543.251,608.506C536.378,601.633 539.993,586.877 529.918,581.839C517.36,575.56 498.711,572.919 485.473,568.506C477.386,565.81 416.258,482.461 407.695,469.617" style="fill:white;"/>
            <path d="M486.599,565.402C486.478,565.315 485.536,564.634 484.803,563.96C482.96,562.263 480.501,559.609 477.594,556.257C457.606,533.215 417.266,478.023 410.441,467.786C409.431,466.271 407.38,465.861 405.865,466.871C404.35,467.882 403.939,469.932 404.95,471.448C411.825,481.761 452.47,537.367 472.608,560.582C476.269,564.802 479.29,567.981 481.344,569.708C482.622,570.783 483.695,571.392 484.43,571.637C497.535,576.005 516.01,578.575 528.442,584.791C532.539,586.839 533.584,591.027 534.572,595.238C535.932,601.033 537.072,606.993 540.918,610.839C542.205,612.127 544.297,612.127 545.585,610.839C546.872,609.551 546.872,607.46 545.585,606.172C542.557,603.144 542.068,598.293 540.998,593.73C539.556,587.584 537.373,581.878 531.394,578.888C518.735,572.558 499.962,569.843 486.599,565.402Z"/>
            <path d="M411.248,509.519C400.395,474.715 356.584,411.704 356.584,384.061" style="fill:white;"/>
            <path d="M414.398,508.537C407.848,487.53 389.395,456.293 375.655,428.671C366.829,410.928 359.884,394.778 359.884,384.061C359.884,382.24 358.406,380.761 356.584,380.761C354.763,380.761 353.284,382.24 353.284,384.061C353.284,395.459 360.359,412.741 369.746,431.61C383.324,458.906 401.624,489.743 408.097,510.501C408.639,512.24 410.491,513.211 412.23,512.669C413.969,512.127 414.94,510.275 414.398,508.537Z"/>
            <path d="M308.807,285.173C305.054,293.929 352.062,338.428 359.918,346.284" style="fill:white;"/>
            <path d="M311.9,286.32C312.509,284.682 311.73,282.835 310.106,282.139C308.432,281.422 306.491,282.199 305.773,283.873C305.237,285.124 305.107,286.783 305.649,288.786C306.171,290.711 307.371,293.15 309.151,295.921C319.618,312.207 351.237,342.27 357.584,348.617C358.872,349.905 360.963,349.905 362.251,348.617C363.539,347.329 363.539,345.238 362.251,343.95C356.786,338.485 332.248,315.188 319.302,298.711C316.164,294.717 313.719,291.167 312.516,288.42C312.167,287.624 311.938,286.508 311.9,286.32Z"/>
            <path d="M341.029,152.95C335.15,182.346 357.421,212.4 369.918,237.395" style="fill:white;"/>
            <path d="M337.793,152.303C334.721,167.662 338.887,183.213 345.569,198.169C351.984,212.526 360.698,226.334 366.966,238.871C367.781,240.5 369.765,241.161 371.394,240.346C373.023,239.532 373.684,237.548 372.869,235.919C366.64,223.461 357.97,209.744 351.595,195.477C345.488,181.808 341.457,167.634 344.265,153.597C344.622,151.812 343.462,150.072 341.676,149.714C339.89,149.357 338.15,150.517 337.793,152.303Z"/>
            <path d="M381.029,174.061C405.054,169.256 433.658,230.838 439.918,249.617" style="fill:white;"/>
            <path d="M381.676,177.297C387.966,176.039 394.412,180.408 400.787,187.006C417.498,204.301 432.491,237.773 436.787,250.661C437.363,252.388 439.233,253.324 440.961,252.748C442.689,252.172 443.624,250.301 443.048,248.573C438.581,235.171 422.912,200.406 405.534,182.42C397.297,173.896 388.509,169.2 380.382,170.826C378.596,171.183 377.436,172.923 377.793,174.709C378.15,176.495 379.89,177.655 381.676,177.297Z"/>
            <g transform="matrix(1,0,0,1,-15.3333,-24)">
                <path d="M563.029,636.95C570.246,639.652 604.746,628.17 609.445,626.829C619.778,623.883 619.34,619.149 628.107,613.305C631.18,611.256 642.641,603.615 646.987,596.812C647.501,596.006 664.14,589.545 664.14,581.395" style="fill:white;"/>
                <path d="M650.859,600.967C653.081,599.833 661.233,595.519 665.171,591.37C668.021,588.368 669.69,584.916 669.69,581.395C669.69,578.332 667.203,575.845 664.14,575.845C661.077,575.845 658.59,578.332 658.59,581.395C658.59,582.164 657.975,582.777 657.383,583.442C656.129,584.854 654.43,586.105 652.74,587.199C648.911,589.678 645.032,591.412 644.105,592.03C643.08,592.712 642.567,593.421 642.309,593.825C638.359,600.009 627.822,606.824 625.029,608.687C621.078,611.32 618.773,613.737 616.701,615.922C614.547,618.191 612.761,620.113 607.923,621.492C604.677,622.418 587.025,628.263 574.281,630.763C571.764,631.256 569.457,631.618 567.531,631.755C566.428,631.833 565.538,631.964 564.975,631.753C562.106,630.679 558.905,632.136 557.831,635.005C556.757,637.873 558.214,641.074 561.083,642.148C563.774,643.156 569.538,643.005 576.418,641.655C589.502,639.088 607.634,633.117 610.967,632.167C617.396,630.334 620.457,627.915 623.292,625.075C625.357,623.005 627.212,620.572 631.186,617.922C634.362,615.805 645.655,608.087 650.859,600.967Z"/>
            </g>
            <path d="M770.759,963.756C785.545,966.673 791.395,965.843 797.02,962.577C810.027,955.026 813.12,946.308 812.887,946.308" style="fill:white;"/>
            <path d="M807.481,945.056C806.986,945.969 803.16,952.595 794.233,957.778C789.439,960.561 784.436,960.797 771.833,958.311C768.828,957.718 765.907,959.677 765.314,962.682C764.721,965.687 766.68,968.608 769.685,969.201C786.658,972.549 793.35,971.125 799.806,967.377C813.617,959.359 817.633,949.915 818.162,948.169C819.197,944.754 817.25,942.837 816.907,942.477C815.797,941.315 814.447,940.758 812.887,940.758C810.255,940.758 808.048,942.595 807.481,945.056ZM807.7,948.281C808.682,951.113 810.826,951.858 812.887,951.858C810.519,951.858 808.495,950.371 807.7,948.281Z"/>
            <path d="M596.362,592.061C608.498,581.697 569.222,541.152 558.807,498.506C556.506,489.088 555.703,478.524 552.14,469.617C548.459,460.415 539.141,430.728 527.695,430.728" style="fill:white;"/>
            <path d="M598.505,594.571C600.651,592.739 601.775,590.299 601.944,587.257C602.137,583.768 600.918,579.27 598.588,574.007C590.602,555.969 569.254,527.372 562.012,497.723C559.676,488.158 558.822,477.437 555.204,468.391C552.566,461.797 547.04,444.953 539.979,435.424C536.279,430.432 531.993,427.428 527.695,427.428C525.874,427.428 524.395,428.907 524.395,430.728C524.395,432.549 525.874,434.028 527.695,434.028C529.223,434.028 530.619,434.972 532.014,436.289C533.906,438.074 535.673,440.587 537.335,443.431C542.755,452.713 546.903,465.41 549.076,470.843C552.583,479.61 553.337,490.018 555.601,499.289C562.941,529.345 584.458,558.393 592.553,576.679C594.095,580.162 595.135,583.192 595.334,585.714C595.461,587.327 595.261,588.662 594.219,589.552C592.834,590.735 592.67,592.82 593.853,594.205C595.036,595.589 597.12,595.754 598.505,594.571Z"/>
        </g>
        <g transform="matrix(1,0,0,1,-3.6666,-4.99998)">
            <path d="M537.271,608.279C535.647,608.182 549.087,618.423 556.391,621.923C582.402,634.387 616.776,665.117 628.795,689.155C642.564,716.692 656.691,742.646 672.842,771.506C688.016,798.62 704.977,828.299 725.107,864.267C730.971,874.745 765.889,955.581 770.759,963.756C775.347,971.456 751.707,978.204 751.707,978.204C751.707,978.204 763.456,995.983 774.088,999.375C787.615,1003.69 810.345,1003.02 827.64,989.667C845.996,975.494 835.522,953.91 836.133,944.854C836.744,935.797 829.82,949.431 812.887,946.308C801.854,944.274 760.398,852.007 750.062,831.335C741.431,814.073 700.922,743.764 674.821,694.644C666.55,679.078 659.726,665.64 655.821,656.692C648.72,640.419 653.385,565.294 652.482,564.39C649.303,561.212 627.105,579.343 624.19,582.258C612.046,594.403 600.033,603.396 583.943,605.96C577.736,606.949 553.896,609.271 537.271,608.279Z" style="fill:white;"/>
            <path d="M765.438,965.601C764.877,966.113 763.914,966.953 763.11,967.451C757.866,970.702 750.184,972.867 750.184,972.867C748.483,973.352 747.116,974.619 746.502,976.278C745.888,977.936 746.102,979.788 747.077,981.264C747.077,981.264 751.581,988.086 757.634,994.323C762.086,998.911 767.4,1003.07 772.401,1004.66C787.209,1009.39 812.098,1008.68 831.032,994.06C841.945,985.633 844.383,975.045 844.088,965.176C843.847,957.091 841.373,949.638 841.67,945.227C841.951,941.069 840.628,938.995 839.627,938C838.129,936.513 836.104,935.68 833.267,936.372C832.14,936.646 830.499,937.453 828.394,938.497C825.422,939.971 820.844,941.975 814.424,940.941C814.034,940.583 812.823,939.447 812.006,938.446C809.004,934.772 805.31,928.891 801.225,921.733C784.65,892.692 762.24,843.281 755.026,828.853C746.387,811.576 705.846,741.203 679.722,692.04C671.534,676.631 664.773,663.331 660.908,654.473C659.151,650.445 658.342,642.461 657.844,632.969C656.583,608.918 658.13,575.81 658.153,566.769C658.159,564.47 657.897,563.059 657.771,562.68C657.398,561.566 656.83,560.89 656.406,560.466C654.777,558.837 651.192,557.64 646.451,559.631C638.52,562.96 622.763,575.836 620.266,578.333C609.01,589.59 597.983,598.103 583.07,600.479C577.023,601.442 553.798,603.705 537.602,602.739C534.725,602.567 533.286,604.063 532.483,605.308C531.763,606.425 530.7,608.72 532.569,611.58C532.918,612.114 533.871,613.199 535.401,614.493C539.359,617.838 548.379,624.238 553.992,626.928C579.056,638.938 612.249,668.475 623.831,691.637C637.638,719.251 651.803,745.277 667.999,774.216C683.173,801.33 700.134,831.01 720.264,866.978C725.949,877.136 758.919,953.334 765.438,965.601ZM646.964,571.903C646.653,585.035 645.664,612.673 646.759,633.55C647.347,644.769 648.657,654.152 650.734,658.912C654.678,667.95 661.566,681.526 669.92,697.248C695.998,746.325 736.474,816.57 745.098,833.818C753.412,850.446 781.783,913.133 798.467,938.596C801.752,943.61 804.703,947.288 806.994,949.233C808.799,950.766 810.504,951.512 811.881,951.766C820.14,953.289 826.418,951.508 830.911,949.565C831.361,952.878 832.152,956.841 832.654,961.107C833.579,968.964 833.325,978.266 824.248,985.274C808.592,997.362 788.02,997.995 775.775,994.088C772.269,992.97 768.721,989.809 765.6,986.592C763.732,984.668 762.032,982.681 760.613,980.913C764.593,979.303 769.289,977.058 772.287,974.48C776.982,970.441 778.332,965.622 775.527,960.915C770.663,952.752 735.806,872.02 729.95,861.557C709.82,825.589 692.859,795.909 677.685,768.795C661.578,740.015 647.49,714.134 633.759,686.673C621.302,661.76 585.747,629.836 558.789,616.918C557.262,616.186 555.443,615.135 553.563,613.946C567.016,613.533 580.355,612.151 584.816,611.441C602.085,608.689 615.082,599.216 628.115,586.182C629.856,584.44 638.872,576.991 646.047,572.455C646.341,572.27 646.65,572.085 646.964,571.903Z"/>
        </g>
    </g>
</svg>
