<svg viewBox="0 0 492 492" xmlns="http://www.w3.org/2000/svg" xml:space="preserve" style="fill-rule:evenodd;clip-rule:evenodd;stroke-linejoin:round;stroke-miterlimit:2"><path d="M550.695 615.45c-15.499-12.722-44.53-23.38-61.888-29.166-16.066-5.356-36.791-17.902-47.778-28.889-12.603-12.603-12.634-30.411-22.222-40-27.98-27.981-52.884-68.439-84.445-100-11.616-11.617-9.057-36.834-22.222-50-9.583-9.583-52.407-61.481-57.778-72.222-7.264-14.528-8.682-32.921-15.555-46.667-5.385-10.769-26.692-46.617-21.112-57.778 4.057-8.114 7.778-19.32 7.778-28.889 0-7.64-5.25-21.722-2.222-27.778 14.808-29.615 30.805-71.916 48.889-90 2.803-2.802 11.793-6.452 16.667-8.888 28.278-14.14 41.889-19.221 63.333 2.222 3.141 3.141 11.418 2.375 15.555 4.444 7.889 3.945 21.087-2.79 28.889 1.111 10.028 5.014 59.525 31.747 66.667 38.889 6.555 6.555 12.782 18.898 16.667 26.667 4.905 9.81 15.398 8.731 21.111 14.444 6.596 6.597 4.901 32.679 15.555 43.334 10.514 10.513 29.072 17.032 35.556 30 9.227 18.454 12.29 39.546 24.444 57.777 6.886 10.328 23.919 15.616 28.889 25.556 10.132 20.265 19.424 43.292 30 64.444 6.228 12.456 22.737 17.695 30 32.223 4.911 9.821 3.262 24.231 6.667 34.444 3.267 9.801 13.971 14.773 16.667 25.556 9.041 36.166-5.225 84.112-30 108.889-1.84 1.839-7.7 9.207-11.9 15.522" style="fill:#fff" transform="scale(.48)"/><path d="M266.024 293.357c-7.66-6.286-21.977-11.609-30.554-14.468-7.36-2.453-16.86-8.19-21.893-13.223-3.345-3.346-4.612-7.561-6.068-11.282-1.195-3.055-2.508-5.828-4.598-7.918-13.43-13.43-25.384-32.85-40.533-48-2.486-2.486-3.31-6.488-4.362-10.511-1.3-4.978-2.82-10.004-6.305-13.49-4.511-4.51-24.706-28.917-27.235-33.973-3.486-6.974-4.167-15.802-7.466-22.4-1.775-3.55-7.246-12.875-9.454-19.96-.419-1.343-.717-2.593-.812-3.684-.06-.681-.086-1.271.133-1.707 2.113-4.227 4.014-10.074 4.014-15.058 0-2.296-.915-5.758-1.345-8.812-.187-1.326-.398-2.54-.003-3.33 6.986-13.97 14.437-33.977 22.968-42.508 1.22-1.22 5.187-2.707 7.308-3.767 7.485-3.743 12.576-6.262 17.547-5.463 3.156.508 6.173 2.426 9.778 6.03.925.926 2.396 1.527 4.094 1.85 1.412.268 3.051.276 4.064.782 2.317 1.16 5.404.946 8.493.533 1.96-.262 3.92-.726 5.374 0 4.703 2.352 27.958 14.819 31.308 18.169 2.969 2.968 5.742 8.589 7.5 12.107 1.513 3.025 3.83 4.436 6.267 5.466 1.57.664 3.231 1.025 4.366 2.16.388.388.604 1.043.845 1.807.567 1.793.951 4.106 1.43 6.5.938 4.699 2.307 9.608 5.192 12.493 2.635 2.635 6.26 4.794 9.652 7.083 2.846 1.92 5.551 3.896 6.915 6.625 4.477 8.954 6.002 19.172 11.9 28.02 1.83 2.746 4.956 4.886 8.01 6.936 2.34 1.572 4.678 3.017 5.69 5.044 4.864 9.727 9.324 20.78 14.4 30.933 1.661 3.322 4.625 5.746 7.725 8.244 2.503 2.015 5.112 4.096 6.675 7.223 1.045 2.089 1.337 4.678 1.604 7.276.322 3.134.578 6.288 1.452 8.908.901 2.703 2.759 4.787 4.646 6.893 1.36 1.515 2.761 3.036 3.297 5.177 4.13 16.52-2.383 38.42-13.7 49.737-.932.933-3.917 4.658-6.046 7.86a2.665 2.665 0 0 0 4.436 2.95c1.903-2.86 4.545-6.21 5.378-7.042 12.468-12.469 19.651-36.597 15.1-54.797-.758-3.034-2.572-5.295-4.497-7.442-1.398-1.559-2.892-3.02-3.56-5.021-.76-2.282-.926-5.038-1.206-7.767-.335-3.264-.825-6.49-2.138-9.115-1.924-3.847-5.02-6.51-8.098-8.99-2.48-1.998-4.974-3.82-6.302-6.477-5.077-10.153-9.536-21.206-14.4-30.933-1.132-2.263-3.292-4.172-5.812-5.94-2.918-2.049-6.406-3.89-8.221-6.613-5.77-8.656-7.187-18.686-11.567-27.447-1.748-3.497-5.053-6.197-8.7-8.659-3.103-2.094-6.455-4.022-8.866-6.434-1.25-1.25-2.006-3.074-2.605-5.041-.709-2.33-1.155-4.867-1.608-7.173-.753-3.827-1.732-7.064-3.254-8.586-1.35-1.35-3.115-2.128-4.979-2.863-1.706-.673-3.592-1.253-4.655-3.377-1.97-3.94-5.175-10.17-8.499-13.493-3.507-3.507-27.768-16.704-32.692-19.166-2.293-1.146-5.37-.93-8.462-.516-1.962.262-3.933.719-5.405-.017-1.196-.598-2.975-.858-4.697-1.124a14.03 14.03 0 0 1-1.387-.267c-.267-.07-.534-.087-.69-.243-4.63-4.631-8.644-6.872-12.7-7.523-5.845-.94-11.972 1.555-20.775 5.957-2.557 1.279-7.222 3.295-8.692 4.766-8.83 8.83-16.736 29.432-23.966 43.892-.769 1.537-.87 3.877-.508 6.455.394 2.8 1.293 5.965 1.293 8.07 0 4.201-1.67 9.112-3.452 12.675-1.018 2.036-.864 5.44.358 9.36 2.294 7.36 7.932 17.069 9.776 20.756 3.299 6.598 3.98 15.427 7.466 22.4 2.628 5.255 23.545 30.671 28.232 35.36 2.835 2.834 3.86 7.02 4.919 11.068 1.308 5.003 2.657 9.84 5.748 12.931 15.15 15.15 27.103 34.57 40.533 48 2.055 2.055 2.997 5.035 4.189 8.13 1.461 3.796 3.169 7.76 6.478 11.07 5.515 5.515 15.911 11.823 23.975 14.51 8.087 2.696 21.637 7.606 28.859 13.532a2.665 2.665 0 0 0 3.75-.369 2.666 2.666 0 0 0-.37-3.75Z"/><path d="M298.807 30.728c1.701-3.404-2.223 12.548-2.223 16.667 0 14.221-1.111 27.059-1.111 41.111 0 19.994-2.945 41.166 3.334 60 3.563 10.691 15.555 31.693 15.555 41.111" style="fill:#fff" transform="scale(.48)"/><path d="M141.934 15.275c-.314 1.638-1.158 6.173-1.158 7.475 0 6.826-.533 12.988-.533 19.733 0 9.765-1.385 20.102 1.681 29.3 1.036 3.106 3.534 8.011 5.372 12.421 1.117 2.681 2.014 5.149 2.014 6.812a1.585 1.585 0 0 0 3.168 0c0-1.953-.945-4.881-2.258-8.03-1.806-4.335-4.273-9.151-5.29-12.204-2.96-8.882-1.519-18.87-1.519-28.3 0-6.744.533-12.906.533-19.732 0-1.566 1.204-6.726 1.268-7.9.073-1.373-.96-1.801-1.259-1.87-.253-.059-1.302-.22-1.943 1.061-.2.4-.214.843-.076 1.234Z"/><path d="M307.695 25.173c23.399 0 82.834 102.722 74.445 111.111-.203.203-5.096-6.859-5.556-7.778-7.212-14.425-26.146-51.703-36.666-62.222l-28.889-28.889c-3.478-3.478-15.511-4.445-12.222-4.445" style="fill:#fff" transform="scale(.48)"/><path d="M179.71 56.109c-4.318-8.4-11.25-21.234-15.43-25.413l-13.866-13.867c-.532-.532-1.36-1.002-2.31-1.364-1.247-.474-2.988-.846-3.884-1.02a1.57 1.57 0 0 0-.793-.213c-.874 0-1.248.353-1.316.413-.508.448-.603.967-.514 1.47.027.148.203 1.041 1.307 1.304.422.1 1.975.333 3.43.786.729.227 1.45.475 1.84.864l13.866 13.867c4.976 4.976 13.892 22.632 17.304 29.455.219.438 2.337 3.51 2.837 4.041 1.035 1.101 2.166.304 2.366.104.596-.596.996-1.748.784-3.435-.313-2.5-1.885-6.704-4.299-11.673-5.467-11.252-15.223-26.606-23.307-34.81-2.18-2.212-4.255-3.915-6.098-4.934-1.434-.792-2.765-1.185-3.933-1.185a1.585 1.585 0 0 0 0 3.168c.719 0 1.518.302 2.4.79 1.63.9 3.447 2.43 5.374 4.385 7.887 8.003 17.381 22.994 22.714 33.97a93.69 93.69 0 0 1 1.529 3.297Z"/><path d="M364.362 45.173c32.69 16.344 58.54 72.35 64.445 107.777 2.26 13.563-1.112 25.934-1.112 38.889" style="fill:#fff" transform="scale(.48)"/><path d="M174.185 23.1c6.058 3.029 11.578 9.029 16.234 16.152 7.11 10.878 12.175 24.397 13.845 34.425 1.07 6.42-.554 12.274-.554 18.406a1.585 1.585 0 0 0 3.168 0c0-6.305 1.612-12.326.512-18.927-1.73-10.38-6.96-24.378-14.32-35.638-4.99-7.637-10.973-14.005-17.468-17.252a1.584 1.584 0 0 0-1.417 2.834Z"/><path d="M432.14 180.728c15.792 7.896 31.28 36.159 25.555 53.333" style="fill:#fff" transform="scale(.48)"/><path d="M206.719 88.166c4.258 2.13 8.414 7.594 10.544 13.26 1.378 3.664 1.927 7.427.928 10.423a1.585 1.585 0 0 0 3.005 1.001c1.2-3.6.689-8.135-.967-12.54-2.42-6.437-7.255-12.558-12.093-14.978a1.585 1.585 0 0 0-1.417 2.834Z"/><path d="M436.584 169.617c19.919-9.959 50.614 52.953 54.445 64.444" style="fill:#fff" transform="scale(.48)"/><path d="M210.269 82.833c1.026-.513 2.134-.41 3.283.058 1.444.59 2.924 1.725 4.413 3.186 7.548 7.41 14.969 23.002 16.226 26.773a1.585 1.585 0 0 0 3.005-1.001c-1.316-3.95-9.106-20.27-17.012-28.032-1.823-1.79-3.666-3.137-5.434-3.86-2.063-.841-4.055-.879-5.898.042a1.585 1.585 0 0 0 1.417 2.834Z"/><path d="M402.14 266.284c7.455 44.73 31.312 82.87 65.555 112.222" style="fill:#fff" transform="scale(.48)"/><path d="M191.465 128.076c3.64 21.843 15.276 40.476 31.998 54.81a1.585 1.585 0 0 0 2.062-2.406c-16.152-13.844-27.419-31.826-30.935-52.924a1.584 1.584 0 0 0-3.125.52Z"/><path d="M386.584 286.284c-17.08 17.08 27.773 66.661 38.889 77.777" style="fill:#fff" transform="scale(.48)"/><path d="M184.44 136.296c-2.851 2.852-2.867 7.313-.952 12.354 3.931 10.35 15.809 23.41 19.62 27.22a1.585 1.585 0 0 0 2.24-2.24c-3.66-3.66-15.123-16.165-18.899-26.105-1.39-3.658-1.838-6.92.232-8.989a1.585 1.585 0 0 0-2.24-2.24Z"/><path d="M451.029 457.395c-13.281-6.641-11.697-59.356-7.778-71.111" style="fill:#fff" transform="scale(.48)"/><path d="M217.202 218.133c-.694-.347-1.218-1.101-1.694-2.069-.605-1.23-1.072-2.79-1.437-4.548-1.787-8.611-1.083-21.772.192-25.599a1.585 1.585 0 0 0-3.005-1.002c-1.358 4.073-2.19 18.08-.288 27.245.516 2.486 1.239 4.63 2.17 6.175.746 1.241 1.643 2.13 2.645 2.631a1.584 1.584 0 0 0 1.417-2.833Z"/><path d="M286.584 170.728c-1.633 0 6.141 23.978 6.667 25.556 8.849 26.547 23.271 51.049 43.333 71.111" style="fill:#fff" transform="scale(.48)"/><path d="M139.08 82.398a1.585 1.585 0 0 0-1.52-2.032c-.592 0-1.72.366-1.69 1.936.036 1.944 3.152 11.707 3.388 12.415 4.325 12.975 11.378 24.947 21.182 34.752a1.585 1.585 0 0 0 2.24-2.24c-9.454-9.454-16.246-21.003-20.417-33.514-.203-.609-2.814-9.991-3.183-11.317Zm-.777.95a1.57 1.57 0 0 1-.743.185c.272 0 .521-.058.743-.185Z"/><path d="M277.695 39.617c-13.406 0-28.056 63.607-23.333 77.778 6.287 18.862 9.058 41.28 24.445 56.666" style="fill:#fff" transform="scale(.48)"/><path d="M133.294 17.432c-1.131 0-2.324.548-3.455 1.699-1.26 1.282-2.525 3.395-3.681 6.026-2.954 6.725-5.33 16.944-5.932 24.139-.276 3.295-.154 5.995.365 7.554 3.092 9.274 4.551 20.254 12.116 27.82a1.585 1.585 0 0 0 2.24-2.24c-7.206-7.207-8.406-17.748-11.35-26.582-.433-1.297-.444-3.547-.214-6.288.576-6.894 2.845-16.686 5.676-23.128.82-1.867 1.678-3.442 2.566-4.545.363-.45.721-.815 1.088-1.057.198-.13.384-.23.58-.23a1.585 1.585 0 0 0 0-3.168Z"/><path d="M315.473 368.506c-13.561-6.781-33.291-66.878-30-83.333 1.629-8.145 5.556-19.947 5.556-27.778" style="fill:#fff" transform="scale(.48)"/><path d="M152.136 175.466c-.868-.434-1.755-1.455-2.701-2.822-1.65-2.384-3.334-5.784-4.877-9.57-2.35-5.765-4.364-12.418-5.396-17.825-.652-3.41-.934-6.292-.582-8.055.8-4 2.698-9.8 2.698-13.644a1.585 1.585 0 0 0-3.168 0c0 3.673-1.872 9.202-2.636 13.022-.358 1.788-.225 4.573.328 7.888 1.218 7.304 4.418 17.34 7.922 24.534 2.306 4.736 4.857 8.237 6.995 9.305a1.585 1.585 0 0 0 1.417-2.833Z"/><path d="M223.251 155.173c0 33.22 27.534 67.534 50 90" style="fill:#fff" transform="scale(.48)"/><path d="M105.576 74.483c0 16.334 13.418 33.274 24.465 44.32a1.585 1.585 0 0 0 2.24-2.24c-10.521-10.52-23.537-26.523-23.537-42.08a1.585 1.585 0 0 0-3.168 0Z"/><path d="M232.14 115.173c0 26.46 18.198 63.893 34.444 85.555" style="fill:#fff" transform="scale(.48)"/><path d="M109.843 55.283c0 12.987 8.876 31.384 16.85 42.017a1.585 1.585 0 0 0 2.535-1.901c-7.622-10.163-16.217-27.702-16.217-40.116a1.585 1.585 0 0 0-3.168 0Z"/><path d="M408.807 46.284c17.876 17.876 62.139 75.884 55.555 102.222" style="fill:#fff" transform="scale(.48)"/><path d="M195.107 23.336c5.923 5.922 17.968 21.149 23.59 34.029 2.277 5.214 3.543 10.001 2.66 13.534a1.584 1.584 0 0 0 3.074.768c1.013-4.053-.218-9.587-2.83-15.57-5.783-13.246-18.163-28.91-24.254-35.001a1.585 1.585 0 0 0-2.24 2.24Z"/><path d="M496.763 121.362c8.69 17.38 8.287 50.317 14.266 68.255 4.942 14.828 17.822 27.91 23.333 44.444 5.789 17.366-1.111 34.611-1.111 51.112v2.222c.8.8 3.166-3.773 3.333-4.445 2.884-11.535 1.111-26 1.111-38.889 0-6.624-17.934-79.045-20-81.111" style="fill:#fff" transform="scale(.48)"/><path d="M247.187 79.11c.076.218.644 1.845 1.163 3.665 1.347 4.725 3.404 12.76 5.116 19.9-.44-.721-.888-1.434-1.334-2.143-2.102-3.34-4.188-6.573-5.336-10.017-1.41-4.23-2.052-10.23-2.869-16.196-.857-6.258-1.914-12.474-4.064-16.774a1.584 1.584 0 0 0-2.834 1.417c2.022 4.043 2.953 9.903 3.76 15.787.846 6.179 1.542 12.388 3.002 16.768 1.225 3.674 3.417 7.14 5.66 10.702 2.106 3.346 4.258 6.785 5.54 10.631 1.313 3.938 1.16 7.863.705 11.737-.488 4.164-1.32 8.276-1.32 12.296v1.067c0 .42.168.822.465 1.12.355.355.77.509 1.226.508a1.9 1.9 0 0 0 1.164-.415c.302-.232.697-.707 1.031-1.247.436-.706.783-1.508.835-1.716 1.413-5.65.58-12.736.58-19.05 0-2.575-5.536-25.62-8.28-35.244-.572-2.002-1.033-3.445-1.298-4.05-.18-.408-.372-.647-.485-.76a1.585 1.585 0 0 0-2.427 2.015Z"/><path d="M559.918 234.061c24.877 49.755-4.445 51.271-4.445 92.223" style="fill:#fff" transform="matrix(.48 0 0 .48 1.269 -1.269)"/><path d="M268.612 111.79c6.813 13.624 4.783 19.319 2.019 25.735-2.008 4.662-4.32 9.676-4.32 17.823a1.585 1.585 0 0 0 3.169 0c0-7.58 2.192-12.233 4.06-16.57 3.05-7.08 5.423-13.372-2.094-28.405a1.584 1.584 0 0 0-2.834 1.416Z"/><path d="M571.029 252.95c21.354 21.355 15.523 72.766 6.251 100.583-2.581 7.742-9.159 46.173-9.159 46.173s5.043-11.625 6.241-13.422c6.926-10.389 23.965-72.641 23.965-71.771 0 6.456-1.684 48.355-.157 48.355 1.938 0-5.758 35.67 2.859 13.416 3.972-10.261 6.666-35.556 6.666-35.556s1.112 5.903 1.112 8.889c0 13.55 1.796 54.761-1.112 71.111-.091.516 29.516-65.181 20-94.444" style="fill:#fff" transform="scale(.48)"/><path d="M285.32 162.894c-.079 3.565-.124 7.07-.055 9.217.036 1.12.12 1.925.217 2.29.051.192.118.35.187.477a298.25 298.25 0 0 1-.536 5.39c-.21 1.873-.272 3.524-.107 4.103.24.837.797 1.16 1.24 1.28.406.109.91.112 1.456-.274.195-.137.477-.404.771-.89.335-.554.82-1.599 1.478-3.299.302-.78.59-1.736.86-2.796.148 8.188.202 18.228-.697 23.28a1.47 1.47 0 0 0 .148.996c.34.672.88.918 1.546.861.134-.011.76-.013 1.215-.746.026-.043.204-.396.482-1.024 1.352-3.067 5.934-14.055 8.485-25.116 1.754-7.603 2.505-15.243.79-20.517a1.585 1.585 0 0 0-3.013.98c1.574 4.84.746 11.846-.864 18.825-1.333 5.779-3.234 11.537-4.916 16.103.205-8.898-.196-19.714-.196-24.218 0-1.531-.56-4.56-.56-4.56a1.584 1.584 0 0 0-3.132.126s-.55 5.26-1.47 10.194a1.739 1.739 0 0 0-.143-.266c-.374-3.498.275-19.608.275-22.344 0-.919-.584-1.256-.799-1.38a1.542 1.542 0 0 0-1-.194 1.508 1.508 0 0 0-.973.52c-.027.03-.308.469-.564 1.333-1.08 3.652-5.713 20.243-9.01 28.817.806-4.237 1.65-8.327 2.162-9.866 2.727-8.18 4.841-20.522 3.84-31.349-.69-7.471-2.89-14.217-7.223-18.55a1.585 1.585 0 0 0-2.24 2.24c3.866 3.866 5.692 9.936 6.309 16.602.96 10.38-1.077 22.213-3.691 30.056-1.252 3.755-4.455 22.397-4.455 22.397a1.584 1.584 0 0 0 3.015.897s2.308-5.366 2.86-6.194c1.96-2.94 5.604-14.406 8.308-23.401Z"/><path d="M648.45 362.156c-1.173-1.669-.289 25.458-1.866 34.128-3.363 18.497-12.666 35.184-22.222 51.111" style="fill:#fff" transform="scale(.48)"/><path d="M312.659 174.57a1.583 1.583 0 0 0-.107-1.646c-.436-.62-.977-.714-1.368-.708-.365.005-1.336.173-1.616 1.425-.35 1.57-.082 12.532-.766 16.292-1.58 8.69-5.977 16.519-10.467 24.002a1.585 1.585 0 0 0 2.717 1.63c4.684-7.808 9.219-15.998 10.867-25.065.623-3.426.727-14.19.74-15.93Zm-2.64.254c.183.235.386.374.585.454a1.57 1.57 0 0 1-.585-.454Z"/><path d="M670.672 402.651c0 36.842-7.229 82.33-34.088 109.188" style="fill:#fff" transform="scale(.48)"/><path d="M320.339 193.272c0 17.296-3.29 38.682-15.899 51.29a1.585 1.585 0 0 0 2.24 2.241c13.176-13.176 16.827-35.458 16.827-53.53a1.585 1.585 0 0 0-3.168 0Z"/><path d="M496.584 441.839c0 53.496 40.151 89.67 67.778 131.111 5.535 8.303 16.908 34.445 22.222 34.445" style="fill:#fff" transform="scale(.48)"/><path d="M281.754 289.978c-.161-.16-1.158-1.166-1.806-2.13-2.646-3.939-5.877-10.922-7.736-13.71-6.627-9.94-14.755-19.247-21.227-29.278-6.312-9.783-11.04-20.262-11.04-32.777a1.585 1.585 0 0 0-3.169 0c0 13.162 4.908 24.205 11.547 34.495 6.48 10.044 14.618 19.365 21.253 29.317 1.86 2.79 5.094 9.778 7.743 13.72.935 1.391 1.838 2.433 2.587 2.949.59.406 1.158.57 1.654.57a1.585 1.585 0 0 0 .194-3.156Z"/><path d="M615.473 588.506c13.802-13.802-6.792-47.043-11.111-60-5.84-17.522 0-35.556-11.111-52.222-4.523-6.784-14.048-8.097-17.778-15.556" style="fill:#fff" transform="matrix(.48 0 0 .46748 0 5.77)"/><path d="M296.532 282.017c3.027-2.947 3.243-7.524 2.014-12.435-1.627-6.497-5.7-13.6-6.954-17.26-1.357-3.965-1.33-7.992-1.637-11.966-.337-4.373-1.047-8.68-3.887-12.83-1.215-1.774-3.067-2.877-4.9-3.98-1.385-.832-2.775-1.647-3.532-3.12a1.585 1.585 0 0 0-2.818 1.447c1.034 2.014 2.824 3.25 4.716 4.388 1.444.868 2.963 1.658 3.92 3.055 2.493 3.642 3.047 7.445 3.343 11.283.326 4.237.351 8.522 1.798 12.748 1.235 3.608 5.274 10.6 6.877 17.005.924 3.69 1.124 7.18-1.15 9.396a1.585 1.585 0 0 0 2.21 2.27Z"/><path d="M543.251 608.506c-6.873-6.873-3.258-21.629-13.333-26.667-12.558-6.279-31.207-8.92-44.445-13.333-8.087-2.696-69.215-86.045-77.778-98.889" style="fill:#fff" transform="scale(.48)"/><path d="M233.568 271.393a10.53 10.53 0 0 1-.863-.692c-.884-.815-2.065-2.089-3.46-3.698-9.594-11.06-28.957-37.552-32.233-42.466a1.585 1.585 0 0 0-2.636 1.758c3.3 4.95 22.81 31.641 32.476 42.784 1.757 2.026 3.207 3.552 4.193 4.38.614.517 1.129.81 1.481.927 6.29 2.096 15.159 3.33 21.126 6.314 1.967.983 2.468 2.993 2.943 5.014.652 2.782 1.2 5.643 3.046 7.489a1.585 1.585 0 0 0 2.24-2.24c-1.454-1.454-1.688-3.782-2.202-5.973-.692-2.95-1.74-5.689-4.61-7.124-6.076-3.038-15.087-4.341-21.501-6.473Z"/><path d="M411.248 509.519c-10.853-34.804-54.664-97.815-54.664-125.458" style="fill:#fff" transform="scale(.48)"/><path d="M198.911 244.098c-3.144-10.084-12.001-25.077-18.597-38.336-4.236-8.517-7.57-16.269-7.57-21.413a1.585 1.585 0 0 0-3.168 0c0 5.471 3.396 13.767 7.902 22.824 6.518 13.102 15.302 27.904 18.409 37.867a1.585 1.585 0 0 0 3.024-.942Z"/><path d="M308.807 285.173c-3.753 8.756 43.255 53.255 51.111 61.111" style="fill:#fff" transform="scale(.48)"/><path d="M149.712 137.434a1.585 1.585 0 0 0-2.941-1.175c-.257.6-.32 1.397-.06 2.358.251.924.827 2.095 1.681 3.425 5.025 7.817 20.202 22.248 23.248 25.294a1.585 1.585 0 0 0 2.24-2.24c-2.623-2.623-14.401-13.806-20.615-21.715-1.506-1.917-2.68-3.62-3.257-4.94-.168-.381-.278-.917-.296-1.007Z"/><path d="M341.029 152.95c-5.879 29.396 16.392 59.45 28.889 84.445" style="fill:#fff" transform="scale(.48)"/><path d="M162.14 73.105c-1.474 7.373.526 14.837 3.733 22.016 3.08 6.891 7.262 13.52 10.27 19.537a1.585 1.585 0 0 0 2.834-1.417c-2.99-5.98-7.151-12.564-10.211-19.412-2.932-6.561-4.867-13.365-3.519-20.102a1.585 1.585 0 0 0-3.106-.622Z"/><path d="M381.029 174.061c24.025-4.805 52.629 56.777 58.889 75.556" style="fill:#fff" transform="scale(.48)"/><path d="M183.204 85.103c3.02-.604 6.114 1.493 9.174 4.66 8.021 8.301 15.218 24.368 17.28 30.554a1.585 1.585 0 0 0 3.005-1.002c-2.144-6.433-9.665-23.12-18.007-31.753-3.953-4.092-8.172-6.346-12.073-5.566a1.585 1.585 0 0 0 .621 3.107Z"/><path d="M563.029 636.95c7.217 2.702 41.717-8.78 46.416-10.121 10.333-2.946 9.895-7.68 18.662-13.524 3.073-2.049 14.534-9.69 18.88-16.493.514-.806 17.153-7.267 17.153-15.417" style="fill:#fff" transform="matrix(.48 0 0 .48 -7.36 -11.52)"/><path d="M305.052 276.944c1.067-.544 4.98-2.615 6.87-4.606 1.368-1.441 2.17-3.098 2.17-4.788a2.665 2.665 0 0 0-2.665-2.664 2.665 2.665 0 0 0-2.664 2.664c0 .369-.295.663-.58.982-.601.678-1.417 1.278-2.228 1.804-1.838 1.19-3.7 2.022-4.145 2.318a2.877 2.877 0 0 0-.862.862c-1.896 2.968-6.953 6.24-8.294 7.134-1.897 1.264-3.003 2.424-3.998 3.473-1.033 1.089-1.89 2.011-4.213 2.673-1.558.445-10.031 3.25-16.148 4.45-1.208.237-2.316.41-3.24.476-.53.038-.957.1-1.227 0a2.665 2.665 0 0 0-1.868 4.99c1.292.483 4.058.41 7.36-.238 6.281-1.232 14.984-4.098 16.584-4.554 3.086-.88 4.555-2.04 5.916-3.404.991-.994 1.882-2.161 3.79-3.433 1.524-1.017 6.944-4.721 9.442-8.139Z"/><path d="M770.759 963.756c14.786 2.917 20.636 2.087 26.261-1.179 13.007-7.551 16.1-16.269 15.867-16.269" style="fill:#fff" transform="scale(.48)"/><path d="M387.59 453.627c-.237.438-2.073 3.619-6.358 6.106-2.301 1.336-4.703 1.45-10.752.256a2.665 2.665 0 0 0-3.13 2.098 2.665 2.665 0 0 0 2.099 3.13c8.147 1.607 11.359.923 14.458-.876 6.63-3.849 8.557-8.382 8.81-9.22.498-1.64-.437-2.56-.602-2.732a2.568 2.568 0 0 0-1.93-.825 2.665 2.665 0 0 0-2.594 2.063Zm.106 1.548c.471 1.36 1.5 1.717 2.49 1.717a2.665 2.665 0 0 1-2.49-1.717Z"/><path d="M596.362 592.061c12.136-10.364-27.14-50.909-37.555-93.555-2.301-9.418-3.104-19.982-6.667-28.889-3.681-9.202-12.999-38.889-24.445-38.889" style="fill:#fff" transform="scale(.48)"/><path d="M287.282 285.394c1.03-.88 1.57-2.05 1.651-3.51.093-1.675-.492-3.834-1.61-6.36-3.834-8.659-14.081-22.385-17.557-36.617-1.122-4.591-1.531-9.737-3.268-14.08-1.266-3.164-3.919-11.25-7.308-15.823-1.776-2.397-3.833-3.839-5.896-3.839a1.585 1.585 0 0 0 0 3.168c.733 0 1.403.454 2.073 1.086.908.857 1.756 2.063 2.554 3.428 2.601 4.455 4.592 10.55 5.635 13.158 1.684 4.208 2.046 9.204 3.132 13.654 3.524 14.427 13.852 28.37 17.737 37.147.74 1.672 1.24 3.126 1.335 4.337.061.774-.035 1.415-.535 1.842a1.585 1.585 0 0 0 2.057 2.41Z"/><g><path d="M537.271 608.279c-1.624-.097 11.816 10.144 19.12 13.644 26.011 12.464 60.385 43.194 72.404 67.232 13.769 27.537 27.896 53.491 44.047 82.351 15.174 27.114 32.135 56.793 52.265 92.761 5.864 10.478 40.782 91.314 45.652 99.489 4.588 7.7-19.052 14.448-19.052 14.448s11.749 17.779 22.381 21.171c13.527 4.315 36.257 3.645 53.552-9.708 18.356-14.173 7.882-35.757 8.493-44.813.611-9.057-6.313 4.577-23.246 1.454-11.033-2.034-52.489-94.301-62.825-114.973-8.631-17.262-49.14-87.571-75.241-136.691-8.271-15.566-15.095-29.004-19-37.952-7.101-16.273-2.436-91.398-3.339-92.302-3.179-3.178-25.377 14.953-28.292 17.868-12.144 12.145-24.157 21.138-40.247 23.702-6.207.989-30.047 3.311-46.672 2.319Z" style="fill:#fff" transform="matrix(.48 0 0 .48 -1.76 -2.4)"/><path d="M365.65 461.088c-.269.246-.731.65-1.117.888-2.517 1.561-6.205 2.6-6.205 2.6a2.663 2.663 0 0 0-1.491 4.03s2.162 3.275 5.067 6.269c2.137 2.202 4.688 4.199 7.089 4.962 7.107 2.27 19.054 1.93 28.142-5.088 5.239-4.045 6.409-9.127 6.267-13.865-.115-3.88-1.303-7.458-1.16-9.575.135-1.996-.5-2.991-.981-3.469-.719-.714-1.691-1.114-3.053-.781-.54.131-1.328.518-2.339 1.02-1.426.707-3.624 1.669-6.705 1.173-.188-.172-.769-.717-1.161-1.198-1.441-1.763-3.214-4.586-5.175-8.022-7.956-13.94-18.713-37.657-22.175-44.583-4.147-8.293-23.607-42.072-36.146-65.67-3.93-7.396-7.176-13.78-9.031-18.032-.843-1.933-1.232-5.766-1.47-10.322-.606-11.544.136-27.436.147-31.776.003-1.103-.122-1.78-.183-1.963a2.638 2.638 0 0 0-.655-1.062c-.782-.782-2.503-1.357-4.778-.401-3.807 1.598-11.37 7.778-12.57 8.977-5.402 5.403-10.695 9.49-17.853 10.63-2.903.462-14.05 1.548-21.825 1.085-1.381-.083-2.072.635-2.457 1.233-.346.536-.856 1.638.041 3.01.168.257.625.778 1.36 1.399 1.9 1.605 6.229 4.677 8.923 5.968 12.03 5.765 27.964 19.943 33.523 31.06 6.627 13.255 13.426 25.748 21.2 39.639 7.284 13.014 15.425 27.26 25.088 44.525 2.729 4.876 18.554 41.451 21.683 47.34Zm-56.867-188.975c-.15 6.304-.624 19.57-.099 29.591.283 5.385.911 9.889 1.908 12.174 1.893 4.338 5.2 10.854 9.21 18.401 12.517 23.557 31.946 57.275 36.085 65.554 3.99 7.981 17.609 38.07 25.617 50.293 1.577 2.407 2.993 4.172 4.093 5.106.867.736 1.685 1.094 2.346 1.216 3.964.73 6.978-.124 9.134-1.057.216 1.59.596 3.493.837 5.54.444 3.772.322 8.237-4.035 11.6-7.515 5.803-17.39 6.107-23.267 4.231-1.683-.536-3.386-2.054-4.884-3.598a38.939 38.939 0 0 1-2.394-2.726c1.91-.773 4.165-1.85 5.604-3.088 2.253-1.938 2.901-4.251 1.555-6.51-2.335-3.919-19.066-42.67-21.877-47.693-9.662-17.264-17.804-31.51-25.087-44.525-7.732-13.815-14.494-26.238-21.085-39.419-5.979-11.958-23.045-27.282-35.985-33.482-.733-.352-1.606-.856-2.509-1.427 6.458-.198 12.86-.862 15.002-1.202 8.289-1.321 14.527-5.868 20.783-12.125.836-.836 5.164-4.411 8.608-6.589.14-.088.289-.177.44-.265Z"/></g></svg>