<svg viewBox="0 0 492 492" xmlns="http://www.w3.org/2000/svg" xml:space="preserve" style="fill-rule:evenodd;clip-rule:evenodd;stroke-linecap:round;stroke-linejoin:round;stroke-miterlimit:1.5"><circle cx="656.5" cy="592.5" r="471.5" style="fill:#fff;stroke:#000;stroke-width:20.46px" transform="matrix(.48 0 0 .48 -65.815 -38.64)"/><path d="M492.384-33.112C414.265-11.478 348.701 34.225 314.67 120.197" style="fill:#fff;stroke:#000;stroke-width:38.01px" transform="matrix(-.25187 .12624 -.10423 -.20795 393.434 398.717)"/><path d="M487-8.078c-27.425 34.5-94.424 131.755-96.849 193.255" style="fill:#fff;stroke:#000;stroke-width:20.46px" transform="matrix(.48 0 0 .48 -107.04 199.8)"/><path d="M439.613 49.275c-27.425 34.5-32.119 53.476-40.868 91.832" style="fill:#fff;stroke:#000;stroke-width:11.45px" transform="matrix(.27724 .75325 -.85348 .31413 274.594 -238.139)"/><path d="M422.064-64.513c-43.854 49.36-73.363 98.738-107.394 184.71" style="fill:#fff;stroke:#000;stroke-width:20.46px" transform="rotate(-121.054 281.445 188.017) scale(.48)"/><path d="M387.581-77.624c-8.779 63.276-38.88 111.849-72.911 197.821" style="fill:#fff;stroke:#000;stroke-width:20.46px" transform="rotate(126.353 151.875 144.08) scale(.48)"/><path d="M126 259c47.667-20 71.333-21 119-21" style="fill:#fff;stroke:#000;stroke-width:20.46px" transform="scale(.48)"/><path d="M136.035 252.05c19.4-7 33.444-13.692 64.614-12.331" style="fill:#fff;stroke:#000;stroke-width:20.46px" transform="rotate(-110.3 113.484 215.288) scale(.48)"/><path d="M136.035 252.05c19.4-7 33.444-13.692 64.614-12.331" style="fill:#fff;stroke:#000;stroke-width:20.46px" transform="rotate(-110.3 210.838 256.844) scale(.48)"/><path d="M448 47.5c-27.425 34.5-31.85 62-47.275 96.5" style="fill:#fff;stroke:#000;stroke-width:20.46px" transform="scale(.48)"/><path d="M429.784-65.701c-29.255 34.805-46.724 62.25-60.977 113.44" style="fill:#fff;stroke:#000;stroke-width:20.46px" transform="rotate(-121.054 405.27 113.287) scale(.48)"/><path d="M519 154c40.895 0 152.36 60.326 143.686 81.828-34.515 85.561-83.854 171.251-83.854 171.251-35.085 3.391-192.656 11.093-192.656 11.093-28.813-32.967-43.5-127.982-22.862-172.344 0 0 114.791-91.828 155.686-91.828Z" style="stroke:#000;stroke-width:20.46px" transform="matrix(.48 0 0 .48 -55.53 -4.8)"/><path d="M519 133c40.895 0 152.36 81.326 143.686 102.828-34.515 85.561-83.854 171.251-83.854 171.251-35.085 3.391-192.656 11.093-192.656 11.093-28.813-32.967-43.5-127.982-22.862-172.344 0 0 114.791-112.828 155.686-112.828Z" style="stroke:#000;stroke-width:20.46px" transform="rotate(180 278 238.643) scale(.48)"/><g><path d="M506.213 163.984c40.895 0 147.115 100.975 138.442 122.476-34.515 85.562-54.398 92.134-54.398 92.134-78.762-54.302-197.033-28.493-197.033-28.493-28.813-32.967-43.878-126.949-23.24-171.311 0 0 95.333-14.806 136.229-14.806Z" style="stroke:#000;stroke-width:24.96px" transform="matrix(.32692 .35146 -.2059 .19152 302.1 -95.156)"/></g><g><path d="M512.036 138.261c36.175 32.558 127.585 114.258 118.911 135.76-34.515 85.561-40.69 104.573-40.69 104.573-78.762-54.302-198.906-50.118-198.906-50.118-28.813-32.967-61.679-116.612-41.042-160.974 0 0 111.381-74.554 161.727-29.241Z" style="stroke:#000;stroke-width:25.34px" transform="matrix(-.32692 -.35146 .1937 -.18019 198.877 564.35)"/></g><g><path d="M422.064-64.513c-43.854 49.36-79.362 98.455-113.393 184.428" style="fill:#fff;stroke:#000;stroke-width:20.46px" transform="rotate(179.802 282.767 122.938) scale(.48)"/></g></svg>