<?xml version="1.0" encoding="UTF-8" standalone="no"?>
<!DOCTYPE svg PUBLIC "-//W3C//DTD SVG 1.1//EN" "http://www.w3.org/Graphics/SVG/1.1/DTD/svg11.dtd">
<svg width="100%" height="100%" viewBox="0 0 492 492" version="1.1" xmlns="http://www.w3.org/2000/svg" xmlns:xlink="http://www.w3.org/1999/xlink" xml:space="preserve" xmlns:serif="http://www.serif.com/" style="fill-rule:evenodd;clip-rule:evenodd;stroke-linecap:round;stroke-linejoin:round;stroke-miterlimit:1.5;">
    <g transform="matrix(0.48,0,0,0.48,0,0)">
        <g>
            <g>
                <g transform="matrix(1,0,0,1,-137.115,-80.5)">
                    <circle cx="656.5" cy="592.5" r="471.5" style="fill:white;stroke:black;stroke-width:20.46px;"/>
                </g>
                <g transform="matrix(-0.524723,0.262997,-0.217137,-0.433225,819.655,830.66)">
                    <path d="M492.384,-33.112C414.265,-11.478 348.701,34.225 314.67,120.197" style="fill:white;stroke:black;stroke-width:38.01px;"/>
                </g>
                <g transform="matrix(1,0,0,1,-223,416.25)">
                    <path d="M487,-8.078C459.575,26.422 392.576,123.677 390.151,185.177" style="fill:white;stroke:black;stroke-width:20.46px;"/>
                </g>
                <g transform="matrix(0.577587,1.56928,-1.77809,0.654443,572.071,-496.122)">
                    <path d="M439.613,49.275C412.188,83.775 407.494,102.751 398.745,141.107" style="fill:white;stroke:black;stroke-width:11.45px;"/>
                </g>
            </g>
            <g transform="matrix(-0.515847,-0.856681,0.856681,-0.515847,553.242,1096.07)">
                <path d="M422.064,-64.513C378.21,-15.153 348.701,34.225 314.67,120.197" style="fill:white;stroke:black;stroke-width:20.46px;"/>
            </g>
            <g transform="matrix(-0.592764,0.805376,-0.805376,-0.592764,745.707,223.266)">
                <path d="M387.581,-77.624C378.802,-14.348 348.701,34.225 314.67,120.197" style="fill:white;stroke:black;stroke-width:20.46px;"/>
            </g>
            <path d="M126,259C173.667,239 197.333,238 245,238" style="fill:white;stroke:black;stroke-width:20.46px;"/>
            <g transform="matrix(-0.346943,-0.937886,0.937886,-0.346943,-102.207,825.865)">
                <path d="M136.035,252.05C155.435,245.05 169.479,238.358 200.649,239.719" style="fill:white;stroke:black;stroke-width:20.46px;"/>
            </g>
            <g transform="matrix(-0.346943,-0.937886,0.937886,-0.346943,89.7842,1132.7)">
                <path d="M136.035,252.05C155.435,245.05 169.479,238.358 200.649,239.719" style="fill:white;stroke:black;stroke-width:20.46px;"/>
            </g>
            <path d="M448,47.5C420.575,82 416.15,109.5 400.725,144" style="fill:white;stroke:black;stroke-width:20.46px;"/>
            <g transform="matrix(-0.515847,-0.856681,0.856681,-0.515847,1077.66,1081.07)">
                <path d="M429.784,-65.701C400.529,-30.896 383.06,-3.451 368.807,47.739" style="fill:white;stroke:black;stroke-width:20.46px;"/>
            </g>
            <g transform="matrix(1,0,0,1,-115.686,-10)">
                <path d="M519,154C559.895,154 671.36,214.326 662.686,235.828C628.171,321.389 578.832,407.079 578.832,407.079C543.747,410.47 386.176,418.172 386.176,418.172C357.363,385.205 342.676,290.19 363.314,245.828C363.314,245.828 478.105,154 519,154Z" style="stroke:black;stroke-width:20.46px;"/>
            </g>
            <g transform="matrix(-1,0,0,-1,1158.33,994.344)">
                <path d="M519,133C559.895,133 671.36,214.326 662.686,235.828C628.171,321.389 578.832,407.079 578.832,407.079C543.747,410.47 386.176,418.172 386.176,418.172C357.363,385.205 342.676,290.19 363.314,245.828C363.314,245.828 478.105,133 519,133Z" style="stroke:black;stroke-width:20.46px;"/>
            </g>
            <g transform="matrix(0.68109,0.732199,-0.42895,0.399009,629.375,-198.241)">
                <path d="M506.213,163.984C547.108,163.984 653.328,264.959 644.655,286.46C610.14,372.022 590.257,378.594 590.257,378.594C511.495,324.292 393.224,350.101 393.224,350.101C364.411,317.134 349.346,223.152 369.984,178.79C369.984,178.79 465.317,163.984 506.213,163.984Z" style="stroke:black;stroke-width:24.96px;"/>
            </g>
            <g transform="matrix(-0.68109,-0.732199,0.403559,-0.37539,414.327,1175.73)">
                <path d="M512.036,138.261C548.211,170.819 639.621,252.519 630.947,274.021C596.432,359.582 590.257,378.594 590.257,378.594C511.495,324.292 391.351,328.476 391.351,328.476C362.538,295.509 329.672,211.864 350.309,167.502C350.309,167.502 461.69,92.948 512.036,138.261Z" style="stroke:black;stroke-width:25.34px;"/>
            </g>
            <g transform="matrix(-0.999994,0.00346625,-0.00346625,-0.999994,1179.08,510.197)">
                <path d="M422.064,-64.513C378.21,-15.153 342.702,33.942 308.671,119.915" style="fill:white;stroke:black;stroke-width:20.46px;"/>
            </g>
        </g>
    </g>
</svg>
