<svg viewBox="0 0 246 246" xmlns="http://www.w3.org/2000/svg" xml:space="preserve" style="fill-rule:evenodd;clip-rule:evenodd;stroke-linecap:round;stroke-linejoin:round;stroke-miterlimit:1.5"><circle cx="124.652" cy="122.88" r="113.16" style="fill:#fff;stroke:#000;stroke-width:4.91px"/><path d="M136.435 233.88c8.71-7.18 14.585-16.07 14.391-27.157" style="fill:#fff"/><path d="M137.996 235.774c9.315-7.678 15.492-17.239 15.284-29.094a2.456 2.456 0 0 0-2.497-2.412 2.456 2.456 0 0 0-2.412 2.498c.181 10.318-5.391 18.537-13.497 25.22a2.455 2.455 0 0 0 3.122 3.788Z"/><path d="M63.36 97.961c-6.582 8.28-22.662 31.622-23.244 46.382" style="fill:#fff"/><path d="M61.438 96.434c-4.013 5.048-11.501 15.608-16.977 26.487-3.767 7.484-6.554 15.134-6.798 21.325a2.456 2.456 0 0 0 4.906.193c.222-5.617 2.86-12.521 6.278-19.311 5.301-10.531 12.55-20.752 16.435-25.639a2.456 2.456 0 0 0-3.844-3.055Z"/><path d="M177.209 54.24c-18.524-4.91-27.273-3.697-44.854-.968" style="fill:#fff"/><path d="M177.838 51.867c-18.94-5.02-27.884-3.811-45.86-1.021a2.457 2.457 0 0 0-2.049 2.803 2.457 2.457 0 0 0 2.803 2.049c17.186-2.668 25.739-3.885 43.848.915a2.456 2.456 0 0 0 3.002-1.744 2.457 2.457 0 0 0-1.744-3.002Z"/><path d="M67.261 184.266c15.578 2.906 29.383 2.86 51.273-.787" style="fill:#fff"/><path d="M66.811 186.679c15.837 2.955 29.873 2.929 52.126-.779a2.454 2.454 0 1 0-.807-4.842c-21.525 3.586-35.1 3.652-50.419.795a2.456 2.456 0 0 0-.9 4.826Z"/><path d="M138.835 139.543c-10.982-10.699-16.088-23.428-27.864-42.236" style="fill:#fff"/><path d="M140.548 137.784c-10.855-10.575-15.856-23.188-27.497-41.78a2.456 2.456 0 0 0-4.161 2.606c11.912 19.025 17.124 31.869 28.232 42.691.97.945 2.526.925 3.471-.045a2.457 2.457 0 0 0-.045-3.472Z"/><path d="M30.24 62.16c11.44-4.8 17.12-5.04 28.56-5.04" style="fill:#fff"/><path d="M31.19 64.424c11.058-4.64 16.552-4.849 27.61-4.849a2.456 2.456 0 0 0 0-4.91c-11.822 0-17.688.271-29.51 5.231a2.457 2.457 0 0 0-1.314 3.214 2.457 2.457 0 0 0 3.214 1.314Z"/><path d="M20.878 146.6c-3.191-3.784-5.867-6.388-8.156-13.517" style="fill:#fff"/><path d="M22.755 145.018c-2.999-3.557-5.544-5.986-7.696-12.686a2.455 2.455 0 0 0-4.674 1.501c2.427 7.559 5.233 10.338 8.616 14.35a2.456 2.456 0 0 0 3.754-3.165Z"/><path d="M66.956 220.24c-3.191-3.784-5.867-6.388-8.156-13.517" style="fill:#fff"/><path d="M68.832 218.658c-2.998-3.557-5.543-5.986-7.695-12.686a2.455 2.455 0 0 0-4.674 1.501c2.427 7.559 5.233 10.338 8.616 14.35a2.455 2.455 0 0 0 3.753-3.165Z"/><path d="M107.52 11.4c-6.582 8.28-7.644 14.88-11.346 23.16" style="fill:#fff"/><path d="M105.598 9.872c-6.738 8.477-7.875 15.209-11.665 23.686a2.456 2.456 0 0 0 4.482 2.004c3.614-8.083 4.601-14.551 11.027-22.634a2.457 2.457 0 0 0-.394-3.45 2.457 2.457 0 0 0-3.45.394Z"/><path d="M191.922 179.226c10.778 1.706 18.583 1.9 30.873-1.507" style="fill:#fff"/><path d="M191.538 181.651c11.141 1.763 19.209 1.955 31.913-1.566a2.456 2.456 0 0 0-1.312-4.732c-11.875 3.292-19.418 3.097-29.833 1.449a2.456 2.456 0 0 0-2.809 2.04 2.457 2.457 0 0 0 2.041 2.809ZM96.795 34.56c9.815 0 36.567 14.478 34.485 19.639-8.284 20.534-20.125 41.1-20.125 41.1-8.421.814-46.238 2.662-46.238 2.662-6.915-7.912-10.439-30.715-5.486-41.362 0 0 27.549-22.039 37.364-22.039Z"/><path d="M96.795 32.105c-3.22 0-8.233 2.042-13.607 5.078-11.614 6.563-25.291 17.499-25.291 17.499a2.45 2.45 0 0 0-.692.881c-2.635 5.663-3.111 14.552-1.912 23.084 1.201 8.556 4.088 16.71 7.776 20.93a2.454 2.454 0 0 0 1.968.836s37.912-1.855 46.354-2.671a2.453 2.453 0 0 0 1.891-1.218s11.929-20.719 20.275-41.407c.403-1 .418-2.168-.112-3.456-.683-1.657-2.569-3.773-5.336-5.92-8.147-6.32-24.109-13.636-31.314-13.636Zm32.1 21.441c-7.079 17.487-16.712 34.933-19.239 39.421-9.183.76-37.329 2.17-43.608 2.481-2.855-3.887-4.922-10.565-5.894-17.484-1.019-7.256-.831-14.819 1.275-19.817 2.448-1.931 14.105-10.999 24.175-16.689 4.455-2.518 8.522-4.443 11.191-4.443 6.537 0 20.913 6.872 28.305 12.606 1.457 1.13 2.631 2.201 3.358 3.175.173.232.353.58.437.75ZM153.44 206.723c-9.815 0-36.566-19.519-34.485-24.679 8.284-20.535 20.125-41.1 20.125-41.1 8.421-.814 46.238-2.663 46.238-2.663 6.915 7.912 10.44 30.716 5.487 41.363 0 0-27.55 27.079-37.365 27.079Z"/><path d="M153.44 209.177c3.257 0 8.364-2.513 13.799-6.287 11.612-8.062 25.286-21.495 25.286-21.495a2.46 2.46 0 0 0 .505-.716c2.635-5.663 3.111-14.551 1.913-23.083-1.202-8.556-4.089-16.71-7.777-20.93a2.458 2.458 0 0 0-1.968-.837s-37.912 1.855-46.354 2.671a2.457 2.457 0 0 0-1.891 1.219s-11.929 20.719-20.274 41.407c-.379.939-.422 2.12.077 3.48.659 1.799 2.496 4.226 5.169 6.81 5.613 5.424 14.968 11.887 22.508 15.277 3.518 1.582 6.691 2.484 9.007 2.484Zm-32.117-26.439c7.083-17.504 16.727-34.971 19.257-39.463 9.183-.76 37.329-2.17 43.607-2.48 2.855 3.887 4.922 10.565 5.894 17.484 1.027 7.313.828 14.937-1.325 19.934-2.113 2.053-14.041 13.509-24.317 20.644-4.394 3.051-8.366 5.411-10.999 5.411-2.476 0-6.115-1.477-10.079-3.564-6.398-3.37-13.504-8.451-18.024-12.819-1.501-1.45-2.707-2.805-3.456-3.982-.25-.393-.48-.963-.558-1.165ZM216.914 57.081c6.685 7.187 13.653 35.522 10.022 36.057-14.45 2.128-18.377-.736-18.377-.736-7.284-19.041-29.274-37.353-29.274-37.353-1.316-8.22 5.897-19.867 13.837-20.489 0 0 17.108 15.335 23.792 22.521Z"/><path d="M218.712 55.409c-6.73-7.235-23.951-22.677-23.951-22.677a2.452 2.452 0 0 0-1.83-.619c-3.767.295-7.454 2.581-10.353 5.963-4.132 4.821-6.607 11.802-5.717 17.361.094.586.397 1.119.853 1.499 0 0 21.458 17.8 28.552 36.343.169.443.463.827.846 1.106 0 0 4.298 3.521 20.181 1.182.881-.13 1.662-.583 2.243-1.478.501-.771.884-2.237.848-4.26-.086-4.83-2.152-13.975-5.017-21.8-1.974-5.393-4.36-10.152-6.655-12.62Zm6.664 35.467c-8.8 1.152-13.42.126-14.911-.328-6.964-17.058-24.955-33.34-28.856-36.738-.314-4.143 1.705-9.047 4.697-12.539 1.738-2.028 3.812-3.611 6.032-4.114 3.526 3.178 17.032 15.418 22.779 21.596 4.459 4.794 8.92 19.507 10.087 28.051.203 1.489.197 3.168.172 4.072ZM29.131 179.741c-2.76-9.291-9.789-32.715-6.288-33.127 13.929-1.644 16.779-2.271 16.779-2.271 7.615 18.732 27.66 39.468 27.66 39.468 1.517 8.033-1.212 21.345-8.883 21.715 0 0-25.427-12.856-29.268-25.785Z"/><path d="M26.778 180.44c1.656 5.573 6.929 11.217 12.785 15.883 8.352 6.653 17.729 11.394 17.729 11.394.379.192.801.282 1.226.261 3.935-.19 6.998-2.855 8.963-6.861 2.514-5.129 3.209-12.484 2.213-17.761a2.46 2.46 0 0 0-.647-1.251s-19.683-20.316-27.15-38.687a2.456 2.456 0 0 0-2.802-1.473s-2.811.611-16.54 2.231c-1.069.126-1.974.692-2.558 1.87-.348.704-.586 1.832-.564 3.316.098 6.644 5.09 23.487 7.345 31.078Zm-2.374-31.541c7.526-.897 11.612-1.478 13.72-1.809 7.446 16.758 23.722 34.525 26.863 37.868.646 4.297.057 9.976-1.915 13.997-.998 2.037-2.318 3.684-4.202 4.049-2.178-1.151-9.558-5.192-16.247-10.521-5.014-3.995-9.721-8.67-11.139-13.441-1.906-6.418-5.89-19.666-6.916-27.179-.145-1.064-.168-2.234-.164-2.964Z"/><path d="M181.738 138.281c10.484-11.882 18.965-23.695 27.06-44.356" style="fill:#fff"/><path d="M183.579 139.905c10.656-12.077 19.276-24.084 27.505-45.085a2.456 2.456 0 0 0-4.571-1.791c-7.963 20.322-16.304 31.941-26.616 43.628a2.456 2.456 0 0 0 .217 3.465 2.456 2.456 0 0 0 3.465-.217Z"/></svg>