<svg viewBox="0 0 246 246" xmlns="http://www.w3.org/2000/svg" xml:space="preserve" style="fill-rule:evenodd;clip-rule:evenodd;stroke-linejoin:round;stroke-miterlimit:2"><path d="M82.833 139.257c8.073-9.033 28.784-33.659 34.836-40.897 11.429-13.667 17.507-22.074 24.157-29.974 5.759-6.844 43.284-40.155 46.373-42.073 5.951-3.696 21.085-18.408 37.081-18.408.252 0 9.171-.379 11.982 3.933 2.239 3.435 2.391 9.794-.612 12.711-5.659 5.497-41.461 24.811-55.039 31.595-32.116 16.047-48.855 36.409-60.648 48.042-12.346 12.179-29.222 31.472-29.096 39.77.076 5.034 4.187 6.7 5.258 12.083 1.115 5.606-2.735 15.621-9.421 24.707-4.114 5.591-10.896 13.89-16.616 20.049-4.03 4.341-31.008 28.314-31.601 27.721-.98-.98 18.335-22.189 23.343-28.366 1.684-2.077 7.059-10.623 8.013-12.898 1.2-2.863 3.456-7.939 2.753-7.939-.39 0-28.565 31.982-31.138 35.074-2.379 2.859-6.608 7.61-8.176 6.041-.161-.161 18.279-26.664 23.638-33.942.305-.415 4.315-6.358 5.829-13.164.119-.536-7.887 8.714-12.156 13.729-4.643 5.452-7.034 9.515-12.362 14.844-2.287 2.287-11.323 12.816-12.131 12.007-.704-.703 10.557-15.516 11.577-17.022 3.026-4.465 8.5-11.307 12.42-19.387.557-1.15 3.745-7.966 3.095-8.617-.754-.754-5.527 3.805-7.818 7.536-4.942 8.048-9.495 14.471-16.378 21.354-2.935 2.936-11.051 14.944-12.01 13.985-2.282-2.283 12.265-22.551 15.32-26.81 8.804-12.274 14.028-17.891 21.391-29.771 3.129-5.048 12.991-15.143 19.265-16.395 8.852-1.766 5.789.276 8.871.482Z" style="fill:#fff"/><path d="M52.91 170.504c-.067.228-.141.461-.218.674-.808 2.227-2.181 5.151-2.527 5.863-3.894 8.027-9.339 14.822-12.345 19.258-.818 1.208-8.207 10.957-10.769 15.169-.625 1.027-.965 1.809-1.007 2.158-.061.495.129.814.324 1.008.222.223.519.365.916.346a1.71 1.71 0 0 0 .661-.182c.292-.142.696-.421 1.174-.822 2.816-2.368 9.004-9.509 10.844-11.349 5.351-5.351 7.756-9.429 12.418-14.905 2.562-3.009 6.475-7.554 9.148-10.564-1.752 4.756-4.21 8.397-4.443 8.714-4.83 6.56-20.271 28.715-23.193 33.198-.385.59-.576.964-.601 1.045a.97.97 0 0 0 .258 1.045c.757.757 1.899.824 3.231.107 2.019-1.086 4.731-4.124 6.473-6.218 2.08-2.499 20.905-23.894 28.216-31.963-.533 1.308-1.133 2.694-1.582 3.766-.935 2.231-6.211 10.609-7.862 12.646-4.011 4.947-17.188 19.526-21.796 25.662-1.052 1.401-1.667 2.445-1.774 2.91-.134.578.076.955.299 1.178.188.188.511.402 1.029.284.184-.042.622-.254 1.229-.691 4.863-3.508 27.188-23.415 30.834-27.341 5.746-6.187 12.558-14.524 16.691-20.14 4.088-5.556 7.13-11.456 8.669-16.518 1.065-3.506 1.406-6.631.934-9.005-.568-2.853-1.921-4.731-3.162-6.553-1.062-1.558-2.042-3.063-2.077-5.344-.036-2.356 1.433-5.625 3.743-9.391 5.66-9.226 16.458-21.155 25.045-29.626 11.744-11.584 28.403-31.873 60.384-47.853 13.645-6.817 49.611-26.254 55.297-31.778 1.356-1.317 2.168-3.244 2.462-5.344.425-3.041-.24-6.43-1.703-8.675-1.259-1.931-3.581-3.071-5.969-3.685-3.325-.854-6.724-.719-6.881-.719-8.193 0-16.176 3.738-22.862 7.979-6.523 4.138-11.791 8.738-14.765 10.585-3.105 1.928-40.83 35.407-46.62 42.286-6.65 7.901-12.728 16.308-24.158 29.977-5.959 7.126-26.139 31.122-34.449 40.462-.49-.113-.647-.329-.887-.504-.43-.315-.98-.624-2.336-.628-1.038-.004-2.685.183-5.444.734-2.636.526-5.893 2.506-9.042 5.07-4.594 3.742-8.982 8.7-10.9 11.795-7.349 11.857-12.565 17.462-21.353 29.712-2.465 3.437-12.337 17.216-15.013 23.766-.546 1.337-.792 2.426-.732 3.138.046.545.247.954.535 1.242.3.3.715.462 1.27.299.341-.099.892-.462 1.532-1.105 2.662-2.677 8.325-10.831 10.672-13.178 6.946-6.946 11.542-13.424 16.529-21.545.659-1.075 1.535-2.22 2.455-3.278 1.116-1.284 2.283-2.456 3.198-3.172Zm-9.075 53.419c5.617-6.931 16.268-18.766 19.799-23.121 1.717-2.117 7.192-10.831 8.164-13.15.986-2.354 2.652-6.171 2.915-7.601.24-1.302-.59-1.773-1.117-1.773-.11 0-.332.006-.599.186-.1.068-.477.423-1.054 1.04-4.878 5.216-27.962 31.434-30.281 34.221-1.38 1.658-3.395 3.981-5.121 5.242-.06.044-.12.087-.18.128 4.167-6.212 17.895-25.886 22.393-31.995.314-.427 4.447-6.545 6.005-13.553.033-.148.03-.27.019-.365a1.009 1.009 0 0 0-.333-.644 1.01 1.01 0 0 0-.651-.272c-.1-.006-.501.005-.944.414-1.257 1.161-8.177 9.155-12.046 13.699-4.622 5.43-7 9.478-12.306 14.784-1.275 1.275-4.647 5.112-7.524 8.118 3.212-4.646 7.919-10.873 8.56-11.82 3.045-4.494 8.549-11.384 12.494-19.516.459-.945 2.638-5.621 3.153-7.795.128-.542.154-.978.11-1.255a1.327 1.327 0 0 0-.367-.751c-.356-.355-1.114-.575-2.104-.045-1.77.949-5.398 4.627-7.328 7.771-4.898 7.976-9.407 14.343-16.228 21.164-2.065 2.066-6.687 8.596-9.602 12-.19.222-.395.444-.595.652.316-.946.865-2.122 1.561-3.446 3.665-6.97 11.393-17.732 13.519-20.696 8.821-12.296 14.054-17.925 21.43-29.828 1.836-2.963 6.05-7.698 10.448-11.28 2.846-2.319 5.756-4.17 8.139-4.645 2.39-.477 3.879-.672 4.849-.693 1.061-.022 1.278.209 1.579.445.417.327.913.663 2.172.747.318.021.629-.105.841-.343 8.078-9.039 28.802-33.68 34.859-40.923 11.428-13.666 17.505-22.072 24.154-29.972 5.73-6.808 43.054-39.952 46.127-41.86 2.977-1.848 8.252-6.452 14.782-10.595 6.368-4.039 13.95-7.657 21.753-7.657.146 0 3.29-.137 6.365.654 1.879.483 3.76 1.291 4.75 2.81 1.223 1.876 1.742 4.715 1.387 7.257-.227 1.621-.807 3.129-1.854 4.146-5.63 5.469-41.27 24.66-54.78 31.411-32.251 16.114-49.07 36.549-60.912 48.231-8.698 8.58-19.623 20.672-25.356 30.017-2.572 4.194-4.088 7.882-4.049 10.505.042 2.754 1.155 4.599 2.436 6.479 1.101 1.615 2.339 3.262 2.842 5.791.42 2.111.063 4.882-.884 7.999-1.481 4.872-4.42 10.545-8.355 15.892-4.095 5.566-10.847 13.827-16.54 19.959-2.964 3.191-18.383 17.035-26.495 23.832Z"/></svg>