<svg viewBox="0 0 492 492" xmlns="http://www.w3.org/2000/svg" xml:space="preserve" style="fill-rule:evenodd;clip-rule:evenodd;stroke-linejoin:round;stroke-miterlimit:2"><path d="M345.138 580.237c33.637-37.637 119.933-140.246 145.151-170.404 47.62-56.947 72.945-91.973 100.651-124.893 23.999-28.515 180.352-167.312 193.222-175.304 24.798-15.398 87.854-76.7 154.505-76.7 1.052 0 38.214-1.576 49.926 16.391 9.329 14.312 9.96 40.808-2.553 52.963-23.576 22.901-172.754 103.377-229.327 131.644-133.817 66.863-203.563 151.704-252.7 200.174-51.443 50.746-121.758 131.132-121.235 165.707.317 20.976 17.448 27.919 21.909 50.349 4.645 23.355-11.396 65.087-39.253 102.944-17.142 23.296-45.401 57.876-69.232 83.538C279.407 854.732 167 954.62 164.529 952.148c-4.083-4.083 76.395-92.454 97.262-118.188 7.018-8.655 29.414-44.265 33.386-53.743 5-11.93 14.403-33.079 11.473-33.079-1.623 0-119.02 133.257-129.741 146.141-9.914 11.915-27.533 31.707-34.067 25.172-.672-.672 76.163-111.1 98.491-141.427 1.272-1.728 17.98-26.489 24.287-54.849.496-2.234-32.861 36.307-50.65 57.202-19.343 22.72-29.307 39.65-51.509 61.852-9.528 9.529-47.177 53.398-50.545 50.03-2.931-2.931 43.989-64.653 48.239-70.926 12.606-18.606 35.416-47.114 51.747-80.777 2.325-4.792 15.608-33.194 12.896-35.906-3.14-3.141-23.025 15.853-32.572 31.401-20.593 33.534-39.562 60.294-68.243 88.976-12.229 12.23-46.047 62.263-50.04 58.269-9.511-9.511 51.101-93.964 63.831-111.71 36.684-51.139 58.453-74.542 89.129-124.043 13.037-21.037 54.13-63.096 80.27-68.313 36.885-7.361 24.123 1.149 36.965 2.007Z" style="fill:#fff" transform="scale(.48)"/><path d="M105.82 341.009c-.134.455-.282.92-.436 1.347-1.617 4.454-4.363 10.302-5.054 11.727-7.789 16.054-18.678 29.642-24.69 38.515-1.636 2.416-16.413 21.915-21.538 30.338-1.25 2.055-1.93 3.617-2.015 4.317-.12.99.259 1.627.648 2.016.445.444 1.039.729 1.832.692.35-.016.803-.114 1.323-.365.584-.283 1.392-.84 2.347-1.644 5.633-4.736 18.01-19.018 21.689-22.698 10.702-10.702 15.512-18.858 24.836-29.81 5.123-6.018 12.95-15.108 18.295-21.128-3.503 9.512-8.419 16.794-8.885 17.428-9.66 13.12-40.542 57.43-46.387 66.396-.769 1.179-1.152 1.927-1.2 2.09-.353 1.157.242 1.818.515 2.091 1.514 1.514 3.798 1.646 6.461.214 4.039-2.173 9.464-8.25 12.947-12.436 4.16-4.999 41.81-47.789 56.433-63.928-1.068 2.617-2.267 5.388-3.166 7.533-1.87 4.461-12.42 21.218-15.724 25.292-8.022 9.893-34.375 39.053-43.592 51.325-2.104 2.8-3.333 4.889-3.548 5.818-.267 1.157.152 1.91.598 2.357.378.377 1.023.804 2.06.567.367-.084 1.244-.507 2.457-1.382 9.726-7.015 54.377-46.83 61.669-54.682 11.49-12.373 25.116-29.047 33.381-40.28 8.177-11.11 14.26-22.91 17.337-33.035 2.132-7.013 2.812-13.261 1.868-18.009-1.135-5.707-3.84-9.464-6.324-13.108-2.122-3.115-4.084-6.126-4.153-10.687-.071-4.711 2.867-11.25 7.487-18.781 11.32-18.453 32.915-42.311 50.09-59.253 23.487-23.168 56.804-63.746 120.767-95.705 27.29-13.636 99.221-52.509 110.595-63.557 2.711-2.634 4.336-6.488 4.923-10.689.852-6.082-.48-12.859-3.407-17.35-2.517-3.86-7.161-6.141-11.938-7.369-6.65-1.71-13.446-1.437-13.76-1.437-16.388 0-32.353 7.476-45.725 15.958-13.047 8.275-23.583 17.475-29.53 21.17-6.21 3.855-81.66 70.813-93.24 84.57-13.3 15.804-25.457 32.618-48.316 59.954-11.919 14.254-52.279 62.245-68.898 80.925-.98-.226-1.294-.659-1.773-1.009-.86-.628-1.961-1.247-4.674-1.255-2.075-.007-5.368.366-10.887 1.468-5.272 1.052-11.787 5.011-18.084 10.14-9.187 7.485-17.965 17.399-21.8 23.59-14.697 23.715-25.13 34.924-42.705 59.424-4.93 6.874-24.675 34.432-30.027 47.533-1.092 2.674-1.584 4.852-1.464 6.274.093 1.092.493 1.909 1.07 2.486.6.6 1.43.922 2.54.598.681-.2 1.784-.925 3.064-2.212 5.323-5.353 16.649-21.66 21.344-26.356 13.891-13.89 23.084-26.847 33.057-43.09 1.32-2.148 3.071-4.439 4.911-6.555 2.233-2.568 4.567-4.911 6.396-6.343ZM87.67 447.846c11.234-13.863 32.536-37.532 39.599-46.241 3.433-4.235 14.382-21.663 16.326-26.3 1.974-4.71 5.305-12.342 5.831-15.202.48-2.606-1.18-3.548-2.234-3.548-.22 0-.665.014-1.198.373-.2.135-.953.845-2.109 2.08-9.756 10.432-55.923 62.868-60.56 68.442-2.76 3.316-6.791 7.963-10.242 10.483-.121.089-.241.174-.36.256 8.332-12.424 35.789-51.77 44.785-63.99.628-.854 8.894-13.088 12.01-27.105.067-.296.06-.54.037-.73a2.02 2.02 0 0 0-.664-1.289c-.329-.3-.75-.516-1.304-.544-.2-.01-1 .01-1.887.829-2.514 2.321-16.354 18.31-24.092 27.398-9.244 10.86-14 18.956-24.611 29.567-2.55 2.55-9.296 10.224-15.048 16.237 6.423-9.292 15.836-21.746 17.12-23.64 6.09-8.989 17.098-22.768 24.987-39.031.918-1.891 5.276-11.243 6.306-15.59.256-1.085.308-1.958.22-2.51-.108-.688-.403-1.172-.734-1.503-.71-.71-2.227-1.15-4.208-.09-3.54 1.898-10.795 9.255-14.656 15.543-9.796 15.951-18.814 28.684-32.457 42.327-4.13 4.131-13.373 17.193-19.203 24.001-.38.443-.79.887-1.19 1.303.632-1.892 1.73-4.244 3.122-6.892 7.33-13.94 22.786-35.463 27.038-41.392 17.642-24.593 28.107-35.85 42.86-59.656 3.673-5.927 12.1-15.395 20.896-22.56 5.693-4.637 11.512-8.34 16.278-9.29 4.78-.954 7.757-1.344 9.699-1.385 2.12-.045 2.555.418 3.157.89.834.653 1.827 1.325 4.344 1.493a2.07 2.07 0 0 0 1.682-.686c16.157-18.078 57.605-67.36 69.718-81.846 22.855-27.332 35.01-44.143 48.308-59.943 11.46-13.617 86.109-79.904 92.254-83.72 5.955-3.698 16.504-12.906 29.565-21.19 12.735-8.079 27.899-15.315 43.505-15.315.291 0 6.58-.273 12.73 1.308 3.758.965 7.52 2.582 9.5 5.62 2.446 3.753 3.484 9.43 2.774 14.514-.453 3.242-1.614 6.258-3.708 8.292-11.26 10.938-82.54 49.321-109.56 62.822-64.501 32.229-98.14 73.098-121.824 96.461-17.396 17.16-39.246 41.346-50.712 60.036-5.145 8.387-8.176 15.763-8.097 21.01.083 5.506 2.309 9.196 4.871 12.957 2.202 3.23 4.678 6.523 5.685 11.583.839 4.22.126 9.763-1.769 15.996-2.962 9.746-8.84 21.09-16.71 31.785-8.19 11.132-21.693 27.655-33.08 39.917-5.928 6.383-36.766 34.072-52.99 47.665Z"/></svg>