<?xml version="1.0" encoding="UTF-8" standalone="no"?>
<!DOCTYPE svg PUBLIC "-//W3C//DTD SVG 1.1//EN" "http://www.w3.org/Graphics/SVG/1.1/DTD/svg11.dtd">
<svg width="100%" height="100%" viewBox="0 0 492 492" version="1.1" xmlns="http://www.w3.org/2000/svg" xmlns:xlink="http://www.w3.org/1999/xlink" xml:space="preserve" xmlns:serif="http://www.serif.com/" style="fill-rule:evenodd;clip-rule:evenodd;stroke-linejoin:round;stroke-miterlimit:2;">
    <g transform="matrix(0.48,0,0,0.48,0,0)">
        <path d="M345.138,580.237C378.775,542.6 465.071,439.991 490.289,409.833C537.909,352.886 563.234,317.86 590.94,284.94C614.939,256.425 771.292,117.628 784.162,109.636C808.96,94.238 872.016,32.936 938.667,32.936C939.719,32.936 976.881,31.36 988.593,49.327C997.922,63.639 998.553,90.135 986.04,102.29C962.464,125.191 813.286,205.667 756.713,233.934C622.896,300.797 553.15,385.638 504.013,434.108C452.57,484.854 382.255,565.24 382.778,599.815C383.095,620.791 400.226,627.734 404.687,650.164C409.332,673.519 393.291,715.251 365.434,753.108C348.292,776.404 320.033,810.984 296.202,836.646C279.407,854.732 167,954.62 164.529,952.148C160.446,948.065 240.924,859.694 261.791,833.96C268.809,825.305 291.205,789.695 295.177,780.217C300.177,768.287 309.58,747.138 306.65,747.138C305.027,747.138 187.63,880.395 176.909,893.279C166.995,905.194 149.376,924.986 142.842,918.451C142.17,917.779 219.005,807.351 241.333,777.024C242.605,775.296 259.313,750.535 265.62,722.175C266.116,719.941 232.759,758.482 214.97,779.377C195.627,802.097 185.663,819.027 163.461,841.229C153.933,850.758 116.284,894.627 112.916,891.259C109.985,888.328 156.905,826.606 161.155,820.333C173.761,801.727 196.571,773.219 212.902,739.556C215.227,734.764 228.51,706.362 225.798,703.65C222.658,700.509 202.773,719.503 193.226,735.051C172.633,768.585 153.664,795.345 124.983,824.027C112.754,836.257 78.936,886.29 74.943,882.296C65.432,872.785 126.044,788.332 138.774,770.586C175.458,719.447 197.227,696.044 227.903,646.543C240.94,625.506 282.033,583.447 308.173,578.23C345.058,570.869 332.296,579.379 345.138,580.237Z" style="fill:white;"/>
        <path d="M220.458,710.435C220.179,711.384 219.871,712.353 219.549,713.242C216.182,722.52 210.461,734.704 209.021,737.672C192.794,771.119 170.108,799.427 157.583,817.913C154.174,822.945 123.389,863.568 112.713,881.117C110.109,885.398 108.693,888.652 108.515,890.11C108.263,892.172 109.054,893.499 109.865,894.31C110.791,895.236 112.029,895.829 113.682,895.752C114.412,895.718 115.354,895.515 116.438,894.991C117.654,894.402 119.338,893.24 121.328,891.566C133.062,881.699 158.846,851.946 166.512,844.28C188.809,821.983 198.829,804.992 218.255,782.174C228.927,769.638 245.234,750.7 256.369,738.159C249.071,757.976 238.83,773.146 237.859,774.466C217.734,801.801 153.395,894.112 141.219,912.791C139.617,915.248 138.819,916.806 138.717,917.144C137.983,919.557 139.222,920.933 139.791,921.502C142.945,924.656 147.705,924.931 153.252,921.947C161.666,917.421 172.968,904.761 180.226,896.039C188.891,885.626 267.329,796.48 297.793,762.857C295.569,768.309 293.07,774.082 291.198,778.549C287.302,787.844 265.322,822.755 258.44,831.242C241.727,851.853 186.825,912.602 167.623,938.168C163.24,944.004 160.68,948.354 160.232,950.29C159.674,952.701 160.548,954.27 161.478,955.199C162.264,955.985 163.609,956.874 165.767,956.381C166.533,956.207 168.36,955.325 170.887,953.502C191.15,938.887 284.173,855.941 299.364,839.582C323.303,813.804 351.69,779.066 368.909,755.665C385.943,732.517 398.617,707.935 405.028,686.842C409.468,672.232 410.886,659.214 408.919,649.323C406.554,637.433 400.917,629.607 395.744,622.015C391.322,615.526 387.235,609.253 387.092,599.75C386.943,589.935 393.064,576.312 402.689,560.622C426.271,522.18 471.263,472.474 507.043,437.179C555.974,388.913 625.386,304.376 758.641,237.794C815.496,209.386 965.353,128.4 989.047,105.384C994.696,99.896 998.081,91.867 999.304,83.115C1001.08,70.444 998.306,56.326 992.207,46.97C986.963,38.926 977.287,34.174 967.336,31.617C953.483,28.056 939.323,28.622 938.667,28.622C904.528,28.622 871.267,44.197 843.409,61.868C816.228,79.109 794.278,98.276 781.886,105.971C768.949,114.004 611.763,253.499 587.639,282.162C559.931,315.085 534.603,350.114 486.98,407.065C462.148,436.76 378.065,536.742 343.441,575.658L343.441,575.658C341.401,575.187 340.745,574.286 339.748,573.557C337.955,572.247 335.662,570.959 330.011,570.941C325.687,570.927 318.827,571.704 307.329,573.999C296.345,576.191 282.773,584.44 269.655,595.126C250.514,610.718 232.228,631.373 224.236,644.271C193.618,693.677 171.882,717.03 135.269,768.071C124.996,782.391 83.863,839.805 72.713,867.098C70.437,872.668 69.413,877.206 69.663,880.169C69.856,882.443 70.69,884.145 71.892,885.347C73.142,886.598 74.869,887.269 77.183,886.593C78.603,886.178 80.9,884.667 83.566,881.986C94.657,870.833 118.252,836.86 128.034,827.078C156.973,798.138 176.124,771.145 196.902,737.308C199.652,732.831 203.3,728.059 207.134,723.649C211.785,718.299 216.647,713.418 220.458,710.435ZM182.645,933.012C206.049,904.132 250.43,854.821 265.143,836.677C272.296,827.855 295.107,791.546 299.156,781.885C303.268,772.074 310.208,756.172 311.305,750.214C312.304,744.786 308.845,742.823 306.65,742.823C306.19,742.823 305.265,742.852 304.155,743.6C303.737,743.882 302.169,745.361 299.761,747.935C279.436,769.667 183.254,878.909 173.593,890.52C167.843,897.429 159.445,907.11 152.256,912.361C152.004,912.545 151.754,912.723 151.505,912.894C168.865,887.011 226.066,805.038 244.808,779.582C246.117,777.803 263.337,752.314 269.831,723.112C269.968,722.495 269.955,721.986 269.907,721.593C269.755,720.361 269.19,719.517 268.522,718.907C267.838,718.282 266.961,717.832 265.807,717.773C265.391,717.752 263.722,717.795 261.875,719.5C256.638,724.336 227.804,757.646 211.684,776.58C192.424,799.203 182.517,816.071 160.41,838.178C155.097,843.491 141.044,859.477 129.06,872.004C142.442,852.646 162.053,826.7 164.727,822.753C177.414,804.027 200.347,775.32 216.784,741.439C218.695,737.5 227.776,718.016 229.92,708.959C230.455,706.7 230.563,704.882 230.381,703.73C230.154,702.298 229.54,701.29 228.849,700.599C227.369,699.119 224.21,698.203 220.084,700.414C212.707,704.366 197.593,719.693 189.549,732.793C169.142,766.025 150.354,792.553 121.932,820.976C113.327,829.582 94.07,856.793 81.924,870.977C81.132,871.901 80.279,872.825 79.444,873.691C80.762,869.75 83.049,864.849 85.949,859.334C101.22,830.293 133.42,785.452 142.28,773.101C179.034,721.865 200.836,698.411 231.57,648.816C239.222,636.469 256.781,616.743 275.105,601.816C286.964,592.156 299.088,584.443 309.017,582.461C318.976,580.474 325.178,579.663 329.223,579.577C333.641,579.483 334.546,580.448 335.8,581.43C337.537,582.791 339.606,584.192 344.85,584.542C346.177,584.631 347.469,584.103 348.355,583.112C382.014,545.451 468.365,442.778 493.599,412.6C541.215,355.659 566.538,320.635 594.241,287.718C618.115,259.351 773.635,121.252 786.438,113.302C798.844,105.598 820.821,86.415 848.031,69.155C874.562,52.326 906.154,37.251 938.667,37.251C939.273,37.251 952.375,36.681 965.188,39.974C973.016,41.986 980.853,45.354 984.978,51.683C990.075,59.502 992.238,71.331 990.758,81.921C989.814,88.675 987.395,94.959 983.034,99.195C959.575,121.983 811.076,201.948 754.784,230.075C620.406,297.218 550.326,382.363 500.984,431.036C464.742,466.786 419.22,517.172 395.334,556.11C384.615,573.583 378.299,588.95 378.464,599.88C378.637,611.353 383.275,619.04 388.613,626.874C393.2,633.605 398.359,640.465 400.456,651.006C402.204,659.798 400.719,671.345 396.771,684.332C390.601,704.635 378.354,728.27 361.959,750.551C344.895,773.741 316.764,808.164 293.04,833.711C280.691,847.009 216.445,904.693 182.645,933.012Z"/>
    </g>
</svg>
