<?xml version="1.0" encoding="UTF-8" standalone="no"?>
<!DOCTYPE svg PUBLIC "-//W3C//DTD SVG 1.1//EN" "http://www.w3.org/Graphics/SVG/1.1/DTD/svg11.dtd">
<svg width="100%" height="100%" viewBox="0 0 492 492" version="1.1" xmlns="http://www.w3.org/2000/svg" xmlns:xlink="http://www.w3.org/1999/xlink" xml:space="preserve" xmlns:serif="http://www.serif.com/" style="fill-rule:evenodd;clip-rule:evenodd;stroke-linejoin:round;stroke-miterlimit:2;">
    <g transform="matrix(0.48,0,0,0.48,0,0)">
        <g>
            <path d="M155.082,605.765C158.7,605.765 146.291,604.67 143.078,607.884C137.057,613.904 127.159,617.447 121.188,623.418C100.049,644.557 91.532,663.517 91.532,701.796C91.532,706.483 90.949,730.164 92.944,732.159C97.544,736.76 96.745,751.766 100.005,758.285C107.931,774.137 114.479,794.295 123.307,811.95C145.259,855.852 187.87,902.839 230.636,924.221C240.745,929.276 251.843,934.472 262.411,939.756C268.968,943.035 278.599,940.789 285.006,943.993C289.127,946.053 305.112,947.189 308.308,943.993C310.266,942.035 312.968,941.733 314.663,938.344C314.768,938.133 314.663,937.873 314.663,937.638C314.663,933.102 297.451,897.83 294.186,894.565C289.615,889.994 290.397,878.772 285.712,874.088C279.255,867.63 256.903,817.881 250.407,804.889C248.077,800.228 245.801,791.809 241.933,787.942C237.568,783.576 237.531,772.948 233.46,768.877C226.912,762.328 223.31,729.071 215.807,721.568C205.81,711.569 204.602,685.648 195.33,676.376C192.074,673.12 193.732,664.186 190.387,660.842C178.498,648.953 172.318,606.471 156.494,606.471" style="fill:white;"/>
            <path d="M320.968,937.068C320.704,934.974 319.185,930.189 316.682,924.422C311.075,911.506 301.109,892.508 298.676,890.075C297.959,889.358 297.646,888.253 297.28,887.096C296.611,884.982 296.131,882.633 295.546,880.395C294.419,876.089 292.788,872.183 290.203,869.597C288.473,867.868 285.617,862.572 282.099,855.816C272.919,838.187 260.626,811.127 256.086,802.049C253.509,796.894 250.701,787.73 246.424,783.452C245.709,782.737 245.331,781.649 244.919,780.508C244.201,778.524 243.647,776.331 243.026,774.263C241.816,770.234 240.208,766.644 237.95,764.387C237.102,763.538 236.511,761.905 235.78,759.944C234.148,755.569 232.668,749.783 231.132,743.961C229.469,737.659 227.745,731.318 225.8,726.404C224.17,722.284 222.266,719.046 220.298,717.078C215.906,712.685 213.752,704.657 211.37,696.847C208.362,686.981 205.124,677.363 200.026,672.1C199.947,671.84 199.634,670.773 199.521,670.111C199.286,668.73 199.128,667.258 198.91,665.847C198.309,661.96 197.04,658.514 194.877,656.352C191.996,653.47 189.649,648.427 187.251,642.781C182.978,632.724 178.913,620.852 173.982,612.686C169.843,605.831 164.806,601.466 159.233,600.388C158.491,599.911 157.537,599.528 156.315,599.376C155.065,599.22 149.502,599.039 145.174,600.059C142.38,600.719 140.042,601.94 138.588,603.393C135.924,606.057 132.363,608.115 128.847,610.225C124.414,612.885 120.029,615.597 116.698,618.928C94.334,641.292 85.182,661.298 85.182,701.796C85.182,705.651 84.83,722.007 85.727,729.445C86.194,733.324 87.598,735.794 88.454,736.649C88.97,737.166 89.149,738.06 89.429,739.028C89.982,740.943 90.352,743.175 90.7,745.458C91.592,751.317 92.468,757.41 94.326,761.125C102.251,776.976 108.799,797.135 117.627,814.79C140.147,859.827 183.925,907.966 227.796,929.901C237.905,934.956 249.003,940.151 259.571,945.436C263.567,947.434 268.463,947.937 273.373,948.24C276.512,948.434 279.67,948.424 282.166,949.672C285.628,951.403 296.036,952.866 303.304,952.107C307.742,951.644 311.158,950.123 312.798,948.483C313.461,947.82 314.304,947.516 315.071,947.012C317.023,945.73 318.881,944.106 320.343,941.184C320.911,940.047 320.964,937.614 320.968,937.068ZM153.548,612.095L147.22,612.712C143.912,615.916 139.663,618.545 135.382,621.114C131.868,623.223 128.319,625.268 125.679,627.908C105.765,647.821 97.882,665.736 97.882,701.796C97.882,705.488 98.473,725.957 98.562,729.003C100.502,731.677 101.891,735.721 102.726,740.333C103.691,745.657 103.932,751.94 105.685,755.445C113.61,771.297 120.158,791.455 128.986,809.11C150.371,851.877 191.816,897.712 233.476,918.542C243.585,923.596 254.682,928.792 265.251,934.076C268.498,935.7 272.698,935.432 276.649,935.729C280.705,936.034 284.589,936.684 287.846,938.313C289.811,939.296 295.204,939.751 299.727,939.619C301.397,939.571 303.717,939.14 304.33,939.02C305.131,938.298 305.988,937.703 306.881,937.151C307.173,936.97 307.503,936.832 307.824,936.653C307.219,934.952 306.158,932.073 305.032,929.479C301.423,921.165 295.967,910.049 292.249,903.36C291.099,901.291 289.645,899.048 289.546,898.897C287.098,896.365 285.529,892.553 284.432,888.327C283.856,886.107 283.376,883.768 282.698,881.651C282.317,880.464 281.972,879.328 281.222,878.578C279.077,876.432 275.199,870.063 270.834,861.681C261.623,843.99 249.282,816.839 244.727,807.729C243.513,805.301 242.3,801.899 240.9,798.596C239.899,796.234 238.884,793.872 237.443,792.432C235.052,790.041 233.392,786.387 232.165,782.375C231.518,780.26 230.962,778.045 230.268,776.067C229.897,775.007 229.6,773.997 228.97,773.367C227.553,771.95 226.125,769.732 224.866,766.837C222.729,761.922 220.803,754.597 218.852,747.2C217.326,741.417 215.776,735.587 213.991,731.077C213.135,728.913 212.351,727.091 211.317,726.058C205.71,720.45 202.263,710.521 199.223,700.552C196.85,692.772 194.897,684.924 190.84,680.867C188.722,678.748 187.462,675.319 186.869,671.419C186.657,670.025 186.5,668.564 186.261,667.19C186.142,666.504 185.799,665.38 185.729,665.157C182.503,661.861 179.536,656.685 176.808,650.605C173.213,642.592 169.884,632.893 166.098,624.905C164.277,621.062 162.389,617.643 160.221,615.217C159.058,613.917 157.956,612.821 156.494,612.821C155.431,612.821 154.428,612.559 153.548,612.095ZM320.968,937.068L320.995,937.284L321.013,937.638C321.013,937.533 321.007,937.415 320.995,937.284C320.984,937.112 320.969,936.958 320.969,936.958L320.968,937.068Z"/>
            <g transform="matrix(-0.99945,0.0331743,0.0331743,0.99945,1031.26,-13.2057)">
                <path d="M155.082,605.765C158.7,605.765 146.291,604.67 143.078,607.884C137.057,613.904 127.159,617.447 121.188,623.418C100.049,644.557 91.532,663.517 91.532,701.796C91.532,706.483 90.949,730.164 92.944,732.159C97.544,736.76 96.745,751.766 100.005,758.285C107.931,774.137 114.479,794.295 123.307,811.95C145.259,855.852 187.87,902.839 230.636,924.221C240.745,929.276 251.843,934.472 262.411,939.756C268.968,943.035 278.599,940.789 285.006,943.993C289.127,946.053 305.112,947.189 308.308,943.993C310.266,942.035 312.968,941.733 314.663,938.344C314.768,938.133 314.663,937.873 314.663,937.638C314.663,933.102 297.451,897.83 294.186,894.565C289.615,889.994 290.397,878.772 285.712,874.088C279.255,867.63 256.903,817.881 250.407,804.889C248.077,800.228 245.801,791.809 241.933,787.942C237.568,783.576 237.531,772.948 233.46,768.877C226.912,762.328 223.31,729.071 215.807,721.568C205.81,711.569 204.602,685.648 195.33,676.376C192.074,673.12 193.732,664.186 190.387,660.842C178.498,648.953 172.318,606.471 156.494,606.471" style="fill:white;"/>
                <path d="M159.233,600.388C164.806,601.466 169.843,605.831 173.982,612.686C178.913,620.852 182.978,632.724 187.251,642.781C189.649,648.427 191.996,653.47 194.877,656.352C197.04,658.514 198.309,661.96 198.91,665.847C199.128,667.258 199.286,668.73 199.521,670.111C199.634,670.773 199.947,671.84 200.026,672.1C205.124,677.363 208.362,686.981 211.37,696.847C213.752,704.657 215.906,712.685 220.298,717.078C222.266,719.046 224.17,722.284 225.8,726.404C227.745,731.318 229.469,737.659 231.132,743.961C232.668,749.783 234.148,755.569 235.78,759.944C236.511,761.905 237.102,763.538 237.95,764.387C240.208,766.644 241.816,770.234 243.026,774.263C243.647,776.331 244.201,778.524 244.919,780.508C245.331,781.649 245.709,782.737 246.424,783.452C250.701,787.73 253.509,796.894 256.086,802.049C260.626,811.127 272.919,838.187 282.099,855.816C285.617,862.572 288.473,867.868 290.203,869.597C292.788,872.183 294.419,876.089 295.546,880.395C296.131,882.633 296.611,884.982 297.28,887.096C297.646,888.253 297.959,889.358 298.676,890.075C301.109,892.508 311.075,911.506 316.682,924.422C319.185,930.189 320.704,934.974 320.968,937.068C320.964,937.614 320.911,940.047 320.343,941.184C318.881,944.106 317.023,945.73 315.071,947.012C314.304,947.516 313.461,947.82 312.798,948.483C311.158,950.123 307.742,951.644 303.304,952.107C296.036,952.866 285.628,951.403 282.166,949.672C279.67,948.424 276.512,948.434 273.373,948.24C268.463,947.937 263.567,947.434 259.571,945.436C249.003,940.151 237.905,934.956 227.796,929.901C183.925,907.966 140.147,859.827 117.627,814.79C108.799,797.135 102.251,776.976 94.326,761.125C92.468,757.41 91.592,751.317 90.7,745.458C90.352,743.175 89.982,740.943 89.429,739.028C89.149,738.06 88.97,737.166 88.454,736.649C87.598,735.794 86.194,733.324 85.727,729.445C84.83,722.007 85.182,705.651 85.182,701.796C85.182,661.298 94.334,641.292 116.698,618.928C120.029,615.597 124.414,612.885 128.847,610.225C132.363,608.115 135.924,606.057 138.588,603.393C140.042,601.94 142.38,600.719 145.174,600.059C149.502,599.039 155.065,599.22 156.315,599.376C157.537,599.528 158.491,599.911 159.233,600.388ZM153.548,612.095C154.428,612.559 155.431,612.821 156.494,612.821C157.956,612.821 159.058,613.917 160.221,615.217C162.389,617.643 164.277,621.062 166.098,624.905C169.884,632.893 173.213,642.592 176.808,650.605C179.536,656.685 182.503,661.861 185.729,665.157C185.799,665.38 186.142,666.504 186.261,667.19C186.5,668.564 186.657,670.025 186.869,671.419C187.462,675.319 188.722,678.748 190.84,680.867C194.897,684.924 196.85,692.772 199.223,700.552C202.263,710.521 205.71,720.45 211.317,726.058C212.351,727.091 213.135,728.913 213.991,731.077C215.776,735.587 217.326,741.417 218.852,747.2C220.803,754.597 222.729,761.922 224.866,766.837C226.125,769.732 227.553,771.95 228.97,773.367C229.6,773.997 229.897,775.007 230.268,776.067C230.962,778.045 231.518,780.26 232.165,782.375C233.392,786.387 235.052,790.041 237.443,792.432C238.884,793.872 239.899,796.234 240.9,798.596C242.3,801.899 243.513,805.301 244.727,807.729C249.282,816.839 261.623,843.99 270.834,861.681C275.199,870.063 279.077,876.432 281.222,878.578C281.972,879.328 282.317,880.464 282.698,881.651C283.376,883.768 283.856,886.107 284.432,888.327C285.529,892.553 287.098,896.365 289.546,898.897C289.645,899.048 291.099,901.291 292.249,903.36C295.967,910.049 301.423,921.165 305.032,929.479C306.158,932.073 307.219,934.952 307.824,936.653C307.503,936.832 307.173,936.97 306.881,937.151C305.988,937.703 305.131,938.298 304.33,939.02C303.717,939.14 301.397,939.571 299.727,939.619C295.204,939.751 289.811,939.296 287.846,938.313C284.589,936.684 280.705,936.034 276.649,935.729C272.698,935.432 268.498,935.7 265.251,934.076C254.682,928.792 243.585,923.596 233.476,918.542C191.816,897.712 150.371,851.877 128.986,809.11C120.158,791.455 113.61,771.297 105.685,755.445C103.932,751.94 103.691,745.657 102.726,740.333C101.891,735.721 100.502,731.677 98.562,729.003C98.473,725.957 97.882,705.488 97.882,701.796C97.882,665.736 105.765,647.821 125.679,627.908C128.319,625.268 131.868,623.223 135.382,621.114C139.663,618.545 143.912,615.916 147.22,612.712L153.548,612.095ZM320.968,937.068L320.969,936.958C320.969,936.958 320.984,937.112 320.995,937.284C321.007,937.415 321.013,937.533 321.013,937.638L320.995,937.284L320.968,937.068Z"/>
            </g>
            <path d="M789.131,626.735C789.131,615.174 805.973,580.328 798.802,565.985C765.101,498.577 704.855,553.647 684.081,599.8C665.97,640.035 572.808,884.854 665.713,939.581C725.437,974.763 773.131,642.737 789.131,626.735C792.327,623.54 793.474,621.348 791.825,621.348" style="fill:white;"/>
            <path d="M793.729,631.116C795.84,628.991 797.217,627.133 797.891,625.846C798.76,624.186 798.955,622.746 798.921,621.705C798.864,619.927 798.222,618.52 797.254,617.405C799.279,610.101 802.595,600.673 804.682,591.669C807.271,580.501 807.856,569.893 804.482,563.145C797.035,548.251 788.269,538.896 779.06,533.665C763.743,524.965 746.835,527.191 730.865,536.173C708.925,548.512 688.778,573.893 678.29,597.193C665.471,625.674 615.567,755.554 618.941,849.885C620.458,892.323 632.904,927.624 662.49,945.053C672.068,950.695 681.439,949.528 690.509,942.614C701.299,934.389 711.88,916.547 721.56,892.957C746.528,832.106 767.217,732.146 781.215,673.78C784.747,659.052 787.84,647.022 790.471,639.041C791.709,635.283 793.606,631.366 793.729,631.116ZM782.944,624.424C783.931,616.477 789.213,602.164 792.31,588.802C794.124,580.974 795.487,573.554 793.123,568.825C784.276,551.13 773.726,542.644 762.258,541.135C750.681,539.612 738.685,545.022 727.612,553.572C711.691,565.863 697.786,584.823 689.871,602.406C679.108,626.318 641.568,723.175 633.147,808.547C630.391,836.488 630.742,863.179 636.367,885.542C641.705,906.762 651.789,924.01 668.936,934.11C675.263,937.837 681.171,934.913 687.07,928.598C695.029,920.076 702.557,905.814 709.811,888.136C738.132,819.114 760.8,699.365 774.469,648.515C776.987,639.15 779.245,632.015 781.16,627.765C781.754,626.445 782.359,625.335 782.944,624.424Z"/>
            <g transform="matrix(1,0,0,1,9.92969,-20.9627)">
                <path d="M292.52,553.116C274.122,558.82 256.432,567.404 250.51,584.125C244.178,602.004 262.452,681.329 276.114,714.224C303.743,780.744 303.849,958.566 373.343,958.566C469.741,958.566 394.468,631.96 331.219,562.089C317.05,546.437 293.457,552.826 292.52,553.116Z" style="fill:white;"/>
                <path d="M290.639,547.051C270.251,553.372 251.087,563.475 244.524,582.005C242.438,587.897 242.456,599.864 244.368,614.705C248.496,646.744 260.531,693.259 270.25,716.659C286.773,756.439 293.349,836.172 310.984,893.58C317.133,913.597 324.645,930.981 334.156,943.401C344.59,957.025 357.447,964.916 373.343,964.916C390.209,964.916 402.674,956.512 411.252,941.665C418.997,928.262 423.476,909.231 425.044,886.571C429.261,825.647 412.775,737.669 389.172,666.364C373.265,618.309 354.028,577.824 335.927,557.828C319.324,539.487 291.737,546.711 290.639,547.051ZM294.4,559.182C295.176,558.941 314.777,553.388 326.511,566.351C343.829,585.482 361.897,624.38 377.115,670.355C400.2,740.093 416.498,826.109 412.375,885.694C410.964,906.073 407.22,923.258 400.256,935.312C394.125,945.922 385.396,952.216 373.343,952.216C361.44,952.216 352.052,945.881 344.239,935.679C335.504,924.274 328.771,908.233 323.124,889.851C305.372,832.061 298.611,751.832 281.979,711.788C272.57,689.136 260.96,644.097 256.964,613.083C255.395,600.9 254.783,591.081 256.496,586.245C261.778,571.33 277.99,564.269 294.4,559.182Z"/>
            </g>
            <path d="M716.404,896.096C706.432,896.096 712.983,918.628 727.178,925.725C750.813,937.542 772.885,880.325 778.357,866.466C817.948,766.194 896.41,570.97 900.226,551.318C906.181,520.655 923.254,469.014 926.564,424.715C937.291,281.158 868.864,218.643 789.63,139.403C769.483,119.255 682.209,57.235 508.997,52.998C363.661,49.443 233.667,140.363 177.684,252.325C169.023,269.646 125.609,344.498 126.505,446.264C127.711,583.143 320.087,931.013 320.087,931.013C354.752,933.767 311.85,816.793 308.892,803.034C285.902,696.102 264.849,636.758 245.024,548.621C214.235,411.746 268.504,261.613 355.461,211.921C415.739,177.475 507.081,159.875 536.515,164.557C631.229,179.621 665.083,176.713 757.64,272.327C779.319,294.722 813.859,330.141 827.846,390.97C844.339,462.701 766.053,766.876 716.404,896.096Z" style="fill:white;"/>
            <path d="M711.653,890.74C710.891,891.093 710.198,891.528 709.569,892.027C707.243,893.87 705.649,896.787 705.324,900.617C705.009,904.321 705.961,909.203 708.236,914.102C711.405,920.924 717.093,927.782 724.339,931.405C733.843,936.157 743.32,933.282 751.903,925.445C767.527,911.18 780.258,878.943 784.263,868.798C823.991,768.181 902.631,572.248 906.46,552.529C912.448,521.689 929.568,469.741 932.897,425.189C943.802,279.239 874.674,215.473 794.12,134.913C773.651,114.443 685.131,50.955 509.152,46.65C361.257,43.033 228.973,135.551 172.004,249.485C163.215,267.063 119.246,343.047 120.156,446.32C120.522,487.924 138.18,548.804 162.918,613.598C220.034,763.198 314.53,934.086 314.53,934.086C315.561,935.951 317.459,937.175 319.584,937.344C333.455,938.446 340.383,926.631 339.863,907.017C338.944,872.33 317.193,811.435 315.1,801.699C292.105,694.742 271.049,635.384 251.219,547.227C233.065,466.525 244.993,381.131 275.904,315.181C296.266,271.739 324.839,236.733 358.612,217.434C417.536,183.762 506.745,166.252 535.517,170.828C628.685,185.646 662.032,182.691 753.077,276.743C774.221,298.585 808.016,333.066 821.657,392.393C826.501,413.458 822.764,454.985 814.169,506.238C793.977,626.653 746.212,799.702 711.652,890.741L711.653,890.74ZM718.088,902.214C720.002,901.692 721.597,900.286 722.332,898.373C757.195,807.633 806.143,630.896 826.694,508.338C835.66,454.872 839.087,411.521 834.034,389.547C819.702,327.216 784.417,290.858 762.202,267.91C668.134,170.735 633.773,173.596 537.512,158.285C507.417,153.499 413.943,171.188 352.311,206.408C316.518,226.862 285.985,263.75 264.405,309.791C232.404,378.065 220.035,466.467 238.829,550.015C258.65,638.131 279.699,697.461 302.684,804.368C304.732,813.895 326.268,873.414 327.167,907.353C327.301,912.409 326.989,916.82 325.901,920.236C325.371,921.9 324.623,923.243 323.487,924.007C309.143,897.736 226.536,744.621 174.783,609.069C150.688,545.958 133.212,486.731 132.855,446.208C131.972,345.95 174.83,272.23 183.363,255.165C238.36,145.174 366.065,55.854 508.841,59.346C679.287,63.515 765.314,124.067 785.139,143.893C863.054,221.813 930.78,283.076 920.232,424.242C916.941,468.286 899.913,519.62 893.993,550.108C890.19,569.692 811.906,764.208 772.451,864.134C769.28,872.164 760.41,895.306 748.834,910.039C745.479,914.309 741.954,917.863 738.192,919.761C735.55,921.093 732.804,921.439 730.018,920.046C724.443,917.258 720.456,911.369 718.755,906.247C718.341,905.001 718.162,903.265 718.088,902.214Z"/>
            <path d="M95.664,709.407C103.361,701.71 144.202,748.816 148.071,753.539C166.806,776.41 176.875,809.766 192.203,844.561C195.979,853.132 208.753,910.155 208.753,902.484" style="fill:white;"/>
            <path d="M98.347,715.163C99.653,715.822 103.161,717.665 105.765,719.677C120.265,730.882 140.522,754.344 143.159,757.563C161.577,780.047 171.323,812.914 186.392,847.121C188.72,852.406 194.476,876.531 198.466,891.769C200.427,899.255 202.154,904.828 202.862,906.081C205.109,910.057 208.564,909.699 209.962,909.397C211.008,909.171 215.103,907.999 215.103,902.484C215.103,900.867 214.497,899.391 213.5,898.271C212.847,896.094 211.721,892.251 210.752,888.551C206.588,872.651 200.443,847.515 198.014,842.001C182.427,806.618 172.035,772.772 152.983,749.515C149.773,745.595 121.905,713.649 106.841,705.07C103.555,703.198 100.612,702.298 98.339,702.216C95.37,702.11 92.995,703.096 91.174,704.917C88.696,707.395 88.696,711.419 91.174,713.897C93.113,715.835 95.997,716.258 98.347,715.163Z"/>
            <path d="M964.512,695.616C956.023,687.126 935.172,711.165 931.413,714.923C911.404,734.933 875.66,783.089 861.078,830.77C858.484,839.25 850.045,904.09 850.045,899.726" style="fill:white;"/>
            <path d="M844.132,897.414C843.849,898.13 843.695,898.91 843.695,899.726C843.695,903.593 846.137,904.95 846.574,905.238C847.836,906.069 849.17,906.372 850.546,906.269C851.737,906.179 853.154,905.792 854.493,904.498C854.698,904.299 856,903.049 856.525,900.258C857.901,892.934 864.84,840.182 867.15,832.627C881.402,786.027 916.348,738.97 935.903,719.413C938.048,717.269 945.995,708.132 953.791,702.95C955.446,701.851 957.07,700.935 958.61,700.44C958.922,700.341 959.225,700.26 959.522,700.21C959.692,700.182 959.964,700.174 960.093,700.174C962.575,702.584 966.547,702.561 969.002,700.106C971.48,697.628 971.481,693.604 969.002,691.126C964.638,686.761 958.428,686.366 951.613,689.592C941.669,694.299 929.742,707.614 926.923,710.433C906.461,730.897 869.918,780.151 855.006,828.913C852.694,836.47 845.731,888.325 844.132,897.414ZM855.1,895.886C855.913,896.952 856.395,898.283 856.395,899.726C856.395,897.885 855.77,896.671 855.1,895.886Z"/>
        </g>
    </g>
</svg>
