<svg viewBox="0 0 492 492" xmlns="http://www.w3.org/2000/svg" xml:space="preserve" style="fill-rule:evenodd;clip-rule:evenodd;stroke-linejoin:round;stroke-miterlimit:2"><path d="M155.082 605.765c3.618 0-8.791-1.095-12.004 2.119-6.021 6.02-15.919 9.563-21.89 15.534-21.139 21.139-29.656 40.099-29.656 78.378 0 4.687-.583 28.368 1.412 30.363 4.6 4.601 3.801 19.607 7.061 26.126 7.926 15.852 14.474 36.01 23.302 53.665 21.952 43.902 64.563 90.889 107.329 112.271 10.109 5.055 21.207 10.251 31.775 15.535 6.557 3.279 16.188 1.033 22.595 4.237 4.121 2.06 20.106 3.196 23.302 0 1.958-1.958 4.66-2.26 6.355-5.649.105-.211 0-.471 0-.706 0-4.536-17.212-39.808-20.477-43.073-4.571-4.571-3.789-15.793-8.474-20.477-6.457-6.458-28.809-56.207-35.305-69.199-2.33-4.661-4.606-13.08-8.474-16.947-4.365-4.366-4.402-14.994-8.473-19.065-6.548-6.549-10.15-39.806-17.653-47.309-9.997-9.999-11.205-35.92-20.477-45.192-3.256-3.256-1.598-12.19-4.943-15.534-11.889-11.889-18.069-54.371-33.893-54.371" style="fill:#fff" transform="scale(.48)"/><path d="M154.065 449.793c-.127-1.005-.856-3.302-2.058-6.07-2.691-6.2-7.475-15.32-8.643-16.487-.344-.344-.494-.875-.67-1.43-.32-1.015-.551-2.142-.832-3.216-.54-2.067-1.324-3.942-2.565-5.183-.83-.83-2.2-3.372-3.89-6.615-4.406-8.462-10.307-21.451-12.486-25.808-1.237-2.475-2.585-6.874-4.637-8.927-.344-.343-.525-.865-.723-1.413-.345-.952-.61-2.005-.909-2.998-.58-1.934-1.352-3.657-2.436-4.74-.407-.408-.69-1.192-1.042-2.133-.783-2.1-1.493-4.877-2.23-7.672-.799-3.025-1.626-6.068-2.56-8.427-.782-1.978-1.696-3.532-2.641-4.477-2.108-2.108-3.142-5.962-4.285-9.71-1.444-4.736-2.998-9.353-5.446-11.879a10.003 10.003 0 0 1-.242-.955c-.113-.663-.189-1.37-.293-2.046-.289-1.866-.898-3.52-1.936-4.558-1.383-1.383-2.51-3.804-3.66-6.514-2.052-4.827-4.003-10.526-6.37-14.446-1.986-3.29-4.404-5.385-7.08-5.903a3.306 3.306 0 0 0-1.4-.486c-.6-.074-3.27-.161-5.347.328-1.342.317-2.464.903-3.162 1.6-1.278 1.28-2.988 2.267-4.675 3.28-2.128 1.277-4.233 2.579-5.832 4.177-10.735 10.735-15.128 20.338-15.128 39.777 0 1.85-.169 9.701.262 13.272.224 1.862.898 3.047 1.309 3.458.248.248.334.677.468 1.141.265.92.443 1.991.61 3.087.428 2.812.849 5.737 1.74 7.52 3.804 7.608 6.948 17.285 11.185 25.76 10.81 21.617 31.823 44.724 52.881 55.252 4.852 2.427 10.18 4.92 15.252 7.457 1.918.96 4.268 1.2 6.625 1.346 1.507.093 3.023.089 4.22.688 1.662.83 6.658 1.533 10.147 1.168 2.13-.222 3.77-.952 4.557-1.74.318-.317.723-.463 1.091-.705.937-.616 1.829-1.395 2.53-2.798.273-.545.299-1.713.3-1.975ZM73.703 293.806l-3.037.296c-1.588 1.538-3.628 2.8-5.683 4.033-1.686 1.012-3.39 1.994-4.657 3.26-9.559 9.56-13.343 18.158-13.343 35.467 0 1.772.284 11.597.327 13.06.931 1.283 1.598 3.224 1.998 5.438.464 2.555.58 5.571 1.42 7.254 3.805 7.609 6.948 17.284 11.185 25.759 10.265 20.528 30.159 42.529 50.155 52.527 4.853 2.426 10.18 4.92 15.252 7.456 1.559.78 3.575.651 5.472.794 1.946.146 3.81.458 5.374 1.24.943.472 3.532.69 5.703.627.802-.023 1.915-.23 2.21-.287a8.372 8.372 0 0 1 1.224-.898c.14-.086.298-.153.453-.239-.29-.816-.8-2.198-1.34-3.443-1.733-3.99-4.352-9.326-6.136-12.537a41.502 41.502 0 0 0-1.298-2.142c-1.175-1.216-1.928-3.046-2.455-5.074-.276-1.066-.507-2.188-.832-3.205-.183-.57-.348-1.115-.708-1.475-1.03-1.03-2.891-4.087-4.987-8.11-4.421-8.492-10.345-21.524-12.531-25.897-.583-1.166-1.165-2.798-1.837-4.384-.48-1.134-.968-2.267-1.66-2.959-1.147-1.147-1.944-2.901-2.533-4.827-.31-1.015-.577-2.078-.91-3.028-.178-.509-.321-.993-.623-1.296-.68-.68-1.366-1.745-1.97-3.134-1.026-2.36-1.95-5.875-2.887-9.426-.733-2.776-1.477-5.574-2.333-7.739-.411-1.039-.788-1.913-1.284-2.41-2.691-2.691-4.346-7.457-5.805-12.242-1.139-3.734-2.076-7.501-4.024-9.449-1.016-1.017-1.621-2.663-1.906-4.535-.102-.669-.177-1.37-.292-2.03a9.855 9.855 0 0 0-.255-.976c-1.549-1.582-2.973-4.066-4.282-6.985-1.726-3.846-3.324-8.501-5.141-12.336-.874-1.844-1.78-3.485-2.82-4.65-.56-.624-1.088-1.15-1.79-1.15-.51 0-.992-.126-1.414-.348Zm80.362 155.987.013.103.008.17c0-.05-.003-.107-.008-.17l-.013-.156v.053Z"/><path d="M155.082 605.765c3.618 0-8.791-1.095-12.004 2.119-6.021 6.02-15.919 9.563-21.89 15.534-21.139 21.139-29.656 40.099-29.656 78.378 0 4.687-.583 28.368 1.412 30.363 4.6 4.601 3.801 19.607 7.061 26.126 7.926 15.852 14.474 36.01 23.302 53.665 21.952 43.902 64.563 90.889 107.329 112.271 10.109 5.055 21.207 10.251 31.775 15.535 6.557 3.279 16.188 1.033 22.595 4.237 4.121 2.06 20.106 3.196 23.302 0 1.958-1.958 4.66-2.26 6.355-5.649.105-.211 0-.471 0-.706 0-4.536-17.212-39.808-20.477-43.073-4.571-4.571-3.789-15.793-8.474-20.477-6.457-6.458-28.809-56.207-35.305-69.199-2.33-4.661-4.606-13.08-8.474-16.947-4.365-4.366-4.402-14.994-8.473-19.065-6.548-6.549-10.15-39.806-17.653-47.309-9.997-9.999-11.205-35.92-20.477-45.192-3.256-3.256-1.598-12.19-4.943-15.534-11.889-11.889-18.069-54.371-33.893-54.371" style="fill:#fff" transform="scale(-.48 .48) rotate(1.901 -117.67 -31084.16)"/><path d="M428.175 284.225c-2.656.605-5.003 2.78-6.88 6.134-2.235 3.996-3.996 9.756-5.886 14.65-1.06 2.746-2.106 5.203-3.442 6.631-1.003 1.072-1.557 2.745-1.784 4.62-.082.68-.134 1.388-.225 2.055-.044.32-.177.836-.21.962-2.362 2.606-3.763 7.272-5.049 12.053-1.018 3.784-1.924 7.67-3.96 9.847-.913.976-1.775 2.56-2.492 4.562-.854 2.388-1.58 5.458-2.278 8.508-.644 2.817-1.262 5.616-1.975 7.741-.32.953-.577 1.745-.97 2.166-1.048 1.119-1.762 2.867-2.278 4.819-.265 1.002-.496 2.063-.81 3.026-.179.554-.343 1.082-.674 1.436-1.984 2.12-3.185 6.562-4.34 9.076-2.033 4.427-7.5 17.605-11.623 26.208-1.58 3.297-2.865 5.883-3.668 6.74-1.199 1.282-1.919 3.182-2.391 5.266-.245 1.083-.438 2.217-.725 3.242-.157.56-.29 1.096-.623 1.451-1.128 1.206-5.607 10.479-8.09 16.765-1.11 2.806-1.762 5.126-1.856 6.135.011.261.075 1.428.366 1.964.748 1.379 1.665 2.128 2.622 2.712.376.23.785.362 1.114.67.813.76 2.476 1.436 4.612 1.587 3.499.248 8.469-.62 10.102-1.505 1.177-.638 2.693-.684 4.195-.827 2.351-.223 4.692-.543 6.577-1.565 4.986-2.703 10.227-5.372 14.996-7.958 20.698-11.222 40.933-35.013 51.02-56.978 3.953-8.61 6.774-18.385 10.323-26.116.832-1.811 1.156-4.748 1.49-7.573.13-1.101.273-2.178.508-3.105.118-.47.19-.9.43-1.157.396-.424 1.03-1.631 1.193-3.5.312-3.582-.118-11.423-.179-13.273-.645-19.428-5.354-28.88-16.439-39.252-1.65-1.545-3.798-2.777-5.967-3.982-1.72-.956-3.461-1.887-4.782-3.123-.72-.673-1.861-1.222-3.212-1.494-2.093-.42-4.759-.245-5.356-.15a3.306 3.306 0 0 0-1.384.532Zm2.914 5.525a3.024 3.024 0 0 1-1.402.396c-.701.023-1.212.566-1.75 1.208-1 1.199-1.852 2.869-2.665 4.742-1.689 3.892-3.131 8.598-4.728 12.5-1.212 2.96-2.553 5.49-4.048 7.123-.03.108-.177.652-.223.983-.093.663-.145 1.367-.225 2.039-.222 1.88-.772 3.545-1.754 4.596-1.882 2.01-2.694 5.807-3.708 9.577-1.3 4.83-2.795 9.649-5.396 12.428-.48.512-.827 1.399-1.203 2.45-.784 2.193-1.435 5.014-2.075 7.813-.818 3.58-1.626 7.124-2.573 9.516-.558 1.41-1.207 2.496-1.865 3.198-.292.313-.418.802-.58 1.316-.3.96-.532 2.032-.809 3.057-.525 1.944-1.263 3.723-2.372 4.908-.668.714-1.117 1.863-1.56 3.013-.62 1.606-1.147 3.258-1.69 4.442-2.04 4.443-7.529 17.665-11.666 26.298-1.96 4.091-3.72 7.208-4.714 8.272-.348.372-.496.922-.66 1.498-.291 1.026-.484 2.156-.725 3.23-.459 2.045-1.151 3.898-2.285 5.152a41.502 41.502 0 0 0-1.226 2.184c-1.677 3.268-4.117 8.688-5.716 12.734a58.091 58.091 0 0 0-1.226 3.486c.157.08.318.142.46.224.438.25.859.522 1.254.856.296.048 1.416.218 2.218.214 2.172-.009 4.752-.313 5.68-.816 1.536-.833 3.389-1.207 5.33-1.418 1.89-.205 3.91-.143 5.441-.974 4.986-2.703 10.227-5.373 14.997-7.958 19.654-10.657 38.806-33.305 48.385-54.163 3.954-8.61 6.774-18.385 10.323-26.116.786-1.71.801-4.727 1.18-7.297.326-2.225.928-4.188 1.816-5.501-.005-1.463-.048-11.292-.107-13.063-.574-17.3-4.64-25.769-14.511-35.004-1.309-1.225-3.044-2.15-4.763-3.105-2.095-1.164-4.175-2.358-5.813-3.842l-3.046-.196Zm-75.143 158.568-.002-.053s-.005.074-.007.157a1.88 1.88 0 0 0-.003.17l.003-.17.01-.104Z"/><path d="M789.131 626.735c0-11.561 16.842-46.407 9.671-60.75-33.701-67.408-93.947-12.338-114.721 33.815-18.111 40.235-111.273 285.054-18.368 339.781 59.724 35.182 107.418-296.844 123.418-312.846 3.196-3.195 4.343-5.387 2.694-5.387" style="fill:#fff" transform="scale(.48)"/><path d="M380.99 302.936c1.013-1.02 1.674-1.912 1.998-2.53.417-.797.51-1.488.494-1.988a3.216 3.216 0 0 0-.8-2.064c.972-3.506 2.564-8.031 3.565-12.353 1.243-5.36 1.524-10.452-.096-13.691-3.574-7.15-7.782-11.64-12.202-14.15-7.352-4.177-15.468-3.108-23.134 1.203-10.531 5.923-20.202 18.106-25.236 29.29-6.153 13.67-30.107 76.013-28.487 121.292.728 20.37 6.702 37.315 20.903 45.68 4.598 2.709 9.096 2.148 13.45-1.17 5.179-3.948 10.257-12.512 14.904-23.836 11.984-29.208 21.915-77.189 28.634-105.205 1.696-7.069 3.18-12.843 4.443-16.674.594-1.804 1.505-3.684 1.564-3.804Zm-5.177-3.212c.474-3.815 3.01-10.685 4.496-17.099.87-3.757 1.525-7.32.39-9.589-4.247-8.494-9.31-12.567-14.815-13.291-5.557-.731-11.315 1.866-16.63 5.97-7.642 5.9-14.317 15-18.116 23.44-5.166 11.478-23.185 57.969-27.227 98.948-1.323 13.411-1.155 26.223 1.545 36.957 2.562 10.186 7.403 18.465 15.633 23.313 3.037 1.789 5.873.385 8.705-2.646 3.82-4.09 7.433-10.936 10.915-19.422 13.594-33.13 24.475-90.61 31.036-115.018 1.209-4.495 2.293-7.92 3.212-9.96.285-.633.575-1.166.856-1.603Z"/><path d="M292.52 553.116c-18.398 5.704-36.088 14.288-42.01 31.009-6.332 17.879 11.942 97.204 25.604 130.099 27.629 66.52 27.735 244.342 97.229 244.342 96.398 0 21.125-326.606-42.124-396.477-14.169-15.652-37.762-9.263-38.699-8.973Z" style="fill:#fff" transform="matrix(.48 0 0 .48 4.766 -10.062)"/><path d="M144.273 252.522c-9.786 3.034-18.985 7.884-22.135 16.778-1.002 2.828-.993 8.573-.075 15.696 1.981 15.379 7.758 37.706 12.423 48.938 7.931 19.095 11.088 57.366 19.553 84.922 2.951 9.608 6.557 17.953 11.122 23.914 5.008 6.54 11.18 10.328 18.81 10.328 8.096 0 14.079-4.034 18.196-11.16 3.718-6.434 5.868-15.57 6.62-26.446 2.025-29.244-5.889-71.473-17.218-105.7-7.636-23.066-16.87-42.499-25.558-52.097-7.97-8.803-21.211-5.336-21.738-5.173Zm1.805 5.823c.373-.115 9.781-2.78 15.414 3.441 8.312 9.183 16.985 27.854 24.29 49.922 11.08 33.475 18.903 74.762 16.924 103.363-.677 9.782-2.474 18.03-5.817 23.817-2.943 5.092-7.133 8.114-12.918 8.114-5.714 0-10.22-3.041-13.97-7.938-4.193-5.475-7.425-13.174-10.135-21.998-8.521-27.739-11.766-66.249-19.75-85.47-4.516-10.873-10.089-32.492-12.007-47.378-.753-5.848-1.047-10.561-.225-12.882 2.536-7.16 10.317-10.549 18.194-12.99Z"/><path d="M716.404 896.096c-9.972 0-3.421 22.532 10.774 29.629 23.635 11.817 45.707-45.4 51.179-59.259C817.948 766.194 896.41 570.97 900.226 551.318c5.955-30.663 23.028-82.304 26.338-126.603 10.727-143.557-57.7-206.072-136.934-285.312-20.147-20.148-107.421-82.168-280.633-86.405-145.336-3.555-275.33 87.365-331.313 199.327-8.661 17.321-52.075 92.173-51.179 193.939 1.206 136.879 193.582 484.749 193.582 484.749 34.665 2.754-8.237-114.22-11.195-127.979-22.99-106.932-44.043-166.276-63.868-254.413-30.789-136.875 23.48-287.008 110.437-336.7 60.278-34.446 151.62-52.046 181.054-47.364 94.714 15.064 128.568 12.156 221.125 107.77 21.679 22.395 56.219 57.814 70.206 118.643 16.493 71.731-61.793 375.906-111.442 505.126Z" style="fill:#fff" transform="scale(.48)"/><path d="M341.593 427.555c-.365.17-.698.378-1 .618-1.116.885-1.881 2.285-2.037 4.123-.152 1.778.305 4.121 1.397 6.473 1.521 3.275 4.252 6.566 7.73 8.305 4.562 2.281 9.11.901 13.23-2.86 7.5-6.848 13.61-22.321 15.533-27.191 19.07-48.296 56.817-142.344 58.655-151.81 2.874-14.802 11.092-39.737 12.69-61.122 5.234-70.056-27.947-100.664-66.613-139.333-9.826-9.825-52.315-40.3-136.785-42.366-70.99-1.736-134.486 42.672-161.831 97.36-4.219 8.438-25.324 44.91-24.887 94.482.176 19.97 8.651 49.192 20.526 80.293 27.415 71.808 72.773 153.834 72.773 153.834a3.048 3.048 0 0 0 2.426 1.564c6.658.53 9.984-5.142 9.734-14.557-.44-16.65-10.881-45.88-11.886-50.552-11.038-51.34-21.144-79.832-30.663-122.147-8.714-38.737-2.988-79.726 11.849-111.382 9.774-20.852 23.489-37.655 39.7-46.919 28.283-16.162 71.104-24.567 84.914-22.37 44.72 7.112 60.727 5.694 104.429 50.839 10.15 10.484 26.37 27.035 32.918 55.512 2.325 10.11.532 30.044-3.594 54.645-9.692 57.8-32.62 140.863-49.208 184.562Zm3.09 5.508a3.04 3.04 0 0 0 2.036-1.844c16.735-43.555 40.23-128.389 50.094-187.217 4.304-25.663 5.949-46.472 3.523-57.02-6.879-29.918-23.816-47.37-34.479-58.385-45.153-46.644-61.646-45.27-107.851-52.62-14.446-2.297-59.313 6.193-88.897 23.099-17.18 9.818-31.836 27.524-42.195 49.624-15.36 32.771-21.297 75.204-12.276 115.307 9.514 42.296 19.618 70.774 30.65 122.09.983 4.573 11.32 33.142 11.752 49.432.064 2.427-.085 4.545-.608 6.184-.254.799-.613 1.444-1.158 1.81-6.885-12.61-46.537-86.105-71.378-151.17C72.33 262.06 63.942 233.631 63.77 214.18c-.423-48.124 20.148-83.51 24.244-91.7 26.399-52.796 87.697-95.67 156.23-93.994 81.814 2.001 123.107 31.066 132.623 40.583 37.399 37.401 69.907 66.807 64.844 134.567-1.58 21.141-9.753 45.782-12.594 60.416-1.826 9.4-39.402 102.768-58.34 150.732-1.523 3.855-5.78 14.963-11.337 22.035-1.61 2.05-3.302 3.755-5.108 4.666-1.268.64-2.586.806-3.923.137-2.676-1.338-4.59-4.165-5.407-6.623-.198-.599-.284-1.432-.32-1.936Z"/><path d="M95.664 709.407c7.697-7.697 48.538 39.409 52.407 44.132 18.735 22.871 28.804 56.227 44.132 91.022 3.776 8.571 16.55 65.594 16.55 57.923" style="fill:#fff" transform="scale(.48)"/><path d="M47.207 343.278c.626.317 2.31 1.201 3.56 2.167 6.96 5.378 16.684 16.64 17.95 18.185 8.84 10.793 13.518 26.569 20.751 42.988 1.118 2.537 3.88 14.117 5.796 21.431.941 3.593 1.77 6.268 2.11 6.87 1.078 1.908 2.737 1.737 3.408 1.592.502-.109 2.467-.671 2.467-3.319 0-.776-.29-1.484-.769-2.022a146.11 146.11 0 0 1-1.319-4.666c-1.999-7.632-4.948-19.697-6.114-22.344-7.482-16.983-12.47-33.23-21.615-44.393-1.541-1.881-14.918-17.215-22.148-21.333-1.578-.899-2.99-1.331-4.081-1.37-1.425-.051-2.565.422-3.44 1.296a3.05 3.05 0 0 0 3.444 4.918Z"/><path d="M964.512 695.616c-8.489-8.49-29.34 15.549-33.099 19.307-20.009 20.01-55.753 68.166-70.335 115.847-2.594 8.48-11.033 73.32-11.033 68.956" style="fill:#fff" transform="scale(.48)"/><path d="M405.183 430.759c-.135.343-.21.718-.21 1.11 0 1.856 1.173 2.507 1.383 2.645a2.971 2.971 0 0 0 1.906.495 2.946 2.946 0 0 0 1.895-.85c.098-.095.723-.695.975-2.035.66-3.516 3.991-28.837 5.1-32.463 6.841-22.368 23.615-44.955 33.001-54.343 1.03-1.029 4.845-5.415 8.587-7.902.794-.528 1.574-.967 2.313-1.205a3.23 3.23 0 0 1 .438-.11 2.06 2.06 0 0 1 .274-.017 3.048 3.048 0 0 0 4.276-4.344c-2.095-2.095-5.076-2.284-8.347-.736-4.773 2.26-10.498 8.65-11.851 10.004-9.822 9.823-27.362 33.464-34.52 56.87-1.11 3.628-4.452 28.518-5.22 32.88Zm5.265-.734c.39.512.622 1.15.622 1.843 0-.883-.3-1.466-.622-1.843Z"/></svg>