<svg viewBox="0 0 246 246" xmlns="http://www.w3.org/2000/svg" xml:space="preserve" style="fill-rule:evenodd;clip-rule:evenodd;stroke-linejoin:round;stroke-miterlimit:2"><path d="M37.22 145.384c.868 0-2.11-.263-2.881.508-1.445 1.445-3.821 2.295-5.254 3.728-5.073 5.074-7.117 9.624-7.117 18.811 0 1.125-.14 6.808.339 7.287 1.104 1.104.912 4.706 1.694 6.27 1.902 3.805 3.474 8.643 5.593 12.88 5.268 10.536 15.495 21.813 25.759 26.945 2.426 1.213 5.089 2.46 7.626 3.728 1.573.787 3.885.248 5.423 1.017.988.495 4.825.767 5.592 0 .47-.47 1.118-.542 1.525-1.356.025-.05 0-.112 0-.169 0-1.088-4.131-9.554-4.914-10.337-1.097-1.097-.91-3.791-2.034-4.915-1.55-1.55-6.914-13.49-8.473-16.608-.56-1.118-1.106-3.139-2.034-4.067-1.048-1.048-1.057-3.599-2.034-4.576-1.571-1.571-2.435-9.553-4.236-11.354-2.4-2.399-2.69-8.62-4.915-10.846-.781-.781-.383-2.925-1.186-3.728-2.853-2.853-4.337-13.049-8.134-13.049" style="fill:#fff"/><path d="M77.032 224.896c-.063-.502-.428-1.651-1.028-3.035-1.346-3.1-3.738-7.659-4.322-8.243-.172-.172-.247-.437-.335-.715-.16-.507-.275-1.071-.416-1.608-.271-1.034-.662-1.971-1.282-2.592-.415-.415-1.101-1.686-1.945-3.307-2.203-4.231-5.154-10.725-6.243-12.904-.619-1.237-1.293-3.437-2.319-4.464-.172-.171-.262-.432-.362-.706-.172-.476-.305-1.002-.454-1.499-.29-.967-.676-1.828-1.218-2.37-.204-.204-.345-.596-.521-1.067-.391-1.049-.747-2.438-1.115-3.835-.399-1.513-.813-3.035-1.28-4.214-.391-.989-.848-1.766-1.321-2.238-1.054-1.055-1.571-2.981-2.142-4.856-.722-2.368-1.499-4.676-2.723-5.939a4.91 4.91 0 0 1-.121-.477c-.056-.332-.094-.685-.147-1.024-.144-.933-.449-1.76-.967-2.279-.692-.691-1.255-1.902-1.831-3.257-1.025-2.413-2.001-5.263-3.184-7.222-.994-1.646-2.203-2.693-3.54-2.952a1.666 1.666 0 0 0-.7-.243c-.3-.037-1.636-.081-2.674.164-.671.158-1.232.452-1.581.8-.639.64-1.494 1.134-2.338 1.64-1.064.638-2.116 1.289-2.915 2.089-5.368 5.367-7.564 10.169-7.564 19.888 0 .925-.085 4.851.13 6.636.113.931.45 1.523.655 1.729.124.124.167.338.234.571.133.459.221.995.305 1.543.214 1.406.424 2.868.87 3.76 1.902 3.804 3.474 8.642 5.593 12.88 5.404 10.808 15.911 22.362 26.44 27.626 2.426 1.213 5.09 2.46 7.626 3.729.959.479 2.134.6 3.313.673.753.046 1.511.044 2.11.343.831.416 3.329.767 5.073.585 1.065-.112 1.885-.477 2.279-.87.159-.159.361-.232.545-.353.468-.308.915-.698 1.265-1.399.137-.273.149-.857.15-.988Zm-40.18-77.993-1.519.148c-.794.769-1.814 1.4-2.841 2.016-.844.507-1.696.997-2.329 1.631-4.779 4.779-6.671 9.079-6.671 17.733 0 .886.142 5.799.163 6.53.465.641.799 1.612.999 2.719.232 1.278.29 2.786.71 3.627 1.903 3.804 3.474 8.642 5.593 12.879 5.132 10.265 15.079 21.265 25.077 26.264 2.426 1.213 5.09 2.46 7.626 3.728.78.39 1.787.326 2.736.397.973.073 1.905.229 2.687.62.472.236 1.766.345 2.852.314a8.11 8.11 0 0 0 1.104-.144 4.26 4.26 0 0 1 .613-.449c.07-.043.149-.076.226-.119-.145-.408-.4-1.099-.67-1.722-.867-1.995-2.176-4.663-3.068-6.269-.276-.496-.625-1.034-.649-1.071-.588-.607-.964-1.522-1.227-2.537-.139-.532-.254-1.094-.416-1.602-.092-.285-.175-.557-.355-.737-.515-.515-1.445-2.044-2.493-4.056-2.211-4.245-5.172-10.762-6.265-12.948-.292-.583-.583-1.399-.919-2.192-.24-.567-.484-1.134-.83-1.479-.574-.574-.972-1.451-1.266-2.414-.156-.508-.289-1.039-.456-1.514-.089-.254-.16-.497-.311-.648-.34-.34-.683-.872-.985-1.567-.513-1.18-.975-2.938-1.444-4.713-.366-1.388-.738-2.787-1.166-3.869-.206-.52-.394-.957-.642-1.205-1.346-1.346-2.173-3.729-2.903-6.122-.569-1.867-1.038-3.75-2.011-4.724-.509-.508-.811-1.331-.953-2.267-.051-.335-.089-.686-.146-1.015a4.913 4.913 0 0 0-.128-.488c-.774-.791-1.486-2.034-2.141-3.493-.863-1.923-1.662-4.251-2.57-6.168-.438-.922-.891-1.743-1.411-2.325-.279-.312-.543-.575-.894-.575-.256 0-.496-.063-.707-.174Zm40.18 77.993.007.052.004.085a.902.902 0 0 0-.004-.085l-.006-.078-.001.026Z"/><path d="M215.126 143.369c-.868.029 2.1-.333 2.897.413 1.492 1.396 3.894 2.167 5.374 3.551 5.239 4.903 7.433 9.383 7.738 18.565.037 1.124.365 6.8-.097 7.294-1.067 1.14-.756 4.733-1.486 6.323-1.775 3.865-3.185 8.753-5.162 13.058-4.916 10.706-14.763 22.315-24.851 27.785-2.385 1.293-5.005 2.628-7.498 3.979-1.547.839-3.875.377-5.386 1.196-.972.527-4.798.927-5.59.186-.485-.454-1.135-.505-1.569-1.305-.027-.049-.004-.112-.006-.169-.036-1.088 3.812-9.686 4.569-10.495 1.06-1.132.783-3.818 1.87-4.979 1.497-1.6 6.463-13.712 7.917-16.88.522-1.136 1.001-3.174 1.898-4.132 1.012-1.082.937-3.632 1.881-4.641 1.518-1.623 2.117-9.629 3.857-11.488 2.319-2.478 2.402-8.705 4.552-11.003.756-.807.287-2.937 1.062-3.766 2.757-2.946 3.902-13.185 7.697-13.311" style="fill:#fff"/><path d="M214.088 142.112c-1.328.303-2.502 1.39-3.44 3.068-1.118 1.998-1.998 4.878-2.943 7.324-.531 1.373-1.053 2.602-1.722 3.316-.501.536-.778 1.373-.891 2.31-.041.34-.067.694-.113 1.027-.022.16-.088.418-.105.481-1.181 1.303-1.881 3.636-2.524 6.027-.509 1.892-.962 3.835-1.981 4.923-.456.488-.887 1.28-1.245 2.281-.428 1.195-.791 2.729-1.139 4.254-.322 1.409-.631 2.809-.988 3.871-.16.476-.288.873-.485 1.083-.524.559-.881 1.433-1.139 2.409-.132.501-.248 1.032-.404 1.513-.09.277-.172.542-.338.719-.992 1.06-1.592 3.28-2.17 4.537-1.016 2.214-3.749 8.803-5.811 13.104-.79 1.649-1.433 2.942-1.834 3.371-.6.64-.96 1.59-1.196 2.632-.122.542-.219 1.109-.362 1.621-.079.281-.145.548-.312.726-.564.603-2.803 5.239-4.045 8.382-.555 1.403-.881 2.563-.927 3.068.005.131.037.714.182.982.374.689.833 1.064 1.311 1.356.188.115.393.181.557.335.406.38 1.238.718 2.306.793 1.75.125 4.234-.309 5.051-.752.589-.319 1.347-.342 2.098-.413 1.175-.112 2.346-.272 3.288-.783 2.493-1.352 5.114-2.686 7.498-3.979 10.349-5.611 20.467-17.507 25.51-28.489 1.977-4.305 3.387-9.193 5.162-13.058.416-.906.578-2.374.745-3.787.065-.55.136-1.089.253-1.552.06-.235.096-.451.215-.579.199-.212.516-.815.597-1.749.156-1.792-.059-5.712-.089-6.637-.323-9.714-2.677-14.44-8.22-19.626-.825-.773-1.899-1.388-2.983-1.991-.86-.478-1.731-.944-2.391-1.561-.36-.337-.931-.612-1.606-.748-1.047-.21-2.38-.122-2.678-.075a1.654 1.654 0 0 0-.692.266Zm1.457 2.763a1.513 1.513 0 0 1-.701.198c-.351.011-.606.283-.875.604-.501.599-.926 1.434-1.333 2.371-.844 1.946-1.565 4.299-2.364 6.25-.606 1.48-1.277 2.745-2.024 3.561a4.967 4.967 0 0 0-.111.492c-.047.332-.073.683-.113 1.019-.111.941-.386 1.773-.877 2.298-.941 1.006-1.347 2.904-1.854 4.789-.65 2.415-1.398 4.824-2.698 6.214-.24.256-.413.699-.601 1.225-.393 1.096-.718 2.507-1.038 3.906-.409 1.79-.813 3.563-1.286 4.758-.279.705-.604 1.248-.933 1.6-.146.156-.209.4-.289.658-.151.48-.267 1.015-.405 1.528-.263.972-.632 1.861-1.186 2.454-.334.357-.559.932-.78 1.506-.31.804-.574 1.629-.846 2.221-1.02 2.222-3.764 8.833-5.832 13.15-.98 2.045-1.86 3.604-2.358 4.135-.173.186-.247.461-.329.749-.146.513-.242 1.078-.363 1.615-.229 1.023-.575 1.95-1.142 2.577-.023.037-.354.586-.613 1.092-.839 1.634-2.059 4.343-2.858 6.366a29.4 29.4 0 0 0-.613 1.743c.078.041.159.071.23.112.219.126.429.262.627.428.148.024.708.109 1.109.108 1.086-.005 2.376-.157 2.839-.408.769-.417 1.695-.604 2.665-.709.946-.103 1.955-.072 2.721-.488 2.493-1.351 5.114-2.686 7.499-3.979 9.827-5.328 19.403-16.652 24.192-27.081 1.977-4.305 3.387-9.193 5.162-13.058.392-.855.4-2.364.589-3.648.164-1.113.465-2.094.909-2.751-.003-.732-.024-5.646-.054-6.532-.287-8.649-2.32-12.884-7.255-17.502-.655-.612-1.522-1.074-2.382-1.552-1.047-.582-2.087-1.179-2.906-1.921l-1.523-.098Zm-37.571 79.284-.002-.027-.003.079a.841.841 0 0 0-.002.085l.002-.085.005-.052Z"/><path d="M189.392 150.417c0-2.775 4.042-11.138 2.321-14.581-8.089-16.178-22.548-2.961-27.534 8.116-4.346 9.656-26.705 68.413-4.408 81.547 14.334 8.444 25.78-71.242 29.621-75.082.766-.767 1.042-1.293.646-1.293" style="fill:#fff"/><path d="M190.495 151.468c.507-.51.837-.956.999-1.265.209-.398.255-.744.247-.994a1.614 1.614 0 0 0-.4-1.032c.486-1.753 1.282-4.016 1.783-6.176.621-2.681.761-5.227-.048-6.846-1.787-3.575-3.891-5.82-6.102-7.075-3.676-2.088-7.734-1.554-11.566.601-5.266 2.962-10.101 9.053-12.618 14.645-3.077 6.836-15.054 38.007-14.244 60.646.364 10.186 3.351 18.658 10.452 22.841 2.298 1.354 4.547 1.074 6.724-.586 2.59-1.974 5.129-6.256 7.452-11.917 5.993-14.605 10.958-38.595 14.318-52.603.847-3.534 1.59-6.422 2.221-8.337.297-.902.753-1.842.782-1.902Zm-2.589-1.606c.237-1.907 1.505-5.343 2.248-8.55.436-1.878.763-3.659.195-4.794-2.123-4.247-4.655-6.284-7.407-6.646-2.778-.365-5.657.933-8.315 2.985-3.821 2.95-7.158 7.501-9.058 11.72-2.583 5.739-11.593 28.985-13.614 49.474-.661 6.706-.577 13.112.773 18.479 1.281 5.093 3.701 9.232 7.817 11.656 1.518.895 2.936.193 4.352-1.322 1.91-2.046 3.717-5.469 5.458-9.711 6.797-16.566 12.237-45.305 15.518-57.509.604-2.248 1.146-3.96 1.605-4.98a6.24 6.24 0 0 1 .428-.802Z"/><path d="M72.588 127.717c-4.416 1.369-8.661 3.429-10.082 7.442-1.52 4.291 2.866 23.329 6.145 31.224 6.631 15.964 6.656 58.642 23.334 58.642 23.136 0 5.07-78.386-10.109-95.155-3.401-3.756-9.063-2.223-9.288-2.153Z" style="fill:#fff"/><path d="M72.137 126.261c-4.894 1.517-9.493 3.942-11.068 8.389-.501 1.414-.496 4.286-.038 7.848.991 7.69 3.88 18.853 6.212 24.469 3.966 9.547 5.544 28.683 9.776 42.461 1.476 4.804 3.279 8.976 5.562 11.957 2.504 3.27 5.589 5.164 9.404 5.164 4.048 0 7.04-2.017 9.099-5.58 1.858-3.217 2.933-7.785 3.31-13.223 1.012-14.622-2.945-35.737-8.61-52.85-3.817-11.533-8.434-21.249-12.779-26.048-3.984-4.402-10.605-2.668-10.868-2.587Zm.902 2.912c.186-.058 4.891-1.391 7.707 1.72 4.156 4.592 8.492 13.927 12.145 24.961 5.54 16.737 9.452 37.381 8.462 51.682-.338 4.89-1.237 9.015-2.908 11.908-1.472 2.546-3.567 4.057-6.46 4.057-2.856 0-5.109-1.521-6.984-3.969-2.097-2.737-3.713-6.587-5.068-10.999-4.261-13.869-5.883-33.124-9.875-42.735-2.258-5.436-5.045-16.246-6.003-23.689-.377-2.924-.524-5.281-.113-6.441 1.268-3.58 5.159-5.274 9.097-6.495Z"/><path d="M171.937 215.063c-2.393 0-.821 5.408 2.586 7.111 5.672 2.836 10.969-10.896 12.283-14.222 9.502-24.065 28.333-70.919 29.248-75.636 1.429-7.359 5.527-19.753 6.321-30.384 2.575-34.454-13.848-49.458-32.864-68.475-4.835-4.836-25.781-19.721-67.352-20.737-34.88-.854-66.079 20.967-79.515 47.838-2.079 4.157-12.498 22.122-12.283 46.545.29 32.851 46.46 116.34 46.46 116.34 8.319.661-1.977-27.413-2.687-30.715-5.517-25.664-10.57-39.906-15.328-61.059-7.39-32.85 5.635-68.882 26.505-80.808 14.466-8.267 36.389-12.491 43.452-11.367 22.732 3.615 30.857 2.917 53.071 25.864 5.203 5.375 13.492 13.876 16.849 28.475 3.958 17.215-14.83 90.217-26.746 121.23Z" style="fill:#fff"/><path d="M170.797 213.778a2.476 2.476 0 0 0-.5.308c-.559.443-.941 1.143-1.019 2.062-.076.889.153 2.061.699 3.237.76 1.637 2.125 3.283 3.864 4.152 2.281 1.141 4.556.451 6.616-1.43 3.749-3.424 6.805-11.161 7.766-13.595 9.535-24.149 28.408-71.172 29.327-75.905 1.438-7.402 5.546-19.869 6.345-30.562 2.617-35.028-13.973-50.332-33.306-69.666-4.913-4.913-26.158-20.15-68.393-21.183-35.494-.868-67.243 21.336-80.915 48.68-2.109 4.219-12.662 22.455-12.444 47.241.088 9.985 4.326 24.596 10.263 40.147 13.708 35.903 36.387 76.917 36.387 76.917.248.447.703.741 1.213.781 3.329.265 4.992-2.571 4.867-7.278-.221-8.325-5.441-22.94-5.943-25.276-5.519-25.67-10.572-39.916-15.331-61.073-4.357-19.369-1.495-39.864 5.924-55.692 4.887-10.426 11.744-18.827 19.85-23.459 14.142-8.081 35.552-12.284 42.457-11.185 22.36 3.556 30.364 2.847 52.215 25.419 5.074 5.242 13.185 13.518 16.459 27.756 1.162 5.056.265 15.022-1.797 27.323-4.847 28.9-16.31 70.432-24.605 92.281h.001Zm1.544 2.753a1.52 1.52 0 0 0 1.019-.921c8.367-21.778 20.114-64.195 25.047-93.609 2.151-12.832 2.974-23.236 1.761-28.51-3.44-14.959-11.908-23.685-17.239-29.193-22.577-23.322-30.823-22.635-53.926-26.31-7.223-1.148-29.657 3.097-44.448 11.55C75.964 54.447 68.636 63.3 63.457 74.35c-7.68 16.386-10.649 37.602-6.138 57.654 4.757 21.147 9.809 35.387 15.325 61.044.492 2.287 5.66 16.571 5.876 24.717.032 1.213-.043 2.272-.304 3.092-.127.399-.306.721-.579.905-3.443-6.305-23.268-43.053-35.689-75.586-5.783-15.146-9.977-29.361-10.063-39.086-.212-24.062 10.074-41.755 12.122-45.85 13.199-26.398 43.849-47.835 78.115-46.997 40.907 1.001 61.553 15.533 66.311 20.291 18.7 18.701 34.954 33.404 32.423 67.284-.79 10.571-4.877 22.891-6.298 30.208-.912 4.7-19.701 51.384-29.17 75.366-.761 1.927-2.89 7.481-5.668 11.017-.805 1.025-1.651 1.878-2.554 2.334-.634.319-1.293.402-1.962.068-1.338-.669-2.295-2.082-2.703-3.312-.099-.299-.142-.715-.16-.968Z"/><path d="M22.959 170.258c1.848-1.848 11.65 9.458 12.578 10.591 4.496 5.489 6.913 13.495 10.592 21.846.906 2.057 3.972 15.742 3.972 13.901" style="fill:#fff"/><path d="M23.603 171.639c.314.158 1.156.601 1.78 1.084 3.48 2.689 8.342 8.319 8.975 9.092 4.42 5.396 6.759 13.284 10.376 21.494.559 1.268 1.94 7.058 2.898 10.715.47 1.797.885 3.135 1.055 3.435.539.955 1.368.869 1.704.796.251-.054 1.234-.335 1.234-1.659 0-.388-.146-.742-.385-1.011a72.963 72.963 0 0 1-.66-2.333c-.999-3.816-2.474-9.848-3.057-11.172-3.74-8.492-6.235-16.615-10.807-22.196-.771-.941-7.459-8.608-11.074-10.667-.789-.45-1.495-.666-2.041-.685-.712-.026-1.282.211-1.719.648a1.524 1.524 0 0 0 1.721 2.459Z"/><path d="M231.483 166.948c-2.037-2.038-7.042 3.732-7.944 4.634-4.802 4.802-13.381 16.359-16.88 27.803-.623 2.035-2.648 17.597-2.648 16.549" style="fill:#fff"/><path d="M202.592 215.379a1.505 1.505 0 0 0-.105.555c0 .928.586 1.254.691 1.323.303.2.623.272.953.247.286-.021.626-.114.947-.425.05-.047.362-.347.488-1.017.33-1.758 1.996-14.418 2.55-16.232 3.42-11.184 11.808-22.477 16.501-27.171.514-.514 2.422-2.707 4.293-3.951.397-.264.787-.484 1.157-.602.074-.024.147-.043.218-.056.041-.006.106-.008.137-.008a1.525 1.525 0 0 0 2.139-2.172c-1.048-1.047-2.538-1.142-4.174-.368-2.387 1.13-5.249 4.325-5.926 5.002-4.91 4.911-13.681 16.732-17.26 28.435-.554 1.814-2.226 14.259-2.609 16.44Zm2.632-.366c.195.255.311.575.311.921 0-.441-.15-.733-.311-.921Z"/></svg>