<svg viewBox="0 0 246 246" xmlns="http://www.w3.org/2000/svg" xml:space="preserve" style="fill-rule:evenodd;clip-rule:evenodd;stroke-linejoin:round;stroke-miterlimit:2"><path d="M65.455 83.263c-16.77 4.104-30.01 22.331-38.395 36.012-8.289 13.525-12.18 32.172-11.916 46.074.253 13.231 3.046 32.304 13.505 37.335 7.162 3.446 16.623 4.145 23.831.795 12.534-5.826 36.232-29.613 51.37-35.747 12.193-4.941 27.241-5.952 39.454-1.059 15.314 6.134 39.145 32.26 52.429 37.865 8.476 3.576 21.461 2.895 27.273-4.237 6.223-7.635 11.781-27.419 10.062-41.572-1.898-15.623-12.886-39.542-21.448-52.164-7.127-10.507-17.352-21.782-29.921-23.567-13.99-1.986-36.393 13.728-54.812 13.769-5.868.014-12.279-1.596-18.83-3.733-15.081-4.92-30.911-12.632-42.602-9.771Z"/><path d="M65.242 82.395c-16.985 4.157-30.451 22.557-38.944 36.413-8.377 13.667-12.314 32.51-12.047 46.558.153 8.035 1.242 18.196 4.367 26.141 2.149 5.464 5.275 9.881 9.644 11.982 7.392 3.556 17.156 4.257 24.595.8 6.31-2.933 15.439-10.375 24.887-17.868 9.309-7.383 18.932-14.818 26.441-17.861 11.987-4.858 26.78-5.867 38.786-1.058 7.592 3.041 17.283 11.055 26.734 18.986 9.613 8.066 18.983 16.047 25.68 18.873 5.247 2.214 12.167 2.849 18.159 1.411 4.071-.976 7.711-2.908 10.155-5.906 6.324-7.76 12.004-27.86 10.256-42.245-1.912-15.739-12.97-39.842-21.595-52.558-7.262-10.705-17.729-22.131-30.536-23.949-5.714-.812-12.811 1.23-20.464 4.022-11.146 4.065-23.518 9.713-34.475 9.738-5.782.013-12.096-1.584-18.551-3.69-9.07-2.959-18.412-6.922-26.965-9.003-5.841-1.421-11.324-1.961-16.126-.786h-.001Zm.425 1.736c4.551-1.114 9.745-.56 15.28.787 8.511 2.07 17.806 6.021 26.832 8.965 6.649 2.169 13.155 3.792 19.11 3.778 9.308-.021 19.629-3.979 29.384-7.704 9.489-3.623 18.422-7.05 25.3-6.074 12.332 1.751 22.315 12.875 29.308 23.183 8.497 12.528 19.417 36.264 21.3 51.771 1.691 13.922-3.747 33.39-9.868 40.9-2.206 2.706-5.511 4.416-9.185 5.297-5.626 1.35-12.123.759-17.048-1.319-6.586-2.779-15.774-10.664-25.226-18.596-9.614-8.067-19.496-16.183-27.218-19.276-12.419-4.975-27.723-3.964-40.122 1.061-7.628 3.091-17.423 10.616-26.881 18.117-9.319 7.39-18.306 14.755-24.529 17.647-6.977 3.243-16.135 2.546-23.068-.789-3.999-1.924-6.787-6.025-8.755-11.027-3.051-7.755-4.094-17.677-4.243-25.52-.262-13.756 3.582-32.208 11.784-45.59 8.277-13.506 21.29-31.559 37.845-35.611Z"/><path d="M70.03 93.731C55 97.015 43.134 111.599 35.619 122.545c-7.429 10.822-10.916 25.742-10.679 36.865.226 10.587 1.141 31.938 10.515 35.963 6.419 2.757 16.222-1.45 21.887-7.043 8.654-8.544 31.413-26.342 44.979-31.25 10.928-3.954 29.181-4.497 40.126-.583 13.724 4.909 36.825 22.206 45.663 31.356 8.392 8.688 23.736 9.466 28.945 3.76 5.577-6.109 4.733-26.175 3.192-37.5-1.701-12.5-8.371-30.579-16.044-40.678-6.388-8.407-18.729-18.488-29.994-19.916-12.538-1.589-32.615 10.984-49.123 11.017-17.364.036-40.027-14.089-55.056-10.805Z" style="fill:#fff"/><path d="M69.839 92.858c-15.249 3.332-27.332 18.075-34.956 29.181-7.535 10.976-11.077 26.108-10.836 37.39.137 6.411.532 16.733 2.863 24.842 1.626 5.654 4.235 10.224 8.192 11.923 2.731 1.173 6.038 1.188 9.409.37 4.905-1.19 9.951-4.135 13.459-7.598 8.594-8.485 31.184-26.172 44.655-31.046 10.763-3.894 28.741-4.437 39.521-.581 13.624 4.872 36.548 22.052 45.322 31.135 5.213 5.397 13.014 7.856 19.589 7.676 4.51-.124 8.438-1.503 10.658-3.935 2.325-2.547 3.64-7.402 4.206-13.091.82-8.254.144-18.28-.788-25.131-1.719-12.63-8.466-30.895-16.219-41.099-6.51-8.568-19.111-18.806-30.593-20.261-5.122-.649-11.482.984-18.342 3.218-9.988 3.253-21.076 7.772-30.895 7.792-8.599.017-18.506-3.492-28.129-6.578-9.881-3.17-19.473-5.877-27.116-4.207Zm.381 1.746c7.387-1.614 16.641 1.099 26.19 4.162 9.807 3.146 19.913 6.682 28.677 6.664 8.344-.017 17.594-3.184 26.337-6.165 8.504-2.899 16.51-5.64 22.673-4.859 11.049 1.4 23.129 11.324 29.394 19.569 7.593 9.994 14.188 27.888 15.871 40.259.917 6.738 1.587 16.596.78 24.713-.519 5.226-1.611 9.724-3.747 12.064-1.948 2.133-5.43 3.244-9.387 3.352-6.125.169-13.399-2.103-18.255-7.13-8.903-9.218-32.18-26.633-46.005-31.577-11.11-3.973-29.639-3.429-40.731.584-13.661 4.942-36.588 22.85-45.303 31.454-3.29 3.249-8.022 6.017-12.624 7.133-2.967.72-5.879.758-8.283-.275-3.542-1.521-5.724-5.715-7.179-10.775-2.288-7.96-2.66-18.093-2.794-24.386-.234-10.964 3.199-25.673 10.522-36.34C43.761 112.264 55.41 97.84 70.22 94.604Z"/><path d="M51.686 126.424c1.214 1.214-1.225 12.015-.265 12.975.721.721 6.642-1.037 7.414-.265.605.605 6.778.901 7.414.265 2.172-2.172 4.136-4.4 6.091-6.355.015-.016-3.385-3.384-5.561-5.561-1.678-1.678-4.613-1.324-7.679-1.324h-5.296c-.651 0-2.839.265-1.589.265"/><path d="M51.526 125.527a.913.913 0 0 0-.533 1.49c.015.079.123.664.127 1.138.01 1.252-.179 3.006-.378 4.749-.242 2.13-.495 4.245-.459 5.49.024.851.258 1.415.493 1.65.215.215.634.413 1.245.44.759.033 1.99-.148 3.224-.335.867-.132 1.736-.263 2.41-.296.251-.012.567.014.651.022.219.156.609.332 1.144.445.99.208 2.639.342 4.086.347 1.007.003 1.919-.061 2.472-.19.438-.102.732-.279.886-.433 2.172-2.172 4.136-4.401 6.09-6.355.016-.016.543-.735-.083-1.381-.56-.577-3.515-3.507-5.477-5.47-.803-.802-1.837-1.237-3.034-1.444-1.548-.269-3.394-.147-5.29-.147h-5.296c-.519 0-1.895.159-2.186.248a.829.829 0 0 0-.092.032Zm19.535 7.515c-1.079-1.083-3.332-3.319-4.927-4.914-.693-.693-1.661-.928-2.757-1.028-1.301-.119-2.773-.029-4.277-.029h-5.296c-.187 0-.571.038-.922.079.016.106.028.217.037.333.1 1.319-.12 3.481-.364 5.627-.2 1.754-.412 3.497-.447 4.713-.008.292.014.617.034.832.125.005.282.007.421-.001.67-.041 1.538-.176 2.409-.308 1.239-.188 2.483-.363 3.258-.316.535.033.926.191 1.164.383.188.031 2.586.425 4.148.43.662.002 1.277-.024 1.739-.087.149-.021.327-.063.403-.082 1.906-1.911 3.653-3.864 5.377-5.632ZM97.53 126.424c-1.214 1.214 1.225 12.015.265 12.975-.721.721-6.642-1.037-7.415-.265-.605.605-6.778.901-7.414.265-2.171-2.172-4.135-4.4-6.09-6.355-.015-.016 3.385-3.384 5.561-5.561 1.678-1.678 4.612-1.324 7.679-1.324h5.296c.651 0 2.839.265 1.588.265"/><path d="M90.909 139.875c.084-.008.4-.034.651-.022.675.033 1.543.164 2.41.296 1.234.187 2.466.368 3.224.335.612-.027 1.03-.225 1.246-.44.235-.235.469-.799.493-1.65.035-1.245-.217-3.36-.46-5.49-.198-1.743-.388-3.497-.378-4.749a7.471 7.471 0 0 1 .127-1.138.912.912 0 0 0-.533-1.49.811.811 0 0 0-.091-.032c-.291-.089-1.667-.248-2.186-.248h-5.296c-1.896 0-3.743-.122-5.29.147-1.198.207-2.231.642-3.034 1.444-1.962 1.963-4.918 4.893-5.478 5.47-.626.646-.098 1.365-.083 1.381 1.955 1.954 3.919 4.183 6.09 6.355.155.154.449.331.887.433.552.129 1.465.193 2.471.19 1.447-.005 3.096-.139 4.086-.347.536-.113.926-.289 1.144-.445Zm5.425-12.725a10.442 10.442 0 0 0-.922-.079h-5.296c-1.504 0-2.976-.09-4.277.029-1.097.1-2.064.335-2.757 1.028-1.595 1.595-3.848 3.831-4.927 4.914 1.723 1.768 3.471 3.721 5.377 5.632.075.019.254.061.402.082.463.063 1.078.089 1.74.087 1.562-.005 3.96-.399 4.148-.43.238-.192.629-.35 1.164-.383.774-.047 2.018.128 3.258.316.87.132 1.739.267 2.409.308.138.008.295.006.421.001.02-.215.042-.54.034-.832-.035-1.216-.247-2.959-.447-4.713-.244-2.146-.464-4.308-.364-5.627.009-.116.021-.227.037-.333ZM68.488 110.417c1.214 1.214 12.014-1.226 12.974-.265.721.721-1.037 6.642-.264 7.414.605.605.9 6.778.264 7.414-2.171 2.172-4.4 4.136-6.355 6.09-.015.016-3.384-3.384-5.56-5.56-1.678-1.678-1.324-4.613-1.324-7.679v-5.296c0-.651.265-2.839.265-1.589"/><path d="M69.081 109.724a.913.913 0 0 0-1.491.533 1.1 1.1 0 0 0-.032.092c-.089.291-.247 1.667-.247 2.186v5.296c0 1.896-.122 3.742.146 5.29.208 1.197.642 2.231 1.445 3.034 1.962 1.962 4.892 4.917 5.47 5.477.646.626 1.365.099 1.38.083 1.955-1.954 4.184-3.918 6.355-6.09.155-.154.331-.448.433-.886.129-.553.193-1.465.19-2.472-.004-1.447-.139-3.096-.347-4.086-.113-.535-.288-.926-.444-1.144a5.27 5.27 0 0 1-.023-.651c.033-.674.165-1.543.296-2.41.188-1.234.369-2.466.335-3.224-.026-.611-.225-1.03-.44-1.245-.235-.235-.799-.469-1.649-.493-1.246-.036-3.361.217-5.491.459-1.743.198-3.496.388-4.749.378a7.47 7.47 0 0 1-1.137-.127Zm11.637 1.148a7.39 7.39 0 0 0-.831-.033c-1.216.034-2.959.247-4.714.447-2.145.244-4.308.464-5.626.364a4.607 4.607 0 0 1-.334-.037c-.04.351-.078.735-.078.922v5.296c0 1.504-.09 2.976.029 4.277.1 1.096.334 2.064 1.028 2.757 1.594 1.595 3.831 3.848 4.913 4.927 1.768-1.724 3.721-3.471 5.633-5.377.018-.076.061-.254.081-.403.063-.462.089-1.077.087-1.739-.004-1.562-.399-3.96-.43-4.148-.191-.239-.35-.629-.382-1.164-.047-.775.127-2.019.315-3.258.132-.871.268-1.739.308-2.409.008-.139.006-.296.001-.422ZM68.488 155.996c1.214-1.214 12.014 1.225 12.974.265.721-.721-1.037-6.642-.264-7.414.605-.605.9-6.779.264-7.415-2.171-2.171-4.4-4.135-6.355-6.09-.015-.015-3.384 3.385-5.56 5.561-1.678 1.678-1.324 4.612-1.324 7.679v5.296c0 .651.265 2.839.265 1.588"/><path d="M67.59 156.156a.912.912 0 0 0 1.491.532 7.47 7.47 0 0 1 1.137-.127c1.253-.01 3.006.18 4.749.378 2.13.243 4.245.495 5.491.46.85-.024 1.414-.258 1.649-.493.215-.216.414-.634.44-1.246.034-.758-.147-1.99-.335-3.224-.131-.867-.263-1.735-.296-2.41a5.28 5.28 0 0 1 .023-.651c.156-.218.331-.608.444-1.144.208-.99.343-2.639.347-4.086.003-1.006-.061-1.918-.19-2.471-.102-.438-.278-.732-.433-.886-2.171-2.172-4.4-4.136-6.355-6.091-.015-.015-.734-.543-1.38.084-.578.56-3.508 3.515-5.47 5.477-.803.803-1.237 1.836-1.445 3.034-.268 1.547-.146 3.394-.146 5.29v5.296c0 .519.158 1.895.247 2.186.01.032.02.062.032.092Zm7.515-19.535c-1.082 1.079-3.319 3.332-4.913 4.927-.694.693-.928 1.661-1.028 2.757-.119 1.301-.029 2.773-.029 4.277v5.296c0 .187.038.571.078.922.106-.016.217-.028.334-.037 1.318-.1 3.481.12 5.626.364 1.755.2 3.498.412 4.714.447.292.008.617-.014.831-.034a4.555 4.555 0 0 0-.001-.421c-.04-.67-.176-1.539-.308-2.409-.188-1.24-.362-2.483-.315-3.258.032-.535.191-.926.382-1.164.031-.188.426-2.586.43-4.148.002-.662-.024-1.277-.087-1.74-.02-.148-.063-.327-.081-.402-1.912-1.906-3.864-3.653-5.633-5.377Z"/><path d="M142.506 93.785c0 .203-8.103 2.937-15.456 3.076-7.105.135-13.47-2.317-13.47-2.513 0-.675.117-3.241.117-4.121 0-.73-.082-7.376 0-7.457.406-.406 3.93-.169 4.575-.169 3.044 0 9.023-.289 12.372-.339 2.703-.041 5.967 0 7.117 0 1.091 0 4.237-.339 4.237-.339s.299 4.039.508 5.931c.132 1.193-.939 5.931 0 5.931Z" style="fill:#fff"/><path d="M143.063 93.063a8.615 8.615 0 0 1-.015-.965c.097-1.534.447-3.602.365-4.344-.208-1.882-.506-5.899-.506-5.899a.91.91 0 0 0-1.007-.839s-3.073.334-4.139.334c-1.152 0-4.423-.041-7.131 0-3.346.05-9.317.339-12.358.339-.531 0-2.959-.148-4.123.003-.56.073-.936.272-1.097.433-.034.034-.265.293-.286.817-.047 1.148.019 6.625.019 7.285 0 .88-.117 3.446-.117 4.121 0 .104.053.624.695.94 1.129.556 7.106 2.61 13.705 2.485 6.767-.128 14.154-2.412 15.564-3.018.417-.179.597-.404.641-.473a.9.9 0 0 0 .145-.497.91.91 0 0 0-.355-.722Zm-1.819.268c-2.271.792-8.475 2.509-14.211 2.618-5.702.109-10.914-1.489-12.53-2.15.028-1.021.106-2.855.106-3.572 0-.581-.053-4.934-.032-6.689.954-.008 3.264-.025 3.695-.025 3.047 0 9.033-.289 12.385-.34 2.698-.04 5.956.001 7.104.001.73 0 2.359-.148 3.399-.249.102 1.315.293 3.699.44 5.029.048.44-.097 1.4-.213 2.397-.132 1.122-.233 2.282-.143 2.98ZM181.169 117.951c-1.249-6.651-4.91-7.205-9.602-8.303-2.865-.67-8.212 4.373-8.139 8.568.111 6.367 3.707 8.364 8.473 8.738 6.84.536 9.708-6.661 9.268-9.003Z"/><path d="M182.065 117.782c-.545-2.905-1.541-4.731-2.833-5.969-1.887-1.809-4.464-2.353-7.457-3.053-1.352-.316-3.207.348-4.899 1.693-2.365 1.88-4.408 5.012-4.36 7.779.061 3.512 1.132 5.801 2.797 7.281 1.646 1.465 3.916 2.146 6.517 2.35 4.535.356 7.503-2.345 9.036-5.138 1.052-1.915 1.399-3.877 1.199-4.943Zm-1.792.337c.152.809-.207 2.274-1.006 3.728-1.241 2.262-3.622 4.486-7.294 4.198-2.166-.17-4.077-.675-5.448-1.894-1.353-1.204-2.135-3.097-2.185-5.951-.04-2.267 1.732-4.779 3.671-6.319 1.178-.937 2.407-1.565 3.348-1.345 2.638.617 4.948.999 6.61 2.593 1.075 1.03 1.85 2.574 2.304 4.99ZM166.934 131.915c-1.25-6.651-4.91-7.205-9.602-8.303-2.865-.67-8.213 4.373-8.139 8.568.111 6.367 3.706 8.364 8.473 8.738 6.84.536 9.708-6.661 9.268-9.003Z"/><path d="M167.83 131.747c-.546-2.905-1.542-4.732-2.833-5.97-1.887-1.809-4.464-2.353-7.458-3.053-1.351-.316-3.206.348-4.898 1.693-2.366 1.88-4.408 5.012-4.36 7.779.061 3.512 1.132 5.801 2.796 7.282 1.647 1.464 3.917 2.145 6.518 2.349 4.535.356 7.502-2.345 9.036-5.138 1.052-1.915 1.399-3.877 1.199-4.942Zm-1.793.336c.152.809-.207 2.274-1.005 3.728-1.242 2.262-3.622 4.486-7.295 4.198-2.165-.17-4.077-.675-5.447-1.894-1.353-1.204-2.136-3.097-2.185-5.951-.04-2.267 1.732-4.779 3.671-6.319 1.178-.937 2.407-1.565 3.348-1.345 2.638.617 4.948.999 6.61 2.593 1.075 1.031 1.85 2.574 2.303 4.99ZM181.576 146.557c-1.25-6.651-4.91-7.205-9.602-8.303-2.865-.67-8.213 4.373-8.139 8.568.111 6.367 3.706 8.364 8.473 8.738 6.84.536 9.708-6.661 9.268-9.003Z"/><path d="M182.472 146.388c-.546-2.905-1.542-4.731-2.833-5.969-1.887-1.809-4.464-2.353-7.458-3.053-1.351-.316-3.206.348-4.898 1.693-2.366 1.88-4.409 5.012-4.36 7.779.061 3.512 1.132 5.801 2.796 7.281 1.647 1.465 3.916 2.146 6.518 2.35 4.535.356 7.502-2.345 9.036-5.138 1.052-1.915 1.399-3.877 1.199-4.943Zm-1.793.337c.152.809-.207 2.274-1.005 3.728-1.242 2.262-3.623 4.486-7.295 4.198-2.165-.17-4.077-.675-5.447-1.894-1.353-1.204-2.136-3.097-2.186-5.951-.039-2.267 1.733-4.779 3.672-6.319 1.178-.937 2.407-1.565 3.348-1.345 2.638.617 4.948.999 6.61 2.593 1.074 1.03 1.849 2.574 2.303 4.99ZM195.811 132.05c-1.25-6.651-4.91-7.205-9.602-8.302-2.865-.67-8.212 4.373-8.139 8.567.111 6.367 3.707 8.365 8.473 8.738 6.84.537 9.708-6.66 9.268-9.003Z"/><path d="M196.707 131.882c-.546-2.905-1.541-4.731-2.833-5.97-1.887-1.809-4.464-2.352-7.457-3.052-1.352-.316-3.207.347-4.899 1.692-2.365 1.88-4.408 5.013-4.36 7.779.061 3.513 1.132 5.802 2.797 7.282 1.646 1.465 3.916 2.146 6.517 2.35 4.535.355 7.503-2.345 9.036-5.138 1.052-1.916 1.399-3.878 1.199-4.943Zm-1.792.337c.151.809-.207 2.274-1.006 3.728-1.241 2.261-3.622 4.485-7.294 4.197-2.166-.17-4.077-.674-5.448-1.894-1.353-1.203-2.135-3.096-2.185-5.951-.04-2.267 1.732-4.778 3.671-6.319 1.178-.936 2.407-1.564 3.348-1.344 2.638.617 4.948.999 6.61 2.593 1.075 1.03 1.85 2.574 2.304 4.99ZM122.848 82.262c.65-.65-1.704-3.093-3.409-5.909-1.08-1.783-3.697-8.921-3.2-12.394.565-3.951 1.091-4.65 2.711-6.27 3.205-3.205 7.64-5.267 10.846-8.473.965-.965 1.581-2.081 1.864-3.051.989-3.387-1.427-6.342-2.542-7.456-.233-.233-.847-.509-.847-.509s2.659-.169 3.728-.169c2.228 0 4.426-.17 6.44-.17.113 0 .259-.08.339 0 .17.17.867 4.157.174 6.92-.435 1.738-.755 4.915-2.639 7.643-1.163 1.684-1.741 3.181-4.732 4.839-2.304 1.277-4.054 2.964-5.039 4.009-1.47 1.56-1.94 2.939-1.999 4.212-.16 3.427 3.45 6.096 5.423 9.491.621 1.069 1.347 2.548 1.525 4.236.107 1.013.169 3.051.169 3.051s.17-.445.17-.678"/><path d="M122.011 81.9a.911.911 0 0 0 1.482 1.006c.393-.393.536-1.127.038-2.093-.582-1.13-2.106-2.94-3.312-4.932-1.028-1.698-3.551-8.486-3.077-11.793.518-3.618.97-4.271 2.453-5.754 3.205-3.205 7.639-5.267 10.846-8.474 1.087-1.087 1.776-2.347 2.095-3.439.895-3.068-.663-5.833-1.949-7.435a34.387 34.387 0 0 1 1.412-.043c2.096 0 4.164-.15 6.079-.168.221 1.204.481 3.825-.01 5.785-.419 1.668-.697 4.727-2.505 7.346-1.092 1.58-1.617 3.003-4.424 4.559-2.405 1.333-4.233 3.091-5.261 4.182-1.669 1.771-2.179 3.349-2.246 4.795-.073 1.56.512 2.991 1.418 4.383 1.187 1.823 2.951 3.585 4.127 5.608.569.979 1.244 2.328 1.407 3.874.104.99.165 2.983.165 2.983a.911.911 0 0 0 1.764.296s.229-.66.229-1.002a.905.905 0 0 0-.22-.593 36.813 36.813 0 0 0-.124-1.876c-.194-1.831-.97-3.439-1.644-4.599-1.003-1.726-2.419-3.272-3.567-4.818-.995-1.339-1.803-2.662-1.733-4.171.051-1.101.481-2.281 1.751-3.629.943-1 2.614-2.616 4.819-3.838 3.173-1.759 3.805-3.33 5.04-5.118 1.959-2.837 2.32-6.131 2.773-7.939.589-2.35.243-5.532-.016-6.804-.119-.586-.332-.916-.398-.983-.264-.264-1.077-.26-1.077-.26s.063-.007.093-.007c-2.014 0-4.212.17-6.44.17-1.085 0-3.786.171-3.786.171a.911.911 0 0 0-.315 1.742s.42.166.575.321c.984.984 3.184 3.568 2.312 6.557-.247.847-.791 1.818-1.634 2.661-3.206 3.206-7.641 5.268-10.846 8.473-1.756 1.757-2.356 2.502-2.969 6.786-.521 3.639 2.191 11.127 3.323 12.996 1.026 1.694 2.286 3.254 2.989 4.372.15.238.297.554.363.702Z"/></svg>