<?xml version="1.0" encoding="UTF-8" standalone="no"?>
<!DOCTYPE svg PUBLIC "-//W3C//DTD SVG 1.1//EN" "http://www.w3.org/Graphics/SVG/1.1/DTD/svg11.dtd">
<svg width="100%" height="100%" viewBox="0 0 492 492" version="1.1" xmlns="http://www.w3.org/2000/svg" xmlns:xlink="http://www.w3.org/1999/xlink" xml:space="preserve" xmlns:serif="http://www.serif.com/" style="fill-rule:evenodd;clip-rule:evenodd;stroke-linecap:round;stroke-linejoin:round;stroke-miterlimit:1.5;">
    <g transform="matrix(0.48,0,0,0.48,0,0)">
        <g>
            <path d="M272.729,346.93C202.853,364.031 147.688,439.975 112.75,496.978C78.211,553.333 61.999,631.029 63.102,688.952C64.152,744.085 75.79,823.555 119.37,844.518C149.215,858.873 188.635,861.786 218.667,847.828C270.89,823.555 369.635,724.442 432.707,698.882C483.511,678.294 546.213,674.085 597.099,694.469C660.906,720.029 760.203,828.888 815.552,852.241C850.871,867.143 904.973,864.303 929.192,834.588C955.119,802.776 978.281,720.343 971.117,661.37C963.21,596.275 917.423,496.611 881.75,444.02C852.054,400.242 809.452,353.261 757.077,345.826C698.786,337.552 605.444,403.023 528.694,403.198C504.245,403.254 477.535,396.545 450.236,387.64C387.4,367.143 321.441,335.008 272.729,346.93Z" style="stroke:black;stroke-width:7.45px;"/>
            <g transform="matrix(0.896216,0,0,0.800127,47.3657,112.958)">
                <path d="M272.729,346.93C202.853,364.031 147.688,439.975 112.75,496.978C78.211,553.333 61.999,631.029 63.102,688.952C64.152,744.085 68.403,855.27 111.984,876.232C141.828,890.588 187.404,868.681 213.743,839.554C253.978,795.06 359.787,702.379 422.859,676.82C473.663,656.232 558.523,653.402 609.409,673.785C673.217,699.345 780.616,789.424 821.707,837.073C860.72,882.311 932.057,886.365 956.275,856.65C982.203,824.839 978.281,720.343 971.117,661.37C963.21,596.275 932.196,502.126 896.523,449.536C866.827,405.757 809.452,353.261 757.077,345.826C698.786,337.552 605.444,403.023 528.694,403.198C447.97,403.382 342.604,329.829 272.729,346.93Z" style="fill:white;stroke:black;stroke-width:8.77px;"/>
            </g>
            <path d="M215.357,526.767C220.416,531.826 210.252,576.827 214.254,580.829C217.257,583.832 241.928,576.508 245.146,579.726C247.667,582.247 273.389,583.479 276.039,580.829C285.087,571.781 293.271,562.494 301.415,554.35C301.48,554.285 287.313,540.248 278.245,531.181C271.254,524.189 259.027,525.664 246.25,525.664L224.184,525.664C221.469,525.664 212.353,526.767 217.564,526.767"/>
            <path d="M214.692,523.027C213.952,523.157 213.242,523.509 212.67,524.08C211.257,525.494 211.191,527.748 212.472,529.239C212.535,529.568 212.985,532.005 213.001,533.979C213.044,539.197 212.252,546.504 211.426,553.765C210.417,562.641 209.364,571.453 209.512,576.642C209.613,580.186 210.588,582.537 211.567,583.516C212.464,584.413 214.208,585.238 216.756,585.35C219.915,585.489 225.047,584.734 230.189,583.954C233.802,583.406 237.421,582.857 240.231,582.72C241.276,582.669 242.592,582.78 242.943,582.813C243.852,583.464 245.479,584.196 247.71,584.665C251.834,585.533 258.705,586.093 264.735,586.111C268.929,586.124 272.73,585.858 275.032,585.32C276.859,584.894 278.082,584.16 278.726,583.516C287.774,574.468 295.958,565.181 304.102,557.037C304.167,556.972 306.364,553.976 303.755,551.285C301.421,548.878 289.108,536.67 280.932,528.494C277.588,525.149 273.281,523.34 268.292,522.474C261.843,521.356 254.149,521.864 246.25,521.864L224.184,521.864C222.019,521.864 216.286,522.525 215.075,522.894C214.941,522.935 214.814,522.979 214.692,523.027ZM296.087,554.342C291.591,549.83 282.203,540.512 275.558,533.868C272.67,530.979 268.638,530.002 264.071,529.585C258.649,529.089 252.517,529.464 246.25,529.464L224.184,529.464C223.405,529.464 221.804,529.623 220.341,529.79C220.407,530.232 220.458,530.696 220.495,531.18C220.911,536.674 219.995,545.684 218.978,554.624C218.146,561.935 217.261,569.197 217.116,574.264C217.082,575.48 217.175,576.835 217.256,577.729C217.781,577.748 218.435,577.758 219.012,577.723C221.803,577.555 225.422,576.99 229.05,576.44C234.214,575.656 239.397,574.931 242.625,575.126C244.853,575.26 246.481,575.922 247.474,576.719C248.257,576.85 258.249,578.492 264.757,578.511C267.517,578.52 270.078,578.412 272.006,578.149C272.624,578.064 273.368,577.887 273.682,577.809C281.624,569.846 288.904,561.709 296.087,554.342Z"/>
            <g transform="matrix(-1,0,0,1,621.732,0)">
                <path d="M215.357,526.767C220.416,531.826 210.252,576.827 214.254,580.829C217.257,583.832 241.928,576.508 245.146,579.726C247.667,582.247 273.389,583.479 276.039,580.829C285.087,571.781 293.271,562.494 301.415,554.35C301.48,554.285 287.313,540.248 278.245,531.181C271.254,524.189 259.027,525.664 246.25,525.664L224.184,525.664C221.469,525.664 212.353,526.767 217.564,526.767"/>
                <path d="M242.943,582.813C242.592,582.78 241.276,582.669 240.231,582.72C237.421,582.857 233.802,583.406 230.189,583.954C225.047,584.734 219.915,585.489 216.756,585.35C214.208,585.238 212.464,584.413 211.567,583.516C210.588,582.537 209.613,580.186 209.512,576.642C209.364,571.453 210.417,562.641 211.426,553.765C212.252,546.504 213.044,539.197 213.001,533.979C212.985,532.005 212.535,529.568 212.472,529.239C211.191,527.748 211.257,525.494 212.67,524.08C213.242,523.509 213.952,523.157 214.692,523.027C214.814,522.979 214.941,522.935 215.075,522.894C216.286,522.525 222.019,521.864 224.184,521.864L246.25,521.864C254.149,521.864 261.843,521.356 268.292,522.474C273.281,523.34 277.588,525.149 280.932,528.494C289.108,536.67 301.421,548.878 303.755,551.285C306.364,553.976 304.167,556.972 304.102,557.037C295.958,565.181 287.774,574.468 278.726,583.516C278.082,584.16 276.859,584.894 275.032,585.32C272.73,585.858 268.929,586.124 264.735,586.111C258.705,586.093 251.834,585.533 247.71,584.665C245.479,584.196 243.852,583.464 242.943,582.813ZM220.341,529.79C221.804,529.623 223.405,529.464 224.184,529.464L246.25,529.464C252.517,529.464 258.649,529.089 264.071,529.585C268.638,530.002 272.67,530.979 275.558,533.868C282.203,540.512 291.591,549.83 296.087,554.342C288.906,561.708 281.625,569.845 273.682,577.809C273.368,577.887 272.624,578.064 272.006,578.149C270.078,578.412 267.517,578.52 264.757,578.511C258.249,578.492 248.257,576.85 247.474,576.719C246.481,575.922 244.853,575.26 242.625,575.126C239.397,574.931 234.214,575.656 229.05,576.44C225.422,576.99 221.803,577.555 219.012,577.723C218.435,577.758 217.781,577.748 217.256,577.729C217.175,576.835 217.082,575.48 217.116,574.264C217.261,569.197 218.146,561.935 218.978,554.624C219.995,545.684 220.911,536.674 220.495,531.18C220.458,530.696 220.407,530.232 220.341,529.79Z"/>
            </g>
            <g transform="matrix(-6.12323e-17,1,1,6.12323e-17,-241.402,244.712)">
                <path d="M215.357,526.767C220.416,531.826 210.252,576.827 214.254,580.829C217.257,583.832 241.928,576.508 245.146,579.726C247.667,582.247 273.389,583.479 276.039,580.829C285.087,571.781 293.271,562.494 301.415,554.35C301.48,554.285 287.313,540.248 278.245,531.181C271.254,524.189 259.027,525.664 246.25,525.664L224.184,525.664C221.469,525.664 212.353,526.767 217.564,526.767"/>
                <path d="M212.472,529.239C211.191,527.748 211.257,525.494 212.67,524.08C213.242,523.509 213.952,523.157 214.692,523.027C214.814,522.979 214.941,522.935 215.075,522.894C216.286,522.525 222.019,521.864 224.184,521.864L246.25,521.864C254.149,521.864 261.843,521.356 268.292,522.474C273.281,523.34 277.588,525.149 280.932,528.494C289.108,536.67 301.421,548.878 303.755,551.285C306.364,553.976 304.167,556.972 304.102,557.037C295.958,565.181 287.774,574.468 278.726,583.516C278.082,584.16 276.859,584.894 275.032,585.32C272.73,585.858 268.929,586.124 264.735,586.111C258.705,586.093 251.834,585.533 247.71,584.665C245.479,584.196 243.852,583.464 242.943,582.813C242.592,582.78 241.276,582.669 240.231,582.72C237.421,582.857 233.802,583.406 230.189,583.954C225.047,584.734 219.915,585.489 216.756,585.35C214.208,585.238 212.464,584.413 211.567,583.516C210.588,582.537 209.613,580.186 209.512,576.642C209.364,571.453 210.417,562.641 211.426,553.765C212.252,546.504 213.044,539.197 213.001,533.979C212.985,532.005 212.535,529.568 212.472,529.239ZM217.256,577.729C217.175,576.835 217.082,575.48 217.116,574.264C217.261,569.197 218.146,561.935 218.978,554.624C219.995,545.684 220.911,536.674 220.495,531.18C220.458,530.696 220.407,530.232 220.341,529.79C221.804,529.623 223.405,529.464 224.184,529.464L246.25,529.464C252.517,529.464 258.649,529.089 264.071,529.585C268.638,530.002 272.67,530.979 275.558,533.868C282.203,540.512 291.591,549.83 296.087,554.342C288.906,561.708 281.625,569.845 273.682,577.809C273.368,577.887 272.624,578.064 272.006,578.149C270.078,578.412 267.517,578.52 264.757,578.511C258.249,578.492 248.257,576.85 247.474,576.719C246.481,575.922 244.853,575.26 242.625,575.126C239.397,574.931 234.214,575.656 229.05,576.44C225.422,576.99 221.803,577.555 219.012,577.723C218.435,577.758 217.781,577.748 217.256,577.729Z"/>
            </g>
            <g transform="matrix(-6.12323e-17,-1,1,-6.12323e-17,-241.402,865.341)">
                <path d="M215.357,526.767C220.416,531.826 210.252,576.827 214.254,580.829C217.257,583.832 241.928,576.508 245.146,579.726C247.667,582.247 273.389,583.479 276.039,580.829C285.087,571.781 293.271,562.494 301.415,554.35C301.48,554.285 287.313,540.248 278.245,531.181C271.254,524.189 259.027,525.664 246.25,525.664L224.184,525.664C221.469,525.664 212.353,526.767 217.564,526.767"/>
                <path d="M214.692,523.027C213.952,523.157 213.242,523.509 212.67,524.08C211.257,525.494 211.191,527.748 212.472,529.239C212.535,529.568 212.985,532.005 213.001,533.979C213.044,539.197 212.252,546.504 211.426,553.765C210.417,562.641 209.364,571.453 209.512,576.642C209.613,580.186 210.588,582.537 211.567,583.516C212.464,584.413 214.208,585.238 216.756,585.35C219.915,585.489 225.047,584.734 230.189,583.954C233.802,583.406 237.421,582.857 240.231,582.72C241.276,582.669 242.592,582.78 242.943,582.813C243.852,583.464 245.479,584.196 247.71,584.665C251.834,585.533 258.705,586.093 264.735,586.111C268.929,586.124 272.73,585.858 275.032,585.32C276.859,584.894 278.082,584.16 278.726,583.516C287.774,574.468 295.958,565.181 304.102,557.037C304.167,556.972 306.364,553.976 303.755,551.285C301.421,548.878 289.108,536.67 280.932,528.494C277.588,525.149 273.281,523.34 268.292,522.474C261.843,521.356 254.149,521.864 246.25,521.864L224.184,521.864C222.019,521.864 216.286,522.525 215.075,522.894C214.941,522.935 214.814,522.979 214.692,523.027ZM296.087,554.342C291.591,549.83 282.203,540.512 275.558,533.868C272.67,530.979 268.638,530.002 264.071,529.585C258.649,529.089 252.517,529.464 246.25,529.464L224.184,529.464C223.405,529.464 221.804,529.623 220.341,529.79C220.407,530.232 220.458,530.696 220.495,531.18C220.911,536.674 219.995,545.684 218.978,554.624C218.146,561.935 217.261,569.197 217.116,574.264C217.082,575.48 217.175,576.835 217.256,577.729C217.781,577.748 218.435,577.758 219.012,577.723C221.803,577.555 225.422,576.99 229.05,576.44C234.214,575.656 239.397,574.931 242.625,575.126C244.853,575.26 246.481,575.922 247.474,576.719C248.257,576.85 258.249,578.492 264.757,578.511C267.517,578.52 270.078,578.412 272.006,578.149C272.624,578.064 273.368,577.887 273.682,577.809C281.624,569.846 288.904,561.709 296.087,554.342Z"/>
            </g>
            <path d="M593.776,390.772C593.776,391.619 560.014,403.007 529.377,403.588C499.769,404.15 473.25,393.935 473.25,393.117C473.25,390.303 473.737,379.613 473.737,375.944C473.737,372.906 473.398,345.214 473.737,344.875C475.428,343.184 490.113,344.169 492.802,344.169C505.483,344.169 530.394,342.968 544.348,342.757C555.611,342.586 569.213,342.757 574.005,342.757C578.551,342.757 591.658,341.344 591.658,341.344C591.658,341.344 592.906,358.173 593.776,366.058C594.324,371.027 589.861,390.772 593.776,390.772Z" style="fill:white;"/>
            <path d="M596.094,387.762C596.037,386.87 595.949,385.114 596.035,383.742C596.437,377.349 597.894,368.734 597.553,365.641C596.688,357.8 595.447,341.063 595.447,341.063C595.371,340.036 594.881,339.084 594.09,338.425C593.299,337.766 592.274,337.456 591.25,337.566C591.25,337.566 578.447,338.957 574.005,338.957C569.204,338.957 555.575,338.786 544.29,338.957C530.352,339.168 505.469,340.369 492.802,340.369C490.587,340.369 480.47,339.752 475.62,340.384C473.288,340.688 471.72,341.518 471.05,342.188C470.91,342.328 469.946,343.41 469.858,345.592C469.664,350.377 469.937,373.196 469.937,375.944C469.937,379.613 469.45,390.303 469.45,393.117C469.45,393.548 469.672,395.718 472.344,397.033C477.052,399.351 501.953,407.91 529.449,407.388C557.646,406.852 588.424,397.336 594.299,394.813C596.038,394.066 596.789,393.129 596.972,392.841C597.45,392.09 597.576,391.375 597.576,390.772C597.576,389.547 596.996,388.456 596.094,387.762ZM588.515,388.88C579.054,392.177 553.205,399.335 529.305,399.789C505.545,400.24 483.828,393.584 477.096,390.829C477.214,386.574 477.537,378.931 477.537,375.944C477.537,373.525 477.318,355.389 477.405,348.075C481.381,348.044 491.005,347.969 492.802,347.969C505.497,347.969 530.436,346.768 544.406,346.556C555.646,346.386 569.222,346.557 574.005,346.557C577.046,346.557 583.832,345.943 588.165,345.519C588.59,350.998 589.387,360.933 589.999,366.475C590.201,368.306 589.597,372.31 589.111,376.462C588.564,381.139 588.141,385.972 588.515,388.88Z"/>
            <path d="M754.871,491.462C749.665,463.748 734.413,461.44 714.862,456.867C702.927,454.076 680.644,475.089 680.95,492.565C681.413,519.094 696.394,527.416 716.255,528.974C744.754,531.21 756.704,501.222 754.871,491.462Z"/>
            <path d="M758.605,490.76C756.332,478.656 752.182,471.047 746.799,465.886C738.938,458.349 728.199,456.084 715.728,453.167C710.097,451.85 702.367,454.616 695.317,460.219C685.461,468.053 676.949,481.106 677.15,492.632C677.406,507.267 681.867,516.804 688.803,522.973C695.663,529.075 705.12,531.912 715.958,532.762C734.856,534.245 747.219,522.993 753.609,511.355C757.991,503.373 759.439,495.199 758.605,490.76L758.605,490.76ZM751.136,492.163C751.769,495.533 750.274,501.638 746.947,507.697C741.773,517.12 731.853,526.386 716.552,525.186C707.529,524.478 699.565,522.375 693.854,517.294C688.217,512.281 684.957,504.393 684.749,492.499C684.584,483.053 691.968,472.589 700.045,466.169C704.954,462.268 710.077,459.651 713.997,460.568C724.987,463.138 734.612,464.73 741.539,471.372C746.016,475.664 749.245,482.096 751.136,492.163L751.136,492.163Z"/>
            <g transform="matrix(1,0,0,1,-59.3134,58.1836)">
                <path d="M754.871,491.462C749.665,463.748 734.413,461.44 714.862,456.867C702.927,454.076 680.644,475.089 680.95,492.565C681.413,519.094 696.394,527.416 716.255,528.974C744.754,531.21 756.704,501.222 754.871,491.462Z"/>
                <path d="M758.605,490.76C756.332,478.656 752.182,471.047 746.799,465.886C738.938,458.349 728.199,456.084 715.728,453.167C710.097,451.85 702.367,454.616 695.317,460.219C685.461,468.053 676.949,481.106 677.15,492.632C677.406,507.267 681.867,516.804 688.803,522.973C695.663,529.075 705.12,531.912 715.958,532.762C734.856,534.245 747.219,522.993 753.609,511.355C757.991,503.373 759.439,495.199 758.605,490.76L758.605,490.76ZM751.136,492.163C751.769,495.533 750.274,501.638 746.947,507.697C741.773,517.12 731.853,526.386 716.552,525.186C707.529,524.478 699.565,522.375 693.854,517.294C688.217,512.281 684.957,504.393 684.749,492.499C684.584,483.053 691.968,472.589 700.045,466.169C704.954,462.268 710.077,459.651 713.997,460.568C724.987,463.138 734.612,464.73 741.539,471.372C746.016,475.664 749.245,482.096 751.136,492.163L751.136,492.163Z"/>
            </g>
            <g transform="matrix(1,0,0,1,1.69467,119.192)">
                <path d="M754.871,491.462C749.665,463.748 734.413,461.44 714.862,456.867C702.927,454.076 680.644,475.089 680.95,492.565C681.413,519.094 696.394,527.416 716.255,528.974C744.754,531.21 756.704,501.222 754.871,491.462Z"/>
                <path d="M758.605,490.76C756.332,478.656 752.182,471.047 746.799,465.886C738.938,458.349 728.199,456.084 715.728,453.167C710.097,451.85 702.367,454.616 695.317,460.219C685.461,468.053 676.949,481.106 677.15,492.632C677.406,507.267 681.867,516.804 688.803,522.973C695.663,529.075 705.12,531.912 715.958,532.762C734.856,534.245 747.219,522.993 753.609,511.355C757.991,503.373 759.439,495.199 758.605,490.76L758.605,490.76ZM751.136,492.163C751.769,495.533 750.274,501.638 746.947,507.697C741.773,517.12 731.853,526.386 716.552,525.186C707.529,524.478 699.565,522.375 693.854,517.294C688.217,512.281 684.957,504.393 684.749,492.499C684.584,483.053 691.968,472.589 700.045,466.169C704.954,462.268 710.077,459.651 713.997,460.568C724.987,463.138 734.612,464.73 741.539,471.372C746.016,475.664 749.245,482.096 751.136,492.163L751.136,492.163Z"/>
            </g>
            <g transform="matrix(1,0,0,1,61.008,58.7485)">
                <path d="M754.871,491.462C749.665,463.748 734.413,461.44 714.862,456.867C702.927,454.076 680.644,475.089 680.95,492.565C681.413,519.094 696.394,527.416 716.255,528.974C744.754,531.21 756.704,501.222 754.871,491.462Z"/>
                <path d="M758.605,490.76C756.332,478.656 752.182,471.047 746.799,465.886C738.938,458.349 728.199,456.084 715.728,453.167C710.097,451.85 702.367,454.616 695.317,460.219C685.461,468.053 676.949,481.106 677.15,492.632C677.406,507.267 681.867,516.804 688.803,522.973C695.663,529.075 705.12,531.912 715.958,532.762C734.856,534.245 747.219,522.993 753.609,511.355C757.991,503.373 759.439,495.199 758.605,490.76L758.605,490.76ZM751.136,492.163C751.769,495.533 750.274,501.638 746.947,507.697C741.773,517.12 731.853,526.386 716.552,525.186C707.529,524.478 699.565,522.375 693.854,517.294C688.217,512.281 684.957,504.393 684.749,492.499C684.584,483.053 691.968,472.589 700.045,466.169C704.954,462.268 710.077,459.651 713.997,460.568C724.987,463.138 734.612,464.73 741.539,471.372C746.016,475.664 749.245,482.096 751.136,492.163L751.136,492.163Z"/>
            </g>
        </g>
        <path d="M511.867,342.757C514.575,340.049 504.767,329.871 497.662,318.138C493.163,310.709 482.257,280.966 484.329,266.497C486.685,250.035 488.876,247.12 495.626,240.37C508.979,227.018 527.456,218.426 540.817,205.065C544.838,201.045 547.406,196.396 548.585,192.355C552.703,178.241 542.638,165.931 537.993,161.286C537.023,160.315 534.462,159.168 534.462,159.168C534.462,159.168 545.543,158.461 549.997,158.461C559.28,158.461 568.436,157.755 576.829,157.755C577.3,157.755 577.909,157.422 578.241,157.755C578.949,158.463 581.856,175.076 578.968,186.589C577.152,193.83 575.822,207.066 567.972,218.433C563.126,225.45 560.716,231.688 548.256,238.595C538.653,243.918 531.363,250.947 527.258,255.302C521.133,261.799 519.175,267.545 518.928,272.852C518.264,287.129 533.304,298.252 541.524,312.394C544.114,316.851 547.136,323.01 547.879,330.047C548.324,334.266 548.585,342.757 548.585,342.757C548.585,342.757 549.291,340.903 549.291,339.932"/>
        <path d="M508.379,341.249C507.779,342.637 508.047,344.31 509.18,345.444C510.663,346.927 513.071,346.927 514.554,345.444C516.192,343.806 516.789,340.748 514.713,336.721C512.286,332.012 505.939,324.47 500.913,316.17C496.629,309.096 486.118,280.812 488.09,267.035C490.248,251.96 492.132,249.239 498.313,243.057C511.666,229.705 530.143,221.113 543.505,207.752C548.033,203.223 550.904,197.972 552.233,193.419C555.962,180.637 549.471,169.116 544.112,162.443C546.368,162.338 548.542,162.261 549.997,162.261C558.728,162.261 567.346,161.637 575.324,161.563C576.246,166.577 577.33,177.501 575.282,185.665C573.539,192.616 572.381,205.362 564.845,216.274C560.296,222.86 558.109,228.789 546.414,235.272C536.393,240.826 528.777,248.15 524.493,252.695C517.537,260.074 515.413,266.648 515.132,272.675C514.83,279.174 517.267,285.138 521.043,290.939C525.988,298.533 533.339,305.874 538.238,314.303C540.609,318.383 543.42,324.005 544.1,330.446C544.535,334.571 544.787,342.873 544.787,342.873C544.842,344.684 546.168,346.204 547.955,346.504C549.741,346.804 551.491,345.802 552.136,344.109C552.136,344.109 553.091,341.36 553.091,339.932C553.091,338.989 552.747,338.126 552.176,337.462C552.053,334.816 551.877,331.725 551.658,329.648C550.852,322.016 547.619,315.319 544.809,310.484C540.628,303.29 534.731,296.85 529.945,290.407C525.8,284.828 522.431,279.317 522.724,273.028C522.937,268.442 524.73,263.523 530.023,257.908C533.949,253.743 540.914,247.01 550.098,241.919C563.323,234.588 565.955,228.04 571.099,220.592C579.264,208.77 580.765,195.045 582.654,187.514C585.11,177.722 583.667,164.461 582.59,159.163C582.092,156.72 581.206,155.346 580.928,155.068C579.828,153.968 576.441,153.985 576.441,153.985C576.441,153.985 576.706,153.955 576.829,153.955C568.436,153.955 559.28,154.661 549.997,154.661C545.473,154.661 534.221,155.375 534.221,155.375C532.477,155.486 531.034,156.772 530.723,158.491C530.412,160.21 531.314,161.92 532.908,162.635C532.908,162.635 534.659,163.326 535.306,163.973C539.405,168.072 548.571,178.836 544.937,191.29C543.907,194.82 541.642,198.867 538.13,202.378C524.769,215.739 506.292,224.331 492.939,237.683C485.621,245.002 483.122,248.109 480.567,265.958C478.396,281.121 489.697,312.321 494.412,320.107C498.688,327.167 503.937,333.668 506.867,338.324C507.49,339.315 508.104,340.634 508.379,341.249Z"/>
    </g>
</svg>
