<svg viewBox="0 0 492 492" xmlns="http://www.w3.org/2000/svg" xml:space="preserve" style="fill-rule:evenodd;clip-rule:evenodd;stroke-linecap:round;stroke-linejoin:round;stroke-miterlimit:1.5"><path d="M272.729 346.93c-69.876 17.101-125.041 93.045-159.979 150.048-34.539 56.355-50.751 134.051-49.648 191.974 1.05 55.133 12.688 134.603 56.268 155.566 29.845 14.355 69.265 17.268 99.297 3.31 52.223-24.273 150.968-123.386 214.04-148.946 50.804-20.588 113.506-24.797 164.392-4.413 63.807 25.56 163.104 134.419 218.453 157.772 35.319 14.902 89.421 12.062 113.64-17.653 25.927-31.812 49.089-114.245 41.925-173.218-7.907-65.095-53.694-164.759-89.367-217.35-29.696-43.778-72.298-90.759-124.673-98.194-58.291-8.274-151.633 57.197-228.383 57.372-24.449.056-51.159-6.653-78.458-15.558-62.836-20.497-128.795-52.632-177.507-40.71Z" style="stroke:#000;stroke-width:7.45px" transform="scale(.48)"/><path d="M272.729 346.93c-69.876 17.101-125.041 93.045-159.979 150.048-34.539 56.355-50.751 134.051-49.648 191.974 1.05 55.133 5.301 166.318 48.882 187.28 29.844 14.356 75.42-7.551 101.759-36.678 40.235-44.494 146.044-137.175 209.116-162.734 50.804-20.588 135.664-23.418 186.55-3.035 63.808 25.56 171.207 115.639 212.298 163.288 39.013 45.238 110.35 49.292 134.568 19.577 25.928-31.811 22.006-136.307 14.842-195.28-7.907-65.095-38.921-159.244-74.594-211.834-29.696-43.779-87.071-96.275-139.446-103.71-58.291-8.274-151.633 57.197-228.383 57.372-80.724.184-186.09-73.369-255.965-56.268Z" style="fill:#fff;stroke:#000;stroke-width:8.77px" transform="matrix(.43018 0 0 .38406 22.736 54.22)"/><path d="M103.371 252.848c2.429 2.428-2.45 24.029-.53 25.95 1.442 1.441 13.284-2.074 14.83-.53 1.21 1.21 13.556 1.802 14.828.53 4.343-4.343 8.271-8.8 12.18-12.71.031-.031-6.769-6.769-11.121-11.121-3.356-3.356-9.225-2.648-15.358-2.648h-10.592c-1.303 0-5.679.53-3.177.53"/><path d="M103.052 251.053a1.825 1.825 0 0 0-1.066 2.982c.03.158.247 1.327.254 2.275.021 2.505-.359 6.012-.756 9.497-.484 4.26-.99 8.49-.918 10.981.048 1.701.516 2.83.986 3.3.43.43 1.268.826 2.49.88 1.517.067 3.98-.296 6.449-.67 1.734-.263 3.471-.527 4.82-.592.501-.025 1.133.028 1.302.044.436.313 1.217.664 2.288.89 1.98.416 5.277.685 8.172.693 2.013.007 3.837-.121 4.942-.38.877-.204 1.464-.556 1.773-.865 4.344-4.343 8.272-8.801 12.181-12.71.031-.031 1.086-1.47-.167-2.761-1.12-1.156-7.03-7.015-10.955-10.94-1.605-1.605-3.672-2.474-6.067-2.89-3.095-.536-6.788-.292-10.58-.292h-10.592c-1.039 0-3.79.317-4.372.494-.064.02-.125.04-.184.064Zm39.07 15.031c-2.158-2.166-6.665-6.638-9.854-9.827-1.386-1.387-3.322-1.856-5.514-2.056-2.602-.238-5.546-.058-8.554-.058h-10.592c-.374 0-1.142.076-1.844.156.031.212.056.435.074.667.2 2.638-.24 6.962-.729 11.254-.399 3.509-.824 6.995-.893 9.427-.017.583.028 1.234.067 1.663.252.009.566.014.843-.003 1.34-.08 3.077-.352 4.818-.616 2.479-.376 4.967-.724 6.516-.63 1.07.064 1.85.382 2.328.764.375.063 5.172.851 8.295.86 1.325.005 2.554-.047 3.48-.173.297-.041.654-.126.804-.164 3.813-3.822 7.307-7.728 10.755-11.264ZM195.06 252.848c-2.428 2.428 2.45 24.029.53 25.95-1.442 1.441-13.284-2.074-14.829-.53-1.21 1.21-13.556 1.802-14.828.53-4.343-4.343-8.272-8.8-12.18-12.71-.032-.031 6.768-6.769 11.12-11.121 3.356-3.356 9.225-2.648 15.358-2.648h10.592c1.303 0 5.679.53 3.178.53"/><path d="M181.819 279.75c.168-.016.8-.069 1.301-.044 1.35.065 3.086.329 4.82.592 2.469.374 4.932.737 6.448.67 1.224-.054 2.06-.45 2.491-.88.47-.47.938-1.599.987-3.3.07-2.49-.435-6.72-.92-10.98-.396-3.486-.776-6.993-.755-9.498.008-.948.224-2.117.254-2.275a1.825 1.825 0 0 0-1.066-2.982 2.493 2.493 0 0 0-.184-.064c-.58-.177-3.333-.494-4.372-.494h-10.592c-3.791 0-7.484-.244-10.58.293-2.395.415-4.462 1.284-6.067 2.89-3.924 3.924-9.835 9.783-10.955 10.939-1.252 1.291-.198 2.73-.167 2.76 3.91 3.91 7.838 8.368 12.18 12.71.31.31.897.662 1.774.867 1.105.258 2.93.386 4.943.38 2.894-.01 6.192-.278 8.172-.695 1.07-.225 1.851-.576 2.288-.889Zm10.849-25.45c-.703-.081-1.471-.157-1.845-.157h-10.592c-3.008 0-5.951-.18-8.554.058-2.192.2-4.127.669-5.513 2.056-3.19 3.189-7.696 7.661-9.854 9.827 3.446 3.536 6.941 7.442 10.754 11.264.15.038.508.123.804.164.926.126 2.155.178 3.48.173 3.124-.009 7.92-.797 8.296-.86.476-.382 1.258-.7 2.327-.765 1.55-.093 4.038.255 6.516.631 1.742.264 3.479.535 4.819.616.277.017.59.012.842.003.04-.43.084-1.08.068-1.663-.07-2.432-.495-5.918-.894-9.427-.488-4.292-.928-8.616-.728-11.254.018-.232.042-.455.074-.667ZM136.975 220.833c2.429 2.428 24.029-2.45 25.95-.53 1.441 1.442-2.074 13.284-.53 14.829 1.21 1.21 1.802 13.556.53 14.828-4.343 4.344-8.8 8.272-12.71 12.181-.031.031-6.769-6.769-11.121-11.122-3.356-3.355-2.648-9.224-2.648-15.357V225.07c0-1.303.53-5.679.53-3.178"/><path d="M138.162 219.448a1.825 1.825 0 0 0-2.982 1.066c-.023.058-.044.12-.064.184-.177.581-.494 3.333-.494 4.372v10.592c0 3.791-.244 7.484.293 10.58.415 2.395 1.284 4.462 2.89 6.067 3.924 3.925 9.783 9.835 10.939 10.955 1.292 1.252 2.73.198 2.76.167 3.91-3.91 8.368-7.838 12.71-12.18.31-.31.662-.897.867-1.774.258-1.105.386-2.93.38-4.942-.01-2.895-.278-6.193-.695-8.172-.225-1.071-.576-1.852-.889-2.289-.016-.168-.069-.8-.044-1.301.065-1.35.329-3.086.592-4.82.374-2.469.737-4.932.67-6.448-.054-1.223-.45-2.06-.88-2.491-.47-.47-1.599-.938-3.3-.986-2.49-.072-6.72.434-10.98.918-3.486.397-6.993.777-9.498.756-.948-.007-2.117-.223-2.275-.254Zm23.275 2.297c-.43-.04-1.08-.084-1.663-.068-2.432.07-5.918.495-9.427.894-4.292.488-8.616.928-11.254.728a9.355 9.355 0 0 1-.667-.074c-.08.703-.156 1.471-.156 1.845v10.592c0 3.008-.18 5.951.058 8.554.2 2.192.669 4.127 2.056 5.514 3.189 3.19 7.661 7.695 9.827 9.854 3.536-3.447 7.442-6.942 11.264-10.755.038-.15.123-.508.164-.804.126-.926.178-2.155.173-3.48-.009-3.124-.797-7.92-.86-8.296-.382-.476-.7-1.258-.764-2.327-.094-1.55.254-4.038.63-6.516.264-1.742.535-3.479.616-4.818.017-.277.012-.591.003-.843ZM136.975 311.992c2.429-2.428 24.029 2.45 25.95.53 1.441-1.442-2.074-13.284-.53-14.828 1.21-1.21 1.802-13.557.53-14.829-4.343-4.343-8.8-8.271-12.71-12.18-.031-.032-6.769 6.768-11.121 11.121-3.356 3.356-2.648 9.225-2.648 15.358v10.591c0 1.304.53 5.68.53 3.178"/><path d="M135.18 312.312a1.825 1.825 0 0 0 2.982 1.066c.158-.031 1.327-.247 2.275-.255 2.505-.02 6.012.36 9.497.756 4.26.485 8.49.99 10.981.919 1.701-.049 2.83-.517 3.3-.986.43-.431.826-1.268.88-2.491.067-1.517-.296-3.98-.67-6.448-.263-1.734-.527-3.471-.592-4.82-.025-.502.028-1.133.044-1.302.313-.436.664-1.217.89-2.288.416-1.98.685-5.278.693-8.172.007-2.013-.121-3.838-.38-4.943-.204-.877-.556-1.464-.865-1.773-4.343-4.343-8.801-8.271-12.71-12.18-.031-.031-1.47-1.086-2.761.166-1.156 1.12-7.015 7.03-10.94 10.955-1.605 1.605-2.474 3.673-2.89 6.068-.536 3.095-.292 6.788-.292 10.58v10.591c0 1.04.317 3.791.494 4.373.02.064.041.125.064.184Zm15.031-39.07c-2.166 2.158-6.638 6.664-9.827 9.854-1.387 1.386-1.856 3.321-2.056 5.514-.238 2.602-.058 5.546-.058 8.554v10.591c0 .374.076 1.143.156 1.845.212-.032.435-.056.667-.074 2.638-.2 6.962.24 11.254.728 3.509.4 6.995.824 9.427.894.583.016 1.234-.028 1.663-.067.01-.252.014-.566-.003-.843-.08-1.34-.352-3.077-.616-4.818-.376-2.479-.724-4.967-.63-6.516.064-1.07.382-1.851.764-2.328.063-.376.851-5.172.86-8.296.005-1.324-.047-2.554-.173-3.48a8.588 8.588 0 0 0-.164-.804c-3.822-3.812-7.728-7.306-11.264-10.754Z"/><path d="M593.776 390.772c0 .847-33.762 12.235-64.399 12.816-29.608.562-56.127-9.653-56.127-10.471 0-2.814.487-13.504.487-17.173 0-3.038-.339-30.73 0-31.069 1.691-1.691 16.376-.706 19.065-.706 12.681 0 37.592-1.201 51.546-1.412 11.263-.171 24.865 0 29.657 0 4.546 0 17.653-1.413 17.653-1.413s1.248 16.829 2.118 24.714c.548 4.969-3.915 24.714 0 24.714Z" style="fill:#fff" transform="scale(.48)"/><path d="M286.125 186.126c-.027-.428-.07-1.271-.028-1.93.193-3.068.892-7.204.728-8.688-.415-3.764-1.01-11.798-1.01-11.798a1.823 1.823 0 0 0-2.015-1.678s-6.145.667-8.278.667c-2.304 0-8.846-.082-14.263 0-6.69.102-18.634.678-24.714.678-1.063 0-5.92-.296-8.247.007-1.12.146-1.872.545-2.194.866-.067.067-.53.587-.572 1.634-.093 2.297.038 13.25.038 14.57 0 1.76-.234 6.891-.234 8.242 0 .207.107 1.249 1.39 1.88 2.259 1.112 14.211 5.22 27.41 4.97 13.534-.257 28.308-4.825 31.128-6.036.834-.358 1.195-.808 1.283-.946.229-.36.29-.704.29-.993 0-.588-.279-1.112-.712-1.445Zm-3.638.536c-4.541 1.583-16.949 5.019-28.42 5.237-11.405.216-21.83-2.979-25.06-4.301.056-2.042.21-5.711.21-7.145 0-1.161-.104-9.866-.063-13.377 1.909-.015 6.528-.05 7.391-.05 6.094 0 18.064-.577 24.77-.68 5.395-.08 11.912.001 14.207.001 1.46 0 4.717-.294 6.797-.498.204 2.63.587 7.399.88 10.059.097.879-.192 2.8-.426 4.794-.262 2.245-.465 4.565-.286 5.96ZM362.338 235.902c-2.499-13.303-9.82-14.41-19.204-16.606-5.729-1.34-16.425 8.747-16.278 17.135.222 12.734 7.413 16.729 16.946 17.477 13.68 1.073 19.416-13.321 18.536-18.006Z"/><path d="M364.13 235.565c-1.09-5.81-3.083-9.462-5.666-11.94-3.774-3.617-8.928-4.705-14.915-6.105-2.702-.632-6.413.696-9.797 3.385-4.73 3.76-8.816 10.026-8.72 15.558.123 7.025 2.264 11.603 5.593 14.564 3.293 2.929 7.833 4.29 13.035 4.699 9.07.712 15.005-4.69 18.072-10.276 2.104-3.831 2.799-7.754 2.398-9.885Zm-3.585.673c.304 1.618-.413 4.548-2.01 7.457-2.484 4.523-7.246 8.97-14.59 8.394-4.331-.34-8.154-1.349-10.895-3.788-2.706-2.406-4.27-6.192-4.37-11.901-.08-4.535 3.465-9.557 7.342-12.639 2.356-1.872 4.815-3.129 6.697-2.688 5.275 1.233 9.895 1.997 13.22 5.186 2.149 2.06 3.699 5.147 4.606 9.98Z"/><g><path d="M333.868 263.83c-2.5-13.303-9.82-14.41-19.205-16.606-5.728-1.34-16.424 8.747-16.277 17.135.222 12.734 7.413 16.729 16.946 17.477 13.68 1.073 19.415-13.321 18.536-18.006Z"/><path d="M335.66 263.493c-1.091-5.81-3.083-9.462-5.667-11.94-3.773-3.617-8.928-4.705-14.914-6.105-2.703-.632-6.413.696-9.797 3.385-4.731 3.76-8.817 10.026-8.72 15.558.122 7.025 2.264 11.603 5.593 14.564 3.293 2.93 7.832 4.29 13.034 4.699 9.071.712 15.006-4.69 18.073-10.275 2.103-3.832 2.798-7.755 2.398-9.886Zm-3.585.673c.304 1.618-.414 4.548-2.01 7.457-2.484 4.523-7.246 8.97-14.59 8.394-4.332-.34-8.154-1.349-10.896-3.788-2.705-2.406-4.27-6.192-4.37-11.901-.08-4.534 3.465-9.557 7.342-12.639 2.356-1.872 4.816-3.128 6.697-2.688 5.275 1.233 9.895 1.998 13.22 5.186 2.15 2.06 3.7 5.147 4.607 9.98Z"/></g><g><path d="M363.152 293.114c-2.5-13.303-9.82-14.41-19.205-16.606-5.729-1.34-16.424 8.747-16.278 17.135.223 12.734 7.414 16.729 16.947 17.477 13.68 1.073 19.415-13.321 18.536-18.006Z"/><path d="M364.944 292.777c-1.091-5.81-3.083-9.462-5.667-11.94-3.773-3.617-8.928-4.705-14.914-6.105-2.703-.632-6.413.696-9.797 3.385-4.731 3.76-8.817 10.026-8.72 15.559.122 7.024 2.264 11.602 5.593 14.563 3.293 2.93 7.832 4.29 13.034 4.699 9.071.712 15.006-4.69 18.073-10.275 2.103-3.832 2.798-7.755 2.398-9.886Zm-3.585.673c.304 1.618-.414 4.548-2.011 7.457-2.484 4.523-7.245 8.97-14.59 8.394-4.33-.34-8.153-1.349-10.895-3.788-2.705-2.406-4.27-6.192-4.37-11.901-.08-4.534 3.465-9.557 7.342-12.639 2.356-1.872 4.815-3.128 6.697-2.688 5.275 1.233 9.895 1.998 13.22 5.186 2.15 2.06 3.699 5.147 4.607 9.98Z"/></g><g><path d="M391.622 264.101c-2.499-13.303-9.82-14.41-19.204-16.606-5.73-1.34-16.425 8.747-16.278 17.135.222 12.734 7.413 16.729 16.946 17.477 13.68 1.073 19.416-13.321 18.536-18.006Z"/><path d="M393.414 263.764c-1.09-5.81-3.083-9.462-5.667-11.94-3.773-3.617-8.928-4.704-14.914-6.105-2.703-.632-6.413.696-9.797 3.385-4.73 3.76-8.817 10.026-8.72 15.559.123 7.024 2.264 11.602 5.593 14.563 3.293 2.93 7.832 4.291 13.035 4.699 9.07.712 15.005-4.69 18.072-10.275 2.104-3.832 2.799-7.755 2.398-9.886Zm-3.585.674c.304 1.617-.414 4.548-2.01 7.456-2.484 4.523-7.246 8.97-14.59 8.395-4.331-.34-8.154-1.35-10.895-3.789-2.706-2.406-4.27-6.192-4.37-11.901-.08-4.534 3.464-9.557 7.341-12.639 2.357-1.872 4.816-3.128 6.697-2.688 5.276 1.234 9.896 1.998 13.22 5.186 2.15 2.06 3.7 5.147 4.607 9.98Z"/></g><path d="M245.696 164.523c1.3-1.3-3.408-6.185-6.818-11.817-2.16-3.566-7.395-17.842-6.4-24.787 1.13-7.902 2.182-9.301 5.422-12.541 6.41-6.41 15.279-10.534 21.692-16.947 1.93-1.93 3.163-4.16 3.729-6.1 1.976-6.775-2.855-12.684-5.084-14.914-.466-.466-1.695-1.016-1.695-1.016s5.319-.34 7.457-.34c4.455 0 8.85-.339 12.879-.339.226 0 .518-.16.678 0 .34.34 1.735 8.314.349 13.84-.872 3.476-1.51 9.83-5.278 15.286-2.327 3.368-3.483 6.362-9.464 9.678-4.61 2.555-8.109 5.929-10.08 8.019-2.94 3.119-3.879 5.877-3.998 8.424-.318 6.853 6.9 12.192 10.847 18.98 1.243 2.14 2.693 5.096 3.05 8.474.214 2.025.339 6.1.339 6.1s.339-.89.339-1.356"/><path d="M244.022 163.8a1.825 1.825 0 0 0 2.964 2.013c.786-.786 1.073-2.254.076-4.187-1.165-2.26-4.211-5.88-6.624-9.864-2.056-3.396-7.101-16.972-6.155-23.585 1.036-7.236 1.94-8.542 4.907-11.51 6.41-6.409 15.279-10.533 21.692-16.946 2.174-2.174 3.552-4.694 4.19-6.88 1.79-6.135-1.326-11.665-3.898-14.868a68.45 68.45 0 0 1 2.825-.088c4.19 0 8.327-.3 12.157-.335.442 2.407.962 7.65-.02 11.57-.837 3.336-1.393 9.454-5.01 14.692-2.184 3.16-3.234 6.007-8.847 9.119-4.81 2.665-8.466 6.181-10.522 8.363-3.34 3.542-4.359 6.697-4.494 9.59-.145 3.12 1.025 5.982 2.838 8.767 2.373 3.645 5.902 7.169 8.253 11.214 1.138 1.959 2.488 4.657 2.814 7.75.209 1.98.33 5.964.33 5.964a1.823 1.823 0 0 0 3.527.593s.459-1.32.459-2.005c0-.452-.165-.867-.44-1.185-.059-1.27-.143-2.754-.248-3.751-.387-3.663-1.939-6.878-3.288-9.199-2.007-3.453-4.837-6.544-7.134-9.637-1.99-2.678-3.607-5.323-3.466-8.342.102-2.2.962-4.562 3.503-7.257 1.885-2 5.228-5.231 9.636-7.675 6.348-3.519 7.611-6.662 10.08-10.237 3.92-5.674 4.64-12.262 5.547-15.877 1.179-4.7.486-11.066-.03-13.609-.24-1.172-.665-1.832-.799-1.965-.528-.528-2.153-.52-2.153-.52s.127-.015.186-.015c-4.029 0-8.424.34-12.88.34-2.171 0-7.572.342-7.572.342a1.824 1.824 0 0 0-.63 3.485s.84.331 1.15.642c1.968 1.968 6.368 7.134 4.624 13.112-.495 1.695-1.582 3.637-3.268 5.322-6.413 6.414-15.282 10.538-21.691 16.947-3.513 3.513-4.712 5.004-5.939 13.572-1.042 7.278 4.383 22.254 6.646 25.991 2.052 3.39 4.572 6.51 5.978 8.745.3.475.594 1.108.726 1.404Z"/></svg>