<?xml version="1.0" encoding="UTF-8" standalone="no"?>
<!DOCTYPE svg PUBLIC "-//W3C//DTD SVG 1.1//EN" "http://www.w3.org/Graphics/SVG/1.1/DTD/svg11.dtd">
<svg width="100%" height="100%" viewBox="0 0 492 492" version="1.1" xmlns="http://www.w3.org/2000/svg" xmlns:xlink="http://www.w3.org/1999/xlink" xml:space="preserve" xmlns:serif="http://www.serif.com/" style="fill-rule:evenodd;clip-rule:evenodd;stroke-linejoin:round;stroke-miterlimit:2;">
    <g transform="matrix(0.48,0,0,0.48,0,0)">
        <path d="M297.805,17.239C298.536,16.508 267.051,34.272 267.051,39.785C267.051,61.242 278.677,268.436 285.737,289.616C295.018,317.457 316.387,664.289 346.074,753.347C355.206,780.743 370.209,980.902 370.209,980.902C370.209,980.902 406.966,975.175 413.306,968.835C423.185,958.957 395.717,889.886 399.515,886.088C419.358,866.243 556.159,840.17 558.062,842.074C562.466,886.977 568.506,900.298 575.643,917.458C579.561,917.458 610.742,914.484 615.003,910.222C617.849,907.377 603.641,836.799 599.488,832.646C591.814,824.972 557.08,636.328 550.405,568.036C543.723,499.671 492.619,50.323 495.054,47.889C495.867,47.076 459.76,49.637 454.784,54.613C454.784,54.613 472.935,121.824 472.508,121.397C454.844,103.733 330.391,117.226 307.216,117.226C306.641,117.226 302.617,68.239 297.805,17.239ZM385.686,693.558C392.124,698.016 398.927,818.133 402.127,841.734C403.915,854.915 541.924,812.992 550.372,800.791C551.43,799.263 526.741,679.694 524.781,668.915C524.34,666.486 375.171,695.469 385.686,693.558ZM363.313,501.657C368.85,507.194 379.537,658.77 384.172,654.465C395.577,643.87 518.315,636.271 528.808,625.778C530.122,624.464 507.969,492.885 506.397,491.313C495.539,480.455 409.515,498.209 363.313,501.657ZM341.902,319.303C347.439,324.84 352.816,474.066 359.141,474.007C401.898,473.603 498.26,462.997 502.121,454.455C502.887,452.761 486.282,319.666 484.71,318.094C473.852,307.236 331.215,319.303 341.902,319.303ZM319.492,138.465C325.029,144.002 331.258,281.696 335.731,286.168C345.136,295.574 370.377,293.064 382.276,293.064C396.817,293.064 475.217,300.109 485.71,289.616C487.025,288.302 463.3,174.727 463.3,163.771C463.3,161.302 464.871,149.827 463.3,148.256C452.442,137.398 335.967,154.941 319.492,138.465Z" style="fill:white;"/>
        <path d="M404.861,888.757C409.921,884.743 419.929,880.655 432.315,876.452C466.483,864.856 518.244,853.886 543.693,849.484C547.148,848.887 550.554,848.397 553.099,848.057C557.542,889.583 563.527,902.779 570.519,919.59C571.38,921.66 573.401,923.008 575.643,923.008C578.493,923.008 595.227,921.519 606.528,919.091C612.606,917.785 617.261,915.814 618.928,914.147C619.567,913.507 620.375,912.405 620.718,910.597C621.012,909.043 620.951,905.556 620.393,900.812C618.514,884.842 611.792,851.86 607.453,837.578C606.159,833.318 604.725,830.411 603.775,829.149C603.744,829.061 600.197,818.807 597.475,807.443C584.481,753.206 561.252,621.959 555.929,567.496C549.915,505.974 507.924,135.892 501.361,60.716C500.864,55.025 500.585,49.892 500.531,48.849L500.585,48.466C500.74,47.039 500.422,45.622 499.34,44.312C499.035,43.943 497.568,42.276 494.397,42.197C490.525,42.1 474.181,43.335 463.122,45.703C457.179,46.975 452.618,48.931 450.86,50.688C449.455,52.093 448.908,54.142 449.426,56.06C449.426,56.06 459.159,92.099 464.188,111.186L463.336,110.947C455.782,108.917 445.471,107.723 433.658,107.162C392.999,105.234 333.903,110.673 312.042,111.554C310.602,97.971 307.252,58.312 303.379,17.235C303.395,16.161 303.08,15.247 302.639,14.473C301.946,13.255 300.724,11.893 298.277,11.687C298.086,11.671 296.616,11.542 294.545,12.628C290.716,14.635 272.883,25.065 265.89,31.798C262.728,34.843 261.501,37.905 261.501,39.785C261.501,61.393 273.362,270.041 280.472,291.371C284.154,302.416 289.632,364.09 296.911,439.759C307.963,554.66 322.927,701.457 340.809,755.102C349.887,782.335 364.674,981.317 364.674,981.317C364.79,982.862 365.546,984.288 366.759,985.25C367.973,986.213 369.533,986.625 371.063,986.386C371.063,986.386 389.496,983.507 402.783,979.557C409.484,977.565 414.94,975.051 417.231,972.76C419.758,970.232 421.298,965.147 420.954,958.199C420.374,946.48 415.331,928.077 410.913,912.497C408.733,904.808 406.724,897.832 405.578,892.804C405.256,891.393 405.006,889.807 404.861,888.757ZM293.075,26.25C297.067,69.095 300.393,108.64 301.441,116.533C301.744,118.821 302.407,120.028 302.565,120.268C304.016,122.468 305.919,122.776 307.216,122.776C323.405,122.776 389.116,116.162 433.132,118.25C444.004,118.766 453.502,119.798 460.455,121.667C464.117,122.651 466.979,123.717 468.584,125.322C470.842,127.579 473.111,127.141 474.586,126.548C475.604,126.137 477.839,125.082 478.054,121.747C478.064,121.588 478.012,120.344 477.502,118.292C475.332,109.562 464.951,71 461.364,57.698C462.61,57.288 464.095,56.846 465.445,56.557C472.481,55.05 483.557,54.064 489.679,53.601C489.818,55.778 490.024,58.485 490.303,61.681C496.868,136.874 538.866,507.04 544.881,568.576C550.238,623.38 573.605,755.451 586.68,810.029C589.036,819.863 591.086,827.249 592.636,831.342C593.505,833.634 594.423,835.194 595.141,836.091C595.35,836.664 597.164,841.676 598.472,846.667C602.57,862.307 607.772,888.534 609.369,902.109C609.552,903.667 609.665,905.384 609.728,906.651C608.297,907.136 606.126,907.824 604.197,908.238C596.138,909.97 585.095,911.213 579.254,911.692C572.93,896.459 567.581,882.273 563.585,841.532C563.46,840.253 562.895,839.058 561.986,838.149C561.488,837.651 560.73,837.054 559.532,836.701C558.903,836.516 556.622,836.341 552.996,836.802C536.247,838.93 475.583,850.879 434.516,864.039C415.94,869.992 401.293,876.46 395.591,882.163C394.643,883.11 393.437,885.151 393.628,888.504C393.884,893.003 396.809,903.446 400.234,915.525C403.846,928.262 407.966,942.96 409.411,953.939C409.842,957.215 410.038,960.119 409.838,962.465C409.755,963.44 409.357,964.784 409.293,964.995C407.723,966.469 403.965,967.626 399.62,968.917C391.565,971.312 381.525,973.288 375.276,974.411C372.652,940.601 359.573,776.293 351.339,751.592C333.597,698.367 318.925,552.697 307.96,438.697C300.56,361.765 294.745,299.09 291.003,287.861C284.1,267.154 272.95,67.383 272.609,40.902C273.251,40.234 274.805,38.654 276.15,37.579C280.899,33.779 287.84,29.377 293.075,26.25ZM384.688,688.099C385.084,688.001 385.499,687.91 385.932,687.824C400.838,684.861 500.577,665.671 520.666,663.46C522.886,663.216 524.405,663.197 525.101,663.276C526.315,663.415 527.118,663.813 527.603,664.107C529.321,665.144 529.997,666.573 530.242,667.922C532.007,677.633 552.198,775.552 555.447,796.154C555.915,799.118 555.962,800.988 555.891,801.489C555.72,802.697 555.265,803.473 554.935,803.951C553.321,806.282 547.983,809.904 539.747,813.638C511.787,826.313 447.688,845.672 418.08,849.219C410.403,850.139 404.69,849.839 401.801,848.682C398.468,847.349 396.975,845.038 396.628,842.48C394.069,823.612 389.211,743.014 384.074,709.249C383.484,705.371 382.558,701.381 381.981,699.063C379.133,698.653 377.776,697.239 377.557,695.55C376.389,693.261 377.505,690.415 382.786,688.643C383.383,688.406 384.018,688.221 384.688,688.099ZM520.248,674.689C524.111,694.218 537.608,760.071 542.846,788.529C543.582,792.528 544.216,796.458 544.562,798.682C543.868,799.128 542.955,799.613 541.9,800.198C537.613,802.576 531.24,805.372 523.558,808.369C492.96,820.304 442.003,835.174 416.76,838.198C413.193,838.625 409.323,838.543 407.313,838.452C404.678,815.761 399.987,740.048 395.048,707.58C394.451,703.655 393.832,700.317 393.217,697.706C417.639,692.941 498.966,677.387 520.248,674.689ZM358.743,504.8C358.929,505.58 360.317,511.492 361.246,517.879C366.325,552.806 373.071,635.441 377.215,652.679C377.998,655.939 379.218,657.795 379.9,658.448C381.121,659.617 382.431,660.019 383.61,660.093C385.053,660.184 386.559,659.822 387.949,658.531C388.405,658.107 389.239,657.803 390.29,657.395C392.927,656.372 396.599,655.395 401.038,654.421C419.519,650.367 450.474,646.663 477.424,642.853C495.805,640.254 512.361,637.588 522.108,634.772C527.468,633.224 531.089,631.346 532.732,629.702C533.23,629.204 533.941,628.357 534.263,626.882C534.375,626.371 534.44,624.336 534.054,621.082C531.664,600.942 516.716,512.135 512.715,493.54C512.156,490.94 511.633,489.354 511.412,488.912C511.04,488.164 510.624,487.691 510.322,487.389C508.796,485.863 506.407,484.523 503.11,483.672C497.811,482.304 489.441,482.013 479.138,482.565C447.18,484.279 395.273,493.706 362.9,496.122C360.736,496.283 358.865,497.691 358.11,499.725C357.474,501.438 357.728,503.33 358.743,504.8ZM380.691,650.139L380.683,650.146L380.691,650.139ZM501.57,494.691C501.921,496.265 502.538,499.106 503.102,502.035C507.591,525.351 517.612,584.78 521.642,612.245C522.238,616.31 522.733,620.304 523.023,622.772L522.644,622.917C520.864,623.606 518.593,624.273 515.921,624.939C502.36,628.32 479.249,631.44 456.085,634.584C432.464,637.789 408.789,641.018 394.733,644.491C391.944,645.181 389.489,645.927 387.405,646.695C387.017,644.719 386.589,642.342 386.248,639.968C382.017,610.533 376.222,541.963 371.805,513.444C371.401,510.833 371.001,508.535 370.612,506.601C403.019,503.529 450.016,495.243 479.732,493.649C487.439,493.236 493.91,493.259 498.514,494.038C499.741,494.246 500.795,494.392 501.57,494.691ZM337.436,323.116C337.791,324.807 338.573,328.717 339.045,332.486C342.574,360.657 346.11,428.482 349.944,459.16C351.033,467.877 352.382,473.906 353.519,475.982C355.158,478.976 357.535,479.572 359.194,479.556C393.743,479.23 462.942,472.283 491.237,465.109C496.855,463.685 501.019,462.162 503.335,460.759C505.449,459.478 506.613,457.992 507.179,456.74C507.3,456.471 507.805,454.533 507.518,451.185C506.214,436 497.231,363.447 492.691,331.925C491.487,323.566 490.52,317.936 490.107,316.648C489.652,315.232 488.965,314.5 488.635,314.17C487.605,313.14 485.976,312.096 483.676,311.291C480.312,310.115 474.926,309.24 468.123,308.721C432.491,306.006 354.785,311.967 342.347,313.466C339.476,313.812 338.032,314.782 337.844,314.935C336.062,316.378 335.755,318.068 335.782,319.375C335.788,319.634 336.012,321.612 337.436,323.116ZM479.846,321.804C480.251,324.137 480.989,328.537 481.705,333.508C485.722,361.403 493.237,421.573 495.769,445.218C496.029,447.651 496.249,450.028 496.395,451.706C494.656,452.405 491.539,453.582 488.509,454.35C461.748,461.134 397.649,467.664 362.762,468.398C362.259,465.996 361.481,461.966 360.958,457.784C357.125,427.105 353.588,359.278 350.059,331.106C349.713,328.344 349.359,325.936 349.003,323.941C367.493,322.22 418.578,318.601 452.614,319.173C462.179,319.334 470.359,319.815 475.981,320.801C477.319,321.036 478.841,321.483 479.846,321.804ZM314.907,141.592C313.428,139.432 313.649,136.459 315.567,134.54C317.734,132.373 321.249,132.373 323.416,134.54L323.416,134.54L323.416,134.54C325.817,136.941 330.984,138.009 337.66,138.92C356.668,141.514 386.654,140.094 412.567,139.316C430.459,138.779 446.475,138.561 455.999,139.976C461.596,140.808 465.396,142.504 467.224,144.331C468.099,145.206 469.143,146.997 469.423,149.655C469.842,153.639 468.85,161.711 468.85,163.771C468.85,173.567 488.026,265.926 490.892,285.255C491.351,288.345 491.267,290.288 491.15,290.794C490.827,292.188 490.153,293.023 489.635,293.541C487.871,295.304 484.841,296.926 480.657,298.041C475.891,299.312 469.335,300.112 461.796,300.53C434.125,302.064 392.494,298.614 382.276,298.614C374.97,298.614 362.748,299.505 352.061,298.166C343.727,297.121 336.309,294.596 331.806,290.093C331.304,289.591 330.639,288.731 330.126,287.359C329.729,286.298 329.282,284.487 328.866,282.018C326.932,270.551 324.74,241.895 322.477,213.151C320.523,188.321 318.509,163.425 316.529,149.778C316.002,146.146 315.086,142.319 314.907,141.592ZM327.521,148.268C328.913,148.636 330.395,148.965 331.96,149.252C346.89,151.99 370.453,151.706 393.667,151.014C416.166,150.344 438.324,149.305 451.433,150.599C453.915,150.844 456.032,151.166 457.704,151.621C457.923,151.681 458.166,151.762 458.399,151.849C458.42,152.668 458.43,153.736 458.388,154.603C458.209,158.319 457.75,162.398 457.75,163.771C457.75,173.667 476.897,266.758 479.885,286.71C479.273,286.921 478.568,287.11 477.797,287.316C473.601,288.435 467.82,289.079 461.182,289.447C433.724,290.969 392.416,287.514 382.276,287.514C375.304,287.514 363.64,288.43 353.441,287.152C348.257,286.502 343.437,285.437 340.353,282.877C338.305,274.938 336.013,243.657 333.543,212.28C331.573,187.26 329.522,162.176 327.521,148.268ZM315.567,142.389L315.567,142.389L315.567,142.389L315.567,142.389ZM292.256,17.194C292.252,17.443 292.265,17.683 292.294,17.915L292.279,17.76C292.261,17.571 292.253,17.382 292.256,17.194ZM292.258,17.048L292.258,17.096L292.262,16.995L292.258,17.048ZM292.562,15.423C292.737,14.878 293.081,14.114 293.88,13.315C293.279,13.916 292.832,14.639 292.562,15.423Z"/>
    </g>
</svg>
