<svg viewBox="0 0 246 246" xmlns="http://www.w3.org/2000/svg" xml:space="preserve" style="fill-rule:evenodd;clip-rule:evenodd;stroke-linejoin:round;stroke-miterlimit:2"><path d="M71.473 4.137c.176-.175-7.381 4.088-7.381 5.411 0 5.15 2.791 54.877 4.485 59.96 2.227 6.682 7.356 89.921 14.481 111.295 2.192 6.575 5.792 54.614 5.792 54.614s8.822-1.375 10.344-2.897c2.37-2.37-4.222-18.947-3.31-19.859 4.762-4.763 37.594-11.02 38.051-10.563 1.057 10.777 2.506 13.973 4.219 18.092.941 0 8.424-.714 9.447-1.737.683-.683-2.727-17.621-3.724-18.618-1.842-1.842-10.178-47.116-11.78-63.506-1.604-16.408-13.868-124.251-13.284-124.836.195-.195-8.471.42-9.665 1.614 0 0 4.356 16.131 4.254 16.028-4.239-4.239-34.108-1.001-39.67-1.001-.138 0-1.104-11.757-2.259-23.997Zm21.092 162.317c1.545 1.07 3.177 29.898 3.946 35.562.429 3.164 33.551-6.898 35.578-9.826.254-.367-5.671-29.063-6.141-31.65-.106-.583-35.907 6.373-33.383 5.914Zm-5.37-46.056c1.329 1.328 3.894 37.707 5.006 36.674 2.737-2.543 32.194-4.367 34.713-6.885.315-.316-5.001-31.895-5.379-32.272-2.606-2.606-23.251 1.655-34.34 2.483Zm-5.138-43.765c1.328 1.329 2.619 37.143 4.137 37.129 10.262-.097 33.388-2.643 34.315-4.693.184-.406-3.801-32.349-4.179-32.726-2.605-2.606-36.838.29-34.273.29Zm-5.379-43.401c1.329 1.328 2.824 34.375 3.897 35.448 2.258 2.258 8.315 1.655 11.171 1.655 3.49 0 22.306 1.691 24.825-.827.315-.316-5.379-27.574-5.379-30.203 0-.593.377-3.346 0-3.724-2.606-2.606-30.56 1.605-34.514-2.349Z" style="fill:#fff"/><path d="M97.167 213.302c1.214-.964 3.616-1.945 6.588-2.954 8.201-2.783 20.624-5.415 26.731-6.472a60.346 60.346 0 0 1 2.258-.342c1.066 9.966 2.503 13.133 4.181 17.168.206.496.691.82 1.229.82.684 0 4.701-.358 7.413-.94 1.459-.314 2.576-.787 2.976-1.187.153-.153.347-.418.429-.852.071-.373.056-1.209-.078-2.348-.451-3.833-2.064-11.749-3.105-15.176-.311-1.023-.655-1.72-.883-2.023-.007-.021-.859-2.482-1.512-5.21-3.119-13.017-8.694-44.516-9.971-57.587-1.443-14.765-11.521-103.585-13.096-121.627a86.898 86.898 0 0 1-.2-2.848l.013-.092a1.282 1.282 0 0 0-.299-.997c-.073-.089-.425-.489-1.186-.508-.929-.023-4.852.273-7.506.842-1.426.305-2.521.774-2.943 1.196a1.333 1.333 0 0 0-.344 1.289s2.336 8.65 3.543 13.231l-.204-.058c-1.813-.487-4.288-.774-7.123-.908-9.758-.463-23.941.842-29.188 1.054-.346-3.26-1.15-12.778-2.079-22.637a1.281 1.281 0 0 0-.178-.663 1.252 1.252 0 0 0-1.046-.668c-.046-.004-.399-.035-.896.226-.919.481-5.199 2.984-6.877 4.601-.759.73-1.054 1.465-1.054 1.916 0 5.186 2.847 55.262 4.553 60.381.884 2.651 2.199 17.453 3.946 35.613 2.652 27.577 6.243 62.808 10.535 75.682 2.179 6.536 5.728 54.292 5.728 54.292a1.333 1.333 0 0 0 1.533 1.217s4.424-.691 7.613-1.639c1.608-.478 2.918-1.082 3.467-1.632.607-.606.976-1.827.894-3.494-.139-2.813-1.35-7.229-2.41-10.969-.523-1.845-1.005-3.519-1.28-4.726a11.877 11.877 0 0 1-.172-.971ZM70.338 6.3c.958 10.283 1.756 19.773 2.008 21.668.073.549.232.839.27.896.348.528.805.602 1.116.602 3.885 0 19.656-1.587 30.22-1.086 2.609.124 4.889.372 6.557.82.879.236 1.566.492 1.951.877.542.542 1.087.437 1.441.294.244-.098.78-.351.832-1.152.002-.038-.01-.336-.133-.829-.52-2.095-3.012-11.35-3.873-14.543.299-.098.656-.204.98-.273 1.688-.362 4.347-.599 5.816-.71.033.523.083 1.172.15 1.94 1.575 18.046 11.655 106.886 13.098 121.654 1.286 13.153 6.894 44.85 10.032 57.949.566 2.36 1.058 4.133 1.43 5.115.208.55.428.925.601 1.14.05.137.485 1.34.799 2.538.984 3.754 2.232 10.048 2.616 13.306.044.374.071.786.086 1.09a12.66 12.66 0 0 1-1.328.381c-1.934.416-4.584.714-5.986.829-1.518-3.656-2.801-7.06-3.761-16.838a1.352 1.352 0 0 0-.972-1.16c-.151-.044-.699-.086-1.569.024-4.02.511-18.579 3.379-28.435 6.537-4.458 1.429-7.974 2.982-9.342 4.35-.228.227-.517.717-.471 1.522.061 1.08.763 3.586 1.585 6.485.867 3.057 1.856 6.584 2.203 9.219.103.787.15 1.483.102 2.047-.02.234-.115.556-.131.607-.376.354-1.278.631-2.321.941-1.934.575-4.343 1.049-5.843 1.319-.629-8.115-3.768-47.549-5.745-53.477-4.258-12.774-7.779-47.735-10.411-75.095-1.776-18.463-3.171-33.505-4.069-36.2-1.657-4.97-4.333-52.915-4.415-59.271.154-.16.527-.539.85-.797 1.14-.912 2.806-1.969 4.062-2.719Zm21.987 158.844c.095-.024.195-.046.299-.066 3.577-.711 27.514-5.317 32.336-5.848.533-.058.897-.063 1.064-.044.292.034.484.129.601.2.412.249.574.592.633.915.424 2.331 5.27 25.832 6.049 30.776.113.711.124 1.16.107 1.28-.041.29-.15.477-.23.591-.387.56-1.668 1.429-3.645 2.325-6.71 3.042-22.094 7.688-29.2 8.54-1.842.22-3.213.148-3.907-.129-.8-.32-1.158-.875-1.241-1.489-.614-4.528-1.78-23.872-3.013-31.975a28.785 28.785 0 0 0-.502-2.445c-.684-.098-1.01-.438-1.062-.843-.281-.549-.013-1.232 1.255-1.658.143-.057.295-.101.456-.13Zm32.535-3.219c.927 4.687 4.166 20.492 5.423 27.322.177.96.329 1.903.412 2.437-.167.107-.386.223-.639.364-1.029.57-2.558 1.241-4.402 1.96-7.343 2.865-19.573 6.434-25.632 7.16-.856.102-1.784.082-2.267.061-.632-5.446-1.758-23.618-2.943-31.41a31.249 31.249 0 0 0-.44-2.37c5.861-1.143 25.38-4.876 30.488-5.524Zm-38.762-40.773c.045.187.378 1.606.601 3.139 1.219 8.383 2.838 28.215 3.833 32.352.188.782.48 1.228.644 1.384.293.281.608.378.89.395.347.022.708-.065 1.042-.375.109-.101.309-.174.562-.272.632-.246 1.514-.48 2.579-.714 4.435-.973 11.865-1.862 18.333-2.776 4.411-.624 8.385-1.264 10.724-1.94 1.286-.371 2.155-.822 2.55-1.216.119-.12.29-.323.367-.677.027-.123.043-.611-.05-1.392-.574-4.834-4.161-26.148-5.121-30.611-.135-.623-.26-1.004-.313-1.11a1.345 1.345 0 0 0-.262-.366c-.366-.366-.939-.688-1.731-.892-1.271-.328-3.28-.398-5.753-.265-7.67.411-20.127 2.673-27.897 3.253a1.333 1.333 0 0 0-.998 2.083Zm5.268 34.881-.002.002.002-.002Zm29.011-37.307c.084.378.232 1.059.367 1.762 1.078 5.596 3.483 19.859 4.45 26.451.143.975.262 1.934.332 2.526l-.091.035a14.02 14.02 0 0 1-1.614.485c-3.255.812-8.801 1.561-14.36 2.315-5.67.769-11.352 1.544-14.725 2.378-.669.165-1.259.344-1.759.529a32.946 32.946 0 0 1-.278-1.615c-1.015-7.064-2.406-23.521-3.466-30.365a38.41 38.41 0 0 0-.286-1.643c7.777-.737 19.057-2.726 26.189-3.108 1.849-.099 3.403-.094 4.507.093.295.05.548.085.734.157ZM80.985 77.548c.085.406.273 1.344.386 2.249.847 6.761 1.695 23.039 2.616 30.401.261 2.092.585 3.54.858 4.038.393.718.963.861 1.362.858 8.291-.079 24.899-1.746 31.69-3.468 1.348-.342 2.348-.707 2.903-1.044.508-.307.787-.664.923-.964.029-.065.15-.53.081-1.334-.313-3.644-2.468-21.057-3.558-28.622-.289-2.006-.521-3.357-.62-3.667a1.398 1.398 0 0 0-.354-.594c-.247-.247-.638-.498-1.19-.691-.807-.282-2.1-.492-3.733-.617-8.551-.652-27.201.779-30.186 1.139-.689.083-1.035.316-1.08.352a1.261 1.261 0 0 0-.495 1.066c.001.062.055.537.397.898Zm34.178-.315c.097.56.274 1.616.446 2.809.964 6.695 2.768 21.136 3.376 26.81.062.584.115 1.155.15 1.557-.418.168-1.166.451-1.893.635-6.423 1.628-21.806 3.195-30.179 3.372a32.46 32.46 0 0 1-.433-2.548c-.92-7.363-1.769-23.641-2.616-30.403a34.946 34.946 0 0 0-.253-1.719c4.437-.413 16.698-1.282 24.866-1.144 2.296.038 4.259.153 5.609.39.321.057.686.164.927.241ZM75.578 33.982a1.332 1.332 0 0 1 2.042-1.692c.576.576 1.816.832 3.418 1.051 4.562.622 11.759.282 17.978.095 4.294-.129 8.138-.181 10.424.158 1.343.2 2.255.607 2.694 1.046.21.209.46.639.527 1.277.101.956-.137 2.894-.137 3.388 0 2.351 4.602 24.517 5.29 29.156.11.742.09 1.208.062 1.33a1.315 1.315 0 0 1-.364.659c-.423.423-1.15.812-2.154 1.08-1.144.305-2.718.497-4.527.597-6.641.368-16.632-.46-19.085-.46-1.753 0-4.686.214-7.251-.107-2.001-.251-3.781-.857-4.862-1.938-.12-.12-.28-.327-.403-.656-.095-.254-.202-.689-.302-1.282-.464-2.752-.99-9.629-1.533-16.528-.47-5.959-.953-11.934-1.428-15.209a23.108 23.108 0 0 0-.389-1.965Zm3.027 1.602c.334.089.69.168 1.066.237 3.583.657 9.238.588 14.809.422 5.4-.16 10.718-.41 13.864-.099.596.059 1.104.136 1.505.245.053.014.111.034.167.055.005.196.007.453-.003.661-.043.892-.153 1.87-.153 2.2 0 2.375 4.595 24.717 5.312 29.505a7.215 7.215 0 0 1-.501.146c-1.007.268-2.394.423-3.987.511-6.59.366-16.504-.464-18.938-.464-1.673 0-4.472.22-6.92-.087-1.244-.155-2.401-.411-3.141-1.026-.492-1.905-1.042-9.412-1.635-16.943-.472-6.005-.965-12.025-1.445-15.363Zm-2.869-1.411ZM70.141 4.127a1.4 1.4 0 0 0 .009.173l-.003-.037a1.564 1.564 0 0 1-.006-.136Zm.001-.035v.011l.001-.024-.001.013Zm.073-.39c.042-.131.124-.315.316-.507a1.334 1.334 0 0 0-.316.507Z"/></svg>