<svg viewBox="0 0 492 492" xmlns="http://www.w3.org/2000/svg" xml:space="preserve" style="fill-rule:evenodd;clip-rule:evenodd;stroke-linejoin:round;stroke-miterlimit:2"><path d="M297.805 17.239c.731-.731-30.754 17.033-30.754 22.546 0 21.457 11.626 228.651 18.686 249.831 9.281 27.841 30.65 374.673 60.337 463.731 9.132 27.396 24.135 227.555 24.135 227.555s36.757-5.727 43.097-12.067c9.879-9.878-17.589-78.949-13.791-82.747 19.843-19.845 156.644-45.918 158.547-44.014 4.404 44.903 10.444 58.224 17.581 75.384 3.918 0 35.099-2.974 39.36-7.236 2.846-2.845-11.362-73.423-15.515-77.576-7.674-7.674-42.408-196.318-49.083-264.61-6.682-68.365-57.786-517.713-55.351-520.147.813-.813-35.294 1.748-40.27 6.724 0 0 18.151 67.211 17.724 66.784-17.664-17.664-142.117-4.171-165.292-4.171-.575 0-4.599-48.987-9.411-99.987Zm87.881 676.319c6.438 4.458 13.241 124.575 16.441 148.176 1.788 13.181 139.797-28.742 148.245-40.943 1.058-1.528-23.631-121.097-25.591-131.876-.441-2.429-149.61 26.554-139.095 24.643Zm-22.373-191.901c5.537 5.537 16.224 157.113 20.859 152.808 11.405-10.595 134.143-18.194 144.636-28.687 1.314-1.314-20.839-132.893-22.411-134.465-10.858-10.858-96.882 6.896-143.084 10.344Zm-21.411-182.354c5.537 5.537 10.914 154.763 17.239 154.704 42.757-.404 139.119-11.01 142.98-19.552.766-1.694-15.839-134.789-17.411-136.361-10.858-10.858-153.495 1.209-142.808 1.209Zm-22.41-180.838c5.537 5.537 11.766 143.231 16.239 147.703 9.405 9.406 34.646 6.896 46.545 6.896 14.541 0 92.941 7.045 103.434-3.448 1.315-1.314-22.41-114.889-22.41-125.845 0-2.469 1.571-13.944 0-15.515-10.858-10.858-127.333 6.685-143.808-9.791Z" style="fill:#fff" transform="scale(.48)"/><path d="M194.333 426.603c2.43-1.926 7.233-3.889 13.178-5.906 16.4-5.566 41.246-10.832 53.462-12.945 1.658-.286 3.293-.521 4.515-.685 2.132 19.933 5.005 26.267 8.361 34.336a2.663 2.663 0 0 0 2.46 1.64c1.368 0 9.4-.714 14.824-1.88 2.918-.626 5.152-1.572 5.952-2.372.307-.308.695-.837.86-1.704.14-.746.111-2.42-.156-4.697-.902-7.666-4.129-23.497-6.212-30.353-.62-2.044-1.309-3.44-1.765-4.045a124.76 124.76 0 0 1-3.024-10.42c-6.237-26.033-17.387-89.032-19.942-115.174-2.887-29.53-23.042-207.17-26.193-243.254a175.842 175.842 0 0 1-.398-5.696l.026-.184a2.575 2.575 0 0 0-.598-1.994c-.146-.177-.85-.978-2.372-1.015-1.859-.047-9.704.546-15.012 1.682-2.853.611-5.042 1.55-5.886 2.393a2.664 2.664 0 0 0-.689 2.579s4.672 17.299 7.086 26.46l-.409-.114c-3.626-.975-8.575-1.548-14.245-1.817-19.516-.926-47.883 1.685-58.376 2.108-.691-6.52-2.299-25.556-4.158-45.273a2.562 2.562 0 0 0-.355-1.326c-.333-.585-.92-1.238-2.094-1.337-.092-.008-.797-.07-1.791.451-1.838.964-10.398 5.97-13.755 9.202-1.518 1.462-2.107 2.931-2.107 3.834 0 10.372 5.694 110.523 9.107 120.761 1.767 5.302 4.396 34.905 7.89 71.226 5.305 55.153 12.488 125.615 21.071 151.365 4.358 13.072 11.456 108.583 11.456 108.583a2.664 2.664 0 0 0 3.066 2.433s8.848-1.382 15.226-3.278c3.216-.956 5.835-2.163 6.935-3.262 1.213-1.214 1.952-3.654 1.787-6.99-.278-5.625-2.7-14.458-4.82-21.936-1.046-3.691-2.01-7.04-2.56-9.453a24.171 24.171 0 0 1-.345-1.943ZM140.676 12.6c1.916 20.566 3.513 39.547 4.016 43.336.145 1.098.463 1.677.54 1.793.696 1.056 1.61 1.203 2.232 1.203 7.77 0 39.312-3.174 60.44-2.172 5.218.248 9.777.743 13.114 1.64 1.758.472 3.132.984 3.902 1.755 1.084 1.083 2.173.873 2.881.588.489-.197 1.562-.704 1.665-2.304.005-.077-.02-.674-.265-1.659-1.042-4.19-6.025-22.7-7.746-29.085.598-.197 1.31-.409 1.959-.548 3.377-.723 8.693-1.196 11.632-1.419.067 1.045.166 2.345.3 3.879 3.15 36.093 23.31 213.772 26.197 243.31 2.571 26.305 13.787 89.7 20.063 115.897 1.131 4.72 2.115 8.266 2.86 10.23.416 1.1.857 1.85 1.202 2.28.1.275.97 2.68 1.599 5.076 1.967 7.507 4.464 20.096 5.23 26.612.088.748.142 1.572.172 2.18-.686.233-1.729.564-2.654.762-3.869.832-9.17 1.428-11.973 1.658-3.036-7.312-5.603-14.121-7.521-33.677a2.695 2.695 0 0 0-1.945-2.319c-.303-.088-1.397-.172-3.138.049-8.04 1.021-37.158 6.757-56.87 13.074-8.917 2.857-15.947 5.962-18.684 8.7-.455.454-1.034 1.433-.943 3.043.123 2.16 1.527 7.172 3.171 12.97 1.734 6.114 3.712 13.169 4.405 18.439.207 1.572.301 2.966.205 4.092-.04.468-.23 1.113-.261 1.215-.754.707-2.558 1.262-4.643 1.882-3.867 1.15-8.686 2.098-11.686 2.637-1.259-16.229-7.537-95.096-11.49-106.953-8.515-25.548-15.558-95.47-20.821-150.19-3.552-36.927-6.343-67.01-8.14-72.4-3.313-9.94-8.665-105.83-8.829-118.541.308-.32 1.054-1.08 1.7-1.595 2.28-1.824 5.611-3.937 8.124-5.438Zm43.974 317.688c.19-.048.39-.091.597-.132 7.155-1.423 55.03-10.634 64.673-11.695 1.065-.117 1.794-.126 2.128-.089.583.067.969.258 1.201.4a2.584 2.584 0 0 1 1.267 1.83c.847 4.662 10.539 51.663 12.099 61.552.224 1.423.247 2.32.213 2.56-.082.58-.3.953-.46 1.182-.774 1.12-3.336 2.858-7.29 4.65-13.42 6.084-44.188 15.377-58.4 17.08-3.685.44-6.427.297-7.814-.259-1.6-.64-2.316-1.749-2.483-2.977-1.228-9.056-3.56-47.743-6.025-63.95-.284-1.862-.728-3.777-1.005-4.89-1.367-.197-2.019-.875-2.124-1.686-.56-1.099-.025-2.465 2.51-3.315.287-.114.592-.203.913-.261Zm65.069-6.437c1.854 9.374 8.333 40.983 10.847 54.643.353 1.92.658 3.806.824 4.873-.333.214-.772.447-1.278.728-2.058 1.141-5.117 2.484-8.804 3.922-14.687 5.729-39.147 12.867-51.263 14.318-1.712.205-3.57.166-4.535.122-1.265-10.892-3.516-47.234-5.887-62.819-.287-1.884-.584-3.486-.879-4.74 11.723-2.286 50.76-9.752 60.975-11.047Zm-77.522-81.547c.089.374.755 3.212 1.201 6.278 2.438 16.765 5.676 56.43 7.665 64.704.376 1.565.962 2.456 1.289 2.769a2.747 2.747 0 0 0 1.78.79c.693.043 1.416-.13 2.084-.75.218-.204.619-.35 1.123-.545 1.266-.491 3.029-.96 5.16-1.428 8.87-1.946 23.729-3.724 36.665-5.553 8.822-1.247 16.77-2.527 21.448-3.878 2.573-.743 4.31-1.645 5.1-2.434.238-.24.58-.646.734-1.354.054-.245.085-1.222-.1-2.784-1.147-9.667-8.322-52.294-10.243-61.22-.268-1.248-.52-2.01-.625-2.221a2.716 2.716 0 0 0-.523-.731c-.733-.733-1.88-1.376-3.462-1.784-2.544-.657-6.561-.797-11.507-.532-15.34.823-40.255 5.348-55.794 6.508a2.663 2.663 0 0 0-1.995 4.165Zm10.535 69.763-.004.003.004-.003Zm58.022-74.615c.168.755.464 2.119.735 3.525 2.155 11.191 6.965 39.717 8.9 52.9.285 1.952.523 3.869.662 5.054l-.182.07c-.854.33-1.944.65-3.227.97-6.51 1.623-17.602 3.12-28.721 4.63-11.338 1.538-22.702 3.088-29.45 4.755a33.62 33.62 0 0 0-3.517 1.058 65.41 65.41 0 0 1-.555-3.23c-2.03-14.128-4.812-47.042-6.933-60.73a75.673 75.673 0 0 0-.572-3.286c15.555-1.474 38.114-5.451 52.377-6.216 3.7-.199 6.806-.188 9.016.186.589.1 1.095.17 1.467.314Zm-78.785-82.356c.17.811.546 2.688.773 4.497 1.694 13.522 3.39 46.078 5.231 60.804.523 4.184 1.17 7.078 1.716 8.074.787 1.437 1.928 1.724 2.724 1.716 16.584-.157 49.8-3.491 63.38-6.935 2.697-.683 4.696-1.414 5.808-2.088 1.015-.615 1.573-1.328 1.845-1.929.058-.129.3-1.06.163-2.666-.626-7.289-4.938-42.114-7.117-57.245-.578-4.012-1.042-6.715-1.24-7.333-.219-.68-.549-1.031-.707-1.19-.495-.494-1.277-.995-2.38-1.381-1.615-.565-4.2-.985-7.466-1.234-17.103-1.303-54.402 1.558-60.372 2.278-1.379.166-2.072.631-2.162.705-.855.692-1.003 1.504-.99 2.131.003.124.11 1.074.794 1.796Zm68.357-.63c.194 1.12.549 3.232.892 5.618 1.929 13.39 5.536 42.271 6.751 53.62.125 1.168.23 2.31.3 3.115-.834.335-2.33.9-3.785 1.269-12.845 3.256-43.612 6.39-60.358 6.743a65.609 65.609 0 0 1-.866-5.095c-1.84-14.726-3.538-47.283-5.232-60.805a68.53 68.53 0 0 0-.507-3.44c8.876-.825 33.396-2.563 49.734-2.288 4.59.077 8.517.308 11.216.781.642.113 1.373.328 1.855.482Zm-79.17-86.502a2.664 2.664 0 0 1 4.084-3.385c1.152 1.153 3.632 1.665 6.837 2.103 9.124 1.245 23.517.563 35.955.19 8.588-.258 16.276-.363 20.848.316 2.686.4 4.51 1.214 5.388 2.09.42.42.92 1.28 1.055 2.556.201 1.913-.275 5.787-.275 6.776 0 4.702 9.204 49.034 10.58 58.312.22 1.484.18 2.416.124 2.66a2.64 2.64 0 0 1-.727 1.318c-.847.846-2.301 1.624-4.31 2.16-2.287.61-5.434.994-9.053 1.194-13.282.737-33.265-.92-38.17-.92-3.506 0-9.373.428-14.503-.214-4-.502-7.56-1.714-9.722-3.875-.241-.241-.56-.654-.807-1.313-.19-.509-.405-1.378-.604-2.563-.929-5.505-1.98-19.26-3.067-33.057-.938-11.918-1.905-23.868-2.855-30.419a46.5 46.5 0 0 0-.779-3.929Zm6.054 3.205c.668.176 1.38.334 2.13.472 7.167 1.314 18.477 1.178 29.62.846 10.8-.322 21.436-.82 27.728-.2 1.191.118 2.207.273 3.01.491.105.029.222.068.334.11.01.393.014.905-.006 1.321-.086 1.784-.306 3.742-.306 4.401 0 4.75 9.19 49.434 10.625 59.01a15.36 15.36 0 0 1-1.002.292c-2.015.537-4.79.846-7.976 1.023-13.18.73-33.007-.928-37.875-.928-3.346 0-8.945.44-13.84-.174-2.489-.312-4.802-.823-6.283-2.052-.983-3.81-2.083-18.826-3.268-33.887-.946-12.01-1.93-24.05-2.89-30.725Zm-5.738-2.822Zm-11.19-60.094c-.001.12.005.235.02.346l-.008-.074a2.453 2.453 0 0 1-.011-.272Zm.002-.07v.023l.002-.048-.002.025Zm.146-.78c.084-.262.249-.628.632-1.012a2.652 2.652 0 0 0-.632 1.012Z"/></svg>