<svg viewBox="0 0 246 246" xmlns="http://www.w3.org/2000/svg" xml:space="preserve" style="fill-rule:evenodd;clip-rule:evenodd;stroke-linejoin:round;stroke-miterlimit:2"><path d="M35.064 167.977c.511-.51-.015 3.194-.015 3.953 0 3.188 3.514 2.273 5.698 2.762 2.372.531 19.062 4.738 23.732 5.717 8.703 1.826 42.305 9.31 50.023 9.91 1.831.142 49.694-7.948 52.958-8.688 4.821-1.093 68.741-11.606 71.203-14.067.758-.759.098-5.241-.454-5.793-4.623-4.624-75.505-10.135-77.369-11.998-.258-.259-29.143 3.194-32.685 4.965-4.62 2.31-50.959 6.448-52.958 7.447-2.567 1.283-18.769 3.132-28.663 4.027-3.598.325-6.362.524-7.332.524-1.249 0-3.724-.835-3.724.414" style="fill:#fff"/><path d="m34.279 167.068-.063.061a1.2 1.2 0 0 0-.161 1.498c-.057.776-.206 2.839-.206 3.303 0 1.198.381 1.992.927 2.549.524.533 1.238.854 2.067 1.021 1.143.229 2.558.12 3.641.363 2.375.531 19.075 4.741 23.749 5.721 8.729 1.831 42.435 9.33 50.176 9.932 1.843.143 50.031-7.97 53.316-8.715 3.857-.874 45.536-7.777 63.313-11.763 3.176-.712 5.604-1.337 6.948-1.818.81-.29 1.313-.596 1.525-.808.207-.207.4-.519.52-.94.15-.527.202-1.321.157-2.179-.061-1.162-.284-2.452-.535-3.247-.176-.56-.415-.943-.595-1.123-.327-.327-.892-.684-1.698-1.017-1.482-.612-3.928-1.244-7.065-1.868-10.142-2.019-27.694-4.053-42.611-5.761-9.898-1.133-18.63-2.121-23.233-2.868a34.497 34.497 0 0 1-2.907-.61 1.195 1.195 0 0 0-.458-.204c-.105-.023-.531-.045-1.222.01-3.445.272-16.151 1.807-24.563 3.254-3.755.646-6.682 1.305-7.683 1.805-.784.392-2.849.81-5.708 1.286-7.063 1.177-18.742 2.517-28.676 3.655-7.614.872-14.209 1.628-16.954 2.1-.864.149-1.418.306-1.62.407-.721.36-2.598.738-5.113 1.156-6.243 1.036-16.222 2.125-23.121 2.748-3.546.321-6.269.52-7.224.52-.488 0-1.177-.145-1.812-.218-.607-.069-1.179-.076-1.609.021-.542.123-.939.397-1.193.769a1.775 1.775 0 0 0-.309.96Zm126.236-16.097c-.407.029-1.464.111-2.707.242-5.328.564-16.228 1.95-23.257 3.215-2.862.515-5.055.981-5.859 1.383-.88.44-3.181.972-6.388 1.507-7.092 1.181-18.821 2.528-28.796 3.671-6.621.759-12.465 1.427-15.65 1.896-1.07.158-2.087.376-2.167.394-.847.405-2.941.89-5.751 1.356-6.291 1.044-16.346 2.143-23.298 2.772-3.651.33-6.456.529-7.44.529-.482 0-1.129-.105-1.767-.193a9.141 9.141 0 0 0-.883-.058 1.19 1.19 0 0 1-.119.19l.007.034c.134.75-.191 3.38-.191 4.021 0 .386.055.666.225.852.325.354.873.394 1.443.45 1.037.104 2.176.084 3.092.289 2.371.531 19.049 4.735 23.717 5.714 8.676 1.82 42.175 9.29 49.869 9.888 1.818.141 49.358-7.928 52.6-8.663 3.857-.874 45.539-7.777 63.318-11.764 3.046-.683 5.376-1.275 6.665-1.736.195-.07.408-.164.547-.228.029-.255.09-.861.066-1.313-.054-1.039-.443-2.591-.516-2.875-.278-.222-.779-.418-1.442-.651-1.415-.497-3.473-.997-6.006-1.501-10.096-2.01-27.568-4.031-42.416-5.73-11.384-1.303-21.235-2.421-25.104-3.198-.772-.155-1.333-.306-1.66-.436a4.344 4.344 0 0 1-.132-.057ZM35.504 169.094Z"/><path d="M45.802 166.452c-1.153-1.152 6.52 1.875 9.371 3.2 2.503 1.164 52.496 12.364 59.378 11.979 20.27-1.135 33.832-5.379 47.531-5.379 2.673 0 16.544-4.094 17.396-2.876 2.371 3.387.689 1.985 1.6 2.896 1.18 1.18 14.209-2.534 15.344-3.33 1.253-.879-2.543-3.773-1.261-4.062 9.629-2.174 17.682-2.919 24.256-5.02 2.321-.742 18.202-2.502 16.724-2.502" style="fill:#fff"/><path d="M235.643 160.291c-2.306.371-14.56 1.8-16.584 2.447-6.547 2.092-14.568 2.829-24.157 4.993-.506.114-.793.379-.97.663-.253.405-.319 1.119.161 1.926.222.375.572.829.897 1.287.112.157.243.383.345.565-.321.125-.788.281-1.351.467-2.447.807-6.523 1.917-9.484 2.424-.957.164-2.075.21-2.56.222a2.67 2.67 0 0 0-.061-.186c-.127-.347-.478-1.03-1.436-2.398-.176-.251-.473-.501-.953-.627-.412-.109-1.111-.132-2.013-.038-4.042.422-13.273 3.039-15.395 3.039-13.717 0-27.299 4.244-47.597 5.38-6.817.382-56.336-10.717-58.816-11.87-2.358-1.097-7.914-3.299-9.429-3.533-1.096-.17-1.568.52-1.671.832-.087.264-.185.816.4 1.401.378.378.949.445 1.396.201 1.866.492 6.312 2.304 8.311 3.234 2.527 1.175 52.993 12.475 59.941 12.086 20.242-1.133 33.785-5.376 47.465-5.376 1.897 0 9.365-2.013 13.969-2.81 1.062-.184 2.245-.246 2.673-.263.457.678.756 1.206.879 1.432-.025.168-.099.574.643 1.316.191.191.478.371.886.471.438.108 1.13.132 1.996.051 2.846-.266 7.971-1.594 11.107-2.594 1.486-.473 2.555-.911 2.863-1.127.58-.407.801-.957.753-1.608-.036-.494-.311-1.118-.721-1.734a52.428 52.428 0 0 0-.54-.794c9.154-1.988 16.853-2.765 23.185-4.789 2.072-.662 15.039-2.128 16.542-2.417.808-.156 1.01-.742 1.035-.817.146-.429.091-.848-.292-1.223-.056-.055-.317-.344-.919-.344-.178 0-.347.04-.498.111Zm-55.963 15.207c.044-.122.091-.228.091-.228l-.017.033a.905.905 0 0 0-.074.195Zm56.372-12.966h.012l-.025-.002.013.002Zm-.081-.009.009.001-.012-.002.003.001Z"/><path d="M137.257 167.977c-.568 0 1.147-.159 1.655-.413.938-.469 2.509-.828 3.31-.828 1.066 0 20.384-5.842 21.528-5.458 7.486 2.513 11.351 2.342 19.846 4.217 3.143.694 10.3 1.655 13.713 3.011.769.305-13.707 3.845-23.538 5.568-4.964.869-22.769-3.555-36.514-6.097Z" style="fill:#fff"/><path d="M142.164 165.537c-.947.016-2.721.42-3.788.953-.361.18-1.411.275-1.557.319-.811.242-.865.922-.874 1.093-.005.094.037 1.191 1.178 1.271h-.001c9.619 1.782 21.202 4.474 28.994 5.635 3.515.523 6.297.722 7.863.448 8.951-1.569 21.705-4.644 23.6-5.466.693-.3.878-.784.92-.948.083-.32.039-.615-.107-.886a1.2 1.2 0 0 0-.64-.566c-3.46-1.374-10.712-2.364-13.897-3.067-8.442-1.863-12.284-1.685-19.723-4.182-.156-.053-.459-.105-.895-.061-.479.047-1.293.207-2.335.45-4.46 1.041-13.389 3.645-17.219 4.646-.722.189-1.426.341-1.519.361Zm21.361-3.069c7.431 2.474 11.324 2.325 19.812 4.199 2.226.491 6.494 1.11 9.971 1.916-4.733 1.247-13.261 3.173-19.744 4.309-1.413.247-3.921.015-7.094-.458-6.382-.951-15.314-2.933-23.618-4.596a27.13 27.13 0 0 0 1.438-.34c3.816-.997 12.713-3.594 17.157-4.631a32.474 32.474 0 0 1 2.078-.399Z"/><path d="M131.879 58.751c-1.241-5.655-111.274-6.324-119.57-3.724-4.676 1.466 16.386 108.178 21.514 110.882 6.268 3.304 123.294-15.722 123.294-15.722.138-12.964-19.178-63.827-25.238-91.436Z" style="fill:#fff"/><path d="M133.1 58.483c-.079-.359-.282-.738-.684-1.081-.31-.265-.791-.539-1.452-.786-1.951-.73-5.838-1.38-11.073-1.917-23.299-2.391-73.964-2.879-96.702-1.911-5.842.249-9.888.618-11.254 1.046-.464.146-1.004.576-1.27 1.523-.448 1.593-.308 5.774.351 11.645 2.536 22.578 12.218 71.186 18.095 90.836 1.059 3.542 2.008 6.166 2.767 7.577.481.896.986 1.401 1.362 1.599.466.246 1.415.449 2.807.506 2.658.11 7.244-.17 13.125-.733 33.192-3.182 108.145-15.367 108.145-15.367a1.25 1.25 0 0 0 1.05-1.22c.042-3.956-1.671-11.388-4.293-20.604-6.007-21.118-16.736-51.806-20.974-71.113Zm-2.388.781c4.283 19.359 14.963 49.943 20.957 71.016 2.318 8.146 3.943 14.84 4.171 18.847-9.275 1.498-76.102 12.219-106.907 15.171-5.728.549-10.194.831-12.783.724-.797-.033-1.371-.063-1.678-.189a9.685 9.685 0 0 1-.683-1.19c-.655-1.419-1.425-3.654-2.283-6.521-5.848-19.555-15.482-67.93-18.005-90.399-.465-4.136-.69-7.376-.593-9.37.022-.465.109-.962.163-1.235 1.57-.352 5.192-.618 10.224-.832 22.653-.965 73.129-.482 96.341 1.9 4.266.438 7.594.934 9.625 1.506.594.167 1.231.465 1.451.572Z"/><path d="M128.811 65.888c-1.167-5.316-100.883-4.704-108.682-2.26-4.395 1.378 15.649 94.18 21.053 93.48 7.961-1.031 107.631-15.194 107.631-15.194.129-12.186-14.305-50.071-20.002-76.026Z" style="fill:#fff"/><path d="M130.032 65.62c-.125-.566-.707-1.305-2.015-1.796-1.781-.669-5.322-1.242-10.091-1.692-26.507-2.499-91.9-1.662-98.171.303-.407.128-.825.433-1.099 1.053-.249.562-.41 1.623-.401 3.118.041 7.167 3.371 26.074 7.505 44.811 4.137 18.751 9.081 37.329 12.279 43.832.675 1.373 1.331 2.267 1.862 2.67.507.385 1.003.485 1.442.429 7.962-1.031 107.645-15.196 107.645-15.196a1.25 1.25 0 0 0 1.075-1.224c.039-3.729-1.238-9.819-3.23-17.229-4.554-16.937-12.817-40.928-16.801-59.079Zm-2.385.794c3.439 15.558 9.964 35.327 14.622 51.299 2.857 9.797 5.022 18.136 5.271 23.12-10.741 1.526-96.928 13.767-106.213 14.995a6.137 6.137 0 0 1-.52-.706c-.526-.876-1.111-2.181-1.747-3.835-3.107-8.08-7.279-24.182-10.859-40.409-4.085-18.52-7.406-37.202-7.446-44.286-.004-.73.097-1.51.153-1.877 8.185-1.866 71.027-2.522 96.783-.094 3.859.364 6.869.792 8.708 1.306.5.14 1.038.386 1.248.487Z"/><path d="m48.175 170.825-.847 2.754 5.084 1.271 1.059-2.754-5.296-1.271Z" style="fill:#fff"/><path d="M48.384 169.956a.895.895 0 0 0-1.063.606l-.847 2.754a.892.892 0 0 0 .637 1.13l5.084 1.271a.895.895 0 0 0 1.051-.546l1.059-2.754a.892.892 0 0 0-.625-1.19l-5.296-1.271Zm.399 1.934 3.488.837-.409 1.064-3.403-.85.324-1.051Z"/><path d="m56.225 172.944-.847 2.753 5.084 1.271 1.059-2.753-5.296-1.271Z" style="fill:#fff"/><path d="M56.434 172.075a.894.894 0 0 0-1.063.606l-.847 2.754a.89.89 0 0 0 .637 1.129l5.084 1.271a.894.894 0 0 0 1.051-.546l1.059-2.754a.893.893 0 0 0-.626-1.189l-5.295-1.271Zm.398 1.933 3.489.838-.41 1.064-3.402-.851.323-1.051Z"/><path d="M75.078 167.648c3.496 0 40.3-6.488 44.697-7.414 3.357-.707 40.884-7.203 40.884-7.203.886.886 9.397 2.195 10.38 3.178.143.143-6.22 1.89-11.439 3.177-2.463.608-30.359 6.796-34.317 7.838-3.905 1.028-20.742 5.023-24.149 5.931 0 0-11.548-2.844-17.794-4.024-1.924-.364-8.994-1.483-8.262-1.483Z" style="fill:#fff"/><path d="M161.449 152.128a1.202 1.202 0 0 0-.995-.279s-37.565 6.503-40.926 7.21c-4.374.921-40.973 7.389-44.45 7.389-1.271 0-1.267 1.199-1.24 1.385.019.122.111.765.904.998.638.187 6.62 1.147 8.375 1.479 6.224 1.176 17.73 4.011 17.73 4.011.196.048.401.046.596-.006 3.407-.908 20.242-4.903 24.145-5.93 3.956-1.042 31.838-7.227 34.299-7.834 4.768-1.176 10.474-2.738 11.462-3.143.503-.206.689-.514.742-.61.313-.569.191-1.043-.204-1.438-.222-.222-.678-.499-1.334-.739-1.047-.385-2.758-.8-4.463-1.205-1.944-.461-4.537-1.256-4.641-1.288Zm5.671 4.005c-2.272.638-5.312 1.473-7.808 2.088-2.463.608-30.375 6.8-34.335 7.843-3.801 1-19.861 4.814-23.854 5.853-1.849-.452-11.885-2.893-17.561-3.966a99.785 99.785 0 0 0-.675-.123c12.087-1.871 33.813-5.721 37.135-6.42 3.139-.661 36.178-6.387 40.399-7.118.197.101.431.203.702.298 1.02.359 2.712.76 4.412 1.163.536.127 1.071.255 1.585.382Z"/></svg>