<?xml version="1.0" encoding="UTF-8" standalone="no"?>
<!DOCTYPE svg PUBLIC "-//W3C//DTD SVG 1.1//EN" "http://www.w3.org/Graphics/SVG/1.1/DTD/svg11.dtd">
<svg width="100%" height="100%" viewBox="0 0 492 492" version="1.1" xmlns="http://www.w3.org/2000/svg" xmlns:xlink="http://www.w3.org/1999/xlink" xml:space="preserve" xmlns:serif="http://www.serif.com/" style="fill-rule:evenodd;clip-rule:evenodd;stroke-linecap:round;stroke-linejoin:round;stroke-miterlimit:1.5;">
    <g transform="matrix(0.48,0,0,0.48,0,0)">
        <g>
            <path d="M146.101,699.906C148.227,697.779 146.039,713.212 146.039,716.375C146.039,729.659 160.679,725.845 169.778,727.883C179.663,730.096 249.203,747.624 268.664,751.706C304.925,759.311 444.935,790.497 477.091,792.997C484.719,793.589 684.151,759.878 697.751,756.795C717.839,752.24 984.172,708.438 994.428,698.182C997.589,695.021 994.837,676.346 992.539,674.047C973.274,654.781 677.932,631.818 670.168,624.054C669.091,622.977 548.739,637.361 533.98,644.741C514.727,654.367 321.649,671.606 313.32,675.771C302.625,681.118 235.115,688.82 193.891,692.548C178.898,693.904 167.382,694.734 163.34,694.734C158.136,694.734 147.825,691.254 147.825,696.458" style="fill:white;"/>
            <path d="M142.831,696.118C142.742,696.198 142.654,696.282 142.565,696.37C140.871,698.065 140.648,700.677 141.897,702.612C141.658,705.847 141.039,714.444 141.039,716.375C141.039,721.366 142.625,724.676 144.901,726.994C147.082,729.215 150.059,730.556 153.513,731.249C158.276,732.203 164.169,731.75 168.685,732.762C178.577,734.977 248.164,752.515 267.637,756.599C304.009,764.228 444.45,795.475 476.703,797.982C484.383,798.578 685.165,764.775 698.856,761.671C714.926,758.028 888.586,729.267 962.658,712.658C975.893,709.69 986.01,707.086 991.61,705.082C994.984,703.875 997.08,702.601 997.964,701.717C998.826,700.854 999.629,699.555 1000.13,697.801C1000.76,695.606 1000.97,692.298 1000.78,688.72C1000.53,683.878 999.599,678.504 998.556,675.192C997.821,672.859 996.823,671.261 996.074,670.512C994.711,669.149 992.358,667.663 989.002,666.276C982.827,663.723 972.632,661.092 959.565,658.49C917.303,650.078 844.169,641.604 782.017,634.489C740.776,629.769 704.394,625.649 685.213,622.537C679.19,621.56 673.875,620.199 673.102,619.997C672.66,619.671 672.047,619.338 671.193,619.147C670.756,619.049 668.978,618.96 666.098,619.188C651.744,620.321 598.803,626.719 563.754,632.746C548.107,635.436 535.913,638.184 531.744,640.269C528.477,641.902 519.871,643.641 507.957,645.626C478.53,650.528 429.867,656.112 388.477,660.854C356.749,664.489 329.27,667.636 317.835,669.604C314.234,670.223 311.926,670.878 311.084,671.299C308.079,672.801 300.259,674.377 289.779,676.116C263.766,680.433 222.187,684.969 193.44,687.568C178.668,688.904 167.322,689.734 163.34,689.734C161.307,689.734 158.44,689.13 155.793,688.826C153.264,688.536 150.878,688.508 149.087,688.915C146.829,689.427 145.176,690.566 144.116,692.117C143.389,693.18 142.892,694.484 142.831,696.118ZM668.813,629.044C667.118,629.168 662.714,629.508 657.534,630.056C635.333,632.404 589.916,638.177 560.63,643.448C548.706,645.595 539.569,647.536 536.216,649.213C532.552,651.045 522.963,653.264 509.6,655.49C480.049,660.413 431.18,666.027 389.615,670.789C362.031,673.949 337.678,676.733 324.409,678.689C319.95,679.347 315.715,680.255 315.38,680.327C311.849,682.018 303.123,684.038 291.417,685.981C265.204,690.331 223.308,694.908 194.341,697.528C179.128,698.903 167.441,699.734 163.34,699.734C161.334,699.734 158.636,699.295 155.98,698.93C154.881,698.779 153.311,698.714 152.299,698.689C152.159,698.969 151.994,699.234 151.806,699.481L151.833,699.621C152.391,702.747 151.039,713.706 151.039,716.375C151.039,717.982 151.266,719.15 151.975,719.924C153.327,721.399 155.612,721.565 157.988,721.802C162.31,722.234 167.053,722.149 170.87,723.003C180.749,725.216 250.242,742.733 269.69,746.812C305.842,754.394 445.42,785.52 477.478,788.012C485.056,788.601 683.136,754.981 696.645,751.918C712.717,748.275 886.391,719.511 960.47,702.9C973.161,700.054 982.87,697.588 988.24,695.667C989.052,695.376 989.941,694.985 990.519,694.718C990.642,693.652 990.896,691.13 990.797,689.246C990.57,684.918 988.949,678.451 988.645,677.268C987.486,676.343 985.402,675.524 982.638,674.553C976.74,672.482 968.166,670.399 957.612,668.298C915.546,659.924 842.746,651.506 780.88,644.424C733.445,638.995 692.398,634.338 676.28,631.101C673.063,630.455 670.724,629.826 669.362,629.282C669.169,629.205 668.986,629.126 668.813,629.044ZM147.935,704.557C148.491,704.363 149.064,704.014 149.636,703.441C149.136,703.942 148.555,704.314 147.935,704.557Z"/>
            <path d="M190.84,693.551C186.037,688.748 218.008,701.361 229.886,706.884C240.317,711.734 448.619,758.4 477.295,756.795C561.753,752.067 618.264,734.384 675.34,734.384C686.477,734.384 744.277,717.326 747.827,722.399C757.702,736.511 750.698,730.671 754.493,734.467C759.409,739.382 813.695,723.909 818.424,720.593C823.645,716.931 807.83,704.87 813.17,703.665C853.293,694.61 886.847,691.502 914.237,682.749C923.91,679.658 990.08,672.323 983.919,672.323" style="fill:white;"/>
            <path d="M981.844,667.878C972.24,669.426 921.181,675.38 912.744,678.076C885.467,686.793 852.047,689.862 812.09,698.88C809.985,699.355 808.788,700.46 808.049,701.644C806.996,703.331 806.721,706.304 808.719,709.667C809.646,711.227 811.105,713.12 812.458,715.029C812.923,715.685 813.473,716.624 813.897,717.383C812.56,717.906 810.614,718.556 808.268,719.33C798.072,722.693 781.088,727.316 768.749,729.429C764.761,730.111 760.103,730.303 758.084,730.355C758.013,730.11 757.928,729.851 757.828,729.579C757.299,728.132 755.837,725.289 751.846,719.586C751.114,718.54 749.875,717.501 747.875,716.973C746.157,716.52 743.244,716.426 739.485,716.818C722.645,718.574 684.182,729.478 675.34,729.478C618.186,729.478 561.595,747.162 477.021,751.896C448.616,753.486 242.287,707.24 231.954,702.436C222.13,697.868 198.98,688.694 192.668,687.715C188.101,687.007 186.134,689.882 185.705,691.183C185.341,692.285 184.935,694.584 187.371,697.02C188.945,698.594 191.327,698.874 193.188,697.858C200.96,699.909 219.488,707.46 227.817,711.333C238.347,716.229 448.623,763.313 477.569,761.693C561.911,756.971 618.342,739.29 675.34,739.29C683.247,739.29 714.364,730.906 733.546,727.585C737.97,726.819 742.899,726.558 744.682,726.487C746.588,729.312 747.835,731.513 748.347,732.452C748.244,733.154 747.934,734.845 751.025,737.936C751.82,738.731 753.018,739.483 754.715,739.901C756.542,740.352 759.426,740.452 763.033,740.114C774.892,739.004 796.246,733.473 809.314,729.305C815.502,727.332 819.959,725.509 821.241,724.609C823.66,722.913 824.58,720.622 824.38,717.909C824.229,715.85 823.085,713.249 821.377,710.682C820.747,709.735 819.908,708.509 819.123,707.375C857.265,699.094 889.344,695.855 915.731,687.422C924.364,684.664 978.391,678.555 984.654,677.349C988.021,676.701 988.862,674.259 988.968,673.947C989.575,672.159 989.347,670.414 987.751,668.852C987.515,668.62 986.428,667.417 983.919,667.417C983.178,667.417 982.474,667.582 981.844,667.878ZM748.667,731.24C748.85,730.731 749.047,730.291 749.047,730.291C749.047,730.291 748.999,730.379 748.974,730.428C748.859,730.656 748.749,730.918 748.667,731.24ZM983.551,677.216L983.599,677.218L983.496,677.21L983.551,677.216ZM983.211,677.178L983.251,677.183L983.201,677.176L983.211,677.178Z"/>
            <path d="M571.906,699.906C569.536,699.906 576.682,699.241 578.801,698.182C582.71,696.228 589.255,694.734 592.593,694.734C597.032,694.734 677.527,670.392 682.294,671.992C713.482,682.462 729.588,681.75 764.983,689.562C778.077,692.452 807.898,696.458 822.12,702.107C825.324,703.38 765.008,718.131 724.048,725.306C703.361,728.93 629.175,710.497 571.906,699.906Z" style="fill:white;"/>
            <path d="M592.35,689.737C588.405,689.804 581.012,691.486 576.565,693.71C575.064,694.46 570.687,694.856 570.081,695.037C566.702,696.044 566.477,698.879 566.438,699.594C566.416,699.983 566.591,704.552 571.344,704.886L571.341,704.886C611.419,712.311 659.682,723.529 692.15,728.365C706.796,730.547 718.387,731.374 724.911,730.231C762.208,723.697 815.351,710.881 823.247,707.46C826.135,706.208 826.903,704.194 827.081,703.507C827.425,702.174 827.243,700.947 826.633,699.815C826.196,699.005 825.448,698.049 823.966,697.46C809.549,691.734 779.334,687.609 766.061,684.68C730.888,676.917 714.877,677.656 683.885,667.252C683.234,667.034 681.97,666.816 680.153,666.998C678.159,667.198 674.766,667.86 670.424,668.874C651.84,673.211 614.638,684.064 598.679,688.233C595.67,689.019 592.737,689.654 592.35,689.737ZM681.356,676.95C712.315,687.259 728.537,686.639 763.905,694.445C773.179,696.491 790.964,699.072 805.448,702.427C785.731,707.625 750.195,715.65 723.185,720.381C717.296,721.413 706.846,720.444 693.623,718.474C667.032,714.513 629.815,706.253 595.219,699.326C596.713,699.024 598.747,698.551 601.207,697.908C617.109,693.754 654.178,682.934 672.697,678.612C676.379,677.753 680.425,677.096 681.356,676.95Z"/>
            <path d="M549.495,244.795C544.323,221.235 85.854,218.444 51.286,229.279C31.803,235.387 119.564,680.022 140.929,691.286C167.045,705.054 654.653,625.778 654.653,625.778C655.228,571.762 574.748,359.835 549.495,244.795Z" style="fill:white;stroke:black;stroke-width:10.42px;"/>
            <g transform="matrix(0.940075,0,0,0.940075,2.90543,13.3757)">
                <path d="M567.833,277.803C562.661,254.243 120.696,256.954 86.128,267.789C66.645,273.896 155.486,685.219 179.439,682.117C214.724,677.547 656.487,614.775 656.487,614.775C657.062,560.759 593.086,392.843 567.833,277.803Z" style="fill:white;stroke:black;stroke-width:11.08px;"/>
            </g>
            <path d="M200.73,711.772L197.2,723.246L218.383,728.542L222.796,717.068L200.73,711.772Z" style="fill:white;stroke:black;stroke-width:7.45px;"/>
            <g transform="matrix(1,0,0,1,33.5403,8.82638)">
                <path d="M200.73,711.772L197.2,723.246L218.383,728.542L222.796,717.068L200.73,711.772Z" style="fill:white;stroke:black;stroke-width:7.45px;"/>
            </g>
            <path d="M312.826,698.532C327.394,698.532 480.74,671.498 499.063,667.64C513.052,664.694 669.412,637.63 669.412,637.63C673.103,641.322 708.568,646.777 712.661,650.87C713.259,651.467 686.745,658.746 664.999,664.109C654.739,666.64 538.503,692.425 522.011,696.767C505.744,701.05 435.587,717.696 421.39,721.481C421.39,721.481 373.276,709.628 347.249,704.711C339.235,703.197 309.777,698.532 312.826,698.532Z" style="fill:white;"/>
            <path d="M672.703,633.867C671.573,632.877 670.051,632.445 668.559,632.703C668.559,632.703 512.036,659.798 498.032,662.747C479.81,666.584 327.314,693.532 312.826,693.532C307.528,693.532 307.544,698.528 307.66,699.304C307.736,699.811 308.119,702.492 311.424,703.462C314.083,704.242 339.007,708.242 346.321,709.624C372.254,714.523 420.194,726.336 420.194,726.336C421.011,726.537 421.866,726.529 422.678,726.312C436.873,722.528 507.019,705.884 523.284,701.602C539.767,697.263 655.942,671.493 666.196,668.964C686.062,664.064 709.839,657.555 713.956,655.867C716.049,655.009 716.824,653.727 717.044,653.327C718.352,650.954 717.843,648.98 716.197,647.334C715.27,646.407 713.373,645.256 710.636,644.252C706.273,642.652 699.147,640.922 692.041,639.235C683.942,637.311 673.136,634 672.703,633.867ZM696.333,650.555C686.869,653.215 674.199,656.69 663.802,659.255C653.536,661.787 537.239,687.588 520.738,691.932C504.899,696.101 437.983,711.991 421.347,716.322C413.64,714.436 371.825,704.265 348.177,699.798C347.436,699.658 346.481,699.482 345.365,699.282C395.725,691.489 486.248,675.448 500.093,672.533C513.172,669.779 650.832,645.922 668.42,642.876C669.24,643.297 670.219,643.72 671.346,644.117C675.594,645.61 682.648,647.282 689.731,648.964C691.961,649.494 694.193,650.025 696.333,650.555Z"/>
        </g>
    </g>
</svg>
