<svg viewBox="0 0 492 492" xmlns="http://www.w3.org/2000/svg" xml:space="preserve" style="fill-rule:evenodd;clip-rule:evenodd;stroke-linecap:round;stroke-linejoin:round;stroke-miterlimit:1.5"><path d="M146.101 699.906c2.126-2.127-.062 13.306-.062 16.469 0 13.284 14.64 9.47 23.739 11.508 9.885 2.213 79.425 19.741 98.886 23.823 36.261 7.605 176.271 38.791 208.427 41.291 7.628.592 207.06-33.119 220.66-36.202 20.088-4.555 286.421-48.357 296.677-58.613 3.161-3.161.409-21.836-1.889-24.135-19.265-19.266-314.607-42.229-322.371-49.993-1.077-1.077-121.429 13.307-136.188 20.687-19.253 9.626-212.331 26.865-220.66 31.03-10.695 5.347-78.205 13.049-119.429 16.777-14.993 1.356-26.509 2.186-30.551 2.186-5.204 0-15.515-3.48-15.515 1.724" style="fill:#fff" transform="scale(.48)"/><path d="M68.559 334.137a2.402 2.402 0 0 0-.448 3.117c-.115 1.553-.412 5.68-.412 6.606 0 2.396.761 3.984 1.853 5.097 1.047 1.066 2.476 1.71 4.134 2.043 2.286.457 5.115.24 7.283.726 4.748 1.063 38.15 9.481 47.497 11.442 17.458 3.661 84.87 18.66 100.351 19.863 3.687.286 100.062-15.939 106.634-17.429 7.713-1.749 91.07-15.554 126.625-23.526 6.353-1.425 11.209-2.675 13.897-3.637 1.62-.579 2.625-1.19 3.05-1.615.413-.414.799-1.038 1.04-1.88.302-1.053.403-2.641.311-4.358-.12-2.325-.566-4.904-1.067-6.494-.353-1.12-.832-1.887-1.191-2.246-.655-.654-1.784-1.368-3.395-2.034-2.964-1.225-7.858-2.488-14.13-3.737-20.286-4.038-55.39-8.105-85.223-11.52-19.796-2.266-37.259-4.243-46.466-5.737a68.896 68.896 0 0 1-5.813-1.22 2.397 2.397 0 0 0-.916-.407c-.21-.047-1.064-.09-2.446.02-6.89.543-32.302 3.614-49.125 6.507-7.51 1.291-13.364 2.61-15.365 3.611-1.568.784-5.699 1.619-11.418 2.571-14.125 2.353-37.483 5.034-57.35 7.31-15.23 1.745-28.42 3.255-33.908 4.2-1.729.297-2.837.611-3.24.814-1.443.72-5.197 1.477-10.227 2.312-12.486 2.072-32.444 4.25-46.243 5.497-7.09.64-12.536 1.04-14.448 1.04-.976 0-2.352-.29-3.622-.437-1.214-.139-2.36-.152-3.22.043-1.083.246-1.877.793-2.385 1.537a3.554 3.554 0 0 0-.617 1.92ZM321.03 301.94c-.813.06-2.927.223-5.414.486-10.656 1.127-32.456 3.898-46.514 6.428-5.723 1.03-10.109 1.962-11.718 2.767-1.759.88-6.362 1.945-12.776 3.013-14.184 2.363-37.642 5.058-57.593 7.344-13.24 1.517-24.93 2.853-31.299 3.792-2.14.316-4.173.751-4.334.786-1.694.812-5.883 1.781-11.502 2.714-12.582 2.088-32.692 4.285-46.596 5.542-7.303.66-12.912 1.06-14.88 1.06-.964 0-2.259-.211-3.534-.387-.527-.072-1.28-.103-1.766-.115a2.398 2.398 0 0 1-.237.38l.013.067c.268 1.5-.381 6.76-.381 8.042 0 .771.109 1.332.449 1.704.649.708 1.746.787 2.886.901 2.075.207 4.351.167 6.184.576 4.742 1.063 38.098 9.47 47.433 11.429 17.353 3.64 84.35 18.58 99.738 19.776 3.638.282 98.716-15.855 105.2-17.325 7.715-1.749 91.079-15.556 126.637-23.529 6.091-1.366 10.752-2.55 13.33-3.472.389-.14.816-.327 1.093-.455.06-.512.181-1.723.134-2.627-.11-2.077-.887-5.182-1.033-5.75-.557-.443-1.557-.836-2.884-1.303-2.83-.994-6.946-1.993-12.012-3.002-20.192-4.02-55.136-8.06-84.832-11.46-22.768-2.605-42.471-4.84-50.208-6.395-1.544-.31-2.666-.612-3.32-.873a4.567 4.567 0 0 1-.264-.114ZM71.01 338.187c.267-.093.542-.26.816-.535-.24.24-.519.419-.816.535Z"/><path d="M190.84 693.551c-4.803-4.803 27.168 7.81 39.046 13.333 10.431 4.85 218.733 51.516 247.409 49.911 84.458-4.728 140.969-22.411 198.045-22.411 11.137 0 68.937-17.058 72.487-11.985 9.875 14.112 2.871 8.272 6.666 12.068 4.916 4.915 59.202-10.558 63.931-13.874 5.221-3.662-10.594-15.723-5.254-16.928 40.123-9.055 73.677-12.163 101.067-20.916 9.673-3.091 75.843-10.426 69.682-10.426" style="fill:#fff" transform="scale(.48)"/><path d="M471.285 320.581c-4.61.743-29.118 3.601-33.168 4.895-13.093 4.185-29.134 5.658-48.314 9.986-1.01.228-1.585.759-1.94 1.327-.505.81-.637 2.237.322 3.851.445.749 1.145 1.658 1.795 2.574.223.315.487.766.69 1.13-.641.25-1.575.563-2.701.934-4.894 1.615-13.047 3.834-18.97 4.848-1.914.327-4.15.42-5.119.444a5.595 5.595 0 0 0-.123-.372c-.253-.695-.955-2.06-2.87-4.797-.352-.502-.947-1-1.907-1.254-.825-.217-2.223-.263-4.027-.074-8.083.843-26.546 6.076-30.79 6.076-27.434 0-54.597 8.489-95.193 10.761-13.634.763-112.672-21.435-117.632-23.74-4.716-2.193-15.828-6.597-18.857-7.067-2.193-.34-3.137 1.04-3.343 1.665-.174.529-.37 1.632.8 2.802.756.755 1.899.89 2.792.402 3.73.984 12.624 4.609 16.622 6.468 5.055 2.35 105.987 24.95 119.881 24.173 40.484-2.267 67.571-10.754 94.93-10.754 3.796 0 18.732-4.024 27.94-5.618 2.123-.368 4.489-.493 5.344-.527a36.7 36.7 0 0 1 1.76 2.863c-.05.337-.199 1.149 1.285 2.632.382.382.957.743 1.771.943.877.217 2.261.265 3.993.103 5.692-.533 15.942-3.188 22.215-5.189 2.97-.947 5.11-1.822 5.725-2.254 1.16-.814 1.602-1.913 1.506-3.216-.072-.988-.621-2.236-1.441-3.469-.302-.454-.705-1.043-1.082-1.587 18.308-3.975 33.706-5.53 46.372-9.577 4.144-1.324 30.077-4.257 33.083-4.835 1.616-.312 2.02-1.484 2.07-1.633.292-.859.183-1.696-.584-2.446-.113-.111-.635-.689-1.839-.689-.356 0-.693.08-.996.221ZM359.36 350.995c.088-.244.183-.455.183-.455l-.035.065c-.056.11-.108.236-.148.39Zm112.744-25.931h.024l-.05-.003.026.003Zm-.163-.019.02.003-.025-.004.005.001Z"/><path d="M571.906 699.906c-2.37 0 4.776-.665 6.895-1.724 3.909-1.954 10.454-3.448 13.792-3.448 4.439 0 84.934-24.342 89.701-22.742 31.188 10.47 47.294 9.758 82.689 17.57 13.094 2.89 42.915 6.896 57.137 12.545 3.204 1.273-57.112 16.024-98.072 23.199-20.687 3.624-94.873-14.809-152.142-25.4Z" style="fill:#fff" transform="scale(.48)"/><path d="M284.328 331.074c-1.894.032-5.442.84-7.577 1.907-.72.36-2.821.55-3.112.637-1.622.483-1.73 1.844-1.749 2.187-.01.187.074 2.38 2.355 2.54h-.001c19.237 3.564 42.403 8.949 57.988 11.27 7.03 1.048 12.594 1.445 15.725.896 17.903-3.136 43.411-9.288 47.202-10.93 1.386-.601 1.754-1.568 1.84-1.898a2.365 2.365 0 0 0-.215-1.772 2.4 2.4 0 0 0-1.28-1.13c-6.92-2.749-21.424-4.729-27.795-6.135-16.883-3.726-24.568-3.371-39.444-8.365-.313-.105-.92-.21-1.792-.122-.957.096-2.585.414-4.67.9-8.92 2.082-26.777 7.292-34.437 9.293a78.569 78.569 0 0 1-3.038.722Zm42.723-6.138c14.86 4.948 22.647 4.65 39.623 8.398 4.452.982 12.989 2.22 19.941 3.831-9.464 2.495-26.521 6.347-39.486 8.618-2.827.495-7.843.03-14.19-.915-12.764-1.902-30.628-5.867-47.234-9.192a54.626 54.626 0 0 0 2.874-.68c7.633-1.994 25.426-7.188 34.316-9.262a64.505 64.505 0 0 1 4.156-.798Z"/><path d="M549.495 244.795c-5.172-23.56-463.641-26.351-498.209-15.516-19.483 6.108 68.278 450.743 89.643 462.007 26.116 13.768 513.724-65.508 513.724-65.508.575-54.016-79.905-265.943-105.158-380.983Z" style="fill:#fff;stroke:#000;stroke-width:10.42px" transform="scale(.48)"/><path d="M567.833 277.803c-5.172-23.56-447.137-20.849-481.705-10.014-19.483 6.107 69.358 417.43 93.311 414.328 35.285-4.57 477.048-67.342 477.048-67.342.575-54.016-63.401-221.932-88.654-336.972Z" style="fill:#fff;stroke:#000;stroke-width:11.08px" transform="matrix(.45124 0 0 .45124 1.395 6.42)"/><path d="m200.73 711.772-3.53 11.474 21.183 5.296 4.413-11.474-22.066-5.296Z" style="fill:#fff;stroke:#000;stroke-width:7.45px" transform="scale(.48)"/><path d="m200.73 711.772-3.53 11.474 21.183 5.296 4.413-11.474-22.066-5.296Z" style="fill:#fff;stroke:#000;stroke-width:7.45px" transform="matrix(.48 0 0 .48 16.1 4.237)"/><path d="M312.826 698.532c14.568 0 167.914-27.034 186.237-30.892 13.989-2.946 170.349-30.01 170.349-30.01 3.691 3.692 39.156 9.147 43.249 13.24.598.597-25.916 7.876-47.662 13.239-10.26 2.531-126.496 28.316-142.988 32.658-16.267 4.283-86.424 20.929-100.621 24.714 0 0-48.114-11.853-74.141-16.77-8.014-1.514-37.472-6.179-34.423-6.179Z" style="fill:#fff" transform="scale(.48)"/><path d="M322.897 304.256a2.398 2.398 0 0 0-1.989-.559s-75.13 13.006-81.853 14.422c-8.746 1.841-81.944 14.776-88.899 14.776-2.543 0-2.535 2.398-2.48 2.77.037.244.221 1.531 1.808 1.997 1.276.374 13.24 2.294 16.75 2.958 12.448 2.351 35.46 8.021 35.46 8.021a2.4 2.4 0 0 0 1.191-.011c6.814-1.817 40.484-9.806 48.291-11.861 7.912-2.083 63.676-14.452 68.598-15.666 9.536-2.352 20.949-5.477 22.925-6.287 1.005-.412 1.377-1.027 1.482-1.219.628-1.14.384-2.087-.406-2.877-.445-.445-1.356-.997-2.67-1.479-2.094-.768-5.514-1.598-8.925-2.408-3.888-.924-9.075-2.513-9.283-2.577Zm11.343 8.01c-4.543 1.277-10.624 2.945-15.615 4.176-4.928 1.216-60.75 13.6-68.67 15.685-7.603 2.001-39.723 9.629-47.708 11.708-3.7-.906-23.771-5.788-35.122-7.932-.356-.067-.814-.152-1.35-.248 24.173-3.74 67.624-11.44 74.27-12.84 6.278-1.321 72.354-12.772 80.797-14.235.393.203.863.406 1.404.596 2.04.717 5.425 1.52 8.825 2.327 1.07.254 2.142.509 3.169.763Z"/></svg>