<svg viewBox="0 0 246 246" xmlns="http://www.w3.org/2000/svg" xml:space="preserve" style="fill-rule:evenodd;clip-rule:evenodd;stroke-linejoin:round;stroke-miterlimit:2"><path d="M86.368 21.737c2.821-5.58 68.066-3.932 69.508.413 2.247 6.772 7.087 201.193 0 206.042-7.949 5.438-66.473 2.671-70.336 0-6.03-4.171-2.524-199.828.828-206.455Z" style="fill:#fff"/><path d="M85.57 21.333c-.181.359-.389 1.204-.57 2.499-.376 2.691-.75 7.535-1.105 13.996-2.019 36.738-3.466 125.993-1.799 167.962.367 9.238.888 16.199 1.582 19.833.229 1.198.488 2.063.753 2.572.188.36.402.594.601.732.625.432 2.562.924 5.457 1.33 6.285.883 17.351 1.626 28.667 1.869 11.333.244 22.918-.017 30.219-1.13 3.291-.501 5.744-1.204 7.005-2.067.265-.181.548-.512.793-1.025.256-.539.502-1.331.726-2.361.805-3.702 1.398-10.7 1.806-19.952 1.856-41.997.014-130.764-1.719-167.366-.439-9.283-.897-15.256-1.262-16.356-.1-.3-.325-.621-.731-.907-.371-.262-.94-.525-1.692-.767-2.538-.815-7.422-1.501-13.469-1.995-15.963-1.305-40.101-1.321-50.134.731-1.596.326-2.853.711-3.696 1.139-.743.377-1.209.823-1.432 1.263Zm69.476 1.158c.349 1.21.736 6.965 1.155 15.818 1.731 36.566 3.572 125.247 1.719 167.203-.402 9.112-.974 16.006-1.768 19.651-.158.728-.322 1.317-.499 1.757-.104.258-.167.456-.282.534-1.124.769-3.331 1.328-6.266 1.776-7.226 1.101-18.693 1.35-29.91 1.109-11.234-.241-22.218-.975-28.458-1.852-1.566-.22-2.827-.447-3.706-.679-.435-.115-.76-.214-.946-.328a3.516 3.516 0 0 1-.221-.471c-.152-.426-.294-1.004-.431-1.721-.684-3.585-1.189-10.454-1.551-19.569-1.666-41.927-.22-131.092 1.797-167.793.351-6.392.718-11.185 1.091-13.847.14-.999.255-1.662.395-1.939.06-.118.193-.209.358-.314.283-.179.653-.344 1.101-.503 1.52-.538 3.841-.964 6.715-1.299 11.457-1.34 31.503-1.175 45.347-.043 5.866.48 10.607 1.125 13.069 1.916.458.147.828.295 1.095.453.072.042.16.112.196.141Z"/><path d="M121.535 33.321c-11.211-.305-17.588 10.063-17.377 16.964.262 8.544 6.676 16.992 18.619 16.963 9.14-.022 15.825-9.663 15.722-15.308-.15-8.15-2.936-18.237-16.964-18.619Z"/><path d="M121.56 32.428c-11.811-.321-18.517 10.614-18.295 17.884.275 8.967 6.98 17.86 19.514 17.829 5.788-.014 10.661-3.651 13.596-7.87 1.976-2.841 3.061-5.941 3.017-8.348-.093-5.109-1.224-10.93-5.243-14.868-2.696-2.642-6.692-4.466-12.589-4.627Zm-.049 1.787c5.324.144 8.953 1.731 11.387 4.116 3.675 3.601 4.622 8.954 4.707 13.625.039 2.109-.966 4.805-2.697 7.294-2.626 3.777-6.953 7.092-12.134 7.104-11.352.028-17.474-7.975-17.722-16.097-.201-6.531 5.848-16.331 16.459-16.042Z"/><path d="M121.585 36.63c-9.108-.248-14.289 8.175-14.118 13.781.213 6.942 5.423 13.805 15.126 13.782 7.426-.018 12.857-7.851 12.773-12.437-.121-6.621-2.385-14.816-13.781-15.126Z" style="fill:#fff"/><path d="M121.609 35.737c-9.708-.264-15.218 8.726-15.035 14.702.226 7.364 5.728 14.672 16.021 14.647 4.76-.011 8.77-2.996 11.183-6.466 1.629-2.341 2.518-4.897 2.481-6.881-.076-4.191-1.012-8.964-4.31-12.196-2.214-2.17-5.495-3.674-10.34-3.806Zm-.049 1.786c4.272.116 7.186 1.383 9.139 3.297 2.953 2.894 3.705 7.198 3.774 10.952.03 1.686-.778 3.838-2.162 5.828-2.105 3.026-5.569 5.689-9.72 5.699-9.112.022-14.031-6.396-14.231-12.915-.16-5.237 4.692-13.092 13.2-12.861Z"/><path d="M121.036 42.974c-4.402-.12-6.893 3.964-6.81 6.673.101 3.321 2.568 6.631 7.209 6.62 2.164-.006 3.998-1.346 5.095-2.923.751-1.08 1.145-2.264 1.128-3.179-.034-1.877-.478-4.006-1.955-5.454-1.001-.98-2.477-1.678-4.667-1.737Zm-.048 1.786c1.616.044 2.726.504 3.464 1.228 1.133 1.11 1.393 2.77 1.42 4.21.011.617-.303 1.397-.809 2.126-.789 1.134-2.076 2.152-3.632 2.155-3.46.009-5.343-2.411-5.419-4.886-.06-1.971 1.774-4.92 4.976-4.833Z"/><g><path d="M120.209 81.32c-19.162-.522-30.062 17.198-29.7 28.993.447 14.604 11.409 29.043 31.822 28.993 15.622-.038 27.048-16.515 26.872-26.164-.255-13.93-5.018-31.17-28.994-31.822Z"/><path d="M120.233 80.426c-19.761-.537-30.99 17.75-30.618 29.914.461 15.027 11.715 29.911 32.718 29.86 9.677-.024 17.813-6.126 22.72-13.181 3.29-4.731 5.116-9.885 5.043-13.894-.157-8.576-2.025-18.36-8.772-24.972-4.514-4.424-11.214-7.458-21.091-7.727Zm-.048 1.787c9.303.253 15.636 3.049 19.888 7.216 6.403 6.275 8.087 15.59 8.236 23.729.068 3.711-1.678 8.461-4.723 12.841-4.599 6.612-12.188 12.392-21.258 12.414-19.822.048-30.492-13.946-30.926-28.127-.35-11.426 10.221-28.578 28.783-28.073Z"/><path d="M120.294 86.975c-15.568-.424-24.423 13.972-24.13 23.554.364 11.865 9.269 23.595 25.853 23.555 12.692-.03 21.975-13.417 21.831-21.257-.207-11.316-4.076-25.322-23.554-25.852Z" style="fill:#fff"/><path d="M120.318 86.081c-16.168-.439-25.352 14.524-25.047 24.476.376 12.287 9.574 24.462 26.748 24.421 7.919-.019 14.581-5.007 18.596-10.78 2.696-3.877 4.187-8.102 4.127-11.387-.129-7.009-1.663-15.001-7.177-20.405-3.692-3.618-9.169-6.105-17.247-6.325Zm-.049 1.787c7.505.204 12.615 2.453 16.045 5.815 5.17 5.066 6.521 12.59 6.641 19.161.055 2.987-1.356 6.808-3.808 10.334-3.706 5.33-9.821 9.995-17.132 10.013-15.993.038-24.607-11.247-24.958-22.689-.282-9.213 8.245-23.041 23.212-22.634Z"/><path d="M119.339 98.451c-7.099-.193-11.124 6.384-10.99 10.753.165 5.376 4.174 10.718 11.687 10.7 3.483-.009 6.423-2.185 8.189-4.724 1.197-1.721 1.843-3.602 1.816-5.06-.056-3.053-.75-6.526-3.152-8.88-1.617-1.585-4.011-2.693-7.55-2.789Zm-.049 1.786c2.966.081 4.993.951 6.348 2.279 2.058 2.017 2.568 5.021 2.616 7.637.022 1.16-.544 2.638-1.496 4.007-1.458 2.096-3.851 3.949-6.726 3.956-6.332.016-9.758-4.436-9.897-8.966-.111-3.631 3.257-9.073 9.155-8.913Z"/></g><g><path d="M121.3 153.42c-19.439-.529-30.497 17.447-30.131 29.413.454 14.816 11.575 29.463 32.283 29.413 15.848-.038 27.44-16.754 27.261-26.543-.259-14.132-5.091-31.621-29.413-32.283Z"/><path d="M121.324 152.527c-20.039-.545-31.426 17.998-31.048 30.333.467 15.238 11.88 30.331 33.178 30.28 9.813-.024 18.063-6.212 23.038-13.366 3.337-4.797 5.189-10.023 5.114-14.088-.159-8.697-2.052-18.619-8.894-25.325-4.578-4.486-11.372-7.562-21.388-7.834Zm-.048 1.786c9.442.257 15.869 3.095 20.185 7.325 6.498 6.368 8.207 15.821 8.359 24.081.068 3.767-1.703 8.589-4.795 13.035-4.667 6.71-12.37 12.576-21.575 12.599-20.118.048-30.947-14.154-31.388-28.547-.355-11.597 10.374-29.005 29.214-28.493Z"/><path d="M121.385 159.157c-15.792-.43-24.776 14.174-24.478 23.896.369 12.036 9.403 23.936 26.227 23.896 12.876-.032 22.293-13.612 22.147-21.565-.21-11.48-4.135-25.689-23.896-26.227Z" style="fill:#fff"/><path d="M121.41 158.264c-16.393-.446-25.705 14.725-25.396 24.816.381 12.459 9.708 24.804 27.122 24.762 8.029-.019 14.783-5.077 18.854-10.93 2.734-3.931 4.246-8.214 4.185-11.544-.13-7.107-1.686-15.212-7.277-20.691-3.744-3.669-9.297-6.19-17.488-6.413Zm-.049 1.786c7.617.207 12.805 2.491 16.286 5.903 5.247 5.142 6.619 12.778 6.741 19.447.055 3.033-1.376 6.912-3.865 10.491-3.763 5.411-9.97 10.146-17.391 10.164-16.234.039-24.976-11.416-25.332-23.03-.287-9.352 8.368-23.388 23.561-22.975Z"/><path d="M120.417 170.812c-7.193-.195-11.272 6.469-11.136 10.896.167 5.447 4.23 10.86 11.844 10.842 3.528-.009 6.507-2.214 8.296-4.787 1.213-1.743 1.867-3.648 1.84-5.125-.056-3.095-.759-6.615-3.194-9-1.639-1.607-4.064-2.728-7.65-2.826Zm-.049 1.787c3.013.082 5.072.966 6.449 2.315 2.09 2.048 2.609 5.1 2.657 7.756.022 1.179-.552 2.681-1.52 4.073-1.481 2.129-3.913 4.012-6.834 4.019-6.432.016-9.912-4.506-10.053-9.109-.113-3.688 3.308-9.217 9.301-9.054Z"/></g></svg>