<svg viewBox="0 0 492 492" xmlns="http://www.w3.org/2000/svg" xml:space="preserve" style="fill-rule:evenodd;clip-rule:evenodd;stroke-linecap:round;stroke-linejoin:round;stroke-miterlimit:1.5"><path d="M359.865 90.57c11.758-23.247 283.609-16.381 289.617 1.724 9.363 28.214 29.53 838.301 0 858.505-33.121 22.659-276.97 11.131-293.064 0C331.29 933.42 345.9 118.182 359.865 90.57Z" style="fill:#fff;stroke:#000;stroke-width:7.45px" transform="scale(.48)"/><path d="M528.808 157.802c-46.713-1.271-73.285 41.926-72.404 70.68 1.091 35.602 27.814 70.801 77.576 70.68 38.084-.092 65.939-40.261 65.508-63.784-.621-33.958-12.232-75.986-70.68-77.576Z" style="stroke:#000;stroke-width:7.45px" transform="matrix(.48 0 0 .48 -10.757 -9.102)"/><path d="M528.808 157.802c-46.713-1.271-73.285 41.926-72.404 70.68 1.091 35.602 27.814 70.801 77.576 70.68 38.084-.092 65.939-40.261 65.508-63.784-.621-33.958-12.232-75.986-70.68-77.576Z" style="fill:#fff;stroke:#000;stroke-width:9.17px" transform="translate(36.955 11.723) scale(.38996)"/><path d="M528.808 157.802c-46.713-1.271-73.285 41.926-72.404 70.68 1.091 35.602 27.814 70.801 77.576 70.68 38.084-.092 65.939-40.261 65.508-63.784-.621-33.958-12.232-75.986-70.68-77.576Z" style="fill:none;stroke:#000;stroke-width:21.96px" transform="matrix(.16279 0 0 .16279 155.94 62.046)"/><g><path d="M528.808 157.802c-46.713-1.271-73.285 41.926-72.404 70.68 1.091 35.602 27.814 70.801 77.576 70.68 38.084-.092 65.939-40.261 65.508-63.784-.621-33.958-12.232-75.986-70.68-77.576Z" style="stroke:#000;stroke-width:4.36px" transform="translate(-193.42 33.177) scale(.82041)"/><path d="M528.808 157.802c-46.713-1.271-73.285 41.926-72.404 70.68 1.091 35.602 27.814 70.801 77.576 70.68 38.084-.092 65.939-40.261 65.508-63.784-.621-33.958-12.232-75.986-70.68-77.576Z" style="fill:#fff;stroke:#000;stroke-width:5.36px" transform="matrix(.66652 0 0 .66652 -111.872 68.772)"/><path d="M528.808 157.802c-46.713-1.271-73.285 41.926-72.404 70.68 1.091 35.602 27.814 70.801 77.576 70.68 38.084-.092 65.939-40.261 65.508-63.784-.621-33.958-12.232-75.986-70.68-77.576Z" style="fill:none;stroke:#000;stroke-width:12.85px" transform="matrix(.27824 0 0 .27824 91.496 154.782)"/></g><g><path d="M528.808 157.802c-46.713-1.271-73.285 41.926-72.404 70.68 1.091 35.602 27.814 70.801 77.576 70.68 38.084-.092 65.939-40.261 65.508-63.784-.621-33.958-12.232-75.986-70.68-77.576Z" style="stroke:#000;stroke-width:4.29px" transform="matrix(.83229 0 0 .83229 -197.52 175.503)"/><path d="M528.808 157.802c-46.713-1.271-73.285 41.926-72.404 70.68 1.091 35.602 27.814 70.801 77.576 70.68 38.084-.092 65.939-40.261 65.508-63.784-.621-33.958-12.232-75.986-70.68-77.576Z" style="fill:#fff;stroke:#000;stroke-width:5.29px" transform="matrix(.67617 0 0 .67617 -114.792 211.613)"/><path d="M528.808 157.802c-46.713-1.271-73.285 41.926-72.404 70.68 1.091 35.602 27.814 70.801 77.576 70.68 38.084-.092 65.939-40.261 65.508-63.784-.621-33.958-12.232-75.986-70.68-77.576Z" style="fill:none;stroke:#000;stroke-width:12.66px" transform="matrix(.28226 0 0 .28226 91.52 298.869)"/></g></svg>