<?xml version="1.0" encoding="UTF-8" standalone="no"?>
<!DOCTYPE svg PUBLIC "-//W3C//DTD SVG 1.1//EN" "http://www.w3.org/Graphics/SVG/1.1/DTD/svg11.dtd">
<svg width="100%" height="100%" viewBox="0 0 492 492" version="1.1" xmlns="http://www.w3.org/2000/svg" xmlns:xlink="http://www.w3.org/1999/xlink" xml:space="preserve" xmlns:serif="http://www.serif.com/" style="fill-rule:evenodd;clip-rule:evenodd;stroke-linecap:round;stroke-linejoin:round;stroke-miterlimit:1.5;">
    <g transform="matrix(0.48,0,0,0.48,0,0)">
        <path d="M359.865,90.57C371.623,67.323 643.474,74.189 649.482,92.294C658.845,120.508 679.012,930.595 649.482,950.799C616.361,973.458 372.512,961.93 356.418,950.799C331.29,933.42 345.9,118.182 359.865,90.57Z" style="fill:white;stroke:black;stroke-width:7.45px;"/>
        <g>
            <g>
                <g transform="matrix(1,0,0,1,-22.4107,-18.9629)">
                    <path d="M528.808,157.802C482.095,156.531 455.523,199.728 456.404,228.482C457.495,264.084 484.218,299.283 533.98,299.162C572.064,299.07 599.919,258.901 599.488,235.378C598.867,201.42 587.256,159.392 528.808,157.802Z" style="stroke:black;stroke-width:7.45px;"/>
                </g>
                <g transform="matrix(0.81242,0,0,0.81242,76.9887,24.4236)">
                    <path d="M528.808,157.802C482.095,156.531 455.523,199.728 456.404,228.482C457.495,264.084 484.218,299.283 533.98,299.162C572.064,299.07 599.919,258.901 599.488,235.378C598.867,201.42 587.256,159.392 528.808,157.802Z" style="fill:white;stroke:black;stroke-width:9.17px;"/>
                </g>
                <g transform="matrix(0.339144,0,0,0.339144,324.875,129.262)">
                    <path d="M528.808,157.802C482.095,156.531 455.523,199.728 456.404,228.482C457.495,264.084 484.218,299.283 533.98,299.162C572.064,299.07 599.919,258.901 599.488,235.378C598.867,201.42 587.256,159.392 528.808,157.802Z" style="fill:none;stroke:black;stroke-width:21.96px;"/>
                </g>
            </g>
            <g transform="matrix(1.70919,0,0,1.70919,-364.656,101.53)">
                <g transform="matrix(1,0,0,1,-22.4107,-18.9629)">
                    <path d="M528.808,157.802C482.095,156.531 455.523,199.728 456.404,228.482C457.495,264.084 484.218,299.283 533.98,299.162C572.064,299.07 599.919,258.901 599.488,235.378C598.867,201.42 587.256,159.392 528.808,157.802Z" style="stroke:black;stroke-width:4.36px;"/>
                </g>
                <g transform="matrix(0.81242,0,0,0.81242,76.9887,24.4236)">
                    <path d="M528.808,157.802C482.095,156.531 455.523,199.728 456.404,228.482C457.495,264.084 484.218,299.283 533.98,299.162C572.064,299.07 599.919,258.901 599.488,235.378C598.867,201.42 587.256,159.392 528.808,157.802Z" style="fill:white;stroke:black;stroke-width:5.36px;"/>
                </g>
                <g transform="matrix(0.339144,0,0,0.339144,324.875,129.262)">
                    <path d="M528.808,157.802C482.095,156.531 455.523,199.728 456.404,228.482C457.495,264.084 484.218,299.283 533.98,299.162C572.064,299.07 599.919,258.901 599.488,235.378C598.867,201.42 587.256,159.392 528.808,157.802Z" style="fill:none;stroke:black;stroke-width:12.85px;"/>
                </g>
            </g>
            <g transform="matrix(1.73393,0,0,1.73393,-372.642,398.512)">
                <g transform="matrix(1,0,0,1,-22.4107,-18.9629)">
                    <path d="M528.808,157.802C482.095,156.531 455.523,199.728 456.404,228.482C457.495,264.084 484.218,299.283 533.98,299.162C572.064,299.07 599.919,258.901 599.488,235.378C598.867,201.42 587.256,159.392 528.808,157.802Z" style="stroke:black;stroke-width:4.29px;"/>
                </g>
                <g transform="matrix(0.81242,0,0,0.81242,76.9887,24.4236)">
                    <path d="M528.808,157.802C482.095,156.531 455.523,199.728 456.404,228.482C457.495,264.084 484.218,299.283 533.98,299.162C572.064,299.07 599.919,258.901 599.488,235.378C598.867,201.42 587.256,159.392 528.808,157.802Z" style="fill:white;stroke:black;stroke-width:5.29px;"/>
                </g>
                <g transform="matrix(0.339144,0,0,0.339144,324.875,129.262)">
                    <path d="M528.808,157.802C482.095,156.531 455.523,199.728 456.404,228.482C457.495,264.084 484.218,299.283 533.98,299.162C572.064,299.07 599.919,258.901 599.488,235.378C598.867,201.42 587.256,159.392 528.808,157.802Z" style="fill:none;stroke:black;stroke-width:12.66px;"/>
                </g>
            </g>
        </g>
    </g>
</svg>
