<?xml version="1.0" encoding="UTF-8" standalone="no"?>
<!DOCTYPE svg PUBLIC "-//W3C//DTD SVG 1.1//EN" "http://www.w3.org/Graphics/SVG/1.1/DTD/svg11.dtd">
<svg width="100%" height="100%" viewBox="0 0 492 492" version="1.1" xmlns="http://www.w3.org/2000/svg" xmlns:xlink="http://www.w3.org/1999/xlink" xml:space="preserve" xmlns:serif="http://www.serif.com/" style="fill-rule:evenodd;clip-rule:evenodd;stroke-linejoin:round;stroke-miterlimit:2;">
    <g transform="matrix(0.48,0,0,0.48,0,0)">
        <g>
            <path d="M370.209,670.599C360.209,682.453 224.834,831.513 232.296,846.438C238.695,859.235 252.451,868.316 261.603,877.468C264.763,880.628 280.583,892.097 283.118,888.416C294.538,871.837 321.538,825.515 330.559,813.683C348.211,790.531 414.03,693.234 414.03,693.234C414.03,693.234 379.701,690.099 370.209,670.599Z" style="fill:white;"/>
            <path d="M375.199,668.17C374.377,666.482 372.758,665.324 370.894,665.092C369.031,664.86 367.177,665.586 365.967,667.021C357.943,676.532 269.461,774.135 238.213,820.453C232.325,829.181 228.425,836.273 227.107,840.815C226.068,844.398 226.442,847.14 227.332,848.92C233.995,862.245 248.149,871.863 257.678,881.392C260.571,884.285 272.828,893.105 279.062,894.424C283.238,895.307 286.134,893.821 287.688,891.564C299.074,875.035 325.979,828.844 334.972,817.048C352.662,793.847 418.627,696.344 418.627,696.344C419.727,694.718 419.886,692.632 419.046,690.858C418.205,689.083 416.49,687.885 414.535,687.707C414.535,687.707 403.032,686.65 391.921,681.889C385.169,678.996 378.42,674.788 375.199,668.17ZM279.979,883.153C275.106,881.361 267.494,875.51 265.527,873.544C256.92,864.936 243.901,856.549 237.618,844.649C237.734,844.167 237.987,843.181 238.273,842.457C239.812,838.556 243.031,833.159 247.415,826.661C275.298,785.331 349.06,702.95 369.634,679.683L369.634,679.683C374.355,685.165 380.852,689.223 387.549,692.092C393.603,694.686 399.758,696.32 404.557,697.32C389.021,720.222 340.846,791.038 326.145,810.318C317.456,821.716 292.119,865.013 279.979,883.153Z"/>
            <path d="M365.648,674.53C364.761,676.304 373.11,663.742 374.285,661.857C375.818,659.396 384.003,649.483 386.321,647.093" style="fill:white;"/>
            <path d="M362.748,671.337C362.362,671.685 362.035,672.109 361.789,672.601C360.202,675.775 362.433,677.672 362.723,677.929C363.269,678.413 366.1,680.457 368.78,677.62C369.536,676.819 376.831,665.93 377.947,664.139C379.406,661.796 387.211,652.373 389.418,650.098C391.076,648.388 391.035,645.655 389.326,643.997C387.616,642.339 384.883,642.38 383.225,644.089C380.795,646.594 372.23,656.996 370.623,659.575C369.735,661.001 364.002,669.483 362.748,671.337ZM369.682,676.062L369.61,676.239L369.629,676.197L369.682,676.062ZM369.918,675.15C369.874,675.454 369.797,675.757 369.685,676.053C369.814,675.721 369.885,675.419 369.918,675.15Z"/>
            <path d="M414.03,693.234C410.072,703.375 417.549,689.576 420.321,683.093C420.874,681.803 425.814,675.101 425.814,674.071" style="fill:white;"/>
            <path d="M421.659,672.908C421.1,673.762 416.82,680.308 416.355,681.397C415.431,683.555 413.96,686.58 412.607,689.163C411.459,689.564 410.487,690.445 410.011,691.665C409.157,693.853 408.774,695.163 408.669,695.767C408.526,696.586 408.591,697.174 408.658,697.541C408.918,698.967 409.666,699.774 410.347,700.284C411.357,701.041 413.688,702.206 416.127,699.834C417.253,698.739 422.136,689.823 424.288,684.79C424.708,683.809 427.839,679.564 429.058,677.393C429.908,675.879 430.128,674.617 430.128,674.071C430.128,671.69 428.195,669.756 425.814,669.756C423.836,669.756 422.167,671.09 421.659,672.908Z"/>
            <path d="M384,651.636C384,659.173 414.713,675.771 423.65,675.771C424.037,675.771 492.031,586.154 500.216,575.051C540.868,519.902 654.653,341.333 654.653,341.333C654.653,341.333 677.297,368.683 678.788,367.192C687.918,358.062 684.666,338.902 692.579,330.99C700.717,322.852 732.299,336.092 740.848,327.542C742.624,325.767 709.444,301.309 708.094,299.96C706.506,298.372 727.171,255.251 721.886,249.966C720.567,248.648 694.038,267.497 675.529,273.576C673.217,274.335 632.173,249.897 630.518,248.242C629.592,247.316 641.12,285.911 637.414,289.616C627.173,299.857 609.456,307.23 597.764,318.923C597.415,319.272 644.31,327.542 644.31,327.542C644.31,327.542 618.294,365.766 586.135,409.003C548.002,460.272 492.157,526.232 466.11,560.913C431.444,607.072 382.193,651.636 384,651.636Z" style="fill:white;"/>
            <path d="M632.529,286.623C622.17,296.388 605.174,303.664 593.84,314.998C592.549,316.289 592.125,317.765 592.224,319.29C592.294,320.359 592.621,321.823 594.14,323.135C594.307,323.28 595.479,324.167 597.805,324.672C602.962,325.792 623.162,329.419 634.854,331.501C625.883,344.484 605.466,373.713 581.681,405.691C543.554,456.953 487.715,522.904 461.673,557.58C430.61,598.94 387.769,638.998 380.826,646.6C378.881,648.729 378.493,650.488 378.441,650.931C378.346,651.733 378.406,652.439 378.573,653.06C378.761,654.18 379.18,655.38 379.885,656.62C381.219,658.962 383.885,661.766 387.467,664.553C394.584,670.092 405.507,675.984 413.697,679.017C417.792,680.534 421.329,681.321 423.65,681.321C424.057,681.321 425.847,681.478 427.66,679.614C427.846,679.423 428.692,678.401 430.048,676.658C441.432,662.023 497.309,588.349 504.683,578.345C540.815,529.327 634.649,382.943 655.283,350.661C661.325,357.722 671.204,369.012 674.558,371.37C678.479,374.127 681.606,372.223 682.712,371.116C688.02,365.809 690.06,357.719 691.592,349.672C692.21,346.427 692.777,343.214 693.669,340.351C694.332,338.221 695.123,336.295 696.503,334.914C696.877,334.541 697.432,334.385 698.042,334.226C699.307,333.895 700.784,333.784 702.4,333.77C706.423,333.735 711.147,334.348 715.884,334.929C722.306,335.717 728.752,336.428 733.869,335.926C738.525,335.469 742.27,333.97 744.773,331.467C745.979,330.261 747.871,326.947 744.782,322.97C741.25,318.424 720.989,303.072 714.197,297.784C717.033,289.238 726.312,267.822 727.985,256.873C728.798,251.548 727.533,247.765 725.81,246.042C724.976,245.208 722.538,243.473 718.725,244.982C713.504,247.048 691.783,261.885 675.384,267.757C666.685,263.987 635.841,245.716 634.443,244.318C633.421,243.296 632.39,242.954 631.64,242.796C629.505,242.346 627.693,242.929 626.239,244.651C625.99,244.946 624.458,246.843 625.151,250.198C625.878,253.715 629.708,267.495 631.609,278.04C632.172,281.164 632.448,285.222 632.529,286.623ZM716.112,259.364C716.052,259.618 715.988,259.869 715.922,260.116C713.669,268.458 709.248,279.496 706.19,287.473C704.707,291.34 703.529,294.542 702.978,296.505C702.508,298.182 702.425,299.432 702.475,300.116C702.613,301.98 703.431,303.146 704.17,303.884C705.029,304.743 721.12,317.757 730.094,325.001C726.187,325.017 721.706,324.46 717.235,323.912C710.837,323.127 704.457,322.376 699.439,322.797C694.779,323.188 691.077,324.643 688.655,327.065C684.802,330.918 682.836,336.839 681.497,343.415C680.702,347.324 680.071,351.473 678.965,355.302C678.621,356.496 678.236,357.659 677.768,358.758L658.928,337.794C657.797,336.427 656.08,335.684 654.309,335.794C652.538,335.904 650.926,336.854 649.973,338.351C649.973,338.351 536.346,516.683 495.748,571.758C488.391,581.739 432.644,655.242 421.286,669.843L421.274,669.858C419.37,669.377 416.979,668.45 414.357,667.328C407.624,664.446 399.706,660.013 394.284,655.793C392.977,654.776 391.612,653.38 390.67,652.352C401.182,641.542 441.097,603.46 470.548,564.246C496.598,529.56 552.45,463.591 590.588,412.316C622.822,368.978 648.898,330.665 648.898,330.665C649.958,329.108 650.155,327.12 649.423,325.384C648.691,323.649 647.129,322.404 645.274,322.076C645.274,322.076 623.763,318.285 610.057,315.74C620.753,307.802 633.331,301.548 641.339,293.541C642.081,292.799 642.78,291.746 643.209,290.293C643.607,288.945 643.799,286.88 643.635,284.306C643.249,278.249 640.966,268.166 638.977,260.02C648.261,265.634 660.526,272.771 667.62,276.347C670.563,277.831 672.802,278.729 673.861,278.966C675.427,279.315 676.575,279.074 677.26,278.849C688.984,274.998 706.586,265.019 716.112,259.364ZM384.3,646.095C385.58,646.152 386.545,646.589 387.29,647.167C386.445,646.543 385.416,646.154 384.3,646.095ZM628.169,253.293C627.655,253.053 627.122,252.695 626.594,252.167C626.761,252.334 627.31,252.725 628.169,253.293Z"/>
            <path d="M652.975,147.367C649.364,141.956 653.381,150.558 653.903,151.079C658.351,155.528 662.198,170.625 661.327,171.496C658.794,174.03 641.838,181.038 641.838,186.345C641.838,191.143 661.92,186.938 663.184,188.201C664.424,189.442 670.966,210.116 674.32,206.762C679.307,201.775 677.663,190.427 682.673,185.417C685.97,182.119 703.499,185.008 708.658,179.849C709.585,178.922 706.264,178.188 705.874,177.993C701.495,175.803 692.324,170.011 689.169,166.856C688,165.688 699.377,143.655 699.377,143.655C699.377,143.655 691.485,146.891 690.793,147.583C689.549,148.827 676.696,153.455 674.32,151.079C670.284,147.043 642.575,136.865 652.975,147.367Z" style="fill:white;"/>
            <path d="M647.493,147.436C647.602,147.833 647.747,148.266 647.931,148.719C648.795,150.842 650.499,153.777 650.852,154.13C652.138,155.416 653.258,157.867 654.264,160.437C655.417,163.381 656.366,167.331 656.829,169.426C656.149,169.816 655.308,170.263 654.391,170.775C650.789,172.789 646.153,175.332 642.904,177.883C639.391,180.642 637.524,183.808 637.524,186.345C637.524,188.402 638.416,190.076 640.242,191.296C641.458,192.108 643.418,192.724 645.859,192.923C649.917,193.255 657.258,192.696 660.449,192.418C661.391,194.655 662.738,198.155 664.193,201.347C665.709,204.67 667.401,207.668 668.864,209.209C670.333,210.756 671.914,211.363 673.218,211.436C674.669,211.517 676.093,211.091 677.371,209.813C680.401,206.783 681.695,201.932 682.714,196.965C683.351,193.862 683.729,190.659 685.531,188.671C685.857,188.583 687.042,188.274 687.934,188.162C690.043,187.899 692.61,187.799 695.233,187.637C698.809,187.417 702.472,187.075 705.445,186.25C708.062,185.524 710.216,184.393 711.709,182.9C712.575,182.033 712.931,181.121 713.07,180.294C713.251,179.223 713.081,178.165 712.494,177.153C712.147,176.556 711.588,175.908 710.768,175.369C709.986,174.855 708.181,174.225 707.602,174.03C704.135,172.271 697.753,168.339 694.057,165.406L703.211,145.634C704.041,144.028 703.78,142.074 702.559,140.74C701.337,139.407 699.414,138.977 697.741,139.663C697.741,139.663 692.495,141.818 690.028,143.047C689.004,143.557 688.275,144.068 687.907,144.384C687.994,144.305 688.081,144.23 688.081,144.23C688.081,144.23 683.418,146.195 680.332,146.913C679.075,147.206 677.292,147.349 676.639,147.393C674.549,145.765 670.213,143.501 665.589,141.711C660.318,139.669 654.712,138.267 651.92,138.472C648.798,138.702 647.208,140.402 646.613,142.177C646.299,143.111 646.193,144.251 646.615,145.61C646.772,146.113 647.049,146.726 647.493,147.436ZM657.218,148.145C658.964,148.591 660.902,149.149 662.473,149.758C666.34,151.255 670.072,152.933 671.269,154.13C672.594,155.455 675.54,156.381 679.262,155.883C682.766,155.415 687.229,153.997 690.059,152.817C687.73,157.719 685.439,162.847 684.961,164.979C684.364,167.642 685.484,169.273 686.118,169.907C688.44,172.229 693.801,175.909 698.442,178.74C696.15,178.977 693.736,179.077 691.5,179.211C688.158,179.412 685.147,179.715 683.118,180.362C681.583,180.851 680.422,181.566 679.622,182.366C676.579,185.409 675.28,190.266 674.261,195.231C673.917,196.911 673.65,198.619 673.19,200.146L673.152,200.075C671.002,195.858 668.906,190.129 667.775,187.632C667.167,186.291 666.55,185.466 666.234,185.15C665.679,184.595 663.977,183.591 661.212,183.642C658.386,183.694 652.827,184.53 648.615,184.481C649.185,184 649.789,183.526 650.357,183.148C655.762,179.555 662.775,176.15 664.378,174.547C664.833,174.093 665.33,173.415 665.591,172.387C665.745,171.782 665.843,170.523 665.582,168.813C664.834,163.924 661.241,152.828 657.35,148.45L657.215,148.159L657.218,148.145Z"/>
            <path d="M739.796,206.106C732.129,206.106 755.004,210.362 755.988,212.331C757.854,216.061 757.844,227.759 757.844,231.82C757.844,232.095 756.419,238.814 757.844,237.388C762.098,233.134 767.761,230.255 772.693,225.323C775.788,222.229 788.161,237.697 793.11,232.748C799.22,226.639 782.065,213.167 784.758,210.474C786.268,208.964 801.012,201.672 799.607,200.266C795.096,195.755 785.222,203.514 781.046,199.338C776.589,194.881 769.909,179.849 769.909,179.849C769.909,179.849 769.419,181.758 768.981,182.633C767.058,186.479 763.413,193.032 763.413,197.482C763.413,198.173 753.766,199.45 746.708,203.05C745.041,203.9 738.134,206.106 739.796,206.106Z" style="fill:white;"/>
            <path d="M760.165,194.82C757.104,195.545 750.001,197.385 745.095,199.888C743.826,200.535 739.633,201.968 738.184,202.673C737.282,202.813 736.745,203.051 736.497,203.196C735.236,203.937 734.831,204.962 734.709,205.867C734.593,206.734 734.643,208.451 736.643,209.626C737.459,210.105 740.167,210.952 743.377,211.815C746.588,212.678 751.552,214.255 753.137,214.763C753.53,216.059 753.735,217.934 753.911,219.943C754.287,224.231 754.294,229.081 754.294,231.552C754.192,232.117 753.795,234.391 753.697,235.731C753.605,236.992 753.759,238.044 753.963,238.602C754.628,240.421 755.964,241.046 757.273,241.129C758.02,241.176 759.169,241.084 760.355,239.898C764.325,235.928 769.522,233.155 774.207,228.793C775.387,229.518 778.235,231.288 780.174,232.642C783.042,234.644 786.055,236.459 788.592,237.039C791.346,237.669 793.741,237.137 795.621,235.258C797.719,233.159 798.331,230.587 797.825,227.726C797.307,224.794 795.35,221.414 793.105,218.268C791.598,216.157 789.992,214.144 788.879,212.473C788.81,212.37 788.74,212.26 788.672,212.147C789.391,211.705 790.27,211.175 791.083,210.707C794.622,208.668 799.076,206.101 801.045,204.428C804.145,201.796 803.241,198.879 802.117,197.756C799.494,195.133 795.707,194.882 791.619,195.714C789.602,196.125 787.506,196.772 785.613,197.003C784.818,197.101 784.059,197.331 783.556,196.828C779.355,192.627 773.153,178.407 773.153,178.407C772.54,177.027 771.119,176.185 769.614,176.311C768.108,176.437 766.847,177.502 766.471,178.965C766.471,178.965 766.131,180.394 765.806,181.045C764.044,184.568 761.105,190.202 760.165,194.82ZM770.052,188.289C772.534,193.157 775.913,199.225 778.536,201.848C780.999,204.311 784.723,204.524 788.831,203.64L789.369,203.518C786.045,205.474 782.926,207.286 782.248,207.964C781.265,208.947 780.763,210.23 780.956,211.867C781.112,213.185 782.066,215.161 783.633,217.371C785.428,219.904 788.055,223.054 789.702,226.096C790.21,227.034 790.623,227.949 790.806,228.821C790.91,229.318 790.975,229.799 790.659,230.173C790.532,230.164 790.24,230.137 790.059,230.09C789.604,229.971 789.13,229.777 788.639,229.541C786.429,228.48 784.029,226.666 781.834,225.122C779.089,223.19 776.509,221.717 774.731,221.437C772.842,221.14 771.334,221.663 770.183,222.813C767.358,225.638 764.292,227.79 761.389,229.913C761.372,226.518 761.273,221.182 760.733,216.967C760.398,214.351 759.85,212.116 759.164,210.743C758.826,210.067 757.595,208.789 755.314,207.92C753.701,207.305 751.312,206.616 748.86,205.945C755.087,202.926 763.045,201.653 764.612,200.937C766.72,199.973 766.963,198.289 766.963,197.482C766.963,194.813 768.509,191.334 770.052,188.289ZM739.796,209.355L739.796,202.556C741.019,202.556 741.608,203.146 741.887,203.389C742.189,203.653 742.423,203.938 742.601,204.239C741.465,203.914 740.152,203.456 740.152,203.456C740.152,203.456 740.214,203.489 740.239,203.504C741.959,204.514 741.846,206.065 741.746,206.81C741.655,207.492 741.382,208.173 740.782,208.781C740.667,208.898 740.201,209.149 739.796,209.355Z"/>
            <g transform="matrix(0.242692,0.491079,-0.40584,0.200567,645.748,-28.9665)">
                <path d="M739.796,206.106C732.129,206.106 755.004,210.362 755.988,212.331C757.854,216.061 757.844,227.759 757.844,231.82C757.844,232.095 756.419,238.814 757.844,237.388C762.098,233.134 767.761,230.255 772.693,225.323C775.788,222.229 788.161,237.697 793.11,232.748C799.22,226.639 782.065,213.167 784.758,210.474C786.268,208.964 801.012,201.672 799.607,200.266C795.096,195.755 785.222,203.514 781.046,199.338C776.589,194.881 769.909,179.849 769.909,179.849C769.909,179.849 769.419,181.758 768.981,182.633C767.058,186.479 763.413,193.032 763.413,197.482C763.413,198.173 753.766,199.45 746.708,203.05C745.041,203.9 738.134,206.106 739.796,206.106Z" style="fill:white;"/>
                <path d="M750.739,218.404C750.846,219.092 750.948,219.835 751.003,220.46C751.34,224.298 751.362,228.608 751.362,231.082C751.165,232.306 750.748,235.038 750.731,236.446C750.709,238.23 751.038,239.647 751.37,240.555C752.288,243.067 753.812,244.385 755.428,245.026C756.937,245.625 759.294,246.112 761.973,243.433C765.557,239.848 770.141,237.241 774.443,233.556C776.238,234.774 779.527,236.985 781.697,238.345C784.547,240.131 787.386,241.334 789.779,241.537C792.66,241.782 795.171,240.86 797.239,238.793C801.092,234.94 801.802,230.08 800.178,224.657C799.385,222.007 797.793,219.078 795.882,216.293C795.342,215.505 794.688,214.577 794.023,213.647C795.804,212.593 797.67,211.468 799.047,210.589C801.981,208.715 804.068,206.67 804.756,205.561C806.102,203.391 806.287,201.28 806.145,199.646C805.97,197.622 805.266,195.752 803.735,194.221C800.613,191.099 796.119,190.469 791.252,191.46C789.592,191.798 787.88,192.285 786.265,192.587C785.788,192.676 785.074,192.728 784.675,192.75C780.814,188.305 775.617,176.135 775.617,176.135C774.381,173.353 771.887,171.74 769.288,172.043C766.69,172.345 764.496,174.504 763.721,177.52L763.35,178.743C762.1,181.236 760.25,184.727 758.941,188.138C758.566,189.116 758.236,190.095 757.96,191.06C754.457,191.94 748.486,193.633 744.191,195.824C743.01,196.426 739.41,197.713 737.575,198.515C732.883,199.648 731.939,204.277 731.831,205.083C731.589,206.882 731.46,211.181 735.611,213.619C736.999,214.434 746.573,217.215 750.739,218.404ZM760.169,206.456C762.721,205.798 764.722,205.366 765.426,205.044C769.575,203.148 769.894,199.07 769.894,197.482C769.894,196.894 770.064,196.26 770.312,195.597C772.5,199.525 774.92,203.385 776.917,205.383C777.511,205.976 778.166,206.476 778.873,206.884C778.094,208.493 777.808,210.378 778.066,212.561C778.276,214.336 779.349,217.144 781.393,220.11C781.103,219.914 780.817,219.727 780.538,219.55C777.849,217.847 775.401,217.043 773.662,217.069C771.617,217.1 769.932,217.911 768.565,219.278C767.141,220.703 765.655,221.956 764.16,223.117C764.059,220.785 763.891,218.363 763.616,216.217C763.187,212.863 762.414,210.032 761.533,208.271C761.32,207.845 760.875,207.178 760.169,206.456ZM739.796,198.264C741.02,198.264 742.165,198.675 743.142,199.39C742.386,198.772 741.313,198.264 739.796,198.264ZM739.796,198.264C739.796,198.264 739.796,198.264 739.796,198.264Z"/>
            </g>
            <g transform="matrix(1,0,0,1,-3.39999,3.2)">
                <path d="M792.182,278.222C790.659,278.222 776.641,286.81 778.262,288.431C781.55,291.719 793.464,284.888 792.182,289.359C791.057,293.284 793.388,307.864 794.166,306.023C796.806,299.784 801.622,293.771 802.935,288.815C803.607,286.277 810.856,294.294 816.312,296.783C823.59,300.104 808.256,287.206 810.743,284.718C811.81,283.652 814.648,281.55 815.384,280.078C815.886,279.073 824.3,270.731 823.24,270.894C816.388,271.946 808.486,277.22 805.631,274.366C802.785,271.52 799.295,258.557 797.207,261.573C795.57,263.937 792.182,276.47 792.182,278.222Z" style="fill:white;"/>
                <path d="M789.05,275.627L789.046,275.629C785.69,277.272 778.79,281.687 776.337,284.333C773.773,287.099 774.567,289.757 775.751,290.941C776.995,292.185 778.818,292.873 781.036,292.91C783.05,292.944 785.509,292.419 787.727,291.912C787.937,291.864 788.165,291.816 788.399,291.77C788.331,295.247 788.804,300.024 789.429,303.35C789.941,306.072 790.806,307.98 791.234,308.464C792.494,309.886 793.906,309.913 795.024,309.59C795.766,309.376 796.809,308.889 797.436,307.406C799.544,302.423 802.968,297.561 805.016,293.252C805.338,293.484 805.662,293.725 805.959,293.957C808.689,296.084 812.001,298.718 814.838,300.013C817.834,301.38 819.602,300.607 820.18,300.217C821.239,299.504 822.81,297.183 820.811,294.156C819.886,292.755 817.744,290.379 815.954,288.097C815.479,287.492 814.934,286.659 814.539,286.028C815.897,284.791 817.654,283.187 818.406,281.939L818.454,281.879C819.448,280.656 822.449,277.571 824.339,275.451C825.482,274.168 826.27,273.083 826.493,272.618C827.337,270.855 826.693,269.567 826.271,268.938C825.669,268.039 824.636,267.088 822.701,267.385C818.449,268.038 813.795,270.226 810.124,271.264C809.375,271.475 808.307,271.59 807.933,271.625C806.821,270.29 805.713,267.244 804.543,264.685C803.333,262.04 802.035,259.786 800.998,258.844C799.903,257.849 798.752,257.539 797.75,257.574C796.587,257.614 795.322,258.059 794.288,259.553C793.53,260.647 792.366,263.591 791.34,266.899C790.392,269.957 789.535,273.323 789.05,275.627ZM798.353,268.26C798.511,268.588 798.661,268.911 798.799,269.218C800.219,272.383 801.789,275.544 803.121,276.876C804.703,278.458 807.04,279.078 809.996,278.573C810.792,278.437 811.659,278.202 812.576,277.907C812.394,278.164 812.271,278.365 812.208,278.491C811.986,278.935 811.374,279.405 810.81,279.914C809.823,280.804 808.796,281.645 808.233,282.208C807.333,283.108 806.781,284.37 806.938,285.948C806.281,285.544 805.704,285.244 805.235,285.08C803.637,284.52 802.36,284.803 801.461,285.316C800.596,285.808 799.851,286.593 799.503,287.906C798.852,290.364 797.301,293.08 795.595,295.956C795.575,295.722 795.557,295.489 795.54,295.258C795.394,293.219 795.307,291.341 795.595,290.337C796.17,288.333 795.642,286.979 794.938,286.052C794.12,284.977 792.503,284.071 790.073,284.27C789.437,284.322 788.684,284.457 787.863,284.628C790.312,283.119 792.545,281.869 792.826,281.713C794.48,281.411 795.732,279.963 795.732,278.222C795.732,277.276 796.926,272.861 798.122,269.001L798.353,268.26Z"/>
            </g>
            <g transform="matrix(-0.178182,0.647831,-0.682494,-0.187716,1131.6,-118.04)">
                <path d="M792.182,278.222C790.659,278.222 776.641,286.81 778.262,288.431C781.55,291.719 793.464,284.888 792.182,289.359C791.057,293.284 793.388,307.864 794.166,306.023C796.806,299.784 801.622,293.771 802.935,288.815C803.607,286.277 810.856,294.294 816.312,296.783C823.59,300.104 808.256,287.206 810.743,284.718C811.81,283.652 814.648,281.55 815.384,280.078C815.886,279.073 824.3,270.731 823.24,270.894C816.388,271.946 808.486,277.22 805.631,274.366C802.785,271.52 799.295,258.557 797.207,261.573C795.57,263.937 792.182,276.47 792.182,278.222Z" style="fill:white;"/>
                <path d="M786.714,293.68C786.832,297.742 787.441,302.647 788.106,305.415C788.61,307.519 789.43,308.866 789.848,309.338C791.736,311.469 793.902,311.461 795.577,310.978C796.631,310.673 798.178,309.999 799.07,307.892C800.871,303.633 803.615,299.458 805.661,295.637C808.267,297.641 811.36,300.088 814.023,301.303C817.33,302.812 819.418,302.234 820.208,301.916C822.43,301.024 823.751,299.389 823.56,296.705C823.507,295.946 823.123,294.536 821.965,292.927C820.929,291.487 818.265,288.064 816.749,286.128C817.955,284.991 819.25,283.698 819.923,282.635L819.882,282.703C819.882,282.703 827.511,274.392 828.101,273.16C829.236,270.79 828.347,269.067 827.78,268.222C826.871,266.865 825.318,265.494 822.396,265.943C818.66,266.517 814.619,268.186 811.142,269.378C810.432,269.621 809.467,269.861 808.798,270.013C807.932,268.572 807.09,266.196 806.161,264.164C804.849,261.296 803.389,258.87 802.264,257.848C800.729,256.454 799.084,256.061 797.68,256.11C796.057,256.166 794.235,256.734 792.791,258.819C791.995,259.969 790.74,263.057 789.662,266.535C788.794,269.337 788.009,272.391 787.504,274.706C783.832,276.628 777.37,280.849 774.974,283.433C771.679,286.988 772.908,290.361 774.429,291.883C776.031,293.485 778.391,294.385 781.288,294.377C782.693,294.373 784.824,294.04 786.714,293.68ZM793.377,283.154C794.708,283.586 795.689,284.335 796.396,285.266C796.987,286.043 797.504,287.058 797.568,288.395C797.66,288.125 797.74,287.857 797.811,287.592C798.281,285.815 799.329,284.767 800.499,284.1C801.703,283.414 803.378,282.982 805.462,283.588C805.761,282.678 806.276,281.901 806.911,281.266C807.145,281.031 807.554,280.646 808.02,280.214C805.426,280.211 803.337,279.356 801.799,277.819C800.859,276.878 799.777,275.169 798.75,273.121C798.035,275.865 797.461,278.412 797.461,278.412C797.461,278.412 797.466,278.269 797.466,278.222C797.466,280.566 795.772,282.534 793.484,283.084L793.377,283.154Z"/>
            </g>
        </g>
    </g>
</svg>
