<svg viewBox="0 0 492 492" xmlns="http://www.w3.org/2000/svg" xml:space="preserve" style="fill-rule:evenodd;clip-rule:evenodd;stroke-linejoin:round;stroke-miterlimit:2"><path d="M370.209 670.599c-10 11.854-145.375 160.914-137.913 175.839 6.399 12.797 20.155 21.878 29.307 31.03 3.16 3.16 18.98 14.629 21.515 10.948 11.42-16.579 38.42-62.901 47.441-74.733 17.652-23.152 83.471-120.449 83.471-120.449s-34.329-3.135-43.821-22.635Z" style="fill:#fff" transform="scale(.48)"/><path d="M180.096 320.722a2.664 2.664 0 0 0-4.432-.552c-3.851 4.565-46.323 51.415-61.322 73.647-2.826 4.19-4.698 7.594-5.33 9.774-.5 1.72-.32 3.036.107 3.89 3.199 6.397 9.993 11.013 14.566 15.587 1.39 1.389 7.272 5.622 10.265 6.256 2.004.423 3.394-.29 4.14-1.373 5.466-7.934 18.38-30.106 22.697-35.768 8.49-11.136 40.154-57.938 40.154-57.938a2.665 2.665 0 0 0-1.964-4.146s-5.522-.507-10.855-2.792c-3.24-1.389-6.48-3.409-8.026-6.585ZM134.39 423.913c-2.34-.86-5.993-3.668-6.937-4.612-4.131-4.132-10.38-8.157-13.396-13.87a8.88 8.88 0 0 1 .314-1.052c.739-1.872 2.284-4.463 4.388-7.582 13.384-19.838 48.79-59.381 58.665-70.55 2.266 2.632 5.385 4.58 8.6 5.957 2.905 1.245 5.86 2.03 8.163 2.51-7.457 10.993-30.58 44.984-37.637 54.239-4.171 5.47-16.333 26.253-22.16 34.96Z"/><path d="M365.648 674.53c-.887 1.774 7.462-10.788 8.637-12.673 1.533-2.461 9.718-12.374 12.036-14.764" style="fill:#fff" transform="scale(.48)"/><path d="M174.119 322.242c-.185.167-.342.37-.46.606-.762 1.524.309 2.435.448 2.558.262.232 1.621 1.213 2.907-.148.363-.385 3.865-5.612 4.4-6.471.7-1.125 4.447-5.648 5.507-6.74a2.072 2.072 0 0 0-2.973-2.884c-1.166 1.202-5.278 6.195-6.049 7.433-.426.684-3.178 4.756-3.78 5.646Zm3.328 2.268-.034.085.009-.02.025-.065Zm.114-.438Z"/><path d="M414.03 693.234c-3.958 10.141 3.519-3.658 6.291-10.141.553-1.29 5.493-7.992 5.493-9.022" style="fill:#fff" transform="scale(.48)"/><path d="M202.396 322.996c-.268.41-2.322 3.552-2.546 4.075-.443 1.035-1.15 2.487-1.799 3.727a2.064 2.064 0 0 0-1.246 1.201c-.41 1.05-.593 1.68-.644 1.97a2.361 2.361 0 0 0-.005.85c.125.685.484 1.073.81 1.317.485.364 1.604.923 2.775-.216.54-.525 2.884-4.805 3.917-7.22.202-.472 1.705-2.51 2.29-3.551.408-.727.513-1.333.513-1.595a2.072 2.072 0 0 0-4.065-.558Z"/><path d="M384 651.636c0 7.537 30.713 24.135 39.65 24.135.387 0 68.381-89.617 76.566-100.72 40.652-55.149 154.437-233.718 154.437-233.718s22.644 27.35 24.135 25.859c9.13-9.13 5.878-28.29 13.791-36.202 8.138-8.138 39.72 5.102 48.269-3.448 1.776-1.775-31.404-26.233-32.754-27.582-1.588-1.588 19.077-44.709 13.792-49.994-1.319-1.318-27.848 17.531-46.357 23.61-2.312.759-43.356-23.679-45.011-25.334-.926-.926 10.602 37.669 6.896 41.374-10.241 10.241-27.958 17.614-39.65 29.307-.349.349 46.546 8.619 46.546 8.619s-26.016 38.224-58.175 81.461c-38.133 51.269-93.978 117.229-120.025 151.91-34.666 46.159-83.917 90.723-82.11 90.723Z" style="fill:#fff" transform="scale(.48)"/><path d="M303.614 137.579c-4.972 4.687-13.13 8.18-18.57 13.62-.62.62-.824 1.328-.776 2.06a2.54 2.54 0 0 0 .92 1.846c.08.07.642.495 1.758.738 2.476.537 12.172 2.278 17.784 3.277-4.306 6.232-14.106 20.262-25.523 35.612-18.301 24.605-45.104 56.262-57.604 72.906-14.91 19.853-35.474 39.081-38.807 42.73-.933 1.022-1.12 1.866-1.144 2.079-.046.385-.017.724.063 1.022.09.537.291 1.113.63 1.709.64 1.124 1.92 2.47 3.64 3.807 3.415 2.66 8.658 5.487 12.59 6.943 1.965.728 3.663 1.106 4.777 1.106.195 0 1.055.075 1.925-.82.09-.091.495-.582 1.146-1.418 5.464-7.025 32.285-42.388 35.825-47.19 17.343-23.529 62.384-93.793 72.288-109.289 2.9 3.39 7.642 8.809 9.252 9.94 1.882 1.324 3.383.41 3.914-.121 2.548-2.548 3.527-6.43 4.262-10.293.297-1.558.569-3.1.997-4.475.318-1.022.698-1.946 1.36-2.61.18-.178.446-.253.74-.33.606-.158 1.315-.212 2.091-.218 1.931-.017 4.199.277 6.472.556 3.083.378 6.177.72 8.633.478 2.235-.219 4.033-.938 5.234-2.14.579-.579 1.487-2.17.004-4.078-1.695-2.182-11.42-9.551-14.68-12.09 1.36-4.102 5.815-14.381 6.618-19.637.39-2.556-.217-4.372-1.044-5.199-.4-.4-1.57-1.233-3.401-.509-2.506.992-12.932 8.114-20.804 10.932-4.175-1.81-18.98-10.58-19.651-11.25a2.584 2.584 0 0 0-1.346-.73c-1.025-.217-1.894.063-2.592.89-.12.141-.855 1.052-.523 2.662.35 1.688 2.188 8.303 3.1 13.364.27 1.5.403 3.448.442 4.12Zm40.12-13.084c-.029.122-.06.242-.091.36-1.082 4.005-3.204 9.303-4.672 13.132-.712 1.856-1.277 3.393-1.542 4.335-.225.805-.265 1.405-.241 1.734.066.894.459 1.454.814 1.808.412.413 8.136 6.66 12.443 10.136-1.875.008-4.026-.26-6.172-.522-3.071-.377-6.134-.738-8.542-.535-2.237.187-4.014.886-5.177 2.048-1.849 1.85-2.793 4.692-3.435 7.848-.382 1.877-.685 3.868-1.216 5.706-.165.573-.35 1.131-.574 1.659l-9.044-10.063a2.663 2.663 0 0 0-4.298.267s-54.54 85.6-74.028 112.036c-3.531 4.79-30.29 40.072-35.742 47.08l-.005.008c-.914-.231-2.062-.676-3.32-1.215-3.232-1.383-7.033-3.51-9.636-5.536-.627-.489-1.282-1.159-1.734-1.652 5.045-5.189 24.205-23.468 38.341-42.29 12.504-16.65 39.313-48.315 57.62-72.927 15.472-20.803 27.988-39.193 27.988-39.193a2.664 2.664 0 0 0-1.74-4.123s-10.325-1.82-16.904-3.04c5.134-3.811 11.172-6.813 15.016-10.656.356-.356.691-.862.897-1.56.191-.646.284-1.638.205-2.873-.185-2.907-1.281-7.747-2.236-11.657 4.456 2.694 10.343 6.12 13.749 7.837 1.412.712 2.487 1.143 2.995 1.257.752.167 1.303.052 1.632-.056 5.627-1.849 14.076-6.639 18.649-9.353Zm-159.27 185.63a2.453 2.453 0 0 1 1.435.515c-.405-.3-.9-.486-1.435-.514Zm117.057-188.544a2.66 2.66 0 0 1-.756-.54c.08.08.344.267.756.54Z"/><path d="M652.975 147.367c-3.611-5.411.406 3.191.928 3.712 4.448 4.449 8.295 19.546 7.424 20.417-2.533 2.534-19.489 9.542-19.489 14.849 0 4.798 20.082.593 21.346 1.856 1.24 1.241 7.782 21.915 11.136 18.561 4.987-4.987 3.343-16.335 8.353-21.345 3.297-3.298 20.826-.409 25.985-5.568.927-.927-2.394-1.661-2.784-1.856-4.379-2.19-13.55-7.982-16.705-11.137-1.169-1.168 10.208-23.201 10.208-23.201s-7.892 3.236-8.584 3.928c-1.244 1.244-14.097 5.872-16.473 3.496-4.036-4.036-31.745-14.214-21.345-3.712Z" style="fill:#fff" transform="scale(.48)"/><path d="M310.797 70.77c.052.19.122.398.21.615.415 1.02 1.233 2.428 1.402 2.597.617.618 1.155 1.794 1.638 3.028.553 1.413 1.009 3.309 1.23 4.314-.325.188-.73.402-1.17.648-1.728.967-3.954 2.187-5.513 3.412-1.686 1.324-2.582 2.844-2.582 4.062 0 .987.428 1.79 1.304 2.376.584.39 1.525.686 2.696.781 1.948.16 5.472-.109 7.004-.242.452 1.073 1.098 2.753 1.797 4.286.727 1.595 1.54 3.034 2.242 3.773.705.743 1.464 1.034 2.09 1.07.696.038 1.38-.166 1.993-.78 1.454-1.454 2.076-3.783 2.565-6.167.305-1.49.487-3.027 1.352-3.98a10 10 0 0 1 1.153-.245c1.013-.126 2.245-.174 3.504-.252 1.716-.106 3.475-.27 4.902-.666 1.256-.348 2.29-.891 3.006-1.608.416-.416.587-.854.654-1.25a2.198 2.198 0 0 0-.277-1.509 2.608 2.608 0 0 0-.828-.856c-.376-.247-1.242-.549-1.52-.643-1.664-.844-4.728-2.731-6.502-4.14l4.394-9.49a2.071 2.071 0 0 0-2.625-2.866s-2.518 1.035-3.703 1.625c-.491.244-.841.49-1.018.641l.084-.074s-2.238.944-3.72 1.288c-.603.14-1.459.21-1.772.23-1.003-.78-3.085-1.868-5.304-2.727-2.53-.98-5.221-1.653-6.561-1.554-1.499.11-2.262.926-2.548 1.778-.15.448-.201.995.001 1.648.076.241.209.535.422.876Zm4.668.34c.838.214 1.768.482 2.522.774 1.856.718 3.648 1.524 4.222 2.098.636.636 2.05 1.08 3.837.842 1.682-.225 3.824-.905 5.182-1.472-1.118 2.353-2.217 4.815-2.447 5.838-.286 1.278.251 2.061.556 2.365 1.114 1.115 3.687 2.881 5.915 4.24-1.1.114-2.259.162-3.332.226-1.604.097-3.05.242-4.023.553-.737.234-1.294.578-1.678.962-1.461 1.46-2.085 3.792-2.574 6.175-.165.806-.293 1.626-.514 2.36l-.018-.035c-1.032-2.024-2.038-4.774-2.581-5.973-.292-.643-.588-1.04-.74-1.191-.266-.266-1.083-.748-2.41-.724-1.357.025-4.025.426-6.047.403.274-.231.564-.459.836-.64 2.595-1.725 5.961-3.359 6.73-4.128a2.19 2.19 0 0 0 .583-1.037c.074-.29.12-.895-.005-1.716-.359-2.346-2.083-7.673-3.951-9.774l-.065-.14.002-.006Z"/><path d="M739.796 206.106c-7.667 0 15.208 4.256 16.192 6.225 1.866 3.73 1.856 15.428 1.856 19.489 0 .275-1.425 6.994 0 5.568 4.254-4.254 9.917-7.133 14.849-12.065 3.095-3.094 15.468 12.374 20.417 7.425 6.11-6.109-11.045-19.581-8.352-22.274 1.51-1.51 16.254-8.802 14.849-10.208-4.511-4.511-14.385 3.248-18.561-.928-4.457-4.457-11.137-19.489-11.137-19.489s-.49 1.909-.928 2.784c-1.923 3.846-5.568 10.399-5.568 14.849 0 .691-9.647 1.968-16.705 5.568-1.667.85-8.574 3.056-6.912 3.056Z" style="fill:#fff" transform="scale(.48)"/><path d="M364.88 93.514c-1.47.348-4.88 1.23-7.234 2.432-.61.31-2.622.999-3.318 1.337-.433.067-.69.181-.81.251-.605.356-.8.848-.858 1.282-.055.416-.031 1.24.929 1.804.391.23 1.691.637 3.232 1.051 1.541.414 3.924 1.171 4.685 1.415.188.622.287 1.522.371 2.487.18 2.058.184 4.386.184 5.572-.049.271-.24 1.363-.286 2.006-.045.605.03 1.11.127 1.378.32.873.96 1.173 1.589 1.213.359.022.91-.022 1.48-.591 1.905-1.906 4.4-3.237 6.648-5.33.567.348 1.934 1.197 2.865 1.847 1.376.961 2.822 1.832 4.04 2.11 1.322.303 2.472.048 3.374-.854 1.007-1.008 1.3-2.242 1.058-3.616-.249-1.407-1.188-3.03-2.266-4.54-.723-1.013-1.494-1.979-2.028-2.781a3.845 3.845 0 0 1-.1-.156c.346-.213.768-.467 1.158-.692 1.699-.978 3.836-2.21 4.782-3.014 1.488-1.263 1.054-2.663.514-3.202-1.259-1.26-3.077-1.38-5.039-.98-.968.197-1.974.508-2.883.618-.381.047-.746.158-.987-.084-2.017-2.016-4.994-8.842-4.994-8.842a1.704 1.704 0 0 0-3.207.268s-.163.686-.32.999c-.845 1.69-2.256 4.395-2.707 6.612Zm4.745-3.135c1.191 2.336 2.813 5.249 4.072 6.508 1.183 1.182 2.97 1.285 4.942.86l.258-.058c-1.595.939-3.093 1.808-3.418 2.134-.472.472-.713 1.087-.62 1.873.075.633.533 1.581 1.285 2.642.861 1.216 2.122 2.728 2.913 4.188.244.45.442.89.53 1.308.05.239.081.47-.07.649a1.934 1.934 0 0 1-.289-.04 3.86 3.86 0 0 1-.681-.263c-1.061-.51-2.213-1.38-3.267-2.121-1.317-.928-2.556-1.635-3.41-1.77-.906-.142-1.63.11-2.182.661-1.356 1.356-2.828 2.39-4.221 3.408-.008-1.63-.056-4.19-.315-6.214-.161-1.256-.424-2.328-.753-2.987-.163-.325-.753-.938-1.848-1.355-.775-.296-1.921-.626-3.098-.948 2.989-1.45 6.809-2.06 7.56-2.404 1.013-.463 1.13-1.271 1.13-1.659 0-1.28.741-2.95 1.482-4.412Zm-14.523 10.111v-3.263c.587 0 .87.283 1.004.4.145.126.257.263.342.408-.545-.156-1.175-.376-1.175-.376l.042.023c.825.485.771 1.23.723 1.587a1.613 1.613 0 0 1-.463.946c-.055.056-.279.177-.473.275Z"/><path d="M739.796 206.106c-7.667 0 15.208 4.256 16.192 6.225 1.866 3.73 1.856 15.428 1.856 19.489 0 .275-1.425 6.994 0 5.568 4.254-4.254 9.917-7.133 14.849-12.065 3.095-3.094 15.468 12.374 20.417 7.425 6.11-6.109-11.045-19.581-8.352-22.274 1.51-1.51 16.254-8.802 14.849-10.208-4.511-4.511-14.385 3.248-18.561-.928-4.457-4.457-11.137-19.489-11.137-19.489s-.49 1.909-.928 2.784c-1.923 3.846-5.568 10.399-5.568 14.849 0 .691-9.647 1.968-16.705 5.568-1.667.85-8.574 3.056-6.912 3.056Z" style="fill:#fff" transform="matrix(.1165 .23572 -.1948 .09627 309.959 -13.904)"/><path d="M354.868 184.085a5.97 5.97 0 0 1-.37.26c-.708.449-1.545.87-2.027 1.107-.261.072-.842.236-1.118.368-.35.167-.588.38-.726.546a1.708 1.708 0 0 0-.398 1.387c.059.414.238 1.016 1.072 1.39 1.116.5 2.158 1.329 3.377 1.988a78.05 78.05 0 0 0-.088 2.171c-.016.844.08 1.629.32 2.212.288.703.76 1.206 1.403 1.495 1.2.537 2.23.236 3.097-.668.423-.442.809-1.1 1.128-1.818.091-.203.196-.447.3-.693.412.318.849.65 1.18.89.707.51 1.349.806 1.645.861a1.768 1.768 0 0 0 1.314-.242c.374-.236.656-.582.776-1.09.244-1.037-.156-2.157-.916-3.208-.26-.36-.554-.716-.8-1.067a4.588 4.588 0 0 1-.218-.36c.416-1.338 2.182-3.734 2.182-3.734a1.704 1.704 0 0 0-1.656-2.671l-.281.03c-.632-.054-1.527-.154-2.344-.134a6.794 6.794 0 0 0-.684.05c-.58-.741-1.605-1.986-2.532-2.787-.255-.22-.925-.945-1.295-1.3-.767-.998-1.779-.775-1.948-.722-.379.116-1.231.5-1.223 1.712.003.406.577 2.93.83 4.027Zm3.426 1.073c.426.538.743.968.888 1.103.853.795 1.684.478 1.994.325.114-.057.257-.078.415-.083-.51.894-.98 1.836-1.136 2.499-.047.197-.068.4-.065.606-.404-.03-.805.085-1.2.356-.321.22-.743.744-1.083 1.51.004-.086.008-.172.01-.255.018-.797-.11-1.452-.318-1.86a2.086 2.086 0 0 0-1.024-.988c-.444-.198-.86-.428-1.261-.669.442-.248.895-.52 1.28-.792.604-.424 1.065-.879 1.306-1.256.058-.091.136-.26.194-.496Zm-.777-5.591c.143.288.196.598.17.897.033-.238.007-.54-.17-.897Zm0 0Z"/><path d="M792.182 278.222c-1.523 0-15.541 8.588-13.92 10.209 3.288 3.288 15.202-3.543 13.92.928-1.125 3.925 1.206 18.505 1.984 16.664 2.64-6.239 7.456-12.252 8.769-17.208.672-2.538 7.921 5.479 13.377 7.968 7.278 3.321-8.056-9.577-5.569-12.065 1.067-1.066 3.905-3.168 4.641-4.64.502-1.005 8.916-9.347 7.856-9.184-6.852 1.052-14.754 6.326-17.609 3.472-2.846-2.846-6.336-15.809-8.424-12.793-1.637 2.364-5.025 14.897-5.025 16.649Z" style="fill:#fff" transform="matrix(.48 0 0 .48 -1.632 1.536)"/><path d="M377.112 133.837h-.002c-1.61.79-4.923 2.909-6.1 4.179-1.231 1.328-.85 2.603-.282 3.172.598.597 1.473.927 2.537.945.967.016 2.147-.236 3.212-.48.1-.022.21-.045.323-.067-.033 1.669.194 3.962.494 5.558.246 1.307.66 2.222.866 2.455.605.682 1.283.695 1.82.54.356-.103.856-.336 1.157-1.048 1.012-2.392 2.656-4.726 3.639-6.794.154.111.31.227.452.338 1.31 1.021 2.9 2.286 4.262 2.907 1.438.656 2.287.285 2.564.098.509-.342 1.263-1.456.303-2.91-.444-.672-1.472-1.812-2.331-2.907-.228-.29-.49-.69-.68-.994.653-.593 1.496-1.363 1.857-1.962l.023-.03c.477-.586 1.918-2.067 2.825-3.085.548-.615.927-1.136 1.034-1.36.405-.846.096-1.464-.107-1.766-.289-.431-.785-.888-1.714-.745-2.04.313-4.274 1.363-6.036 1.862-.36.101-.873.156-1.052.173-.534-.64-1.066-2.103-1.627-3.331-.581-1.27-1.204-2.352-1.702-2.804-.526-.477-1.078-.626-1.559-.61-.558.02-1.165.233-1.662.95-.364.526-.922 1.939-1.415 3.527a50.564 50.564 0 0 0-1.099 4.189Zm4.465-3.536c.076.157.148.312.215.46.681 1.519 1.435 3.036 2.074 3.675.76.76 1.881 1.057 3.3.815a9.176 9.176 0 0 0 1.238-.32c-.087.124-.146.22-.176.28-.107.214-.4.44-.671.684-.474.427-.967.83-1.237 1.1-.432.433-.697 1.039-.622 1.796a4.51 4.51 0 0 0-.817-.417c-.767-.268-1.38-.133-1.812.114-.415.236-.773.613-.94 1.243-.312 1.18-1.057 2.483-1.875 3.864a28.47 28.47 0 0 1-.027-.335c-.07-.979-.112-1.88.027-2.362.276-.962.022-1.612-.316-2.057-.392-.516-1.169-.95-2.335-.855-.305.025-.667.09-1.06.171a68.648 68.648 0 0 1 2.381-1.399 1.703 1.703 0 0 0 1.395-1.675c0-.455.573-2.574 1.148-4.427l.11-.355Z"/><g><path d="M792.182 278.222c-1.523 0-15.541 8.588-13.92 10.209 3.288 3.288 15.202-3.543 13.92.928-1.125 3.925 1.206 18.505 1.984 16.664 2.64-6.239 7.456-12.252 8.769-17.208.672-2.538 7.921 5.479 13.377 7.968 7.278 3.321-8.056-9.577-5.569-12.065 1.067-1.066 3.905-3.168 4.641-4.64.502-1.005 8.916-9.347 7.856-9.184-6.852 1.052-14.754 6.326-17.609 3.472-2.846-2.846-6.336-15.809-8.424-12.793-1.637 2.364-5.025 14.897-5.025 16.649Z" style="fill:#fff" transform="matrix(-.08553 .31096 -.3276 -.0901 543.168 -56.66)"/><path d="M379.674 161.515c-1.341-.33-3-.582-3.964-.625-.732-.033-1.243.101-1.434.189-.86.395-1.042 1.069-1.027 1.633.01.356.098.897.712 1.365 1.241.943 2.374 2.173 3.451 3.153-.88.63-1.945 1.371-2.571 2.09-.777.892-.767 1.594-.73 1.868.102.771.525 1.33 1.42 1.512.254.052.748.06 1.374-.156.56-.192 1.91-.712 2.674-1.009.27.477.582.997.873 1.302l-.019-.02s2.07 3.122 2.423 3.416c.68.567 1.32.446 1.645.346.523-.16 1.105-.52 1.207-1.47.132-1.213-.07-2.62-.162-3.808a7.894 7.894 0 0 1-.008-.786c.546-.14 1.397-.188 2.142-.293 1.052-.15 1.971-.385 2.402-.643.588-.352.858-.828.962-1.269.12-.51.09-1.127-.47-1.764-.308-.351-1.213-1.02-2.26-1.669a37.164 37.164 0 0 0-2.492-1.407c-.316-1.315-1.146-3.705-1.787-4.683-.883-1.344-2.093-1.266-2.722-.93-.662.353-1.158 1.006-1.404 1.908-.118.437-.192 1.13-.235 1.75Zm2.878 3.02a1.951 1.951 0 0 1-.95.749 1.925 1.925 0 0 1-1.125.082c.08.053.161.102.242.148.542.306.796.727.914 1.15.122.437.12.997-.257 1.59.273.175.483.405.637.66.057.094.148.256.25.44.223-.807.681-1.38 1.317-1.72.388-.207 1.04-.39 1.8-.524-.838-.47-1.624-.878-1.624-.878l.062.02a1.705 1.705 0 0 1-1.252-1.677l-.014-.04Z"/></g></svg>