<svg viewBox="0 0 246 246" xmlns="http://www.w3.org/2000/svg" xml:space="preserve" style="fill-rule:evenodd;clip-rule:evenodd;stroke-linejoin:round;stroke-miterlimit:2"><path d="M88.85 160.944c-2.4 2.845-34.89 38.619-33.099 42.201 1.536 3.071 4.837 5.251 7.034 7.447.758.759 4.555 3.511 5.163 2.628 2.741-3.979 9.221-15.096 11.386-17.936 4.237-5.556 20.033-28.908 20.033-28.908s-8.239-.752-10.517-5.432Z" style="fill:#fff"/><path d="M90.048 160.361a1.333 1.333 0 0 0-2.216-.276c-1.926 2.283-23.161 25.707-30.661 36.824-1.413 2.094-2.349 3.797-2.665 4.887-.25.86-.16 1.518.054 1.945 1.599 3.198 4.996 5.506 7.283 7.793.694.694 3.636 2.811 5.132 3.128 1.002.212 1.697-.145 2.07-.687 2.733-3.967 9.19-15.052 11.348-17.883 4.246-5.569 20.078-28.97 20.078-28.97a1.33 1.33 0 0 0-.983-2.072s-2.76-.254-5.427-1.397c-1.62-.694-3.24-1.704-4.013-3.292Zm-22.853 51.596c-1.17-.43-2.997-1.835-3.468-2.307-2.066-2.065-5.191-4.078-6.699-6.934.028-.116.089-.353.158-.526.369-.937 1.141-2.232 2.193-3.791 6.692-9.92 24.395-29.691 29.333-35.275 1.133 1.316 2.693 2.289 4.3 2.978 1.453.623 2.93 1.015 4.082 1.255-3.729 5.496-15.291 22.492-18.819 27.119-2.086 2.736-8.166 13.127-11.08 17.481Z"/><path d="M87.756 161.887c-.213.426 1.79-2.589 2.072-3.041.368-.591 2.333-2.97 2.889-3.544" style="fill:#fff"/><path d="M87.059 161.121a1.025 1.025 0 0 0-.23.303c-.381.762.155 1.217.225 1.279.131.116.81.607 1.453-.074.182-.192 1.932-2.806 2.2-3.236.351-.562 2.224-2.824 2.753-3.37a1.036 1.036 0 0 0-1.486-1.442c-.583.602-2.639 3.098-3.024 3.717-.214.342-1.59 2.378-1.891 2.823Zm1.665 1.134-.018.042.005-.01.013-.032Zm.056-.219Z"/><path d="M99.367 166.376c-.95 2.434.845-.878 1.51-2.434.133-.309 1.318-1.918 1.318-2.165" style="fill:#fff"/><path d="M101.198 161.498c-.134.205-1.161 1.776-1.273 2.037a29.95 29.95 0 0 1-.899 1.864 1.03 1.03 0 0 0-.623.601c-.205.525-.297.839-.322.984a1.17 1.17 0 0 0-.003.426c.062.342.242.536.405.658.243.182.802.461 1.388-.108.27-.263 1.442-2.403 1.958-3.61.101-.236.852-1.255 1.145-1.776.204-.363.257-.666.257-.797a1.036 1.036 0 0 0-2.033-.279Z"/><path d="M92.16 156.393c0 1.809 7.371 5.792 9.516 5.792.093 0 16.412-21.508 18.376-24.173 9.756-13.236 37.065-56.092 37.065-56.092s5.434 6.564 5.792 6.206c2.191-2.191 1.411-6.789 3.31-8.688 1.953-1.953 9.533 1.224 11.585-.828.426-.426-7.538-6.296-7.861-6.62-.381-.381 4.578-10.73 3.31-11.998-.317-.316-6.684 4.207-11.126 5.666-.555.182-10.405-5.683-10.803-6.08-.222-.222 2.545 9.041 1.655 9.93-2.457 2.458-6.71 4.227-9.516 7.033-.083.084 11.171 2.069 11.171 2.069s-6.243 9.174-13.962 19.551c-9.152 12.304-22.554 28.135-28.806 36.458-8.319 11.078-20.14 21.774-19.706 21.774Z" style="fill:#fff"/><path d="M151.807 68.79c-2.486 2.343-6.565 4.089-9.285 6.81-.31.309-.412.664-.388 1.029.017.257.095.609.46.923.04.035.321.248.879.369 1.238.269 6.086 1.14 8.892 1.639a657.334 657.334 0 0 1-12.761 17.806c-9.151 12.303-22.552 28.131-28.803 36.453-7.455 9.927-17.737 19.541-19.403 21.365-.467.511-.56.933-.572 1.039a1.34 1.34 0 0 0 .031.511c.046.269.146.557.315.855.321.562.96 1.235 1.82 1.904 1.708 1.329 4.33 2.743 6.295 3.471.983.364 1.832.553 2.389.553.098 0 .527.038.962-.41.045-.045.248-.291.573-.709 2.733-3.512 16.143-21.194 17.913-23.595 8.672-11.765 31.192-46.897 36.144-54.644 1.45 1.694 3.821 4.404 4.626 4.97.941.662 1.691.205 1.957-.061 1.274-1.274 1.763-3.215 2.131-5.147.148-.779.285-1.55.499-2.237.159-.511.348-.973.68-1.305.09-.089.223-.127.369-.165.304-.079.658-.106 1.046-.109.966-.009 2.099.139 3.236.278 1.542.189 3.088.36 4.316.239 1.118-.109 2.017-.469 2.617-1.07.29-.289.744-1.085.003-2.039-.848-1.091-5.711-4.776-7.341-6.045.681-2.051 2.908-7.191 3.309-9.818.196-1.279-.108-2.186-.522-2.6-.2-.2-.785-.616-1.7-.254-1.253.496-6.466 4.057-10.402 5.466-2.088-.905-9.49-5.29-9.826-5.626a1.291 1.291 0 0 0-.672-.365c-.513-.108-.948.032-1.297.445-.06.071-.427.526-.261 1.332.175.844 1.094 4.151 1.55 6.682.135.749.201 1.723.221 2.06Zm20.06-6.543-.046.181c-.54 2.002-1.601 4.651-2.335 6.565-.356.929-.639 1.697-.771 2.168-.113.403-.133.703-.121.867.033.447.23.727.407.904.206.206 4.068 3.33 6.222 5.068-.938.004-2.014-.13-3.087-.261-1.535-.188-3.066-.369-4.271-.268-1.118.094-2.007.443-2.588 1.025-.925.924-1.396 2.345-1.718 3.924-.191.938-.342 1.933-.607 2.853a7.226 7.226 0 0 1-.288.829l-4.521-5.031a1.332 1.332 0 0 0-2.15.133s-27.27 42.8-37.013 56.018c-1.766 2.395-15.145 20.036-17.871 23.54l-.003.004c-.457-.116-1.031-.338-1.66-.607-1.616-.692-3.516-1.756-4.818-2.769a7.603 7.603 0 0 1-.867-.826c2.523-2.594 12.102-11.734 19.171-21.145 6.251-8.325 19.656-24.157 28.809-36.463a645.895 645.895 0 0 0 13.995-19.596 1.335 1.335 0 0 0-.87-2.062s-5.163-.91-8.452-1.52c2.567-1.906 5.586-3.407 7.507-5.328a1.81 1.81 0 0 0 .449-.78c.096-.323.142-.819.102-1.437-.092-1.453-.64-3.873-1.117-5.828 2.228 1.347 5.171 3.06 6.874 3.918.706.356 1.243.572 1.498.629a1.5 1.5 0 0 0 .815-.028c2.814-.924 7.039-3.319 9.325-4.677Zm-79.635 92.816c.307.014.539.118.718.257a1.32 1.32 0 0 0-.718-.257Zm58.529-94.273a1.294 1.294 0 0 1-.378-.27c.04.04.172.134.378.27Z"/><path d="M156.714 35.368c-.867-1.299.098.766.223.891 1.067 1.068 1.991 4.691 1.782 4.9-.609.608-4.678 2.29-4.678 3.564 0 1.151 4.82.142 5.123.445.298.298 1.868 5.26 2.673 4.455 1.197-1.197.802-3.921 2.004-5.123.792-.791 4.999-.098 6.237-1.336.222-.223-.575-.399-.668-.446-1.051-.525-3.252-1.915-4.009-2.673-.281-.28 2.45-5.568 2.45-5.568s-1.895.777-2.061.943c-.298.298-3.383 1.409-3.953.839-.969-.969-7.619-3.411-5.123-.891Z" style="fill:#fff"/><path d="M155.398 35.385c.026.095.061.199.105.307.208.51.617 1.214.702 1.299.308.309.577.897.818 1.514.277.707.505 1.654.616 2.157-.163.094-.365.201-.585.324-.865.483-1.977 1.094-2.757 1.706-.843.662-1.291 1.422-1.291 2.031 0 .494.214.895.652 1.188.292.195.762.343 1.348.391.974.079 2.736-.055 3.502-.122.226.537.549 1.377.898 2.143.364.798.77 1.517 1.121 1.887.353.372.732.517 1.045.535.349.019.69-.083.997-.39.727-.727 1.038-1.891 1.282-3.083.153-.745.244-1.514.676-1.991a5.11 5.11 0 0 1 .577-.122c.506-.063 1.122-.087 1.752-.126.858-.053 1.737-.135 2.451-.333.628-.174 1.145-.446 1.503-.804a1.128 1.128 0 0 0 .188-1.379 1.288 1.288 0 0 0-.414-.428c-.187-.124-.62-.275-.759-.322-.832-.422-2.364-1.366-3.251-2.07l2.197-4.745a1.035 1.035 0 0 0-1.313-1.433s-1.259.517-1.851.812a2.614 2.614 0 0 0-.509.321l.042-.037s-1.12.472-1.86.644a6.43 6.43 0 0 1-.887.115c-.501-.39-1.542-.934-2.652-1.363-1.265-.49-2.61-.827-3.28-.778-.749.055-1.131.464-1.274.89a1.3 1.3 0 0 0 .001.823c.037.121.104.268.21.439Zm2.334.17c.419.107.884.241 1.262.387.927.359 1.823.762 2.111 1.049.318.318 1.025.54 1.918.421.841-.112 1.912-.453 2.591-.736-.559 1.177-1.109 2.407-1.223 2.919-.144.639.125 1.031.277 1.183.558.557 1.844 1.44 2.958 2.12-.55.057-1.129.081-1.666.113-.802.048-1.525.121-2.012.276-.368.117-.647.289-.839.481-.73.73-1.042 1.896-1.286 3.087-.083.404-.147.814-.257 1.18l-.009-.017c-.517-1.012-1.02-2.387-1.291-2.986-.146-.322-.294-.52-.37-.596-.133-.133-.541-.374-1.205-.362-.678.013-2.012.213-3.023.201.136-.115.281-.229.418-.319 1.297-.863 2.98-1.68 3.365-2.065.109-.109.228-.271.291-.518.037-.145.06-.448-.002-.858-.18-1.173-1.042-3.836-1.976-4.887l-.032-.07v-.003Z"/><path d="M177.551 49.465c-1.84 0 3.65 1.022 3.886 1.494.448.896.446 3.703.446 4.678 0 .066-.343 1.678 0 1.336 1.021-1.021 2.38-1.712 3.563-2.895.743-.743 3.713 2.969 4.901 1.781 1.466-1.466-2.651-4.699-2.005-5.345.362-.363 3.901-2.113 3.564-2.45-1.083-1.083-3.453.779-4.455-.223-1.07-1.07-2.673-4.677-2.673-4.677s-.118.458-.223.668c-.461.923-1.336 2.496-1.336 3.564 0 .166-2.315.472-4.009 1.336-.4.204-2.058.733-1.659.733Z" style="fill:#fff"/><path d="M182.44 46.757c-.735.174-2.44.616-3.617 1.216-.305.155-1.311.499-1.659.668a1.19 1.19 0 0 0-.405.126.835.835 0 0 0-.429.641c-.028.208-.016.62.464.902.196.115.846.318 1.616.526.771.207 1.963.585 2.343.707.094.311.143.761.186 1.243.09 1.029.092 2.193.092 2.787-.025.135-.12.681-.144 1.002-.022.303.015.556.064.689.16.437.48.587.795.607.179.011.455-.011.739-.295.953-.953 2.2-1.619 3.325-2.666.283.174.966.599 1.432.924.688.481 1.411.916 2.02 1.055.661.152 1.236.024 1.687-.427.504-.504.65-1.121.529-1.808-.124-.703-.594-1.515-1.133-2.27-.361-.506-.747-.989-1.014-1.39l-.05-.079c.173-.106.384-.233.579-.345.849-.49 1.918-1.106 2.391-1.507.744-.632.527-1.332.257-1.602-.629-.629-1.538-.689-2.519-.49-.485.099-.987.254-1.442.31-.191.023-.373.078-.494-.042-1.008-1.009-2.496-4.421-2.496-4.421a.85.85 0 0 0-1.604.134s-.081.343-.16.499c-.422.845-1.128 2.198-1.353 3.306Zm2.373-1.568c.595 1.169 1.406 2.625 2.036 3.255.591.591 1.485.642 2.47.43l.13-.03c-.798.47-1.547.905-1.71 1.067-.235.236-.356.544-.309.937.037.316.266.791.642 1.321.431.608 1.061 1.364 1.457 2.094.121.225.221.445.264.654.025.119.041.235-.035.324a.987.987 0 0 1-.144-.019 2.034 2.034 0 0 1-.341-.132c-.53-.255-1.106-.69-1.633-1.061-.659-.463-1.278-.817-1.705-.884-.453-.071-.815.054-1.091.33-.678.678-1.414 1.195-2.111 1.704-.004-.815-.027-2.095-.157-3.107-.08-.628-.212-1.164-.377-1.494-.081-.162-.376-.469-.924-.677-.387-.148-.96-.313-1.548-.474 1.494-.725 3.404-1.03 3.78-1.202.506-.231.564-.636.564-.829 0-.641.371-1.476.742-2.207Zm-7.262 5.056v-1.632c.293 0 .435.142.502.2a.844.844 0 0 1 .171.204 13.12 13.12 0 0 1-.588-.188l.021.012c.413.242.386.615.362.793a.811.811 0 0 1-.231.474c-.028.027-.14.088-.237.137Z"/><path d="M177.995 90.161c-.447-.904.471 1.997.337 2.208-.255.399-1.395.961-1.79 1.157-.027.013-.765.168-.543.268.662.296 1.273.825 2.04 1.169.482.216-.304 2.419.466 2.764.951.426 1.264-2.245 1.683-2.057.235.106 1.804 1.492 1.859 1.259.177-.749-1.154-1.539-.99-2.232.174-.74 1.249-2.251 1.249-2.251s-.214.034-.325.025c-.487-.042-1.337-.156-1.771.058-.067.033-.753-1.042-1.515-1.701-.18-.155-.797-.863-.7-.667Z" style="fill:#fff"/><path d="M177.434 92.042c-.06.046-.127.094-.185.131-.354.224-.772.434-1.013.553a4.391 4.391 0 0 0-.559.184 1.07 1.07 0 0 0-.363.273.855.855 0 0 0-.2.694c.03.206.12.508.537.694.558.25 1.079.665 1.688.995-.014.27-.038.764-.044 1.085-.008.422.04.814.16 1.106.144.352.38.603.702.747.6.269 1.114.119 1.548-.334.212-.221.404-.549.564-.909.046-.101.098-.223.15-.346.206.159.425.325.59.445.354.255.674.403.823.431a.887.887 0 0 0 .657-.121.851.851 0 0 0 .388-.545c.122-.519-.078-1.079-.459-1.605-.129-.179-.276-.357-.4-.533a2.312 2.312 0 0 1-.108-.18c.208-.669 1.09-1.867 1.09-1.867a.852.852 0 0 0-.827-1.335l-.141.015c-.316-.028-.763-.078-1.172-.068a3.416 3.416 0 0 0-.342.025c-.289-.37-.802-.992-1.266-1.393-.127-.11-.462-.473-.647-.65a.912.912 0 0 0-.974-.361c-.19.058-.616.25-.612.856.002.203.289 1.465.415 2.013Zm1.713.537c.213.269.372.484.444.551a.84.84 0 0 0 .997.163.507.507 0 0 1 .208-.041c-.255.446-.49.917-.569 1.249-.023.099-.033.2-.032.303a.92.92 0 0 0-.6.178c-.16.11-.371.372-.541.755l.004-.127c.01-.399-.055-.726-.158-.93-.123-.24-.3-.399-.513-.494-.221-.1-.43-.215-.63-.335.221-.124.447-.26.64-.396.302-.212.533-.44.653-.628a.874.874 0 0 0 .097-.248Zm-.388-2.796a.85.85 0 0 1 .085.449.77.77 0 0 0-.085-.449Zm0 0Z"/><path d="M189.308 67.541c-.366 0-3.73 2.061-3.341 2.45.789.79 3.648-.85 3.341.223-.27.942.289 4.441.476 4 .633-1.498 1.789-2.941 2.104-4.13.162-.61 1.901 1.315 3.211 1.912 1.747.797-1.934-2.299-1.337-2.896.256-.256.937-.76 1.114-1.113.121-.241 2.14-2.244 1.886-2.204-1.645.252-3.541 1.518-4.227.833-.682-.683-1.52-3.794-2.021-3.07-.393.567-1.206 3.575-1.206 3.995Z" style="fill:#fff"/><path d="M188.556 66.919h-.001c-.805.394-2.461 1.454-3.05 2.089-.615.664-.425 1.302-.141 1.586.299.298.736.464 1.269.472.483.008 1.073-.117 1.605-.239.051-.012.106-.023.162-.034-.017.834.097 1.981.247 2.779.123.653.33 1.111.433 1.227a.832.832 0 0 0 .91.271.86.86 0 0 0 .579-.524c.506-1.197 1.327-2.363 1.819-3.398.077.056.155.114.226.17.655.51 1.45 1.142 2.131 1.453.719.328 1.143.143 1.282.049.254-.171.631-.728.152-1.455-.222-.336-.736-.906-1.166-1.454a6.326 6.326 0 0 1-.34-.496c.326-.297.748-.682.928-.982l.012-.014c.238-.294.959-1.034 1.412-1.543.275-.308.464-.568.517-.68a.843.843 0 0 0-.053-.883c-.144-.216-.392-.444-.857-.373-1.02.157-2.137.682-3.018.931a3.36 3.36 0 0 1-.526.087c-.267-.32-.533-1.052-.814-1.666-.29-.634-.602-1.175-.85-1.401a1.08 1.08 0 0 0-.78-.305c-.279.009-.583.116-.831.475-.182.262-.461.969-.707 1.763a24.961 24.961 0 0 0-.55 2.095Zm2.233-1.769c.038.079.074.157.107.23.34.76.717 1.519 1.037 1.838.38.38.941.529 1.65.408a4.61 4.61 0 0 0 .619-.16c-.043.061-.073.11-.088.14-.053.106-.2.219-.336.341-.236.214-.483.416-.618.551a1.081 1.081 0 0 0-.311.898 2.268 2.268 0 0 0-.409-.209c-.383-.134-.69-.066-.905.057a.96.96 0 0 0-.47.621c-.156.59-.529 1.242-.938 1.932l-.013-.167c-.036-.489-.056-.94.013-1.181.138-.481.011-.806-.158-1.028-.196-.259-.584-.476-1.168-.428a4.47 4.47 0 0 0-.53.086c.588-.362 1.124-.662 1.191-.7a.852.852 0 0 0 .698-.838c0-.227.286-1.286.573-2.213l.056-.178Z"/><path d="M192.135 82.304c.065-.237-.742-2.803-1.077-2.624-.679.363-.07 2.523-.747 2.122-.595-.352-3.083-.646-2.815-.442.909.691 1.688 1.711 2.444 2.138.387.219-1.236.985-1.877 1.721-.856.982 1.913-.821 2.214-.322.129.214.352.75.561.931.144.123 1.15 1.807 1.169 1.635.121-1.113-.405-2.579.184-2.894.588-.315 2.861-.273 2.456-.734-.317-.361-2.225-1.452-2.512-1.531Z" style="fill:#fff"/><path d="M189.837 80.757c-.671-.164-1.5-.291-1.982-.312-.366-.016-.622.05-.717.094-.43.198-.521.535-.514.817a.835.835 0 0 0 .356.682c.621.472 1.187 1.087 1.726 1.577-.44.315-.973.685-1.286 1.045-.389.446-.383.797-.365.934.051.385.263.665.71.756.127.026.374.03.687-.078.28-.096.955-.356 1.337-.505.135.239.291.499.437.651l-.01-.009s1.035 1.56 1.212 1.708c.339.283.66.222.822.172.262-.08.552-.26.604-.734.066-.607-.035-1.311-.081-1.905a3.706 3.706 0 0 1-.004-.393c.273-.07.698-.093 1.071-.146.525-.075.985-.193 1.201-.322a.997.997 0 0 0 .481-.634c.06-.255.045-.564-.235-.882-.155-.176-.607-.51-1.13-.834a18.51 18.51 0 0 0-1.246-.704c-.158-.658-.573-1.852-.894-2.341-.441-.673-1.047-.634-1.361-.466-.331.177-.579.503-.702.954-.059.219-.096.565-.117.875Zm1.439 1.511a.982.982 0 0 1-.475.374.966.966 0 0 1-.563.041c.04.026.081.051.121.074a.919.919 0 0 1 .457.575.96.96 0 0 1-.128.795 1 1 0 0 1 .318.33c.029.047.074.128.125.22.112-.404.341-.69.659-.86.194-.104.52-.195.899-.262-.419-.235-.811-.439-.811-.439l.031.009a.85.85 0 0 1-.626-.838l-.007-.019Z"/></svg>