<svg viewBox="0 0 246 246" xmlns="http://www.w3.org/2000/svg" xml:space="preserve" style="fill-rule:evenodd;clip-rule:evenodd;stroke-linejoin:round;stroke-miterlimit:2"><path d="M83.843 155.611c.17.152.45.314.855.446.623.201 1.651.375 3.015.507 4.28.414 12.054.475 20.781.245 13.064-.345 28.268-1.338 37.057-2.748 2.711-.434 4.827-.915 6.114-1.421.683-.269 1.165-.565 1.447-.848.32-.321.399-.657.373-.956a1.153 1.153 0 0 0-.309-.685c-.18-.198-.523-.423-1.056-.596-2.746-.893-12.581-1.306-23.983-1.194-17.036.167-37.577 1.486-43.06 3.825-1.192.509-1.782 1.179-1.901 1.757-.107.521.038 1.106.667 1.668Zm66.938-4.547a8.26 8.26 0 0 1-.304.103c-1.23.402-3.014.778-5.209 1.13-8.733 1.4-23.84 2.383-36.821 2.725-8.635.228-16.327.173-20.562-.237-1.035-.1-1.853-.219-2.414-.364a4.182 4.182 0 0 1-.448-.156 2.85 2.85 0 0 1 .429-.284c.656-.332 1.637-.635 2.881-.923 7.738-1.791 25.106-2.766 39.821-2.91 9.787-.096 18.398.173 22.202.83.144.025.287.054.425.086Z"/><path d="M83.763 155.701c.179.159.473.332.898.47.628.203 1.665.379 3.04.512 4.284.415 12.063.476 20.797.246 13.069-.345 28.279-1.339 37.072-2.749 2.722-.437 4.847-.92 6.139-1.428.703-.277 1.198-.584 1.488-.875.351-.353.436-.723.407-1.052a1.264 1.264 0 0 0-.339-.755c-.189-.208-.548-.447-1.108-.629-2.75-.895-12.601-1.312-24.022-1.2-17.054.167-37.617 1.493-43.105 3.835-1.243.53-1.848 1.241-1.971 1.843-.115.556.033 1.182.704 1.782Zm.16-.179c-.587-.525-.729-1.068-.629-1.555.113-.553.689-1.184 1.83-1.671 5.477-2.336 25.996-3.648 43.014-3.815 11.384-.112 21.203.296 23.945 1.188.506.165.834.375 1.004.562.179.197.26.408.278.615.024.27-.05.572-.338.861-.273.275-.743.561-1.406.821-1.281.504-3.389.982-6.089 1.415-8.785 1.409-23.983 2.401-37.041 2.746-8.721.23-16.489.169-20.766-.244-1.352-.131-2.372-.302-2.99-.503-.384-.124-.651-.277-.812-.42Zm66.898-4.344a.121.121 0 0 0 .08-.12.12.12 0 0 0-.093-.11 7.17 7.17 0 0 0-.432-.088c-3.807-.658-12.427-.928-22.223-.832-14.725.145-32.104 1.121-39.847 2.913-1.256.291-2.246.597-2.908.933a3.012 3.012 0 0 0-.449.296.118.118 0 0 0-.045.111.12.12 0 0 0 .073.095 4.2 4.2 0 0 0 .464.161c.565.146 1.389.267 2.432.368 4.239.41 11.936.465 20.577.237 12.986-.342 28.1-1.326 36.837-2.727 2.203-.353 3.993-.73 5.227-1.134.108-.035.21-.069.307-.103Zm-.505-.085c-1.22.385-2.952.746-5.067 1.085-8.729 1.4-23.83 2.382-36.805 2.724-8.629.228-16.315.173-20.547-.236-1.028-.1-1.84-.217-2.395-.361a2.836 2.836 0 0 1-.232-.074 2.33 2.33 0 0 1 .237-.143c.649-.329 1.621-.628 2.853-.913 7.733-1.79 25.09-2.763 39.795-2.907 9.761-.096 18.351.171 22.161.825Z"/><path d="M54.105 181.487c7.289-1.125 11.23-.571 15.212-.812 12.667-.767 71.906-4.892 89.078-5.661 8.35-.374 31.596-1.61 31.596-1.68 0-16.875-1.401-87.674-2.718-91.626-1.184-3.554-.349-20.806-.24-23.098.006-.129-.057-4.171-.148-4.08-1.564 1.565-48.002 1.536-67.915 2.499-8.918.432-53.524 5.113-63.312.219-.293-.146-5.851-.67-5.824-.388 1.187 12.493 3.106 87.226 3.106 99.003 0 7.799 1.544 21.885 1.165 25.624Z" style="fill:#fff"/><path d="M186.354 53.81c-.218.037-2.582.43-5.277.597-13.323.824-46.223.959-62.15 1.73-6.235.301-29.936 2.685-46.948 2.41-7.125-.115-13.056-.665-15.922-2.098-.078-.039-.4-.131-.888-.195-1.384-.184-4.566-.441-5.306-.341-.843.113-.942.789-.919 1.031 1.186 12.482 3.102 87.152 3.102 98.919 0 7.771 1.548 21.808 1.17 25.534a.894.894 0 0 0 1.025.973c7.25-1.119 11.17-.563 15.13-.803 12.665-.767 71.895-4.892 89.064-5.661 7.52-.336 27.112-1.372 30.956-1.627.453-.03.721-.057.77-.067.713-.144.723-.77.723-.878 0-13.508-.896-61.545-1.93-82.244-.265-5.304-.563-8.854-.833-9.665-.34-1.02-.486-3.222-.549-5.862-.153-6.411.278-15.312.354-16.91.005-.121-.049-3.537-.129-4.15-.057-.438-.296-.63-.356-.677a.867.867 0 0 0-.648-.186.864.864 0 0 0-.439.17Zm-.297 1.909c.035 1.111.087 2.775.084 2.849-.077 1.61-.51 10.578-.356 17.038.069 2.876.27 5.272.64 6.384.257.77.492 4.148.744 9.189 1.012 20.273 1.893 66.801 1.927 81.328-4.227.273-23.34 1.283-30.741 1.614-17.174.769-76.423 4.895-89.092 5.662-3.802.23-7.566-.257-14.213.662.08-4.91-1.217-17.402-1.217-24.582 0-11.518-1.835-83.206-3.027-98.138 1.26.074 3.834.237 4.496.355l.039.008c3.037 1.475 9.202 2.127 16.609 2.246 17.054.276 40.813-2.11 47.063-2.412 15.934-.771 48.846-.907 62.175-1.732 2.191-.135 3.865-.292 4.869-.471Zm1.223-.386Z"/><path d="M186.354 53.81c-.218.037-2.582.43-5.277.597-13.323.824-46.223.959-62.15 1.73-6.235.301-29.936 2.685-46.948 2.41-7.125-.115-13.056-.665-15.922-2.098-.078-.039-.4-.131-.888-.195-1.384-.184-4.566-.441-5.306-.341-.843.113-.942.789-.919 1.031 1.186 12.482 3.102 87.152 3.102 98.919 0 7.771 1.548 21.808 1.17 25.534a.894.894 0 0 0 1.025.973c7.25-1.119 11.17-.563 15.13-.803 12.665-.767 71.895-4.892 89.064-5.661 7.52-.336 27.112-1.372 30.956-1.627.453-.03.721-.057.77-.067.713-.144.723-.77.723-.878 0-13.508-.896-61.545-1.93-82.244-.265-5.304-.563-8.854-.833-9.665-.34-1.02-.486-3.222-.549-5.862-.153-6.411.278-15.312.354-16.91.005-.121-.049-3.537-.129-4.15-.057-.438-.296-.63-.356-.677a.867.867 0 0 0-.648-.186.864.864 0 0 0-.439.17Zm-.297 1.909c.035 1.111.087 2.775.084 2.849-.077 1.61-.51 10.578-.356 17.038.069 2.876.27 5.272.64 6.384.257.77.492 4.148.744 9.189 1.012 20.273 1.893 66.801 1.927 81.328-4.227.273-23.34 1.283-30.741 1.614-17.174.769-76.423 4.895-89.092 5.662-3.802.23-7.566-.257-14.213.662.08-4.91-1.217-17.402-1.217-24.582 0-11.518-1.835-83.206-3.027-98.138 1.26.074 3.834.237 4.496.355l.039.008c3.037 1.475 9.202 2.127 16.609 2.246 17.054.276 40.813-2.11 47.063-2.412 15.934-.771 48.846-.907 62.175-1.732 2.191-.135 3.865-.292 4.869-.471Zm1.223-.386Z"/><path d="M186.306 53.697c-.343.057-2.635.429-5.236.59-13.323.824-46.222.959-62.149 1.73-6.234.302-29.931 2.685-46.94 2.41-7.102-.114-13.013-.657-15.87-2.085-.081-.041-.417-.14-.927-.207-1.392-.185-4.593-.442-5.337-.341-.944.127-1.048.891-1.022 1.162 1.186 12.48 3.101 87.142 3.101 98.907 0 7.768 1.548 21.797 1.17 25.522a1.014 1.014 0 0 0 1.163 1.104c7.245-1.118 11.162-.563 15.119-.802 12.665-.767 71.894-4.892 89.062-5.661 7.521-.337 27.115-1.372 30.959-1.627.463-.031.735-.059.785-.069.809-.163.82-.874.82-.996 0-13.509-.897-61.55-1.93-82.25-.266-5.322-.568-8.884-.839-9.697-.338-1.014-.481-3.203-.543-5.827-.153-6.408.278-15.305.354-16.902.005-.121-.049-3.554-.13-4.17-.063-.49-.334-.704-.402-.757a.975.975 0 0 0-.733-.21.982.982 0 0 0-.475.176Zm.068.232a.111.111 0 0 0 .052-.023.747.747 0 0 1 .38-.146.75.75 0 0 1 .561.16c.053.042.261.213.311.599.08.609.134 4.008.128 4.128-.076 1.599-.507 10.505-.354 16.919.063 2.655.213 4.871.555 5.897.269.808.563 4.347.827 9.633 1.034 20.697 1.93 68.731 1.93 82.238 0 .093-.009.636-.627.76-.048.01-.31.036-.754.066-3.843.254-23.434 1.29-30.954 1.627-17.169.769-76.4 4.894-89.066 5.66-3.963.24-7.885-.315-15.14.804a.772.772 0 0 1-.888-.842c.378-3.728-1.169-17.771-1.169-25.546 0-11.768-1.916-86.446-3.102-98.93-.02-.213.074-.801.815-.901.735-.1 3.898.158 5.274.34.467.062.776.147.851.184 2.875 1.438 8.824 1.996 15.973 2.111 17.015.275 40.719-2.109 46.955-2.41 15.928-.771 48.829-.906 62.153-1.731a55.542 55.542 0 0 0 5.289-.597ZM55.05 180.565H55.063l.004-.001c6.642-.918 10.404-.431 14.203-.661 12.669-.767 71.917-4.893 89.09-5.662 7.402-.332 26.516-1.341 30.743-1.614a.12.12 0 0 0 .113-.12c-.034-14.528-.915-61.059-1.927-81.334-.253-5.058-.492-8.448-.75-9.221-.368-1.106-.566-3.488-.634-6.349-.154-6.456.279-15.42.355-17.029.004-.075-.048-1.744-.083-2.859a.125.125 0 0 0-.045-.089.12.12 0 0 0-.096-.025c-1.001.178-2.671.334-4.856.469-13.328.825-46.24.961-62.173 1.732-6.249.302-30.004 2.688-47.055 2.412-7.384-.119-13.531-.764-16.559-2.234a.105.105 0 0 0-.03-.01l-.036-.007-.004-.001c-.664-.118-3.246-.282-4.51-.357a.12.12 0 0 0-.093.036.118.118 0 0 0-.034.093c1.192 14.931 3.027 86.612 3.027 98.129 0 7.18 1.297 19.67 1.218 24.58a.117.117 0 0 0 .034.087.123.123 0 0 0 .085.035Zm0 0c-.001-.004-.085-.21-.103-.181l.103.181Zm.122-.257c.054-5.006-1.219-17.332-1.219-24.445 0-11.484-1.824-82.78-3.017-98.01 1.298.077 3.709.232 4.345.345l.006.001.013.002c3.051 1.476 9.228 2.133 16.648 2.253 17.057.276 40.819-2.11 47.071-2.412 15.934-.771 48.847-.907 62.176-1.732 2.101-.13 3.727-.28 4.746-.449.035 1.102.083 2.63.08 2.701-.077 1.611-.51 10.584-.356 17.047.069 2.892.274 5.301.647 6.419.255.768.487 4.134.737 9.157 1.01 20.22 1.889 66.557 1.926 81.21-4.442.283-23.288 1.278-30.626 1.606-17.174.769-76.424 4.895-89.094 5.662-3.777.229-7.518-.249-14.083.645ZM187.221 55.229a.12.12 0 0 0-.047.16.12.12 0 0 0 .159.052c.091-.045.182-.107.269-.194a.122.122 0 0 0 0-.17.12.12 0 0 0-.17 0 1.005 1.005 0 0 1-.211.152Z"/><path d="M186.987 56.175c5.192 0 34.778-1.622 37.558 1.158 7.426 7.425 3.014 63.171 3.014 78.779 0 3.933 1.358 35.532-.72 37.61-.975.975-15.223-.092-17.859-.092-5.684 0-13.945-.534-20.189-.296-.364.014.128-10.41.445-15.347.36-5.62.331-49.169.331-57.255 0-10.041-3.084-16.93-3.084-26.387 0-3.574.811-9.487.811-13.363 0-1.168-.307-5.482-.307-4.807Z" style="fill:#fff"/><path d="M187.351 55.279c4.219-.045 19.19-.778 28.879-.315 3.08.147 5.64.421 7.194.861.839.238 1.428.551 1.753.876.971.971 1.79 2.684 2.42 5.005.88 3.24 1.439 7.718 1.765 12.912 1.252 19.937-.909 50.558-.909 61.494 0 3.153.868 24.048.15 33.347-.132 1.712-.324 3.049-.573 3.848-.158.507-.364.852-.559 1.047-.132.131-.355.278-.689.378-.391.117-1.04.203-1.874.247-4.244.227-13.813-.455-15.928-.455-5.674 0-13.922-.535-20.155-.297a.874.874 0 0 1-.742-.334c-.074-.088-.22-.332-.265-.758-.185-1.74.238-10.717.526-15.205.36-5.614.33-49.12.33-57.198 0-10.041-3.085-16.93-3.085-26.387 0-3.574.812-9.487.812-13.363 0-.895-.218-3.883-.267-4.54a.904.904 0 0 1-.041-.267c0-.704.523-.883.565-.9a.83.83 0 0 1 .693.004Zm38.873 117.746c-.131.03-.369.08-.582.104-.65.074-1.55.105-2.596.11-4.688.02-12.221-.502-14.066-.502-5.452 0-13.272-.49-19.416-.322-.083-2.537.304-10.32.563-14.37.361-5.626.334-49.219.334-57.313 0-10.041-3.085-16.93-3.085-26.387 0-3.574.812-9.487.812-13.363 0-.735-.122-2.668-.218-3.926 4.898-.097 18.941-.748 28.175-.307 2.507.12 4.652.318 6.143.637.788.168 1.367.32 1.625.578.811.812 1.433 2.272 1.959 4.21.856 3.15 1.39 7.505 1.707 12.556 1.249 19.901-.914 50.466-.914 61.382 0 3.14.871 23.949.156 33.209-.103 1.332-.236 2.415-.415 3.154-.05.204-.135.43-.182.55Z"/><path d="M187.351 55.279c4.219-.045 19.19-.778 28.879-.315 3.08.147 5.64.421 7.194.861.839.238 1.428.551 1.753.876.971.971 1.79 2.684 2.42 5.005.88 3.24 1.439 7.718 1.765 12.912 1.252 19.937-.909 50.558-.909 61.494 0 3.153.868 24.048.15 33.347-.132 1.712-.324 3.049-.573 3.848-.158.507-.364.852-.559 1.047-.132.131-.355.278-.689.378-.391.117-1.04.203-1.874.247-4.244.227-13.813-.455-15.928-.455-5.674 0-13.922-.535-20.155-.297a.874.874 0 0 1-.742-.334c-.074-.088-.22-.332-.265-.758-.185-1.74.238-10.717.526-15.205.36-5.614.33-49.12.33-57.198 0-10.041-3.085-16.93-3.085-26.387 0-3.574.812-9.487.812-13.363 0-.895-.218-3.883-.267-4.54a.904.904 0 0 1-.041-.267c0-.704.523-.883.565-.9a.83.83 0 0 1 .693.004Zm38.873 117.746c-.131.03-.369.08-.582.104-.65.074-1.55.105-2.596.11-4.688.02-12.221-.502-14.066-.502-5.452 0-13.272-.49-19.416-.322-.083-2.537.304-10.32.563-14.37.361-5.626.334-49.219.334-57.313 0-10.041-3.085-16.93-3.085-26.387 0-3.574.812-9.487.812-13.363 0-.735-.122-2.668-.218-3.926 4.898-.097 18.941-.748 28.175-.307 2.507.12 4.652.318 6.143.637.788.168 1.367.32 1.625.578.811.812 1.433 2.272 1.959 4.21.856 3.15 1.39 7.505 1.707 12.556 1.249 19.901-.914 50.466-.914 61.382 0 3.14.871 23.949.156 33.209-.103 1.332-.236 2.415-.415 3.154-.05.204-.135.43-.182.55Z"/><path d="M187.377 55.159c-.261-.116-.521-.093-.764.004-.047.019-.64.219-.64 1.012 0 .101.015.198.043.29.05.681.265 3.629.265 4.517 0 3.876-.812 9.789-.812 13.363 0 9.457 3.085 16.346 3.085 26.387 0 8.077.03 51.577-.33 57.191-.288 4.493-.711 13.482-.526 15.225.05.463.213.726.293.822a.989.989 0 0 0 .838.377c6.233-.238 14.478.297 20.151.297 2.116 0 11.689.682 15.934.455.847-.045 1.505-.133 1.902-.252.36-.107.598-.267.74-.408.204-.205.423-.565.589-1.097.25-.804.444-2.15.578-3.874.718-9.301-.15-30.202-.15-33.356 0-10.937 2.161-41.562.909-61.502-.326-5.204-.888-9.69-1.769-12.935-.637-2.347-1.47-4.077-2.452-5.059-.334-.335-.939-.662-1.805-.907-1.559-.441-4.128-.717-7.22-.865-9.672-.462-24.603.267-28.859.315Zm-.078.229a.14.14 0 0 0 .053.011c4.219-.045 19.185-.778 28.873-.315 3.068.147 5.618.418 7.166.856.814.231 1.386.531 1.701.846.96.96 1.766 2.656 2.389 4.952.878 3.233 1.436 7.703 1.762 12.887 1.251 19.935-.91 50.553-.91 61.487 0 3.152.868 24.042.15 33.338-.131 1.7-.321 3.027-.567 3.821-.15.483-.345.813-.53.998-.122.122-.329.256-.639.348-.385.115-1.024.198-1.845.242-4.242.227-13.808-.455-15.922-.455-5.675 0-13.925-.535-20.16-.297a.76.76 0 0 1-.645-.29c-.067-.081-.197-.305-.238-.695-.184-1.738.239-10.703.527-15.184.36-5.615.33-49.127.33-57.206 0-10.041-3.085-16.93-3.085-26.387 0-3.574.812-9.487.812-13.363 0-.897-.218-3.891-.267-4.549l-.005-.027a.77.77 0 0 1-.036-.231c0-.615.453-.774.49-.789a.713.713 0 0 1 .596.002Zm38.952 117.754a.12.12 0 0 0 .084-.073 4.43 4.43 0 0 0 .187-.565c.181-.744.315-1.834.419-3.174.715-9.262-.156-30.077-.156-33.218 0-10.917 2.163-41.486.914-61.39-.318-5.06-.854-9.423-1.711-12.579-.533-1.964-1.168-3.442-1.99-4.263a1.433 1.433 0 0 0-.498-.294c-.303-.118-.707-.215-1.187-.318-1.495-.319-3.647-.519-6.162-.639-9.237-.441-23.284.21-28.183.307a.12.12 0 0 0-.118.129c.096 1.255.218 3.183.218 3.917 0 3.876-.812 9.789-.812 13.363 0 9.457 3.085 16.346 3.085 26.387 0 8.093.027 51.68-.333 57.305-.26 4.054-.647 11.843-.564 14.382a.12.12 0 0 0 .123.116c6.144-.168 13.962.322 19.413.322 1.845 0 9.378.522 14.066.502 1.052-.005 1.956-.037 2.61-.111.217-.024.461-.075.595-.106Zm-.116-.22a5.343 5.343 0 0 1-.506.088c-.648.073-1.543.104-2.584.109-4.688.02-12.22-.502-14.065-.502-5.417 0-13.172-.484-19.3-.325-.067-2.651.312-10.254.567-14.24.361-5.626.334-49.225.334-57.32 0-10.041-3.085-16.93-3.085-26.387 0-3.574.812-9.487.812-13.363 0-.713-.114-2.548-.209-3.808 5.008-.106 18.887-.742 28.04-.305 2.499.119 4.638.317 6.124.634.465.099.856.192 1.15.306.18.07.321.147.415.24.8.801 1.409 2.244 1.929 4.157.853 3.144 1.386 7.491 1.702 12.531 1.249 19.899-.914 50.461-.914 61.375 0 3.139.871 23.942.156 33.2-.102 1.324-.234 2.401-.412 3.135a4.036 4.036 0 0 1-.154.475Z"/><path d="M24.601 169.587c0 .86 1.345 8.589 1.55 8.794 1.6 1.6 26.844 10.094 29.895 10.094.368 0 103.37-6.212 117.638-6.212 8.339 0 49.4-1.666 49.4-1.666s.285-5.961-.149-6.395c-.556-.557-64.173.949-74.811 1.348-2.339.088-31.295 2.415-50.536 3.996-6.008.493-36.805 1.478-43.787 2.089-2.211.194-20.8-8.893-29.2-12.048Z" style="fill:#fff"/><path d="M24.915 168.751a.894.894 0 0 0-1.208.836c0 .704.87 5.909 1.33 8.069.103.486.193.833.247.977.078.21.18.325.235.38.181.18.589.45 1.208.757 1.17.579 3.212 1.407 5.698 2.334 8.268 3.086 21.458 7.265 23.621 7.265.368 0 103.37-6.212 117.638-6.212 8.345 0 49.436-1.667 49.436-1.667a.893.893 0 0 0 .856-.85s.184-3.897.032-5.682c-.034-.397-.091-.711-.154-.903a1.225 1.225 0 0 0-.287-.485.932.932 0 0 0-.422-.243c-.182-.052-.926-.109-2.139-.127-10.815-.158-63.335 1.098-72.916 1.457-2.34.088-31.319 2.417-50.575 3.998-6.009.494-36.809 1.479-43.792 2.09-.203.018-.58-.1-1.111-.267-1.018-.321-2.457-.88-4.163-1.589-6.761-2.807-17.647-7.928-23.534-10.138Zm.744 2.204c7.02 2.788 18.983 8.462 24.747 10.64 1.729.654 2.977.974 3.473.93 6.982-.611 37.775-1.595 43.782-2.089 19.226-1.579 48.16-3.905 50.496-3.993 9.569-.359 62.022-1.614 72.822-1.456.474.007.925.025 1.244.041.122 1.136.053 3.47.004 4.71-5.823.234-40.908 1.632-48.543 1.632-14.268 0-117.27 6.212-117.638 6.212-2.108 0-14.939-4.145-22.996-7.152-2.412-.9-4.395-1.7-5.529-2.261-.262-.13-.471-.233-.607-.321-.277-1.085-.944-4.808-1.255-6.893Z"/><path d="M24.915 168.751a.894.894 0 0 0-1.208.836c0 .704.87 5.909 1.33 8.069.103.486.193.833.247.977.078.21.18.325.235.38.181.18.589.45 1.208.757 1.17.579 3.212 1.407 5.698 2.334 8.268 3.086 21.458 7.265 23.621 7.265.368 0 103.37-6.212 117.638-6.212 8.345 0 49.436-1.667 49.436-1.667a.893.893 0 0 0 .856-.85s.184-3.897.032-5.682c-.034-.397-.091-.711-.154-.903a1.225 1.225 0 0 0-.287-.485.932.932 0 0 0-.422-.243c-.182-.052-.926-.109-2.139-.127-10.815-.158-63.335 1.098-72.916 1.457-2.34.088-31.319 2.417-50.575 3.998-6.009.494-36.809 1.479-43.792 2.09-.203.018-.58-.1-1.111-.267-1.018-.321-2.457-.88-4.163-1.589-6.761-2.807-17.647-7.928-23.534-10.138Zm.744 2.204c7.02 2.788 18.983 8.462 24.747 10.64 1.729.654 2.977.974 3.473.93 6.982-.611 37.775-1.595 43.782-2.089 19.226-1.579 48.16-3.905 50.496-3.993 9.569-.359 62.022-1.614 72.822-1.456.474.007.925.025 1.244.041.122 1.136.053 3.47.004 4.71-5.823.234-40.908 1.632-48.543 1.632-14.268 0-117.27 6.212-117.638 6.212-2.108 0-14.939-4.145-22.996-7.152-2.412-.9-4.395-1.7-5.529-2.261-.262-.13-.471-.233-.607-.321-.277-1.085-.944-4.808-1.255-6.893Z"/><path d="M24.957 168.638a1.013 1.013 0 0 0-1.37.949c0 .706.871 5.927 1.333 8.094.105.494.197.847.251.994.087.234.202.362.263.423.186.185.604.465 1.24.78 1.172.58 3.218 1.409 5.709 2.339 8.282 3.09 21.496 7.272 23.663 7.272.368 0 103.37-6.212 117.638-6.212 8.346 0 49.441-1.667 49.441-1.667.524-.021.946-.44.971-.964 0 0 .184-3.908.031-5.698-.035-.41-.094-.733-.159-.931a1.363 1.363 0 0 0-.316-.532 1.054 1.054 0 0 0-.474-.274c-.185-.053-.94-.113-2.171-.131-10.815-.158-63.34 1.098-72.921 1.457-2.341.088-31.323 2.417-50.581 3.999-6.009.493-36.809 1.478-43.792 2.089-.195.018-.556-.101-1.065-.262-1.016-.32-2.451-.878-4.153-1.585-6.762-2.807-17.65-7.928-23.538-10.14Zm-.084.225c5.886 2.21 16.77 7.33 23.53 10.137 1.71.71 3.152 1.271 4.173 1.592.552.174.946.291 1.158.273 6.983-.612 37.782-1.597 43.791-2.09 19.254-1.582 48.23-3.91 50.57-3.998 9.579-.359 62.095-1.615 72.909-1.457 1.195.018 1.928.071 2.108.122a.825.825 0 0 1 .37.213c.087.087.188.227.258.438.062.186.115.49.148.875.151 1.776-.031 5.647-.032 5.666a.773.773 0 0 1-.741.736c-.012.001-41.088 1.667-49.431 1.667-14.268 0-117.27 6.212-117.638 6.212-2.16 0-15.325-4.177-23.579-7.257-2.481-.926-4.519-1.752-5.686-2.329-.602-.299-1.001-.559-1.177-.735a.908.908 0 0 1-.208-.337c-.053-.141-.14-.483-.242-.96-.458-2.154-1.327-7.342-1.327-8.044a.776.776 0 0 1 1.046-.724Zm.831 1.981a.119.119 0 0 0-.119.017.118.118 0 0 0-.044.112c.311 2.088.979 5.818 1.256 6.905a.12.12 0 0 0 .052.071c.139.09.351.195.618.327 1.137.563 3.124 1.364 5.541 2.266 8.071 3.012 20.926 7.16 23.038 7.16.368 0 103.37-6.212 117.638-6.212 7.636 0 42.724-1.398 48.548-1.632a.12.12 0 0 0 .115-.116c.049-1.244.118-3.586-.004-4.727a.122.122 0 0 0-.114-.107 36.675 36.675 0 0 0-1.248-.041c-10.801-.158-63.259 1.097-72.828 1.456-2.337.088-31.274 2.414-50.502 3.994-6.007.493-36.801 1.478-43.782 2.089-.49.043-1.717-.279-3.421-.923-5.763-2.178-17.726-7.852-24.744-10.639Zm.105.3c7.044 2.814 18.843 8.405 24.554 10.563 1.755.664 3.023.982 3.527.938 6.981-.611 37.774-1.596 43.781-2.089 19.224-1.579 48.154-3.905 50.491-3.993 9.567-.359 62.016-1.614 72.816-1.456.422.006.827.022 1.136.036.104 1.13.045 3.258-.002 4.479-6.143.247-40.841 1.628-48.428 1.628-14.268 0-117.27 6.212-117.638 6.212-2.105 0-14.911-4.143-22.954-7.144-2.407-.899-4.386-1.696-5.518-2.257a8.827 8.827 0 0 1-.556-.289c-.273-1.102-.892-4.547-1.209-6.628Z"/><path d="M190.63 148.746c-.323 0 7.501-.26 10.62-.26 2.235 0 18.858-2.496 19.801-1.553.827.827 1.2 7.093 1.2 8.393 0 1.984.443 8.988-1.2 10.631-1.204 1.204-3.32-.388-5.048-.388h-20.965c-1.235 0-5.817.253-5.817.069" style="fill:#fff"/><path d="m190.719 149.635.081-.004c1.057-.042 7.652-.252 10.45-.252 1.791 0 12.805-1.597 17.623-1.753.613-.02 1.272.025 1.566.048.085.261.265.839.356 1.348.384 2.154.562 5.416.562 6.304 0 1.177.16 4.139-.064 6.671-.084.948-.22 1.831-.45 2.517-.116.343-.242.629-.424.811-.171.171-.388.198-.62.187a3.921 3.921 0 0 1-.838-.159c-.972-.269-2.02-.678-2.958-.678h-20.965c-1.022 0-5.034.105-5.528.118a.894.894 0 0 0-1.183.845c0 .176.114.831.914.93.768.095 4.664-.106 5.797-.106h20.965c.985 0 2.097.567 3.08.756 1.003.192 1.899.071 2.599-.629.589-.589 1.013-1.732 1.235-3.139.441-2.796.227-6.711.227-8.124 0-.932-.187-4.356-.59-6.618-.133-.746-.295-1.375-.471-1.782a2.018 2.018 0 0 0-.401-.625c-.137-.138-.39-.297-.786-.378-.422-.085-1.146-.114-2.081-.084-4.802.156-15.78 1.753-17.565 1.753-2.817 0-9.457.211-10.521.254a6.68 6.68 0 0 0-.209.011c-.362.042-.508.232-.538.263a.842.842 0 0 0-.234.818c.005.024.132.701.882.701a.87.87 0 0 0 .089-.004Zm-.76 15.501Zm.72-17.282a.89.89 0 0 1 .7.406.805.805 0 0 0-.7-.406Z"/><path d="m190.719 149.635.081-.004c1.057-.042 7.652-.252 10.45-.252 1.791 0 12.805-1.597 17.623-1.753.613-.02 1.272.025 1.566.048.085.261.265.839.356 1.348.384 2.154.562 5.416.562 6.304 0 1.177.16 4.139-.064 6.671-.084.948-.22 1.831-.45 2.517-.116.343-.242.629-.424.811-.171.171-.388.198-.62.187a3.921 3.921 0 0 1-.838-.159c-.972-.269-2.02-.678-2.958-.678h-20.965c-1.022 0-5.034.105-5.528.118a.894.894 0 0 0-1.183.845c0 .176.114.831.914.93.768.095 4.664-.106 5.797-.106h20.965c.985 0 2.097.567 3.08.756 1.003.192 1.899.071 2.599-.629.589-.589 1.013-1.732 1.235-3.139.441-2.796.227-6.711.227-8.124 0-.932-.187-4.356-.59-6.618-.133-.746-.295-1.375-.471-1.782a2.018 2.018 0 0 0-.401-.625c-.137-.138-.39-.297-.786-.378-.422-.085-1.146-.114-2.081-.084-4.802.156-15.78 1.753-17.565 1.753-2.817 0-9.457.211-10.521.254a6.68 6.68 0 0 0-.209.011c-.362.042-.508.232-.538.263a.842.842 0 0 0-.234.818c.005.024.132.701.882.701a.87.87 0 0 0 .089-.004Zm-.76 15.501Zm.72-17.282a.89.89 0 0 1 .7.406.805.805 0 0 0-.7-.406Z"/><path d="m190.73 149.754.075-.003c1.056-.042 7.649-.252 10.445-.252 1.791 0 12.808-1.597 17.627-1.753a14.04 14.04 0 0 1 1.472.042c.091.282.246.797.328 1.255.382 2.147.56 5.398.56 6.283 0 1.175.161 4.132-.064 6.661-.083.936-.216 1.811-.444 2.489-.108.322-.224.593-.395.764-.145.145-.332.161-.529.152a3.857 3.857 0 0 1-.812-.155c-.982-.271-2.042-.682-2.99-.682h-20.965c-1.01 0-4.933.102-5.511.117a1.014 1.014 0 0 0-1.32.966c0 .197.122.938 1.019 1.049.77.095 4.676-.105 5.812-.105h20.965c.978 0 2.081.567 3.057.754 1.046.2 1.978.067 2.707-.662.602-.602 1.042-1.767 1.269-3.205.442-2.802.228-6.727.228-8.143 0-.935-.188-4.37-.592-6.639-.135-.757-.3-1.396-.479-1.809a2.149 2.149 0 0 0-.426-.662c-.148-.148-.419-.323-.847-.41-.428-.087-1.162-.117-2.109-.087-4.801.156-15.776 1.753-17.561 1.753-2.818 0-9.461.212-10.526.254-.129.005-.204.011-.218.012-.41.047-.575.263-.61.298a.955.955 0 0 0-.265.928c.006.027.149.795.999.795a.827.827 0 0 0 .1-.005Zm-.082-1.785a3.486 3.486 0 0 0-.114.008c-.313.036-.44.2-.466.227a.726.726 0 0 0-.203.708c.005.021.115.607.765.607a.65.65 0 0 0 .077-.004.122.122 0 0 0-.108.126.12.12 0 0 0 .12.114l-.003-.24.077-.003.007.239-.005-.24c1.057-.042 7.656-.252 10.455-.252 1.79 0 12.803-1.597 17.619-1.753.618-.02 1.283.025 1.579.049a.12.12 0 0 1 .105.082c.086.264.268.848.36 1.364.385 2.161.564 5.434.564 6.325 0 1.178.16 4.146-.065 6.682-.085.958-.222 1.851-.456 2.544-.122.363-.26.665-.452.858-.197.196-.445.234-.711.221a4.043 4.043 0 0 1-.864-.162c-.961-.266-1.998-.674-2.926-.674h-20.965c-1.022 0-5.031.105-5.525.118a.116.116 0 0 1-.042-.007.774.774 0 0 0-1.024.732c0 .155.106.724.809.811.766.094 4.652-.107 5.782-.107h20.965c.992 0 2.112.568 3.103.758.961.184 1.821.075 2.492-.596.576-.576.984-1.696 1.201-3.072.439-2.79.225-6.696.225-8.106 0-.929-.186-4.342-.588-6.597-.131-.735-.289-1.354-.463-1.756a1.906 1.906 0 0 0-.375-.587c-.127-.127-.361-.271-.726-.345-.417-.085-1.131-.112-2.053-.082-4.803.156-15.784 1.753-17.569 1.753-2.507 0-8.046.168-9.979.234a.958.958 0 0 1 .212.253.12.12 0 0 1-.204.126.774.774 0 0 0-.606-.352.069.069 0 0 1-.025-.004Zm-.654 17.669h.24v-.018a.959.959 0 0 0-.177-.554.12.12 0 0 0-.197.137.767.767 0 0 1 .134.435Z"/><path d="M207.399 165.569c.522.521.538-17.637-.722-17.637" style="fill:#fff"/><path d="M206.143 148.648c.024.072.056.176.079.27.103.427.189 1.024.264 1.736.383 3.654.427 10.199.267 13.234-.026.486-.08.974-.107 1.201a.893.893 0 0 0 .122 1.112c.335.335.687.336 1.009.2a.916.916 0 0 0 .435-.374c.062-.1.159-.331.212-.697.302-2.084.302-12.072-.303-15.984-.159-1.029-.433-1.711-.658-1.953a1.039 1.039 0 0 0-.786-.355.895.895 0 0 0-.534 1.61Zm1.371 16.035c.173.022.34.095.478.218a.788.788 0 0 0-.478-.218Z"/><path d="M206.143 148.648c.024.072.056.176.079.27.103.427.189 1.024.264 1.736.383 3.654.427 10.199.267 13.234-.026.486-.08.974-.107 1.201a.893.893 0 0 0 .122 1.112c.335.335.687.336 1.009.2a.916.916 0 0 0 .435-.374c.062-.1.159-.331.212-.697.302-2.084.302-12.072-.303-15.984-.159-1.029-.433-1.711-.658-1.953a1.039 1.039 0 0 0-.786-.355.895.895 0 0 0-.534 1.61Zm1.371 16.035c.173.022.34.095.478.218a.788.788 0 0 0-.478-.218Z"/><path d="M206.04 148.721c.022.066.047.149.065.225.102.424.187 1.015.261 1.72.383 3.649.427 10.185.267 13.215-.024.466-.075.932-.103 1.168a1.01 1.01 0 0 0 .153 1.236c.379.379.777.38 1.141.227.154-.065.34-.182.49-.421.066-.107.172-.353.229-.744.303-2.088.303-12.099-.303-16.02-.165-1.063-.457-1.765-.689-2.016a1.157 1.157 0 0 0-.874-.393 1.015 1.015 0 0 0-.636 1.803h-.001Zm.217-.11a.12.12 0 0 0-.042-.059.772.772 0 0 1 .462-1.394c.234 0 .48.082.698.316.217.235.474.897.627 1.89.604 3.903.605 13.87.303 15.949-.049.341-.137.558-.195.651a.811.811 0 0 1-.38.327c-.28.118-.586.116-.878-.175a.773.773 0 0 1-.105-.962.131.131 0 0 0 .018-.05c.027-.229.082-.72.108-1.21.16-3.039.116-9.594-.268-13.253-.075-.718-.163-1.32-.266-1.751a3.776 3.776 0 0 0-.082-.279Zm1.815 16.2a.907.907 0 0 0-.548-.248.12.12 0 0 0-.025.239.773.773 0 0 1 .414.188.12.12 0 0 0 .169-.009.12.12 0 0 0-.009-.169l-.001-.001Z"/><path d="M71.576 83.261c0 17.478 1.553 37.769 1.553 56.295 0 2.273.663 20.853 1.164 21.354 1.716 1.715 46.731-3.494 54.355-3.494 4.209 0 44.278-.019 45.036-.777.245-.244-.776-8.814-.776-10.483 0-5.459.06-32.103-1.941-36.106-1.451-2.903-1.424-23.036.388-24.848.251-.251.963-2.237 0-2.718-3.934-1.967-49.511 1.553-57.46 1.553-13.502 0-42.319-2.548-42.319-.776Z" style="fill:#fff"/><path d="M70.682 83.261c0 17.478 1.553 37.769 1.553 56.295 0 1.826.426 14.128.854 19.234.092 1.096.193 1.882.281 2.209a1.2 1.2 0 0 0 .292.543c.175.176.588.394 1.266.489.957.134 2.692.149 4.977.067 12.638-.455 42.648-3.789 48.743-3.789 3.37 0 29.709-.012 40.498-.405 2.222-.081 3.803-.183 4.426-.299.428-.079.659-.248.744-.334.078-.077.295-.378.3-.933.013-1.582-.814-8.679-.814-10.182 0-3.83.028-18.064-.642-27.636-.298-4.258-.769-7.621-1.394-8.87-.279-.558-.469-1.817-.626-3.464-.396-4.158-.425-10.636-.052-15.295.134-1.672.318-3.104.559-4.095.114-.466.192-.814.34-.962.089-.089.227-.277.35-.55.183-.406.381-1.067.399-1.681.026-.84-.288-1.571-.981-1.918-.834-.417-3.426-.66-7.117-.688-13.938-.106-44.383 2.147-50.743 2.147-9.448 0-26.397-1.249-35.717-1.39-3.368-.052-5.789.076-6.623.4-.685.265-.873.739-.873 1.107Zm100.235.005c.01.051.036.194.033.283-.012.405-.247.993-.284 1.082-.215.242-.435.648-.611 1.215-.326 1.054-.58 2.802-.748 4.902-.381 4.754-.35 11.365.054 15.607.186 1.953.476 3.433.807 4.094.576 1.153.934 4.267 1.209 8.196.668 9.528.637 23.698.637 27.511 0 1.388.708 7.555.804 9.724a73.03 73.03 0 0 1-3.737.238c-10.772.393-37.069.404-40.433.404-6.103 0-36.153 3.335-48.807 3.79-1.671.06-3.032.07-3.984.013a8.234 8.234 0 0 1-.806-.097 32.13 32.13 0 0 1-.181-1.588c-.425-5.066-.848-17.272-.848-19.084 0-18.354-1.524-38.44-1.552-55.807.047-.01.095-.02.142-.028.501-.086 1.212-.138 2.098-.167 7.803-.255 28.391 1.377 39.185 1.377 6.358 0 36.795-2.253 50.73-2.147 2.051.015 3.738.081 4.926.217.632.071 1.1.146 1.366.265Z"/><path d="M70.682 83.261c0 17.478 1.553 37.769 1.553 56.295 0 1.826.426 14.128.854 19.234.092 1.096.193 1.882.281 2.209a1.2 1.2 0 0 0 .292.543c.175.176.588.394 1.266.489.957.134 2.692.149 4.977.067 12.638-.455 42.648-3.789 48.743-3.789 3.37 0 29.709-.012 40.498-.405 2.222-.081 3.803-.183 4.426-.299.428-.079.659-.248.744-.334.078-.077.295-.378.3-.933.013-1.582-.814-8.679-.814-10.182 0-3.83.028-18.064-.642-27.636-.298-4.258-.769-7.621-1.394-8.87-.279-.558-.469-1.817-.626-3.464-.396-4.158-.425-10.636-.052-15.295.134-1.672.318-3.104.559-4.095.114-.466.192-.814.34-.962.089-.089.227-.277.35-.55.183-.406.381-1.067.399-1.681.026-.84-.288-1.571-.981-1.918-.834-.417-3.426-.66-7.117-.688-13.938-.106-44.383 2.147-50.743 2.147-9.448 0-26.397-1.249-35.717-1.39-3.368-.052-5.789.076-6.623.4-.685.265-.873.739-.873 1.107Zm100.235.005c.01.051.036.194.033.283-.012.405-.247.993-.284 1.082-.215.242-.435.648-.611 1.215-.326 1.054-.58 2.802-.748 4.902-.381 4.754-.35 11.365.054 15.607.186 1.953.476 3.433.807 4.094.576 1.153.934 4.267 1.209 8.196.668 9.528.637 23.698.637 27.511 0 1.388.708 7.555.804 9.724a73.03 73.03 0 0 1-3.737.238c-10.772.393-37.069.404-40.433.404-6.103 0-36.153 3.335-48.807 3.79-1.671.06-3.032.07-3.984.013a8.234 8.234 0 0 1-.806-.097 32.13 32.13 0 0 1-.181-1.588c-.425-5.066-.848-17.272-.848-19.084 0-18.354-1.524-38.44-1.552-55.807.047-.01.095-.02.142-.028.501-.086 1.212-.138 2.098-.167 7.803-.255 28.391 1.377 39.185 1.377 6.358 0 36.795-2.253 50.73-2.147 2.051.015 3.738.081 4.926.217.632.071 1.1.146 1.366.265Z"/><path d="M70.562 83.261c0 17.478 1.553 37.769 1.553 56.295 0 1.827.426 14.135.855 19.244.093 1.107.195 1.901.284 2.23.089.327.236.51.323.597.185.185.618.423 1.335.523.961.135 2.703.151 4.998.068 12.636-.455 42.644-3.789 48.738-3.789 3.37 0 29.712-.012 40.503-.405 2.23-.081 3.817-.185 4.443-.301.465-.086.714-.274.807-.367.085-.085.33-.41.335-1.017.013-1.582-.814-8.68-.814-10.183 0-3.831.028-18.07-.642-27.645-.3-4.279-.779-7.659-1.407-8.915-.275-.551-.458-1.795-.613-3.422-.396-4.152-.424-10.621-.052-15.274.133-1.663.315-3.089.556-4.076.067-.274.121-.507.185-.68a.618.618 0 0 1 .123-.226c.095-.094.243-.293.375-.585.188-.416.39-1.095.409-1.726.027-.891-.313-1.662-1.048-2.029-.839-.42-3.451-.673-7.169-.701-13.938-.106-44.384 2.147-50.744 2.147-9.447 0-26.396-1.249-35.715-1.39-3.392-.052-5.829.082-6.669.408-.75.291-.949.815-.949 1.219Zm.24 0c0-.333.177-.756.796-.995.829-.322 3.233-.443 6.579-.392 9.319.141 26.27 1.39 35.718 1.39 6.36 0 36.804-2.253 50.742-2.147 3.663.028 6.237.262 7.064.675.652.326.939 1.018.915 1.808a4.667 4.667 0 0 1-.388 1.635 1.834 1.834 0 0 1-.326.514.863.863 0 0 0-.179.312c-.066.18-.123.422-.192.706-.243.996-.428 2.435-.562 4.114-.374 4.665-.345 11.153.052 15.316.159 1.668.355 2.942.638 3.507.621 1.242 1.085 4.589 1.381 8.824.67 9.569.642 23.799.642 27.628 0 1.503.827 8.599.814 10.182-.004.503-.194.778-.265.848-.078.078-.29.229-.681.301-.621.115-2.195.216-4.408.297-10.788.393-37.124.405-40.494.405-6.096 0-36.108 3.334-48.747 3.789-2.275.082-4.003.068-4.956-.065-.641-.09-1.033-.29-1.199-.456a1.088 1.088 0 0 1-.26-.49c-.088-.323-.186-1.102-.277-2.187-.428-5.103-.854-17.399-.854-19.224 0-18.526-1.553-38.817-1.553-56.295Zm100.233-.018a.118.118 0 0 0-.069-.087c-.273-.122-.753-.201-1.402-.275-1.191-.135-2.882-.202-4.938-.217-13.935-.106-44.373 2.147-50.731 2.147-10.795 0-31.385-1.631-39.189-1.377-.892.029-1.61.082-2.114.169-.049.008-.1.018-.148.029a.12.12 0 0 0-.094.118c.028 17.366 1.552 37.452 1.552 55.806 0 1.813.424 14.026.849 19.094.051.615.132 1.237.181 1.594a.122.122 0 0 0 .099.102c.212.036.524.081.819.099.954.057 2.319.047 3.995-.013 12.654-.456 42.701-3.79 48.803-3.79 3.365 0 29.664-.011 40.437-.404a71.797 71.797 0 0 0 3.743-.239.122.122 0 0 0 .11-.125c-.096-2.168-.804-8.331-.804-9.718 0-3.814.031-17.988-.637-27.52-.277-3.95-.643-7.081-1.222-8.241-.327-.654-.61-2.119-.794-4.051-.404-4.237-.434-10.839-.054-15.586.167-2.089.418-3.828.743-4.877.169-.545.379-.937.586-1.17a.12.12 0 0 0 .021-.034c.038-.093.28-.704.293-1.124a1.73 1.73 0 0 0-.035-.31Zm-.224.109c.01.059.021.138.019.194-.011.367-.215.891-.267 1.021-.219.253-.444.667-.622 1.243-.329 1.06-.585 2.817-.754 4.929-.381 4.76-.35 11.38.055 15.628.188 1.973.484 3.468.818 4.136.573 1.146.924 4.244 1.198 8.15.667 9.526.636 23.692.636 27.503 0 1.365.684 7.349.798 9.614-.751.067-2.107.173-3.615.228-10.771.393-37.065.404-40.429.404-6.104 0-36.156 3.335-48.811 3.79-1.667.06-3.024.071-3.972.013a7.846 7.846 0 0 1-.707-.081 30.66 30.66 0 0 1-.168-1.494c-.425-5.063-.848-17.263-.848-19.074 0-18.319-1.518-38.365-1.552-55.709l.043-.008c.496-.085 1.202-.136 2.081-.165 7.802-.255 28.388 1.377 39.181 1.377 6.358 0 36.795-2.253 50.729-2.147 2.046.015 3.728.081 4.913.216.573.065 1.007.13 1.274.231v.001Z"/><path d="M74.293 151.204c.175-.175 55.82-.689 58.237-3.106 2.983-2.983.389-36.565.389-42.319 0-4.053 2.741-24.095.776-22.13" style="fill:#fff"/><path d="M133.405 84.494c.047.502.116 1.424.096 2.281-.133 5.48-1.476 16.164-1.476 19.004 0 4.025 1.271 21.678 1.011 32.929-.065 2.837-.227 5.259-.537 6.932-.161.866-.309 1.502-.574 1.798-.062.025-.404.16-.7.234-.816.202-2.047.386-3.596.558-10.649 1.181-35.952 1.684-47.462 1.922-3.273.068-5.442.116-5.869.15-.422.034-.605.238-.636.27a.894.894 0 0 0 .787 1.511c.16-.005 2.647-.08 5.755-.144 11.549-.239 36.937-.748 47.622-1.933 1.942-.215 3.415-.458 4.263-.719.542-.167.893-.377 1.073-.557.314-.315.615-.87.84-1.66.269-.942.469-2.274.604-3.892.865-10.329-.794-32.787-.794-37.399 0-3.252 1.753-16.769 1.448-21.036-.067-.942-.312-1.549-.535-1.781a1.054 1.054 0 0 0-.743-.341c-.258-.01-.588.065-.919.396a.896.896 0 0 0 .342 1.477Z"/><path d="M133.405 84.494c.047.502.116 1.424.096 2.281-.133 5.48-1.476 16.164-1.476 19.004 0 4.025 1.271 21.678 1.011 32.929-.065 2.837-.227 5.259-.537 6.932-.161.866-.309 1.502-.574 1.798-.062.025-.404.16-.7.234-.816.202-2.047.386-3.596.558-10.649 1.181-35.952 1.684-47.462 1.922-3.273.068-5.442.116-5.869.15-.422.034-.605.238-.636.27a.894.894 0 0 0 .787 1.511c.16-.005 2.647-.08 5.755-.144 11.549-.239 36.937-.748 47.622-1.933 1.942-.215 3.415-.458 4.263-.719.542-.167.893-.377 1.073-.557.314-.315.615-.87.84-1.66.269-.942.469-2.274.604-3.892.865-10.329-.794-32.787-.794-37.399 0-3.252 1.753-16.769 1.448-21.036-.067-.942-.312-1.549-.535-1.781a1.054 1.054 0 0 0-.743-.341c-.258-.01-.588.065-.919.396a.896.896 0 0 0 .342 1.477Z"/><path d="M133.292 84.579c.046.512.108 1.382.089 2.193-.133 5.481-1.476 16.166-1.476 19.007 0 4.025 1.271 21.676 1.011 32.927-.065 2.828-.225 5.244-.535 6.912-.095.512-.186.943-.299 1.269-.066.19-.139.342-.228.45-.102.04-.398.154-.657.218-.814.202-2.039.385-3.581.556-10.647 1.181-35.944 1.683-47.452 1.921-3.276.068-5.448.116-5.876.15-.472.039-.676.27-.711.305a1.013 1.013 0 0 0 .886 1.716c.222-.007 2.681-.081 5.743-.144 11.552-.239 36.945-.748 47.633-1.933 1.952-.217 3.433-.462 4.285-.724.568-.175.934-.399 1.123-.588.324-.324.638-.896.871-1.711.27-.948.472-2.288.608-3.915.865-10.331-.794-32.796-.794-37.409 0-3.253 1.753-16.775 1.448-21.045-.07-.983-.336-1.613-.568-1.855a1.171 1.171 0 0 0-.826-.378c-.282-.011-.645.069-1.008.431a1.015 1.015 0 0 0 .314 1.647Zm.232-.096a.12.12 0 0 0-.081-.103.774.774 0 0 1-.295-1.278c.299-.299.596-.37.829-.361a.937.937 0 0 1 .661.304c.214.222.438.806.502 1.707.305 4.265-1.448 17.776-1.448 21.027 0 4.611 1.659 27.063.795 37.389-.135 1.608-.333 2.932-.6 3.869-.218.765-.506 1.304-.81 1.608-.171.171-.507.369-1.023.527-.844.26-2.309.501-4.241.715-10.683 1.185-36.065 1.693-47.612 1.932a636.87 636.87 0 0 0-5.755.144l-.018.002a.772.772 0 0 1-.682-1.308c.028-.028.19-.205.562-.235.426-.035 2.593-.082 5.861-.15 11.513-.238 36.821-.741 47.473-1.923 1.556-.172 2.792-.357 3.612-.561.302-.075.652-.213.716-.239a.14.14 0 0 0 .045-.031c.273-.305.435-.961.602-1.856.311-1.678.473-4.106.539-6.951.26-11.253-1.011-28.907-1.011-32.932 0-2.84 1.343-13.522 1.476-19.001.02-.863-.05-1.79-.097-2.295Z"/><path d="M131.754 148.874c-.241-.241 7.715 0 9.318 0 7.075 0 15.656 1.034 21.353 3.883 2.033 1.016 5.823 1.94 6.989 3.106.188.188 4.08.388 1.941.388" style="fill:#fff"/><path d="M132.109 149.694c1.333-.117 7.571.074 8.963.074 6.941 0 15.364.993 20.954 3.788 1.238.619 3.116 1.207 4.678 1.832.89.356 1.673.702 2.078 1.106.076.076.325.251.743.327.289.052.844.118 1.329.17a.89.89 0 0 0 .501.153c.584 0 .855-.046.911-.064a.846.846 0 0 0 .537-.471.859.859 0 0 0 .004-.758c-.032-.069-.207-.44-.745-.53a92.688 92.688 0 0 0-2.211-.266c-.557-.466-1.452-.914-2.483-1.326-1.516-.606-3.341-1.171-4.543-1.772-5.806-2.902-14.545-3.976-21.753-3.976-1.459 0-8.126-.191-9.267-.052-.645.078-.854.511-.896.626-.107.295-.107.631.213.951a.894.894 0 0 0 .987.188Zm.535-.745c.032-.229-.024-.472-.258-.707a.895.895 0 0 1 .258.707Z"/><path d="M132.109 149.694c1.333-.117 7.571.074 8.963.074 6.941 0 15.364.993 20.954 3.788 1.238.619 3.116 1.207 4.678 1.832.89.356 1.673.702 2.078 1.106.076.076.325.251.743.327.289.052.844.118 1.329.17a.89.89 0 0 0 .501.153c.584 0 .855-.046.911-.064a.846.846 0 0 0 .537-.471.859.859 0 0 0 .004-.758c-.032-.069-.207-.44-.745-.53a92.688 92.688 0 0 0-2.211-.266c-.557-.466-1.452-.914-2.483-1.326-1.516-.606-3.341-1.171-4.543-1.772-5.806-2.902-14.545-3.976-21.753-3.976-1.459 0-8.126-.191-9.267-.052-.645.078-.854.511-.896.626-.107.295-.107.631.213.951a.894.894 0 0 0 .987.188Zm.535-.745c.032-.229-.024-.472-.258-.707a.895.895 0 0 1 .258.707Z"/><path d="M132.138 149.812c1.37-.114 7.55.076 8.934.076 6.923 0 15.324.987 20.9 3.775 1.241.62 3.123 1.211 4.687 1.836.872.349 1.641.684 2.038 1.08.083.083.352.278.806.36.286.052.828.116 1.31.168a1 1 0 0 0 .542.157c.608 0 .89-.051.949-.07a.957.957 0 0 0 .607-.534.971.971 0 0 0 .005-.859c-.036-.077-.23-.497-.834-.598a92.88 92.88 0 0 0-2.182-.264c-.566-.463-1.46-.91-2.488-1.322-1.512-.605-3.334-1.167-4.533-1.767-5.82-2.91-14.581-3.989-21.807-3.989-1.462 0-8.139-.19-9.281-.052-.72.088-.948.577-.994.705-.122.334-.122.714.24 1.077.298.297.735.371 1.101.221Zm-.039-.238a.164.164 0 0 0-.038.01.774.774 0 0 1-.854-.163c-.278-.278-.278-.569-.185-.825.037-.101.226-.479.798-.548 1.139-.139 7.795.053 9.252.053 7.19 0 15.908 1.068 21.699 3.964 1.204.602 3.034 1.168 4.552 1.775 1.017.407 1.902.848 2.452 1.307.018.015.04.024.063.027.403.045 1.891.213 2.204.266.472.079.628.401.656.461a.741.741 0 0 1-.004.656.735.735 0 0 1-.465.409c-.054.018-.314.058-.874.058a.772.772 0 0 1-.433-.132.122.122 0 0 0-.055-.02 23.613 23.613 0 0 1-1.321-.169c-.381-.069-.61-.224-.679-.293-.413-.413-1.21-.77-2.119-1.133-1.558-.624-3.433-1.211-4.669-1.828-5.604-2.803-14.048-3.801-21.007-3.801-1.393 0-7.639-.191-8.973-.074Zm.384-1.404-.012-.012-.17.169a.772.772 0 0 1 .223.612.12.12 0 0 0 .107.129.12.12 0 0 0 .132-.103c.035-.257-.023-.531-.28-.795Z"/><path d="M188.106 67.564c4.963 0 30.304-1.697 32.168.167.679.679 3.536 16.335 2.33 17.541-.583.583-16.709.318-21.354.318-3.362 0-12.689 1.073-12.231.616" style="fill:#fff"/><path d="M219.584 68.352c.083.259.304.971.478 1.718.639 2.749 1.484 7.589 1.809 11.092.104 1.123.155 2.104.123 2.823a4.634 4.634 0 0 1-.059.53c-.314.038-.849.095-1.375.122-4.564.229-15.602.059-19.31.059-2.78 0-10.707.618-11.838.707a.895.895 0 0 0-1.025.171c-.33.33-.319.67-.236.936.054.174.257.592.891.676 1.219.161 9.153-.702 12.208-.702 3.725 0 14.814.168 19.4-.063 1.016-.051 1.743-.133 2.059-.225.273-.079.437-.203.526-.292.196-.196.399-.577.484-1.157.117-.794.081-2.141-.069-3.75-.379-4.097-1.456-9.98-2.117-12.415-.228-.838-.495-1.351-.627-1.483-.184-.184-.492-.374-.938-.517-.678-.218-1.793-.378-3.218-.476-7.616-.521-24.665.564-28.644.564a.894.894 0 0 0 0 1.787c3.962 0 20.938-1.087 28.522-.568 1.075.074 1.951.177 2.555.327.139.035.304.097.401.136Zm-29.685 18.006a.892.892 0 0 1-.248.48.805.805 0 0 0 .248-.48Z"/><path d="M219.584 68.352c.083.259.304.971.478 1.718.639 2.749 1.484 7.589 1.809 11.092.104 1.123.155 2.104.123 2.823a4.634 4.634 0 0 1-.059.53c-.314.038-.849.095-1.375.122-4.564.229-15.602.059-19.31.059-2.78 0-10.707.618-11.838.707a.895.895 0 0 0-1.025.171c-.33.33-.319.67-.236.936.054.174.257.592.891.676 1.219.161 9.153-.702 12.208-.702 3.725 0 14.814.168 19.4-.063 1.016-.051 1.743-.133 2.059-.225.273-.079.437-.203.526-.292.196-.196.399-.577.484-1.157.117-.794.081-2.141-.069-3.75-.379-4.097-1.456-9.98-2.117-12.415-.228-.838-.495-1.351-.627-1.483-.184-.184-.492-.374-.938-.517-.678-.218-1.793-.378-3.218-.476-7.616-.521-24.665.564-28.644.564a.894.894 0 0 0 0 1.787c3.962 0 20.938-1.087 28.522-.568 1.075.074 1.951.177 2.555.327.139.035.304.097.401.136Zm-29.685 18.006a.892.892 0 0 1-.248.48.805.805 0 0 0 .248-.48Z"/><path d="M219.487 68.442c.093.294.296.96.458 1.655.638 2.746 1.482 7.578 1.806 11.076.104 1.116.155 2.092.124 2.807a4.312 4.312 0 0 1-.045.426c-.318.037-.801.087-1.276.111-4.563.23-15.598.059-19.304.059-2.758 0-10.575.607-11.816.705a1.014 1.014 0 0 0-1.132.208c-.373.373-.36.757-.266 1.056.061.194.283.666.99.759 1.221.162 9.165-.7 12.224-.7 3.726 0 14.819.168 19.406-.063 1.03-.052 1.766-.136 2.087-.229.3-.087.479-.225.577-.323.208-.208.427-.61.518-1.224.118-.801.082-2.158-.068-3.779-.38-4.104-1.459-9.996-2.122-12.436-.236-.87-.52-1.398-.657-1.536-.194-.193-.517-.395-.986-.546-.684-.221-1.809-.383-3.246-.482-7.619-.521-24.673.564-28.653.564a1.014 1.014 0 0 0 0 2.027c3.961 0 20.932-1.087 28.514-.568 1.066.073 1.935.175 2.534.324.111.027.239.073.333.109Zm.211-.127a.12.12 0 0 0-.069-.075 3.61 3.61 0 0 0-.417-.14c-.609-.152-1.492-.256-2.575-.331-7.587-.519-24.568.568-28.531.568a.773.773 0 1 1 0-1.547c3.978 0 21.022-1.085 28.636-.564 1.412.096 2.517.254 3.189.47.423.136.716.314.89.488.128.127.377.623.596 1.429.66 2.432 1.735 8.304 2.114 12.395.148 1.597.185 2.933.069 3.722-.08.544-.265.905-.449 1.089a1.086 1.086 0 0 1-.475.262c-.313.091-1.029.17-2.032.221-4.584.23-15.67.062-19.394.062-3.051 0-10.975.864-12.192.703-.561-.075-.745-.439-.793-.593a.756.756 0 0 1 .207-.815.774.774 0 0 1 .887-.148.121.121 0 0 0 .062.012c1.131-.089 9.051-.707 11.829-.707 3.709 0 14.75.17 19.316-.06a20.621 20.621 0 0 0 1.383-.122.12.12 0 0 0 .104-.1c.025-.153.053-.358.061-.543.032-.724-.019-1.711-.124-2.84-.325-3.509-1.171-8.355-1.811-11.108a23.328 23.328 0 0 0-.481-1.728Zm-30.132 18.438a.119.119 0 0 0 0 .169.119.119 0 0 0 .169 0 .907.907 0 0 0 .283-.55.12.12 0 0 0-.237-.034.773.773 0 0 1-.215.415Z"/><path d="M196.979 95.684c0 .996.149 3.53.389 3.495 1.737-.256 6.084-.205 6.6 0 .501.198-.032-3.538-.389-3.883-.515-.497-5.64.291-6.6.388Z" style="fill:#fff"/><path d="M203.679 100.024c.498.175 1.23.018 1.362-1.028.097-.774-.154-2.679-.428-3.567-.123-.401-.297-.664-.413-.775-.184-.178-.667-.389-1.385-.411-1.639-.051-5.142.473-5.926.552a.894.894 0 0 0-.803.889c0 .849.109 2.745.281 3.451.107.442.334.679.458.766a.901.901 0 0 0 .672.162c1.178-.173 3.593-.197 5.107-.13.486.021 1.019.085 1.075.091Zm.478-1.719Zm-1.257-2.274c.091.442.288 1.442.354 2.149-1.268-.091-3.664-.095-5.235.03a22.09 22.09 0 0 1-.128-1.742c1.392-.188 3.908-.533 5.009-.437Z"/><path d="M203.679 100.024c.498.175 1.23.018 1.362-1.028.097-.774-.154-2.679-.428-3.567-.123-.401-.297-.664-.413-.775-.184-.178-.667-.389-1.385-.411-1.639-.051-5.142.473-5.926.552a.894.894 0 0 0-.803.889c0 .849.109 2.745.281 3.451.107.442.334.679.458.766a.901.901 0 0 0 .672.162c1.178-.173 3.593-.197 5.107-.13.486.021 1.019.085 1.075.091Zm.478-1.719Zm-1.257-2.274c.091.442.288 1.442.354 2.149-1.268-.091-3.664-.095-5.235.03a22.09 22.09 0 0 1-.128-1.742c1.392-.188 3.908-.533 5.009-.437Z"/><path d="M203.652 100.142c.334.113.757.09 1.075-.192.209-.185.375-.483.433-.939.099-.784-.155-2.716-.432-3.617-.132-.429-.321-.708-.444-.827-.196-.188-.704-.42-1.465-.444-1.643-.051-5.156.474-5.942.553a1.013 1.013 0 0 0-.911 1.008c0 .856.111 2.768.284 3.479.117.484.37.741.506.837.247.173.504.219.759.181 1.172-.172 3.576-.195 5.083-.128.456.02.955.077 1.053.089h.001Zm.066-.231a.102.102 0 0 0-.025-.006c-.056-.007-.594-.07-1.084-.092-1.521-.067-3.947-.043-5.129.131a.78.78 0 0 1-.586-.141c-.113-.079-.314-.296-.411-.696-.17-.7-.277-2.581-.277-3.423 0-.397.3-.729.695-.769.782-.079 4.276-.603 5.91-.552.676.021 1.133.209 1.306.377.107.104.266.35.382.725.269.875.519 2.753.423 3.516-.048.381-.179.635-.354.789-.251.223-.588.233-.85.141Zm.535-1.451a.12.12 0 0 0 .155-.068.12.12 0 0 0-.067-.156 1.023 1.023 0 0 0-.159-.048.12.12 0 0 0-.054.234.92.92 0 0 1 .125.038Zm-6.377-2.111-.003.001a.12.12 0 0 0-.102.125v-.002c.023.573.066 1.249.129 1.752a.12.12 0 0 0 .129.105c1.565-.125 3.953-.121 5.217-.03a.123.123 0 0 0 .094-.036.12.12 0 0 0 .034-.095c-.067-.711-.265-1.718-.357-2.162a.119.119 0 0 0-.107-.095c-1.106-.097-3.635.248-5.034.437Zm.139.224c1.366-.185 3.679-.499 4.785-.429.09.441.249 1.264.32 1.907a43.414 43.414 0 0 0-4.995.031 22.834 22.834 0 0 1-.11-1.509Zm-.132.015h.002-.002Zm0 0Zm-.007-.001.003.001-.003-.001Zm-.006 0h.003-.003Zm-.006-.002.004.001-.004-.001Zm-.006-.001.004.001-.004-.001Zm-.005-.002.004.001-.004-.001Zm-.005-.002.003.002-.003-.002Zm-.006-.002.004.002-.004-.002Zm-.005-.002.004.001-.004-.001Zm-.005-.003.004.002-.004-.002Zm-.004-.003.003.002-.003-.002Zm-.003-.001h.001l-.003-.002.002.002Zm-.004-.003-.003-.002.003.002Zm-.005-.004.001.001-.003-.002.002.001Zm-.004-.003h.001l-.003-.002.002.002Zm-.004-.004v.001l-.002-.003.002.002Zm-.004-.004.001.001-.003-.003.002.002Zm-.004-.004.001.001-.003-.003.002.002Zm-.004-.005.001.001-.002-.002.001.001Zm-.003-.004.001.001-.002-.003.001.002Zm-.003-.005.001.001-.002-.003.001.002Zm-.003-.005.001.002-.002-.004.001.002Zm-.003-.005.001.002-.002-.004.001.002Zm-.002-.005v.002l-.001-.004.001.002Zm-.003-.005.001.002-.001-.004v.002Zm-.002-.005.001.001-.001-.003v.002Zm-.001-.006v.002l-.001-.004.001.002Zm-.002-.005.001.002-.001-.005v.003Zm-.001-.006v.002-.004.002Zm-.001-.006v.002-.004.002Zm-.001-.006.001.002-.001-.004v.002Z"/><path d="M197.219 105.764c0 .996.149 3.53.389 3.495 1.737-.256 6.084-.205 6.6 0 .501.198-.032-3.538-.389-3.883-.515-.497-5.64.291-6.6.388Z" style="fill:#fff"/><path d="M203.919 110.104c.498.175 1.23.018 1.362-1.028.097-.774-.154-2.679-.428-3.567-.123-.401-.297-.664-.413-.775-.184-.178-.667-.389-1.385-.411-1.639-.051-5.142.473-5.926.552a.894.894 0 0 0-.803.889c0 .849.109 2.745.281 3.451.107.442.334.679.458.766a.901.901 0 0 0 .672.162c1.178-.173 3.593-.197 5.107-.13.486.021 1.019.085 1.075.091Zm.478-1.719Zm-1.257-2.274c.091.442.288 1.442.354 2.149-1.268-.091-3.664-.095-5.235.03a22.09 22.09 0 0 1-.128-1.742c1.392-.188 3.908-.533 5.009-.437Z"/><path d="M203.919 110.104c.498.175 1.23.018 1.362-1.028.097-.774-.154-2.679-.428-3.567-.123-.401-.297-.664-.413-.775-.184-.178-.667-.389-1.385-.411-1.639-.051-5.142.473-5.926.552a.894.894 0 0 0-.803.889c0 .849.109 2.745.281 3.451.107.442.334.679.458.766a.901.901 0 0 0 .672.162c1.178-.173 3.593-.197 5.107-.13.486.021 1.019.085 1.075.091Zm.478-1.719Zm-1.257-2.274c.091.442.288 1.442.354 2.149-1.268-.091-3.664-.095-5.235.03a22.09 22.09 0 0 1-.128-1.742c1.392-.188 3.908-.533 5.009-.437Z"/><path d="M203.892 110.222c.334.113.757.09 1.075-.192.209-.185.375-.483.433-.939.099-.784-.155-2.716-.432-3.617-.132-.429-.321-.708-.444-.827-.196-.188-.704-.42-1.465-.444-1.643-.051-5.156.474-5.942.553a1.013 1.013 0 0 0-.911 1.008c0 .856.111 2.768.284 3.479.117.484.37.741.506.837.247.173.504.219.759.181 1.172-.172 3.576-.195 5.083-.128.456.02.955.077 1.053.089h.001Zm.066-.231a.102.102 0 0 0-.025-.006c-.056-.007-.594-.07-1.084-.092-1.521-.067-3.947-.043-5.129.131a.78.78 0 0 1-.586-.141c-.113-.079-.314-.296-.411-.696-.17-.7-.277-2.581-.277-3.423 0-.397.3-.729.695-.769.782-.079 4.276-.603 5.91-.552.676.021 1.133.209 1.306.377.107.104.266.35.382.725.269.875.519 2.753.423 3.516-.048.381-.179.635-.354.789-.251.223-.588.233-.85.141Zm.535-1.451a.12.12 0 0 0 .155-.068.12.12 0 0 0-.067-.156 1.023 1.023 0 0 0-.159-.048.12.12 0 0 0-.054.234.92.92 0 0 1 .125.038Zm-6.377-2.111-.003.001a.12.12 0 0 0-.102.125v-.002c.023.573.066 1.249.129 1.752a.12.12 0 0 0 .129.105c1.565-.125 3.953-.121 5.217-.03a.123.123 0 0 0 .094-.036.12.12 0 0 0 .034-.095c-.067-.711-.265-1.718-.357-2.162a.119.119 0 0 0-.107-.095c-1.106-.097-3.635.248-5.034.437Zm.139.224c1.366-.185 3.679-.499 4.785-.429.09.441.249 1.264.32 1.907a43.414 43.414 0 0 0-4.995.031 22.834 22.834 0 0 1-.11-1.509Zm-.132.015h.002-.002Zm0 0Zm-.007-.001.003.001-.003-.001Zm-.006 0h.003-.003Zm-.006-.002.004.001-.004-.001Zm-.006-.001.004.001-.004-.001Zm-.005-.002.004.001-.004-.001Zm-.005-.002.003.002-.003-.002Zm-.006-.002.004.002-.004-.002Zm-.005-.002.004.001-.004-.001Zm-.005-.003.004.002-.004-.002Zm-.004-.003.003.002-.003-.002Zm-.003-.001h.001l-.003-.002.002.002Zm-.004-.003-.003-.002.003.002Zm-.005-.004.001.001-.003-.002.002.001Zm-.004-.003h.001l-.003-.002.002.002Zm-.004-.004v.001l-.002-.003.002.002Zm-.004-.004.001.001-.003-.003.002.002Zm-.004-.004.001.001-.003-.003.002.002Zm-.004-.005.001.001-.002-.002.001.001Zm-.003-.004.001.001-.002-.003.001.002Zm-.003-.005.001.001-.002-.003.001.002Zm-.003-.005.001.002-.002-.004.001.002Zm-.003-.005.001.002-.002-.004.001.002Zm-.002-.005v.002l-.001-.004.001.002Zm-.003-.005.001.002-.001-.004v.002Zm-.002-.005.001.001-.001-.003v.002Zm-.001-.006v.002l-.001-.004.001.002Zm-.002-.005.001.002-.001-.005v.003Zm-.001-.006v.002-.004.002Zm-.001-.006v.002-.004.002Zm-.001-.006.001.002-.001-.004v.002Z"/><path d="M197.459 115.844c0 .996.149 3.53.389 3.495 1.737-.256 6.084-.205 6.6 0 .501.198-.032-3.538-.389-3.883-.515-.497-5.64.291-6.6.388Z" style="fill:#fff"/><path d="M204.159 120.184c.498.175 1.23.018 1.362-1.028.097-.774-.154-2.679-.428-3.567-.123-.401-.297-.664-.413-.775-.184-.178-.667-.389-1.385-.411-1.639-.051-5.142.473-5.926.552a.894.894 0 0 0-.803.889c0 .849.109 2.745.281 3.451.107.442.334.679.458.766a.901.901 0 0 0 .672.162c1.178-.173 3.593-.197 5.107-.13.486.021 1.019.085 1.075.091Zm.478-1.719Zm-1.257-2.274c.091.442.288 1.442.354 2.149-1.268-.091-3.664-.095-5.235.03a22.09 22.09 0 0 1-.128-1.742c1.392-.188 3.908-.533 5.009-.437Z"/><path d="M204.159 120.184c.498.175 1.23.018 1.362-1.028.097-.774-.154-2.679-.428-3.567-.123-.401-.297-.664-.413-.775-.184-.178-.667-.389-1.385-.411-1.639-.051-5.142.473-5.926.552a.894.894 0 0 0-.803.889c0 .849.109 2.745.281 3.451.107.442.334.679.458.766a.901.901 0 0 0 .672.162c1.178-.173 3.593-.197 5.107-.13.486.021 1.019.085 1.075.091Zm.478-1.719Zm-1.257-2.274c.091.442.288 1.442.354 2.149-1.268-.091-3.664-.095-5.235.03a22.09 22.09 0 0 1-.128-1.742c1.392-.188 3.908-.533 5.009-.437Z"/><path d="M204.132 120.302c.334.113.757.09 1.075-.192.209-.185.375-.483.433-.939.099-.784-.155-2.716-.432-3.617-.132-.429-.321-.708-.444-.827-.196-.188-.704-.42-1.465-.444-1.643-.051-5.156.474-5.942.553a1.013 1.013 0 0 0-.911 1.008c0 .856.111 2.768.284 3.479.117.484.37.741.506.837.247.173.504.219.759.181 1.172-.172 3.576-.195 5.083-.128.456.02.955.077 1.053.089h.001Zm.066-.231a.102.102 0 0 0-.025-.006c-.056-.007-.594-.07-1.084-.092-1.521-.067-3.947-.043-5.129.131a.78.78 0 0 1-.586-.141c-.113-.079-.314-.296-.411-.696-.17-.7-.277-2.581-.277-3.423 0-.397.3-.729.695-.769.782-.079 4.276-.603 5.91-.552.676.021 1.133.209 1.306.377.107.104.266.35.382.725.269.875.519 2.753.423 3.516-.048.381-.179.635-.354.789-.251.223-.588.233-.85.141Zm.464-1.723a.12.12 0 0 0-.054.234.92.92 0 0 1 .125.038.12.12 0 0 0 .155-.068.12.12 0 0 0-.067-.156 1.023 1.023 0 0 0-.159-.048Zm-6.306-1.839-.003.001a.12.12 0 0 0-.102.125v-.002c.023.573.066 1.249.129 1.752a.12.12 0 0 0 .129.105c1.565-.125 3.953-.121 5.217-.03a.123.123 0 0 0 .094-.036.12.12 0 0 0 .034-.095c-.067-.711-.265-1.718-.357-2.162a.119.119 0 0 0-.107-.095c-1.106-.097-3.635.248-5.034.437Zm.139.224c1.366-.185 3.679-.499 4.785-.429.09.441.249 1.264.32 1.907a43.414 43.414 0 0 0-4.995.031 22.834 22.834 0 0 1-.11-1.509Zm-.132.015h.002-.002Zm0 0Zm-.007-.001.003.001-.003-.001Zm-.006 0h.003-.003Zm-.006-.002.004.001-.004-.001Zm-.006-.001.004.001-.004-.001Zm-.005-.002.004.001-.004-.001Zm-.005-.002.003.002-.003-.002Zm-.006-.002.004.002-.004-.002Zm-.005-.002.004.001-.004-.001Zm-.005-.003.004.002-.004-.002Zm-.004-.003.003.002-.003-.002Zm-.003-.001h.001l-.003-.002.002.002Zm-.004-.003-.003-.002.003.002Zm-.005-.004.001.001-.003-.002.002.001Zm-.004-.003h.001l-.003-.002.002.002Zm-.004-.004v.001l-.002-.003.002.002Zm-.004-.004.001.001-.003-.003.002.002Zm-.004-.004.001.001-.003-.003.002.002Zm-.004-.005.001.001-.002-.002.001.001Zm-.003-.004.001.001-.002-.003.001.002Zm-.003-.005.001.001-.002-.003.001.002Zm-.003-.005.001.002-.002-.004.001.002Zm-.003-.005.001.002-.002-.004.001.002Zm-.002-.005v.002l-.001-.004.001.002Zm-.003-.005.001.002-.001-.004v.002Zm-.002-.005.001.001-.001-.003v.002Zm-.001-.006v.002l-.001-.004.001.002Zm-.002-.005.001.002-.001-.005v.003Zm-.001-.006v.002-.004.002Zm-.001-.006v.002-.004.002Zm-.001-.006.001.002-.001-.004v.002Z"/><path d="M197.699 125.924c0 .996.149 3.53.389 3.495 1.737-.256 6.084-.205 6.6 0 .501.198-.032-3.538-.389-3.883-.515-.497-5.64.291-6.6.388Z" style="fill:#fff"/><path d="M204.399 130.264c.498.175 1.23.018 1.362-1.028.097-.774-.154-2.679-.428-3.567-.123-.401-.297-.664-.413-.775-.184-.178-.667-.389-1.385-.411-1.639-.051-5.142.473-5.926.552a.894.894 0 0 0-.803.889c0 .849.109 2.745.281 3.451.107.442.334.679.458.766a.901.901 0 0 0 .672.162c1.178-.173 3.593-.197 5.107-.13.486.021 1.019.085 1.075.091Zm.478-1.719Zm-1.257-2.274c.091.442.288 1.442.354 2.149-1.268-.091-3.664-.095-5.235.03a22.09 22.09 0 0 1-.128-1.742c1.392-.188 3.908-.533 5.009-.437Z"/><path d="M204.399 130.264c.498.175 1.23.018 1.362-1.028.097-.774-.154-2.679-.428-3.567-.123-.401-.297-.664-.413-.775-.184-.178-.667-.389-1.385-.411-1.639-.051-5.142.473-5.926.552a.894.894 0 0 0-.803.889c0 .849.109 2.745.281 3.451.107.442.334.679.458.766a.901.901 0 0 0 .672.162c1.178-.173 3.593-.197 5.107-.13.486.021 1.019.085 1.075.091Zm.478-1.719Zm-1.257-2.274c.091.442.288 1.442.354 2.149-1.268-.091-3.664-.095-5.235.03a22.09 22.09 0 0 1-.128-1.742c1.392-.188 3.908-.533 5.009-.437Z"/><path d="M204.372 130.382c.334.113.757.09 1.075-.192.209-.185.375-.483.433-.939.099-.784-.155-2.716-.432-3.617-.132-.429-.321-.708-.444-.827-.196-.188-.704-.42-1.465-.444-1.643-.051-5.156.474-5.942.553a1.013 1.013 0 0 0-.911 1.008c0 .856.111 2.768.284 3.479.117.484.37.741.506.837.247.173.504.219.759.181 1.172-.172 3.576-.195 5.083-.128.456.02.955.077 1.053.089h.001Zm.066-.231a.102.102 0 0 0-.025-.006c-.056-.007-.594-.07-1.084-.092-1.521-.067-3.947-.043-5.129.131a.78.78 0 0 1-.586-.141c-.113-.079-.314-.296-.411-.696-.17-.7-.277-2.581-.277-3.423 0-.397.3-.729.695-.769.782-.079 4.276-.603 5.91-.552.676.021 1.133.209 1.306.377.107.104.266.35.382.725.269.875.519 2.753.423 3.516-.048.381-.179.635-.354.789-.251.223-.588.233-.85.141Zm.623-1.675a1.023 1.023 0 0 0-.159-.048.12.12 0 0 0-.054.234.92.92 0 0 1 .125.038.12.12 0 0 0 .155-.068.12.12 0 0 0-.067-.156Zm-6.465-1.887-.003.001a.12.12 0 0 0-.102.125v-.002c.023.573.066 1.249.129 1.752a.12.12 0 0 0 .129.105c1.565-.125 3.953-.121 5.217-.03a.123.123 0 0 0 .094-.036.12.12 0 0 0 .034-.095c-.067-.711-.265-1.718-.357-2.162a.119.119 0 0 0-.107-.095c-1.106-.097-3.635.248-5.034.437Zm.139.224c1.366-.185 3.679-.499 4.785-.429.09.441.249 1.264.32 1.907a43.414 43.414 0 0 0-4.995.031 22.834 22.834 0 0 1-.11-1.509Zm-.132.015h.002-.002Zm0 0Zm-.007-.001.003.001-.003-.001Zm-.006 0h.003-.003Zm-.006-.002.004.001-.004-.001Zm-.006-.001.004.001-.004-.001Zm-.005-.002.004.001-.004-.001Zm-.005-.002.003.002-.003-.002Zm-.006-.002.004.002-.004-.002Zm-.005-.002.004.001-.004-.001Zm-.005-.003.004.002-.004-.002Zm-.004-.003.003.002-.003-.002Zm-.003-.001h.001l-.003-.002.002.002Zm-.004-.003-.003-.002.003.002Zm-.005-.004.001.001-.003-.002.002.001Zm-.004-.003h.001l-.003-.002.002.002Zm-.004-.004v.001l-.002-.003.002.002Zm-.004-.004.001.001-.003-.003.002.002Zm-.004-.004.001.001-.003-.003.002.002Zm-.004-.005.001.001-.002-.002.001.001Zm-.003-.004.001.001-.002-.003.001.002Zm-.003-.005.001.001-.002-.003.001.002Zm-.003-.005.001.002-.002-.004.001.002Zm-.003-.005.001.002-.002-.004.001.002Zm-.002-.005v.002l-.001-.004.001.002Zm-.003-.005.001.002-.001-.004v.002Zm-.002-.005.001.001-.001-.003v.002Zm-.001-.006v.002l-.001-.004.001.002Zm-.002-.005.001.002-.001-.005v.003Zm-.001-.006v.002-.004.002Zm-.001-.006v.002-.004.002Zm-.001-.006.001.002-.001-.004v.002Z"/><path d="M197.939 136.004c0 .996.149 3.53.389 3.495 1.737-.256 6.084-.205 6.6 0 .501.198-.032-3.538-.389-3.883-.515-.497-5.64.291-6.6.388Z" style="fill:#fff"/><path d="M204.639 140.344c.498.175 1.23.018 1.362-1.028.097-.774-.154-2.679-.428-3.567-.123-.401-.297-.664-.413-.775-.184-.178-.667-.389-1.385-.411-1.639-.051-5.142.473-5.926.552a.894.894 0 0 0-.803.889c0 .849.109 2.745.281 3.451.107.442.334.679.458.766a.901.901 0 0 0 .672.162c1.178-.173 3.593-.197 5.107-.13.486.021 1.019.085 1.075.091Zm.478-1.719Zm-1.257-2.274c.091.442.288 1.442.354 2.149-1.268-.091-3.664-.095-5.235.03a22.09 22.09 0 0 1-.128-1.742c1.392-.188 3.908-.533 5.009-.437Z"/><path d="M204.639 140.344c.498.175 1.23.018 1.362-1.028.097-.774-.154-2.679-.428-3.567-.123-.401-.297-.664-.413-.775-.184-.178-.667-.389-1.385-.411-1.639-.051-5.142.473-5.926.552a.894.894 0 0 0-.803.889c0 .849.109 2.745.281 3.451.107.442.334.679.458.766a.901.901 0 0 0 .672.162c1.178-.173 3.593-.197 5.107-.13.486.021 1.019.085 1.075.091Zm.478-1.719Zm-1.257-2.274c.091.442.288 1.442.354 2.149-1.268-.091-3.664-.095-5.235.03a22.09 22.09 0 0 1-.128-1.742c1.392-.188 3.908-.533 5.009-.437Z"/><path d="M204.612 140.462c.334.113.757.09 1.075-.192.209-.185.375-.483.433-.939.099-.784-.155-2.716-.432-3.617-.132-.429-.321-.708-.444-.827-.196-.188-.704-.42-1.465-.444-1.643-.051-5.156.474-5.942.553a1.013 1.013 0 0 0-.911 1.008c0 .856.111 2.768.284 3.479.117.484.37.741.506.837.247.173.504.219.759.181 1.172-.172 3.576-.195 5.083-.128.456.02.955.077 1.053.089h.001Zm.066-.231a.102.102 0 0 0-.025-.006c-.056-.007-.594-.07-1.084-.092-1.521-.067-3.947-.043-5.129.131a.78.78 0 0 1-.586-.141c-.113-.079-.314-.296-.411-.696-.17-.7-.277-2.581-.277-3.423 0-.397.3-.729.695-.769.782-.079 4.276-.603 5.91-.552.676.021 1.133.209 1.306.377.107.104.266.35.382.725.269.875.519 2.753.423 3.516-.048.381-.179.635-.354.789-.251.223-.588.233-.85.141Zm.623-1.675a1.023 1.023 0 0 0-.159-.048.12.12 0 0 0-.054.234.92.92 0 0 1 .125.038.12.12 0 0 0 .155-.068.12.12 0 0 0-.067-.156Zm-6.465-1.887-.003.001a.12.12 0 0 0-.102.125v-.002c.023.573.066 1.249.129 1.752a.12.12 0 0 0 .129.105c1.565-.125 3.953-.121 5.217-.03a.123.123 0 0 0 .094-.036.12.12 0 0 0 .034-.095c-.067-.711-.265-1.718-.357-2.162a.119.119 0 0 0-.107-.095c-1.106-.097-3.635.248-5.034.437Zm.139.224c1.366-.185 3.679-.499 4.785-.429.09.441.249 1.264.32 1.907a43.414 43.414 0 0 0-4.995.031 22.834 22.834 0 0 1-.11-1.509Zm-.132.015h.002-.002Zm0 0Zm-.007-.001.003.001-.003-.001Zm-.006 0h.003-.003Zm-.006-.002.004.001-.004-.001Zm-.006-.001.004.001-.004-.001Zm-.005-.002.004.001-.004-.001Zm-.005-.002.003.002-.003-.002Zm-.006-.002.004.002-.004-.002Zm-.005-.002.004.001-.004-.001Zm-.005-.003.004.002-.004-.002Zm-.004-.003.003.002-.003-.002Zm-.003-.001h.001l-.003-.002.002.002Zm-.004-.003-.003-.002.003.002Zm-.005-.004.001.001-.003-.002.002.001Zm-.004-.003h.001l-.003-.002.002.002Zm-.004-.004v.001l-.002-.003.002.002Zm-.004-.004.001.001-.003-.003.002.002Zm-.004-.004.001.001-.003-.003.002.002Zm-.004-.005.001.001-.002-.002.001.001Zm-.003-.004.001.001-.002-.003.001.002Zm-.003-.005.001.001-.002-.003.001.002Zm-.003-.005.001.002-.002-.004.001.002Zm-.003-.005.001.002-.002-.004.001.002Zm-.002-.005v.002l-.001-.004.001.002Zm-.003-.005.001.002-.001-.004v.002Zm-.002-.005.001.001-.001-.003v.002Zm-.001-.006v.002l-.001-.004.001.002Zm-.002-.005.001.002-.001-.005v.003Zm-.001-.006v.002-.004.002Zm-.001-.006v.002-.004.002Zm-.001-.006.001.002-.001-.004v.002Z"/><path d="M210.179 95.204c0 .996.149 3.53.389 3.495 1.737-.256 6.084-.205 6.6 0 .501.198-.032-3.538-.389-3.883-.515-.497-5.64.291-6.6.388Z" style="fill:#fff"/><path d="M216.879 99.544c.498.175 1.23.018 1.362-1.028.097-.774-.154-2.679-.428-3.567-.123-.401-.297-.664-.413-.775-.184-.178-.667-.389-1.385-.411-1.639-.051-5.142.473-5.926.552a.894.894 0 0 0-.803.889c0 .849.109 2.745.281 3.451.107.442.334.679.458.766a.901.901 0 0 0 .672.162c1.178-.173 3.593-.197 5.107-.13.486.021 1.019.085 1.075.091Zm.478-1.719Zm-1.257-2.274c.091.442.288 1.442.354 2.149-1.268-.091-3.664-.095-5.235.03a22.09 22.09 0 0 1-.128-1.742c1.392-.188 3.908-.533 5.009-.437Z"/><path d="M216.879 99.544c.498.175 1.23.018 1.362-1.028.097-.774-.154-2.679-.428-3.567-.123-.401-.297-.664-.413-.775-.184-.178-.667-.389-1.385-.411-1.639-.051-5.142.473-5.926.552a.894.894 0 0 0-.803.889c0 .849.109 2.745.281 3.451.107.442.334.679.458.766a.901.901 0 0 0 .672.162c1.178-.173 3.593-.197 5.107-.13.486.021 1.019.085 1.075.091Zm.478-1.719Zm-1.257-2.274c.091.442.288 1.442.354 2.149-1.268-.091-3.664-.095-5.235.03a22.09 22.09 0 0 1-.128-1.742c1.392-.188 3.908-.533 5.009-.437Z"/><path d="M216.852 99.662c.334.113.757.09 1.075-.192.209-.185.375-.483.433-.939.099-.784-.155-2.716-.432-3.617-.132-.429-.321-.708-.444-.827-.196-.188-.704-.42-1.465-.444-1.643-.051-5.156.474-5.942.553a1.013 1.013 0 0 0-.911 1.008c0 .856.111 2.768.284 3.479.117.484.37.741.506.837.247.173.504.219.759.181 1.172-.172 3.576-.195 5.083-.128.456.02.955.077 1.053.089h.001Zm.066-.231a.102.102 0 0 0-.025-.006c-.056-.007-.594-.07-1.084-.092-1.521-.067-3.947-.043-5.129.131a.78.78 0 0 1-.586-.141c-.113-.079-.314-.296-.411-.696-.17-.7-.277-2.581-.277-3.423 0-.397.3-.729.695-.769.782-.079 4.276-.603 5.91-.552.676.021 1.133.209 1.306.377.107.104.266.35.382.725.269.875.519 2.753.423 3.516-.048.381-.179.635-.354.789-.251.223-.588.233-.85.141Zm.464-1.723a.12.12 0 0 0-.054.234.92.92 0 0 1 .125.038.12.12 0 0 0 .155-.068.12.12 0 0 0-.067-.156 1.023 1.023 0 0 0-.159-.048Zm-6.306-1.839-.003.001a.12.12 0 0 0-.102.125v-.002c.023.573.066 1.249.129 1.752a.12.12 0 0 0 .129.105c1.565-.125 3.953-.121 5.217-.03a.123.123 0 0 0 .094-.036.12.12 0 0 0 .034-.095c-.067-.711-.265-1.718-.357-2.162a.119.119 0 0 0-.107-.095c-1.106-.097-3.635.248-5.034.437Zm.139.224c1.366-.185 3.679-.499 4.785-.429.09.441.249 1.264.32 1.907a43.414 43.414 0 0 0-4.995.031 22.834 22.834 0 0 1-.11-1.509Zm-.132.015h.002-.002Zm0 0Zm-.007-.001.003.001-.003-.001Zm-.006 0h.003-.003Zm-.006-.002.004.001-.004-.001Zm-.006-.001.004.001-.004-.001Zm-.005-.002.004.001-.004-.001Zm-.005-.002.003.002-.003-.002Zm-.006-.002.004.002-.004-.002Zm-.005-.002.004.001-.004-.001Zm-.005-.003.004.002-.004-.002Zm-.004-.003.003.002-.003-.002Zm-.003-.001h.001l-.003-.002.002.002Zm-.004-.003-.003-.002.003.002Zm-.005-.004.001.001-.003-.002.002.001Zm-.004-.003h.001l-.003-.002.002.002Zm-.004-.004v.001l-.002-.003.002.002Zm-.004-.004.001.001-.003-.003.002.002Zm-.004-.004.001.001-.003-.003.002.002Zm-.004-.005.001.001-.002-.002.001.001Zm-.003-.004.001.001-.002-.003.001.002Zm-.003-.005.001.001-.002-.003.001.002Zm-.003-.005.001.002-.002-.004.001.002Zm-.003-.005.001.002-.002-.004.001.002Zm-.002-.005v.002l-.001-.004.001.002Zm-.003-.005.001.002-.001-.004v.002Zm-.002-.005.001.001-.001-.003v.002Zm-.001-.006v.002l-.001-.004.001.002Zm-.002-.005.001.002-.001-.005v.003Zm-.001-.006v.002-.004.002Zm-.001-.006v.002-.004.002Zm-.001-.006.001.002-.001-.004v.002Z"/><path d="M210.179 105.044c0 .996.149 3.53.389 3.495 1.737-.256 6.084-.205 6.6 0 .501.198-.032-3.538-.389-3.883-.515-.497-5.64.291-6.6.388Z" style="fill:#fff"/><path d="M216.879 109.384c.498.175 1.23.018 1.362-1.028.097-.774-.154-2.679-.428-3.567-.123-.401-.297-.664-.413-.775-.184-.178-.667-.389-1.385-.411-1.639-.051-5.142.473-5.926.552a.894.894 0 0 0-.803.889c0 .849.109 2.745.281 3.451.107.442.334.679.458.766a.901.901 0 0 0 .672.162c1.178-.173 3.593-.197 5.107-.13.486.021 1.019.085 1.075.091Zm.478-1.719Zm-1.257-2.274c.091.442.288 1.442.354 2.149-1.268-.091-3.664-.095-5.235.03a22.09 22.09 0 0 1-.128-1.742c1.392-.188 3.908-.533 5.009-.437Z"/><path d="M216.879 109.384c.498.175 1.23.018 1.362-1.028.097-.774-.154-2.679-.428-3.567-.123-.401-.297-.664-.413-.775-.184-.178-.667-.389-1.385-.411-1.639-.051-5.142.473-5.926.552a.894.894 0 0 0-.803.889c0 .849.109 2.745.281 3.451.107.442.334.679.458.766a.901.901 0 0 0 .672.162c1.178-.173 3.593-.197 5.107-.13.486.021 1.019.085 1.075.091Zm.478-1.719Zm-1.257-2.274c.091.442.288 1.442.354 2.149-1.268-.091-3.664-.095-5.235.03a22.09 22.09 0 0 1-.128-1.742c1.392-.188 3.908-.533 5.009-.437Z"/><path d="M216.852 109.502c.334.113.757.09 1.075-.192.209-.185.375-.483.433-.939.099-.784-.155-2.716-.432-3.617-.132-.429-.321-.708-.444-.827-.196-.188-.704-.42-1.465-.444-1.643-.051-5.156.474-5.942.553a1.013 1.013 0 0 0-.911 1.008c0 .856.111 2.768.284 3.479.117.484.37.741.506.837.247.173.504.219.759.181 1.172-.172 3.576-.195 5.083-.128.456.02.955.077 1.053.089h.001Zm.066-.231a.102.102 0 0 0-.025-.006c-.056-.007-.594-.07-1.084-.092-1.521-.067-3.947-.043-5.129.131a.78.78 0 0 1-.586-.141c-.113-.079-.314-.296-.411-.696-.17-.7-.277-2.581-.277-3.423 0-.397.3-.729.695-.769.782-.079 4.276-.603 5.91-.552.676.021 1.133.209 1.306.377.107.104.266.35.382.725.269.875.519 2.753.423 3.516-.048.381-.179.635-.354.789-.251.223-.588.233-.85.141Zm.623-1.675a1.023 1.023 0 0 0-.159-.048.12.12 0 0 0-.054.234.92.92 0 0 1 .125.038.12.12 0 0 0 .155-.068.12.12 0 0 0-.067-.156Zm-6.465-1.887-.003.001a.12.12 0 0 0-.102.125v-.002c.023.573.066 1.249.129 1.752a.12.12 0 0 0 .129.105c1.565-.125 3.953-.121 5.217-.03a.123.123 0 0 0 .094-.036.12.12 0 0 0 .034-.095c-.067-.711-.265-1.718-.357-2.162a.119.119 0 0 0-.107-.095c-1.106-.097-3.635.248-5.034.437Zm.139.224c1.366-.185 3.679-.499 4.785-.429.09.441.249 1.264.32 1.907a43.414 43.414 0 0 0-4.995.031 22.834 22.834 0 0 1-.11-1.509Zm-.132.015h.002-.002Zm0 0Zm-.007-.001.003.001-.003-.001Zm-.006 0h.003-.003Zm-.006-.002.004.001-.004-.001Zm-.006-.001.004.001-.004-.001Zm-.005-.002.004.001-.004-.001Zm-.005-.002.003.002-.003-.002Zm-.006-.002.004.002-.004-.002Zm-.005-.002.004.001-.004-.001Zm-.005-.003.004.002-.004-.002Zm-.004-.003.003.002-.003-.002Zm-.003-.001h.001l-.003-.002.002.002Zm-.004-.003-.003-.002.003.002Zm-.005-.004.001.001-.003-.002.002.001Zm-.004-.003h.001l-.003-.002.002.002Zm-.004-.004v.001l-.002-.003.002.002Zm-.004-.004.001.001-.003-.003.002.002Zm-.004-.004.001.001-.003-.003.002.002Zm-.004-.005.001.001-.002-.002.001.001Zm-.003-.004.001.001-.002-.003.001.002Zm-.003-.005.001.001-.002-.003.001.002Zm-.003-.005.001.002-.002-.004.001.002Zm-.003-.005.001.002-.002-.004.001.002Zm-.002-.005v.002l-.001-.004.001.002Zm-.003-.005.001.002-.001-.004v.002Zm-.002-.005.001.001-.001-.003v.002Zm-.001-.006v.002l-.001-.004.001.002Zm-.002-.005.001.002-.001-.005v.003Zm-.001-.006v.002-.004.002Zm-.001-.006v.002-.004.002Zm-.001-.006.001.002-.001-.004v.002Z"/><path d="M210.179 114.884c0 .996.149 3.53.389 3.495 1.737-.256 6.084-.205 6.6 0 .501.198-.032-3.538-.389-3.883-.515-.497-5.64.291-6.6.388Z" style="fill:#fff"/><path d="M216.879 119.224c.498.175 1.23.018 1.362-1.028.097-.774-.154-2.679-.428-3.567-.123-.401-.297-.664-.413-.775-.184-.178-.667-.389-1.385-.411-1.639-.051-5.142.473-5.926.552a.894.894 0 0 0-.803.889c0 .849.109 2.745.281 3.451.107.442.334.679.458.766a.901.901 0 0 0 .672.162c1.178-.173 3.593-.197 5.107-.13.486.021 1.019.085 1.075.091Zm.478-1.719Zm-1.257-2.274c.091.442.288 1.442.354 2.149-1.268-.091-3.664-.095-5.235.03a22.09 22.09 0 0 1-.128-1.742c1.392-.188 3.908-.533 5.009-.437Z"/><path d="M216.879 119.224c.498.175 1.23.018 1.362-1.028.097-.774-.154-2.679-.428-3.567-.123-.401-.297-.664-.413-.775-.184-.178-.667-.389-1.385-.411-1.639-.051-5.142.473-5.926.552a.894.894 0 0 0-.803.889c0 .849.109 2.745.281 3.451.107.442.334.679.458.766a.901.901 0 0 0 .672.162c1.178-.173 3.593-.197 5.107-.13.486.021 1.019.085 1.075.091Zm.478-1.719Zm-1.257-2.274c.091.442.288 1.442.354 2.149-1.268-.091-3.664-.095-5.235.03a22.09 22.09 0 0 1-.128-1.742c1.392-.188 3.908-.533 5.009-.437Z"/><path d="M216.852 119.342c.334.113.757.09 1.075-.192.209-.185.375-.483.433-.939.099-.784-.155-2.716-.432-3.617-.132-.429-.321-.708-.444-.827-.196-.188-.704-.42-1.465-.444-1.643-.051-5.156.474-5.942.553a1.013 1.013 0 0 0-.911 1.008c0 .856.111 2.768.284 3.479.117.484.37.741.506.837.247.173.504.219.759.181 1.172-.172 3.576-.195 5.083-.128.456.02.955.077 1.053.089h.001Zm.066-.231a.102.102 0 0 0-.025-.006c-.056-.007-.594-.07-1.084-.092-1.521-.067-3.947-.043-5.129.131a.78.78 0 0 1-.586-.141c-.113-.079-.314-.296-.411-.696-.17-.7-.277-2.581-.277-3.423 0-.397.3-.729.695-.769.782-.079 4.276-.603 5.91-.552.676.021 1.133.209 1.306.377.107.104.266.35.382.725.269.875.519 2.753.423 3.516-.048.381-.179.635-.354.789-.251.223-.588.233-.85.141Zm.535-1.451a.12.12 0 0 0 .155-.068.12.12 0 0 0-.067-.156 1.023 1.023 0 0 0-.159-.048.12.12 0 0 0-.054.234.92.92 0 0 1 .125.038Zm-6.377-2.111-.003.001a.12.12 0 0 0-.102.125v-.002c.023.573.066 1.249.129 1.752a.12.12 0 0 0 .129.105c1.565-.125 3.953-.121 5.217-.03a.123.123 0 0 0 .094-.036.12.12 0 0 0 .034-.095c-.067-.711-.265-1.718-.357-2.162a.119.119 0 0 0-.107-.095c-1.106-.097-3.635.248-5.034.437Zm.139.224c1.366-.185 3.679-.499 4.785-.429.09.441.249 1.264.32 1.907a43.414 43.414 0 0 0-4.995.031 22.834 22.834 0 0 1-.11-1.509Zm-.132.015h.002-.002Zm0 0Zm-.007-.001.003.001-.003-.001Zm-.006 0h.003-.003Zm-.006-.002.004.001-.004-.001Zm-.006-.001.004.001-.004-.001Zm-.005-.002.004.001-.004-.001Zm-.005-.002.003.002-.003-.002Zm-.006-.002.004.002-.004-.002Zm-.005-.002.004.001-.004-.001Zm-.005-.003.004.002-.004-.002Zm-.004-.003.003.002-.003-.002Zm-.003-.001h.001l-.003-.002.002.002Zm-.004-.003-.003-.002.003.002Zm-.005-.004.001.001-.003-.002.002.001Zm-.004-.003h.001l-.003-.002.002.002Zm-.004-.004v.001l-.002-.003.002.002Zm-.004-.004.001.001-.003-.003.002.002Zm-.004-.004.001.001-.003-.003.002.002Zm-.004-.005.001.001-.002-.002.001.001Zm-.003-.004.001.001-.002-.003.001.002Zm-.003-.005.001.001-.002-.003.001.002Zm-.003-.005.001.002-.002-.004.001.002Zm-.003-.005.001.002-.002-.004.001.002Zm-.002-.005v.002l-.001-.004.001.002Zm-.003-.005.001.002-.001-.004v.002Zm-.002-.005.001.001-.001-.003v.002Zm-.001-.006v.002l-.001-.004.001.002Zm-.002-.005.001.002-.001-.005v.003Zm-.001-.006v.002-.004.002Zm-.001-.006v.002-.004.002Zm-.001-.006.001.002-.001-.004v.002Z"/><path d="M210.179 124.724c0 .996.149 3.53.389 3.495 1.737-.256 6.084-.205 6.6 0 .501.198-.032-3.538-.389-3.883-.515-.497-5.64.291-6.6.388Z" style="fill:#fff"/><path d="M216.879 129.064c.498.175 1.23.018 1.362-1.028.097-.774-.154-2.679-.428-3.567-.123-.401-.297-.664-.413-.775-.184-.178-.667-.389-1.385-.411-1.639-.051-5.142.473-5.926.552a.894.894 0 0 0-.803.889c0 .849.109 2.745.281 3.451.107.442.334.679.458.766a.901.901 0 0 0 .672.162c1.178-.173 3.593-.197 5.107-.13.486.021 1.019.085 1.075.091Zm.478-1.719Zm-1.257-2.274c.091.442.288 1.442.354 2.149-1.268-.091-3.664-.095-5.235.03a22.09 22.09 0 0 1-.128-1.742c1.392-.188 3.908-.533 5.009-.437Z"/><path d="M216.879 129.064c.498.175 1.23.018 1.362-1.028.097-.774-.154-2.679-.428-3.567-.123-.401-.297-.664-.413-.775-.184-.178-.667-.389-1.385-.411-1.639-.051-5.142.473-5.926.552a.894.894 0 0 0-.803.889c0 .849.109 2.745.281 3.451.107.442.334.679.458.766a.901.901 0 0 0 .672.162c1.178-.173 3.593-.197 5.107-.13.486.021 1.019.085 1.075.091Zm.478-1.719Zm-1.257-2.274c.091.442.288 1.442.354 2.149-1.268-.091-3.664-.095-5.235.03a22.09 22.09 0 0 1-.128-1.742c1.392-.188 3.908-.533 5.009-.437Z"/><path d="M216.852 129.182c.334.113.757.09 1.075-.192.209-.185.375-.483.433-.939.099-.784-.155-2.716-.432-3.617-.132-.429-.321-.708-.444-.827-.196-.188-.704-.42-1.465-.444-1.643-.051-5.156.474-5.942.553a1.013 1.013 0 0 0-.911 1.008c0 .856.111 2.768.284 3.479.117.484.37.741.506.837.247.173.504.219.759.181 1.172-.172 3.576-.195 5.083-.128.456.02.955.077 1.053.089h.001Zm.066-.231a.102.102 0 0 0-.025-.006c-.056-.007-.594-.07-1.084-.092-1.521-.067-3.947-.043-5.129.131a.78.78 0 0 1-.586-.141c-.113-.079-.314-.296-.411-.696-.17-.7-.277-2.581-.277-3.423 0-.397.3-.729.695-.769.782-.079 4.276-.603 5.91-.552.676.021 1.133.209 1.306.377.107.104.266.35.382.725.269.875.519 2.753.423 3.516-.048.381-.179.635-.354.789-.251.223-.588.233-.85.141Zm.464-1.723a.12.12 0 0 0-.054.234.92.92 0 0 1 .125.038.12.12 0 0 0 .155-.068.12.12 0 0 0-.067-.156 1.023 1.023 0 0 0-.159-.048Zm-6.306-1.839-.003.001a.12.12 0 0 0-.102.125v-.002c.023.573.066 1.249.129 1.752a.12.12 0 0 0 .129.105c1.565-.125 3.953-.121 5.217-.03a.123.123 0 0 0 .094-.036.12.12 0 0 0 .034-.095c-.067-.711-.265-1.718-.357-2.162a.119.119 0 0 0-.107-.095c-1.106-.097-3.635.248-5.034.437Zm.139.224c1.366-.185 3.679-.499 4.785-.429.09.441.249 1.264.32 1.907a43.414 43.414 0 0 0-4.995.031 22.834 22.834 0 0 1-.11-1.509Zm-.132.015h.002-.002Zm0 0Zm-.007-.001.003.001-.003-.001Zm-.006 0h.003-.003Zm-.006-.002.004.001-.004-.001Zm-.006-.001.004.001-.004-.001Zm-.005-.002.004.001-.004-.001Zm-.005-.002.003.002-.003-.002Zm-.006-.002.004.002-.004-.002Zm-.005-.002.004.001-.004-.001Zm-.005-.003.004.002-.004-.002Zm-.004-.003.003.002-.003-.002Zm-.003-.001h.001l-.003-.002.002.002Zm-.004-.003-.003-.002.003.002Zm-.005-.004.001.001-.003-.002.002.001Zm-.004-.003h.001l-.003-.002.002.002Zm-.004-.004v.001l-.002-.003.002.002Zm-.004-.004.001.001-.003-.003.002.002Zm-.004-.004.001.001-.003-.003.002.002Zm-.004-.005.001.001-.002-.002.001.001Zm-.003-.004.001.001-.002-.003.001.002Zm-.003-.005.001.001-.002-.003.001.002Zm-.003-.005.001.002-.002-.004.001.002Zm-.003-.005.001.002-.002-.004.001.002Zm-.002-.005v.002l-.001-.004.001.002Zm-.003-.005.001.002-.001-.004v.002Zm-.002-.005.001.001-.001-.003v.002Zm-.001-.006v.002l-.001-.004.001.002Zm-.002-.005.001.002-.001-.005v.003Zm-.001-.006v.002-.004.002Zm-.001-.006v.002-.004.002Zm-.001-.006.001.002-.001-.004v.002Z"/><path d="M210.179 134.564c0 .996.149 3.53.389 3.495 1.737-.256 6.084-.205 6.6 0 .501.198-.032-3.538-.389-3.883-.515-.497-5.64.291-6.6.388Z" style="fill:#fff"/><path d="M216.879 138.904c.498.175 1.23.018 1.362-1.028.097-.774-.154-2.679-.428-3.567-.123-.401-.297-.664-.413-.775-.184-.178-.667-.389-1.385-.411-1.639-.051-5.142.473-5.926.552a.894.894 0 0 0-.803.889c0 .849.109 2.745.281 3.451.107.442.334.679.458.766a.901.901 0 0 0 .672.162c1.178-.173 3.593-.197 5.107-.13.486.021 1.019.085 1.075.091Zm.478-1.719Zm-1.257-2.274c.091.442.288 1.442.354 2.149-1.268-.091-3.664-.095-5.235.03a22.09 22.09 0 0 1-.128-1.742c1.392-.188 3.908-.533 5.009-.437Z"/><path d="M216.879 138.904c.498.175 1.23.018 1.362-1.028.097-.774-.154-2.679-.428-3.567-.123-.401-.297-.664-.413-.775-.184-.178-.667-.389-1.385-.411-1.639-.051-5.142.473-5.926.552a.894.894 0 0 0-.803.889c0 .849.109 2.745.281 3.451.107.442.334.679.458.766a.901.901 0 0 0 .672.162c1.178-.173 3.593-.197 5.107-.13.486.021 1.019.085 1.075.091Zm.478-1.719Zm-1.257-2.274c.091.442.288 1.442.354 2.149-1.268-.091-3.664-.095-5.235.03a22.09 22.09 0 0 1-.128-1.742c1.392-.188 3.908-.533 5.009-.437Z"/><path d="M216.852 139.022c.334.113.757.09 1.075-.192.209-.185.375-.483.433-.939.099-.784-.155-2.716-.432-3.617-.132-.429-.321-.708-.444-.827-.196-.188-.704-.42-1.465-.444-1.643-.051-5.156.474-5.942.553a1.013 1.013 0 0 0-.911 1.008c0 .856.111 2.768.284 3.479.117.484.37.741.506.837.247.173.504.219.759.181 1.172-.172 3.576-.195 5.083-.128.456.02.955.077 1.053.089h.001Zm.066-.231a.102.102 0 0 0-.025-.006c-.056-.007-.594-.07-1.084-.092-1.521-.067-3.947-.043-5.129.131a.78.78 0 0 1-.586-.141c-.113-.079-.314-.296-.411-.696-.17-.7-.277-2.581-.277-3.423 0-.397.3-.729.695-.769.782-.079 4.276-.603 5.91-.552.676.021 1.133.209 1.306.377.107.104.266.35.382.725.269.875.519 2.753.423 3.516-.048.381-.179.635-.354.789-.251.223-.588.233-.85.141Zm.535-1.451a.12.12 0 0 0 .155-.068.12.12 0 0 0-.067-.156 1.023 1.023 0 0 0-.159-.048.12.12 0 0 0-.054.234.92.92 0 0 1 .125.038Zm-6.377-2.111-.003.001a.12.12 0 0 0-.102.125v-.002c.023.573.066 1.249.129 1.752a.12.12 0 0 0 .129.105c1.565-.125 3.953-.121 5.217-.03a.123.123 0 0 0 .094-.036.12.12 0 0 0 .034-.095c-.067-.711-.265-1.718-.357-2.162a.119.119 0 0 0-.107-.095c-1.106-.097-3.635.248-5.034.437Zm.139.224c1.366-.185 3.679-.499 4.785-.429.09.441.249 1.264.32 1.907a43.414 43.414 0 0 0-4.995.031 22.834 22.834 0 0 1-.11-1.509Zm-.132.015h.002-.002Zm0 0Zm-.007-.001.003.001-.003-.001Zm-.006 0h.003-.003Zm-.006-.002.004.001-.004-.001Zm-.006-.001.004.001-.004-.001Zm-.005-.002.004.001-.004-.001Zm-.005-.002.003.002-.003-.002Zm-.006-.002.004.002-.004-.002Zm-.005-.002.004.001-.004-.001Zm-.005-.003.004.002-.004-.002Zm-.004-.003.003.002-.003-.002Zm-.003-.001h.001l-.003-.002.002.002Zm-.004-.003-.003-.002.003.002Zm-.005-.004.001.001-.003-.002.002.001Zm-.004-.003h.001l-.003-.002.002.002Zm-.004-.004v.001l-.002-.003.002.002Zm-.004-.004.001.001-.003-.003.002.002Zm-.004-.004.001.001-.003-.003.002.002Zm-.004-.005.001.001-.002-.002.001.001Zm-.003-.004.001.001-.002-.003.001.002Zm-.003-.005.001.001-.002-.003.001.002Zm-.003-.005.001.002-.002-.004.001.002Zm-.003-.005.001.002-.002-.004.001.002Zm-.002-.005v.002l-.001-.004.001.002Zm-.003-.005.001.002-.001-.004v.002Zm-.002-.005.001.001-.001-.003v.002Zm-.001-.006v.002l-.001-.004.001.002Zm-.002-.005.001.002-.001-.005v.003Zm-.001-.006v.002-.004.002Zm-.001-.006v.002-.004.002Zm-.001-.006.001.002-.001-.004v.002Z"/><path d="M16.056 69.672c9.072-4.536 20.89-6.563 31.06-11.647.515-.258 2.34-1.543 2.718-1.165 2.761 2.761 1.073 45.87 1.073 53.197 0 2.977-.342 19.163.48 24.064.368 2.194 2.414 47.514 2.414 47.514s-20.08-8.469-21.735-9.297c-6.024-3.012-9.58-2.281-13.68-6.381-.151-.151-1.941-85.442-1.941-92.791 0-1.553-.389-3.494-.389-3.494Z" style="fill:#fff"/><path d="M15.657 68.873a.892.892 0 0 0-.477.974s.371 1.844.371 3.319c0 6.616 1.45 76.383 1.851 90.38.041 1.436.073 2.3.09 2.47.038.382.231.541.262.573 2.17 2.17 4.192 3.068 6.472 3.816 2.12.695 4.478 1.251 7.441 2.733 1.659.829 21.787 9.32 21.787 9.32a.891.891 0 0 0 1.24-.863s-2.057-45.422-2.426-47.622c-.816-4.871-.468-20.958-.468-23.916 0-5.87 1.08-34.674.097-47.377-.179-2.306-.431-4.1-.759-5.166-.191-.625-.437-1.051-.672-1.286-.244-.244-.65-.407-1.196-.291-.735.156-2.107 1.065-2.553 1.288-10.17 5.085-21.989 7.112-31.06 11.648Zm33.721-11.045c.056.17.107.386.167.638.243 1.015.427 2.509.57 4.352.98 12.666-.102 41.386-.102 47.239 0 2.995-.334 19.28.493 24.212.328 1.957 1.99 38.32 2.339 45.993-4.472-1.889-18.984-8.025-20.379-8.723-3.061-1.53-5.493-2.114-7.683-2.832-1.944-.638-3.684-1.386-5.524-3.147-.016-.384-.044-1.136-.071-2.065-.4-13.99-1.85-83.717-1.85-90.329 0-1.042-.165-2.251-.285-2.988 8.989-4.332 20.515-6.38 30.463-11.354a124.87 124.87 0 0 0 1.862-.996Z" style="fill:#fff"/><path d="M15.657 68.873a.892.892 0 0 0-.477.974s.371 1.844.371 3.319c0 6.616 1.45 76.383 1.851 90.38.041 1.436.073 2.3.09 2.47.038.382.231.541.262.573 2.17 2.17 4.192 3.068 6.472 3.816 2.12.695 4.478 1.251 7.441 2.733 1.659.829 21.787 9.32 21.787 9.32a.891.891 0 0 0 1.24-.863s-2.057-45.422-2.426-47.622c-.816-4.871-.468-20.958-.468-23.916 0-5.87 1.08-34.674.097-47.377-.179-2.306-.431-4.1-.759-5.166-.191-.625-.437-1.051-.672-1.286-.244-.244-.65-.407-1.196-.291-.735.156-2.107 1.065-2.553 1.288-10.17 5.085-21.989 7.112-31.06 11.648Zm33.721-11.045c.056.17.107.386.167.638.243 1.015.427 2.509.57 4.352.98 12.666-.102 41.386-.102 47.239 0 2.995-.334 19.28.493 24.212.328 1.957 1.99 38.32 2.339 45.993-4.472-1.889-18.984-8.025-20.379-8.723-3.061-1.53-5.493-2.114-7.683-2.832-1.944-.638-3.684-1.386-5.524-3.147-.016-.384-.044-1.136-.071-2.065-.4-13.99-1.85-83.717-1.85-90.329 0-1.042-.165-2.251-.285-2.988 8.989-4.332 20.515-6.38 30.463-11.354a124.87 124.87 0 0 0 1.862-.996Z"/><path d="M84.439 154.945c2.91 2.599 63.959.312 68.04-3.784 3.535-3.547-74.674-2.141-68.04 3.784Z" style="fill:#fff"/><path d="M83.843 155.611c.17.152.45.314.855.446.623.201 1.651.375 3.015.507 4.28.414 12.054.475 20.781.245 13.064-.345 28.268-1.338 37.057-2.748 2.711-.434 4.827-.915 6.114-1.421.683-.269 1.165-.565 1.447-.848.32-.321.399-.657.373-.956a1.153 1.153 0 0 0-.309-.685c-.18-.198-.523-.423-1.056-.596-2.746-.893-12.581-1.306-23.983-1.194-17.036.167-37.577 1.486-43.06 3.825-1.192.509-1.782 1.179-1.901 1.757-.107.521.038 1.106.667 1.668Zm66.938-4.547a8.26 8.26 0 0 1-.304.103c-1.23.402-3.014.778-5.209 1.13-8.733 1.4-23.84 2.383-36.821 2.725-8.635.228-16.327.173-20.562-.237-1.035-.1-1.853-.219-2.414-.364a4.182 4.182 0 0 1-.448-.156 2.85 2.85 0 0 1 .429-.284c.656-.332 1.637-.635 2.881-.923 7.738-1.791 25.106-2.766 39.821-2.91 9.787-.096 18.398.173 22.202.83.144.025.287.054.425.086ZM15.603 68.765c-.409.205-.63.658-.54 1.106 0 0 .368 1.83.368 3.295 0 6.616 1.45 76.386 1.851 90.384.041 1.441.073 2.308.09 2.478.043.431.262.61.297.646 2.186 2.186 4.223 3.092 6.52 3.845 2.115.693 4.467 1.248 7.424 2.726 1.66.83 21.794 9.324 21.794 9.324a1.015 1.015 0 0 0 1.407-.98s-2.059-45.436-2.428-47.636c-.815-4.867-.466-20.94-.466-23.896 0-5.871 1.08-34.68.096-47.386-.179-2.318-.434-4.121-.763-5.192-.199-.65-.458-1.091-.702-1.336-.267-.266-.709-.45-1.306-.323-.743.157-2.131 1.072-2.582 1.298-10.17 5.085-21.988 7.112-31.06 11.647Zm.108.215c9.071-4.536 20.889-6.562 31.059-11.647.442-.221 1.798-1.124 2.525-1.279.495-.105.865.038 1.086.259.226.226.459.636.643 1.236.325 1.061.576 2.846.753 5.141.983 12.7-.097 41.498-.097 47.367 0 2.961-.347 19.061.47 23.936.368 2.198 2.423 47.577 2.424 47.607a.774.774 0 0 1-1.073.748c-.015-.006-20.123-8.489-21.781-9.318-2.969-1.485-5.332-2.043-7.456-2.739-2.264-.742-4.271-1.633-6.425-3.787-.027-.027-.195-.167-.228-.5-.017-.169-.048-1.03-.089-2.461-.401-13.997-1.851-83.761-1.851-90.377 0-1.486-.373-3.342-.373-3.342a.773.773 0 0 1 .412-.844h.001Zm33.781-11.19a.122.122 0 0 0-.07-.074.12.12 0 0 0-.101.006c-.502.273-1.574.852-1.859.994-9.948 4.974-21.473 7.022-30.461 11.354a.119.119 0 0 0-.066.127c.118.732.283 1.934.283 2.969 0 6.613 1.45 76.342 1.85 90.332.027.93.055 1.683.071 2.067.001.031.014.06.037.082 1.855 1.775 3.609 2.531 5.57 3.174 2.185.716 4.612 1.298 7.666 2.826 1.396.697 15.913 6.836 20.386 8.725a.118.118 0 0 0 .115-.012.123.123 0 0 0 .052-.104c-.349-7.675-2.013-44.049-2.341-46.007-.826-4.928-.491-21.2-.491-24.192 0-5.854 1.082-34.58.102-47.248-.144-1.851-.329-3.351-.573-4.371-.061-.256-.113-.476-.17-.648Zm-.186.213c.04.141.078.306.123.491.241 1.011.424 2.498.566 4.334.98 12.663-.102 41.377-.102 47.229 0 2.997-.333 19.296.494 24.231.326 1.942 1.963 37.728 2.329 45.789-4.661-1.968-18.82-7.957-20.196-8.645-3.068-1.534-5.505-2.12-7.7-2.839-1.915-.628-3.631-1.364-5.443-3.086-.016-.397-.044-1.124-.069-2.015-.4-13.989-1.85-83.714-1.85-90.326 0-1.008-.154-2.171-.272-2.919 8.977-4.306 20.464-6.356 30.383-11.316.264-.132 1.197-.635 1.737-.928Z"/></svg>