<svg viewBox="0 0 492 492" xmlns="http://www.w3.org/2000/svg" xml:space="preserve" style="fill-rule:evenodd;clip-rule:evenodd;stroke-linejoin:round;stroke-miterlimit:2"><path d="M351.828 645.603c12.126 10.83 266.499 1.301 283.502-15.765 14.727-14.781-311.142-8.92-283.502 15.765Z" style="fill:#fff;stroke:#000;stroke-width:7.45px;stroke-linecap:round;stroke-miterlimit:1.5" transform="scale(.48)"/><path d="M349.348 648.38c.706.631 1.875 1.309 3.561 1.856 2.595.841 6.88 1.565 12.562 2.114 17.834 1.725 50.225 1.978 86.589 1.019 54.431-1.435 117.781-5.574 154.402-11.447 11.298-1.811 20.114-3.815 25.475-5.922 2.847-1.12 4.856-2.356 6.03-3.534 1.331-1.336 1.663-2.738 1.553-3.985-.085-.96-.457-1.941-1.286-2.853-.749-.824-2.181-1.76-4.402-2.482-11.441-3.722-52.42-5.443-99.929-4.976-70.983.698-156.572 6.193-179.415 15.938-4.967 2.12-7.426 4.915-7.921 7.322-.446 2.171.157 4.607 2.781 6.95Zm278.906-18.945c-.401.142-.824.284-1.266.429-5.125 1.674-12.558 3.24-21.705 4.706-36.388 5.835-99.335 9.929-153.419 11.355-35.98.949-68.03.72-85.676-.986-4.313-.418-7.723-.913-10.057-1.519-.742-.193-1.656-.562-1.87-.65.449-.349 1.149-.858 1.791-1.183 2.73-1.385 6.818-2.646 12.003-3.846 32.24-7.461 104.607-11.523 165.921-12.125 40.778-.401 76.657.72 92.507 3.459.599.103 1.196.227 1.771.36Z" style="stroke:#000;stroke-width:1px" transform="scale(.48)"/><path d="M225.436 756.195c30.374-4.687 46.793-2.378 63.384-3.382 52.782-3.195 299.611-20.384 371.158-23.589 34.793-1.559 131.65-6.709 131.65-7 0-70.313-5.835-365.309-11.323-381.776-4.935-14.806-1.453-86.691-1-96.238.025-.539-.237-17.382-.618-17-6.518 6.518-200.008 6.398-282.98 10.412-37.158 1.798-223.014 21.305-263.8.912-1.219-.61-24.377-2.792-24.266-1.618 4.946 52.053 12.942 363.443 12.942 412.512 0 32.496 6.433 91.187 4.853 106.767Z" style="fill:#fff;stroke:#000;stroke-width:7.45px;stroke-linecap:round;stroke-miterlimit:1.5" transform="scale(.48)"/><path d="M776.475 224.21c-.908.154-10.757 1.789-21.985 2.484-55.515 3.434-192.598 3.998-258.962 7.209-25.98 1.257-124.731 11.189-195.616 10.044-29.688-.479-54.398-2.772-66.34-8.744-.324-.161-1.669-.543-3.702-.813-5.766-.766-19.025-1.836-22.107-1.42-3.512.474-3.924 3.29-3.828 4.298 4.942 52.009 12.925 363.133 12.925 412.16 0 32.382 6.447 90.866 4.872 106.392a3.724 3.724 0 0 0 4.272 4.055c30.209-4.662 46.54-2.347 63.041-3.346 52.773-3.194 299.564-20.382 371.099-23.586 31.333-1.403 112.97-5.718 128.984-6.779 1.89-.126 3.003-.239 3.208-.28 2.973-.6 3.016-3.209 3.016-3.66 0-56.281-3.737-256.437-8.044-342.684-1.103-22.099-2.346-36.892-3.471-40.269-1.417-4.251-2.026-13.426-2.288-24.424-.638-26.714 1.159-63.803 1.475-70.461.023-.504-.202-14.736-.535-17.289-.238-1.825-1.235-2.626-1.487-2.823a3.604 3.604 0 0 0-2.696-.773 3.6 3.6 0 0 0-1.831.709Zm-1.239 7.953c.148 4.63.364 11.561.35 11.87-.319 6.708-2.124 44.077-1.481 70.991.286 11.986 1.123 21.969 2.668 26.602 1.069 3.209 2.05 17.284 3.098 38.286 4.218 84.473 7.888 278.338 8.028 338.868-17.612 1.138-97.247 5.343-128.088 6.724-71.558 3.206-318.426 20.397-371.216 23.593-15.841.959-31.525-1.07-59.218 2.759.333-20.461-5.071-72.509-5.071-102.428 0-47.991-7.647-346.692-12.616-408.909 5.252.312 15.977.991 18.737 1.481l.159.032c12.656 6.146 38.343 8.862 69.205 9.361 71.059 1.148 170.053-8.792 196.096-10.052 66.39-3.212 203.526-3.779 259.062-7.215 9.128-.565 16.104-1.219 20.287-1.963Zm5.099-1.608c.443-.252.769-.497.985-.713-.32.32-.652.55-.985.713Z" style="stroke:#000;stroke-width:1px" transform="scale(.48)"/><path d="M784.113 234.063c21.631 0 144.908-6.759 156.49 4.823 30.941 30.939 12.559 263.214 12.559 328.246 0 16.388 5.66 148.05-3 156.71-4.062 4.062-63.428-.383-74.414-.383-23.68 0-58.103-2.227-84.12-1.235-1.517.058.535-43.374 1.853-63.943 1.502-23.417 1.383-204.872 1.383-238.566 0-41.836-12.853-70.539-12.853-109.944 0-14.892 3.382-39.531 3.382-55.678 0-4.868-1.28-22.841-1.28-20.03Z" style="fill:#fff;stroke:#000;stroke-width:7.45px;stroke-linecap:round;stroke-miterlimit:1.5" transform="translate(-2.4) scale(.48)"/><path d="M785.63 230.33c17.58-.187 79.956-3.241 120.329-1.313 12.834.613 23.5 1.754 29.973 3.587 3.497.99 5.952 2.297 7.304 3.649 4.046 4.046 7.459 11.185 10.085 20.856 3.665 13.499 5.998 32.156 7.356 53.798 5.213 83.074-3.791 210.662-3.791 256.225 0 13.137 3.617 100.203.626 138.946-.551 7.133-1.351 12.703-2.386 16.033-.657 2.115-1.519 3.551-2.331 4.363-.549.549-1.477 1.16-2.872 1.577-1.627.486-4.333.843-7.806 1.029-17.683.945-57.554-1.898-66.369-1.898-23.64 0-58.005-2.228-83.978-1.238-1.036.04-2.152-.258-3.091-1.388-.307-.369-.917-1.384-1.105-3.16-.77-7.251.993-44.656 2.192-63.353 1.5-23.393 1.375-204.667 1.375-238.328 0-41.836-12.853-70.539-12.853-109.944 0-14.892 3.382-39.531 3.382-55.678 0-3.732-.908-16.181-1.112-18.919a3.74 3.74 0 0 1-.168-1.111c0-2.935 2.178-3.681 2.352-3.751.917-.369 1.899-.455 2.888.018Zm161.968 490.607c-.545.125-1.537.335-2.423.435-2.71.306-6.458.436-10.818.455-19.534.087-50.921-2.091-58.609-2.091-22.714 0-55.296-2.041-80.9-1.34-.343-10.57 1.267-42.999 2.349-59.877 1.503-23.44 1.39-205.076 1.39-238.804 0-41.836-12.853-70.539-12.853-109.944 0-14.892 3.382-39.531 3.382-55.678 0-3.065-.507-11.119-.907-16.359 20.406-.406 78.92-3.116 117.395-1.279 10.446.499 19.384 1.325 25.595 2.651 3.283.701 5.695 1.336 6.772 2.413 3.379 3.379 5.971 9.464 8.164 17.541 3.563 13.125 5.79 31.271 7.11 52.313 5.204 82.923-3.806 210.278-3.806 255.759 0 13.083 3.628 99.789.649 138.373-.429 5.55-.984 10.063-1.73 13.142-.206.851-.56 1.791-.76 2.29Z" style="stroke:#000;stroke-width:1px" transform="translate(-2.4) scale(.48)"/><path d="M102.503 706.613c0 3.581 5.604 35.786 6.459 36.641 6.668 6.668 111.85 42.06 124.562 42.06 1.534 0 430.709-25.883 490.161-25.883 34.744 0 205.83-6.942 205.83-6.942s1.189-24.841-.618-26.647c-2.319-2.32-267.389 3.954-311.714 5.617-9.745.366-130.396 10.064-210.566 16.648-25.034 2.056-153.353 6.16-182.445 8.706-9.213.806-86.669-37.056-121.669-50.2Z" style="fill:#fff;stroke:#000;stroke-width:7.45px;stroke-linecap:round;stroke-miterlimit:1.5" transform="scale(.48)"/><path d="M103.812 703.128a3.72 3.72 0 0 0-5.032 3.485c0 2.932 3.624 24.619 5.54 33.621.431 2.023.805 3.47 1.029 4.072.325.872.752 1.352.98 1.581.753.752 2.456 1.877 5.035 3.155 4.872 2.413 13.382 5.86 23.74 9.726 34.451 12.856 89.407 30.269 98.42 30.269 1.534 0 430.709-25.883 490.161-25.883 34.77 0 205.981-6.945 205.981-6.945a3.722 3.722 0 0 0 3.567-3.542s.765-16.237.132-23.676c-.141-1.655-.376-2.961-.641-3.76-.324-.975-.794-1.622-1.194-2.022-.29-.29-.818-.746-1.759-1.015-.76-.217-3.86-.452-8.914-.526-45.06-.66-263.896 4.573-303.814 6.071-9.752.366-130.498 10.068-210.73 16.657-25.037 2.057-153.37 6.162-182.466 8.708-.848.074-2.42-.416-4.63-1.113-4.244-1.337-10.236-3.668-17.346-6.62-28.17-11.697-73.529-33.032-98.059-42.243Zm3.101 9.185c29.248 11.616 79.097 35.257 103.111 44.333 7.207 2.724 12.403 4.057 14.472 3.876 29.09-2.546 157.395-6.649 182.426-8.704 80.107-6.58 200.663-16.273 210.4-16.638 39.868-1.496 258.423-6.726 303.426-6.067 1.972.029 3.85.105 5.182.171.507 4.735.221 14.456.016 19.623-24.264.976-170.45 6.801-202.261 6.801-59.452 0-488.627 25.883-490.161 25.883-8.784 0-62.245-17.271-95.817-29.8-10.049-3.75-18.311-7.081-23.038-9.422-1.092-.541-1.959-.97-2.529-1.335-1.152-4.521-3.931-20.034-5.227-28.721Z" style="stroke:#000;stroke-width:1px" transform="scale(.48)"/><path d="M794.292 619.774c-1.346 0 31.254-1.083 44.25-1.083 9.312 0 78.574-10.398 82.502-6.47 3.446 3.446 5 29.556 5 34.971 0 8.266 1.847 37.448-5 44.296-5.017 5.016-13.833-1.618-21.03-1.618h-87.356c-5.145 0-24.238 1.055-24.238.29" style="fill:#fff;stroke:#000;stroke-width:7.45px;stroke-linecap:round;stroke-miterlimit:1.5" transform="scale(.48)"/><path d="m794.663 623.479.338-.015c4.402-.175 31.884-1.049 43.541-1.049 7.462 0 53.355-6.656 73.428-7.308 2.553-.083 5.3.104 6.525.203.356 1.086 1.105 3.492 1.483 5.614 1.599 8.976 2.343 22.57 2.343 26.268 0 4.902.668 17.245-.267 27.797-.35 3.947-.915 7.629-1.877 10.487-.48 1.426-1.008 2.621-1.766 3.379-.711.711-1.617.823-2.582.777-1.106-.054-2.279-.326-3.49-.661-4.05-1.119-8.418-2.824-12.325-2.824h-87.356c-4.26 0-20.975.436-23.034.49a3.724 3.724 0 0 0-4.927 3.523c0 .731.473 3.462 3.807 3.873 3.2.394 19.434-.44 24.154-.44h87.356c4.102 0 8.735 2.363 12.832 3.149 4.181.801 7.913.295 10.831-2.622 2.454-2.454 4.22-7.215 5.144-13.078 1.837-11.648.946-27.963.946-33.85 0-3.882-.779-18.152-2.458-27.574-.554-3.109-1.229-5.731-1.964-7.428-.509-1.175-1.104-2.037-1.668-2.602-.574-.574-1.625-1.238-3.278-1.574-1.759-.357-4.776-.476-8.671-.35-20.007.65-65.749 7.304-73.186 7.304-11.736 0-39.405.88-43.837 1.056-.518.02-.818.043-.872.049-1.506.173-2.115.965-2.242 1.095-1.098 1.122-1.214 2.329-.975 3.408.022.099.552 2.921 3.676 2.921.125 0 .249-.006.371-.018Zm-3.166 64.587c.408.596.646 1.318.646 2.094 0-.7-.164-1.423-.646-2.094Zm3-72.009a3.72 3.72 0 0 1 2.917 1.691c-.452-.768-1.313-1.625-2.917-1.691Z" style="stroke:#000;stroke-width:1px" transform="scale(.48)"/><path d="M864.164 689.87c2.172 2.172 2.242-73.487-3.011-73.487" style="fill:#fff;stroke:#000;stroke-width:7.45px;stroke-linecap:round;stroke-miterlimit:1.5" transform="scale(.48)"/><path d="M858.93 619.369c.099.299.234.733.328 1.123.429 1.781.788 4.265 1.099 7.232 1.598 15.224 1.781 42.496 1.114 55.142a77.979 77.979 0 0 1-.448 5.006 3.725 3.725 0 0 0 .508 4.631c1.397 1.397 2.864 1.402 4.207.836a3.838 3.838 0 0 0 1.811-1.559c.259-.416.664-1.381.885-2.905 1.259-8.683 1.256-50.302-1.264-66.602-.662-4.283-1.804-7.127-2.742-8.137-1.021-1.099-2.175-1.476-3.275-1.476a3.724 3.724 0 0 0-2.223 6.709Zm5.712 66.81c.72.092 1.418.394 1.993.907-.652-.594-1.329-.855-1.993-.907Z" style="stroke:#000;stroke-width:1px" transform="scale(.48)"/><path d="M298.232 346.919c0 72.826 6.471 157.373 6.471 234.566 0 9.471 2.765 86.885 4.853 88.973 7.148 7.147 194.712-14.56 226.477-14.56 17.538 0 184.494-.076 187.652-3.235 1.019-1.019-3.235-36.727-3.235-43.678 0-22.748.251-133.765-8.088-150.445-6.047-12.094-5.933-95.982 1.617-103.533 1.047-1.046 4.011-9.318 0-11.323-16.393-8.197-206.295 6.47-239.418 6.47-56.257 0-176.329-10.617-176.329-3.235Z" style="fill:#fff;stroke:#000;stroke-width:7.45px;stroke-linecap:round;stroke-miterlimit:1.5" transform="scale(.48)"/><path d="M294.509 346.919c0 72.826 6.471 157.373 6.471 234.566 0 7.606 1.775 58.865 3.559 80.138.383 4.569.801 7.845 1.17 9.206.335 1.237.886 1.934 1.214 2.261.733.733 2.451 1.644 5.278 2.041 3.988.559 11.218.621 20.738.278 52.658-1.896 177.698-15.787 203.094-15.787 14.042 0 123.787-.051 168.743-1.689 9.256-.337 15.843-.764 18.442-1.245 1.783-.33 2.743-1.035 3.1-1.392.322-.322 1.228-1.574 1.247-3.886.054-6.594-3.392-36.164-3.392-42.425 0-15.959.12-75.269-2.673-115.152-1.242-17.741-3.206-31.753-5.808-36.958-1.163-2.325-1.953-7.57-2.607-14.434-1.65-17.324-1.771-44.317-.217-63.73.558-6.964 1.323-12.931 2.329-17.062.473-1.941.797-3.392 1.415-4.009.371-.371.947-1.152 1.46-2.29.763-1.69 1.586-4.444 1.663-7.003.105-3.502-1.201-6.548-4.091-7.993-3.473-1.737-14.274-2.751-29.651-2.868-58.076-.442-184.93 8.945-211.432 8.945-39.365 0-109.987-5.202-148.818-5.791-14.036-.213-24.122.32-27.599 1.667-2.854 1.105-3.635 3.08-3.635 4.612Zm417.646.021c.041.214.148.81.137 1.183-.051 1.686-1.031 4.136-1.183 4.506-.895 1.009-1.814 2.7-2.545 5.063-1.361 4.393-2.418 11.674-3.118 20.425-1.586 19.809-1.458 47.353.227 65.03.775 8.137 1.981 14.303 3.358 17.058 2.402 4.803 3.895 17.779 5.041 34.148 2.781 39.703 2.655 98.745 2.655 114.632 0 5.782 2.948 31.476 3.347 40.513-3.016.273-8.942.752-15.569.994-44.883 1.635-154.453 1.683-168.472 1.683-25.429 0-150.635 13.894-203.362 15.792-6.963.251-12.634.293-16.598.054-1.211-.073-2.49-.26-3.359-.406a127.42 127.42 0 0 1-.755-6.614c-1.77-21.108-3.533-71.969-3.533-79.516 0-76.475-6.351-160.168-6.468-232.529.195-.044.398-.085.593-.119 2.085-.358 5.05-.575 8.74-.695 32.515-1.061 118.298 5.735 163.27 5.735 26.495 0 153.315-9.387 211.375-8.945 8.547.065 15.576.341 20.526.903 2.634.3 4.583.609 5.693 1.105Z" style="stroke:#000;stroke-width:1px" transform="scale(.48)"/><path d="M309.556 630.015c.729-.729 232.581-2.868 242.654-12.941 12.427-12.427 1.618-152.355 1.618-176.329 0-16.886 11.422-100.395 3.235-92.208" style="fill:#fff;stroke:#000;stroke-width:7.45px;stroke-linecap:round;stroke-miterlimit:1.5" transform="scale(.48)"/><path d="M555.852 352.057c.196 2.092.487 5.934.401 9.505-.551 22.833-6.149 67.35-6.149 79.183 0 16.771 5.297 90.324 4.213 137.207-.273 11.819-.944 21.911-2.239 28.881-.67 3.607-1.288 6.261-2.389 7.49-.261.105-1.686.67-2.916.976-3.404.844-8.529 1.611-14.986 2.327-44.372 4.92-149.8 7.015-197.759 8.008-13.635.282-22.675.482-24.454.625-1.758.141-2.52.993-2.651 1.124a3.725 3.725 0 0 0 0 5.265 3.718 3.718 0 0 0 3.283 1.032c.664-.02 11.026-.333 23.976-.601 48.121-.997 153.904-3.115 198.426-8.052 8.091-.898 14.23-1.912 17.763-2.998 2.257-.695 3.722-1.573 4.471-2.323 1.309-1.308 2.561-3.623 3.502-6.916 1.12-3.925 1.952-9.475 2.516-16.214 3.603-43.037-3.309-136.613-3.309-155.831 0-13.549 7.304-69.868 6.033-87.649-.281-3.925-1.3-6.453-2.23-7.422-.919-.958-1.981-1.376-3.098-1.42-1.073-.042-2.448.272-3.826 1.65a3.725 3.725 0 0 0 1.422 6.153Z" style="stroke:#000;stroke-width:1px" transform="scale(.48)"/><path d="M548.974 620.309c-1.005-1.005 32.148 0 38.825 0 29.478 0 65.232 4.307 88.973 16.177 8.472 4.236 24.26 8.083 29.119 12.942.783.783 17.003 1.617 8.088 1.617" style="fill:#fff;stroke:#000;stroke-width:7.45px;stroke-linecap:round;stroke-miterlimit:1.5" transform="scale(.48)"/><path d="M550.455 623.725c5.553-.488 31.546.307 37.344.307 28.921 0 64.016 4.138 87.308 15.784 5.159 2.58 12.986 5.032 19.492 7.634 3.709 1.484 6.972 2.923 8.659 4.61.316.317 1.355 1.046 3.095 1.361 1.205.218 3.517.49 5.54.708a3.708 3.708 0 0 0 2.086.639c2.433 0 3.562-.192 3.798-.269 1.465-.482 1.983-1.434 2.234-1.963.489-1.032.51-2.084.018-3.156-.132-.287-.864-1.833-3.103-2.208-1.31-.219-7.528-.922-9.212-1.111-2.321-1.938-6.052-3.806-10.349-5.525-6.314-2.525-13.921-4.877-18.928-7.38-24.189-12.094-60.603-16.57-90.638-16.57-6.08 0-33.857-.794-38.61-.217-2.69.326-3.56 2.133-3.733 2.61-.447 1.228-.448 2.629.886 3.963a3.725 3.725 0 0 0 4.113.783Zm2.228-3.106c.132-.951-.1-1.966-1.076-2.942a3.713 3.713 0 0 1 1.076 2.942Z" style="stroke:#000;stroke-width:1px" transform="scale(.48)"/><path d="M783.777 281.515c20.679 0 126.266-7.069 134.031.696 2.831 2.831 14.732 68.064 9.707 73.09-2.427 2.427-69.618 1.324-88.973 1.324-14.011 0-52.871 4.473-50.964 2.565" style="fill:#fff;stroke:#000;stroke-width:7.45px;stroke-linecap:round;stroke-miterlimit:1.5" transform="scale(.48)"/><path d="M914.934 284.798c.346 1.079 1.267 4.049 1.991 7.16 2.663 11.456 6.184 31.619 7.537 46.218.434 4.677.647 8.765.515 11.763a19.814 19.814 0 0 1-.249 2.207c-1.307.156-3.538.396-5.727.506-19.019.958-65.011.25-80.459.25-11.585 0-44.612 2.572-49.327 2.945a3.723 3.723 0 0 0-4.269.711c-1.377 1.376-1.331 2.792-.984 3.899.226.724 1.072 2.466 3.713 2.816 5.08.672 38.136-2.925 50.867-2.925 15.52 0 61.726.704 80.833-.259 4.234-.213 7.261-.555 8.581-.937 1.137-.329 1.82-.847 2.191-1.218.816-.816 1.66-2.406 2.016-4.821.487-3.31.335-8.92-.286-15.624-1.582-17.074-6.069-41.583-8.825-51.732-.948-3.492-2.059-5.626-2.611-6.178-.765-.766-2.049-1.556-3.907-2.154-2.826-.91-7.471-1.576-13.407-1.983-31.736-2.17-102.772 2.35-119.35 2.35a3.726 3.726 0 0 0-3.724 3.723 3.726 3.726 0 0 0 3.724 3.724c16.508 0 87.241-4.529 118.841-2.368 4.479.307 8.127.737 10.644 1.363.582.145 1.268.402 1.672.564Zm-123.688 75.026a3.696 3.696 0 0 1-1.035 1.999c.67-.67.96-1.353 1.035-1.999Z" style="stroke:#000;stroke-width:1px" transform="scale(.48)"/><path d="M820.747 398.685c0 4.147.618 14.706 1.618 14.559 7.239-1.063 25.352-.851 27.5 0 2.091.829-.13-14.74-1.617-16.177-2.147-2.073-23.501 1.213-27.501 1.618Z" style="fill:#fff;stroke:#000;stroke-width:7.45px;stroke-linecap:round;stroke-miterlimit:1.5" transform="scale(.48)"/><path d="M848.661 416.767c2.076.728 5.127.075 5.676-4.284.405-3.223-.643-11.16-1.781-14.86-.515-1.675-1.241-2.769-1.722-3.233-.767-.742-2.779-1.618-5.771-1.711-6.829-.211-21.427 1.972-24.691 2.302a3.723 3.723 0 0 0-3.348 3.704c0 3.534.456 11.437 1.17 14.378.448 1.842 1.392 2.829 1.909 3.193.912.642 1.862.81 2.803.672 4.905-.721 14.967-.819 21.276-.541 2.025.09 4.249.353 4.479.38Zm1.993-7.162c.19.04.384.099.583.178a4.817 4.817 0 0 0-.583-.178Zm-5.239-9.475c.381 1.841 1.2 6.008 1.478 8.954-5.286-.38-15.27-.397-21.813.126-.262-2.086-.441-4.883-.535-7.258 5.799-.784 16.285-2.225 20.87-1.822Z" style="stroke:#000;stroke-width:1px" transform="scale(.48)"/><path d="M820.747 398.685c0 4.147.618 14.706 1.618 14.559 7.239-1.063 25.352-.851 27.5 0 2.091.829-.13-14.74-1.617-16.177-2.147-2.073-23.501 1.213-27.501 1.618Z" style="fill:#fff;stroke:#000;stroke-width:7.45px;stroke-linecap:round;stroke-miterlimit:1.5" transform="matrix(.48 0 0 .48 .48 20.16)"/><path d="M848.661 416.767c2.076.728 5.127.075 5.676-4.284.405-3.223-.643-11.16-1.781-14.86-.515-1.675-1.241-2.769-1.722-3.233-.767-.742-2.779-1.618-5.771-1.711-6.829-.211-21.427 1.972-24.691 2.302a3.723 3.723 0 0 0-3.348 3.704c0 3.534.456 11.437 1.17 14.378.448 1.842 1.392 2.829 1.909 3.193.912.642 1.862.81 2.803.672 4.905-.721 14.967-.819 21.276-.541 2.025.09 4.249.353 4.479.38Zm1.993-7.162c.19.04.384.099.583.178a4.817 4.817 0 0 0-.583-.178Zm-5.239-9.475c.381 1.841 1.2 6.008 1.478 8.954-5.286-.38-15.27-.397-21.813.126-.262-2.086-.441-4.883-.535-7.258 5.799-.784 16.285-2.225 20.87-1.822Z" style="stroke:#000;stroke-width:1px" transform="matrix(.48 0 0 .48 .48 20.16)"/><path d="M820.747 398.685c0 4.147.618 14.706 1.618 14.559 7.239-1.063 25.352-.851 27.5 0 2.091.829-.13-14.74-1.617-16.177-2.147-2.073-23.501 1.213-27.501 1.618Z" style="fill:#fff;stroke:#000;stroke-width:7.45px;stroke-linecap:round;stroke-miterlimit:1.5" transform="matrix(.48 0 0 .48 .96 40.32)"/><path d="M848.661 416.767c2.076.728 5.127.075 5.676-4.284.405-3.223-.643-11.16-1.781-14.86-.515-1.675-1.241-2.769-1.722-3.233-.767-.742-2.779-1.618-5.771-1.711-6.829-.211-21.427 1.972-24.691 2.302a3.723 3.723 0 0 0-3.348 3.704c0 3.534.456 11.437 1.17 14.378.448 1.842 1.392 2.829 1.909 3.193.912.642 1.862.81 2.803.672 4.905-.721 14.967-.819 21.276-.541 2.025.09 4.249.353 4.479.38Zm1.993-7.162c.19.04.384.099.583.178a4.817 4.817 0 0 0-.583-.178Zm-5.239-9.475c.381 1.841 1.2 6.008 1.478 8.954-5.286-.38-15.27-.397-21.813.126-.262-2.086-.441-4.883-.535-7.258 5.799-.784 16.285-2.225 20.87-1.822Z" style="stroke:#000;stroke-width:1px" transform="matrix(.48 0 0 .48 .96 40.32)"/><path d="M820.747 398.685c0 4.147.618 14.706 1.618 14.559 7.239-1.063 25.352-.851 27.5 0 2.091.829-.13-14.74-1.617-16.177-2.147-2.073-23.501 1.213-27.501 1.618Z" style="fill:#fff;stroke:#000;stroke-width:7.45px;stroke-linecap:round;stroke-miterlimit:1.5" transform="matrix(.48 0 0 .48 1.44 60.48)"/><path d="M848.661 416.767c2.076.728 5.127.075 5.676-4.284.405-3.223-.643-11.16-1.781-14.86-.515-1.675-1.241-2.769-1.722-3.233-.767-.742-2.779-1.618-5.771-1.711-6.829-.211-21.427 1.972-24.691 2.302a3.723 3.723 0 0 0-3.348 3.704c0 3.534.456 11.437 1.17 14.378.448 1.842 1.392 2.829 1.909 3.193.912.642 1.862.81 2.803.672 4.905-.721 14.967-.819 21.276-.541 2.025.09 4.249.353 4.479.38Zm1.993-7.162c.19.04.384.099.583.178a4.817 4.817 0 0 0-.583-.178Zm-5.239-9.475c.381 1.841 1.2 6.008 1.478 8.954-5.286-.38-15.27-.397-21.813.126-.262-2.086-.441-4.883-.535-7.258 5.799-.784 16.285-2.225 20.87-1.822Z" style="stroke:#000;stroke-width:1px" transform="matrix(.48 0 0 .48 1.44 60.48)"/><path d="M820.747 398.685c0 4.147.618 14.706 1.618 14.559 7.239-1.063 25.352-.851 27.5 0 2.091.829-.13-14.74-1.617-16.177-2.147-2.073-23.501 1.213-27.501 1.618Z" style="fill:#fff;stroke:#000;stroke-width:7.45px;stroke-linecap:round;stroke-miterlimit:1.5" transform="matrix(.48 0 0 .48 1.92 80.64)"/><path d="M848.661 416.767c2.076.728 5.127.075 5.676-4.284.405-3.223-.643-11.16-1.781-14.86-.515-1.675-1.241-2.769-1.722-3.233-.767-.742-2.779-1.618-5.771-1.711-6.829-.211-21.427 1.972-24.691 2.302a3.723 3.723 0 0 0-3.348 3.704c0 3.534.456 11.437 1.17 14.378.448 1.842 1.392 2.829 1.909 3.193.912.642 1.862.81 2.803.672 4.905-.721 14.967-.819 21.276-.541 2.025.09 4.249.353 4.479.38Zm1.993-7.162c.19.04.384.099.583.178a4.817 4.817 0 0 0-.583-.178Zm-5.239-9.475c.381 1.841 1.2 6.008 1.478 8.954-5.286-.38-15.27-.397-21.813.126-.262-2.086-.441-4.883-.535-7.258 5.799-.784 16.285-2.225 20.87-1.822Z" style="stroke:#000;stroke-width:1px" transform="matrix(.48 0 0 .48 1.92 80.64)"/><path d="M820.747 398.685c0 4.147.618 14.706 1.618 14.559 7.239-1.063 25.352-.851 27.5 0 2.091.829-.13-14.74-1.617-16.177-2.147-2.073-23.501 1.213-27.501 1.618Z" style="fill:#fff;stroke:#000;stroke-width:7.45px;stroke-linecap:round;stroke-miterlimit:1.5" transform="matrix(.48 0 0 .48 26.4 -.96)"/><path d="M848.661 416.767c2.076.728 5.127.075 5.676-4.284.405-3.223-.643-11.16-1.781-14.86-.515-1.675-1.241-2.769-1.722-3.233-.767-.742-2.779-1.618-5.771-1.711-6.829-.211-21.427 1.972-24.691 2.302a3.723 3.723 0 0 0-3.348 3.704c0 3.534.456 11.437 1.17 14.378.448 1.842 1.392 2.829 1.909 3.193.912.642 1.862.81 2.803.672 4.905-.721 14.967-.819 21.276-.541 2.025.09 4.249.353 4.479.38Zm1.993-7.162c.19.04.384.099.583.178a4.817 4.817 0 0 0-.583-.178Zm-5.239-9.475c.381 1.841 1.2 6.008 1.478 8.954-5.286-.38-15.27-.397-21.813.126-.262-2.086-.441-4.883-.535-7.258 5.799-.784 16.285-2.225 20.87-1.822Z" style="stroke:#000;stroke-width:1px" transform="matrix(.48 0 0 .48 26.4 -.96)"/><path d="M820.747 398.685c0 4.147.618 14.706 1.618 14.559 7.239-1.063 25.352-.851 27.5 0 2.091.829-.13-14.74-1.617-16.177-2.147-2.073-23.501 1.213-27.501 1.618Z" style="fill:#fff;stroke:#000;stroke-width:7.45px;stroke-linecap:round;stroke-miterlimit:1.5" transform="matrix(.48 0 0 .48 26.4 18.72)"/><path d="M848.661 416.767c2.076.728 5.127.075 5.676-4.284.405-3.223-.643-11.16-1.781-14.86-.515-1.675-1.241-2.769-1.722-3.233-.767-.742-2.779-1.618-5.771-1.711-6.829-.211-21.427 1.972-24.691 2.302a3.723 3.723 0 0 0-3.348 3.704c0 3.534.456 11.437 1.17 14.378.448 1.842 1.392 2.829 1.909 3.193.912.642 1.862.81 2.803.672 4.905-.721 14.967-.819 21.276-.541 2.025.09 4.249.353 4.479.38Zm1.993-7.162c.19.04.384.099.583.178a4.817 4.817 0 0 0-.583-.178Zm-5.239-9.475c.381 1.841 1.2 6.008 1.478 8.954-5.286-.38-15.27-.397-21.813.126-.262-2.086-.441-4.883-.535-7.258 5.799-.784 16.285-2.225 20.87-1.822Z" style="stroke:#000;stroke-width:1px" transform="matrix(.48 0 0 .48 26.4 18.72)"/><path d="M820.747 398.685c0 4.147.618 14.706 1.618 14.559 7.239-1.063 25.352-.851 27.5 0 2.091.829-.13-14.74-1.617-16.177-2.147-2.073-23.501 1.213-27.501 1.618Z" style="fill:#fff;stroke:#000;stroke-width:7.45px;stroke-linecap:round;stroke-miterlimit:1.5" transform="matrix(.48 0 0 .48 26.4 38.4)"/><path d="M848.661 416.767c2.076.728 5.127.075 5.676-4.284.405-3.223-.643-11.16-1.781-14.86-.515-1.675-1.241-2.769-1.722-3.233-.767-.742-2.779-1.618-5.771-1.711-6.829-.211-21.427 1.972-24.691 2.302a3.723 3.723 0 0 0-3.348 3.704c0 3.534.456 11.437 1.17 14.378.448 1.842 1.392 2.829 1.909 3.193.912.642 1.862.81 2.803.672 4.905-.721 14.967-.819 21.276-.541 2.025.09 4.249.353 4.479.38Zm1.993-7.162c.19.04.384.099.583.178a4.817 4.817 0 0 0-.583-.178Zm-5.239-9.475c.381 1.841 1.2 6.008 1.478 8.954-5.286-.38-15.27-.397-21.813.126-.262-2.086-.441-4.883-.535-7.258 5.799-.784 16.285-2.225 20.87-1.822Z" style="stroke:#000;stroke-width:1px" transform="matrix(.48 0 0 .48 26.4 38.4)"/><path d="M820.747 398.685c0 4.147.618 14.706 1.618 14.559 7.239-1.063 25.352-.851 27.5 0 2.091.829-.13-14.74-1.617-16.177-2.147-2.073-23.501 1.213-27.501 1.618Z" style="fill:#fff;stroke:#000;stroke-width:7.45px;stroke-linecap:round;stroke-miterlimit:1.5" transform="matrix(.48 0 0 .48 26.4 58.08)"/><path d="M848.661 416.767c2.076.728 5.127.075 5.676-4.284.405-3.223-.643-11.16-1.781-14.86-.515-1.675-1.241-2.769-1.722-3.233-.767-.742-2.779-1.618-5.771-1.711-6.829-.211-21.427 1.972-24.691 2.302a3.723 3.723 0 0 0-3.348 3.704c0 3.534.456 11.437 1.17 14.378.448 1.842 1.392 2.829 1.909 3.193.912.642 1.862.81 2.803.672 4.905-.721 14.967-.819 21.276-.541 2.025.09 4.249.353 4.479.38Zm1.993-7.162c.19.04.384.099.583.178a4.817 4.817 0 0 0-.583-.178Zm-5.239-9.475c.381 1.841 1.2 6.008 1.478 8.954-5.286-.38-15.27-.397-21.813.126-.262-2.086-.441-4.883-.535-7.258 5.799-.784 16.285-2.225 20.87-1.822Z" style="stroke:#000;stroke-width:1px" transform="matrix(.48 0 0 .48 26.4 58.08)"/><path d="M820.747 398.685c0 4.147.618 14.706 1.618 14.559 7.239-1.063 25.352-.851 27.5 0 2.091.829-.13-14.74-1.617-16.177-2.147-2.073-23.501 1.213-27.501 1.618Z" style="fill:#fff;stroke:#000;stroke-width:7.45px;stroke-linecap:round;stroke-miterlimit:1.5" transform="matrix(.48 0 0 .48 26.4 77.76)"/><path d="M848.661 416.767c2.076.728 5.127.075 5.676-4.284.405-3.223-.643-11.16-1.781-14.86-.515-1.675-1.241-2.769-1.722-3.233-.767-.742-2.779-1.618-5.771-1.711-6.829-.211-21.427 1.972-24.691 2.302a3.723 3.723 0 0 0-3.348 3.704c0 3.534.456 11.437 1.17 14.378.448 1.842 1.392 2.829 1.909 3.193.912.642 1.862.81 2.803.672 4.905-.721 14.967-.819 21.276-.541 2.025.09 4.249.353 4.479.38Zm1.993-7.162c.19.04.384.099.583.178a4.817 4.817 0 0 0-.583-.178Zm-5.239-9.475c.381 1.841 1.2 6.008 1.478 8.954-5.286-.38-15.27-.397-21.813.126-.262-2.086-.441-4.883-.535-7.258 5.799-.784 16.285-2.225 20.87-1.822Z" style="stroke:#000;stroke-width:1px" transform="matrix(.48 0 0 .48 26.4 77.76)"/><path d="M66.902 290.3c37.798-18.899 87.041-27.344 129.415-48.531 2.144-1.072 9.75-6.427 11.324-4.853 11.507 11.507 4.471 191.128 4.471 221.654 0 12.403-1.423 79.845 2 100.267 1.532 9.144 10.06 197.976 10.06 197.976s-83.666-35.288-90.562-38.736c-25.101-12.551-39.917-9.505-57.002-26.589-.63-.631-8.088-356.008-8.088-386.629 0-6.471-1.618-14.559-1.618-14.559Z" style="fill:#fff;stroke:#fff;stroke-width:7.45px;stroke-linecap:round;stroke-miterlimit:1.5" transform="scale(.48)"/><path d="M65.237 286.97a3.723 3.723 0 0 0-1.986 4.06s1.545 7.682 1.545 13.829c0 27.567 6.043 318.26 7.711 376.583.171 5.984.305 9.584.375 10.291.159 1.591.962 2.256 1.093 2.387 9.042 9.042 17.467 12.786 26.968 15.9 8.831 2.895 18.655 5.214 31.002 11.387 6.913 3.457 90.78 38.837 90.78 38.837a3.725 3.725 0 0 0 5.166-3.599s-8.571-189.259-10.107-198.424c-3.402-20.296-1.949-87.324-1.949-99.651 0-24.457 4.498-144.473.402-197.401-.744-9.611-1.797-17.085-3.16-21.527-.8-2.605-1.822-4.377-2.803-5.359-1.016-1.016-2.707-1.695-4.983-1.212-3.062.651-8.777 4.437-10.639 5.368-42.374 21.187-91.617 29.632-129.415 48.531Zm140.504-46.021c.236.707.446 1.608.698 2.66 1.012 4.23 1.779 10.453 2.374 18.134 4.084 52.775-.424 172.442-.424 196.827 0 12.479-1.392 80.334 2.051 100.882 1.367 8.158 8.295 159.669 9.746 191.638-18.63-7.867-79.099-33.437-84.911-36.343-12.755-6.377-22.889-8.812-32.012-11.802-8.101-2.656-15.351-5.775-23.019-13.111-.065-1.6-.183-4.732-.294-8.605-1.667-58.29-7.707-348.819-7.707-376.37 0-4.343-.691-9.38-1.189-12.45 37.454-18.052 85.478-26.585 126.928-47.31 1.19-.595 5.663-3.013 7.759-4.15Z" style="stroke:#000;stroke-width:1px" transform="scale(.48)"/></svg>