<?xml version="1.0" encoding="UTF-8" standalone="no"?>
<!DOCTYPE svg PUBLIC "-//W3C//DTD SVG 1.1//EN" "http://www.w3.org/Graphics/SVG/1.1/DTD/svg11.dtd">
<svg width="100%" height="100%" viewBox="0 0 492 492" version="1.1" xmlns="http://www.w3.org/2000/svg" xmlns:xlink="http://www.w3.org/1999/xlink" xml:space="preserve" xmlns:serif="http://www.serif.com/" style="fill-rule:evenodd;clip-rule:evenodd;stroke-linejoin:round;stroke-miterlimit:2;">
    <g transform="matrix(0.48,0,0,0.48,0,0)">
        <g>
            <path d="M351.828,645.603C363.954,656.433 618.327,646.904 635.33,629.838C650.057,615.057 324.188,620.918 351.828,645.603Z" style="fill:white;stroke:black;stroke-width:7.45px;stroke-linecap:round;stroke-miterlimit:1.5;"/>
            <path d="M349.348,648.38C350.054,649.011 351.223,649.689 352.909,650.236C355.504,651.077 359.789,651.801 365.471,652.35C383.305,654.075 415.696,654.328 452.06,653.369C506.491,651.934 569.841,647.795 606.462,641.922C617.76,640.111 626.576,638.107 631.937,636C634.784,634.88 636.793,633.644 637.967,632.466C639.298,631.13 639.63,629.728 639.52,628.481C639.435,627.521 639.063,626.54 638.234,625.628C637.485,624.804 636.053,623.868 633.832,623.146C622.391,619.424 581.412,617.703 533.903,618.17C462.92,618.868 377.331,624.363 354.488,634.108C349.521,636.228 347.062,639.023 346.567,641.43C346.121,643.601 346.724,646.037 349.348,648.38ZM628.254,629.435C627.853,629.577 627.43,629.719 626.988,629.864C621.863,631.538 614.43,633.104 605.283,634.57C568.895,640.405 505.948,644.499 451.864,645.925C415.884,646.874 383.834,646.645 366.188,644.939C361.875,644.521 358.465,644.026 356.131,643.42C355.389,643.227 354.475,642.858 354.261,642.77C354.71,642.421 355.41,641.912 356.052,641.587C358.782,640.202 362.87,638.941 368.055,637.741C400.295,630.28 472.662,626.218 533.976,625.616C574.754,625.215 610.633,626.336 626.483,629.075C627.082,629.178 627.679,629.302 628.254,629.435Z" style="stroke:black;stroke-width:1px;"/>
            <path d="M225.436,756.195C255.81,751.508 272.229,753.817 288.82,752.813C341.602,749.618 588.431,732.429 659.978,729.224C694.771,727.665 791.628,722.515 791.628,722.224C791.628,651.911 785.793,356.915 780.305,340.448C775.37,325.642 778.852,253.757 779.305,244.21C779.33,243.671 779.068,226.828 778.687,227.21C772.169,233.728 578.679,233.608 495.707,237.622C458.549,239.42 272.693,258.927 231.907,238.534C230.688,237.924 207.53,235.742 207.641,236.916C212.587,288.969 220.583,600.359 220.583,649.428C220.583,681.924 227.016,740.615 225.436,756.195Z" style="fill:white;stroke:black;stroke-width:7.45px;stroke-linecap:round;stroke-miterlimit:1.5;"/>
            <path d="M776.475,224.21C775.567,224.364 765.718,225.999 754.49,226.694C698.975,230.128 561.892,230.692 495.528,233.903C469.548,235.16 370.797,245.092 299.912,243.947C270.224,243.468 245.514,241.175 233.572,235.203C233.248,235.042 231.903,234.66 229.87,234.39C224.104,233.624 210.845,232.554 207.763,232.97C204.251,233.444 203.839,236.26 203.935,237.268C208.877,289.277 216.86,600.401 216.86,649.428C216.86,681.81 223.307,740.294 221.732,755.82C221.615,756.966 222.037,758.102 222.872,758.896C223.708,759.689 224.865,760.051 226.004,759.875C256.213,755.213 272.544,757.528 289.045,756.529C341.818,753.335 588.609,736.147 660.144,732.943C691.477,731.54 773.114,727.225 789.128,726.164C791.018,726.038 792.131,725.925 792.336,725.884C795.309,725.284 795.352,722.675 795.352,722.224C795.352,665.943 791.615,465.787 787.308,379.54C786.205,357.441 784.962,342.648 783.837,339.271C782.42,335.02 781.811,325.845 781.549,314.847C780.911,288.133 782.708,251.044 783.024,244.386C783.047,243.882 782.822,229.65 782.489,227.097C782.251,225.272 781.254,224.471 781.002,224.274C780.119,223.584 779.194,223.407 778.306,223.501C777.717,223.563 777.083,223.752 776.475,224.21ZM775.236,232.163C775.384,236.793 775.6,243.724 775.586,244.033C775.267,250.741 773.462,288.11 774.105,315.024C774.391,327.01 775.228,336.993 776.773,341.626C777.842,344.835 778.823,358.91 779.871,379.912C784.089,464.385 787.759,658.25 787.899,718.78C770.287,719.918 690.652,724.123 659.811,725.504C588.253,728.71 341.385,745.901 288.595,749.097C272.754,750.056 257.07,748.027 229.377,751.856L229.377,751.856C229.71,731.395 224.306,679.347 224.306,649.428C224.306,601.437 216.659,302.736 211.69,240.519C216.942,240.831 227.667,241.51 230.427,242L230.586,242.032C243.242,248.178 268.929,250.894 299.791,251.393C370.85,252.541 469.844,242.601 495.887,241.341C562.277,238.129 699.413,237.562 754.949,234.126C764.077,233.561 771.053,232.907 775.236,232.163ZM780.335,230.555C780.778,230.303 781.104,230.058 781.32,229.842C781,230.162 780.668,230.392 780.335,230.555Z" style="stroke:black;stroke-width:1px;"/>
            <g transform="matrix(1,0,0,1,-5,0)">
                <path d="M784.113,234.063C805.744,234.063 929.021,227.304 940.603,238.886C971.544,269.825 953.162,502.1 953.162,567.132C953.162,583.52 958.822,715.182 950.162,723.842C946.1,727.904 886.734,723.459 875.748,723.459C852.068,723.459 817.645,721.232 791.628,722.224C790.111,722.282 792.163,678.85 793.481,658.281C794.983,634.864 794.864,453.409 794.864,419.715C794.864,377.879 782.011,349.176 782.011,309.771C782.011,294.879 785.393,270.24 785.393,254.093C785.393,249.225 784.113,231.252 784.113,234.063Z" style="fill:white;stroke:black;stroke-width:7.45px;stroke-linecap:round;stroke-miterlimit:1.5;"/>
            </g>
            <g transform="matrix(1,0,0,1,-5,0)">
                <path d="M785.63,230.33C803.21,230.143 865.586,227.089 905.959,229.017C918.793,229.63 929.459,230.771 935.932,232.604C939.429,233.594 941.884,234.901 943.236,236.253C947.282,240.299 950.695,247.438 953.321,257.109C956.986,270.608 959.319,289.265 960.677,310.907C965.89,393.981 956.886,521.569 956.886,567.132C956.886,580.269 960.503,667.335 957.512,706.078C956.961,713.211 956.161,718.781 955.126,722.111C954.469,724.226 953.607,725.662 952.795,726.474C952.246,727.023 951.318,727.634 949.923,728.051C948.296,728.537 945.59,728.894 942.117,729.08C924.434,730.025 884.563,727.182 875.748,727.182C852.108,727.182 817.743,724.954 791.77,725.944C790.734,725.984 789.618,725.686 788.679,724.556C788.372,724.187 787.762,723.172 787.574,721.396C786.804,714.145 788.567,676.74 789.766,658.043C791.266,634.65 791.141,453.376 791.141,419.715C791.141,377.879 778.288,349.176 778.288,309.771C778.288,294.879 781.67,270.24 781.67,254.093C781.67,250.361 780.762,237.912 780.558,235.174C780.449,234.823 780.39,234.45 780.39,234.063C780.39,231.128 782.568,230.382 782.742,230.312C783.659,229.943 784.641,229.857 785.63,230.33ZM947.598,720.937C947.053,721.062 946.061,721.272 945.175,721.372C942.465,721.678 938.717,721.808 934.357,721.827C914.823,721.914 883.436,719.736 875.748,719.736C853.034,719.736 820.452,717.695 794.848,718.396C794.505,707.826 796.115,675.397 797.197,658.519C798.7,635.079 798.587,453.443 798.587,419.715C798.587,377.879 785.734,349.176 785.734,309.771C785.734,294.879 789.116,270.24 789.116,254.093C789.116,251.028 788.609,242.974 788.209,237.734C808.615,237.328 867.129,234.618 905.604,236.455C916.05,236.954 924.988,237.78 931.199,239.106C934.482,239.807 936.894,240.442 937.971,241.519C941.35,244.898 943.942,250.983 946.135,259.06C949.698,272.185 951.925,290.331 953.245,311.373C958.449,394.296 949.439,521.651 949.439,567.132C949.439,580.215 953.067,666.921 950.088,705.505C949.659,711.055 949.104,715.568 948.358,718.647C948.152,719.498 947.798,720.438 947.598,720.937Z" style="stroke:black;stroke-width:1px;"/>
            </g>
            <path d="M102.503,706.613C102.503,710.194 108.107,742.399 108.962,743.254C115.63,749.922 220.812,785.314 233.524,785.314C235.058,785.314 664.233,759.431 723.685,759.431C758.429,759.431 929.515,752.489 929.515,752.489C929.515,752.489 930.704,727.648 928.897,725.842C926.578,723.522 661.508,729.796 617.183,731.459C607.438,731.825 486.787,741.523 406.617,748.107C381.583,750.163 253.264,754.267 224.172,756.813C214.959,757.619 137.503,719.757 102.503,706.613Z" style="fill:white;stroke:black;stroke-width:7.45px;stroke-linecap:round;stroke-miterlimit:1.5;"/>
            <path d="M103.812,703.128C102.669,702.698 101.387,702.857 100.383,703.553C99.379,704.248 98.78,705.392 98.78,706.613C98.78,709.545 102.404,731.232 104.32,740.234C104.751,742.257 105.125,743.704 105.349,744.306C105.674,745.178 106.101,745.658 106.329,745.887C107.082,746.639 108.785,747.764 111.364,749.042C116.236,751.455 124.746,754.902 135.104,758.768C169.555,771.624 224.511,789.037 233.524,789.037C235.058,789.037 664.233,763.154 723.685,763.154C758.455,763.154 929.666,756.209 929.666,756.209C931.593,756.131 933.141,754.594 933.233,752.667C933.233,752.667 933.998,736.43 933.365,728.991C933.224,727.336 932.989,726.03 932.724,725.231C932.4,724.256 931.93,723.609 931.53,723.209C931.24,722.919 930.712,722.463 929.771,722.194C929.011,721.977 925.911,721.742 920.857,721.668C875.797,721.008 656.961,726.241 617.043,727.739C607.291,728.105 486.545,737.807 406.313,744.396C381.276,746.453 252.943,750.558 223.847,753.104C222.999,753.178 221.427,752.688 219.217,751.991C214.973,750.654 208.981,748.323 201.871,745.371C173.701,733.674 128.342,712.339 103.812,703.128ZM106.913,712.313C136.161,723.929 186.01,747.57 210.024,756.646C217.231,759.37 222.427,760.703 224.496,760.522C253.586,757.976 381.891,753.873 406.922,751.818C487.029,745.238 607.585,735.545 617.322,735.18C657.19,733.684 875.745,728.454 920.748,729.113C922.72,729.142 924.598,729.218 925.93,729.284C926.437,734.019 926.151,743.74 925.946,748.907C901.682,749.883 755.496,755.708 723.685,755.708C664.233,755.708 235.058,781.591 233.524,781.591C224.74,781.591 171.279,764.32 137.707,751.791C127.658,748.041 119.396,744.71 114.669,742.369C113.577,741.828 112.71,741.399 112.14,741.034C110.988,736.513 108.209,721 106.913,712.313Z" style="stroke:black;stroke-width:1px;"/>
            <path d="M794.292,619.774C792.946,619.774 825.546,618.691 838.542,618.691C847.854,618.691 917.116,608.293 921.044,612.221C924.49,615.667 926.044,641.777 926.044,647.192C926.044,655.458 927.891,684.64 921.044,691.488C916.027,696.504 907.211,689.87 900.014,689.87L812.658,689.87C807.513,689.87 788.42,690.925 788.42,690.16" style="fill:white;stroke:black;stroke-width:7.45px;stroke-linecap:round;stroke-miterlimit:1.5;"/>
            <path d="M794.663,623.479L795.001,623.464C799.403,623.289 826.885,622.415 838.542,622.415C846.004,622.415 891.897,615.759 911.97,615.107C914.523,615.024 917.27,615.211 918.495,615.31C918.851,616.396 919.6,618.802 919.978,620.924C921.577,629.9 922.321,643.494 922.321,647.192C922.321,652.094 922.989,664.437 922.054,674.989C921.704,678.936 921.139,682.618 920.177,685.476C919.697,686.902 919.169,688.097 918.411,688.855C917.7,689.566 916.794,689.678 915.829,689.632C914.723,689.578 913.55,689.306 912.339,688.971C908.289,687.852 903.921,686.147 900.014,686.147L812.658,686.147C808.398,686.147 791.683,686.583 789.624,686.637C789.246,686.507 788.841,686.437 788.42,686.437C786.365,686.437 784.697,688.105 784.697,690.16C784.697,690.891 785.17,693.622 788.504,694.033C791.704,694.427 807.938,693.593 812.658,693.593L900.014,693.593C904.116,693.593 908.749,695.956 912.846,696.742C917.027,697.543 920.759,697.037 923.677,694.12C926.131,691.666 927.897,686.905 928.821,681.042C930.658,669.394 929.767,653.079 929.767,647.192C929.767,643.31 928.988,629.04 927.309,619.618C926.755,616.509 926.08,613.887 925.345,612.19C924.836,611.015 924.241,610.153 923.677,609.588C923.103,609.014 922.052,608.35 920.399,608.014C918.64,607.657 915.623,607.538 911.728,607.664C891.721,608.314 845.979,614.968 838.542,614.968C826.806,614.968 799.137,615.848 794.705,616.024C794.187,616.044 793.887,616.067 793.833,616.073C792.327,616.246 791.718,617.038 791.591,617.168C790.493,618.29 790.377,619.497 790.616,620.576C790.638,620.675 791.168,623.497 794.292,623.497C794.417,623.497 794.541,623.491 794.663,623.479ZM791.497,688.066C791.905,688.662 792.143,689.384 792.143,690.16C792.143,689.46 791.979,688.737 791.497,688.066ZM794.497,616.057C795.719,616.123 796.785,616.781 797.414,617.748C796.962,616.98 796.101,616.123 794.497,616.057Z" style="stroke:black;stroke-width:1px;"/>
            <path d="M864.164,689.87C866.336,692.042 866.406,616.383 861.153,616.383" style="fill:white;stroke:black;stroke-width:7.45px;stroke-linecap:round;stroke-miterlimit:1.5;"/>
            <path d="M858.93,619.369C859.029,619.668 859.164,620.102 859.258,620.492C859.687,622.273 860.046,624.757 860.357,627.724C861.955,642.948 862.138,670.22 861.471,682.866C861.365,684.893 861.138,686.925 861.023,687.872C860.105,689.311 860.274,691.246 861.531,692.503C862.928,693.9 864.395,693.905 865.738,693.339C866.309,693.098 866.997,692.665 867.549,691.78C867.808,691.364 868.213,690.399 868.434,688.875C869.693,680.192 869.69,638.573 867.17,622.273C866.508,617.99 865.366,615.146 864.428,614.136C863.407,613.037 862.253,612.66 861.153,612.66C859.098,612.66 857.43,614.328 857.43,616.383C857.43,617.605 858.02,618.69 858.93,619.369ZM864.642,686.179C865.362,686.271 866.06,686.573 866.635,687.086C865.983,686.492 865.306,686.231 864.642,686.179Z" style="stroke:black;stroke-width:1px;"/>
            <path d="M298.232,346.919C298.232,419.745 304.703,504.292 304.703,581.485C304.703,590.956 307.468,668.37 309.556,670.458C316.704,677.605 504.268,655.898 536.033,655.898C553.571,655.898 720.527,655.822 723.685,652.663C724.704,651.644 720.45,615.936 720.45,608.985C720.45,586.237 720.701,475.22 712.362,458.54C706.315,446.446 706.429,362.558 713.979,355.007C715.026,353.961 717.99,345.689 713.979,343.684C697.586,335.487 507.684,350.154 474.561,350.154C418.304,350.154 298.232,339.537 298.232,346.919Z" style="fill:white;stroke:black;stroke-width:7.45px;stroke-linecap:round;stroke-miterlimit:1.5;"/>
            <path d="M294.509,346.919C294.509,419.745 300.98,504.292 300.98,581.485C300.98,589.091 302.755,640.35 304.539,661.623C304.922,666.192 305.34,669.468 305.709,670.829C306.044,672.066 306.595,672.763 306.923,673.09C307.656,673.823 309.374,674.734 312.201,675.131C316.189,675.69 323.419,675.752 332.939,675.409C385.597,673.513 510.637,659.622 536.033,659.622C550.075,659.622 659.82,659.571 704.776,657.933C714.032,657.596 720.619,657.169 723.218,656.688C725.001,656.358 725.961,655.653 726.318,655.296C726.64,654.974 727.546,653.722 727.565,651.41C727.619,644.816 724.173,615.246 724.173,608.985C724.173,593.026 724.293,533.716 721.5,493.833C720.258,476.092 718.294,462.08 715.692,456.875C714.529,454.55 713.739,449.305 713.085,442.441C711.435,425.117 711.314,398.124 712.868,378.711C713.426,371.747 714.191,365.78 715.197,361.649C715.67,359.708 715.994,358.257 716.612,357.64C716.983,357.269 717.559,356.488 718.072,355.35C718.835,353.66 719.658,350.906 719.735,348.347C719.84,344.845 718.534,341.799 715.644,340.354C712.171,338.617 701.37,337.603 685.993,337.486C627.917,337.044 501.063,346.431 474.561,346.431C435.196,346.431 364.574,341.229 325.743,340.64C311.707,340.427 301.621,340.96 298.144,342.307C295.29,343.412 294.509,345.387 294.509,346.919ZM712.155,346.94C712.196,347.154 712.303,347.75 712.292,348.123C712.241,349.809 711.261,352.259 711.109,352.629C710.214,353.638 709.295,355.329 708.564,357.692C707.203,362.085 706.146,369.366 705.446,378.117C703.86,397.926 703.988,425.47 705.673,443.147C706.448,451.284 707.654,457.45 709.031,460.205C711.433,465.008 712.926,477.984 714.072,494.353C716.853,534.056 716.727,593.098 716.727,608.985C716.727,614.767 719.675,640.461 720.074,649.498C717.058,649.771 711.132,650.25 704.505,650.492C659.622,652.127 550.052,652.175 536.033,652.175C510.604,652.175 385.398,666.069 332.671,667.967C325.708,668.218 320.037,668.26 316.073,668.021C314.862,667.948 313.583,667.761 312.714,667.615C312.507,666.132 312.173,663.553 311.959,661.001C310.189,639.893 308.426,589.032 308.426,581.485C308.426,505.01 302.075,421.317 301.958,348.956C302.153,348.912 302.356,348.871 302.551,348.837C304.636,348.479 307.601,348.262 311.291,348.142C343.806,347.081 429.589,353.877 474.561,353.877C501.056,353.877 627.876,344.49 685.936,344.932C694.483,344.997 701.512,345.273 706.462,345.835C709.096,346.135 711.045,346.444 712.155,346.94Z" style="stroke:black;stroke-width:1px;"/>
            <path d="M309.556,630.015C310.285,629.286 542.137,627.147 552.21,617.074C564.637,604.647 553.828,464.719 553.828,440.745C553.828,423.859 565.25,340.35 557.063,348.537" style="fill:white;stroke:black;stroke-width:7.45px;stroke-linecap:round;stroke-miterlimit:1.5;"/>
            <path d="M555.852,352.057C556.048,354.149 556.339,357.991 556.253,361.562C555.702,384.395 550.104,428.912 550.104,440.745C550.104,457.516 555.401,531.069 554.317,577.952C554.044,589.771 553.373,599.863 552.078,606.833C551.408,610.44 550.79,613.094 549.689,614.323C549.428,614.428 548.003,614.993 546.773,615.299C543.369,616.143 538.244,616.91 531.787,617.626C487.415,622.546 381.987,624.641 334.028,625.634C320.393,625.916 311.353,626.116 309.574,626.259C307.816,626.4 307.054,627.252 306.923,627.383C305.47,628.836 305.47,631.195 306.923,632.648C307.816,633.54 309.05,633.885 310.206,633.68C310.87,633.66 321.232,633.347 334.182,633.079C382.303,632.082 488.086,629.964 532.608,625.027C540.699,624.129 546.838,623.115 550.371,622.029C552.628,621.334 554.093,620.456 554.842,619.706C556.151,618.398 557.403,616.083 558.344,612.79C559.464,608.865 560.296,603.315 560.86,596.576C564.463,553.539 557.551,459.963 557.551,440.745C557.551,427.196 564.855,370.877 563.584,353.096C563.303,349.171 562.284,346.643 561.354,345.674C560.435,344.716 559.373,344.298 558.256,344.254C557.183,344.212 555.808,344.526 554.43,345.904C552.977,347.357 552.977,349.716 554.43,351.169C554.844,351.584 555.332,351.88 555.852,352.057Z" style="stroke:black;stroke-width:1px;"/>
            <path d="M548.974,620.309C547.969,619.304 581.122,620.309 587.799,620.309C617.277,620.309 653.031,624.616 676.772,636.486C685.244,640.722 701.032,644.569 705.891,649.428C706.674,650.211 722.894,651.045 713.979,651.045" style="fill:white;stroke:black;stroke-width:7.45px;stroke-linecap:round;stroke-miterlimit:1.5;"/>
            <path d="M550.455,623.725C556.008,623.237 582.001,624.032 587.799,624.032C616.72,624.032 651.815,628.17 675.107,639.816C680.266,642.396 688.093,644.848 694.599,647.45C698.308,648.934 701.571,650.373 703.258,652.06C703.574,652.377 704.613,653.106 706.353,653.421C707.558,653.639 709.87,653.911 711.893,654.129C712.488,654.532 713.206,654.768 713.979,654.768C716.412,654.768 717.541,654.576 717.777,654.499C719.242,654.017 719.76,653.065 720.011,652.536C720.5,651.504 720.521,650.452 720.029,649.38C719.897,649.093 719.165,647.547 716.926,647.172C715.616,646.953 709.398,646.25 707.714,646.061C705.393,644.123 701.662,642.255 697.365,640.536C691.051,638.011 683.444,635.659 678.437,633.156C654.248,621.062 617.834,616.586 587.799,616.586C581.719,616.586 553.942,615.792 549.189,616.369C546.499,616.695 545.629,618.502 545.456,618.979C545.009,620.207 545.008,621.608 546.342,622.942C547.453,624.053 549.094,624.314 550.455,623.725ZM552.683,620.619C552.815,619.668 552.583,618.653 551.607,617.677C552.412,618.482 552.771,619.566 552.683,620.619Z" style="stroke:black;stroke-width:1px;"/>
            <path d="M783.777,281.515C804.456,281.515 910.043,274.446 917.808,282.211C920.639,285.042 932.54,350.275 927.515,355.301C925.088,357.728 857.897,356.625 838.542,356.625C824.531,356.625 785.671,361.098 787.578,359.19" style="fill:white;stroke:black;stroke-width:7.45px;stroke-linecap:round;stroke-miterlimit:1.5;"/>
            <path d="M914.934,284.798C915.28,285.877 916.201,288.847 916.925,291.958C919.588,303.414 923.109,323.577 924.462,338.176C924.896,342.853 925.109,346.941 924.977,349.939C924.944,350.69 924.83,351.523 924.728,352.146C923.421,352.302 921.19,352.542 919.001,352.652C899.982,353.61 853.99,352.902 838.542,352.902C826.957,352.902 793.93,355.474 789.215,355.847C787.826,355.166 786.1,355.404 784.946,356.558C783.569,357.934 783.615,359.35 783.962,360.457C784.188,361.181 785.034,362.923 787.675,363.273C792.755,363.945 825.811,360.348 838.542,360.348C854.062,360.348 900.268,361.052 919.375,360.089C923.609,359.876 926.636,359.534 927.956,359.152C929.093,358.823 929.776,358.305 930.147,357.934C930.963,357.118 931.807,355.528 932.163,353.113C932.65,349.803 932.498,344.193 931.877,337.489C930.295,320.415 925.808,295.906 923.052,285.757C922.104,282.265 920.993,280.131 920.441,279.579C919.676,278.813 918.392,278.023 916.534,277.425C913.708,276.515 909.063,275.849 903.127,275.442C871.391,273.272 800.355,277.792 783.777,277.792C781.722,277.792 780.053,279.461 780.053,281.515C780.053,283.57 781.722,285.239 783.777,285.239C800.285,285.239 871.018,280.71 902.618,282.871C907.097,283.178 910.745,283.608 913.262,284.234C913.844,284.379 914.53,284.636 914.934,284.798ZM791.246,359.824C791.121,360.557 790.776,361.258 790.211,361.823C790.881,361.153 791.171,360.47 791.246,359.824Z" style="stroke:black;stroke-width:1px;"/>
            <path d="M820.747,398.685C820.747,402.832 821.365,413.391 822.365,413.244C829.604,412.181 847.717,412.393 849.865,413.244C851.956,414.073 849.735,398.504 848.248,397.067C846.101,394.994 824.747,398.28 820.747,398.685Z" style="fill:white;stroke:black;stroke-width:7.45px;stroke-linecap:round;stroke-miterlimit:1.5;"/>
            <path d="M848.661,416.767C850.737,417.495 853.788,416.842 854.337,412.483C854.742,409.26 853.694,401.323 852.556,397.623C852.041,395.948 851.315,394.854 850.834,394.39C850.067,393.648 848.055,392.772 845.063,392.679C838.234,392.468 823.636,394.651 820.372,394.981C818.471,395.173 817.024,396.774 817.024,398.685C817.024,402.219 817.48,410.122 818.194,413.063C818.642,414.905 819.586,415.892 820.103,416.256C821.015,416.898 821.965,417.066 822.906,416.928C827.811,416.207 837.873,416.109 844.182,416.387C846.207,416.477 848.431,416.74 848.661,416.767ZM850.654,409.605C850.844,409.645 851.038,409.704 851.237,409.783C851.093,409.726 850.898,409.666 850.654,409.605ZM845.415,400.13C845.796,401.971 846.615,406.138 846.893,409.084C841.607,408.704 831.623,408.687 825.08,409.21C824.818,407.124 824.639,404.327 824.545,401.952L824.545,401.952C830.344,401.168 840.83,399.727 845.415,400.13Z" style="stroke:black;stroke-width:1px;"/>
            <g transform="matrix(1,0,0,1,1,42)">
                <path d="M820.747,398.685C820.747,402.832 821.365,413.391 822.365,413.244C829.604,412.181 847.717,412.393 849.865,413.244C851.956,414.073 849.735,398.504 848.248,397.067C846.101,394.994 824.747,398.28 820.747,398.685Z" style="fill:white;stroke:black;stroke-width:7.45px;stroke-linecap:round;stroke-miterlimit:1.5;"/>
            </g>
            <g transform="matrix(1,0,0,1,1,42)">
                <path d="M848.661,416.767C850.737,417.495 853.788,416.842 854.337,412.483C854.742,409.26 853.694,401.323 852.556,397.623C852.041,395.948 851.315,394.854 850.834,394.39C850.067,393.648 848.055,392.772 845.063,392.679C838.234,392.468 823.636,394.651 820.372,394.981C818.471,395.173 817.024,396.774 817.024,398.685C817.024,402.219 817.48,410.122 818.194,413.063C818.642,414.905 819.586,415.892 820.103,416.256C821.015,416.898 821.965,417.066 822.906,416.928C827.811,416.207 837.873,416.109 844.182,416.387C846.207,416.477 848.431,416.74 848.661,416.767ZM850.654,409.605C850.844,409.645 851.038,409.704 851.237,409.783C851.093,409.726 850.898,409.666 850.654,409.605ZM845.415,400.13C845.796,401.971 846.615,406.138 846.893,409.084C841.607,408.704 831.623,408.687 825.08,409.21C824.818,407.124 824.639,404.327 824.545,401.952L824.545,401.952C830.344,401.168 840.83,399.727 845.415,400.13Z" style="stroke:black;stroke-width:1px;"/>
            </g>
            <g transform="matrix(1,0,0,1,2,84)">
                <path d="M820.747,398.685C820.747,402.832 821.365,413.391 822.365,413.244C829.604,412.181 847.717,412.393 849.865,413.244C851.956,414.073 849.735,398.504 848.248,397.067C846.101,394.994 824.747,398.28 820.747,398.685Z" style="fill:white;stroke:black;stroke-width:7.45px;stroke-linecap:round;stroke-miterlimit:1.5;"/>
            </g>
            <g transform="matrix(1,0,0,1,2,84)">
                <path d="M848.661,416.767C850.737,417.495 853.788,416.842 854.337,412.483C854.742,409.26 853.694,401.323 852.556,397.623C852.041,395.948 851.315,394.854 850.834,394.39C850.067,393.648 848.055,392.772 845.063,392.679C838.234,392.468 823.636,394.651 820.372,394.981C818.471,395.173 817.024,396.774 817.024,398.685C817.024,402.219 817.48,410.122 818.194,413.063C818.642,414.905 819.586,415.892 820.103,416.256C821.015,416.898 821.965,417.066 822.906,416.928C827.811,416.207 837.873,416.109 844.182,416.387C846.207,416.477 848.431,416.74 848.661,416.767ZM850.654,409.605C850.844,409.645 851.038,409.704 851.237,409.783C851.093,409.726 850.898,409.666 850.654,409.605ZM845.415,400.13C845.796,401.971 846.615,406.138 846.893,409.084C841.607,408.704 831.623,408.687 825.08,409.21C824.818,407.124 824.639,404.327 824.545,401.952L824.545,401.952C830.344,401.168 840.83,399.727 845.415,400.13Z" style="stroke:black;stroke-width:1px;"/>
            </g>
            <g transform="matrix(1,0,0,1,3,126)">
                <path d="M820.747,398.685C820.747,402.832 821.365,413.391 822.365,413.244C829.604,412.181 847.717,412.393 849.865,413.244C851.956,414.073 849.735,398.504 848.248,397.067C846.101,394.994 824.747,398.28 820.747,398.685Z" style="fill:white;stroke:black;stroke-width:7.45px;stroke-linecap:round;stroke-miterlimit:1.5;"/>
            </g>
            <g transform="matrix(1,0,0,1,3,126)">
                <path d="M848.661,416.767C850.737,417.495 853.788,416.842 854.337,412.483C854.742,409.26 853.694,401.323 852.556,397.623C852.041,395.948 851.315,394.854 850.834,394.39C850.067,393.648 848.055,392.772 845.063,392.679C838.234,392.468 823.636,394.651 820.372,394.981C818.471,395.173 817.024,396.774 817.024,398.685C817.024,402.219 817.48,410.122 818.194,413.063C818.642,414.905 819.586,415.892 820.103,416.256C821.015,416.898 821.965,417.066 822.906,416.928C827.811,416.207 837.873,416.109 844.182,416.387C846.207,416.477 848.431,416.74 848.661,416.767ZM850.654,409.605C850.844,409.645 851.038,409.704 851.237,409.783C851.093,409.726 850.898,409.666 850.654,409.605ZM845.415,400.13C845.796,401.971 846.615,406.138 846.893,409.084C841.607,408.704 831.623,408.687 825.08,409.21C824.818,407.124 824.639,404.327 824.545,401.952L824.545,401.952C830.344,401.168 840.83,399.727 845.415,400.13Z" style="stroke:black;stroke-width:1px;"/>
            </g>
            <g transform="matrix(1,0,0,1,4,168)">
                <path d="M820.747,398.685C820.747,402.832 821.365,413.391 822.365,413.244C829.604,412.181 847.717,412.393 849.865,413.244C851.956,414.073 849.735,398.504 848.248,397.067C846.101,394.994 824.747,398.28 820.747,398.685Z" style="fill:white;stroke:black;stroke-width:7.45px;stroke-linecap:round;stroke-miterlimit:1.5;"/>
            </g>
            <g transform="matrix(1,0,0,1,4,168)">
                <path d="M848.661,416.767C850.737,417.495 853.788,416.842 854.337,412.483C854.742,409.26 853.694,401.323 852.556,397.623C852.041,395.948 851.315,394.854 850.834,394.39C850.067,393.648 848.055,392.772 845.063,392.679C838.234,392.468 823.636,394.651 820.372,394.981C818.471,395.173 817.024,396.774 817.024,398.685C817.024,402.219 817.48,410.122 818.194,413.063C818.642,414.905 819.586,415.892 820.103,416.256C821.015,416.898 821.965,417.066 822.906,416.928C827.811,416.207 837.873,416.109 844.182,416.387C846.207,416.477 848.431,416.74 848.661,416.767ZM850.654,409.605C850.844,409.645 851.038,409.704 851.237,409.783C851.093,409.726 850.898,409.666 850.654,409.605ZM845.415,400.13C845.796,401.971 846.615,406.138 846.893,409.084C841.607,408.704 831.623,408.687 825.08,409.21C824.818,407.124 824.639,404.327 824.545,401.952L824.545,401.952C830.344,401.168 840.83,399.727 845.415,400.13Z" style="stroke:black;stroke-width:1px;"/>
            </g>
            <g transform="matrix(1,0,0,1,55,-2)">
                <path d="M820.747,398.685C820.747,402.832 821.365,413.391 822.365,413.244C829.604,412.181 847.717,412.393 849.865,413.244C851.956,414.073 849.735,398.504 848.248,397.067C846.101,394.994 824.747,398.28 820.747,398.685Z" style="fill:white;stroke:black;stroke-width:7.45px;stroke-linecap:round;stroke-miterlimit:1.5;"/>
            </g>
            <g transform="matrix(1,0,0,1,55,-2)">
                <path d="M848.661,416.767C850.737,417.495 853.788,416.842 854.337,412.483C854.742,409.26 853.694,401.323 852.556,397.623C852.041,395.948 851.315,394.854 850.834,394.39C850.067,393.648 848.055,392.772 845.063,392.679C838.234,392.468 823.636,394.651 820.372,394.981C818.471,395.173 817.024,396.774 817.024,398.685C817.024,402.219 817.48,410.122 818.194,413.063C818.642,414.905 819.586,415.892 820.103,416.256C821.015,416.898 821.965,417.066 822.906,416.928C827.811,416.207 837.873,416.109 844.182,416.387C846.207,416.477 848.431,416.74 848.661,416.767ZM850.654,409.605C850.844,409.645 851.038,409.704 851.237,409.783C851.093,409.726 850.898,409.666 850.654,409.605ZM845.415,400.13C845.796,401.971 846.615,406.138 846.893,409.084C841.607,408.704 831.623,408.687 825.08,409.21C824.818,407.124 824.639,404.327 824.545,401.952L824.545,401.952C830.344,401.168 840.83,399.727 845.415,400.13Z" style="stroke:black;stroke-width:1px;"/>
            </g>
            <g transform="matrix(1,0,0,1,55,39)">
                <path d="M820.747,398.685C820.747,402.832 821.365,413.391 822.365,413.244C829.604,412.181 847.717,412.393 849.865,413.244C851.956,414.073 849.735,398.504 848.248,397.067C846.101,394.994 824.747,398.28 820.747,398.685Z" style="fill:white;stroke:black;stroke-width:7.45px;stroke-linecap:round;stroke-miterlimit:1.5;"/>
            </g>
            <g transform="matrix(1,0,0,1,55,39)">
                <path d="M848.661,416.767C850.737,417.495 853.788,416.842 854.337,412.483C854.742,409.26 853.694,401.323 852.556,397.623C852.041,395.948 851.315,394.854 850.834,394.39C850.067,393.648 848.055,392.772 845.063,392.679C838.234,392.468 823.636,394.651 820.372,394.981C818.471,395.173 817.024,396.774 817.024,398.685C817.024,402.219 817.48,410.122 818.194,413.063C818.642,414.905 819.586,415.892 820.103,416.256C821.015,416.898 821.965,417.066 822.906,416.928C827.811,416.207 837.873,416.109 844.182,416.387C846.207,416.477 848.431,416.74 848.661,416.767ZM850.654,409.605C850.844,409.645 851.038,409.704 851.237,409.783C851.093,409.726 850.898,409.666 850.654,409.605ZM845.415,400.13C845.796,401.971 846.615,406.138 846.893,409.084C841.607,408.704 831.623,408.687 825.08,409.21C824.818,407.124 824.639,404.327 824.545,401.952L824.545,401.952C830.344,401.168 840.83,399.727 845.415,400.13Z" style="stroke:black;stroke-width:1px;"/>
            </g>
            <g transform="matrix(1,0,0,1,55,80)">
                <path d="M820.747,398.685C820.747,402.832 821.365,413.391 822.365,413.244C829.604,412.181 847.717,412.393 849.865,413.244C851.956,414.073 849.735,398.504 848.248,397.067C846.101,394.994 824.747,398.28 820.747,398.685Z" style="fill:white;stroke:black;stroke-width:7.45px;stroke-linecap:round;stroke-miterlimit:1.5;"/>
            </g>
            <g transform="matrix(1,0,0,1,55,80)">
                <path d="M848.661,416.767C850.737,417.495 853.788,416.842 854.337,412.483C854.742,409.26 853.694,401.323 852.556,397.623C852.041,395.948 851.315,394.854 850.834,394.39C850.067,393.648 848.055,392.772 845.063,392.679C838.234,392.468 823.636,394.651 820.372,394.981C818.471,395.173 817.024,396.774 817.024,398.685C817.024,402.219 817.48,410.122 818.194,413.063C818.642,414.905 819.586,415.892 820.103,416.256C821.015,416.898 821.965,417.066 822.906,416.928C827.811,416.207 837.873,416.109 844.182,416.387C846.207,416.477 848.431,416.74 848.661,416.767ZM850.654,409.605C850.844,409.645 851.038,409.704 851.237,409.783C851.093,409.726 850.898,409.666 850.654,409.605ZM845.415,400.13C845.796,401.971 846.615,406.138 846.893,409.084C841.607,408.704 831.623,408.687 825.08,409.21C824.818,407.124 824.639,404.327 824.545,401.952L824.545,401.952C830.344,401.168 840.83,399.727 845.415,400.13Z" style="stroke:black;stroke-width:1px;"/>
            </g>
            <g transform="matrix(1,0,0,1,55,121)">
                <path d="M820.747,398.685C820.747,402.832 821.365,413.391 822.365,413.244C829.604,412.181 847.717,412.393 849.865,413.244C851.956,414.073 849.735,398.504 848.248,397.067C846.101,394.994 824.747,398.28 820.747,398.685Z" style="fill:white;stroke:black;stroke-width:7.45px;stroke-linecap:round;stroke-miterlimit:1.5;"/>
            </g>
            <g transform="matrix(1,0,0,1,55,121)">
                <path d="M848.661,416.767C850.737,417.495 853.788,416.842 854.337,412.483C854.742,409.26 853.694,401.323 852.556,397.623C852.041,395.948 851.315,394.854 850.834,394.39C850.067,393.648 848.055,392.772 845.063,392.679C838.234,392.468 823.636,394.651 820.372,394.981C818.471,395.173 817.024,396.774 817.024,398.685C817.024,402.219 817.48,410.122 818.194,413.063C818.642,414.905 819.586,415.892 820.103,416.256C821.015,416.898 821.965,417.066 822.906,416.928C827.811,416.207 837.873,416.109 844.182,416.387C846.207,416.477 848.431,416.74 848.661,416.767ZM850.654,409.605C850.844,409.645 851.038,409.704 851.237,409.783C851.093,409.726 850.898,409.666 850.654,409.605ZM845.415,400.13C845.796,401.971 846.615,406.138 846.893,409.084C841.607,408.704 831.623,408.687 825.08,409.21C824.818,407.124 824.639,404.327 824.545,401.952L824.545,401.952C830.344,401.168 840.83,399.727 845.415,400.13Z" style="stroke:black;stroke-width:1px;"/>
            </g>
            <g transform="matrix(1,0,0,1,55,162)">
                <path d="M820.747,398.685C820.747,402.832 821.365,413.391 822.365,413.244C829.604,412.181 847.717,412.393 849.865,413.244C851.956,414.073 849.735,398.504 848.248,397.067C846.101,394.994 824.747,398.28 820.747,398.685Z" style="fill:white;stroke:black;stroke-width:7.45px;stroke-linecap:round;stroke-miterlimit:1.5;"/>
            </g>
            <g transform="matrix(1,0,0,1,55,162)">
                <path d="M848.661,416.767C850.737,417.495 853.788,416.842 854.337,412.483C854.742,409.26 853.694,401.323 852.556,397.623C852.041,395.948 851.315,394.854 850.834,394.39C850.067,393.648 848.055,392.772 845.063,392.679C838.234,392.468 823.636,394.651 820.372,394.981C818.471,395.173 817.024,396.774 817.024,398.685C817.024,402.219 817.48,410.122 818.194,413.063C818.642,414.905 819.586,415.892 820.103,416.256C821.015,416.898 821.965,417.066 822.906,416.928C827.811,416.207 837.873,416.109 844.182,416.387C846.207,416.477 848.431,416.74 848.661,416.767ZM850.654,409.605C850.844,409.645 851.038,409.704 851.237,409.783C851.093,409.726 850.898,409.666 850.654,409.605ZM845.415,400.13C845.796,401.971 846.615,406.138 846.893,409.084C841.607,408.704 831.623,408.687 825.08,409.21C824.818,407.124 824.639,404.327 824.545,401.952L824.545,401.952C830.344,401.168 840.83,399.727 845.415,400.13Z" style="stroke:black;stroke-width:1px;"/>
            </g>
            <path d="M66.902,290.3C104.7,271.401 153.943,262.956 196.317,241.769C198.461,240.697 206.067,235.342 207.641,236.916C219.148,248.423 212.112,428.044 212.112,458.57C212.112,470.973 210.689,538.415 214.112,558.837C215.644,567.981 224.172,756.813 224.172,756.813C224.172,756.813 140.506,721.525 133.61,718.077C108.509,705.526 93.693,708.572 76.608,691.488C75.978,690.857 68.52,335.48 68.52,304.859C68.52,298.388 66.902,290.3 66.902,290.3Z" style="fill:white;stroke:white;stroke-width:7.45px;stroke-linecap:round;stroke-miterlimit:1.5;"/>
            <path d="M65.237,286.97C63.735,287.72 62.922,289.384 63.251,291.03C63.251,291.03 64.796,298.712 64.796,304.859C64.796,332.426 70.839,623.119 72.507,681.442C72.678,687.426 72.812,691.026 72.882,691.733C73.041,693.324 73.844,693.989 73.975,694.12C83.017,703.162 91.442,706.906 100.943,710.02C109.774,712.915 119.598,715.234 131.945,721.407C138.858,724.864 222.725,760.244 222.725,760.244C223.902,760.74 225.252,760.598 226.3,759.868C227.348,759.138 227.949,757.921 227.891,756.645C227.891,756.645 219.32,567.386 217.784,558.221C214.382,537.925 215.835,470.897 215.835,458.57C215.835,434.113 220.333,314.097 216.237,261.169C215.493,251.558 214.44,244.084 213.077,239.642C212.277,237.037 211.255,235.265 210.274,234.283C209.258,233.267 207.567,232.588 205.291,233.071C202.229,233.722 196.514,237.508 194.652,238.439C152.278,259.626 103.035,268.071 65.237,286.97ZM205.741,240.949C205.977,241.656 206.187,242.557 206.439,243.609C207.451,247.839 208.218,254.062 208.813,261.743C212.897,314.518 208.389,434.185 208.389,458.57C208.389,471.049 206.997,538.904 210.44,559.452C211.807,567.61 218.735,719.121 220.186,751.09C201.556,743.223 141.087,717.653 135.275,714.747C122.52,708.37 112.386,705.935 103.263,702.945C95.162,700.289 87.912,697.17 80.244,689.834C80.179,688.234 80.061,685.102 79.95,681.229C78.283,622.939 72.243,332.41 72.243,304.859C72.243,300.516 71.552,295.479 71.054,292.409C108.508,274.357 156.532,265.824 197.982,245.099C199.172,244.504 203.645,242.086 205.741,240.949Z" style="stroke:black;stroke-width:1px;"/>
        </g>
    </g>
</svg>
