<?xml version="1.0" encoding="UTF-8" standalone="no"?>
<!DOCTYPE svg PUBLIC "-//W3C//DTD SVG 1.1//EN" "http://www.w3.org/Graphics/SVG/1.1/DTD/svg11.dtd">
<svg width="100%" height="100%" viewBox="0 0 492 492" version="1.1" xmlns="http://www.w3.org/2000/svg" xmlns:xlink="http://www.w3.org/1999/xlink" xml:space="preserve" xmlns:serif="http://www.serif.com/" style="fill-rule:evenodd;clip-rule:evenodd;stroke-linecap:round;stroke-linejoin:round;stroke-miterlimit:1.5;">
    <g transform="matrix(0.48,0,0,0.48,0,0)">
        <g>
            <path d="M357.593,680.835C357.593,678.393 345.981,688.883 343.733,689.835C304.571,706.416 271.992,738.096 256.38,752.757C237.676,770.323 225.172,800.666 222.687,820.136C216.625,867.628 223.829,914.439 264.845,957.281C283.384,976.644 299.477,985.001 314.434,994.545C328.92,1003.79 429.454,996.687 452.315,985.72C457.353,983.303 478.915,980.963 485.754,981.325C512.885,982.759 551.776,976.955 569.336,968.175C601.039,952.324 665.692,981.526 686.532,971.105C692.72,968.011 658.598,864.509 635.259,842.19C600.973,809.402 567.746,787.633 519.527,782.127C507.863,780.794 445.254,788.426 437.49,780.662C425.182,768.353 435.175,727.334 435.175,737.643" style="fill:white;"/>
            <path d="M441.305,776.623C438.266,773.478 437.344,767.962 437.007,762.317C436.586,755.264 438.014,746.287 438.851,741.798C440,740.782 440.725,739.296 440.725,737.643C440.725,733.045 438.151,731.429 437.403,731.053C436.091,730.392 431.174,729.482 429.055,734.981C427.638,738.658 425.224,751.202 425.927,762.979C426.445,771.662 428.813,779.834 433.566,784.586C434.757,785.778 436.626,786.907 439.202,787.704C443.069,788.9 449.122,789.533 456.301,789.699C477.934,790.198 510.797,786.716 518.898,787.641C565.808,792.998 598.068,814.302 631.423,846.201C636.704,851.251 642.476,860.771 648.262,872.272C662.373,900.319 676.04,939.98 680.395,959.841C680.965,962.443 681.329,965.283 681.524,967.081C678.322,967.943 674.294,968.005 669.705,967.739C659.299,967.138 646.378,964.507 632.974,962.138C608.99,957.901 583.579,954.849 566.854,963.211C549.882,971.697 512.27,977.169 486.047,975.783C478.653,975.392 455.362,978.103 449.914,980.716C434.288,988.212 381.465,993.62 346.344,993.237C337.438,993.14 329.684,992.667 324.002,991.714C321.028,991.215 318.734,990.704 317.42,989.866C302.782,980.526 286.998,972.393 268.854,953.442C229.204,912.028 222.332,866.749 228.192,820.838C230.553,802.339 242.407,773.494 260.18,756.803C275.509,742.407 307.444,711.226 345.897,694.945C346.811,694.558 349.018,693.036 351.495,691.102C353.386,689.626 356.404,687.443 357.89,686.376C360.815,686.222 363.143,683.798 363.143,680.835C363.143,678.984 362.433,677.717 361.592,676.804C360.63,675.759 359.309,674.991 357.476,674.922C356.515,674.885 354.589,675.244 352.379,676.626C349.224,678.6 341.387,684.8 341.387,684.8C341.387,684.8 341.524,684.743 341.569,684.724C301.698,701.605 268.475,733.785 252.581,748.712C232.945,767.153 219.79,798.994 217.181,819.433C210.918,868.508 218.454,916.85 260.837,961.119C279.771,980.895 296.173,989.476 311.449,999.223C313.612,1000.6 317.27,1001.84 322.165,1002.66C328.284,1003.69 336.633,1004.23 346.223,1004.34C383.034,1004.74 438.337,998.581 454.715,990.724C459.344,988.503 479.178,986.535 485.461,986.867C513.5,988.349 553.67,982.213 571.818,973.139C578.701,969.698 587.323,968.731 596.679,968.926C611.924,969.243 629.013,972.741 644.438,975.475C655.258,977.393 665.301,978.938 673.463,978.961C679.744,978.978 685.035,978.059 689.014,976.069C690.365,975.394 691.763,974.13 692.427,971.765C693.026,969.635 692.789,964.54 691.237,957.464C686.753,937.013 672.708,896.163 658.178,867.283C651.689,854.387 645.016,843.842 639.095,838.178C603.879,804.501 569.684,782.269 520.157,776.612C511.927,775.672 478.535,779.109 456.558,778.602C451.396,778.482 446.92,778.155 443.704,777.422C442.771,777.21 441.537,776.717 441.305,776.623ZM352.422,682.852L352.435,682.881L352.383,682.749L352.422,682.852ZM352.072,681.407C352.119,681.902 352.225,682.343 352.379,682.739C352.225,682.317 352.12,681.871 352.072,681.407ZM352.055,681.217L352.071,681.39L352.053,681.151L352.055,681.217Z"/>
            <path d="M411.261,657.535C408.379,660.417 395.71,657.772 382.182,660.535C366.392,663.762 364.931,671.567 355.453,681.045C353.614,682.884 356.69,685.211 356.918,685.44C366.04,694.561 377.041,700.773 392.077,711.809C401.023,718.375 418.484,728.838 424.99,732.923C437.081,740.514 437.527,735.44 443.675,729.643C456.093,717.934 452.023,712.658 452.929,704.739C454.184,693.785 448.26,682.311 443.605,678.251C440.549,675.586 437.205,674.724 433.908,674.485C428.764,674.111 423.733,675.254 420.086,673.43C414.046,670.41 414.954,657.535 411.261,657.535Z" style="fill:white;"/>
            <path d="M407.915,653.109C407.358,653.183 405.194,653.455 403.551,653.492C397.725,653.623 389.561,653.363 381.071,655.098C369.941,657.372 364.892,661.619 360.211,667.029C357.633,670.009 355.209,673.44 351.528,677.12C348.755,679.893 348.8,682.938 350.083,685.675C350.934,687.493 353.208,689.566 353.208,689.566C353.208,689.566 353.036,689.407 352.993,689.364C362.29,698.66 373.469,705.035 388.793,716.283C397.831,722.917 415.466,733.497 422.039,737.624C428.519,741.692 432.672,742.57 435.646,742.232C438.132,741.95 440.162,740.925 442.083,739.255C443.674,737.872 445.203,735.83 447.482,733.681C458.086,723.682 458.552,717.389 458.426,711.283C458.387,709.378 458.202,707.48 458.443,705.37C459.928,692.404 452.763,678.875 447.253,674.069C443.165,670.502 438.722,669.269 434.309,668.949C431.59,668.752 428.901,668.94 426.409,668.951C424.992,668.958 423.664,669.014 422.568,668.466C421.645,668.005 421.415,666.808 421.019,665.717C420.121,663.247 419.58,660.545 418.897,658.578C417.298,653.971 414.256,651.985 411.261,651.985C410.046,651.985 408.872,652.384 407.915,653.109ZM408.891,664.206C409.436,666.084 410.199,668.567 410.884,670.295C412.307,673.881 414.509,676.847 417.604,678.394C419.739,679.462 422.177,679.93 424.841,680.028C427.51,680.126 430.488,679.801 433.506,680.02C435.689,680.178 437.934,680.669 439.957,682.434C443.756,685.748 448.439,695.167 447.415,704.107C447.202,705.974 447.21,707.716 447.263,709.419C447.334,711.678 447.601,713.843 446.769,716.35C445.906,718.946 443.89,721.811 439.867,725.605C438.233,727.146 436.971,728.633 435.806,729.88C435.292,730.431 434.902,730.972 434.34,731.218C433.96,731.383 433.555,731.086 432.91,730.848C431.559,730.349 429.95,729.484 427.941,728.223C421.502,724.18 404.214,713.833 395.361,707.335C381.123,696.885 370.543,690.886 361.779,682.434C364.428,679.497 366.474,676.755 368.606,674.291C371.893,670.492 375.475,667.57 383.293,665.973C392.475,664.097 401.252,664.842 406.649,664.469C407.443,664.414 408.191,664.325 408.891,664.206Z"/>
            <path d="M354.034,688.771C320.036,711.436 278.272,755.317 267.534,798.271C263.582,814.08 258.473,842.088 268.534,884.271C271.243,895.63 283.6,920.836 292.034,929.271C321.603,958.84 337.094,962.801 375.034,981.771" style="fill:white;"/>
            <path d="M350.955,684.153C315.983,707.468 273.196,752.741 262.15,796.925C258.076,813.218 252.767,842.084 263.135,885.558C266.006,897.593 279.174,924.259 288.11,933.195C318.213,963.299 333.926,967.422 372.552,986.735C375.292,988.105 378.628,986.992 379.998,984.253C381.368,981.513 380.256,978.176 377.516,976.807C340.262,958.18 324.993,954.381 295.959,925.346C288.026,917.414 276.481,893.667 273.933,882.983C264.18,842.092 269.087,814.942 272.918,799.617C283.349,757.894 324.088,715.405 357.113,693.389C359.661,691.689 360.351,688.241 358.652,685.692C356.953,683.143 353.504,682.454 350.955,684.153Z"/>
            <path d="M433.534,775.271C433.534,779.65 427.704,783.761 420.534,798.271C412.936,813.647 407.055,830.644 404.034,848.771C403.204,853.75 403.672,887.824 406.034,897.271C408.725,908.035 416.867,923.551 424.034,931.271C447.088,956.102 540.283,968.458 581.534,963.271" style="fill:white;"/>
            <path d="M427.984,775.271C427.984,775.505 427.805,775.696 427.669,775.956C427.346,776.576 426.919,777.237 426.416,777.984C423.963,781.636 420.017,786.788 415.558,795.812C407.728,811.658 401.673,829.177 398.56,847.858C397.691,853.069 398.178,888.73 400.65,898.617C403.534,910.154 412.285,926.773 419.967,935.047C427.363,943.013 441.399,949.993 458.772,955.412C497.41,967.463 552.793,972.478 582.226,968.777C585.266,968.395 587.423,965.617 587.041,962.578C586.659,959.539 583.881,957.382 580.842,957.764C556.557,960.818 513.93,957.618 478.825,949.353C456.283,944.046 436.816,936.881 428.101,927.494C421.449,920.329 413.916,905.916 411.418,895.925C409.167,886.918 408.717,854.43 409.509,849.683C412.437,832.11 418.144,815.635 425.51,800.729C430.428,790.775 434.723,785.827 436.846,782.274C438.395,779.68 439.084,777.464 439.084,775.271C439.084,772.208 436.597,769.721 433.534,769.721C430.471,769.721 427.984,772.208 427.984,775.271Z"/>
            <path d="M419.534,804.271C417.605,806.2 427.686,812.988 430.034,813.771C441.767,817.682 453.509,819.771 467.034,819.771C487.066,819.771 509.305,818.797 528.034,810.771C535.182,807.707 538.645,806.771 548.034,802.271" style="fill:white;"/>
            <path d="M425.05,803.674C424.92,802.458 424.39,801.277 423.458,800.346C421.292,798.18 417.776,798.18 415.61,800.346C413.636,802.32 412.781,805.284 414.915,808.802C415.833,810.316 417.794,812.301 420.093,814.082C423.205,816.492 426.88,818.569 428.279,819.036C440.569,823.132 452.868,825.321 467.034,825.321C487.79,825.321 510.814,824.189 530.22,815.872C537.445,812.776 540.943,811.824 550.433,807.275C553.195,805.952 554.363,802.634 553.039,799.872C551.715,797.11 548.397,795.942 545.635,797.266C536.347,801.717 532.919,802.639 525.848,805.669C507.796,813.406 486.342,814.221 467.034,814.221C454.151,814.221 442.966,812.231 431.789,808.505C430.934,808.22 428.793,806.78 426.89,805.306C426.291,804.842 425.562,804.167 425.05,803.674ZM423.631,808.013L423.459,808.195C423.518,808.135 423.576,808.075 423.631,808.013ZM423.772,807.852L423.738,807.891L423.764,807.862L423.772,807.852Z"/>
            <path d="M410.534,832.271C415.482,837.219 419.966,841.237 428.034,845.271C474.438,868.472 537.036,858.87 580.534,832.771" style="fill:white;"/>
            <path d="M406.61,836.195C411.961,841.547 416.826,845.872 425.552,850.235C473.575,874.246 538.374,864.539 583.39,837.53C586.016,835.954 586.869,832.542 585.293,829.915C583.717,827.289 580.305,826.436 577.679,828.012C535.697,853.2 475.302,862.699 430.516,840.307C423.106,836.602 419.003,832.891 414.459,828.346C412.293,826.18 408.776,826.18 406.61,828.346C404.444,830.512 404.444,834.029 406.61,836.195Z"/>
            <path d="M406.034,891.271C422.763,903.364 448.744,898.513 462.534,901.271C475.353,903.834 490.397,900.576 503.034,898.771C528.341,895.155 557.361,889.075 579.534,875.771C591.949,868.321 603.462,859.319 615.534,851.271" style="fill:white;"/>
            <path d="M402.783,895.768C411.99,902.425 423.69,904.602 435.04,905.311C445.067,905.936 454.74,905.372 461.446,906.713C474.855,909.395 490.6,906.153 503.819,904.265C529.821,900.55 559.607,894.199 582.39,880.53C594.88,873.035 606.467,863.986 618.613,855.888C621.161,854.189 621.851,850.741 620.152,848.192C618.453,845.643 615.004,844.954 612.455,846.653C600.456,854.652 589.019,863.608 576.679,871.012C555.114,883.95 526.861,889.76 502.249,893.276C490.193,894.999 475.852,898.274 463.622,895.828C456.538,894.412 446.325,894.893 435.732,894.232C426.461,893.653 416.807,892.21 409.286,886.773C406.803,884.978 403.331,885.537 401.536,888.019C399.742,890.502 400.3,893.974 402.783,895.768Z"/>
            <path d="M367.534,700.771C357.938,710.367 350.383,725.91 343.034,738.771C312.488,792.227 304.614,846.51 324.034,904.771C333.421,932.931 360.979,951.493 385.534,963.771C393.775,967.891 402.961,970.913 411.534,973.771C412.785,974.188 420.034,976.85 420.034,973.771" style="fill:white;"/>
            <path d="M416.63,969.39C415.417,969.082 413.662,968.63 413.289,968.505C404.959,965.729 396.024,962.811 388.016,958.807C364.68,947.138 338.22,929.779 329.299,903.016C310.405,846.335 318.135,793.531 347.853,741.524C354.963,729.081 362.174,713.98 371.458,704.695C373.624,702.529 373.625,699.012 371.459,696.846C369.293,694.68 365.776,694.68 363.61,696.846C353.701,706.754 345.803,722.738 338.215,736.017C306.841,790.923 298.822,846.686 318.769,906.526C328.622,936.084 357.278,955.848 383.052,968.735C391.526,972.971 400.964,976.098 409.779,979.036C410.95,979.426 416.097,981.054 419.052,980.723C421.246,980.477 422.89,979.509 423.967,978.246C424.927,977.12 425.584,975.679 425.584,973.771C425.584,970.708 423.097,968.221 420.034,968.221C418.751,968.221 417.569,968.657 416.63,969.39ZM414.49,973.549C414.486,973.621 414.484,973.695 414.484,973.771L414.49,973.549Z"/>
            <path d="M388.534,714.771C388.534,717.234 378.597,731.644 377.034,734.771C372.997,742.844 365.024,758.802 362.034,767.771C352.563,796.184 344.519,821.209 352.534,853.271C355.527,865.241 357.631,889.964 377.534,915.271C381.897,920.818 377.534,916.936 377.534,915.271" style="fill:white;"/>
            <path d="M383.058,713.869C382.506,714.77 373.403,729.622 372.07,732.289C367.945,740.537 359.823,756.852 356.769,766.016C346.957,795.451 338.846,821.401 347.15,854.617C350.224,866.913 352.545,892.151 372.732,918.135C373.268,919.372 374.03,920.612 374.79,921.438C376.106,922.868 377.545,923.397 378.053,923.526C380.773,924.216 382.563,923.086 383.724,921.697C384.438,920.842 385.243,919.509 384.979,917.4C384.929,917.003 384.524,915.18 381.896,911.84C362.682,887.409 360.807,863.481 357.918,851.925C350.191,821.016 358.169,796.916 367.299,769.526C370.224,760.751 378.049,745.151 381.998,737.253C383.245,734.759 389.839,725.068 392.425,720.032C393.65,717.646 394.084,715.702 394.084,714.771C394.084,711.707 391.597,709.221 388.534,709.221C385.778,709.221 383.488,711.234 383.058,713.869Z"/>
            <path d="M496.034,937.271C510.804,940.963 536.293,936.087 550.034,933.271C582.481,926.621 595.793,915.598 619.034,896.771C626.461,890.754 647.534,873.272 647.534,866.771" style="fill:white;"/>
            <path d="M641.995,866.44C641.801,866.766 640.138,869.542 638.574,871.362C632.116,878.871 620.579,888.377 615.541,892.458C593.082,910.651 580.274,921.408 548.92,927.834C535.8,930.522 511.482,935.412 497.38,931.886C494.409,931.143 491.393,932.953 490.65,935.924C489.907,938.896 491.716,941.912 494.688,942.655C510.127,946.515 536.785,941.651 551.148,938.708C584.688,931.835 598.504,920.544 622.528,901.083C627.887,896.742 640.121,886.587 646.99,878.599C650.996,873.941 653.084,869.506 653.084,866.771C653.084,863.708 650.597,861.221 647.534,861.221C644.582,861.221 642.165,863.53 641.995,866.44Z"/>
            <path d="M614.034,928.771C624.374,928.771 651.79,925.142 659.534,921.271C662.561,919.757 667.624,917.271 671.034,917.271" style="fill:white;"/>
            <path d="M614.034,934.321C624.945,934.321 653.845,930.32 662.016,926.235C664.413,925.036 668.334,922.821 671.034,922.821C674.097,922.821 676.584,920.334 676.584,917.271C676.584,914.207 674.097,911.721 671.034,911.721C666.913,911.721 660.71,914.478 657.052,916.307C649.736,919.965 623.804,923.221 614.034,923.221C610.971,923.221 608.484,925.707 608.484,928.771C608.484,931.834 610.971,934.321 614.034,934.321Z"/>
            <path d="M413.359,654.189C463.382,558.105 662.099,142.494 699.699,42.15C704.979,28.057 715.65,31.198 721.109,32.635C726.568,34.071 741.921,42.733 733.453,54.769C666.283,150.233 494.076,562.165 444.561,669.652C438.861,682.024 407.068,666.272 413.359,654.189Z" style="fill:white;stroke:black;stroke-width:16.91px;"/>
        </g>
    </g>
</svg>
