<svg viewBox="0 0 492 492" xmlns="http://www.w3.org/2000/svg" xml:space="preserve" style="fill-rule:evenodd;clip-rule:evenodd;stroke-linecap:round;stroke-linejoin:round;stroke-miterlimit:1.5"><path d="M357.593 680.835c0-2.442-11.612 8.048-13.86 9-39.162 16.581-71.741 48.261-87.353 62.922-18.704 17.566-31.208 47.909-33.693 67.379-6.062 47.492 1.142 94.303 42.158 137.145 18.539 19.363 34.632 27.72 49.589 37.264 14.486 9.245 115.02 2.142 137.881-8.825 5.038-2.417 26.6-4.757 33.439-4.395 27.131 1.434 66.022-4.37 83.582-13.15 31.703-15.851 96.356 13.351 117.196 2.93 6.188-3.094-27.934-106.596-51.273-128.915-34.286-32.788-67.513-54.557-115.732-60.063-11.664-1.333-74.273 6.299-82.037-1.465-12.308-12.309-2.315-53.328-2.315-43.019" style="fill:#fff" transform="scale(.48)"/><path d="M211.826 372.779c-1.458-1.51-1.9-4.157-2.063-6.867-.202-3.385.484-7.694.885-9.849.552-.488.9-1.2.9-1.994 0-2.207-1.236-2.983-1.595-3.164-.63-.317-2.99-.754-4.007 1.886-.68 1.765-1.838 7.786-1.501 13.439.249 4.168 1.385 8.09 3.667 10.371.571.572 1.468 1.114 2.705 1.497 1.856.574 4.762.878 8.207.958 10.384.239 26.159-1.432 30.047-.988 22.517 2.571 38.002 12.797 54.012 28.108 2.535 2.424 5.305 6.994 8.083 12.515 6.773 13.462 13.333 32.5 15.424 42.033.273 1.249.448 2.612.542 3.475-1.537.414-3.47.443-5.674.316-4.994-.289-11.197-1.552-17.63-2.689-11.513-2.034-23.71-3.498-31.738.515-8.147 4.074-26.2 6.7-38.787 6.035-3.55-.188-14.73 1.113-17.344 2.368-7.5 3.598-32.856 6.194-49.714 6.01-4.275-.047-7.997-.274-10.724-.731-1.428-.24-2.529-.485-3.16-.887-7.026-4.484-14.602-8.387-23.311-17.484-19.032-19.879-22.33-41.612-19.518-63.65 1.133-8.88 6.823-22.725 15.354-30.737 7.358-6.91 22.687-21.877 41.145-29.691.438-.186 1.498-.917 2.687-1.845.907-.709 2.356-1.756 3.07-2.269a2.665 2.665 0 0 0 2.52-2.66c0-.888-.34-1.496-.744-1.934a2.725 2.725 0 0 0-1.976-.903c-.46-.018-1.385.154-2.446.817-1.514.948-5.276 3.924-5.276 3.924l.087-.036c-19.138 8.102-35.085 23.549-42.714 30.714-9.425 8.851-15.74 24.135-16.992 33.946-3.006 23.556.61 46.76 20.955 68.01 9.088 9.492 16.961 13.61 24.294 18.289 1.038.661 2.794 1.256 5.143 1.65 2.937.494 6.945.753 11.548.806 17.67.192 44.215-2.764 52.076-6.535 2.222-1.067 11.742-2.011 14.758-1.852 13.459.712 32.74-2.234 41.452-6.59 3.303-1.651 7.442-2.115 11.933-2.022 7.318.153 15.52 1.832 22.924 3.144 5.194.92 10.014 1.662 13.932 1.673 3.015.008 5.555-.433 7.465-1.388.648-.324 1.32-.93 1.638-2.066.287-1.022.174-3.468-.571-6.864-2.153-9.817-8.894-29.425-15.869-43.287-3.114-6.19-6.317-11.252-9.16-13.97-16.903-16.166-33.317-26.837-57.09-29.552-3.95-.451-19.978 1.198-30.527.955-2.478-.058-4.626-.215-6.17-.566-.448-.102-1.04-.339-1.152-.384Zm-42.663-45.01.006.014-.025-.063.019.049Zm-.168-.694c.022.238.073.45.147.64a2.662 2.662 0 0 1-.147-.64Zm-.009-.09.008.082-.009-.115.001.032Z"/><path d="M411.261 657.535c-2.882 2.882-15.551.237-29.079 3-15.79 3.227-17.251 11.032-26.729 20.51-1.839 1.839 1.237 4.166 1.465 4.395 9.122 9.121 20.123 15.333 35.159 26.369 8.946 6.566 26.407 17.029 32.913 21.114 12.091 7.591 12.537 2.517 18.685-3.28 12.418-11.709 8.348-16.985 9.254-24.904 1.255-10.954-4.669-22.428-9.324-26.488-3.056-2.665-6.4-3.527-9.697-3.766-5.144-.374-10.175.769-13.822-1.055-6.04-3.02-5.132-15.895-8.825-15.895Z" style="fill:#fff" transform="scale(.48)"/><path d="M195.8 313.492c-.268.036-1.307.166-2.096.184-2.796.063-6.715-.062-10.79.771-5.342 1.092-7.766 3.13-10.013 5.727-1.237 1.43-2.4 3.077-4.168 4.844-1.33 1.33-1.309 2.792-.693 4.106.408.873 1.5 1.868 1.5 1.868l-.103-.097c4.462 4.462 9.828 7.522 17.184 12.92 4.338 3.185 12.803 8.264 15.958 10.245 3.11 1.952 5.104 2.374 6.531 2.211 1.193-.135 2.168-.627 3.09-1.429.764-.663 1.497-1.644 2.591-2.675 5.09-4.8 5.314-7.82 5.253-10.751-.018-.915-.107-1.826.009-2.838.712-6.224-2.727-12.718-5.372-15.025-1.962-1.712-4.094-2.304-6.213-2.457-1.305-.095-2.596-.005-3.792 0-.68.004-1.317.03-1.843-.232-.443-.222-.554-.796-.744-1.32-.43-1.185-.69-2.482-1.018-3.427-.768-2.21-2.228-3.164-3.666-3.164a2.66 2.66 0 0 0-1.606.54Zm.468 5.327c.261.901.628 2.093.956 2.923.683 1.72 1.74 3.145 3.226 3.887 1.025.513 2.195.737 3.474.784 1.28.047 2.71-.109 4.159-.003 1.048.075 2.125.311 3.096 1.158 1.824 1.591 4.072 6.112 3.58 10.403-.102.897-.098 1.733-.073 2.55.034 1.084.162 2.124-.237 3.327-.414 1.246-1.382 2.621-3.313 4.442-.784.74-1.39 1.454-1.95 2.052-.246.265-.433.525-.703.643-.182.079-.377-.064-.686-.178-.649-.24-1.421-.655-2.385-1.26-3.091-1.94-11.39-6.907-15.639-10.026-6.834-5.016-11.912-7.896-16.12-11.953 1.272-1.41 2.255-2.726 3.278-3.908 1.578-1.824 3.297-3.226 7.05-3.993 4.407-.9 8.62-.543 11.21-.722.382-.026.74-.069 1.077-.126Z"/><path d="M354.034 688.771c-33.998 22.665-75.762 66.546-86.5 109.5-3.952 15.809-9.061 43.817 1 86 2.709 11.359 15.066 36.565 23.5 45 29.569 29.569 45.06 33.53 83 52.5" style="fill:#fff" transform="scale(.48)"/><path d="M168.458 328.393c-16.786 11.192-37.324 32.923-42.626 54.131-1.956 7.82-4.504 21.676.473 42.544 1.378 5.777 7.699 18.576 11.988 22.866 14.45 14.45 21.991 16.429 40.532 25.699a2.665 2.665 0 0 0 2.383-4.765c-17.882-8.942-25.211-10.765-39.148-24.702-3.808-3.807-9.35-15.206-10.572-20.334-4.682-19.628-2.326-32.66-.487-40.016 5.007-20.027 24.561-40.422 40.413-50.99a2.665 2.665 0 0 0-2.956-4.433Z"/><path d="M433.534 775.271c0 4.379-5.83 8.49-13 23-7.598 15.376-13.479 32.373-16.5 50.5-.83 4.979-.362 39.053 2 48.5 2.691 10.764 10.833 26.28 18 34 23.054 24.831 116.249 37.187 157.5 32" style="fill:#fff" transform="scale(.48)"/><path d="M205.432 372.13c0 .112-.086.204-.15.329-.156.297-.36.615-.602.973-1.178 1.753-3.072 4.226-5.212 8.558-3.759 7.606-6.665 16.015-8.16 24.982-.416 2.501-.183 19.618 1.004 24.364 1.384 5.538 5.585 13.515 9.272 17.487 3.55 3.823 10.288 7.174 18.627 9.775 18.546 5.784 45.13 8.191 59.257 6.415a2.665 2.665 0 0 0 2.312-2.976 2.665 2.665 0 0 0-2.976-2.31c-11.657 1.466-32.118-.07-48.968-4.038-10.82-2.547-20.164-5.986-24.348-10.492-3.192-3.44-6.808-10.357-8.007-15.153-1.08-4.323-1.297-19.918-.917-22.196 1.406-8.435 4.145-16.343 7.68-23.498 2.361-4.778 4.423-7.153 5.442-8.858.744-1.246 1.074-2.31 1.074-3.362a2.665 2.665 0 0 0-2.664-2.664 2.665 2.665 0 0 0-2.664 2.664Z"/><path d="M419.534 804.271c-1.929 1.929 8.152 8.717 10.5 9.5 11.733 3.911 23.475 6 37 6 20.032 0 42.271-.974 61-9 7.148-3.064 10.611-4 20-8.5" style="fill:#fff" transform="scale(.48)"/><path d="M204.024 385.764a2.665 2.665 0 0 0-4.531-1.597c-.948.947-1.358 2.37-.334 4.058.44.727 1.382 1.68 2.486 2.534 1.493 1.157 3.257 2.154 3.929 2.378 5.9 1.966 11.803 3.017 18.602 3.017 9.963 0 21.015-.543 30.33-4.535 3.468-1.487 5.147-1.943 9.702-4.127a2.665 2.665 0 0 0-2.303-4.804c-4.458 2.136-6.104 2.579-9.498 4.033-8.665 3.714-18.963 4.105-28.23 4.105-6.185 0-11.553-.955-16.918-2.744-.41-.136-1.438-.828-2.352-1.535a12.19 12.19 0 0 1-.883-.783Zm-.681 2.082-.083.088.083-.088Zm.068-.077-.017.019.013-.014.004-.005Z"/><path d="M410.534 832.271c4.948 4.948 9.432 8.966 17.5 13 46.404 23.201 109.002 13.599 152.5-12.5" style="fill:#fff" transform="scale(.48)"/><path d="M195.173 401.374c2.568 2.569 4.903 4.645 9.092 6.739 23.051 11.525 54.155 6.866 75.762-6.099a2.665 2.665 0 0 0-2.741-4.569c-20.151 12.091-49.141 16.65-70.638 5.902-3.557-1.778-5.527-3.56-7.708-5.74a2.665 2.665 0 0 0-3.767 0 2.665 2.665 0 0 0 0 3.767Z"/><path d="M406.034 891.271c16.729 12.093 42.71 7.242 56.5 10 12.819 2.563 27.863-.695 40.5-2.5 25.307-3.616 54.327-9.696 76.5-23 12.415-7.45 23.928-16.452 36-24.5" style="fill:#fff" transform="scale(.48)"/><path d="M193.336 429.969c4.42 3.195 10.035 4.24 15.483 4.58 4.813.3 9.456.03 12.675.673 6.436 1.288 13.994-.269 20.34-1.175 12.48-1.783 26.777-4.831 37.713-11.393 5.995-3.597 11.557-7.94 17.387-11.828a2.665 2.665 0 0 0 .739-3.694 2.665 2.665 0 0 0-3.695-.739c-5.76 3.84-11.249 8.139-17.172 11.693-10.351 6.21-23.913 8.999-35.726 10.686-5.787.828-12.671 2.4-18.541 1.225-3.4-.68-8.303-.448-13.388-.766-4.45-.278-9.084-.97-12.694-3.58a2.665 2.665 0 0 0-3.121 4.318Z"/><path d="M367.534 700.771c-9.596 9.596-17.151 25.139-24.5 38-30.546 53.456-38.42 107.739-19 166 9.387 28.16 36.945 46.722 61.5 59 8.241 4.12 17.427 7.142 26 10 1.251.417 8.5 3.079 8.5 0" style="fill:#fff" transform="scale(.48)"/><path d="M199.982 465.307a48.31 48.31 0 0 1-1.603-.425c-3.999-1.332-8.287-2.733-12.131-4.655-11.202-5.6-23.902-13.933-28.184-26.78-9.07-27.206-5.36-52.552 8.905-77.515 3.413-5.973 6.875-13.222 11.33-17.678a2.665 2.665 0 0 0 .001-3.768 2.665 2.665 0 0 0-3.767 0c-4.757 4.756-8.548 12.428-12.19 18.802-15.06 26.355-18.908 53.121-9.334 81.844 4.73 14.188 18.484 23.675 30.856 29.86 4.067 2.034 8.598 3.535 12.829 4.945.562.187 3.033.969 4.451.81 1.053-.118 1.842-.583 2.36-1.189.46-.54.775-1.232.775-2.148a2.665 2.665 0 0 0-4.298-2.103Zm-1.027 1.997c-.002.034-.003.07-.003.106l.003-.106Z"/><path d="M388.534 714.771c0 2.463-9.937 16.873-11.5 20-4.037 8.073-12.01 24.031-15 33-9.471 28.413-17.515 53.438-9.5 85.5 2.993 11.97 5.097 36.693 25 62 4.363 5.547 0 1.665 0 0" style="fill:#fff" transform="scale(.48)"/><path d="M183.868 342.657c-.265.433-4.635 7.562-5.274 8.842-1.98 3.959-5.879 11.79-7.345 16.189-4.71 14.128-8.603 26.584-4.617 42.528 1.476 5.902 2.59 18.016 12.28 30.489.257.594.622 1.189.987 1.585.632.687 1.323.94 1.566 1.002 1.306.332 2.165-.21 2.723-.877.342-.41.729-1.05.602-2.063-.024-.19-.218-1.066-1.48-2.669-9.223-11.727-10.123-23.212-11.51-28.759-3.708-14.836.121-26.404 4.504-39.552 1.404-4.212 5.16-11.7 7.055-15.49.599-1.198 3.764-5.85 5.005-8.267.588-1.145.796-2.078.796-2.525a2.665 2.665 0 0 0-5.292-.433Z"/><path d="M496.034 937.271c14.77 3.692 40.259-1.184 54-4 32.447-6.65 45.759-17.673 69-36.5 7.427-6.017 28.5-23.499 28.5-30" style="fill:#fff" transform="scale(.48)"/><path d="M308.158 415.891c-.094.157-.892 1.49-1.642 2.363-3.1 3.604-8.638 8.167-11.056 10.126-10.78 8.732-16.928 13.896-31.978 16.98-6.298 1.29-17.97 3.638-24.74 1.945a2.665 2.665 0 0 0-1.292 5.17c7.411 1.852 20.207-.483 27.101-1.895 16.1-3.3 22.73-8.719 34.262-18.06 2.573-2.084 8.445-6.958 11.742-10.792 1.923-2.236 2.925-4.365 2.925-5.678a2.664 2.664 0 0 0-5.323-.159Z"/><path d="M614.034 928.771c10.34 0 37.756-3.629 45.5-7.5 3.027-1.514 8.09-4 11.5-4" style="fill:#fff" transform="scale(.48)"/><path d="M294.736 448.474c5.238 0 19.11-1.92 23.032-3.881 1.15-.576 3.032-1.639 4.328-1.639a2.665 2.665 0 0 0 0-5.328c-1.978 0-4.955 1.323-6.711 2.201-3.512 1.756-15.96 3.32-20.649 3.32a2.665 2.665 0 0 0 0 5.327Z"/><path d="M413.359 654.189c50.023-96.084 248.74-511.695 286.34-612.039 5.28-14.093 15.951-10.952 21.41-9.515 5.459 1.436 20.812 10.098 12.344 22.134-67.17 95.464-239.377 507.396-288.892 614.883-5.7 12.372-37.493-3.38-31.202-15.463Z" style="fill:#fff;stroke:#000;stroke-width:16.91px" transform="scale(.48)"/></svg>