<svg viewBox="0 0 246 246" xmlns="http://www.w3.org/2000/svg" xml:space="preserve" style="fill-rule:evenodd;clip-rule:evenodd;stroke-linejoin:round;stroke-miterlimit:2"><path d="M85.822 163.4c0-.586-2.787 1.932-3.326 2.16-9.399 3.98-17.218 11.583-20.965 15.102-4.489 4.216-7.49 11.498-8.086 16.171-1.455 11.398.274 22.632 10.118 32.914 4.449 4.648 8.312 6.653 11.901 8.944 3.477 2.218 27.605.514 33.092-2.118 1.209-.58 6.384-1.142 8.025-1.055 6.511.344 15.845-1.049 20.06-3.156 7.608-3.804 23.125 3.204 28.127.703 1.485-.742-6.704-25.583-12.306-30.94-8.228-7.869-16.203-13.093-27.775-14.415-2.8-.319-17.826 1.512-19.689-.351-2.954-2.954-.556-12.799-.556-10.325" style="fill:#fff"/><path d="M105.913 186.389c-.729-.754-.95-2.078-1.031-3.433-.101-1.693.241-3.847.442-4.925.276-.243.45-.6.45-.997 0-1.103-.618-1.491-.797-1.581-.315-.159-1.495-.377-2.004.942-.34.883-.919 3.893-.751 6.72.125 2.084.693 4.045 1.834 5.186.286.286.734.557 1.352.748.929.287 2.381.439 4.104.479 5.192.12 13.079-.716 15.023-.494 11.259 1.286 19.001 6.399 27.006 14.054 1.268 1.212 2.653 3.497 4.042 6.257 3.386 6.732 6.667 16.25 7.712 21.017.137.624.224 1.306.271 1.738-.769.206-1.735.221-2.837.157-2.497-.144-5.598-.775-8.815-1.344-5.756-1.017-11.855-1.749-15.869.258-4.073 2.036-13.1 3.35-19.394 3.017-1.774-.094-7.364.557-8.672 1.184-3.75 1.799-16.427 3.097-24.856 3.005-2.138-.023-3.999-.137-5.363-.366-.713-.119-1.264-.242-1.579-.443-3.513-2.242-7.302-4.194-11.656-8.742-9.516-9.939-11.165-20.806-9.759-31.825.567-4.44 3.412-11.362 7.677-15.368 3.679-3.455 11.344-10.939 20.572-14.846.22-.093.749-.458 1.344-.922a55.233 55.233 0 0 1 1.535-1.135 1.331 1.331 0 0 0 1.26-1.33c0-.444-.17-.748-.372-.967a1.364 1.364 0 0 0-.988-.452c-.23-.009-.693.078-1.223.409-.757.474-2.638 1.962-2.638 1.962l.044-.018c-9.569 4.051-17.543 11.774-21.358 15.357-4.712 4.426-7.869 12.067-8.496 16.973-1.503 11.778.306 23.38 10.478 34.004 4.544 4.747 8.48 6.806 12.147 9.146.519.331 1.397.628 2.572.825 1.468.246 3.472.377 5.774.402 8.834.096 22.107-1.382 26.038-3.267 1.111-.533 5.871-1.006 7.379-.926 6.729.356 16.37-1.117 20.725-3.295 1.652-.825 3.721-1.058 5.967-1.011 3.659.076 7.76.916 11.462 1.572 2.597.46 5.007.831 6.966.837 1.507.004 2.777-.217 3.732-.694.325-.162.66-.466.82-1.033.143-.512.086-1.734-.286-3.433-1.076-4.908-4.447-14.712-7.934-21.643-1.558-3.095-3.159-5.626-4.58-6.985-8.452-8.083-16.659-13.418-28.545-14.776-1.975-.226-9.99.599-15.264.477-1.239-.028-2.313-.107-3.085-.283a4.432 4.432 0 0 1-.576-.192Zm-21.332-22.505.003.007-.012-.031.009.024Zm-.084-.346Zm-.004-.046.004.042-.004-.058v.016Z"/><path d="M98.703 157.809c-.692.691-3.733.056-6.979.72-3.79.774-4.141 2.647-6.415 4.922-.442.441.296 1 .351 1.055 2.19 2.189 4.83 3.679 8.438 6.328 2.147 1.576 6.338 4.087 7.9 5.068 2.901 1.821 3.008.604 4.484-.788 2.98-2.81 2.003-4.076 2.221-5.977.301-2.629-1.121-5.382-2.238-6.357-.733-.639-1.536-.846-2.327-.904-1.235-.089-2.442.185-3.317-.253-1.45-.724-1.232-3.814-2.118-3.814Z" style="fill:#fff"/><path d="M97.9 156.746c-.134.018-.653.083-1.048.092-1.398.032-3.357-.031-5.395.385-2.671.546-3.883 1.566-5.006 2.864-.619.715-1.201 1.539-2.084 2.422-.666.665-.655 1.396-.347 2.053.204.436.75.934.75.934l-.052-.049c2.232 2.232 4.915 3.761 8.592 6.461 2.169 1.592 6.402 4.131 7.979 5.122 1.555.976 2.552 1.187 3.266 1.106.597-.068 1.084-.314 1.545-.715.382-.332.749-.822 1.296-1.338 2.545-2.399 2.657-3.91 2.626-5.375-.009-.457-.054-.913.004-1.419.357-3.112-1.363-6.359-2.685-7.512-.981-.856-2.048-1.152-3.107-1.229-.652-.048-1.298-.002-1.896 0-.34.002-.659.015-.922-.116-.221-.111-.276-.398-.372-.66-.215-.593-.345-1.241-.509-1.713-.384-1.106-1.113-1.582-1.832-1.582-.292 0-.574.095-.803.269Zm.234 2.664c.131.45.314 1.046.478 1.461.342.861.87 1.572 1.613 1.944.512.256 1.097.368 1.737.392.641.023 1.355-.055 2.079-.002.524.038 1.063.156 1.549.579.912.795 2.035 3.056 1.79 5.202-.052.448-.05.866-.037 1.274.017.543.081 1.062-.119 1.664-.207.623-.69 1.311-1.656 2.221-.392.37-.695.727-.974 1.026-.124.132-.218.262-.352.321-.092.04-.189-.031-.344-.089-.324-.119-.71-.327-1.192-.63-1.546-.97-5.695-3.453-7.819-5.013-3.417-2.508-5.957-3.947-8.06-5.976.636-.705 1.127-1.363 1.638-1.954.789-.912 1.649-1.613 3.525-1.996 2.204-.451 4.311-.272 5.606-.362.19-.013.37-.034.538-.062Z"/><path d="M84.229 164.197c-8.393 5.595-18.662 16.461-21.313 27.065-.978 3.91-2.252 10.838.237 21.272.688 2.888 3.849 9.288 5.993 11.433 7.225 7.225 10.996 8.214 20.266 12.849a1.334 1.334 0 0 0 1.788-.595 1.333 1.333 0 0 0-.596-1.787c-8.941-4.471-12.606-5.383-19.574-12.351-1.904-1.904-4.675-7.603-5.286-10.167-2.341-9.814-1.163-16.33-.244-20.008 2.504-10.014 12.281-20.211 20.207-25.495a1.332 1.332 0 0 0-1.478-2.216ZM102.716 186.065c0 .056-.043.102-.075.165a5.6 5.6 0 0 1-.301.486c-.589.877-1.536 2.113-2.606 4.279-1.879 3.803-3.332 8.007-4.08 12.491-.208 1.251-.091 9.809.502 12.182.692 2.769 2.792 6.757 4.636 8.743 1.775 1.912 5.144 3.587 9.313 4.888 9.273 2.892 22.565 4.096 29.629 3.208a1.334 1.334 0 0 0 1.156-1.488 1.334 1.334 0 0 0-1.488-1.156c-5.828.733-16.059-.035-24.484-2.018-5.41-1.274-10.082-2.994-12.174-5.246-1.596-1.72-3.404-5.179-4.004-7.577-.54-2.162-.648-9.959-.458-11.098.703-4.218 2.073-8.172 3.84-11.749 1.181-2.389 2.212-3.577 2.721-4.429.372-.623.537-1.155.537-1.681a1.333 1.333 0 0 0-2.664 0Z"/><path d="M102.012 192.882a1.333 1.333 0 0 0-2.266-.799c-.473.474-.679 1.185-.166 2.03.22.363.69.839 1.242 1.267.747.578 1.629 1.077 1.965 1.189a28.573 28.573 0 0 0 9.301 1.508c4.982 0 10.507-.272 15.165-2.268 1.734-.743 2.573-.971 4.851-2.063a1.332 1.332 0 0 0-1.152-2.402c-2.229 1.068-3.051 1.289-4.749 2.017-4.332 1.856-9.481 2.052-14.115 2.052-3.092 0-5.776-.478-8.459-1.372-.205-.068-.719-.414-1.176-.768a6.26 6.26 0 0 1-.441-.391Zm-.341 1.041-.041.044.041-.044Zm.034-.039-.008.01.006-.007.002-.003ZM97.586 200.687c1.285 1.284 2.452 2.322 4.546 3.369 11.526 5.763 27.078 3.433 37.881-3.049a1.33 1.33 0 1 0-1.37-2.284c-10.076 6.045-24.571 8.325-35.319 2.951-1.779-.89-2.763-1.78-3.854-2.871a1.333 1.333 0 0 0-1.884 1.884Z"/><path d="M96.668 214.984c2.21 1.598 5.018 2.12 7.742 2.291 2.406.15 4.728.014 6.337.336 3.218.644 6.997-.134 10.17-.587 6.24-.892 13.389-2.416 18.856-5.697 2.998-1.799 5.779-3.97 8.694-5.914a1.332 1.332 0 0 0-1.478-2.216c-2.879 1.92-5.625 4.069-8.586 5.846-5.176 3.105-11.956 4.5-17.863 5.343-2.894.414-6.335 1.2-9.271.613-1.7-.34-4.151-.225-6.693-.383-2.225-.139-4.542-.486-6.347-1.791a1.333 1.333 0 0 0-1.561 2.159Z"/><path d="M99.991 232.654a24.438 24.438 0 0 1-.802-.213c-1.999-.666-4.143-1.366-6.065-2.327-5.601-2.801-11.951-6.967-14.092-13.39-4.535-13.604-2.68-26.276 4.453-38.758 1.706-2.987 3.437-6.611 5.665-8.839a1.333 1.333 0 0 0-1.884-1.884c-2.378 2.378-4.273 6.214-6.094 9.401-7.53 13.177-9.455 26.561-4.667 40.922 2.364 7.094 9.242 11.837 15.427 14.93 2.034 1.017 4.299 1.767 6.415 2.473.281.093 1.516.484 2.225.405.527-.059.922-.292 1.18-.595.23-.27.388-.616.388-1.074a1.333 1.333 0 0 0-2.149-1.051Zm-.513.998a.904.904 0 0 0-.002.053l.002-.053Z"/><path d="M91.934 171.329c-.133.216-2.317 3.78-2.637 4.42-.99 1.98-2.939 5.896-3.672 8.095-2.355 7.064-4.302 13.292-2.309 21.264.738 2.951 1.295 9.008 6.14 15.244.128.297.311.595.494.793.315.343.661.47.783.501.652.166 1.082-.105 1.361-.439.171-.205.364-.525.301-1.031-.012-.095-.109-.533-.74-1.334-4.611-5.864-5.061-11.607-5.755-14.38-1.854-7.418.061-13.202 2.252-19.776.702-2.106 2.58-5.85 3.528-7.745.299-.599 1.881-2.925 2.502-4.133.294-.573.398-1.04.398-1.263a1.333 1.333 0 0 0-2.646-.216Z"/><path d="M119.048 224.945c3.545.886 9.662-.284 12.96-.96 7.788-1.596 10.982-4.242 16.56-8.76 1.783-1.444 6.84-5.64 6.84-7.2" style="fill:#fff"/><path d="M154.079 207.946c-.047.078-.446.744-.821 1.181-1.55 1.802-4.319 4.083-5.528 5.063-5.39 4.366-8.464 6.948-15.989 8.49-3.149.645-8.985 1.819-12.37.973a1.332 1.332 0 0 0-.646 2.584c3.705.927 10.103-.241 13.551-.947 8.049-1.65 11.365-4.359 17.131-9.03 1.286-1.042 4.222-3.479 5.871-5.396.961-1.118 1.462-2.182 1.462-2.839a1.333 1.333 0 0 0-2.661-.079Z"/><path d="M147.368 222.905c2.482 0 9.062-.871 10.92-1.8.727-.363 1.942-.96 2.76-.96" style="fill:#fff"/><path d="M147.368 224.237c2.619 0 9.555-.96 11.516-1.941.575-.287 1.516-.819 2.164-.819a1.333 1.333 0 0 0 0-2.664c-.989 0-2.478.662-3.356 1.101-1.755.878-7.979 1.659-10.324 1.659a1.333 1.333 0 0 0 0 2.664Z"/><path d="M99.206 157.005c12.006-23.06 59.698-122.807 68.722-146.889 1.267-3.382 3.828-2.628 5.138-2.284 1.31.345 4.995 2.424 2.963 5.313-16.121 22.911-57.451 121.775-69.334 147.571-1.368 2.97-8.999-.811-7.489-3.711Z" style="fill:#fff"/><path d="M97.406 156.068c-.618 1.188-.56 2.45.067 3.657.627 1.207 1.95 2.388 3.497 3.155 1.551.768 3.292 1.103 4.628.867 1.34-.236 2.377-.96 2.939-2.182 11.857-25.738 53.067-124.393 69.151-147.253.868-1.234 1.068-2.397.931-3.433-.133-1.011-.617-1.931-1.309-2.701-1.131-1.258-2.836-2.073-3.727-2.308-1.111-.292-2.859-.666-4.466.013-1.152.486-2.319 1.465-3.089 3.521-9.011 24.046-56.634 123.639-68.622 146.664Zm7.505 3.669a2.849 2.849 0 0 1-.51.018c-.527-.056-1.097-.247-1.629-.511-.533-.264-1.032-.603-1.397-.99a2.78 2.78 0 0 1-.306-.433c12.123-23.313 59.736-122.915 68.759-146.993.244-.653.503-1.053.868-1.207.67-.283 1.391.052 1.854.174.341.089.919.376 1.417.788.28.231.594.48.63.837.018.176-.082.35-.228.557-16.129 22.924-57.466 121.699-69.458 147.76Z"/></svg>