<svg viewBox="0 0 246 246" xmlns="http://www.w3.org/2000/svg" xml:space="preserve" style="fill-rule:evenodd;clip-rule:evenodd;stroke-linejoin:round;stroke-miterlimit:2"><path d="M18.928 94.687c2.133 6.163 4.932 15.162 7.861 20.332 2.753 4.858 6.836 12.184 11.999 18.618 6.879 8.573 12.198 14.033 20.687 20.273 4.227 3.108 21.404 16.629 42.201 28.548 8.384 4.805 25.363 10.106 32.685 12.412 2.624.827 14.419 2.245 18.618 2.483 22.927 1.296 40.92.587 50.042-2.768 13.307-4.895 14.338-4.503 22.362-11.713 5.996-5.388 11.158-11.288 13.24-19.859 1.871-7.701-.834-24.067-2.482-29.376-.749-2.41-7.614-19.107-9.847-22.093-14.72-19.685-25.188-31.833-48.904-43.691-4.83-2.415-24.748-13.612-33.099-16.136-4.319-1.305-12.152-2.879-16.816-3.537" style="fill:#fff"/><path d="M17.114 95.315c2.166 6.262 5.028 15.398 8.005 20.651 2.791 4.925 6.936 12.349 12.171 18.873 6.998 8.72 12.412 14.271 21.048 20.618 4.245 3.121 21.497 16.697 42.383 28.667 8.483 4.862 25.655 10.244 33.063 12.578 2.69.847 14.781 2.324 19.087 2.568 23.282 1.316 41.55.524 50.812-2.883 13.689-5.035 14.73-4.67 22.984-12.087 6.28-5.643 11.64-11.856 13.822-20.834 1.935-7.968-.81-24.906-2.515-30.398-.768-2.475-7.85-19.608-10.143-22.674-14.918-19.95-25.546-32.24-49.582-44.258-4.873-2.437-24.978-13.711-33.403-16.257-4.393-1.327-12.359-2.931-17.103-3.6a1.92 1.92 0 1 0-.536 3.803c4.584.646 12.284 2.19 16.529 3.473 8.277 2.501 28.008 13.622 32.795 16.015 23.397 11.699 33.704 23.705 48.225 43.123 2.173 2.906 8.823 19.168 9.551 21.513 1.591 5.125 4.256 20.92 2.45 28.353-1.983 8.164-6.946 13.753-12.657 18.885-7.794 7.004-8.816 6.584-21.742 11.339-8.98 3.303-26.699 3.929-49.27 2.653-4.093-.232-15.593-1.592-18.15-2.397-7.236-2.279-24.022-7.498-32.307-12.247-20.709-11.868-37.809-25.334-42.019-28.429-8.343-6.132-13.566-11.503-20.327-19.927-5.091-6.345-9.111-13.574-11.825-18.364-2.883-5.087-5.619-13.949-7.717-20.012a1.921 1.921 0 0 0-3.629 1.255Z"/><path d="M46.924 121.767c7.015 3.909 27.203 16.921 31.996 19.317 8.031 4.016 29.775 16.956 32.272 18.205 8.346 4.173 19.769 10.252 25.652 16.136.207.207.206.62.413.827 3.095 3.095 6.155 7.396 9.516 10.757.084.084 1.022 1.048.828 1.242-.92.919-3.909 3.149-11.959 6.265" style="fill:#fff;fill-opacity:.99"/><path d="M135.307 176.606c.133.292.379.79.593 1.004 2.955 2.955 5.878 7.01 9.063 10.296-1.585 1.08-4.587 2.719-10.014 4.82a1.92 1.92 0 0 0 1.386 3.581c8.521-3.299 11.65-5.726 12.624-6.699.46-.46.839-1.249.414-2.283-.225-.546-1.137-1.568-1.242-1.673-3.295-3.295-6.3-7.493-9.333-10.572-.132-.291-.381-.797-.597-1.013-6.002-6.002-17.635-12.238-26.15-16.495-2.498-1.249-24.242-14.19-32.272-18.205-4.782-2.391-24.921-15.377-31.92-19.277a1.92 1.92 0 0 0-1.87 3.354c7.031 3.918 27.268 16.956 32.073 19.358 8.03 4.015 29.774 16.956 32.271 18.204 8.094 4.047 19.161 9.891 24.974 15.6Z" style="fill-opacity:.99"/><path d="M147.384 187.953c4.888 2.331 10.919 3.134 12.447 3.253 20.584 1.607 38.625.151 54.593-.933" style="fill:#fff"/><path d="M146.558 189.686c5.154 2.458 11.512 3.309 13.123 3.434 20.69 1.615 38.823.159 54.873-.932a1.92 1.92 0 1 0-.26-3.831c-15.886 1.079-33.835 2.534-54.314.935-1.445-.113-7.148-.868-11.769-3.072a1.921 1.921 0 0 0-1.653 3.466Z"/><path d="M20.17 95.16c-.585 0-1.242-1.242-1.242-1.242s1.197 1.633 2.069 2.069c1.7.85 11.406 7.744 14.067 9.516 15.841 10.545 18.02 11.152 32.685 19.859 3.962 2.352 37.503 17.929 46.256 25.073 3.919 3.198 17.305 15.318 19.529 17.542 3.303 3.303 10.233 16.271 13.792 19.83" style="fill:#fff"/><path d="M18.817 96.666c.437.43.91.833 1.322 1.038 1.675.838 11.237 7.65 13.861 9.397 15.882 10.572 18.066 11.182 32.769 19.912 3.94 2.34 37.316 17.804 46.022 24.909 3.89 3.175 17.178 15.205 19.385 17.413 3.303 3.303 10.234 16.271 13.792 19.83.75.749 1.966.749 2.716 0a1.922 1.922 0 0 0 0-2.716c-3.559-3.558-10.49-16.526-13.793-19.829-2.24-2.241-15.725-14.451-19.672-17.673-8.8-7.182-42.507-22.871-46.489-25.235-14.628-8.686-16.802-9.29-32.602-19.807-2.688-1.79-12.472-8.719-14.252-9.624a1.919 1.919 0 0 0-.951-.887c-.262-.326-.448-.611-.448-.611a1.92 1.92 0 0 0-3.246 2.033s.504.924 1.107 1.483c.153.142.314.265.479.367Z"/><path d="M24.721 73.232c-.523.261-5.246-3.177-5.793-3.724-4.959-4.96 1.681-4.164 5.379-7.861 1.327-1.327 9.102 6.452 9.102 4.965" style="fill:#fff"/><path d="M24.956 71.326c-.591-.384-4.279-2.784-4.67-3.176a9.165 9.165 0 0 1-1.049-1.296c.251-.154.64-.38.964-.532 1.452-.679 3.276-1.443 4.813-2.725.3.151.715.371 1.03.577 1.946 1.276 4.34 3.3 5.578 4.023 1.182.69 2.155.509 2.566.303.615-.308 1.141-.85 1.141-1.888a1.92 1.92 0 0 0-2.023-1.917 37.75 37.75 0 0 1-1.56-1.102c-2.125-1.609-4.852-3.617-6.29-3.936-1.118-.249-1.951.077-2.507.632-1.719 1.719-4.154 2.339-5.551 3.16-1.108.651-1.785 1.451-2.041 2.347-.316 1.112-.058 2.798 2.214 5.07.48.48 3.885 3.003 5.525 3.841.653.333 1.193.449 1.488.458.412.011.741-.089.995-.216a1.92 1.92 0 0 0-.623-3.623Zm6.763-5.625c-.143.234-.23.531-.23.911 0-.33.083-.64.23-.911Z"/><path d="M47.155 121.949c-2.05-2.05 2.453-7.344 3.631-7.344 5.393 0 18.745-11.648 24.411-14.481 16.121-8.06 38.201-23.031 44.683-35.995.423-.846 3.03-5.251 5.256-8.989 1.772-2.975 3.642-6.543 3.642-6.543-1.161-1.162-14.937-2.14-23.378-3.5-20.036-3.227-53.374 4.553-63.302 14.481-7.53 7.531-16.508 12.743-21.101 21.928-.617 1.234-2.618 6.723-2.618 7.412 0 5.526-.448 5.244 3.859 9.551 2.358 2.358 24.476 23.48 24.917 23.48Z" style="fill:#fff"/><path d="M48.554 120.636a1.214 1.214 0 0 1-.002-.161c.013-.146.048-.297.096-.452.151-.49.418-.996.727-1.476.52-.808 1.528-1.768 1.822-2.039 1.827-.143 4.357-1.203 7.142-2.84 6.095-3.581 13.774-9.855 17.716-11.826 16.461-8.231 38.924-23.617 45.543-36.854.417-.835 2.991-5.178 5.188-8.866 1.796-3.016 3.693-6.634 3.693-6.634a1.92 1.92 0 0 0-.343-2.249c-.35-.349-1.392-.869-3.044-1.204-4.407-.891-14.61-1.741-21.387-2.833-12.262-1.975-29.412.064-43.355 4.221-9.481 2.826-17.478 6.666-21.61 10.798-7.681 7.681-16.776 13.058-21.46 22.427-.518 1.034-1.971 4.923-2.529 6.808-.21.712-.292 1.244-.292 1.462 0 3.116-.048 4.589.432 5.896.489 1.328 1.52 2.543 3.99 5.013 2.129 2.13 20.326 19.516 24.267 22.972.612.536 1.034.816 1.156.874.368.177.665.196.851.196a1.92 1.92 0 0 0 1.399-3.233Zm77.424-70.88c-.684 1.256-1.6 2.905-2.491 4.401-2.257 3.789-4.895 8.256-5.324 9.114-6.346 12.691-28.043 27.245-43.825 35.136-3.44 1.72-9.69 6.639-15.311 10.309-2.115 1.381-4.133 2.579-5.856 3.311-.921.392-1.726.658-2.385.658-.475 0-1.266.224-2.094.88-1.032.818-2.398 2.421-3.207 4.066l-.095.2c-6.216-5.742-19.966-18.892-21.794-20.719-1.839-1.839-2.737-2.635-3.101-3.624-.365-.993-.202-2.118-.196-4.443l.006-.029c.31-1.32 1.887-5.607 2.409-6.651 4.501-9.001 13.362-14.049 20.741-21.429 3.811-3.811 11.248-7.227 19.992-9.834 13.396-3.993 29.867-6.007 41.647-4.109 5.913.952 14.441 1.718 19.424 2.49.488.076.997.174 1.46.273Z"/><path d="M90.091 65.784c1.166-1.166 19.741 5.642 23.977 5.832" style="fill:#fff"/><path d="M90.749 67.588c.445.069 2.187.352 3.746.762 6.253 1.647 16.46 5.048 19.487 5.184a1.92 1.92 0 0 0 .173-3.836c-3.343-.15-15.723-4.516-21.135-5.652-1.476-.31-2.58-.358-3.12-.24a2.31 2.31 0 0 0-1.166.621 1.92 1.92 0 0 0 2.015 3.161Z"/><path d="M59.061 65.371c-.311-.312 12.439 2.259 14.6 2.502 8.017.9 12.856.658 17.258-3.744.072-.072-.71-2.365-.828-2.482-2.015-2.015-7.557-5.819-13.838-6.186-3.21-.188-7.863.806-9.236 1.485-3.355 1.661-7.844 8.537-7.956 8.425Z" style="fill:#fff"/><path d="M57.789 63.916c.614-.836 5.352-7.194 8.376-8.691 1.517-.751 6.653-1.889 10.201-1.681 6.845.401 12.886 4.549 15.083 6.745.079.079.333.373.541.886.26.642.746 2.135.817 2.535.185 1.044-.372 1.618-.531 1.777-4.813 4.813-10.061 5.278-18.829 4.294-1.906-.214-12.056-2.242-14.193-2.499-.669.071-1.168-.171-1.551-.554a1.844 1.844 0 0 1-.568-1.359 1.855 1.855 0 0 1 .654-1.453Zm30.683-1.162.265.779c-3.783 3.227-8.09 3.192-14.862 2.432-1.423-.16-7.431-1.327-11.29-2.019a45.504 45.504 0 0 1 2.051-2.462c1.065-1.182 2.198-2.305 3.232-2.817 1.229-.608 5.4-1.458 8.273-1.29 5.463.32 10.313 3.495 12.331 5.377ZM3.126 33.783a1.922 1.922 0 0 0-1.574-3.018c-.841 0-1.481.362-1.921 1.082-.286.469-.508 1.437-.292 2.781.674 4.195 5.145 14.835 5.874 16.293 3.525 7.051 7.795 9.589 12.772 14.566a1.921 1.921 0 0 0 2.715 0 1.921 1.921 0 0 0 0-2.715c-4.662-4.663-8.75-6.963-12.053-13.568-.6-1.202-3.912-9.019-5.156-13.601a17.452 17.452 0 0 1-.365-1.82Zm-1.481.82-.093.002.093-.002Z"/></svg>