<svg viewBox="0 0 492 492" xmlns="http://www.w3.org/2000/svg" xml:space="preserve" style="fill-rule:evenodd;clip-rule:evenodd;stroke-linecap:round;stroke-linejoin:round;stroke-miterlimit:1.5"><path d="M70.466 150.107c2.741 2.741 55.604 1.319 59.52-.64 6.745-3.372 34.318 2.56 42.88 2.56 37.585 0 73.641-3.84 110.72-3.84 25.668 0 50.788 2.56 76.8 2.56 10.878 0 22.17-.64 32.64-.64h6.4s-.06 2.68-.64 3.84c-4.669 9.339 1.28 22.38 1.28 32v6.4l-1.28-1.28c-1.413-1.413-18.99-.744-21.76.64-4.714 2.358-50.258 2.56-57.6 2.56-51.293 0-100.784.64-152.32.64-12.873 0-91.608.552-94.08-1.92-1.153-1.153-1.92-34.875-1.92-40.32 0-3.653-1.92.192-1.92 1.92"/><path d="M128.456 145.944c-.342.055-3.617.576-6.795.824-9.75.763-26.189 1.217-37.779.941-5.306-.127-10.657-.776-11.4-.87a3.841 3.841 0 0 0-5.855 3.271c-.689 1.35-1.28 3.22-1.28 4.478a3.84 3.84 0 0 0 1.991 3.365c.164 8.52.602 23.866 1.219 31.241.191 2.279.443 3.917.661 4.627.304.992.78 1.57 1.093 1.882.374.374 1.111.937 2.375 1.276 1.456.39 4.878.747 9.64.992 21.885 1.127 74.458.777 84.78.777 51.536 0 101.027-.64 152.32-.64 5.913 0 36.437-.137 50.84-1.404 4.288-.377 7.348-.997 8.478-1.562-.03.015-.1.045-.1.045s2.024-.426 3.658-.6c4.408-.465 12.704-.213 14.42-.154l.63.63a3.839 3.839 0 0 0 6.555-2.716v-6.4c0-4.99-1.503-10.873-2.44-16.714-.77-4.802-1.237-9.586.754-13.568.83-1.661 1.044-5.472 1.044-5.472a3.84 3.84 0 0 0-3.839-3.926h-6.4c-10.47 0-21.762.64-32.64.64-26.012 0-51.132-2.56-76.8-2.56-37.079 0-73.135 3.84-110.72 3.84-5.956 0-21.166-2.905-32.056-3.488-5.416-.29-9.914.115-12.354 1.245Zm266.144 8.003h-1.574c-10.47 0-21.762.64-32.64.64-26.012 0-51.132-2.56-76.8-2.56-37.079 0-73.135 3.84-110.72 3.84-5.205 0-17.349-2.14-27.705-3.133-3.859-.37-7.45-.579-10.258-.401-1.35.086-2.465.202-3.2.569-.79.395-3.132.929-6.57 1.27-11.052 1.099-35.84 1.733-48.048.941a75.121 75.121 0 0 1-2.118-.165c.103 7.616.597 27.577 1.35 34.809 1.553.174 3.998.42 6.404.544 21.783 1.122 74.11.767 84.385.767 51.536 0 101.027-.64 152.32-.64 5.114 0 28.857-.098 44.252-.962 3.85-.216 7.163-.477 9.493-.803 1.023-.143 1.777-.21 2.138-.39.872-.436 2.84-.93 5.389-1.233 4.625-.55 11.536-.766 15.529-.436v-.657c0-5.654-2.135-12.51-2.826-19.07-.48-4.554-.302-8.976 1.2-12.93Z"/><path d="M131.138 437.568c-.379-.38-8.5 33.083-8 33.333 11.089 5.544 526.885 2.667 549.334 2.667 46.6 0 131.119 4.88 137.333-1.334 3.944-3.944 4.208-38.666 0-38.666" style="fill:#fff" transform="matrix(.48 0 0 .48 10.08 -17.045)"/><path d="M395.953 193.658c.127.822.39 2.663.436 4.123.087 2.748-.395 6.97-.625 8.792-1.618.2-5.141.593-8.393.67-14.337.333-38.872-.815-54.504-.815-8.619 0-168.755.884-235.19-.125a735.55 735.55 0 0 1-23.82-.771c.886-3.823 2.213-9.457 2.662-10.949a3.842 3.842 0 0 0-.777-4.31c-1.272-1.272-2.777-1.63-4.561-.657-.177.096-1.396.738-1.982 2.64-.71 2.3-3.404 13.436-3.774 15.722-.488 3.022 1.778 4.311 2.044 4.444.378.189 1.414.52 3.114.688 3.875.38 13.53.668 26.977.872 66.468 1.01 226.684.126 235.307.126 17.977 0 47.66 1.493 60.347.561 2.62-.192 4.62-.515 5.83-.909 1.184-.385 1.973-.933 2.458-1.417.755-.755 1.73-2.793 2.139-5.655.63-4.426.58-11.35-.145-14.688-.363-1.668-1.02-2.8-1.564-3.381-.952-1.02-2.055-1.391-3.146-1.391a3.842 3.842 0 0 0-2.833 6.43Zm-325.488 2.19c1.17 1.09 2.536 1.41 4.13.644a3.84 3.84 0 0 1-4.13-.644Zm326.339-1.492c.637.462 1.373.552 1.982.552a3.818 3.818 0 0 1-1.982-.552Z"/><path d="M624.697 400.954c0-3.073-.016-26.585 0-28.967.041-6.291 28.99-11.427 36.046.894 1.52 2.655 3 18.651 3 27.744" style="fill:#fff" transform="matrix(.48 0 0 .48 10.08 -17.045)"/><path d="M311.721 161.791c.255-.163 1.125-.699 1.868-.939 2.314-.745 5.665-1.04 8.434-.349 1.558.388 2.946 1.07 3.663 2.323.166.29.268 1.032.417 1.998.448 2.894.787 7.453.787 10.43a1.788 1.788 0 0 0 3.574 0c0-3.133-.357-7.93-.828-10.976-.245-1.58-.577-2.754-.848-3.228-1.63-2.845-5.198-4.25-8.995-4.472-3.72-.218-7.578.662-9.57 1.872-1.433.871-2.069 2.022-2.075 3.047-.008 1.144 0 12.44 0 13.916a1.788 1.788 0 0 0 3.574 0c0-1.394-.007-11.559 0-13.622Z"/><path d="M642.659 373.467c0 1.372.43 10.043.364 10.109-.07.07 0 .343 0 .227" style="fill:#fff;stroke:#000;stroke-width:2.48px" transform="matrix(.48 0 0 .48 10.08 -17.106)"/><path d="M537.421 379.669c-13.611 18.138-9.611 34.329 1.32 42.438 10.93 8.109 28.791 8.136 42.902-6.052 25.166-25.304-27.043-53.564-44.222-36.386Z" style="fill:#fff" transform="matrix(.31429 0 0 .31135 143.764 50.56)"/><path d="M311.411 167.501c-.06.06-.115.123-.166.19-5.097 6.73-3.313 12.724.78 15.733 4.022 2.955 10.613 3.113 15.804-2.058 2.027-2.02 2.737-4.119 2.633-6.078-.148-2.805-2.084-5.455-4.864-7.302-2.583-1.715-5.853-2.733-8.713-2.633-2.155.075-4.087.774-5.474 2.148Zm2.602 2.457c.768-.706 1.839-.993 2.996-1.033 2.174-.076 4.648.735 6.611 2.039 1.767 1.173 3.179 2.73 3.273 4.513.058 1.098-.45 2.224-1.587 3.356-3.679 3.665-8.314 3.805-11.164 1.71-2.756-2.025-3.497-6.058-.132-10.582l.003-.003Z"/><path d="M624.697 400.954c0-3.073-.016-26.585 0-28.967.041-6.291 28.99-11.427 36.046.894 1.52 2.655 3 18.651 3 27.744" style="fill:#fff" transform="matrix(.48 0 0 .48 49.357 -16.483)"/><path d="M350.998 162.353c.255-.163 1.125-.7 1.868-.939 2.314-.746 5.665-1.04 8.434-.35 1.558.39 2.946 1.072 3.663 2.324.166.29.268 1.032.417 1.998.448 2.894.787 7.453.787 10.43a1.788 1.788 0 0 0 3.574 0c0-3.133-.357-7.93-.828-10.976-.245-1.58-.577-2.754-.848-3.228-1.63-2.845-5.198-4.25-8.995-4.472-3.72-.218-7.578.662-9.57 1.872-1.433.871-2.069 2.022-2.075 3.047-.008 1.144 0 12.44 0 13.916a1.788 1.788 0 0 0 3.574 0c0-1.394-.007-11.559 0-13.622Z"/><path d="M642.659 373.467c0 1.372.43 10.043.364 10.109-.07.07 0 .343 0 .227" style="fill:#fff;stroke:#000;stroke-width:2.48px" transform="matrix(.48 0 0 .48 49.357 -16.545)"/><path d="M537.421 379.669c-13.611 18.138-9.611 34.329 1.32 42.438 10.93 8.109 28.791 8.136 42.902-6.052 25.166-25.304-27.043-53.564-44.222-36.386Z" style="fill:#fff" transform="matrix(.31429 0 0 .31135 183.04 51.121)"/><path d="M350.688 168.063c-.06.06-.115.123-.166.19-5.097 6.73-3.313 12.724.78 15.733 4.022 2.955 10.613 3.113 15.804-2.058 2.027-2.02 2.737-4.119 2.633-6.078-.148-2.805-2.084-5.456-4.864-7.302-2.583-1.715-5.853-2.733-8.713-2.634-2.155.076-4.087.775-5.474 2.149Zm2.602 2.457c.768-.706 1.839-.993 2.996-1.033 2.174-.076 4.648.735 6.611 2.039 1.767 1.173 3.179 2.73 3.273 4.513.058 1.098-.45 2.224-1.587 3.356-3.679 3.665-8.314 3.805-11.164 1.71-2.756-2.025-3.497-6.059-.132-10.582l.003-.003Z"/><path d="M624.697 400.954c0-3.073-.016-26.585 0-28.967.041-6.291 28.99-11.427 36.046.894 1.52 2.655 3 18.651 3 27.744" style="fill:#fff" transform="matrix(.48 0 0 .48 -26.483 -17.045)"/><path d="M275.158 161.791c.255-.163 1.125-.699 1.868-.939 2.314-.745 5.665-1.04 8.434-.349 1.558.388 2.946 1.07 3.663 2.323.166.29.268 1.032.417 1.998.448 2.894.787 7.453.787 10.43a1.788 1.788 0 0 0 3.574 0c0-3.133-.357-7.93-.828-10.976-.245-1.58-.577-2.754-.848-3.228-1.63-2.845-5.198-4.25-8.995-4.472-3.72-.218-7.578.662-9.57 1.872-1.433.871-2.069 2.022-2.075 3.047-.008 1.144 0 12.44 0 13.916a1.788 1.788 0 0 0 3.574 0c0-1.394-.007-11.559 0-13.622Z"/><path d="M642.659 373.467c0 1.372.43 10.043.364 10.109-.07.07 0 .343 0 .227" style="fill:#fff;stroke:#000;stroke-width:2.48px" transform="matrix(.48 0 0 .48 -26.483 -17.106)"/><path d="M537.421 379.669c-13.611 18.138-9.611 34.329 1.32 42.438 10.93 8.109 28.791 8.136 42.902-6.052 25.166-25.304-27.043-53.564-44.222-36.386Z" style="fill:#fff" transform="matrix(.31429 0 0 .31135 107.2 50.56)"/><path d="M274.848 167.501c-.06.06-.115.123-.166.19-5.097 6.73-3.313 12.724.78 15.733 4.022 2.955 10.613 3.113 15.804-2.058 2.027-2.02 2.737-4.119 2.633-6.078-.148-2.805-2.084-5.455-4.864-7.302-2.583-1.715-5.853-2.733-8.713-2.633-2.155.075-4.087.774-5.474 2.148Zm2.602 2.457c.768-.706 1.839-.993 2.996-1.033 2.174-.076 4.648.735 6.611 2.039 1.767 1.173 3.179 2.73 3.273 4.513.058 1.098-.45 2.224-1.587 3.356-3.679 3.665-8.314 3.805-11.164 1.71-2.756-2.025-3.497-6.058-.132-10.582l.003-.003Z"/><path d="M624.697 400.954c0-3.073-.016-26.585 0-28.967.041-6.291 28.99-11.427 36.046.894 1.52 2.655 3 18.651 3 27.744" style="fill:#fff" transform="matrix(.48 0 0 .48 -62.765 -17.045)"/><path d="M238.876 161.791c.256-.163 1.125-.699 1.868-.939 2.314-.745 5.665-1.04 8.434-.349 1.558.388 2.946 1.07 3.663 2.323.166.29.268 1.032.418 1.998.447 2.894.786 7.453.786 10.43a1.788 1.788 0 0 0 3.574 0c0-3.133-.357-7.93-.828-10.976-.244-1.58-.577-2.754-.848-3.228-1.63-2.845-5.198-4.25-8.995-4.472-3.72-.218-7.578.662-9.57 1.872-1.433.871-2.069 2.022-2.075 3.047-.008 1.144 0 12.44 0 13.916a1.788 1.788 0 0 0 3.574 0c0-1.394-.007-11.559 0-13.622Z"/><path d="M642.659 373.467c0 1.372.43 10.043.364 10.109-.07.07 0 .343 0 .227" style="fill:#fff;stroke:#000;stroke-width:2.48px" transform="matrix(.48 0 0 .48 -62.765 -17.106)"/><path d="M537.421 379.669c-13.611 18.138-9.611 34.329 1.32 42.438 10.93 8.109 28.791 8.136 42.902-6.052 25.166-25.304-27.043-53.564-44.222-36.386Z" style="fill:#fff" transform="matrix(.31429 0 0 .31135 70.919 50.56)"/><path d="M238.567 167.501c-.06.06-.116.123-.167.19-5.097 6.73-3.313 12.724.78 15.733 4.022 2.955 10.613 3.113 15.804-2.058 2.028-2.02 2.737-4.119 2.633-6.078-.148-2.805-2.084-5.455-4.864-7.302-2.583-1.715-5.853-2.733-8.713-2.633-2.155.075-4.087.774-5.473 2.148Zm2.6 2.457c.77-.706 1.84-.993 2.998-1.033 2.173-.076 4.647.735 6.61 2.039 1.767 1.173 3.179 2.73 3.273 4.513.059 1.098-.45 2.224-1.586 3.356-3.68 3.665-8.315 3.805-11.165 1.71-2.756-2.025-3.497-6.058-.132-10.582l.003-.003Z"/><path d="M624.697 400.954c0-3.073-.016-26.585 0-28.967.041-6.291 28.99-11.427 36.046.894 1.52 2.655 3 18.651 3 27.744" style="fill:#fff" transform="matrix(.48 0 0 .48 -100.007 -17.045)"/><path d="M201.635 161.791c.255-.163 1.124-.699 1.867-.939 2.314-.745 5.665-1.04 8.434-.349 1.558.388 2.946 1.07 3.663 2.323.166.29.269 1.032.418 1.998.447 2.894.786 7.453.786 10.43a1.788 1.788 0 0 0 3.574 0c0-3.133-.357-7.93-.828-10.976-.244-1.58-.576-2.754-.848-3.228-1.63-2.845-5.197-4.25-8.994-4.472-3.72-.218-7.579.662-9.57 1.872-1.433.871-2.07 2.022-2.076 3.047-.008 1.144 0 12.44 0 13.916a1.788 1.788 0 0 0 3.574 0c0-1.394-.007-11.559 0-13.622Z"/><path d="M642.659 373.467c0 1.372.43 10.043.364 10.109-.07.07 0 .343 0 .227" style="fill:#fff;stroke:#000;stroke-width:2.48px" transform="matrix(.48 0 0 .48 -100.007 -17.106)"/><path d="M537.421 379.669c-13.611 18.138-9.611 34.329 1.32 42.438 10.93 8.109 28.791 8.136 42.902-6.052 25.166-25.304-27.043-53.564-44.222-36.386Z" style="fill:#fff" transform="matrix(.31429 0 0 .31135 33.677 50.56)"/><path d="M201.325 167.501c-.06.06-.116.123-.167.19-5.097 6.73-3.312 12.724.78 15.733 4.022 2.955 10.613 3.113 15.804-2.058 2.028-2.02 2.737-4.119 2.634-6.078-.149-2.805-2.085-5.455-4.865-7.302-2.583-1.715-5.853-2.733-8.713-2.633-2.155.075-4.087.774-5.473 2.148Zm2.601 2.457c.768-.706 1.84-.993 2.997-1.033 2.174-.076 4.648.735 6.61 2.039 1.768 1.173 3.18 2.73 3.274 4.513.058 1.098-.45 2.224-1.587 3.356-3.68 3.665-8.314 3.805-11.164 1.71-2.757-2.025-3.497-6.058-.132-10.582l.002-.003Z"/><path d="M624.697 400.954c0-3.073-.016-26.585 0-28.967.041-6.291 28.99-11.427 36.046.894 1.52 2.655 3 18.651 3 27.744" style="fill:#fff" transform="matrix(.48 0 0 .48 -135.808 -17.045)"/><path d="M165.833 161.791c.255-.163 1.124-.699 1.867-.939 2.315-.745 5.665-1.04 8.435-.349 1.558.388 2.945 1.07 3.662 2.323.167.29.269 1.032.418 1.998.447 2.894.786 7.453.786 10.43a1.788 1.788 0 0 0 3.574 0c0-3.133-.357-7.93-.828-10.976-.244-1.58-.576-2.754-.848-3.228-1.629-2.845-5.197-4.25-8.994-4.472-3.72-.218-7.578.662-9.57 1.872-1.433.871-2.07 2.022-2.076 3.047-.007 1.144 0 12.44 0 13.916a1.788 1.788 0 0 0 3.574 0c0-1.394-.006-11.559 0-13.622Z"/><path d="M642.659 373.467c0 1.372.43 10.043.364 10.109-.07.07 0 .343 0 .227" style="fill:#fff;stroke:#000;stroke-width:2.48px" transform="matrix(.48 0 0 .48 -135.808 -17.106)"/><path d="M537.421 379.669c-13.611 18.138-9.611 34.329 1.32 42.438 10.93 8.109 28.791 8.136 42.902-6.052 25.166-25.304-27.043-53.564-44.222-36.386Z" style="fill:#fff" transform="matrix(.31429 0 0 .31135 -2.124 50.56)"/><path d="M165.523 167.501c-.06.06-.116.123-.167.19-5.097 6.73-3.312 12.724.781 15.733 4.021 2.955 10.612 3.113 15.804-2.058 2.027-2.02 2.737-4.119 2.633-6.078-.149-2.805-2.084-5.455-4.865-7.302-2.582-1.715-5.852-2.733-8.712-2.633-2.155.075-4.087.774-5.474 2.148Zm2.601 2.457c.769-.706 1.84-.993 2.997-1.033 2.174-.076 4.648.735 6.61 2.039 1.768 1.173 3.18 2.73 3.274 4.513.058 1.098-.45 2.224-1.587 3.356-3.679 3.665-8.314 3.805-11.164 1.71-2.756-2.025-3.497-6.058-.132-10.582l.002-.003Z"/><g><path d="M624.697 400.954c0-3.073-.016-26.585 0-28.967.041-6.291 28.99-11.427 36.046.894 1.52 2.655 3 18.651 3 27.744" style="fill:#fff" transform="matrix(.48 0 0 .48 -171.61 -17.045)"/><path d="M130.03 161.791c.256-.163 1.125-.699 1.868-.939 2.314-.745 5.665-1.04 8.434-.349 1.558.388 2.946 1.07 3.663 2.323.166.29.269 1.032.418 1.998.447 2.894.786 7.453.786 10.43a1.788 1.788 0 0 0 3.574 0c0-3.133-.357-7.93-.828-10.976-.244-1.58-.576-2.754-.848-3.228-1.63-2.845-5.197-4.25-8.994-4.472-3.72-.218-7.579.662-9.57 1.872-1.433.871-2.07 2.022-2.076 3.047-.008 1.144 0 12.44 0 13.916a1.788 1.788 0 0 0 3.574 0c0-1.394-.007-11.559 0-13.622Z"/><path d="M642.659 373.467c0 1.372.43 10.043.364 10.109-.07.07 0 .343 0 .227" style="fill:#fff;stroke:#000;stroke-width:2.48px" transform="matrix(.48 0 0 .48 -171.61 -17.106)"/><path d="M537.421 379.669c-13.611 18.138-9.611 34.329 1.32 42.438 10.93 8.109 28.791 8.136 42.902-6.052 25.166-25.304-27.043-53.564-44.222-36.386Z" style="fill:#fff" transform="matrix(.31429 0 0 .31135 -37.927 50.56)"/><path d="M129.72 167.501c-.06.06-.115.123-.166.19-5.097 6.73-3.312 12.724.78 15.733 4.022 2.955 10.613 3.113 15.804-2.058 2.028-2.02 2.737-4.119 2.634-6.078-.149-2.805-2.085-5.455-4.865-7.302-2.583-1.715-5.853-2.733-8.713-2.633-2.155.075-4.087.774-5.473 2.148Zm2.602 2.457c.768-.706 1.84-.993 2.997-1.033 2.174-.076 4.648.735 6.61 2.039 1.768 1.173 3.18 2.73 3.274 4.513.058 1.098-.45 2.224-1.587 3.356-3.68 3.665-8.314 3.805-11.164 1.71-2.757-2.025-3.497-6.058-.132-10.582l.002-.003Z"/></g><path d="M232.296 118.949c-23.581 56.336-43.683 85.642-63.784 125.846-14.408 28.815-42.707 103.439-42.707 103.439s320.525-5.75 332.889-5.015c65.832 3.914 352.444 5.015 352.444 5.015s-30.352-79.017-35.811-84.476c-14.603-14.604-41.206-99.776-56.889-134.465-11.382-25.173-178.682-8.948-236.175-8.62-73.688.422-249.967-4.865-249.967-1.724Z" style="fill:#fff" transform="matrix(.48 0 0 .48 10.08 -17.045)"/><path d="M117.857 39.005C106.66 65.658 97.09 79.619 87.53 98.739c-6.965 13.931-20.655 50.007-20.655 50.007a3.84 3.84 0 0 0 3.659 5.2s153.566-2.765 159.49-2.413c31.64 1.881 169.387 2.414 169.387 2.414a3.84 3.84 0 0 0 3.599-5.216s-9.387-24.429-14.49-35.55c-1.557-3.393-2.925-5.694-3.569-6.338-1.91-1.91-4.17-6.658-6.752-12.683-6.642-15.494-14.494-39.055-19.771-50.727-.793-1.752-2.42-3.402-5.017-4.669-4.053-1.976-11.098-3.235-19.902-3.832-27.306-1.85-72.589 1.996-91.966 2.106-28.296.162-88.108-1.43-110.9-1.3-5.946.033-9.707.386-10.403.668-1.57.636-2.169 1.684-2.385 2.6v-.001Zm261.525 73.125a72.553 72.553 0 0 1 2.158 4.253c3.568 7.775 9.253 22.136 12.268 29.86-26.148-.123-135.596-.727-163.327-2.376-5.26-.313-126.488 1.807-154.392 2.3 4.027-10.438 13.085-33.541 18.311-43.994 9.444-18.886 18.879-32.786 29.874-58.63 14.237-.674 85.6 1.356 117.314 1.175 19.258-.11 64.264-3.962 91.402-2.124 6.565.445 12.025 1.198 15.669 2.499.77.274 1.441.569 1.996.903.338.203.657.34.776.602 5.263 11.639 13.086 35.137 19.71 50.588 3.04 7.091 5.965 12.568 8.24 14.944ZM125.044 41.723c.276-.553.378-1.121.378-1.673 0 .51-.101 1.014-.298 1.483l-.08.19Z"/><g><path d="M417.678 278.114c3.46-29.781-64.11-46.733-94.25-48.835-37.525-2.617-96.271 14.86-98.913 43.239-1.424 15.297 46.683 42.302 98.198 40.997 8.598-.217 92.127-10.979 94.965-35.401Z" style="fill:#fff" transform="matrix(.38424 0 0 .2991 182.49 40.48)"/><path d="M346.777 124.233c.597-3.999-1.847-7.912-6.918-10.853-8.348-4.841-24.327-7.69-32.886-8.155-10.751-.583-25.744 2.043-34.152 6.729-4.695 2.616-7.453 6.049-7.876 9.583-.162 1.363.167 2.91 1.289 4.473.903 1.258 2.483 2.668 4.708 4.01 6.896 4.163 20.91 8.365 35.624 8.075 2.407-.048 19.5-1.705 29.928-5.302 3.092-1.067 5.646-2.342 7.303-3.711 1.778-1.47 2.728-3.155 2.98-4.849Zm-7.59-1.355a6.74 6.74 0 0 1-.736.62c-1.127.76-2.679 1.42-4.462 2.035-9.608 3.314-25.357 4.84-27.575 4.883-12.997.256-25.412-3.294-31.504-6.97-.816-.493-1.677-1.234-2.134-1.648.28-.549.803-1.036 1.406-1.54 1.426-1.194 3.395-2.23 5.675-3.148 7.634-3.075 18.55-4.658 26.7-4.216 6.627.36 18.195 2.225 26.113 5.51 2.285.948 4.246 1.985 5.554 3.198.46.427.912.796.962 1.276Z"/></g><path d="M503.673 171.995c4.457 33.171 75.057 43.927 99.315 43.665 30.531-.33 105.349-10.239 106.085-46.385.076-3.722-2.318-8.427-7.511-13.19-13.127-12.043-44.14-24.461-98.353-22.318-52.37 2.071-101.284 25.211-99.536 38.228Z" style="fill:#fff" transform="matrix(.48 0 0 .48 10.08 -17.045)"/><path d="M248.038 66.024c1.013 7.546 7.671 13.422 16.63 17.304 11.873 5.145 27.572 7.062 34.888 6.983 9.147-.099 26.25-1.955 38.552-7.295 9.455-4.103 15.997-10.408 16.166-18.73.052-2.56-1.28-5.965-4.848-9.24-6.68-6.128-22.375-12.81-49.957-11.72-18.425.729-35.974 6.733-44.559 12.461-2.646 1.766-4.524 3.576-5.579 5.202-1.15 1.772-1.5 3.497-1.293 5.035Zm7.661-.7c.131-.198.434-.64.698-.917.697-.73 1.64-1.473 2.777-2.231 7.812-5.214 23.83-10.513 40.598-11.176 24.463-.967 38.538 4.271 44.462 9.705 1.423 1.305 2.383 2.404 2.362 3.424-.113 5.563-5.226 9.1-11.546 11.842-11.349 4.926-27.139 6.57-35.577 6.66-6.658.073-20.946-1.667-31.752-6.35-6.038-2.616-11.156-5.942-12.022-10.957Z"/><path d="M533.85 208.382c0 13.548 68.526 24.303 85.834 23.319 63.961-3.635 83.493-17.323 80.672-27.391-2.408-8.591-10.273-20.956-28.63-29.286-12.109-5.493-28.783-9.231-51.465-8.971-64.151.735-86.411 19.395-86.411 42.329Z" style="fill:#fff" transform="matrix(.48 0 0 .48 10.08 -17.045)"/><path d="M262.488 82.978c0 1.427.513 2.885 1.71 4.25 1.434 1.638 4.313 3.335 8.143 4.732 10.654 3.887 29.327 6.39 35.405 6.045 22.896-1.301 34.567-5.51 39.07-9.45 3.278-2.87 3.868-5.943 3.132-8.567-1.346-4.803-5.59-11.862-15.853-16.518-6.198-2.813-14.723-4.783-26.334-4.65-16.284.187-27.225 2.784-34.12 6.655-8.02 4.5-11.153 10.735-11.153 17.503Zm80.018-1.076c-.09.135-.322.472-.54.682-.468.45-1.083.89-1.844 1.33-5.085 2.948-15.319 5.43-32.811 6.424-5.554.315-22.604-2.042-32.338-5.592-1.904-.695-4.101-2.019-4.784-2.445.224-3.962 2.456-7.46 7.21-10.129 6.144-3.448 15.941-5.506 30.45-5.672 10.165-.117 17.647 1.502 23.073 3.964 7.25 3.29 10.564 8.005 11.584 11.438Z"/><g><path d="M269.534 81.268c-.13-.168-.235-.264-.27-.303-1.296-1.457-2.76-1.579-4.193-1.053-.186.07-2.143.636-2.496 3.153-.135.971-.819 10.04-.819 12.603 0 5.403.665 23.549 1.16 27.487.231 1.843 1.04 2.764 1.25 2.974 6.902 6.901 22.935 12.883 37.114 13.689 10.608.603 26.67-2.49 36.193-5.269 4.866-1.419 8.187-3.036 9.066-3.916.309-.309.812-.911 1.118-1.974.222-.771.48-2.584.687-5.08.89-10.704 1.578-35.926 1.578-35.926a3.841 3.841 0 0 0-5.035-3.754s-25.878 8.562-39.486 8.21c-7.613-.196-17.648-2.636-25.535-5.608-4.527-1.705-8.34-3.51-10.332-5.234Zm.178 9.14a53.731 53.731 0 0 0 3.322 1.6c9.024 3.987 22.414 7.527 32.17 7.779 10.593.274 28.188-4.444 36.884-7.001-.28 8.96-.903 26.625-1.634 32.58-1.122.453-3.148 1.232-5.132 1.811-8.845 2.58-23.753 5.534-33.606 4.973-11.664-.663-24.899-5.072-31.254-10.643-.466-4.877-1.026-20.892-1.026-25.84 0-.966.126-3.092.276-5.258Zm-7.144-6.59c.038.659.245 1.294.599 1.844-.257-.351-.557-.94-.599-1.844Z"/><path d="M699.614 204.811c-4.298 2.566-4.163 6.188-4.15 7.186.019 1.376 1.761 9.352 10.079 7.725 5.382-1.053 49.239-15.934 77.14-23.509 26.82-7.281 60.976-16.671 71.856-22.11 1.435-.718 4.288-.705 7.636-.937 7.491-.519 16.789-.86 23.718-2.585 7.281-1.813 12.319-5.511 14.312-10.155 1.537-3.58 1.811-8.15-1.046-13.865-1.233-2.465-4.43-5.419-9.952-7.064-11.605-3.457-37.876-3.55-51.891.008-7.158 1.818-53.604 17.593-74.613 28.364-26.504 13.587-48.269 28.096-63.089 36.942Zm183.956-50.198a28.13 28.13 0 0 0-2.6-.609c-11.003-1.919-29.333-1.627-39.716 1.009-6.837 1.736-51.188 16.808-71.252 27.094a402.137 402.137 0 0 0-4.508 2.345 704.725 704.725 0 0 1 12.997-3.68c25.691-6.974 58.471-15.769 68.893-20.98 1.846-.923 4.754-1.686 8.389-2.117 5.758-.682 14.051-.763 21.269-1.718 2.383-.315 4.628-.717 6.528-1.344Z" style="fill:#040000" transform="matrix(.48 0 0 .48 10.08 -17.045)"/></g><path d="M417.678 278.114c3.46-29.781-64.11-46.733-94.25-48.835-37.525-2.617-96.271 14.86-98.913 43.239-1.424 15.297 46.683 42.302 98.198 40.997 8.598-.217 92.127-10.979 94.965-35.401Z" style="fill:#fff" transform="matrix(.48 0 0 .48 10.08 -17.045)"/><path d="M214.38 116.893c.646-5.565-2.332-10.607-7.825-14.7-10.4-7.748-30.3-12.271-40.963-13.015-11.427-.797-26.731 2.085-37.437 7.623-8.109 4.195-13.522 10.06-14.131 16.607-.287 3.074 1.824 7.235 6.677 10.997 8.59 6.662 26.047 13.34 44.378 12.876 3.006-.076 24.353-2.73 37.375-8.5 3.757-1.665 6.858-3.622 8.872-5.759 1.776-1.885 2.801-3.956 3.054-6.13Zm-7.63-.886c-.104.9-.806 1.625-1.674 2.377-1.448 1.255-3.442 2.36-5.733 3.375-12.007 5.321-31.687 7.774-34.458 7.845-16.287.412-31.845-5.35-39.478-11.268-1.378-1.068-2.472-2.117-3.18-3.14-.283-.409-.589-.727-.556-1.076.405-4.356 4.618-7.707 10.013-10.498 9.543-4.937 23.188-7.493 33.374-6.782 8.288.578 22.758 3.584 32.66 8.862 2.975 1.586 5.525 3.356 7.227 5.386 1.253 1.493 2.016 3.108 1.806 4.919Z"/><path d="M322.495 138.007c-27.797.397-62.359 7.156-71.236 34.384-7.507 23.025 37.112 33.602 73.999 32.982 35.466-.596 72.945-9.437 74.257-25.898 2.324-29.154-52.206-41.823-77.02-41.468Z" style="fill:#fff" transform="matrix(.48 0 0 .48 10.08 -17.045)"/><path d="M164.823 45.358c-8.599.124-18.435 1.51-25.932 5.566-5.524 2.99-9.833 7.38-11.858 13.588-2.03 6.23 1.016 11.414 7.677 15.004 7.545 4.066 20.252 6.048 31.558 5.857 12.67-.212 25.813-2.641 32.806-6.868 4.089-2.472 6.327-5.66 6.601-9.097.561-7.04-3.966-12.762-11.044-16.751-9.03-5.09-22.163-7.408-29.808-7.299Zm.11 7.68c6.647-.095 18.076 1.884 25.927 6.31 4.183 2.357 7.49 5.29 7.16 9.45-.056.686-.522 1.247-1.116 1.805-1.088 1.022-2.633 1.89-4.475 2.673-6.589 2.802-16.609 4.256-26.29 4.418-9.94.167-21.152-1.364-27.786-4.939-2.809-1.514-4.874-3.235-4.018-5.863 1.761-5.401 6.185-8.652 11.432-10.692 5.932-2.307 12.931-3.073 19.166-3.162Z"/><path d="M809.805 472.234c0 42.201-4.88 97.995-11 165.334-5.24 57.658-4.668 194.334-9 198.666-.396.397-118.553 0-129.333 0-64.48 0-302.707 5.313-381.334 1.334-23.9-1.21-139.596.404-142.666-2.667v-64c0-8.8-13.334-313.293-13.334-300.392" style="fill:#fff" transform="matrix(.48 0 0 .48 10.08 -17.045)"/><path d="M65.42 209.544c.027.427.07 1.116.111 1.88 1.035 19.174 6.216 137.768 6.216 141.563v30.72c0 1.019.404 1.996 1.124 2.716.33.329 1.023.902 2.283 1.193 1.009.232 3.448.444 6.875.572 15.326.575 52.673.17 61.843.634 37.781 1.913 152.252-.635 183.235-.635 4.66 0 51.099.154 60.479.046 1.218-.014 1.955-.055 2.108-.077 1.389-.193 2.006-.892 2.208-1.093.357-.358.902-1.054 1.229-2.258.336-1.238.658-4.153.895-8.297 1.074-18.718 1.295-65.065 3.305-87.173 2.95-32.464 5.295-59.363 5.295-79.708 0-2.119-1.72-3.84-3.84-3.84-2.119 0-3.84 1.721-3.84 3.84 0 20.168-2.34 46.832-5.264 79.013-2.015 22.173-2.247 68.656-3.323 87.429a94.22 94.22 0 0 1-.38 4.497c-12.017.082-54.432-.059-58.872-.059-30.918 0-145.146 2.553-182.846.645-9.186-.465-46.593-.063-61.944-.639a83.081 83.081 0 0 1-2.89-.164v-27.362c0-3.807-5.189-122.747-6.227-141.976-.096-1.786-.181-2.83-.21-3.006-.5-3.03-3.152-3.202-3.527-3.228-.926-.065-1.882.153-2.774.92-.089.076-1.343.913-1.343 3.102 0 .255.025.504.073.745Zm7.21.955-.004.005.003-.005Zm.026-.055c.21-.406.37-.944.37-1.645 0 .588-.132 1.146-.37 1.645Z"/><path d="M158.84 906.188c-2.661 2.662-10.891 70.857-9.035 70.046 2.194-.958 114.832 2.424 129.333 2.667 79.578 1.333 494.307 1.693 498.667-2.667 1.912-1.911-1.487-71.454-3.829-71.454" style="fill:#fff" transform="matrix(.48 0 0 .48 10.08 -17.045)"/><path d="M378.19 419.035c.83 4.38 1.745 21.867 1.67 29.074-.824.06-1.788.12-2.78.164-34.085 1.49-198.606 1.29-232.95.715-5.895-.1-45.527-1.276-58.262-1.358.6-7.46 2.635-23.398 3.763-27.66l.057-.195a3.841 3.841 0 0 0-6.08-4.565 4.57 4.57 0 0 0-.97 1.48c-.264.623-.633 1.993-.993 3.89-1.472 7.75-3.627 26.031-3.628 30.154 0 1.82.65 2.843.878 3.14a3.795 3.795 0 0 0 1.844 1.315 3.746 3.746 0 0 0 1.931.144 219.85 219.85 0 0 1 5.46 0c14.6.183 50.305 1.24 55.872 1.334 34.412.576 199.26.772 233.413-.722 3.346-.146 5.552-.335 6.419-.512 1.34-.273 2.022-.885 2.308-1.17.299-.3 1.143-1.376 1.301-3.407.404-5.207-.74-28.388-1.739-33.42-.296-1.492-.872-2.349-1.155-2.674-.946-1.082-2.03-1.353-2.96-1.353a3.842 3.842 0 0 0-3.4 5.626ZM82.198 447.71a3.688 3.688 0 0 0-1.749.319c.135-.06.734-.223 1.749-.32Zm299.155-26.627h.02l-.09-.007.07.007Zm-.237-.022.047.004-.11-.014.063.01Zm-.237-.037.07.011-.108-.02.038.009Zm-.239-.053.035.008-.039-.01.004.002Z"/><path d="M136.472 834.901c-2.209 4.417-3.92 64.081 1.333 69.333 3.308 3.309 100.633 2.667 112 2.667 29.501 0 325.776-1.333 374.667-1.333 13.086 0 165.362 1.304 169.333-2.667 5.42-5.42-1.566-66.667-4-66.667" style="fill:#fff" transform="matrix(.48 0 0 .48 10.08 -17.045)"/><path d="M385.952 386.415c.92 3.465 2.267 15.4 2.28 23.077.002 1.19-.103 2.523-.2 3.493-1.412.13-3.55.304-5.665.39-19.846.815-67.526.413-72.54.413-23.468 0-165.68.64-179.84.64-4.346 0-34.978.2-47.866-.532a61.876 61.876 0 0 1-2.944-.247c-.194-1.208-.469-3.115-.568-4.788-.482-8.161-.076-20.27.538-23.651l.027-.134a3.842 3.842 0 0 0-1.87-4.803 3.842 3.842 0 0 0-5.152 1.717c-.234.468-.6 1.726-.805 3.605-.537 4.9-.862 15.974-.404 23.72.188 3.18.53 5.845.99 7.452.413 1.444 1.042 2.4 1.578 2.936.341.341.978.85 2.066 1.16.938.267 3.107.531 6.109.701 13.006.738 43.916.543 48.3.543 14.16 0 156.373-.64 179.84-.64 5.036 0 52.924.4 72.855-.418 4.331-.177 7.444-.446 8.73-.744 1.33-.308 2.067-.899 2.41-1.242.799-.798 1.769-2.935 1.99-6.132.544-7.87-1.375-24.802-2.525-28.816-.904-3.153-3.407-3.608-4.1-3.608-2.119 0-3.84 1.721-3.84 3.84 0 .761.222 1.471.606 2.068Zm1.465 1.34c.52.284 1.042.4 1.53.424a3.802 3.802 0 0 1-1.53-.424Z"/><g><path d="M177.805 509.568c-.008-.008 74.109-1.334 96-1.334 62.684 0 267.327 8 333.333 8 9.282 0 135.434-5.899 137.334-4 4.097 4.098-4.552 133.104-2.667 178.667.947 22.895-4.663 81.996-2.667 105.333.017.2-75.249 2.667-113.333 4-106.648 3.734-213.407 1.334-321.333 1.334-10.276 0-120.948-7.614-122.667-9.334-2.929-2.928-4.512-98.976-5.333-140-.258-12.843-6.733-142.666 1.333-142.666Z" style="fill:#fff" transform="matrix(.48 0 0 .48 10.08 -17.045)"/><path d="M95.304 223.71c-1.179.028-2.456.488-3.464 1.94-.701 1.009-1.497 3.895-1.808 8.147-1.19 16.243.816 57.347.915 62.307.316 15.803.87 48.562 1.8 61.755.213 3.013.486 5.127.734 6.02.31 1.112.828 1.742 1.15 2.064.235.234.583.53 1.112.78.286.136 1.253.435 2.828.639 9.332 1.204 53.178 4.186 57.656 4.186 51.85 0 103.138 1.15 154.374-.643 16.463-.576 47.393-1.594 53.408-1.862.872-.039 1.381-.088 1.474-.104 3.361-.557 3.248-3.665 3.21-4.119-.955-11.164 1.743-39.438 1.29-50.392-.722-17.46 1.792-60.498 1.819-78.02.006-3.938-.155-6.726-.423-7.911-.288-1.273-.858-2.005-1.237-2.385a3.882 3.882 0 0 0-1.334-.876c-.324-.13-1.445-.38-3.253-.416-10.527-.206-60.034 2.087-64.049 2.087-31.683 0-129.911-3.84-160-3.84-9.471 0-39.28.516-45.144.622-.597.01-.95.018-1.014.019l-.044.002Zm268.719 8.777c.054 1.116.1 2.516.099 3.91-.027 17.595-2.538 60.816-1.812 78.35.409 9.887-1.71 33.8-1.456 46.736-9.779.372-35.88 1.234-50.522 1.747-51.146 1.79-102.346.638-154.105.638-4.25 0-44.581-2.74-55.608-3.995-1.062-10.486-1.655-47.01-1.993-63.923-.106-5.28-2.526-52.34-.638-64.608 8.256-.146 34.71-.595 43.518-.595 30.089 0 128.317 3.84 160 3.84 3.851 0 49.66-2.12 62.517-2.1Zm-268.597-1.1.1-.003h.001l-.1.004Z"/></g><g><path d="M247.138 541.568c-1.605 1.604.633 70.6 1.334 117.333.252 16.875 6.651 81.318 5.333 100-.41 5.802 80.047 1.333 92 1.333 26.806 0 216.98 1.334 245.333 1.334 5.946 0 83.227-1.893 84-2.667.214-.213-.672-213.995 4-218.667.208-.207-74.631 2.667-81.333 2.667-68.555 0-136.551 2.667-205.333 2.667-26.614 0-145.334-6.379-145.334-4Z" style="fill:#fff" transform="matrix(.48 0 0 .48 10.08 -17.045)"/><path d="M124.885 242.499c-.09.39-.158.83-.19 1.326-.386 6.162.508 35.162.812 55.46.12 8.045 3.197 38.766 2.569 47.672-.085 1.212.27 2.448 1.485 3.494.714.613 2.791 1.457 5.975 1.738 10.053.884 35.902-.482 40.53-.482 12.867 0 104.15.64 117.76.64 2.586 0 33.086-.741 39.432-1.162 1.205-.08 1.938-.253 2.127-.32a3.743 3.743 0 0 0 1.477-.922c.048-.048 1.09-.837 1.129-2.766.015-.747.015-4.707.02-10.687.011-21.068.066-67.45 1.006-86.075.14-2.8.442-5.584.54-6.445.627-1.135.481-2.28-.015-3.336-.162-.345-.788-1.925-3.046-2.184-.086-.01-.616-.033-1.512-.01-5.76.15-35.07 1.267-37.958 1.267-32.906 0-65.544 1.28-98.56 1.28-11.52 0-58.924-2.478-68.29-2.14-1.227.043-2.05.181-2.418.29a3.987 3.987 0 0 0-1.66.935c-.807.756-1.136 1.601-1.213 2.427Zm206.703 3.73c-.089 1.107-.17 2.38-.242 3.799-.943 18.709-1.004 65.296-1.016 86.457l-.01 7.163c-9.383.423-34.187 1.02-36.494 1.02-13.61 0-104.893-.64-117.76-.64-4.359 0-32.656.141-40.244.18-.026-11.68-2.526-37.69-2.636-45.038-.274-18.263-1.049-43.646-.898-52.678 12.496-.045 55.325 2.176 66.179 2.176 33.015 0 65.653-1.28 98.56-1.28 2.504 0 24.771-.833 34.56-1.158Zm-199.208-2.168.004-.05c.107-.355.162-.727.162-1.103 0 .38-.046.768-.166 1.153Z"/></g><g><path d="M149.623 371.312c0-.805-.173 3.603-.543 4.342-1.085 2.17-1.747 10.738-.272 12.213.091.091 18.952-1.596 22.256-1.357 3.284.239 34.479 1.618 35.553.543.248-.247-1-8.054-1-8.442 0-1.373 1.07-6.958.186-7.842-.507-.508-11.108.48-14.113-.271-3.657-.915-38.945.814-42.067.814Z" style="fill:#fff;stroke:#000;stroke-width:2.48px" transform="matrix(.48 0 0 .48 10.08 -17.045)"/><path d="M149.623 371.312c0-.805-.173 3.603-.543 4.342-1.085 2.17-1.747 10.738-.272 12.213.091.091 18.952-1.596 22.256-1.357 3.284.239 34.479 1.618 35.553.543.248-.247-1-8.054-1-8.442 0-1.373 1.07-6.958.186-7.842-.507-.508-11.108.48-14.113-.271-3.657-.915-38.945.814-42.067.814Z" style="fill:#fff;stroke:#000;stroke-width:2.48px" transform="matrix(.48 0 0 .48 11.04 -1.205)"/><path d="M149.623 371.312c0-.805-.173 3.603-.543 4.342-1.085 2.17-1.747 10.738-.272 12.213.091.091 18.952-1.596 22.256-1.357 3.284.239 34.479 1.618 35.553.543.248-.247-1-8.054-1-8.442 0-1.373 1.07-6.958.186-7.842-.507-.508-11.108.48-14.113-.271-3.657-.915-38.945.814-42.067.814Z" style="fill:#fff;stroke:#000;stroke-width:3.65px" transform="matrix(.39822 0 0 .23482 24.58 75.892)"/><path d="M149.623 371.312c0-.805-.173 3.603-.543 4.342-1.085 2.17-1.747 10.738-.272 12.213.091.091 18.952-1.596 22.256-1.357 3.284.239 34.479 1.618 35.553.543.248-.247-1-8.054-1-8.442 0-1.373 1.07-6.958.186-7.842-.507-.508-11.108.48-14.113-.271-3.657-.915-38.945.814-42.067.814Z" style="fill:#fff;stroke:#000;stroke-width:3.65px" transform="matrix(.39822 0 0 .23482 25.54 91.732)"/></g></svg>