<svg viewBox="0 0 246 246" xmlns="http://www.w3.org/2000/svg" xml:space="preserve" style="fill-rule:evenodd;clip-rule:evenodd;stroke-linejoin:round;stroke-miterlimit:2"><path d="M35.233 75.054c1.371 1.37 27.802.659 29.76-.32 3.372-1.686 17.159 1.28 21.44 1.28 18.793 0 36.821-1.92 55.36-1.92 12.834 0 25.394 1.28 38.4 1.28 5.439 0 11.085-.32 16.32-.32h3.2s-.03 1.339-.32 1.92c-2.334 4.669.64 11.19.64 16v3.2l-.64-.64c-.707-.707-9.495-.373-10.88.32-2.357 1.178-25.129 1.28-28.8 1.28-25.646 0-50.392.32-76.16.32-6.436 0-45.804.275-47.04-.96-.577-.577-.96-17.438-.96-20.16 0-1.827-.96.095-.96.96"/><path d="M64.228 72.972c-.171.028-1.809.288-3.397.412-4.876.382-13.095.609-18.89.47-2.653-.063-5.328-.387-5.7-.434a1.919 1.919 0 0 0-2.927 1.635c-.345.675-.641 1.61-.641 2.239 0 .725.403 1.356.996 1.683.082 4.26.301 11.933.61 15.62.095 1.139.221 1.959.33 2.314.152.496.39.784.547.94.187.188.555.469 1.187.638.728.195 2.439.374 4.82.497 10.942.563 37.229.388 42.39.388 25.768 0 50.514-.32 76.16-.32 2.956 0 18.219-.068 25.42-.702 2.144-.189 3.674-.499 4.239-.781l-.05.023s1.012-.214 1.829-.3c2.204-.233 6.352-.107 7.21-.077l.314.314c.55.549 1.375.714 2.093.417a1.922 1.922 0 0 0 1.185-1.774v-3.2c0-2.495-.751-5.437-1.22-8.357-.385-2.401-.618-4.793.377-6.785.416-.83.523-2.736.523-2.736a1.92 1.92 0 0 0-1.92-1.962h-3.2c-5.235 0-10.881.32-16.32.32-13.006 0-25.566-1.28-38.4-1.28-18.539 0-36.567 1.92-55.36 1.92-2.978 0-10.583-1.453-16.028-1.745-2.708-.145-4.957.058-6.177.623ZM197.3 76.974h-.787c-5.235 0-10.881.32-16.32.32-13.006 0-25.566-1.28-38.4-1.28-18.539 0-36.567 1.92-55.36 1.92-2.603 0-8.674-1.07-13.852-1.567-1.93-.185-3.726-.289-5.13-.2-.674.042-1.232.1-1.599.284-.395.198-1.566.464-3.285.635-5.527.549-17.92.866-24.025.471a39.152 39.152 0 0 1-1.058-.083c.051 3.808.298 13.788.674 17.404.777.088 2 .211 3.203.273 10.891.56 37.055.383 42.192.383 25.768 0 50.514-.32 76.16-.32 2.557 0 14.429-.049 22.126-.481 1.925-.108 3.581-.239 4.746-.401.512-.072.889-.105 1.07-.196.436-.218 1.419-.465 2.694-.616 2.313-.275 5.768-.383 7.764-.218v-.328c0-2.828-1.067-6.255-1.413-9.536-.239-2.277-.15-4.487.6-6.464Z"/><path d="M36.513 96.494c-.091-.091-2.04 7.94-1.92 8 2.661 1.33 126.453.64 131.84.64 11.184 0 31.469 1.171 32.96-.32.947-.947 1.01-9.28 0-9.28" style="fill:#fff"/><path d="M197.977 96.829c.063.411.194 1.331.217 2.061.044 1.374-.197 3.486-.312 4.397-.809.1-2.571.296-4.197.334-7.168.167-19.436-.407-27.252-.407-4.309 0-84.377.442-117.595-.063-5.013-.076-9.549-.27-11.91-.385.443-1.911 1.107-4.729 1.332-5.474a1.924 1.924 0 0 0-.389-2.156c-.636-.636-1.388-.815-2.281-.328-.088.048-.697.369-.991 1.32-.354 1.15-1.701 6.718-1.886 7.861-.245 1.511.889 2.156 1.022 2.222.189.094.706.26 1.556.344 1.938.19 6.765.334 13.489.436 33.234.505 113.342.063 117.653.063 8.989 0 23.83.746 30.174.281 1.31-.097 2.309-.258 2.915-.455.592-.193.986-.466 1.229-.709.377-.377.865-1.396 1.069-2.827.316-2.213.291-5.675-.072-7.344-.181-.834-.51-1.4-.782-1.691-.476-.509-1.027-.695-1.573-.695a1.921 1.921 0 0 0-1.416 3.215ZM35.233 97.924c.585.545 1.268.705 2.065.322a1.92 1.92 0 0 1-2.065-.322Zm163.169-.746c.319.231.687.276.991.276a1.91 1.91 0 0 1-.991-.276Z"/><path d="M154.967 87.706c0-.737-.004-6.38 0-6.952.01-1.51 6.958-2.742 8.651.215.365.637.72 4.476.72 6.658" style="fill:#fff"/><path d="M155.861 80.896c.127-.082.562-.35.933-.47 1.157-.373 2.833-.52 4.217-.175.78.195 1.473.536 1.832 1.162.083.145.134.516.209.999.223 1.447.393 3.727.393 5.215a.893.893 0 1 0 1.787 0c0-1.566-.179-3.965-.414-5.488-.122-.79-.288-1.377-.424-1.614-.815-1.423-2.599-2.125-4.497-2.236-1.86-.109-3.789.331-4.785.936-.717.436-1.035 1.011-1.038 1.524-.004.572 0 6.219 0 6.957a.893.893 0 1 0 1.787 0c0-.697-.004-5.779 0-6.81Z"/><path d="M159.278 81.079c0 .329.103 2.41.088 2.426-.017.017 0 .082 0 .055" style="fill:#fff"/><path d="M159.069 83.472a.354.354 0 0 0-.006.112.352.352 0 0 0 .112.213.287.287 0 0 0 .2.067.283.283 0 0 0 .218-.106c.016-.019.071-.075.071-.198a.313.313 0 0 0-.004-.044.48.48 0 0 0 .005-.078c-.005-.351-.089-2.063-.089-2.359a.297.297 0 1 0-.596 0c0 .297.084 2.015.089 2.367v.026Zm.586.075a.338.338 0 0 1-.079.169.297.297 0 0 0 .079-.169Zm-.538-.152a.258.258 0 0 0-.049.147.3.3 0 0 1 .049-.147Z"/><path d="M156.335 84.385c-2.139 2.824-1.511 5.344.207 6.607 1.718 1.262 4.524 1.266 6.742-.942 3.955-3.94-4.25-8.339-6.949-5.665Z" style="fill:#fff"/><path d="M155.706 83.75a.962.962 0 0 0-.084.096c-2.548 3.364-1.656 6.362.391 7.866 2.01 1.477 5.306 1.556 7.901-1.029 1.014-1.01 1.369-2.059 1.317-3.039-.074-1.403-1.042-2.728-2.432-3.651-1.292-.858-2.926-1.367-4.357-1.317-1.077.038-2.043.388-2.736 1.074Zm1.3 1.229c.384-.353.92-.497 1.499-.517 1.087-.038 2.324.368 3.305 1.02.884.586 1.589 1.365 1.637 2.256.029.55-.226 1.113-.794 1.679-1.839 1.832-4.157 1.902-5.582.855-1.378-1.013-1.748-3.03-.066-5.292l.001-.001Z"/><path d="M174.606 87.987c0-.737-.004-6.38 0-6.952.01-1.51 6.957-2.742 8.651.215.365.637.72 4.476.72 6.658" style="fill:#fff"/><path d="M175.499 81.177c.128-.082.562-.35.934-.47 1.157-.373 2.832-.52 4.217-.175.779.195 1.473.536 1.831 1.162.083.145.134.516.209.999.224 1.447.393 3.727.393 5.215a.894.894 0 0 0 1.787 0c0-1.566-.178-3.965-.414-5.488-.122-.79-.288-1.377-.424-1.614-.814-1.423-2.598-2.125-4.497-2.236-1.86-.109-3.789.331-4.785.936-.716.435-1.034 1.011-1.038 1.523-.004.573 0 6.22 0 6.958a.894.894 0 0 0 1.787 0c0-.697-.003-5.779 0-6.81Z"/><path d="M178.917 81.36c0 .329.103 2.41.087 2.426-.017.017 0 .082 0 .054" style="fill:#fff"/><path d="M178.707 83.753a.347.347 0 0 0 .107.325.291.291 0 0 0 .199.067.285.285 0 0 0 .218-.106c.017-.02.071-.075.071-.199a.337.337 0 0 0-.003-.044.466.466 0 0 0 .004-.077c-.005-.351-.088-2.063-.088-2.359a.298.298 0 0 0-.596 0c0 .297.083 2.015.088 2.367v.026Zm.587.074c-.022.109-.074.164-.079.17a.304.304 0 0 0 .079-.17Zm-.539-.151a.258.258 0 0 0-.048.147.298.298 0 0 1 .048-.147Z"/><path d="M175.973 84.666c-2.139 2.824-1.51 5.344.208 6.607 1.717 1.262 4.524 1.266 6.741-.942 3.955-3.94-4.249-8.339-6.949-5.665Z" style="fill:#fff"/><path d="M175.344 84.031a.84.84 0 0 0-.083.096c-2.549 3.364-1.656 6.361.39 7.866 2.011 1.477 5.306 1.556 7.902-1.029 1.014-1.01 1.369-2.059 1.317-3.039-.075-1.403-1.042-2.728-2.433-3.651-1.291-.858-2.926-1.367-4.356-1.317-1.077.038-2.043.388-2.737 1.074Zm1.301 1.229c.384-.353.919-.497 1.498-.517 1.087-.038 2.324.368 3.306 1.02.883.586 1.589 1.365 1.636 2.256.029.549-.225 1.112-.793 1.678-1.84 1.833-4.157 1.903-5.582.856-1.379-1.013-1.749-3.03-.066-5.292l.001-.001Z"/><path d="M136.686 87.706c0-.737-.004-6.38 0-6.952.01-1.51 6.957-2.742 8.651.215.365.637.72 4.476.72 6.658" style="fill:#fff"/><path d="M137.579 80.896c.128-.082.562-.35.934-.47 1.157-.373 2.832-.52 4.217-.175.779.195 1.473.536 1.831 1.162.083.145.134.516.209.999.224 1.447.393 3.727.393 5.215a.894.894 0 0 0 1.787 0c0-1.566-.178-3.965-.414-5.488-.122-.79-.288-1.377-.424-1.614-.814-1.423-2.598-2.125-4.497-2.236-1.86-.109-3.789.331-4.785.936-.716.436-1.034 1.011-1.038 1.524-.004.572 0 6.219 0 6.957a.894.894 0 0 0 1.787 0c0-.697-.003-5.779 0-6.81Z"/><path d="M140.997 81.079c0 .329.103 2.41.087 2.426-.017.017 0 .082 0 .055" style="fill:#fff"/><path d="M140.787 83.472a.347.347 0 0 0 .107.325.286.286 0 0 0 .199.067.282.282 0 0 0 .218-.106c.017-.019.071-.075.071-.198a.315.315 0 0 0-.003-.044.484.484 0 0 0 .004-.078c-.005-.351-.088-2.063-.088-2.359a.298.298 0 0 0-.596 0c0 .297.083 2.015.088 2.367v.026Zm.587.075c-.022.108-.074.163-.079.169a.304.304 0 0 0 .079-.169Zm-.539-.152a.258.258 0 0 0-.048.147.298.298 0 0 1 .048-.147Z"/><path d="M138.053 84.385c-2.139 2.824-1.51 5.344.208 6.607 1.717 1.262 4.524 1.266 6.741-.942 3.955-3.94-4.249-8.339-6.949-5.665Z" style="fill:#fff"/><path d="M137.424 83.75a.84.84 0 0 0-.083.096c-2.549 3.364-1.656 6.362.39 7.866 2.011 1.477 5.306 1.556 7.902-1.029 1.014-1.01 1.369-2.059 1.317-3.039-.075-1.403-1.042-2.728-2.433-3.651-1.291-.858-2.926-1.367-4.356-1.317-1.077.038-2.043.388-2.737 1.074Zm1.301 1.229c.384-.353.919-.497 1.498-.517 1.087-.038 2.324.368 3.306 1.02.883.586 1.589 1.365 1.636 2.256.029.55-.225 1.113-.793 1.679-1.84 1.832-4.157 1.902-5.582.855-1.379-1.013-1.749-3.03-.066-5.292l.001-.001Z"/><path d="M118.545 87.706c0-.737-.004-6.38 0-6.952.01-1.51 6.957-2.742 8.651.215.365.637.72 4.476.72 6.658" style="fill:#fff"/><path d="M119.438 80.896c.128-.082.562-.35.934-.47 1.157-.373 2.832-.52 4.217-.175.779.195 1.473.536 1.831 1.162.084.145.135.516.209.999.224 1.447.393 3.727.393 5.215a.894.894 0 0 0 1.787 0c0-1.566-.178-3.965-.414-5.488-.122-.79-.288-1.377-.424-1.614-.814-1.423-2.598-2.125-4.497-2.236-1.86-.109-3.789.331-4.785.936-.716.436-1.034 1.011-1.038 1.524-.003.572 0 6.219 0 6.957a.894.894 0 0 0 1.787 0c0-.697-.003-5.779 0-6.81Z"/><path d="M122.856 81.079c0 .329.103 2.41.087 2.426-.017.017 0 .082 0 .055" style="fill:#fff"/><path d="M122.647 83.472a.327.327 0 0 0-.006.112.347.347 0 0 0 .112.213.287.287 0 0 0 .2.067.281.281 0 0 0 .217-.106c.017-.019.071-.075.071-.198a.315.315 0 0 0-.003-.044.626.626 0 0 0 .005-.078c-.006-.351-.089-2.063-.089-2.359a.298.298 0 0 0-.596 0c0 .297.083 2.015.088 2.367l.001.026Zm.586.075a.347.347 0 0 1-.079.169.304.304 0 0 0 .079-.169Zm-.539-.152a.258.258 0 0 0-.048.147.298.298 0 0 1 .048-.147Z"/><path d="M119.912 84.385c-2.139 2.824-1.51 5.344.208 6.607 1.717 1.262 4.524 1.266 6.741-.942 3.955-3.94-4.249-8.339-6.949-5.665Z" style="fill:#fff"/><path d="M119.283 83.75a.84.84 0 0 0-.083.096c-2.549 3.364-1.656 6.362.39 7.866 2.011 1.477 5.306 1.556 7.902-1.029 1.014-1.01 1.369-2.059 1.317-3.039-.075-1.403-1.042-2.728-2.433-3.651-1.291-.858-2.926-1.367-4.356-1.317-1.077.038-2.043.388-2.737 1.074Zm1.301 1.229c.384-.353.92-.497 1.498-.517 1.087-.038 2.324.368 3.306 1.02.883.586 1.589 1.365 1.636 2.256.029.55-.225 1.113-.793 1.679-1.84 1.832-4.157 1.902-5.582.855-1.378-1.013-1.749-3.03-.066-5.292l.001-.001Z"/><path d="M99.924 87.706c0-.737-.004-6.38 0-6.952.01-1.51 6.958-2.742 8.651.215.365.637.72 4.476.72 6.658" style="fill:#fff"/><path d="M100.817 80.896c.128-.082.562-.35.934-.47 1.157-.373 2.832-.52 4.217-.175.779.195 1.473.536 1.832 1.162.083.145.134.516.208.999.224 1.447.393 3.727.393 5.215a.894.894 0 0 0 1.787 0c0-1.566-.178-3.965-.414-5.488-.122-.79-.288-1.377-.424-1.614-.814-1.423-2.598-2.125-4.497-2.236-1.86-.109-3.789.331-4.785.936-.716.436-1.034 1.011-1.038 1.524-.003.572 0 6.219 0 6.957a.894.894 0 0 0 1.787 0c0-.697-.003-5.779 0-6.81Z"/><path d="M104.235 81.079c0 .329.103 2.41.087 2.426-.017.017 0 .082 0 .055" style="fill:#fff"/><path d="M104.026 83.472a.327.327 0 0 0-.006.112.347.347 0 0 0 .112.213.287.287 0 0 0 .2.067.281.281 0 0 0 .217-.106c.017-.019.071-.075.071-.198a.315.315 0 0 0-.003-.044.626.626 0 0 0 .005-.078c-.006-.351-.089-2.063-.089-2.359a.298.298 0 0 0-.596 0c0 .297.083 2.015.089 2.367v.026Zm.586.075a.347.347 0 0 1-.079.169.297.297 0 0 0 .079-.169Zm-.538-.152a.25.25 0 0 0-.049.147.29.29 0 0 1 .049-.147Z"/><path d="M101.291 84.385c-2.139 2.824-1.51 5.344.208 6.607 1.717 1.262 4.524 1.266 6.742-.942 3.954-3.94-4.25-8.339-6.95-5.665Z" style="fill:#fff"/><path d="M100.662 83.75a.953.953 0 0 0-.083.096c-2.549 3.364-1.656 6.362.391 7.866 2.01 1.477 5.305 1.556 7.901-1.029 1.014-1.01 1.369-2.059 1.317-3.039-.074-1.403-1.042-2.728-2.432-3.651-1.292-.858-2.927-1.367-4.357-1.317-1.077.038-2.043.388-2.737 1.074Zm1.301 1.229c.384-.353.92-.497 1.498-.517 1.087-.038 2.324.368 3.306 1.02.883.586 1.589 1.365 1.636 2.256.029.55-.225 1.113-.793 1.679-1.84 1.832-4.157 1.902-5.582.855-1.378-1.013-1.749-3.03-.066-5.292l.001-.001Z"/><path d="M82.023 87.706c0-.737-.004-6.38 0-6.952.01-1.51 6.958-2.742 8.651.215.365.637.72 4.476.72 6.658" style="fill:#fff"/><path d="M82.916 80.896c.128-.082.563-.35.934-.47 1.157-.373 2.833-.52 4.217-.175.779.195 1.473.536 1.832 1.162.083.145.134.516.208.999.224 1.447.393 3.727.393 5.215a.894.894 0 0 0 1.788 0c0-1.566-.179-3.965-.414-5.488-.123-.79-.289-1.377-.425-1.614-.814-1.423-2.598-2.125-4.497-2.236-1.86-.109-3.789.331-4.784.936-.717.436-1.035 1.011-1.039 1.524-.003.572 0 6.219 0 6.957a.894.894 0 0 0 1.787 0c0-.697-.003-5.779 0-6.81Z"/><path d="M86.334 81.079c0 .329.103 2.41.087 2.426-.017.017 0 .082 0 .055" style="fill:#fff"/><path d="M86.125 83.472a.327.327 0 0 0-.006.112.347.347 0 0 0 .112.213.287.287 0 0 0 .2.067.28.28 0 0 0 .217-.106c.017-.019.071-.075.071-.198a.315.315 0 0 0-.003-.044.626.626 0 0 0 .005-.078c-.006-.351-.089-2.063-.089-2.359a.298.298 0 0 0-.596 0c0 .297.083 2.015.089 2.367v.026Zm.586.075a.347.347 0 0 1-.079.169.297.297 0 0 0 .079-.169Zm-.538-.152a.29.29 0 0 1 0 0Z"/><path d="M83.39 84.385c-2.139 2.824-1.51 5.344.208 6.607 1.717 1.262 4.524 1.266 6.742-.942 3.954-3.94-4.25-8.339-6.95-5.665Z" style="fill:#fff"/><path d="M82.762 83.75a.85.85 0 0 0-.084.096c-2.548 3.364-1.656 6.362.391 7.866 2.01 1.477 5.306 1.556 7.901-1.029 1.014-1.01 1.369-2.059 1.317-3.039-.074-1.403-1.042-2.728-2.432-3.651-1.292-.858-2.927-1.367-4.357-1.317-1.077.038-2.043.388-2.736 1.074Zm1.3 1.229c.384-.353.92-.497 1.498-.517 1.087-.038 2.324.368 3.306 1.02.883.586 1.589 1.365 1.636 2.256.029.55-.225 1.113-.793 1.679-1.84 1.832-4.157 1.902-5.582.855-1.378-1.013-1.749-3.03-.066-5.292l.001-.001Z"/><g><path d="M64.122 87.706c0-.737-.004-6.38 0-6.952.01-1.51 6.958-2.742 8.651.215.365.637.72 4.476.72 6.658" style="fill:#fff"/><path d="M65.015 80.896c.128-.082.563-.35.934-.47 1.157-.373 2.833-.52 4.217-.175.779.195 1.473.536 1.832 1.162.083.145.134.516.208.999.224 1.447.394 3.727.394 5.215a.893.893 0 1 0 1.787 0c0-1.566-.179-3.965-.414-5.488-.123-.79-.289-1.377-.424-1.614-.815-1.423-2.599-2.125-4.498-2.236-1.86-.109-3.789.331-4.784.936-.717.436-1.035 1.011-1.039 1.524-.003.572 0 6.219 0 6.957a.894.894 0 0 0 1.788 0c0-.697-.004-5.779-.001-6.81Z"/><path d="M68.433 81.079c0 .329.103 2.41.087 2.426-.017.017 0 .082 0 .055" style="fill:#fff"/><path d="M68.224 83.472a.327.327 0 0 0-.006.112.347.347 0 0 0 .112.213.287.287 0 0 0 .2.067.28.28 0 0 0 .217-.106c.017-.019.071-.075.071-.198a.315.315 0 0 0-.003-.044.626.626 0 0 0 .005-.078c-.005-.351-.089-2.063-.089-2.359a.298.298 0 0 0-.596 0c0 .297.083 2.015.089 2.367v.026Zm.586.075a.347.347 0 0 1-.079.169.297.297 0 0 0 .079-.169Zm-.538-.152a.258.258 0 0 0-.049.147.3.3 0 0 1 .049-.147Z"/><path d="M65.489 84.385c-2.138 2.824-1.51 5.344.208 6.607 1.717 1.262 4.524 1.266 6.742-.942 3.954-3.94-4.25-8.339-6.95-5.665Z" style="fill:#fff"/><path d="M64.861 83.75a.962.962 0 0 0-.084.096c-2.548 3.364-1.656 6.362.391 7.866 2.01 1.477 5.306 1.556 7.901-1.029 1.014-1.01 1.369-2.059 1.317-3.039-.074-1.403-1.042-2.728-2.432-3.651-1.292-.858-2.927-1.367-4.357-1.317-1.077.038-2.043.388-2.736 1.074Zm1.3 1.229c.384-.353.92-.497 1.499-.517 1.086-.038 2.323.368 3.305 1.02.883.586 1.589 1.365 1.636 2.256.029.55-.225 1.113-.793 1.679-1.839 1.832-4.157 1.902-5.582.855-1.378-1.013-1.749-3.03-.066-5.292l.001-.001Z"/></g><path d="M60.791 20.025c-5.659 13.521-10.484 20.554-15.308 30.203-3.458 6.916-10.25 24.826-10.25 24.826s76.926-1.38 79.893-1.204c15.8.939 84.587 1.204 84.587 1.204s-7.284-18.964-8.595-20.275c-3.504-3.505-9.889-23.946-13.653-32.271-2.731-6.042-42.883-2.148-56.682-2.069-17.685.101-59.992-1.168-59.992-.414Z" style="fill:#fff"/><path d="M58.928 19.502C53.33 32.829 48.545 39.81 43.766 49.37c-3.483 6.965-10.328 25.003-10.328 25.003a1.92 1.92 0 0 0 1.83 2.6s76.783-1.383 79.744-1.206c15.82.94 84.694 1.207 84.694 1.207a1.92 1.92 0 0 0 1.8-2.609s-4.694-12.214-7.246-17.775c-.778-1.696-1.462-2.847-1.784-3.168-.955-.956-2.085-3.329-3.376-6.342-3.321-7.747-7.247-19.527-9.885-25.363-.397-.877-1.21-1.702-2.509-2.335-2.026-.988-5.549-1.618-9.951-1.916-13.653-.925-36.294.998-45.983 1.053-14.148.081-44.054-.715-55.45-.65-2.973.016-4.854.193-5.201.334-.786.318-1.085.842-1.193 1.3v-.001Zm130.763 36.563c.071.128.627 1.142 1.079 2.127 1.784 3.887 4.626 11.068 6.134 14.929-13.074-.061-67.798-.363-81.664-1.188-2.629-.156-63.244.904-77.196 1.15 2.014-5.218 6.543-16.77 9.156-21.996 4.722-9.444 9.439-16.393 14.937-29.315 7.118-.338 42.8.678 58.657.587 9.629-.055 32.132-1.981 45.701-1.062 3.282.223 6.013.599 7.835 1.249.384.138.72.285.998.452.169.101.328.17.388.301 2.631 5.819 6.543 17.568 9.854 25.294 1.52 3.546 2.983 6.284 4.121 7.472ZM62.522 20.861c.138-.276.189-.56.189-.836 0 .255-.05.507-.149.742l-.04.094Z"/><path d="M171.49 61.833c.664-4.454-12.317-6.989-18.108-7.303-7.209-.391-18.495 2.222-19.003 6.466-.273 2.288 8.969 6.327 18.866 6.132 1.652-.033 17.7-1.642 18.245-5.295Z" style="fill:#fff"/><path d="M173.389 62.117c.298-2-.924-3.956-3.46-5.427-4.174-2.421-12.163-3.845-16.443-4.077-5.375-.292-12.872 1.021-17.076 3.364-2.347 1.308-3.726 3.024-3.937 4.791-.082.682.083 1.456.644 2.237.451.629 1.241 1.334 2.354 2.005 3.448 2.081 10.455 4.182 17.812 4.037 1.203-.023 9.75-.852 14.964-2.651 1.546-.533 2.823-1.171 3.651-1.855.889-.735 1.364-1.578 1.491-2.424Zm-3.796-.678c-.077.074-.24.224-.368.31-.563.38-1.339.71-2.231 1.017-4.804 1.658-12.678 2.42-13.787 2.442-6.499.128-12.706-1.647-15.752-3.485-.408-.247-.839-.617-1.067-.824.14-.274.401-.518.703-.77.713-.597 1.698-1.115 2.837-1.574 3.818-1.537 9.276-2.329 13.35-2.108 3.314.18 9.098 1.113 13.057 2.755 1.142.474 2.123.992 2.777 1.599.23.214.456.398.481.638Z"/><path d="M125.922 32.756c1.069 7.961 18.013 10.543 23.835 10.48 7.328-.079 25.284-2.457 25.461-11.132.018-.894-.557-2.023-1.803-3.166-3.151-2.89-10.594-5.871-23.605-5.356-12.569.497-24.308 6.05-23.888 9.174Z" style="fill:#fff"/><path d="M124.019 33.012c.507 3.773 3.836 6.711 8.315 8.652 5.936 2.573 13.786 3.531 17.444 3.492 4.574-.05 13.125-.978 19.276-3.648 4.727-2.052 7.998-5.204 8.083-9.365.026-1.28-.639-2.983-2.424-4.62-3.34-3.064-11.187-6.405-24.979-5.86-9.212.364-17.987 3.366-22.279 6.231-1.323.882-2.262 1.787-2.789 2.601-.575.885-.751 1.748-.647 2.517Zm3.831-.35c.065-.099.216-.32.349-.459.348-.364.819-.736 1.388-1.115 3.906-2.607 11.915-5.256 20.299-5.588 12.231-.483 19.269 2.136 22.231 4.853.711.652 1.191 1.202 1.181 1.711-.057 2.782-2.613 4.55-5.773 5.922-5.675 2.462-13.569 3.284-17.789 3.33-3.328.036-10.473-.834-15.876-3.175-3.018-1.309-5.577-2.972-6.01-5.479Z"/><path d="M133.164 41.489c0 3.252 16.446 5.833 20.6 5.597 15.351-.873 20.038-4.158 19.361-6.574-.577-2.062-2.465-5.03-6.871-7.029-2.906-1.318-6.908-2.215-12.351-2.153-15.397.177-20.739 4.655-20.739 10.159Z" style="fill:#fff"/><path d="M131.244 41.489c0 .713.256 1.442.855 2.125.717.819 2.156 1.668 4.072 2.366 5.326 1.943 14.663 3.195 17.702 3.023 11.448-.651 17.284-2.755 19.535-4.726 1.639-1.434 1.934-2.971 1.566-4.283-.673-2.401-2.795-5.931-7.927-8.259-3.099-1.406-7.361-2.391-13.166-2.325-8.142.094-13.613 1.392-17.061 3.327-4.009 2.25-5.576 5.368-5.576 8.752Zm40.009-.538a2.29 2.29 0 0 1-.27.341 4.762 4.762 0 0 1-.922.665c-2.543 1.474-7.66 2.715-16.406 3.212-2.776.158-11.301-1.021-16.168-2.796-.952-.347-2.051-1.009-2.393-1.222.112-1.982 1.228-3.731 3.605-5.065 3.073-1.724 7.971-2.753 15.226-2.836 5.082-.058 8.823.751 11.536 1.982 3.625 1.645 5.282 4.002 5.792 5.719Z"/><g><path d="M134.767 40.634c-.065-.084-.117-.132-.135-.152-.648-.728-1.38-.789-2.097-.526-.093.034-1.071.318-1.247 1.576-.068.486-.41 5.02-.41 6.302 0 2.702.333 11.774.58 13.744.116.921.52 1.382.625 1.486 3.451 3.451 11.467 6.442 18.557 6.845 5.304.302 13.335-1.245 18.097-2.634 2.432-.71 4.093-1.519 4.533-1.958.154-.155.406-.456.558-.987.111-.386.24-1.293.344-2.54.445-5.352.789-17.964.789-17.964a1.919 1.919 0 0 0-2.517-1.876s-12.939 4.281-19.743 4.105c-3.807-.099-8.824-1.319-12.768-2.804-2.264-.853-4.17-1.756-5.166-2.618v.001Zm.089 4.57c.513.271 1.069.538 1.661.8 4.512 1.994 11.207 3.764 16.085 3.89 5.297.136 14.094-2.223 18.442-3.501-.14 4.48-.451 13.312-.817 16.29a29.29 29.29 0 0 1-2.566.906c-4.423 1.29-11.876 2.766-16.803 2.486-5.832-.332-12.45-2.536-15.627-5.321-.233-2.439-.513-10.447-.513-12.92 0-.483.063-1.546.138-2.63Zm-3.572-3.295c.019.33.123.647.299.922-.128-.175-.278-.47-.299-.922Z"/><path d="M172.947 40.632c-1.031.616-.999 1.485-.996 1.725.005.33.423 2.244 2.419 1.854 1.292-.253 11.818-3.824 18.514-5.642 6.437-1.748 14.634-4.001 17.245-5.307.345-.172 1.029-.169 1.833-.225 1.798-.124 4.029-.206 5.692-.62 1.748-.435 2.957-1.323 3.435-2.437.369-.86.435-1.956-.251-3.328-.296-.592-1.063-1.301-2.388-1.695-2.786-.83-9.091-.852-12.454.002-1.718.436-12.865 4.222-17.907 6.807-6.361 3.261-11.585 6.743-15.142 8.866Zm44.15-12.048a6.85 6.85 0 0 0-.624-.146c-2.641-.46-7.04-.39-9.532.243-1.641.416-12.285 4.033-17.101 6.502-.364.187-.724.374-1.082.563 1.111-.325 2.168-.625 3.12-.883 6.166-1.674 14.033-3.785 16.534-5.036.443-.221 1.141-.404 2.014-.507 1.382-.164 3.372-.184 5.104-.413.572-.075 1.111-.172 1.567-.323Z" style="fill:#040000"/></g><path d="M105.283 58.225c.83-7.148-15.387-11.216-22.62-11.72-9.006-.629-23.105 3.566-23.739 10.377-.342 3.671 11.203 10.152 23.567 9.839 2.064-.052 22.111-2.635 22.792-8.496Z" style="fill:#fff"/><path d="M107.19 58.446c.323-2.782-1.166-5.303-3.913-7.349-5.2-3.874-15.149-6.136-20.481-6.508-5.714-.398-13.366 1.042-18.718 3.811-4.055 2.098-6.761 5.031-7.066 8.304-.143 1.537.912 3.617 3.338 5.499 4.296 3.33 13.024 6.67 22.19 6.438 1.503-.039 12.176-1.365 18.687-4.251 1.879-.832 3.429-1.81 4.436-2.879.888-.942 1.401-1.978 1.527-3.065Zm-3.815-.443c-.052.451-.403.813-.837 1.189-.724.628-1.721 1.18-2.867 1.688-6.003 2.66-15.843 3.887-17.229 3.922-8.143.206-15.922-2.675-19.739-5.634-.689-.534-1.236-1.059-1.589-1.57-.142-.204-.295-.363-.279-.538.203-2.178 2.31-3.853 5.007-5.249 4.772-2.468 11.594-3.746 16.687-3.391 4.144.289 11.379 1.792 16.33 4.431 1.488.793 2.762 1.678 3.614 2.693.626.746 1.008 1.554.902 2.459Z"/><path d="M82.439 24.599c-6.671.095-14.966 1.718-17.097 8.252-1.801 5.526 8.907 8.065 17.76 7.916 8.512-.143 17.507-2.265 17.822-6.216.557-6.997-12.53-10.037-18.485-9.952Z" style="fill:#fff"/><path d="M82.411 22.679c-4.299.062-9.217.756-12.965 2.783-2.763 1.495-4.917 3.69-5.929 6.794-1.016 3.115.508 5.707 3.838 7.502 3.772 2.033 10.126 3.024 15.779 2.929 6.335-.107 12.906-1.321 16.403-3.435 2.044-1.235 3.164-2.829 3.301-4.548.28-3.52-1.983-6.381-5.522-8.376-4.515-2.545-11.082-3.703-14.905-3.649Zm.055 3.84c3.324-.048 9.038.942 12.964 3.155 2.091 1.178 3.745 2.645 3.58 4.725-.028.343-.261.623-.558.903-.544.511-1.317.944-2.238 1.336-3.294 1.401-8.304 2.128-13.144 2.209-4.971.084-10.576-.682-13.893-2.47-1.405-.756-2.438-1.617-2.009-2.931.88-2.701 3.092-4.326 5.716-5.346 2.966-1.154 6.465-1.537 9.582-1.581Z"/><path d="M199.393 104.814c0 10.128-1.171 23.518-2.64 39.68-1.257 13.838-1.12 46.64-2.16 47.68-.095.095-28.452 0-31.04 0-15.475 0-72.649 1.275-91.52.32-5.736-.291-33.503.097-34.24-.64v-15.36c0-2.112-3.2-75.191-3.2-72.095" style="fill:#fff"/><path d="M32.71 104.772c.014.213.035.558.056.94.517 9.587 3.107 68.884 3.107 70.782v15.36c0 .509.202.997.563 1.357.164.165.511.452 1.141.597.504.116 1.724.222 3.438.286 7.663.287 26.336.085 30.921.317 18.891.956 76.126-.317 91.617-.317 2.331 0 25.55.077 30.24.023.609-.007.977-.028 1.054-.039.694-.097 1.003-.446 1.104-.547.179-.179.451-.526.614-1.128.168-.619.329-2.077.448-4.149.537-9.359.648-32.532 1.652-43.587 1.475-16.231 2.648-29.681 2.648-39.853a1.92 1.92 0 0 0-3.84 0c0 10.084-1.17 23.415-2.632 39.506-1.007 11.086-1.123 34.328-1.661 43.714a47.316 47.316 0 0 1-.19 2.249c-6.009.041-27.217-.029-29.437-.029-15.458 0-72.572 1.276-91.423.322-4.592-.232-23.296-.032-30.972-.319a41.578 41.578 0 0 1-1.445-.082v-13.681c0-1.904-2.594-61.374-3.113-70.989a28.737 28.737 0 0 0-.105-1.503c-.25-1.515-1.576-1.6-1.763-1.613a1.841 1.841 0 0 0-1.387.46c-.045.038-.672.456-.672 1.55 0 .128.013.252.037.373Zm3.605.477-.002.003.002-.003Zm.013-.027c.105-.203.185-.472.185-.823 0 .295-.066.573-.185.823Z"/><path d="M43.162 208.963c-.639.638-2.614 17.005-2.169 16.811.527-.23 27.56.581 31.04.64 19.099.32 118.634.406 119.68-.64.459-.459-.357-17.149-.919-17.149" style="fill:#fff"/><path d="M189.095 209.518c.415 2.189.873 10.933.835 14.537a50.1 50.1 0 0 1-1.39.081c-17.043.746-99.303.646-116.475.358-2.947-.049-22.764-.638-29.131-.679.3-3.73 1.318-11.699 1.882-13.83l.028-.098a1.92 1.92 0 0 0-3.04-2.282 2.283 2.283 0 0 0-.485.739c-.132.313-.316.998-.497 1.946-.736 3.875-1.813 13.016-1.814 15.077 0 .91.326 1.421.44 1.57.277.361.606.552.922.658.308.103.63.137.965.072.247-.004 1.398-.018 2.73-.001 7.3.092 25.153.621 27.936.667 17.206.289 99.63.386 116.706-.36 1.673-.073 2.776-.168 3.21-.257.67-.136 1.011-.442 1.154-.585.149-.149.572-.687.65-1.703.203-2.604-.369-14.194-.869-16.71-.148-.746-.436-1.174-.578-1.337a1.878 1.878 0 0 0-1.48-.676 1.92 1.92 0 0 0-1.699 2.813ZM41.099 223.855a1.855 1.855 0 0 0-.875.159c.068-.029.368-.111.875-.159Zm149.577-13.314h.011l-.046-.003.035.003Zm-.118-.011.024.003-.056-.007.032.004Zm-.119-.018.035.006-.054-.01.019.004Zm-.119-.026.017.003-.019-.004.002.001Z"/><path d="M37.793 191.854c-.53 1.06-.941 15.379.32 16.64.794.794 24.152.64 26.88.64 7.08 0 78.186-.32 89.92-.32 3.141 0 39.687.313 40.64-.64 1.301-1.301-.376-16-.96-16" style="fill:#fff"/><path d="M192.976 193.208c.46 1.732 1.134 7.699 1.14 11.538.001.595-.052 1.261-.1 1.746-.706.066-1.775.152-2.833.196-9.922.407-33.763.206-36.27.206-11.734 0-82.84.32-89.92.32-2.172 0-17.488.1-23.933-.266a31.214 31.214 0 0 1-1.471-.123 25.384 25.384 0 0 1-.284-2.394c-.242-4.081-.038-10.135.268-11.826l.014-.067a1.92 1.92 0 0 0-3.511-1.543c-.117.234-.3.863-.403 1.802-.268 2.451-.431 7.988-.202 11.86.094 1.591.265 2.923.495 3.726.207.722.522 1.2.79 1.468.17.171.489.425 1.033.58.469.134 1.553.266 3.054.351 6.503.369 21.958.272 24.15.272 7.08 0 78.186-.32 89.92-.32 2.518 0 26.462.199 36.428-.209 2.165-.089 3.722-.224 4.364-.372.665-.154 1.034-.45 1.206-.622.399-.399.884-1.467.994-3.066.273-3.935-.687-12.401-1.262-14.407-.452-1.577-1.703-1.804-2.05-1.804a1.921 1.921 0 0 0-1.617 2.954Zm.733.669c.259.143.521.2.764.213a1.897 1.897 0 0 1-.764-.213Z"/><path d="M47.713 113.774c-.002-.002 17.786-.32 23.04-.32 15.044 0 64.159 1.92 80 1.92 2.228 0 32.504-1.416 32.96-.96.984.983-1.092 31.944-.64 42.88.228 5.494-1.119 19.679-.64 25.28.004.048-18.06.64-27.2.96-25.595.896-51.217.32-77.12.32-2.466 0-29.027-1.828-29.44-2.24-.703-.703-1.083-23.755-1.28-33.6-.062-3.083-1.616-34.24.32-34.24Z" style="fill:#fff"/><path d="M47.652 111.855c-.59.014-1.228.244-1.732.97-.35.505-.749 1.948-.904 4.074-.595 8.121.408 28.673.458 31.153.158 7.901.435 24.281.9 30.878.106 1.506.243 2.563.367 3.009.155.557.414.872.575 1.032.117.118.291.265.556.391.142.067.626.217 1.414.319 4.665.602 26.589 2.093 28.827 2.093 25.925 0 51.57.575 77.187-.321 8.232-.289 23.697-.798 26.705-.931.436-.02.69-.045.737-.053 1.68-.278 1.624-1.832 1.604-2.059-.477-5.582.872-19.719.646-25.196-.362-8.729.895-30.249.909-39.01.003-1.969-.077-3.363-.212-3.956-.144-.636-.429-1.002-.618-1.192a1.95 1.95 0 0 0-.667-.438c-.162-.065-.723-.19-1.627-.208-5.263-.103-30.017 1.044-32.024 1.044-15.841 0-64.956-1.92-80-1.92-4.736 0-19.64.258-22.572.311l-.507.009-.022.001Zm134.359 4.389c.027.558.051 1.258.05 1.954-.014 8.798-1.269 30.408-.906 39.175.204 4.944-.855 16.9-.728 23.368-4.889.187-17.94.618-25.261.874-25.573.895-51.173.319-77.053.319-2.125 0-22.29-1.37-27.803-1.998-.531-5.242-.828-23.505-.997-31.961-.053-2.64-1.263-26.17-.319-32.304 4.128-.073 17.355-.297 21.759-.297 15.044 0 64.159 1.92 80 1.92 1.926 0 24.83-1.061 31.258-1.05Zm-134.298-.55.05-.002h.001l-.051.002Z"/><path d="M64.353 121.454c-.385.385.152 16.944.32 28.16.061 4.05 1.597 19.516 1.28 24-.098 1.392 19.211.32 22.08.32 6.434 0 52.075.32 58.88.32 1.427 0 19.974-.455 20.16-.64.051-.052-.161-51.359.96-52.48.05-.05-17.911.64-19.52.64-16.453 0-32.772.64-49.28.64-6.387 0-34.88-1.531-34.88-.96Z" style="fill:#fff"/><path d="M62.443 121.249c-.046.195-.08.416-.095.664-.194 3.08.253 17.581.405 27.729.061 4.023 1.599 19.383 1.285 23.837-.043.606.135 1.224.743 1.746.357.307 1.395.729 2.987.869 5.027.442 17.951-.24 20.265-.24 6.434 0 52.075.32 58.88.32 1.293 0 16.543-.371 19.716-.581.602-.04.969-.127 1.064-.16.385-.134.608-.331.738-.462.024-.024.545-.418.565-1.383.007-.373.007-2.353.009-5.343.006-10.534.034-33.725.503-43.038.071-1.4.222-2.792.271-3.222.313-.568.24-1.14-.008-1.668-.081-.172-.394-.963-1.523-1.092-.043-.005-.308-.017-.756-.005-2.88.075-17.535.634-18.979.634-16.453 0-32.772.64-49.28.64-5.76 0-29.462-1.239-34.145-1.071-.614.022-1.025.091-1.209.145a2.001 2.001 0 0 0-.83.468 1.849 1.849 0 0 0-.606 1.213Zm103.351 1.866a66.924 66.924 0 0 0-.121 1.899c-.471 9.354-.502 32.648-.508 43.229l-.005 3.581c-4.692.212-17.094.51-18.247.51-6.805 0-52.446-.32-58.88-.32-2.18 0-16.328.071-20.122.09-.013-5.84-1.263-18.845-1.318-22.519-.137-9.131-.524-21.823-.449-26.339 6.248-.023 27.663 1.088 33.089 1.088 16.508 0 32.827-.64 49.28-.64 1.252 0 12.386-.416 17.281-.579Zm-99.604-1.084.002-.026c.053-.177.081-.363.081-.551 0 .19-.023.384-.083.577Z"/><g><path d="M40.949 80.592c0-.193-.041.865-.13 1.042-.26.521-.419 2.577-.065 2.932.022.021 4.548-.384 5.341-.326.789.057 8.275.388 8.533.13.06-.059-.24-1.933-.24-2.026 0-.329.257-1.67.045-1.882-.122-.122-2.666.115-3.387-.065-.878-.22-9.347.195-10.097.195Z" style="fill:#fff"/><path d="M41.063 80.293a.302.302 0 0 0-.31.051c-.02.017-.072.06-.095.158-.005.02-.026.361-.058.667a5.011 5.011 0 0 1-.052.341c-.193.399-.344 1.582-.282 2.388.032.418.141.742.277.878.021.021.072.074.178.086.014.002.079.003.186-.004.75-.049 4.459-.372 5.167-.321.633.046 5.568.268 7.65.222.449-.01.774-.035.915-.072a.433.433 0 0 0 .2-.106.395.395 0 0 0 .095-.284c-.005-.347-.248-1.869-.248-1.953 0-.23.126-.956.129-1.443a1.514 1.514 0 0 0-.053-.451.513.513 0 0 0-.118-.199.365.365 0 0 0-.15-.087 1.684 1.684 0 0 0-.388-.036c-.72-.008-2.424.121-2.988-.02-.852-.213-8.8.157-10.055.185Zm13.144.433c.006.051.012.116.012.172-.003.488-.129 1.215-.129 1.446 0 .074.186 1.255.236 1.782a9.178 9.178 0 0 1-.615.037c-2.066.045-6.966-.175-7.594-.22-.703-.051-4.317.256-5.193.316l-.008-.033a2.216 2.216 0 0 1-.056-.374c-.054-.706.056-1.745.226-2.084a1.32 1.32 0 0 0 .084-.343c.023-.165.041-.374.053-.541 1.642-.051 8.942-.4 9.75-.198.624.156 2.597.01 3.234.04Z"/><path d="M41.429 88.512c0-.193-.041.865-.13 1.042-.26.521-.419 2.577-.065 2.932.022.021 4.548-.384 5.341-.326.789.057 8.275.388 8.533.13.06-.059-.24-1.933-.24-2.026 0-.329.257-1.67.045-1.882-.122-.122-2.666.115-3.387-.065-.878-.22-9.347.195-10.097.195Z" style="fill:#fff"/><path d="M41.543 88.213a.302.302 0 0 0-.31.051c-.02.017-.072.06-.095.158-.005.02-.026.361-.058.667a5.011 5.011 0 0 1-.052.341c-.193.399-.344 1.582-.282 2.388.032.418.141.742.277.878.021.021.072.074.178.086.014.002.079.003.186-.004.75-.049 4.459-.372 5.167-.321.633.046 5.568.268 7.65.222.449-.01.774-.035.915-.072a.433.433 0 0 0 .2-.106.395.395 0 0 0 .095-.284c-.005-.347-.248-1.869-.248-1.953 0-.23.126-.956.129-1.443a1.514 1.514 0 0 0-.053-.451.513.513 0 0 0-.118-.199.365.365 0 0 0-.15-.087 1.684 1.684 0 0 0-.388-.036c-.72-.008-2.424.121-2.988-.02-.852-.213-8.8.157-10.055.185Zm13.144.433c.006.051.012.116.012.172-.003.488-.129 1.215-.129 1.446 0 .074.186 1.255.236 1.782a9.178 9.178 0 0 1-.615.037c-2.066.045-6.966-.175-7.594-.22-.703-.051-4.317.256-5.193.316l-.008-.033a2.216 2.216 0 0 1-.056-.374c-.054-.706.056-1.745.226-2.084a1.32 1.32 0 0 0 .084-.343c.023-.165.041-.374.053-.541 1.642-.051 8.942-.4 9.75-.198.624.156 2.597.01 3.234.04Z"/><path d="M42.081 81.541c0-.094-.034.423-.108.51-.216.255-.348 1.261-.054 1.434.018.01 3.774-.188 4.431-.16.654.028 6.866.19 7.08.064.049-.029-.2-.945-.2-.991 0-.161.213-.817.037-.921-.101-.059-2.211.057-2.81-.032-.728-.107-7.754.096-8.376.096Z" style="fill:#fff"/><path d="M42.165 81.242a.28.28 0 0 0-.221.023.276.276 0 0 0-.141.155.556.556 0 0 0-.025.119c-.009.073-.05.305-.059.353a1.37 1.37 0 0 0-.189.44 2.437 2.437 0 0 0-.065.853c.035.27.153.468.303.557.015.008.056.035.132.04a1.9 1.9 0 0 0 .141-.002c.624-.024 3.708-.182 4.297-.157.524.023 4.615.131 6.34.109.364-.005.629-.017.743-.034a.468.468 0 0 0 .16-.052.32.32 0 0 0 .153-.298c-.004-.159-.166-.797-.205-.972.011-.13.104-.458.106-.682.002-.236-.094-.401-.216-.473a.339.339 0 0 0-.12-.043 2.16 2.16 0 0 0-.303-.017c-.602-.003-2.024.059-2.495-.01-.708-.105-7.331.079-8.336.091Zm10.863.516c-.006.07-.015.158-.027.22-.034.18-.069.346-.069.42 0 .017.018.121.052.263.029.119.071.309.103.461-.116.006-.263.012-.417.014-1.716.022-5.785-.086-6.307-.108-.579-.025-3.541.123-4.286.154a1.11 1.11 0 0 1-.03-.207 1.925 1.925 0 0 1 .076-.548.548.548 0 0 1 .077-.183.638.638 0 0 0 .11-.247c.01-.045.02-.103.029-.162 1.422-.026 7.408-.193 8.075-.095.498.074 2.033.009 2.614.018Zm-11.175-.025a.268.268 0 0 1-.07-.192c0 .073.027.14.07.192Z"/><path d="M42.561 89.461c0-.094-.034.423-.108.51-.216.255-.348 1.261-.054 1.434.018.01 3.774-.188 4.431-.16.654.028 6.866.19 7.08.064.049-.029-.2-.945-.2-.991 0-.161.213-.817.037-.921-.101-.059-2.211.057-2.81-.032-.728-.107-7.754.096-8.376.096Z" style="fill:#fff"/><path d="M42.645 89.162a.28.28 0 0 0-.221.023.276.276 0 0 0-.141.155.556.556 0 0 0-.025.119c-.009.073-.05.305-.059.353a1.37 1.37 0 0 0-.189.44 2.437 2.437 0 0 0-.065.853c.035.27.153.468.303.557.015.008.056.035.132.04a1.9 1.9 0 0 0 .141-.002c.624-.024 3.708-.182 4.297-.157.524.023 4.615.131 6.34.109.364-.005.629-.017.743-.034a.468.468 0 0 0 .16-.052.32.32 0 0 0 .153-.298c-.004-.159-.166-.797-.205-.972.011-.13.104-.458.106-.682.002-.236-.094-.401-.216-.473a.339.339 0 0 0-.12-.043 2.16 2.16 0 0 0-.303-.017c-.602-.003-2.024.059-2.495-.01-.708-.105-7.331.079-8.336.091Zm10.863.516c-.006.07-.015.158-.027.22-.034.18-.069.346-.069.42 0 .017.018.121.052.263.029.119.071.309.103.461-.116.006-.263.012-.417.014-1.716.022-5.785-.086-6.307-.108-.579-.025-3.541.123-4.286.154a1.11 1.11 0 0 1-.03-.207 1.925 1.925 0 0 1 .076-.548.548.548 0 0 1 .077-.183.638.638 0 0 0 .11-.247c.01-.045.02-.103.029-.162 1.422-.026 7.408-.193 8.075-.095.498.074 2.033.009 2.614.018Zm-11.175-.025a.268.268 0 0 1-.07-.192c0 .073.027.14.07.192Z"/></g></svg>