<?xml version="1.0" encoding="UTF-8" standalone="no"?>
<!DOCTYPE svg PUBLIC "-//W3C//DTD SVG 1.1//EN" "http://www.w3.org/Graphics/SVG/1.1/DTD/svg11.dtd">
<svg width="100%" height="100%" viewBox="0 0 492 492" version="1.1" xmlns="http://www.w3.org/2000/svg" xmlns:xlink="http://www.w3.org/1999/xlink" xml:space="preserve" xmlns:serif="http://www.serif.com/" style="fill-rule:evenodd;clip-rule:evenodd;stroke-linecap:round;stroke-linejoin:round;stroke-miterlimit:1.5;">
    <g transform="matrix(0.48,0,0,0.48,0,0)">
        <g transform="matrix(1,0,0,1,21,-35.5107)">
            <path d="M125.805,348.234C131.515,353.944 241.646,350.981 249.805,346.901C263.856,339.875 321.3,352.234 339.138,352.234C417.44,352.234 492.557,344.234 569.805,344.234C623.279,344.234 675.613,349.568 729.805,349.568C752.467,349.568 775.992,348.234 797.805,348.234L811.138,348.234C811.138,348.234 811.014,353.816 809.805,356.234C800.077,375.689 812.472,402.859 812.472,422.901L812.472,436.234C812.472,436.234 810.694,434.457 809.805,433.568C806.86,430.623 770.242,432.016 764.472,434.901C754.65,439.812 659.766,440.234 644.472,440.234C537.61,440.234 434.505,441.568 327.138,441.568C300.319,441.568 136.287,442.717 131.138,437.568C128.735,435.165 127.138,364.91 127.138,353.568C127.138,345.956 123.138,353.966 123.138,357.568"/>
            <path d="M246.616,339.561C245.905,339.675 239.081,340.76 232.461,341.278C212.148,342.867 177.901,343.813 153.755,343.238C142.7,342.974 131.552,341.621 130.004,341.426C126.922,339.52 122.821,339.904 120.148,342.578C118.586,344.14 117.805,346.19 117.807,348.24C116.371,351.051 115.138,354.949 115.138,357.568C115.138,360.588 116.815,363.219 119.288,364.58C119.629,382.331 120.541,414.3 121.827,429.665C122.225,434.412 122.751,437.826 123.205,439.305C123.838,441.371 124.83,442.574 125.481,443.225C126.261,444.005 127.796,445.178 130.43,445.883C133.463,446.696 140.592,447.439 150.513,447.95C196.106,450.298 305.633,449.568 327.138,449.568C434.505,449.568 537.61,448.234 644.472,448.234C656.789,448.234 720.382,447.951 750.389,445.311C759.321,444.525 765.695,443.234 768.049,442.056C767.988,442.087 767.842,442.151 767.842,442.151C767.842,442.151 772.058,441.262 775.462,440.902C784.646,439.932 801.929,440.457 805.503,440.579L806.815,441.891C809.103,444.179 812.543,444.864 815.533,443.625C818.522,442.387 820.472,439.47 820.472,436.234L820.472,422.901C820.472,412.505 817.342,400.248 815.389,388.08C813.784,378.076 812.812,368.109 816.96,359.812C818.69,356.352 819.136,348.413 819.136,348.413C819.184,346.26 818.363,344.18 816.858,342.641C815.353,341.102 813.291,340.234 811.138,340.234L797.805,340.234C775.992,340.234 752.467,341.568 729.805,341.568C675.613,341.568 623.279,336.234 569.805,336.234C492.557,336.234 417.44,344.234 339.138,344.234C326.73,344.234 295.042,338.182 272.354,336.966C261.07,336.361 251.7,337.207 246.616,339.561ZM801.084,356.234L797.805,356.234C775.992,356.234 752.467,357.568 729.805,357.568C675.613,357.568 623.279,352.234 569.805,352.234C492.557,352.234 417.44,360.234 339.138,360.234C328.293,360.234 302.994,355.776 281.419,353.707C273.38,352.936 265.896,352.501 260.048,352.871C257.236,353.05 254.913,353.291 253.383,354.056C251.737,354.88 246.857,355.991 239.694,356.703C216.669,358.992 165.028,360.312 139.593,358.663C138.03,358.562 136.556,358.446 135.182,358.318C135.395,374.186 136.426,415.771 137.993,430.837C141.23,431.201 146.323,431.713 151.336,431.971C196.717,434.308 305.733,433.568 327.138,433.568C434.505,433.568 537.61,432.234 644.472,432.234C655.126,432.234 704.59,432.031 736.663,430.231C744.683,429.781 751.585,429.237 756.439,428.559C758.57,428.261 760.142,428.121 760.894,427.746C762.711,426.837 766.81,425.808 772.12,425.177C781.757,424.031 796.154,423.582 804.472,424.269L804.472,422.901C804.472,411.121 800.024,396.838 798.585,383.171C797.586,373.683 797.957,364.472 801.084,356.234Z"/>
            <path d="M131.138,437.568C130.759,437.188 122.638,470.651 123.138,470.901C134.227,476.445 650.023,473.568 672.472,473.568C719.072,473.568 803.591,478.448 809.805,472.234C813.749,468.29 814.013,433.568 809.805,433.568" style="fill:white;"/>
            <path d="M803.902,438.965C804.167,440.677 804.714,444.512 804.81,447.554C804.991,453.279 803.988,462.076 803.508,465.872C800.138,466.289 792.797,467.107 786.022,467.265C756.155,467.96 705.039,465.568 672.472,465.568C654.517,465.568 320.899,467.41 182.493,465.308C161.606,464.991 142.704,464.183 132.868,463.702C134.714,455.738 137.48,444 138.415,440.892C139.763,437.942 139.222,434.338 136.795,431.911C134.146,429.262 131.011,428.515 127.293,430.544C126.924,430.745 124.386,432.082 123.164,436.044C121.686,440.834 116.073,464.036 115.303,468.798C114.285,475.095 119.007,477.78 119.561,478.056C120.348,478.45 122.506,479.141 126.047,479.489C134.121,480.28 154.234,480.881 182.25,481.306C320.724,483.409 654.508,481.568 672.472,481.568C709.926,481.568 771.763,484.679 798.196,482.738C803.654,482.337 807.819,481.664 810.34,480.844C812.809,480.041 814.452,478.901 815.462,477.891C817.035,476.318 819.067,472.073 819.918,466.111C821.233,456.889 821.129,442.464 819.617,435.51C818.861,432.036 817.491,429.678 816.359,428.466C814.374,426.342 812.078,425.568 809.805,425.568C805.39,425.568 801.805,429.152 801.805,433.568C801.805,435.647 802.6,437.542 803.902,438.965ZM125.803,443.528C128.241,445.798 131.085,446.464 134.408,444.868C131.596,446.128 128.203,445.681 125.803,443.528ZM805.675,440.419C807.002,441.381 808.536,441.568 809.805,441.568C808.294,441.568 806.88,441.148 805.675,440.419Z"/>
            <g id="nupp">
                <path d="M624.697,400.954C624.697,397.881 624.681,374.369 624.697,371.987C624.738,365.696 653.687,360.56 660.743,372.881C662.263,375.536 663.743,391.532 663.743,400.625" style="fill:white;"/>
                <path d="M628.419,372.576C628.951,372.236 630.762,371.119 632.31,370.62C637.131,369.066 644.112,368.453 649.881,369.892C653.127,370.701 656.018,372.123 657.512,374.731C657.858,375.336 658.071,376.882 658.382,378.895C659.314,384.923 660.02,394.422 660.02,400.625C660.02,402.68 661.688,404.348 663.743,404.348C665.798,404.348 667.466,402.68 667.466,400.625C667.466,394.097 666.722,384.101 665.741,377.757C665.232,374.466 664.54,372.02 663.974,371.031C660.58,365.104 653.146,362.179 645.236,361.715C637.486,361.261 629.448,363.095 625.299,365.615C622.313,367.43 620.988,369.828 620.974,371.963C620.958,374.347 620.974,397.878 620.974,400.954C620.974,403.009 622.642,404.677 624.697,404.677C626.752,404.677 628.42,403.009 628.42,400.954C628.42,398.05 628.406,376.874 628.419,372.576Z"/>
                <g>
                    <g transform="matrix(1,0,0,1,0,-0.127789)">
                        <path d="M642.659,373.467C642.659,374.839 643.089,383.51 643.023,383.576C642.953,383.646 643.023,383.919 643.023,383.803" style="fill:white;stroke:black;stroke-width:2.48px;"/>
                    </g>
                    <g transform="matrix(0.654768,0,0,0.648652,278.508,140.843)">
                        <path d="M537.421,379.669C523.81,397.807 527.81,413.998 538.741,422.107C549.671,430.216 567.532,430.243 581.643,416.055C606.809,390.751 554.6,362.491 537.421,379.669Z" style="fill:white;"/>
                        <path d="M533.419,375.592C533.228,375.783 533.051,375.987 532.889,376.204C516.671,397.815 522.349,417.069 535.373,426.732C548.168,436.224 569.139,436.73 585.656,420.122C592.107,413.635 594.365,406.895 594.035,400.602C593.562,391.593 587.403,383.08 578.557,377.15C570.339,371.64 559.935,368.371 550.835,368.691C543.978,368.933 537.831,371.18 533.419,375.592ZM541.696,383.484C544.14,381.216 547.548,380.294 551.231,380.164C558.147,379.921 566.019,382.525 572.265,386.713C577.887,390.481 582.378,395.484 582.679,401.209C582.864,404.736 581.246,408.353 577.63,411.989C565.924,423.759 551.176,424.209 542.108,417.482C533.338,410.975 530.981,398.021 541.688,383.493L541.696,383.484Z"/>
                    </g>
                </g>
            </g>
            <g id="nupp1" serif:id="nupp" transform="matrix(1,0,0,1,81.8271,1.17049)">
                <path d="M624.697,400.954C624.697,397.881 624.681,374.369 624.697,371.987C624.738,365.696 653.687,360.56 660.743,372.881C662.263,375.536 663.743,391.532 663.743,400.625" style="fill:white;"/>
                <path d="M628.419,372.576C628.951,372.236 630.762,371.119 632.31,370.62C637.131,369.066 644.112,368.453 649.881,369.892C653.127,370.701 656.018,372.123 657.512,374.731C657.858,375.336 658.071,376.882 658.382,378.895C659.314,384.923 660.02,394.422 660.02,400.625C660.02,402.68 661.688,404.348 663.743,404.348C665.798,404.348 667.466,402.68 667.466,400.625C667.466,394.097 666.722,384.101 665.741,377.757C665.232,374.466 664.54,372.02 663.974,371.031C660.58,365.104 653.146,362.179 645.236,361.715C637.486,361.261 629.448,363.095 625.299,365.615C622.313,367.43 620.988,369.828 620.974,371.963C620.958,374.347 620.974,397.878 620.974,400.954C620.974,403.009 622.642,404.677 624.697,404.677C626.752,404.677 628.42,403.009 628.42,400.954C628.42,398.05 628.406,376.874 628.419,372.576Z"/>
                <g>
                    <g transform="matrix(1,0,0,1,0,-0.127789)">
                        <path d="M642.659,373.467C642.659,374.839 643.089,383.51 643.023,383.576C642.953,383.646 643.023,383.919 643.023,383.803" style="fill:white;stroke:black;stroke-width:2.48px;"/>
                    </g>
                    <g transform="matrix(0.654768,0,0,0.648652,278.508,140.843)">
                        <path d="M537.421,379.669C523.81,397.807 527.81,413.998 538.741,422.107C549.671,430.216 567.532,430.243 581.643,416.055C606.809,390.751 554.6,362.491 537.421,379.669Z" style="fill:white;"/>
                        <path d="M533.419,375.592C533.228,375.783 533.051,375.987 532.889,376.204C516.671,397.815 522.349,417.069 535.373,426.732C548.168,436.224 569.139,436.73 585.656,420.122C592.107,413.635 594.365,406.895 594.035,400.602C593.562,391.593 587.403,383.08 578.557,377.15C570.339,371.64 559.935,368.371 550.835,368.691C543.978,368.933 537.831,371.18 533.419,375.592ZM541.696,383.484C544.14,381.216 547.548,380.294 551.231,380.164C558.147,379.921 566.019,382.525 572.265,386.713C577.887,390.481 582.378,395.484 582.679,401.209C582.864,404.736 581.246,408.353 577.63,411.989C565.924,423.759 551.176,424.209 542.108,417.482C533.338,410.975 530.981,398.021 541.688,383.493L541.696,383.484Z"/>
                    </g>
                </g>
            </g>
            <g id="nupp2" serif:id="nupp" transform="matrix(1,0,0,1,-76.1729,5.68434e-14)">
                <path d="M624.697,400.954C624.697,397.881 624.681,374.369 624.697,371.987C624.738,365.696 653.687,360.56 660.743,372.881C662.263,375.536 663.743,391.532 663.743,400.625" style="fill:white;"/>
                <path d="M628.419,372.576C628.951,372.236 630.762,371.119 632.31,370.62C637.131,369.066 644.112,368.453 649.881,369.892C653.127,370.701 656.018,372.123 657.512,374.731C657.858,375.336 658.071,376.882 658.382,378.895C659.314,384.923 660.02,394.422 660.02,400.625C660.02,402.68 661.688,404.348 663.743,404.348C665.798,404.348 667.466,402.68 667.466,400.625C667.466,394.097 666.722,384.101 665.741,377.757C665.232,374.466 664.54,372.02 663.974,371.031C660.58,365.104 653.146,362.179 645.236,361.715C637.486,361.261 629.448,363.095 625.299,365.615C622.313,367.43 620.988,369.828 620.974,371.963C620.958,374.347 620.974,397.878 620.974,400.954C620.974,403.009 622.642,404.677 624.697,404.677C626.752,404.677 628.42,403.009 628.42,400.954C628.42,398.05 628.406,376.874 628.419,372.576Z"/>
                <g>
                    <g transform="matrix(1,0,0,1,0,-0.127789)">
                        <path d="M642.659,373.467C642.659,374.839 643.089,383.51 643.023,383.576C642.953,383.646 643.023,383.919 643.023,383.803" style="fill:white;stroke:black;stroke-width:2.48px;"/>
                    </g>
                    <g transform="matrix(0.654768,0,0,0.648652,278.508,140.843)">
                        <path d="M537.421,379.669C523.81,397.807 527.81,413.998 538.741,422.107C549.671,430.216 567.532,430.243 581.643,416.055C606.809,390.751 554.6,362.491 537.421,379.669Z" style="fill:white;"/>
                        <path d="M533.419,375.592C533.228,375.783 533.051,375.987 532.889,376.204C516.671,397.815 522.349,417.069 535.373,426.732C548.168,436.224 569.139,436.73 585.656,420.122C592.107,413.635 594.365,406.895 594.035,400.602C593.562,391.593 587.403,383.08 578.557,377.15C570.339,371.64 559.935,368.371 550.835,368.691C543.978,368.933 537.831,371.18 533.419,375.592ZM541.696,383.484C544.14,381.216 547.548,380.294 551.231,380.164C558.147,379.921 566.019,382.525 572.265,386.713C577.887,390.481 582.378,395.484 582.679,401.209C582.864,404.736 581.246,408.353 577.63,411.989C565.924,423.759 551.176,424.209 542.108,417.482C533.338,410.975 530.981,398.021 541.688,383.493L541.696,383.484Z"/>
                    </g>
                </g>
            </g>
            <g id="nupp3" serif:id="nupp" transform="matrix(1,0,0,1,-151.76,-5.68434e-14)">
                <path d="M624.697,400.954C624.697,397.881 624.681,374.369 624.697,371.987C624.738,365.696 653.687,360.56 660.743,372.881C662.263,375.536 663.743,391.532 663.743,400.625" style="fill:white;"/>
                <path d="M628.419,372.576C628.951,372.236 630.762,371.119 632.31,370.62C637.131,369.066 644.112,368.453 649.881,369.892C653.127,370.701 656.018,372.123 657.512,374.731C657.858,375.336 658.071,376.882 658.382,378.895C659.314,384.923 660.02,394.422 660.02,400.625C660.02,402.68 661.688,404.348 663.743,404.348C665.798,404.348 667.466,402.68 667.466,400.625C667.466,394.097 666.722,384.101 665.741,377.757C665.232,374.466 664.54,372.02 663.974,371.031C660.58,365.104 653.146,362.179 645.236,361.715C637.486,361.261 629.448,363.095 625.299,365.615C622.313,367.43 620.988,369.828 620.974,371.963C620.958,374.347 620.974,397.878 620.974,400.954C620.974,403.009 622.642,404.677 624.697,404.677C626.752,404.677 628.42,403.009 628.42,400.954C628.42,398.05 628.406,376.874 628.419,372.576Z"/>
                <g>
                    <g transform="matrix(1,0,0,1,0,-0.127789)">
                        <path d="M642.659,373.467C642.659,374.839 643.089,383.51 643.023,383.576C642.953,383.646 643.023,383.919 643.023,383.803" style="fill:white;stroke:black;stroke-width:2.48px;"/>
                    </g>
                    <g transform="matrix(0.654768,0,0,0.648652,278.508,140.843)">
                        <path d="M537.421,379.669C523.81,397.807 527.81,413.998 538.741,422.107C549.671,430.216 567.532,430.243 581.643,416.055C606.809,390.751 554.6,362.491 537.421,379.669Z" style="fill:white;"/>
                        <path d="M533.419,375.592C533.228,375.783 533.051,375.987 532.889,376.204C516.671,397.815 522.349,417.069 535.373,426.732C548.168,436.224 569.139,436.73 585.656,420.122C592.107,413.635 594.365,406.895 594.035,400.602C593.562,391.593 587.403,383.08 578.557,377.15C570.339,371.64 559.935,368.371 550.835,368.691C543.978,368.933 537.831,371.18 533.419,375.592ZM541.696,383.484C544.14,381.216 547.548,380.294 551.231,380.164C558.147,379.921 566.019,382.525 572.265,386.713C577.887,390.481 582.378,395.484 582.679,401.209C582.864,404.736 581.246,408.353 577.63,411.989C565.924,423.759 551.176,424.209 542.108,417.482C533.338,410.975 530.981,398.021 541.688,383.493L541.696,383.484Z"/>
                    </g>
                </g>
            </g>
            <g id="nupp4" serif:id="nupp" transform="matrix(1,0,0,1,-229.347,5.68434e-14)">
                <path d="M624.697,400.954C624.697,397.881 624.681,374.369 624.697,371.987C624.738,365.696 653.687,360.56 660.743,372.881C662.263,375.536 663.743,391.532 663.743,400.625" style="fill:white;"/>
                <path d="M628.419,372.576C628.951,372.236 630.762,371.119 632.31,370.62C637.131,369.066 644.112,368.453 649.881,369.892C653.127,370.701 656.018,372.123 657.512,374.731C657.858,375.336 658.071,376.882 658.382,378.895C659.314,384.923 660.02,394.422 660.02,400.625C660.02,402.68 661.688,404.348 663.743,404.348C665.798,404.348 667.466,402.68 667.466,400.625C667.466,394.097 666.722,384.101 665.741,377.757C665.232,374.466 664.54,372.02 663.974,371.031C660.58,365.104 653.146,362.179 645.236,361.715C637.486,361.261 629.448,363.095 625.299,365.615C622.313,367.43 620.988,369.828 620.974,371.963C620.958,374.347 620.974,397.878 620.974,400.954C620.974,403.009 622.642,404.677 624.697,404.677C626.752,404.677 628.42,403.009 628.42,400.954C628.42,398.05 628.406,376.874 628.419,372.576Z"/>
                <g>
                    <g transform="matrix(1,0,0,1,0,-0.127789)">
                        <path d="M642.659,373.467C642.659,374.839 643.089,383.51 643.023,383.576C642.953,383.646 643.023,383.919 643.023,383.803" style="fill:white;stroke:black;stroke-width:2.48px;"/>
                    </g>
                    <g transform="matrix(0.654768,0,0,0.648652,278.508,140.843)">
                        <path d="M537.421,379.669C523.81,397.807 527.81,413.998 538.741,422.107C549.671,430.216 567.532,430.243 581.643,416.055C606.809,390.751 554.6,362.491 537.421,379.669Z" style="fill:white;"/>
                        <path d="M533.419,375.592C533.228,375.783 533.051,375.987 532.889,376.204C516.671,397.815 522.349,417.069 535.373,426.732C548.168,436.224 569.139,436.73 585.656,420.122C592.107,413.635 594.365,406.895 594.035,400.602C593.562,391.593 587.403,383.08 578.557,377.15C570.339,371.64 559.935,368.371 550.835,368.691C543.978,368.933 537.831,371.18 533.419,375.592ZM541.696,383.484C544.14,381.216 547.548,380.294 551.231,380.164C558.147,379.921 566.019,382.525 572.265,386.713C577.887,390.481 582.378,395.484 582.679,401.209C582.864,404.736 581.246,408.353 577.63,411.989C565.924,423.759 551.176,424.209 542.108,417.482C533.338,410.975 530.981,398.021 541.688,383.493L541.696,383.484Z"/>
                    </g>
                </g>
            </g>
            <g id="nupp5" serif:id="nupp" transform="matrix(1,0,0,1,-303.934,0)">
                <path d="M624.697,400.954C624.697,397.881 624.681,374.369 624.697,371.987C624.738,365.696 653.687,360.56 660.743,372.881C662.263,375.536 663.743,391.532 663.743,400.625" style="fill:white;"/>
                <path d="M628.419,372.576C628.951,372.236 630.762,371.119 632.31,370.62C637.131,369.066 644.112,368.453 649.881,369.892C653.127,370.701 656.018,372.123 657.512,374.731C657.858,375.336 658.071,376.882 658.382,378.895C659.314,384.923 660.02,394.422 660.02,400.625C660.02,402.68 661.688,404.348 663.743,404.348C665.798,404.348 667.466,402.68 667.466,400.625C667.466,394.097 666.722,384.101 665.741,377.757C665.232,374.466 664.54,372.02 663.974,371.031C660.58,365.104 653.146,362.179 645.236,361.715C637.486,361.261 629.448,363.095 625.299,365.615C622.313,367.43 620.988,369.828 620.974,371.963C620.958,374.347 620.974,397.878 620.974,400.954C620.974,403.009 622.642,404.677 624.697,404.677C626.752,404.677 628.42,403.009 628.42,400.954C628.42,398.05 628.406,376.874 628.419,372.576Z"/>
                <g>
                    <g transform="matrix(1,0,0,1,0,-0.127789)">
                        <path d="M642.659,373.467C642.659,374.839 643.089,383.51 643.023,383.576C642.953,383.646 643.023,383.919 643.023,383.803" style="fill:white;stroke:black;stroke-width:2.48px;"/>
                    </g>
                    <g transform="matrix(0.654768,0,0,0.648652,278.508,140.843)">
                        <path d="M537.421,379.669C523.81,397.807 527.81,413.998 538.741,422.107C549.671,430.216 567.532,430.243 581.643,416.055C606.809,390.751 554.6,362.491 537.421,379.669Z" style="fill:white;"/>
                        <path d="M533.419,375.592C533.228,375.783 533.051,375.987 532.889,376.204C516.671,397.815 522.349,417.069 535.373,426.732C548.168,436.224 569.139,436.73 585.656,420.122C592.107,413.635 594.365,406.895 594.035,400.602C593.562,391.593 587.403,383.08 578.557,377.15C570.339,371.64 559.935,368.371 550.835,368.691C543.978,368.933 537.831,371.18 533.419,375.592ZM541.696,383.484C544.14,381.216 547.548,380.294 551.231,380.164C558.147,379.921 566.019,382.525 572.265,386.713C577.887,390.481 582.378,395.484 582.679,401.209C582.864,404.736 581.246,408.353 577.63,411.989C565.924,423.759 551.176,424.209 542.108,417.482C533.338,410.975 530.981,398.021 541.688,383.493L541.696,383.484Z"/>
                    </g>
                </g>
            </g>
            <g id="nupp6" serif:id="nupp" transform="matrix(1,0,0,1,-378.522,-5.68434e-14)">
                <path d="M624.697,400.954C624.697,397.881 624.681,374.369 624.697,371.987C624.738,365.696 653.687,360.56 660.743,372.881C662.263,375.536 663.743,391.532 663.743,400.625" style="fill:white;"/>
                <path d="M628.419,372.576C628.951,372.236 630.762,371.119 632.31,370.62C637.131,369.066 644.112,368.453 649.881,369.892C653.127,370.701 656.018,372.123 657.512,374.731C657.858,375.336 658.071,376.882 658.382,378.895C659.314,384.923 660.02,394.422 660.02,400.625C660.02,402.68 661.688,404.348 663.743,404.348C665.798,404.348 667.466,402.68 667.466,400.625C667.466,394.097 666.722,384.101 665.741,377.757C665.232,374.466 664.54,372.02 663.974,371.031C660.58,365.104 653.146,362.179 645.236,361.715C637.486,361.261 629.448,363.095 625.299,365.615C622.313,367.43 620.988,369.828 620.974,371.963C620.958,374.347 620.974,397.878 620.974,400.954C620.974,403.009 622.642,404.677 624.697,404.677C626.752,404.677 628.42,403.009 628.42,400.954C628.42,398.05 628.406,376.874 628.419,372.576Z"/>
                <g>
                    <g transform="matrix(1,0,0,1,0,-0.127789)">
                        <path d="M642.659,373.467C642.659,374.839 643.089,383.51 643.023,383.576C642.953,383.646 643.023,383.919 643.023,383.803" style="fill:white;stroke:black;stroke-width:2.48px;"/>
                    </g>
                    <g transform="matrix(0.654768,0,0,0.648652,278.508,140.843)">
                        <path d="M537.421,379.669C523.81,397.807 527.81,413.998 538.741,422.107C549.671,430.216 567.532,430.243 581.643,416.055C606.809,390.751 554.6,362.491 537.421,379.669Z" style="fill:white;"/>
                        <path d="M533.419,375.592C533.228,375.783 533.051,375.987 532.889,376.204C516.671,397.815 522.349,417.069 535.373,426.732C548.168,436.224 569.139,436.73 585.656,420.122C592.107,413.635 594.365,406.895 594.035,400.602C593.562,391.593 587.403,383.08 578.557,377.15C570.339,371.64 559.935,368.371 550.835,368.691C543.978,368.933 537.831,371.18 533.419,375.592ZM541.696,383.484C544.14,381.216 547.548,380.294 551.231,380.164C558.147,379.921 566.019,382.525 572.265,386.713C577.887,390.481 582.378,395.484 582.679,401.209C582.864,404.736 581.246,408.353 577.63,411.989C565.924,423.759 551.176,424.209 542.108,417.482C533.338,410.975 530.981,398.021 541.688,383.493L541.696,383.484Z"/>
                    </g>
                </g>
            </g>
            <path d="M232.296,118.949C208.715,175.285 188.613,204.591 168.512,244.795C154.104,273.61 125.805,348.234 125.805,348.234C125.805,348.234 446.33,342.484 458.694,343.219C524.526,347.133 811.138,348.234 811.138,348.234C811.138,348.234 780.786,269.217 775.327,263.758C760.724,249.154 734.121,163.982 718.438,129.293C707.056,104.12 539.756,120.345 482.263,120.673C408.575,121.095 232.296,115.808 232.296,118.949Z" style="fill:white;"/>
            <path d="M224.535,116.771C201.208,172.299 181.273,201.384 161.356,241.217C146.845,270.24 118.325,345.398 118.325,345.398C117.383,347.88 117.735,350.667 119.262,352.838C120.79,355.009 123.294,356.281 125.948,356.233C125.948,356.233 445.878,350.471 458.219,351.205C524.134,355.124 811.108,356.234 811.108,356.234C813.748,356.244 816.224,354.951 817.723,352.778C819.223,350.604 819.553,347.831 818.606,345.366C818.606,345.366 799.051,294.474 788.418,271.303C785.175,264.236 782.324,259.441 780.984,258.101C777.003,254.12 772.297,244.23 766.916,231.677C753.079,199.398 736.721,150.313 725.727,125.997C724.076,122.346 720.685,118.908 715.276,116.27C706.832,112.152 692.155,109.529 673.812,108.286C616.926,104.431 522.586,112.443 482.217,112.674C423.267,113.011 298.659,109.695 251.174,109.963C238.787,110.033 230.952,110.769 229.503,111.356C226.23,112.681 224.984,114.865 224.534,116.775L224.535,116.771ZM769.379,269.114C769.673,269.646 771.993,273.873 773.876,277.976C781.309,294.173 793.152,324.092 799.434,340.183C744.959,339.928 516.941,338.668 459.168,335.233C448.211,334.581 195.652,338.998 137.518,340.025C145.909,318.28 164.779,270.148 175.667,248.372C195.341,209.025 214.997,180.067 237.904,126.227C267.564,124.821 416.236,129.051 482.308,128.673C522.43,128.444 616.192,120.418 672.73,124.249C686.406,125.176 697.781,126.743 705.373,129.454C706.976,130.026 708.375,130.639 709.532,131.335C710.236,131.758 710.901,132.043 711.148,132.589C722.112,156.837 738.411,205.791 752.21,237.981C758.543,252.755 764.637,264.164 769.379,269.114ZM239.509,122.433C240.084,121.281 240.296,120.098 240.296,118.949C240.296,120.01 240.085,121.06 239.676,122.038L239.509,122.433Z"/>
            <g transform="matrix(0.800504,0,0,0.623141,359.188,119.845)">
                <path d="M417.678,278.114C421.138,248.333 353.568,231.381 323.428,229.279C285.903,226.662 227.157,244.139 224.515,272.518C223.091,287.815 271.198,314.82 322.713,313.515C331.311,313.298 414.84,302.536 417.678,278.114Z" style="fill:white;"/>
                <path d="M427.562,280.009C429.115,266.639 422.753,253.556 409.556,243.724C387.83,227.537 346.245,218.014 323.97,216.46C295.989,214.509 256.969,223.288 235.088,238.955C222.869,247.703 215.692,259.178 214.592,270.994C214.168,275.553 215.025,280.726 217.945,285.95C220.295,290.155 224.407,294.868 230.197,299.357C248.145,313.273 284.615,327.321 322.91,326.351C329.175,326.193 373.658,320.653 400.798,308.626C408.846,305.059 415.492,300.796 419.805,296.218C424.433,291.306 426.904,285.671 427.562,280.009ZM407.806,275.478C407.402,275.972 406.554,276.974 405.892,277.548C402.958,280.089 398.921,282.296 394.28,284.353C369.274,295.435 328.288,300.534 322.516,300.68C288.689,301.536 256.379,289.667 240.526,277.375C238.4,275.727 236.16,273.251 234.972,271.868C235.698,270.033 237.061,268.403 238.629,266.716C242.341,262.725 247.467,259.263 253.4,256.193C273.268,245.914 301.677,240.62 322.886,242.099C340.133,243.302 370.241,249.539 390.847,260.522C396.793,263.691 401.897,267.155 405.301,271.212C406.498,272.64 407.676,273.872 407.806,275.478Z"/>
            </g>
            <path d="M503.673,171.995C508.13,205.166 578.73,215.922 602.988,215.66C633.519,215.33 708.337,205.421 709.073,169.275C709.149,165.553 706.755,160.848 701.562,156.085C688.435,144.042 657.422,131.624 603.209,133.767C550.839,135.838 501.925,158.978 503.673,171.995Z" style="fill:white;"/>
            <path d="M495.745,173.06C497.857,188.782 511.728,201.023 530.39,209.111C555.127,219.83 587.834,223.824 603.075,223.659C622.132,223.453 657.761,219.585 683.391,208.461C703.089,199.912 716.718,186.777 717.071,169.438C717.18,164.108 714.406,157.012 706.97,150.19C693.055,137.424 660.357,123.502 602.893,125.774C564.509,127.291 527.948,139.8 510.063,151.734C504.551,155.413 500.638,159.183 498.44,162.571C496.045,166.262 495.314,169.857 495.745,173.06ZM511.707,171.603C511.98,171.189 512.61,170.268 513.161,169.692C514.613,168.172 516.576,166.624 518.945,165.043C535.221,154.181 568.592,143.142 603.525,141.761C654.489,139.747 683.813,150.659 696.154,161.98C699.118,164.699 701.118,166.988 701.075,169.113C700.839,180.703 690.188,188.07 677.021,193.784C653.377,204.046 620.482,207.47 602.902,207.66C589.032,207.81 559.264,204.185 536.752,194.43C524.173,188.979 513.511,182.05 511.707,171.603Z"/>
            <path d="M533.85,208.382C533.85,221.93 602.376,232.685 619.684,231.701C683.645,228.066 703.177,214.378 700.356,204.31C697.948,195.719 690.083,183.354 671.726,175.024C659.617,169.531 642.943,165.793 620.261,166.053C556.11,166.788 533.85,185.448 533.85,208.382Z" style="fill:white;"/>
            <path d="M525.85,208.382C525.85,211.354 526.918,214.391 529.411,217.237C532.4,220.649 538.397,224.184 546.378,227.095C568.572,235.191 607.476,240.408 620.138,239.688C667.838,236.977 692.153,228.21 701.532,219.999C708.362,214.022 709.591,207.618 708.059,202.152C705.255,192.147 696.411,177.44 675.031,167.739C662.118,161.88 644.358,157.776 620.169,158.053C586.244,158.442 563.451,163.853 549.084,171.917C532.379,181.292 525.85,194.281 525.85,208.382ZM692.554,206.14C692.367,206.421 691.883,207.123 691.429,207.561C690.455,208.5 689.172,209.414 687.587,210.333C676.993,216.473 655.673,221.643 619.231,223.714C607.661,224.371 572.14,219.461 551.861,212.064C547.894,210.617 543.316,207.859 541.893,206.972C542.36,198.717 547.01,191.428 556.914,185.869C569.715,178.685 590.126,174.399 620.352,174.052C641.529,173.809 657.116,177.181 668.42,182.31C683.524,189.163 690.43,198.987 692.554,206.14Z"/>
            <g>
                <path d="M540.53,204.818C540.26,204.47 540.04,204.268 539.968,204.187C537.267,201.153 534.216,200.899 531.231,201.995C530.843,202.138 526.767,203.318 526.032,208.562C525.749,210.586 524.325,229.478 524.325,234.818C524.325,246.076 525.711,283.879 526.741,292.084C527.223,295.923 528.908,297.842 529.345,298.279C543.724,312.657 577.127,325.118 606.667,326.798C628.766,328.055 662.23,321.611 682.069,315.822C692.206,312.865 699.124,309.496 700.957,307.663C701.6,307.02 702.648,305.764 703.285,303.55C703.747,301.944 704.285,298.166 704.717,292.967C706.57,270.667 708.004,218.121 708.004,218.121C708.075,215.519 706.875,213.045 704.789,211.489C702.702,209.934 699.989,209.49 697.515,210.301C697.515,210.301 643.602,228.138 615.253,227.406C599.392,226.996 578.486,221.913 562.054,215.722C552.623,212.169 544.678,208.408 540.53,204.816L540.53,204.818ZM540.9,223.862C543.038,224.989 545.355,226.104 547.821,227.194C566.621,235.501 594.517,242.875 614.84,243.4C636.91,243.971 673.567,234.141 691.683,228.814C691.101,247.482 689.802,284.283 688.279,296.689C685.941,297.633 681.721,299.257 677.588,300.463C659.16,305.839 628.102,311.991 607.575,310.824C583.274,309.442 555.702,300.257 542.463,288.65C541.492,278.489 540.325,245.125 540.325,234.818C540.325,232.805 540.588,228.376 540.9,223.862ZM526.017,210.131C526.095,211.504 526.528,212.827 527.264,213.974C526.73,213.242 526.104,212.015 526.017,210.131Z"/>
                <path d="M699.614,204.811C695.316,207.377 695.451,210.999 695.464,211.997C695.483,213.373 697.225,221.349 705.543,219.722C710.925,218.669 754.782,203.788 782.683,196.213C809.503,188.932 843.659,179.542 854.539,174.103C855.974,173.385 858.827,173.398 862.175,173.166C869.666,172.647 878.964,172.306 885.893,170.581C893.174,168.768 898.212,165.07 900.205,160.426C901.742,156.846 902.016,152.276 899.159,146.561C897.926,144.096 894.729,141.142 889.207,139.497C877.602,136.04 851.331,135.947 837.316,139.505C830.158,141.323 783.712,157.098 762.703,167.869C736.199,181.456 714.434,195.965 699.614,204.811ZM883.57,154.613C882.73,154.379 881.805,154.15 880.97,154.004C869.967,152.085 851.637,152.377 841.254,155.013C834.417,156.749 790.066,171.821 770.002,182.107C768.484,182.885 766.981,183.666 765.494,184.452C770.122,183.098 774.525,181.849 778.491,180.772C804.182,173.798 836.962,165.003 847.384,159.792C849.23,158.869 852.138,158.106 855.773,157.675C861.531,156.993 869.824,156.912 877.042,155.957C879.425,155.642 881.67,155.24 883.57,154.613Z" style="fill:rgb(4,0,0);"/>
            </g>
            <path d="M417.678,278.114C421.138,248.333 353.568,231.381 323.428,229.279C285.903,226.662 227.157,244.139 224.515,272.518C223.091,287.815 271.198,314.82 322.713,313.515C331.311,313.298 414.84,302.536 417.678,278.114Z" style="fill:white;"/>
            <path d="M425.624,279.037C426.971,267.443 420.766,256.94 409.322,248.414C387.656,232.272 346.199,222.848 323.984,221.299C300.177,219.638 268.293,225.641 245.99,237.179C229.096,245.919 217.819,258.138 216.55,271.777C215.953,278.182 220.35,286.85 230.46,294.688C248.358,308.566 284.725,322.48 322.915,321.513C329.178,321.354 373.649,315.827 400.78,303.804C408.607,300.335 415.067,296.259 419.262,291.807C422.962,287.88 425.098,283.564 425.624,279.037ZM409.731,277.191C409.513,279.067 408.05,280.578 406.241,282.145C403.224,284.759 399.071,287.06 394.298,289.176C369.283,300.261 328.284,305.372 322.51,305.518C288.579,306.377 256.166,294.374 240.264,282.044C237.393,279.818 235.114,277.633 233.64,275.504C233.05,274.651 232.413,273.988 232.481,273.26C233.325,264.186 242.103,257.205 253.342,251.39C273.223,241.105 301.649,235.78 322.871,237.26C340.138,238.464 370.284,244.728 390.914,255.724C397.111,259.027 402.422,262.714 405.969,266.943C408.58,270.054 410.169,273.419 409.731,277.191L409.731,277.191Z"/>
            <path d="M322.495,138.007C294.698,138.404 260.136,145.163 251.259,172.391C243.752,195.416 288.371,205.993 325.258,205.373C360.724,204.777 398.203,195.936 399.515,179.475C401.839,150.321 347.309,137.652 322.495,138.007Z" style="fill:white;"/>
            <path d="M322.381,130.007C304.467,130.264 283.974,133.154 268.357,141.603C256.847,147.83 247.87,156.978 243.653,169.911C239.422,182.89 245.769,193.69 259.645,201.168C275.364,209.64 301.838,213.768 325.392,213.372C351.789,212.929 379.168,207.869 393.738,199.062C402.256,193.913 406.919,187.273 407.49,180.11C408.659,165.443 399.228,153.523 384.482,145.212C365.67,134.609 338.308,129.78 322.381,130.007L322.381,130.007ZM322.61,146.006C336.459,145.808 360.269,149.931 376.626,159.151C385.339,164.062 392.231,170.172 391.54,178.839C391.426,180.27 390.455,181.437 389.216,182.601C386.95,184.73 383.731,186.537 379.893,188.169C366.167,194.006 345.292,197.035 325.124,197.374C304.413,197.722 281.056,194.532 267.236,187.084C261.384,183.93 257.081,180.344 258.865,174.87C262.534,163.616 271.749,156.845 282.682,152.593C295.04,147.787 309.621,146.192 322.61,146.006L322.61,146.006Z"/>
            <path d="M809.805,472.234C809.805,514.435 804.925,570.229 798.805,637.568C793.565,695.226 794.137,831.902 789.805,836.234C789.409,836.631 671.252,836.234 660.472,836.234C595.992,836.234 357.765,841.547 279.138,837.568C255.238,836.358 139.542,837.972 136.472,834.901L136.472,770.901C136.472,762.101 123.138,457.608 123.138,470.509" style="fill:white;"/>
            <path d="M115.29,472.06C115.348,472.95 115.437,474.386 115.523,475.979C117.68,515.923 128.472,762.993 128.472,770.901L128.472,834.901C128.472,837.023 129.314,839.058 130.815,840.558C131.501,841.244 132.945,842.438 135.571,843.043C137.672,843.527 142.754,843.968 149.894,844.236C181.823,845.433 259.629,844.59 278.734,845.557C357.444,849.541 595.924,844.234 660.472,844.234C670.181,844.234 766.929,844.555 786.47,844.33C789.009,844.301 790.544,844.214 790.863,844.169C793.756,843.766 795.042,842.311 795.462,841.891C796.207,841.146 797.342,839.697 798.023,837.188C798.723,834.609 799.393,828.535 799.888,819.903C802.125,780.907 802.586,684.351 806.772,638.292C812.919,570.659 817.805,514.62 817.805,472.234C817.805,467.819 814.22,464.234 809.805,464.234C805.39,464.234 801.805,467.819 801.805,472.234C801.805,514.251 796.931,569.8 790.838,636.844C786.64,683.038 786.157,779.877 783.915,818.987C783.721,822.368 783.402,825.758 783.124,828.356C758.088,828.527 669.722,828.234 660.472,828.234C596.061,828.234 358.086,833.553 279.543,829.578C260.407,828.609 182.474,829.446 150.493,828.247C148.394,828.168 146.288,828.038 144.472,827.905L144.472,770.901C144.472,762.97 133.663,515.177 131.5,475.116C131.299,471.396 131.123,469.222 131.062,468.854C130.019,462.54 124.495,462.184 123.715,462.13C121.785,461.994 119.793,462.449 117.936,464.046C117.751,464.205 115.138,465.948 115.138,470.509C115.138,471.039 115.19,471.558 115.29,472.06ZM130.311,474.05L130.305,474.061L130.311,474.05ZM130.367,473.935C130.806,473.09 131.138,471.968 131.138,470.509C131.138,471.734 130.862,472.896 130.367,473.935Z"/>
            <path d="M158.84,906.188C156.179,908.85 147.949,977.045 149.805,976.234C151.999,975.276 264.637,978.658 279.138,978.901C358.716,980.234 773.445,980.594 777.805,976.234C779.717,974.323 776.318,904.78 773.976,904.78" style="fill:white;"/>
            <path d="M766.895,908.501C768.626,917.625 770.532,954.057 770.374,969.072C768.659,969.196 766.651,969.322 764.582,969.412C693.572,972.517 350.821,972.101 279.272,970.902C266.99,970.696 184.422,968.245 157.892,968.074C159.142,952.531 163.382,919.327 165.732,910.448L165.85,910.042C167.523,907.004 167.071,903.106 164.497,900.532C161.375,897.409 156.306,897.409 153.184,900.531C152.613,901.103 151.815,902.067 151.162,903.613C150.613,904.913 149.844,907.767 149.094,911.718C146.027,927.864 141.538,965.951 141.535,974.539C141.534,978.333 142.89,980.463 143.365,981.08C144.523,982.584 145.893,983.381 147.206,983.822C148.491,984.253 149.834,984.392 151.23,984.122C152.258,984.107 157.054,984.05 162.605,984.12C193.019,984.503 267.406,986.706 279.004,986.9C350.696,988.101 694.13,988.508 765.281,985.397C772.252,985.092 776.847,984.698 778.654,984.329C781.446,983.76 782.867,982.486 783.462,981.891C784.085,981.268 785.844,979.026 786.173,974.794C787.015,963.946 784.632,915.653 782.55,905.171C781.933,902.06 780.734,900.276 780.143,899.599C778.172,897.344 775.913,896.78 773.976,896.78C769.56,896.78 765.976,900.365 765.976,904.78C765.976,906.123 766.308,907.39 766.895,908.501ZM150.245,968.239C149.073,968.16 147.857,968.355 146.602,968.904C146.884,968.78 148.132,968.44 150.245,968.239ZM773.485,912.766L773.529,912.767L773.338,912.752L773.485,912.766ZM772.992,912.721L773.09,912.73L772.86,912.701L772.992,912.721ZM772.497,912.644L772.642,912.667L772.418,912.627L772.497,912.644ZM772.001,912.534L772.072,912.55L771.992,912.531L772.001,912.534Z"/>
            <path d="M136.472,834.901C134.263,839.318 132.552,898.982 137.805,904.234C141.113,907.543 238.438,906.901 249.805,906.901C279.306,906.901 575.581,905.568 624.472,905.568C637.558,905.568 789.834,906.872 793.805,902.901C799.225,897.481 792.239,836.234 789.805,836.234" style="fill:white;"/>
            <path d="M783.067,840.542C784.983,847.76 787.79,872.625 787.816,888.619C787.82,891.098 787.602,893.875 787.4,895.896C784.458,896.167 780.006,896.529 775.598,896.71C734.253,898.406 634.918,897.568 624.472,897.568C575.581,897.568 279.306,898.901 249.805,898.901C240.753,898.901 176.936,899.318 150.085,897.795C147.9,897.671 145.674,897.463 143.953,897.28C143.547,894.763 142.975,890.79 142.769,887.305C141.764,870.302 142.611,845.076 143.889,838.031L143.946,837.753C145.399,833.958 143.76,829.601 140.049,827.746C136.1,825.771 131.291,827.374 129.316,831.323C128.829,832.298 128.067,834.92 127.639,838.833C126.52,849.043 125.843,872.113 126.797,888.249C127.189,894.877 127.902,900.427 128.86,903.775C129.721,906.784 131.032,908.775 132.148,909.891C132.859,910.603 134.186,911.662 136.452,912.307C138.407,912.864 142.926,913.415 149.179,913.769C176.274,915.306 240.67,914.901 249.805,914.901C279.306,914.901 575.581,913.568 624.472,913.568C634.963,913.568 734.729,914.4 776.253,912.697C785.276,912.327 791.761,911.767 794.439,911.147C797.21,910.505 798.746,909.274 799.462,908.558C801.124,906.896 803.145,902.445 803.606,895.783C804.74,879.388 800.741,844.112 798.345,835.751C796.463,829.182 791.248,828.234 789.805,828.234C785.39,828.234 781.805,831.819 781.805,836.234C781.805,837.82 782.267,839.299 783.067,840.542ZM786.119,843.333C787.202,843.925 788.29,844.165 789.305,844.217C788.162,844.147 787.083,843.836 786.119,843.333Z"/>
            <g id="uks2">
                <path d="M177.805,509.568C177.797,509.56 251.914,508.234 273.805,508.234C336.489,508.234 541.132,516.234 607.138,516.234C616.42,516.234 742.572,510.335 744.472,512.234C748.569,516.332 739.92,645.338 741.805,690.901C742.752,713.796 737.142,772.897 739.138,796.234C739.155,796.434 663.889,798.901 625.805,800.234C519.157,803.968 412.398,801.568 304.472,801.568C294.196,801.568 183.524,793.954 181.805,792.234C178.876,789.306 177.293,693.258 176.472,652.234C176.214,639.391 169.739,509.568 177.805,509.568Z" style="fill:white;"/>
                <path d="M177.55,501.574C175.094,501.632 172.433,502.59 170.334,505.613C168.873,507.717 167.214,513.73 166.566,522.588C164.087,556.427 168.266,642.06 168.473,652.395C169.132,685.316 170.287,753.564 172.224,781.05C172.667,787.327 173.236,791.732 173.753,793.59C174.398,795.909 175.478,797.222 176.148,797.891C176.637,798.38 177.363,798.996 178.465,799.518C179.06,799.8 181.074,800.424 184.356,800.848C203.797,803.356 295.144,809.568 304.472,809.568C412.492,809.568 519.344,811.966 626.085,808.229C660.384,807.029 724.821,804.909 737.353,804.351C739.169,804.27 740.23,804.166 740.423,804.134C747.426,802.974 747.19,796.499 747.109,795.553C745.12,772.293 750.742,713.389 749.798,690.57C748.293,654.196 753.531,564.532 753.587,528.027C753.599,519.823 753.265,514.014 752.706,511.546C752.106,508.894 750.918,507.368 750.129,506.578C749.548,505.997 748.683,505.286 747.35,504.752C746.675,504.482 744.339,503.96 740.572,503.886C718.642,503.457 615.502,508.234 607.138,508.234C541.132,508.234 336.489,500.234 273.805,500.234C254.073,500.234 191.972,501.309 179.755,501.53C178.511,501.552 177.775,501.566 177.641,501.569L177.55,501.574ZM737.381,519.859C737.493,522.184 737.591,525.1 737.587,528.003C737.531,564.661 732.3,654.704 733.812,691.232C734.664,711.832 730.25,761.649 730.779,788.6C710.407,789.376 656.03,791.171 625.525,792.239C518.97,795.97 412.304,793.568 304.472,793.568C295.618,793.568 211.595,787.859 188.623,785.246C186.411,763.401 185.175,687.308 184.47,652.074C184.25,641.073 179.208,543.031 183.141,517.474C200.342,517.168 255.453,516.234 273.805,516.234C336.489,516.234 541.132,524.234 607.138,524.234C615.161,524.234 710.597,519.816 737.381,519.859ZM177.805,517.568L178.014,517.561L178.015,517.56L177.805,517.568Z"/>
            </g>
            <g id="uks">
                <path d="M247.138,541.568C245.533,543.172 247.771,612.168 248.472,658.901C248.724,675.776 255.123,740.219 253.805,758.901C253.395,764.703 333.852,760.234 345.805,760.234C372.611,760.234 562.785,761.568 591.138,761.568C597.084,761.568 674.365,759.675 675.138,758.901C675.352,758.688 674.466,544.906 679.138,540.234C679.346,540.027 604.507,542.901 597.805,542.901C529.25,542.901 461.254,545.568 392.472,545.568C365.858,545.568 247.138,539.189 247.138,541.568Z" style="fill:white;"/>
                <path d="M239.177,540.716C238.989,541.528 238.847,542.448 238.782,543.48C237.977,556.317 239.839,616.734 240.472,659.021C240.724,675.781 247.134,739.783 245.825,758.338C245.647,760.863 246.386,763.438 248.919,765.616C250.407,766.894 254.734,768.653 261.367,769.237C282.311,771.079 336.162,768.234 345.805,768.234C372.611,768.234 562.785,769.568 591.138,769.568C596.525,769.568 660.066,768.023 673.288,767.146C675.797,766.98 677.326,766.618 677.719,766.481C679.326,765.922 680.252,765.101 680.795,764.558C680.895,764.458 683.068,762.815 683.148,758.796C683.179,757.239 683.18,748.99 683.188,736.531C683.213,692.639 683.328,596.012 685.285,557.208C685.579,551.375 686.207,545.575 686.412,543.781C687.716,541.416 687.413,539.032 686.38,536.832C686.042,536.113 684.737,532.821 680.034,532.281C679.855,532.261 678.751,532.213 676.884,532.261C664.883,532.575 603.821,534.901 597.805,534.901C529.25,534.901 461.254,537.568 392.472,537.568C368.471,537.568 269.713,532.405 250.201,533.107C247.643,533.199 245.929,533.486 245.163,533.711C243.405,534.226 242.342,535.063 241.704,535.661C240.023,537.236 239.338,538.997 239.177,540.716ZM669.808,548.489C669.623,550.794 669.454,553.445 669.305,556.402C667.34,595.379 667.213,692.435 667.188,736.522L667.168,751.444C647.618,752.326 595.943,753.568 591.138,753.568C562.785,753.568 372.611,752.234 345.805,752.234C336.723,752.234 277.771,752.53 261.963,752.611C261.908,728.277 256.7,674.089 256.471,658.781C255.901,620.734 254.286,567.852 254.599,549.036C280.634,548.942 369.861,553.568 392.472,553.568C461.254,553.568 529.25,550.901 597.805,550.901C603.022,550.901 649.413,549.167 669.808,548.489ZM254.792,543.972L254.8,543.865C255.023,543.127 255.138,542.353 255.138,541.568C255.138,542.359 255.041,543.169 254.792,543.972Z"/>
            </g>
            <g>
                <path d="M149.623,371.312C149.623,370.507 149.45,374.915 149.08,375.654C147.995,377.824 147.333,386.392 148.808,387.867C148.899,387.958 167.76,386.271 171.064,386.51C174.348,386.749 205.543,388.128 206.617,387.053C206.865,386.806 205.617,378.999 205.617,378.611C205.617,377.238 206.687,371.653 205.803,370.769C205.296,370.261 194.695,371.249 191.69,370.498C188.033,369.583 152.745,371.312 149.623,371.312Z" style="fill:white;stroke:black;stroke-width:2.48px;"/>
                <g transform="matrix(1,0,0,1,2,33)">
                    <path d="M149.623,371.312C149.623,370.507 149.45,374.915 149.08,375.654C147.995,377.824 147.333,386.392 148.808,387.867C148.899,387.958 167.76,386.271 171.064,386.51C174.348,386.749 205.543,388.128 206.617,387.053C206.865,386.806 205.617,378.999 205.617,378.611C205.617,377.238 206.687,371.653 205.803,370.769C205.296,370.261 194.695,371.249 191.69,370.498C188.033,369.583 152.745,371.312 149.623,371.312Z" style="fill:white;stroke:black;stroke-width:2.48px;"/>
                </g>
                <g transform="matrix(0.829633,0,0,0.489199,30.2064,193.62)">
                    <path d="M149.623,371.312C149.623,370.507 149.45,374.915 149.08,375.654C147.995,377.824 147.333,386.392 148.808,387.867C148.899,387.958 167.76,386.271 171.064,386.51C174.348,386.749 205.543,388.128 206.617,387.053C206.865,386.806 205.617,378.999 205.617,378.611C205.617,377.238 206.687,371.653 205.803,370.769C205.296,370.261 194.695,371.249 191.69,370.498C188.033,369.583 152.745,371.312 149.623,371.312Z" style="fill:white;stroke:black;stroke-width:3.65px;"/>
                </g>
                <g transform="matrix(0.829633,0,0,0.489199,32.2064,226.62)">
                    <path d="M149.623,371.312C149.623,370.507 149.45,374.915 149.08,375.654C147.995,377.824 147.333,386.392 148.808,387.867C148.899,387.958 167.76,386.271 171.064,386.51C174.348,386.749 205.543,388.128 206.617,387.053C206.865,386.806 205.617,378.999 205.617,378.611C205.617,377.238 206.687,371.653 205.803,370.769C205.296,370.261 194.695,371.249 191.69,370.498C188.033,369.583 152.745,371.312 149.623,371.312Z" style="fill:white;stroke:black;stroke-width:3.65px;"/>
                </g>
            </g>
        </g>
    </g>
</svg>
