<svg viewBox="0 0 492 492" xmlns="http://www.w3.org/2000/svg" xml:space="preserve" style="fill-rule:evenodd;clip-rule:evenodd;stroke-linecap:round;stroke-linejoin:round;stroke-miterlimit:1.5"><path d="M342.195 160.323c0 2.299.575 1.724-1.724 1.724" style="fill:#fff" transform="scale(.48)"/><path d="M162.003 75.532a2.66 2.66 0 0 0-1.24 2.25 2.665 2.665 0 0 0 2.663 2.665c.693 0 1.04.018 1.206-.01a2.658 2.658 0 0 0 1.506-.77c.357-.359.655-.82.77-1.506.028-.166.01-.513.01-1.206a2.665 2.665 0 0 0-2.664-2.664c-.947 0-1.78.495-2.251 1.24Z"/><path d="M342.195 160.323c-4.213 2.107 6.617 23.577 10.344 31.031 6.68 13.359-2.681 166.261 0 168.942 8.919 8.92 58.832-.515 229.623 3.276 1.412.032 62.616.172 68.612.172 1.15 0 2.636.813 3.448 0 8.477-8.477 36.882-154.96 52.337-185.869.654-1.308 11.291-31.5 9.724-33.067-3.068-3.068-10.143 5.172-13.791 5.172-18.973 0-15.317-13.697-36.92-2.896-4.361 2.181-35.343 7.344-35.343 7.344s-18.819-16.718-18.724-11.516c.466 25.466-9.433 15.434-12 52-.182 2.597-8.236-47.549-10.791-50.104-2.673-2.672-.98-8.247-5.172-10.343-10.495-5.248-26.374 13.39-26.374.276 0-.83-14.413-11.207-16.724-8.896-4.695 4.696-8.875 14.047-13.791 18.963-.975.975-3.448-4.753-3.448-5.172 0-11.444-13.831 2.924-17.858-1.104-3.956-3.956-12.383-5.003-16.62-9.239-3.408-3.408-11.378 3.965-13.791 5.172-7.096 3.548-3.453-10.341-10.343-6.896-4.421 2.21-8.168 11.248-10.344 6.896-.575-1.15-4.582-12.657-6.895-10.344-1.733 1.733-15.001 16.03-17.239 13.791-1.897-1.896.141-8.619-3.448-8.619-4.959 0-22.516 15.41-24.135 13.791-2.815-2.815-2.357-12.7-5.172-15.515-3.713-3.713-14.446 10.671-17.239 12.067-7.244 3.623-2.983-4.939-10.343-8.619-2.473-1.237-5.872 1.399-6.896 3.448-5.319 10.638-12.025-5.215-20.687 3.447-2.865 2.865-11.61 14.249-6.895 18.963 3.56 3.56 2.515 9.411 6.895 13.792" style="fill:#fff" transform="scale(.48)"/><path d="M208.343 62.167a3.926 3.926 0 0 0-.09-.284c-.553-1.543-1.604-2.486-3.453-2.486-.927 0-2.567.592-4.377 1.706-1.79 1.101-3.923 2.665-5.642 3.839l-.089.059c-.095-.49-.182-.992-.279-1.475-.36-1.8-.98-3.36-1.796-4.176-1.294-1.294-3.38-1.516-5.673 0-1.46.964-3.79 3.277-5.008 4.53-.56-1.225-1.464-2.48-3.251-3.375-1.166-.583-2.509-.565-3.775-.024-1.366.584-2.589 1.83-3.11 2.87-.04.081-.092.17-.145.251a9.829 9.829 0 0 1-.548-.218c-.431-.193-.876-.4-1.333-.577-2.245-.872-4.7-1.198-7.404 1.507-1.155 1.155-3.917 4.746-4.57 7.709-.45 2.038-.048 3.853 1.26 5.161.311.311.428.72.563 1.133.179.547.33 1.122.521 1.696.438 1.32 1.06 2.624 2.226 3.79.12.12.248.226.384.318 1.325 3.35 3.135 7.026 4.082 8.92.228.455.324 1.38.455 2.657.26 2.53.388 6.148.428 10.445.16 17.087-1.078 44.696-1.35 58.435-.082 4.12-.064 7.054.078 8.2.149 1.2.662 1.822.888 2.048.781.781 1.952 1.453 3.696 1.888 1.853.462 4.551.706 8.34.776 13.675.251 42.628-1.585 100.007-.312.672.015 29.49.082 32.893.083.208.039 1.063.19 1.465.169.838-.043 1.57-.344 2.175-.949.387-.388.89-1.118 1.381-2.221.756-1.695 1.698-4.594 2.761-8.355 5.776-20.434 15.58-67.536 21.478-79.333.262-.525 3.744-10.302 4.717-14.596.295-1.307.335-2.292.259-2.75a2.862 2.862 0 0 0-.808-1.602c-1.182-1.182-2.786-1.45-4.637-.696-.87.354-1.852.997-2.79 1.62-.425.283-1.096.664-1.295.776-3.762-.054-5.292-1.515-6.979-2.357-2.497-1.245-5.229-1.992-11.715 1.25-1.64.82-11.505 2.503-14.992 3.08-1.907-1.59-6.079-4.957-7.996-5.606-1.438-.487-2.53-.128-3.179.34-.688.498-1.282 1.283-1.257 2.616.098 5.362-.88 6.99-2.032 9.2-.327.627-.667 1.29-1.004 2.06-.616-3.215-1.248-6.334-1.774-8.442-.35-1.403-.692-2.433-.942-2.932a3.564 3.564 0 0 0-.57-.835 8.026 8.026 0 0 1-.152-.542c-.112-.512-.207-1.043-.354-1.545-.418-1.435-1.18-2.671-2.74-3.45-2.69-1.346-5.963-.56-8.886.71-.734.32-1.69.709-2.419 1a2.936 2.936 0 0 0-.6-1.054c-.493-.573-3.039-2.54-5.38-3.834-1.441-.796-2.838-1.31-3.737-1.386-1.244-.107-2.145.33-2.74.925-1.45 1.45-2.799 3.828-4.205 5.966a3.823 3.823 0 0 0-1.472-1.696c-.988-.622-2.354-.785-3.922-.326-1.126.33-3.332 1.263-4.103 1.595-.907-.716-2.043-1.297-3.264-1.814-1.45-.615-3.09-1.07-4.09-2.07-1.172-1.172-2.766-1.495-4.566-.968-1.39.408-3.006 1.551-4.123 2.314-.205-.538-.45-1.112-.658-1.433-.579-.892-1.36-1.465-2.34-1.691-.756-.175-1.735-.167-2.973.451-.843.422-1.685 1.161-2.445 2.006-.18-.393-.372-.789-.57-1.152-.524-.964-1.132-1.743-1.651-2.162-.813-.656-1.66-.834-2.403-.76a3.036 3.036 0 0 0-1.898.913c-.445.445-2.582 2.784-4.503 4.472Zm52.08 1.115c-1.912 2.403-3.696 6.06-5.746 8.11-.61.61-1.31.846-2.054.833-.56-.01-1.259-.185-1.925-.762-.587-.508-1.438-1.955-1.836-2.898a5.321 5.321 0 0 1-.234-.678c-.175.066-.346.134-.492.199-1.095.484-2.231 1.005-3.197 1.242-1.781.439-3.246.061-4.256-.95-.73-.728-1.912-1.111-3.067-1.585-1.595-.655-3.176-1.378-4.38-2.37-.379.173-1.052.494-1.449.754-1.114.73-2.113 1.492-2.626 1.749-1.226.613-2.199.64-2.95.483-1.008-.208-1.802-.772-2.396-1.647-.193-.285-.411-.768-.606-1.252-.218.263-.428.542-.64.794-.714.846-1.418 1.557-2.005 1.917-.978.6-1.926.666-2.772.412-.722-.217-1.537-.703-2.135-1.898-.09-.18-.587-1.246-1.05-2.242-1.733 1.718-4.143 3.988-5.66 4.835-2 1.117-3.597.533-4.376-.246-.52-.52-.915-1.268-1.097-2.203a6.198 6.198 0 0 1-.054-.337c-.3.168-.602.346-.866.517-2.371 1.536-5.138 3.633-6.748 4.548-1.223.695-2.24.832-2.749.777a2.8 2.8 0 0 1-1.725-.82c-.816-.816-1.437-2.377-1.797-4.176-.126-.626-.235-1.283-.363-1.902-.82.69-1.91 1.636-2.581 2.327-1.259 1.294-2.387 2.318-2.942 2.595-1.882.941-3.105.762-3.898.44-.803-.327-1.438-.911-1.896-1.804-.197-.384-.363-.873-.553-1.413-.116-.33-.237-.736-.575-1.063a.609.609 0 0 0-.16.167c-.94 1.879-2.069 2.686-3.11 3.054-1.136.4-2.337.307-3.593-.154-.593-.218-1.215-.532-1.863-.8-.36-.147-.722-.351-1.127-.257-.245.056-.472.239-.736.504-.683.683-2.214 2.58-2.92 4.397-.13.335-.223.887-.253 1.08.241.257.455.528.645.811a2.665 2.665 0 0 1 2.902 3.998c.08.433.246 1.245.456 1.886 1.136 3.469 3.544 8.225 4.633 10.404.587 1.173 1.083 4.286 1.282 8.725.698 15.584-.875 49.536-1.187 65.3-.055 2.744-.008 5.467.02 6.723.356.12.81.2 1.357.297 1.554.279 3.646.409 6.396.46 13.678.251 42.636-1.585 100.028-.311.676.014 30.002.081 32.875.081l.103.005c.128-.283.266-.602.379-.901 1.167-3.094 2.68-8.585 4.41-15.36 5.917-23.18 14.269-61.023 19.502-71.488.173-.347 2.03-6.378 3.29-10.503-1.075.588-2.097.968-2.86.968-4.308 0-6.564-1.23-8.502-2.33-.854-.485-1.575-1.002-2.654-1.048-1.253-.054-2.856.448-5.374 1.707-2.188 1.094-17.718 3.77-17.718 3.77a2.663 2.663 0 0 1-2.207-.636l-4.684-3.521c-.276 2.882-.938 4.59-1.718 6.184-1.35 2.758-3.226 5.085-3.92 14.964-.083 1.193-.722 1.705-.955 1.9a2.577 2.577 0 0 1-1.847.621 2.603 2.603 0 0 1-1.463-.524c-.12-.09-.816-.619-1.119-1.914-.492-2.107-2.232-12.366-3.611-18.712a71.28 71.28 0 0 0-1.048-4.084c-.532-.656-.876-1.445-1.097-2.315-.105-.412-.182-.845-.277-1.272a6.871 6.871 0 0 0-.165-.552c-1.092-.496-2.345.067-3.55.548-2.204.88-4.302 1.976-5.741 2.151-1.181.144-2.162-.112-2.942-.653-.73-.506-1.448-1.372-1.716-2.904l-4.466-2.752Zm-94.776 15.943-.053.032.016-.009.037-.023Z"/><path d="M338.747 413.737c2.147 2.147 99.419-4.779 107.299-4.779 24.031 0 195.263-10.15 221.139 4.018 16.466 9.017 20.781-46.774-14.687-47.508-25.845-.535-300.386-13.365-313.751 0-10.774 10.775 0 39.487 0 48.269" style="fill:#fff" transform="scale(.48)"/><path d="m160.01 199.222.001.006v.003l.008.029.022.076.004.017.002.006.008.027.02.062.01.028.004.011.007.023.02.049.014.037.008.017.006.018.017.037.021.048.01.021.006.012.013.025.029.06.013.023.004.006.008.016.039.069.016.025v.002l.004.005c.108.178.238.345.391.498.227.227.602.532 1.224.721.335.102 1.081.216 2.182.244 8.36.213 46.572-2.48 49.981-2.48 8.066 0 50.718-2.387 79.84-1.488 11.913.369 21.474 1.145 25.028 3.09 1.754.96 3.363.992 4.765.48 1.753-.642 3.317-2.342 4.208-4.886 2.663-7.595-.57-23.106-14.689-23.398-9.938-.205-96.375-4.188-133.841-2.486-6.778.308-12.002.817-14.984 1.537-1.901.46-3.121 1.136-3.714 1.73-2.549 2.548-3.314 6.729-3.009 11.239.368 5.421 2.229 11.316 2.229 13.813 0 .216.025.426.075.628Zm4.96-3.122c.833.012 1.892.015 2.95-.012 12.62-.324 43.152-2.452 46.182-2.452 8.083 0 50.823-2.387 80.004-1.486 13.074.404 23.523 1.607 27.422 3.742.666.365.937-.388 1.24-1.111.34-.812.56-1.796.666-2.869.545-5.555-1.96-13.652-10.29-13.824-9.912-.205-96.122-4.188-133.49-2.49-5.46.248-9.85.612-12.758 1.14-1.066.193-2.283.599-2.516.679-1.49 1.602-1.544 4.251-1.358 7.003.284 4.18 1.407 8.636 1.947 11.68Z"/><path d="M385.747 442.737c40.664 53.178 141.173 31.779 143.418 51.305C535.103 545.69 499 783.824 499 868c0 30.907 15.093 140 46 140s42-116.093 42-147c0-84.573-37.773-331.483-20.405-364.553 18.318-34.878 93.269-4.61 147.59-54.471 12.359-11.344-328.438.761-328.438.761Z" style="fill:#fff;stroke:#000;stroke-width:12.18px" transform="matrix(.48 0 0 .48 -22.56 -13.92)"/></svg>