<svg viewBox="0 0 246 246" xmlns="http://www.w3.org/2000/svg" xml:space="preserve" style="fill-rule:evenodd;clip-rule:evenodd;stroke-linejoin:round;stroke-miterlimit:2"><path d="M82.127 38.478c-1.011.505 1.588 5.658 2.482 7.447 1.604 3.206-.643 39.903 0 40.546 2.141 2.141 14.12-.123 55.11.786.339.008 15.028.042 16.467.042.276 0 .632.195.827 0 2.035-2.035 8.852-37.191 12.561-44.609.157-.314 2.71-7.56 2.334-7.936-.736-.736-2.434 1.241-3.31 1.241-4.553 0-3.676-3.287-8.861-.695-1.046.524-8.482 1.763-8.482 1.763s-4.517-4.013-4.494-2.764c.112 6.112-2.264 3.704-2.88 12.48-.044.623-1.977-11.412-2.59-12.025-.641-.641-.235-1.979-1.241-2.482-2.519-1.26-6.33 3.213-6.33.066 0-.199-3.459-2.69-4.013-2.135-1.127 1.127-2.13 3.371-3.31 4.551-.234.234-.828-1.141-.828-1.241 0-2.747-3.319.701-4.286-.265-.949-.95-2.972-1.201-3.988-2.218-.818-.818-2.731.952-3.31 1.242-1.703.851-.829-2.482-2.483-1.655-1.061.53-1.96 2.699-2.482 1.655-.138-.276-1.1-3.038-1.655-2.483-.416.416-3.6 3.847-4.138 3.31-.455-.455.034-2.069-.827-2.069-1.19 0-5.404 3.699-5.792 3.31-.676-.675-.566-3.048-1.242-3.723-.891-.892-3.467 2.561-4.137 2.896-1.739.869-.716-1.186-2.482-2.069-.594-.297-1.409.336-1.655.828-1.277 2.553-2.886-1.252-4.965.827-.688.688-2.787 3.42-1.655 4.551.854.855.603 2.259 1.655 3.31" style="fill:#fff"/><path d="M104.171 31.083a1.453 1.453 0 0 0-.045-.141c-.276-.772-.801-1.244-1.726-1.244-.464 0-1.283.297-2.188.853-.895.551-1.962 1.333-2.822 1.92l-.044.029c-.047-.244-.091-.495-.139-.737-.181-.9-.491-1.68-.899-2.088-.646-.647-1.69-.758-2.836 0-.73.482-1.895 1.639-2.504 2.265a3.359 3.359 0 0 0-1.626-1.687c-.583-.292-1.254-.283-1.887-.012-.683.292-1.294.914-1.555 1.435-.02.04-.046.085-.072.125a4.932 4.932 0 0 1-.275-.109c-.215-.097-.438-.2-.666-.289-1.123-.435-2.35-.598-3.702.754-.577.578-1.959 2.373-2.285 3.854-.225 1.02-.024 1.927.63 2.581.156.156.214.36.281.567.09.273.166.56.261.847.219.66.53 1.313 1.113 1.896.06.06.124.113.192.158.663 1.675 1.567 3.514 2.041 4.461.114.227.162.69.228 1.328.13 1.265.193 3.074.214 5.223.08 8.543-.54 22.347-.676 29.217-.04 2.06-.031 3.527.04 4.1.074.601.33.911.443 1.024.391.391.977.726 1.848.944.927.231 2.276.353 4.17.388 6.838.126 21.314-.793 50.004-.156.336.008 14.745.041 16.446.042.105.019.532.094.733.084a1.594 1.594 0 0 0 1.087-.475c.194-.193.445-.558.691-1.11.378-.847.849-2.297 1.381-4.178 2.888-10.217 7.789-33.767 10.739-39.666.131-.262 1.871-5.151 2.358-7.298.148-.654.167-1.146.129-1.375a1.426 1.426 0 0 0-.403-.801c-.591-.591-1.393-.725-2.319-.348-.435.177-.926.498-1.395.81a12.12 12.12 0 0 1-.648.388c-1.881-.027-2.646-.758-3.489-1.178-1.248-.623-2.614-.997-5.857.625-.82.41-5.753 1.251-7.496 1.54-.954-.796-3.04-2.479-3.999-2.804-.718-.243-1.264-.063-1.589.171-.344.249-.641.641-.629 1.307.049 2.682-.439 3.496-1.016 4.601a16.95 16.95 0 0 0-.502 1.029c-.307-1.607-.624-3.166-.887-4.221-.175-.701-.346-1.216-.471-1.466a1.783 1.783 0 0 0-.284-.417c-.013-.042-.058-.186-.076-.271-.056-.256-.104-.521-.177-.773-.209-.717-.591-1.335-1.37-1.725-1.345-.672-2.982-.28-4.443.356a52.57 52.57 0 0 1-1.21.5 1.474 1.474 0 0 0-.3-.528c-.247-.286-1.519-1.27-2.69-1.916-.721-.399-1.419-.655-1.869-.694-.622-.053-1.072.166-1.369.463-.726.725-1.4 1.914-2.103 2.983a1.908 1.908 0 0 0-.736-.848c-.494-.311-1.177-.393-1.961-.163-.563.165-1.666.631-2.052.797-.453-.358-1.021-.648-1.631-.907-.726-.307-1.546-.535-2.046-1.035-.585-.585-1.383-.747-2.283-.483-.694.204-1.502.775-2.061 1.156-.102-.268-.225-.556-.329-.716-.289-.446-.68-.732-1.17-.846-.378-.087-.868-.083-1.486.226-.422.211-.843.581-1.223 1.003a9.355 9.355 0 0 0-.285-.576c-.262-.482-.566-.871-.826-1.081-.406-.328-.829-.417-1.201-.38a1.52 1.52 0 0 0-.949.456c-.222.223-1.291 1.392-2.252 2.236Zm26.04.558c-.956 1.201-1.847 3.03-2.872 4.055a1.366 1.366 0 0 1-1.028.417 1.49 1.49 0 0 1-.962-.382c-.294-.254-.719-.977-.918-1.449a2.637 2.637 0 0 1-.117-.338 5.445 5.445 0 0 0-.246.099c-.548.242-1.116.502-1.599.621-.89.219-1.623.031-2.128-.474-.364-.365-.956-.557-1.533-.794-.798-.327-1.588-.688-2.19-1.185-.19.087-.526.248-.724.378-.558.364-1.057.746-1.314.874-.613.306-1.099.32-1.475.242-.503-.104-.9-.386-1.197-.824a3.674 3.674 0 0 1-.303-.626c-.109.131-.214.271-.32.397-.358.423-.709.778-1.003.959-.489.299-.963.333-1.386.206-.361-.109-.769-.352-1.068-.95-.044-.089-.293-.622-.525-1.121-.866.86-2.071 1.994-2.829 2.418-1 .559-1.799.266-2.188-.123-.26-.26-.458-.634-.549-1.101a3.204 3.204 0 0 1-.027-.169c-.15.084-.301.173-.433.258-1.186.768-2.569 1.817-3.374 2.274-.611.348-1.12.417-1.374.389a1.391 1.391 0 0 1-.863-.41c-.408-.408-.718-1.188-.899-2.088-.062-.313-.117-.641-.181-.951-.41.345-.955.818-1.291 1.163-.629.648-1.193 1.16-1.47 1.298-.941.471-1.553.381-1.949.22-.402-.164-.72-.456-.948-.902-.099-.192-.182-.436-.277-.707-.058-.164-.119-.368-.288-.531a.32.32 0 0 0-.08.083c-.47.94-1.034 1.344-1.555 1.527-.567.201-1.168.154-1.796-.077-.297-.109-.607-.266-.931-.399-.18-.074-.362-.176-.564-.129-.122.028-.236.119-.368.252-.342.341-1.107 1.29-1.46 2.199a3.112 3.112 0 0 0-.127.54c.121.128.228.264.323.405a1.333 1.333 0 0 1 1.451 1.999c.04.217.123.622.228.943.568 1.735 1.772 4.113 2.317 5.202.293.586.541 2.143.64 4.363.349 7.791-.437 24.768-.593 32.649a84.797 84.797 0 0 0 .01 3.362c.178.06.405.1.678.149.778.139 1.824.204 3.198.229 6.84.126 21.319-.792 50.014-.155.339.007 15.001.041 16.438.041l.051.002a7.62 7.62 0 0 0 .19-.451c.584-1.547 1.34-4.292 2.205-7.68 2.958-11.589 7.134-30.511 9.751-35.744.087-.173 1.015-3.189 1.645-5.251-.538.294-1.048.484-1.43.484-2.154 0-3.282-.615-4.251-1.165-.427-.243-.788-.501-1.327-.524-.627-.027-1.428.224-2.687.854-1.094.547-8.859 1.885-8.859 1.885a1.332 1.332 0 0 1-1.104-.319l-2.342-1.76c-.137 1.441-.468 2.295-.859 3.092-.674 1.379-1.612 2.542-1.959 7.482-.042.597-.361.852-.478.95-.286.24-.599.327-.923.311a1.302 1.302 0 0 1-.732-.263c-.06-.044-.408-.309-.559-.957-.246-1.053-1.117-6.183-1.806-9.356a35.206 35.206 0 0 0-.524-2.041c-.266-.329-.438-.723-.548-1.158-.053-.206-.091-.423-.139-.636-.018-.082-.064-.221-.082-.276-.546-.248-1.173.034-1.776.274-1.102.44-2.15.988-2.87 1.076-.591.072-1.081-.056-1.471-.327-.365-.253-.724-.686-.858-1.452l-2.233-1.376Zm-47.388 7.972-.026.015.008-.004.018-.011Z"/><path d="M81.299 99.297c.516.515 23.861-1.147 25.752-1.147 5.768 0 46.863-2.436 53.073.964 3.952 2.164 4.988-11.226-3.524-11.402-6.203-.128-72.093-3.207-75.301 0-2.586 2.586 0 9.477 0 11.585" style="fill:#fff"/><path d="m80.005 99.611.001.003v.001l.003.015.011.038.002.008.002.004.003.013.011.031.004.014.002.006.004.011.01.024.007.019.004.009.003.008.008.019.011.024.005.011.003.005.006.013.015.03.007.012.001.003.005.007.019.035.008.012v.001l.002.003c.054.089.119.172.196.249.113.113.301.266.611.361.168.051.541.108 1.092.122 4.18.106 23.286-1.24 24.99-1.24 4.033 0 25.359-1.194 39.92-.744 5.956.184 10.737.572 12.514 1.545.877.48 1.682.495 2.382.239.877-.321 1.659-1.171 2.105-2.442 1.331-3.798-.285-11.553-7.345-11.699-4.969-.103-48.187-2.094-66.921-1.243-3.388.154-6.001.408-7.492.768-.95.23-1.56.568-1.856.864-1.275 1.275-1.658 3.365-1.505 5.62.184 2.711 1.114 5.658 1.114 6.907 0 .108.013.213.038.314Zm2.48-1.561c.416.006.946.008 1.475-.006 6.31-.162 21.576-1.226 23.091-1.226 4.041 0 25.411-1.194 40.002-.743 6.537.202 11.761.803 13.711 1.871.333.182.469-.194.62-.556.17-.405.28-.897.333-1.434.273-2.777-.98-6.826-5.145-6.912-4.956-.103-48.061-2.094-66.745-1.245-2.73.124-4.925.306-6.379.57-.533.097-1.141.299-1.258.339-.745.802-.772 2.126-.679 3.502.142 2.09.703 4.318.974 5.84Z"/><path d="M81.299 99.297c9.76 12.763 33.882 7.627 34.421 12.313 1.425 12.396-7.24 69.548-7.24 89.75 0 7.418 3.622 33.6 11.04 33.6 7.418 0 10.08-27.862 10.08-35.28 0-20.297-9.065-79.556-4.897-87.493 4.396-8.37 22.384-1.106 35.421-13.073 2.967-2.722-78.825.183-78.825.183Z" style="fill:#fff"/><path d="M114.274 111.832c1.39 12.489-7.255 69.393-7.255 89.528 0 5.303 1.822 19.996 5.509 28.335 1.031 2.333 2.227 4.189 3.529 5.316 1.074.93 2.239 1.41 3.463 1.41 1.246 0 2.416-.516 3.475-1.522 1.259-1.196 2.389-3.165 3.338-5.633 3.387-8.816 4.728-24.3 4.728-29.586 0-14.225-4.443-47.565-5.68-69.015-.313-5.434-.421-10.093-.188-13.458.139-2.003.363-3.502.804-4.34.71-1.354 1.883-2.174 3.353-2.742 1.717-.663 3.811-.985 6.136-1.258 7.634-.894 17.537-1.251 25.627-8.676.446-.41.556-.857.551-1.236a1.555 1.555 0 0 0-.369-.999c-.15-.183-.398-.4-.797-.566-.329-.136-.889-.274-1.662-.38-11.124-1.519-77.588.827-77.588.827a1.46 1.46 0 0 0-1.109 2.348c3.623 4.739 9.088 7.197 14.719 8.545 5.371 1.285 10.875 1.562 14.868 2.018 1.56.178 2.869.375 3.805.702.209.073.395.152.552.242.065.038.153.108.191.14Zm42.782-12.081c-7.132 5.255-15.423 5.453-21.91 6.213-2.597.305-4.93.694-6.849 1.435-2.167.837-3.84 2.114-4.888 4.109-.56 1.066-.955 2.95-1.131 5.497-.24 3.458-.136 8.245.186 13.829 1.234 21.397 5.675 54.655 5.675 68.846 0 5.098-1.268 20.035-4.535 28.537-.646 1.684-1.362 3.102-2.184 4.092-.584.703-1.183 1.19-1.9 1.19-.738 0-1.381-.462-2.006-1.143-.852-.928-1.614-2.26-2.313-3.842-3.532-7.991-5.26-22.073-5.26-27.154 0-20.239 8.658-77.499 7.23-89.917-.117-1.016-.738-1.868-1.963-2.459-1.121-.542-2.915-.884-5.15-1.14-3.899-.445-9.275-.701-14.52-1.957-4.004-.958-7.945-2.496-11.004-5.239l.001.001c11.626-.389 51.971-1.653 68.482-1.101 1.602.054 2.966.118 4.039.203Z"/></svg>