<?xml version="1.0" encoding="UTF-8" standalone="no"?>
<!DOCTYPE svg PUBLIC "-//W3C//DTD SVG 1.1//EN" "http://www.w3.org/Graphics/SVG/1.1/DTD/svg11.dtd">
<svg width="100%" height="100%" viewBox="0 0 492 492" version="1.1" xmlns="http://www.w3.org/2000/svg" xmlns:xlink="http://www.w3.org/1999/xlink" xml:space="preserve" xmlns:serif="http://www.serif.com/" style="fill-rule:evenodd;clip-rule:evenodd;stroke-linecap:round;stroke-linejoin:round;stroke-miterlimit:1.5;">
    <g transform="matrix(0.48,0,0,0.48,0,0)">
        <path d="M342.195,160.323C342.195,162.622 342.77,162.047 340.471,162.047" style="fill:white;"/>
        <path d="M337.506,157.358C335.953,158.341 334.921,160.074 334.921,162.047C334.921,165.11 337.408,167.597 340.471,167.597C341.914,167.597 342.637,167.635 342.983,167.577C344.414,167.338 345.374,166.717 346.12,165.972C346.865,165.226 347.486,164.266 347.725,162.836C347.783,162.489 347.745,161.766 347.745,160.323C347.745,157.26 345.258,154.773 342.195,154.773C340.223,154.773 338.489,155.805 337.506,157.358Z"/>
        <path d="M342.195,160.323C337.982,162.43 348.812,183.9 352.539,191.354C359.219,204.713 349.858,357.615 352.539,360.296C361.458,369.216 411.371,359.781 582.162,363.572C583.574,363.604 644.778,363.744 650.774,363.744C651.924,363.744 653.41,364.557 654.222,363.744C662.699,355.267 691.104,208.784 706.559,177.875C707.213,176.567 717.85,146.375 716.283,144.808C713.215,141.74 706.14,149.98 702.492,149.98C683.519,149.98 687.175,136.283 665.572,147.084C661.211,149.265 630.229,154.428 630.229,154.428C630.229,154.428 611.41,137.71 611.505,142.912C611.971,168.378 602.072,158.346 599.505,194.912C599.323,197.509 591.269,147.363 588.714,144.808C586.041,142.136 587.734,136.561 583.542,134.465C573.047,129.217 557.168,147.855 557.168,134.741C557.168,133.911 542.755,123.534 540.444,125.845C535.749,130.541 531.569,139.892 526.653,144.808C525.678,145.783 523.205,140.055 523.205,139.636C523.205,128.192 509.374,142.56 505.347,138.532C501.391,134.576 492.964,133.529 488.727,129.293C485.319,125.885 477.349,133.258 474.936,134.465C467.84,138.013 471.483,124.124 464.593,127.569C460.172,129.779 456.425,138.817 454.249,134.465C453.674,133.315 449.667,121.808 447.354,124.121C445.621,125.854 432.353,140.151 430.115,137.912C428.218,136.016 430.256,129.293 426.667,129.293C421.708,129.293 404.151,144.703 402.532,143.084C399.717,140.269 400.175,130.384 397.36,127.569C393.647,123.856 382.914,138.24 380.121,139.636C372.877,143.259 377.138,134.697 369.778,131.017C367.305,129.78 363.906,132.416 362.882,134.465C357.563,145.103 350.857,129.25 342.195,137.912C339.33,140.777 330.585,152.161 335.3,156.875C338.86,160.435 337.815,166.286 342.195,170.667" style="fill:white;"/>
        <path d="M434.047,129.514C433.991,129.31 433.928,129.113 433.86,128.923C432.708,125.709 430.519,123.743 426.667,123.743C424.735,123.743 421.319,124.978 417.548,127.298C413.82,129.592 409.376,132.849 405.793,135.295L405.609,135.418C405.411,134.399 405.23,133.353 405.028,132.345C404.277,128.597 402.984,125.344 401.285,123.645C398.59,120.95 394.242,120.488 389.467,123.644C386.424,125.655 381.572,130.473 379.033,133.082C377.866,130.531 375.983,127.915 372.26,126.053C369.831,124.838 367.034,124.875 364.396,126.003C361.551,127.219 359.003,129.813 357.918,131.983C357.834,132.151 357.724,132.336 357.615,132.505C357.244,132.368 356.794,132.194 356.472,132.05C355.574,131.647 354.647,131.216 353.695,130.847C349.018,129.032 343.906,128.353 338.271,133.988C335.865,136.394 330.11,143.874 328.749,150.047C327.812,154.294 328.651,158.075 331.375,160.8C332.023,161.448 332.266,162.301 332.547,163.161C332.92,164.301 333.236,165.497 333.634,166.694C334.546,169.443 335.84,172.161 338.271,174.591C338.52,174.841 338.788,175.061 339.07,175.252C341.832,182.231 345.602,189.89 347.575,193.836C348.049,194.783 348.249,196.712 348.523,199.371C349.066,204.643 349.331,212.179 349.415,221.132C349.749,256.729 347.168,314.247 346.602,342.87C346.432,351.456 346.469,357.566 346.765,359.954C347.075,362.456 348.143,363.749 348.614,364.221C350.242,365.848 352.682,367.247 356.315,368.154C360.175,369.117 365.796,369.625 373.689,369.77C402.18,370.294 462.497,366.468 582.038,369.121C583.438,369.152 643.474,369.291 650.564,369.294C650.998,369.374 652.779,369.688 653.616,369.645C655.363,369.557 656.886,368.93 658.147,367.669C658.954,366.861 660.001,365.34 661.026,363.041C662.599,359.511 664.563,353.471 666.778,345.635C678.811,303.064 699.234,204.936 711.523,180.358C712.069,179.265 719.323,158.896 721.349,149.949C721.965,147.227 722.048,145.176 721.889,144.219C721.619,142.6 720.881,141.558 720.207,140.884C717.744,138.42 714.403,137.861 710.546,139.433C708.735,140.171 706.687,141.51 704.732,142.81C703.848,143.398 702.449,144.192 702.035,144.424C694.197,144.313 691.01,141.268 687.496,139.515C682.294,136.921 676.603,135.364 663.09,142.12C659.674,143.828 639.121,147.334 631.857,148.537C627.883,145.222 619.192,138.209 615.197,136.856C612.202,135.841 609.928,136.59 608.576,137.566C607.141,138.602 605.905,140.238 605.956,143.014C606.16,154.186 604.124,157.579 601.722,162.182C601.041,163.487 600.333,164.87 599.631,166.472C598.348,159.776 597.031,153.278 595.935,148.885C595.206,145.963 594.493,143.817 593.972,142.777C593.578,141.991 593.15,141.429 592.787,141.038C592.732,140.863 592.546,140.262 592.469,139.909C592.236,138.841 592.037,137.736 591.732,136.689C590.861,133.699 589.272,131.125 586.024,129.501C580.419,126.698 573.599,128.334 567.511,130.982C565.981,131.648 563.988,132.458 562.471,133.066C562.268,132.409 561.896,131.651 561.221,130.869C560.193,129.676 554.89,125.576 550.013,122.881C547.01,121.222 544.1,120.154 542.227,119.993C539.635,119.771 537.759,120.681 536.52,121.921C533.497,124.943 530.688,129.895 527.758,134.35C526.977,132.629 525.836,131.537 524.692,130.817C522.634,129.521 519.787,129.181 516.52,130.137C514.174,130.824 509.579,132.769 507.972,133.46C506.084,131.969 503.716,130.758 501.173,129.681C498.152,128.401 494.734,127.451 492.652,125.369C490.21,122.927 486.889,122.254 483.139,123.353C480.244,124.202 476.877,126.584 474.55,128.172C474.123,127.053 473.614,125.856 473.179,125.187C471.973,123.33 470.346,122.136 468.304,121.664C466.729,121.3 464.689,121.316 462.111,122.605C460.354,123.483 458.601,125.023 457.017,126.783C456.643,125.965 456.242,125.14 455.829,124.383C454.737,122.374 453.471,120.752 452.389,119.879C450.696,118.513 448.933,118.141 447.383,118.297C446.023,118.434 444.662,118.964 443.429,120.197C442.502,121.124 438.049,125.997 434.047,129.514ZM542.546,131.837C538.564,136.843 534.848,144.462 530.578,148.733C529.307,150.003 527.847,150.495 526.297,150.469C525.13,150.449 523.676,150.083 522.287,148.881C521.064,147.822 519.291,144.809 518.463,142.843C518.248,142.334 518.089,141.856 517.974,141.431C517.611,141.569 517.254,141.711 516.95,141.845C514.668,142.854 512.302,143.939 510.289,144.434C506.579,145.348 503.527,144.561 501.422,142.456C499.903,140.937 497.439,140.139 495.034,139.152C491.71,137.787 488.416,136.282 485.907,134.215C485.119,134.575 483.717,135.244 482.89,135.786C480.568,137.305 478.488,138.894 477.418,139.429C474.864,140.706 472.838,140.761 471.271,140.436C469.173,140.002 467.519,138.828 466.282,137.004C465.879,136.411 465.424,135.405 465.019,134.396C464.565,134.944 464.128,135.526 463.687,136.049C462.197,137.813 460.732,139.294 459.508,140.044C457.47,141.293 455.495,141.432 453.733,140.902C452.229,140.45 450.531,139.438 449.285,136.947C449.099,136.574 448.062,134.353 447.096,132.277C443.487,135.857 438.466,140.585 435.308,142.349C431.141,144.677 427.813,143.46 426.19,141.837C425.108,140.755 424.284,139.196 423.904,137.248C423.865,137.045 423.826,136.806 423.791,136.546C423.166,136.896 422.538,137.266 421.988,137.622C417.047,140.823 411.283,145.191 407.93,147.097C405.382,148.545 403.262,148.831 402.203,148.717C400.652,148.548 399.489,147.89 398.608,147.009C396.908,145.309 395.615,142.057 394.864,138.308C394.603,137.005 394.376,135.636 394.109,134.346C392.399,135.785 390.129,137.754 388.731,139.193C386.109,141.89 383.758,144.023 382.603,144.6C378.682,146.561 376.134,146.188 374.481,145.515C372.808,144.835 371.485,143.618 370.532,141.759C370.121,140.958 369.775,139.94 369.379,138.814C369.138,138.128 368.885,137.281 368.181,136.601C368.032,136.718 367.898,136.843 367.846,136.947C365.889,140.862 363.538,142.544 361.368,143.31C359.002,144.145 356.5,143.95 353.884,142.989C352.648,142.535 351.353,141.881 350.002,141.324C349.254,141.016 348.498,140.591 347.655,140.787C347.144,140.905 346.671,141.285 346.12,141.837C344.697,143.26 341.509,147.213 340.039,150.998C339.768,151.696 339.573,152.846 339.51,153.249C340.013,153.784 340.458,154.348 340.855,154.938C343.322,154.321 345.975,155.473 347.159,157.841C348.056,159.634 347.889,161.682 346.9,163.267C347.067,164.169 347.412,165.86 347.849,167.196C350.216,174.423 355.233,184.332 357.503,188.871C358.724,191.314 359.758,197.799 360.173,207.048C361.627,239.514 358.349,310.248 357.699,343.089C357.586,348.806 357.683,354.479 357.743,357.095C358.484,357.346 359.43,357.511 360.568,357.715C363.807,358.295 368.165,358.566 373.893,358.672C402.39,359.196 462.719,355.37 582.285,358.024C583.694,358.055 644.789,358.194 650.774,358.194L650.989,358.204C651.257,357.614 651.544,356.95 651.779,356.327C654.211,349.881 657.364,338.442 660.967,324.327C673.293,276.037 690.693,197.196 701.595,175.393C701.957,174.67 705.825,162.106 708.451,153.512C706.21,154.738 704.082,155.53 702.492,155.53C693.517,155.53 688.816,152.968 684.78,150.676C682.999,149.664 681.497,148.587 679.251,148.491C676.639,148.38 673.299,149.426 668.054,152.048C663.495,154.328 631.141,159.902 631.141,159.902C629.487,160.178 627.797,159.691 626.543,158.577L616.785,151.241C616.211,157.245 614.832,160.805 613.206,164.126C610.395,169.87 606.486,174.718 605.041,195.301C604.867,197.786 603.536,198.852 603.051,199.259C601.86,200.258 600.554,200.62 599.203,200.553C598.262,200.507 597.207,200.242 596.155,199.46C595.906,199.274 594.454,198.171 593.823,195.472C592.798,191.084 589.172,169.71 586.299,156.489C585.527,152.936 584.391,148.932 584.117,147.982C583.008,146.614 582.292,144.971 581.831,143.158C581.613,142.3 581.453,141.397 581.255,140.509C581.178,140.167 580.988,139.588 580.91,139.359C578.636,138.325 576.025,139.498 573.514,140.501C568.922,142.335 564.553,144.616 561.554,144.982C559.093,145.282 557.05,144.748 555.425,143.621C553.904,142.567 552.408,140.762 551.849,137.571L542.546,131.837ZM345.097,165.053L344.988,165.118L345.02,165.101L345.097,165.053Z"/>
        <path d="M338.747,413.737C340.894,415.884 438.166,408.958 446.046,408.958C470.077,408.958 641.309,398.808 667.185,412.976C683.651,421.993 687.966,366.202 652.498,365.468C626.653,364.933 352.112,352.103 338.747,365.468C327.973,376.243 338.747,404.955 338.747,413.737" style="fill:white;"/>
        <path d="M333.354,415.045L333.357,415.059L333.358,415.064L333.372,415.124L333.418,415.283L333.427,415.318L333.431,415.331L333.447,415.387L333.491,415.517L333.51,415.574L333.519,415.598L333.534,415.645L333.575,415.747L333.605,415.826L333.62,415.861L333.634,415.897L333.669,415.974L333.713,416.075L333.734,416.119L333.745,416.143L333.772,416.196L333.833,416.319L333.861,416.369L333.868,416.382L333.886,416.414L333.966,416.558L333.999,416.61L334.001,416.614L334.009,416.626C334.233,416.995 334.505,417.343 334.823,417.662C335.296,418.135 336.078,418.77 337.372,419.165C338.07,419.377 339.625,419.615 341.919,419.673C359.337,420.117 438.944,414.508 446.046,414.508C462.851,414.508 551.709,409.534 612.378,411.407C637.197,412.174 657.117,413.791 664.52,417.844C668.174,419.845 671.528,419.91 674.447,418.842C678.099,417.506 681.358,413.964 683.215,408.665C688.763,392.841 682.028,360.528 652.613,359.919C631.909,359.491 451.831,351.194 373.777,354.74C359.657,355.382 348.772,356.441 342.56,357.942C338.599,358.899 336.058,360.309 334.823,361.544C329.513,366.854 327.918,375.564 328.555,384.96C329.321,396.255 333.197,408.535 333.197,413.737C333.197,414.188 333.251,414.626 333.354,415.045ZM343.686,408.542C345.422,408.567 347.629,408.573 349.832,408.517C376.124,407.842 439.733,403.408 446.046,403.408C462.885,403.408 551.927,398.435 612.721,400.313C639.959,401.154 661.727,403.66 669.851,408.108C671.238,408.868 671.802,407.3 672.434,405.793C673.142,404.103 673.601,402.053 673.82,399.817C674.957,388.244 669.738,371.376 652.384,371.017C631.734,370.59 452.13,362.292 374.28,365.829C362.905,366.346 353.758,367.105 347.7,368.204C345.48,368.607 342.944,369.452 342.458,369.618C339.353,372.956 339.241,378.476 339.63,384.209C340.22,392.916 342.56,402.201 343.686,408.542Z"/>
        <g transform="matrix(1,0,0,1,-47,-29)">
            <path d="M385.747,442.737C426.411,495.915 526.92,474.516 529.165,494.042C535.103,545.69 499,783.824 499,868C499,898.907 514.093,1008 545,1008C575.907,1008 587,891.907 587,861C587,776.427 549.227,529.517 566.595,496.447C584.913,461.569 659.864,491.837 714.185,441.976C726.544,430.632 385.747,442.737 385.747,442.737Z" style="fill:white;stroke:black;stroke-width:12.18px;"/>
        </g>
    </g>
</svg>
