<svg viewBox="0 0 246 246" xmlns="http://www.w3.org/2000/svg" xml:space="preserve" style="fill-rule:evenodd;clip-rule:evenodd;stroke-linejoin:round;stroke-miterlimit:2"><path d="M23.04 41.04c9.956-6.286 191.539-8.46 202.32-.96 10.781 7.5 11.941 138.622 3.12 140.16-29.893 5.21-68.84 3.682-103.08 3.842-34.133.159-65.165-.378-102.36-2.882-6.091-.41-9.956-133.874 0-140.16Z" style="fill:#fff"/><path d="M21.729 38.964c-.769.486-1.569 1.379-2.238 2.763-1.041 2.15-1.945 5.834-2.645 10.68-3.752 25.945-2.589 87.118.459 114.93.811 7.401 1.859 12.56 2.868 14.382.796 1.436 1.88 1.875 2.702 1.93 37.26 2.509 68.345 3.047 102.536 2.887 34.377-.16 73.478 1.354 103.491-3.878 1.07-.186 2.353-1.03 3.279-2.993 1.132-2.403 2.117-7.174 2.836-13.599 3.12-27.853 2.144-88.25-2.811-114.386-.78-4.114-1.67-7.415-2.638-9.674-.847-1.978-1.849-3.276-2.806-3.941-1.435-.999-5.56-2.016-11.796-2.716-13.17-1.479-36.551-2.253-62.595-2.436-44.574-.313-96.962 1.101-119.2 3.612-6.114.69-10.125 1.608-11.442 2.439ZM227.536 177.91c-29.702 5.083-68.242 3.558-102.147 3.717-33.727.157-64.42-.366-101.048-2.801-.39-1.598-1.572-6.7-2.156-12.024-3.015-27.513-4.191-88.026-.48-113.692.527-3.643 1.139-6.548 1.883-8.491.276-.721.429-1.292.763-1.503.576-.364 1.892-.62 3.797-.949 3.5-.602 8.688-1.15 15.14-1.642 25.424-1.939 70.214-2.975 109.048-2.703 25.831.182 49.02.94 62.082 2.406 3.237.363 5.829.765 7.653 1.22.877.219 1.529.398 1.887.647.269.187.468.564.714 1.032.416.792.805 1.813 1.181 3.032 1.254 4.059 2.301 10.13 3.164 17.469 3.42 29.102 3.818 77.808 1.121 101.892-.554 4.949-1.222 8.818-2.049 11.182a9.644 9.644 0 0 1-.553 1.208Z"/><path d="M23.04 40.026c9.956-5.171 191.539-6.959 202.32-.79 10.781 6.169 10.558 88.621 6.838 115.287 0 0-72.558 3.028-106.798 3.16-34.133.131-106.68-2.131-106.68-2.131-5.2-43.956-5.636-110.356 4.32-115.526Z" style="fill:#fff"/><path d="M21.909 37.847c-1.571.816-3.1 2.676-4.29 5.621-1.416 3.503-2.528 8.731-3.322 15.184-2.977 24.211-1.677 66.232 1.985 97.189a2.455 2.455 0 0 0 2.362 2.165s72.605 2.263 106.765 2.132c34.27-.132 106.892-3.162 106.892-3.162a2.455 2.455 0 0 0 2.328-2.114c2.622-18.794 3.524-65.11.102-93.339-1.059-8.744-2.566-15.798-4.501-19.909-1.069-2.272-2.35-3.764-3.651-4.509-1.417-.81-5.504-1.63-11.661-2.198-13.161-1.215-36.525-1.851-62.55-2.002-44.555-.257-96.92.904-119.148 2.969-6.039.561-10.011 1.298-11.311 1.973Zm2.262 4.357c1.089-.565 4.448-.972 9.503-1.441 22.138-2.057 74.291-3.205 118.665-2.948 25.85.149 49.056.774 62.127 1.981 5.086.469 8.504.901 9.675 1.571.951.544 1.604 2.008 2.332 4 1.437 3.934 2.538 9.767 3.384 16.747 3.258 26.878 2.552 70.378.173 90.041-12.056.492-73.852 2.955-104.639 3.073-30.649.118-92.295-1.696-104.476-2.064-3.432-30.359-4.619-70.538-1.745-93.912.728-5.923 1.702-10.73 3.001-13.944.622-1.538 1.18-2.678 2-3.104Z"/><path d="M104.16 184.088c-2.934.151-7.92 24.952-7.92 24.952l-8.64.24-1.68 8.4h74.88l.48-8.64-10.32-.96-5.76-23.992s-30.892-.522-41.04 0Z" style="fill:#fff"/><path d="M104.034 181.636c-.654.034-1.39.283-2.094.936-.603.56-1.319 1.659-1.984 3.194-2.242 5.186-4.76 16.387-5.721 20.874l-6.703.186a2.455 2.455 0 0 0-2.339 1.973l-1.68 8.4a2.454 2.454 0 0 0 2.407 2.936h74.88a2.455 2.455 0 0 0 2.451-2.319l.48-8.64a2.454 2.454 0 0 0-2.224-2.58l-8.57-.798-5.35-22.283a2.455 2.455 0 0 0-2.346-1.882s-31.018-.521-41.207.003Zm1.08 4.865c9.183-.384 31.494-.089 38.143.011l5.316 22.141a2.453 2.453 0 0 0 2.16 1.871l7.965.741-.22 3.96H88.914l.71-3.545 6.684-.186a2.457 2.457 0 0 0 2.339-1.97s2.401-11.967 4.835-19.197c.512-1.521 1.292-3.144 1.632-3.826Z"/><path d="m32.4 49.2-.48 96.24 184.08.48V49.2H32.4Z" style="fill:#fff"/><path d="M32.4 46.745a2.455 2.455 0 0 0-2.455 2.443l-.48 96.24a2.453 2.453 0 0 0 2.449 2.467l184.08.48a2.453 2.453 0 0 0 2.461-2.455V49.2A2.455 2.455 0 0 0 216 46.745H32.4Zm2.443 4.91h178.702v91.804l-179.158-.467.456-91.337Z"/><path d="m95.52 208.56 55.44-.96" style="fill:none"/><path d="m95.563 211.014 55.44-.96a2.455 2.455 0 0 0-.086-4.908l-55.44.96a2.455 2.455 0 0 0 .086 4.908Z"/><path d="M108.48 171.36c5.751.442 36.24.48 36.24.48" style="fill:#fff"/><path d="M108.292 173.808c5.78.444 36.425.487 36.425.487a2.456 2.456 0 0 0 .006-4.91s-30.333-.033-36.055-.473a2.457 2.457 0 0 0-2.636 2.26 2.457 2.457 0 0 0 2.26 2.636Z"/></svg>