<svg viewBox="0 0 492 492" xmlns="http://www.w3.org/2000/svg" xml:space="preserve" style="fill-rule:evenodd;clip-rule:evenodd;stroke-linecap:round;stroke-linejoin:round;stroke-miterlimit:1.5"><path d="M96 171c41.481-26.192 798.081-35.249 843-4 44.919 31.249 49.754 577.594 13 584-124.555 21.71-286.833 15.34-429.5 16.007-142.221.665-271.519-1.573-426.5-12.007-25.38-1.709-41.481-557.808 0-584Z" style="fill:#fff;stroke:#000;stroke-width:20.46px" transform="scale(.48)"/><path d="M96 171c41.481-26.192 798.081-35.249 843-4 44.919 31.249 43.992 448.921 28.492 584 0 0-302.325 15.34-444.992 16.007-142.221.665-444.5-10.791-444.5-10.791C56.333 533.549 54.519 197.192 96 171Z" style="fill:#fff;stroke:#000;stroke-width:22.34px" transform="matrix(.48 0 0 .39482 0 12.538)"/><path d="M434 767.032C421.776 767.661 401 871 401 871l-36 1-7 35h312l2-36-43-4-24-99.968s-128.717-2.173-171 0ZM135 205l-2 401 767 2V205H135Z" style="fill:#fff;stroke:#000;stroke-width:20.46px" transform="scale(.48)"/><path d="m398 869 231-4" style="fill:none;stroke:#000;stroke-width:20.46px" transform="scale(.48)"/><path d="M452 714c23.962 1.842 151 2 151 2" style="fill:#fff;stroke:#000;stroke-width:20.46px" transform="scale(.48)"/></svg>