<?xml version="1.0" encoding="UTF-8" standalone="no"?>
<!DOCTYPE svg PUBLIC "-//W3C//DTD SVG 1.1//EN" "http://www.w3.org/Graphics/SVG/1.1/DTD/svg11.dtd">
<svg width="100%" height="100%" viewBox="0 0 492 492" version="1.1" xmlns="http://www.w3.org/2000/svg" xmlns:xlink="http://www.w3.org/1999/xlink" xml:space="preserve" xmlns:serif="http://www.serif.com/" style="fill-rule:evenodd;clip-rule:evenodd;stroke-linejoin:round;stroke-miterlimit:2;">
    <g transform="matrix(0.48,0,0,0.48,0,0)">
        <g>
            <path d="M566.962,658.332C566.842,668.62 566.807,676.816 566.451,677.526C564.215,681.998 528.726,690.789 522.451,691.526C503.147,693.795 496.707,696.299 472.951,691.526C459.844,688.893 437.473,683.537 427.451,676.526C427.12,676.295 426.951,667.12 426.951,666.526C426.951,665.155 426.911,662.162 426.852,658.332L420.325,658.332C421.532,659.539 414.984,660.496 413.833,660.496C408.604,660.496 376.41,673.06 357.716,683.996C297.354,719.307 284.688,758.163 278.334,785.044L276.047,785.04C259.565,792.522 244.704,808.253 238.099,819.394C231.614,830.331 224.873,867.414 224.968,882.181C225.064,896.948 234.23,926.378 240.047,933.706C247.266,942.802 272.975,960.336 282.187,964.571C315.339,979.81 335.863,984.845 370.047,991.706C417.395,1001.21 496.327,1003.42 533.38,1001.04C571.647,998.586 633.236,993.764 676.047,977.706C690.08,972.443 714.455,960.741 733.654,946.727C746.648,937.242 757.272,926.698 760.713,916.373C771.918,882.758 768.636,855.552 754.047,826.373C747.492,813.265 734.88,791.406 717.38,785.873L717.134,785.873C709.067,756.027 690.83,717.338 650.163,685.965C617.07,660.435 572.868,658.332 572.906,658.332L566.962,658.332Z" style="fill:white;"/>
            <path d="M572.906,663.882L572.906,663.882L572.906,663.882L572.45,663.882C572.383,669.757 572.319,674.438 572.166,676.631C572.035,678.497 571.605,679.628 571.415,680.009C570.677,681.485 568.149,683.83 563.843,685.713C552.994,690.46 528.321,696.425 523.099,697.039C503.115,699.386 496.449,701.908 471.858,696.968C458.132,694.21 434.765,688.416 424.27,681.074C423.809,680.752 422.293,679.659 421.878,677.092C421.585,675.28 421.401,667.109 421.401,666.526L421.386,664.608C420.963,664.778 420.504,664.933 420.015,665.069C417.756,665.694 414.68,666.046 413.833,666.046C412.522,666.046 409.236,667.17 404.784,668.74C392.612,673.029 373.326,681.294 360.518,688.787C302.208,722.897 289.873,760.354 283.735,786.321C283.142,788.829 280.901,790.599 278.324,790.594C278.324,790.594 277.272,790.592 277.271,790.592C262.292,797.769 248.905,812.05 242.873,822.224C236.688,832.656 230.428,868.061 230.518,882.145C230.607,895.918 238.969,923.421 244.394,930.256C251.257,938.903 275.748,955.503 284.505,959.528C317.192,974.553 337.435,979.5 371.139,986.265C418.067,995.684 496.301,997.855 533.025,995.501C570.861,993.075 631.769,988.387 674.098,972.51C687.808,967.367 711.624,955.936 730.382,942.244C742.302,933.543 752.291,924.089 755.448,914.618C766.126,882.586 762.986,856.66 749.083,828.855C745.334,821.358 739.538,810.839 731.873,802.5C727.339,797.567 722.163,793.374 716.29,791.357C714.145,791.029 712.356,789.465 711.776,787.321C703.947,758.354 686.242,720.808 646.773,690.359C618.16,668.285 580.88,664.498 573.742,663.95C573.534,663.934 573.337,663.91 573.152,663.877C574.462,663.83 575.135,663.417 575.263,663.357L573.029,663.855L573.095,663.868L573.152,663.877L572.906,663.882L572.906,663.882L573.029,663.855L572.928,663.833L577.068,654.66C576.977,654.556 576.021,653.028 573.379,652.802C573.373,652.801 573.21,652.79 573.21,652.79C573.21,652.79 573.769,652.819 574.592,652.882C582.314,653.475 622.599,657.691 653.553,681.571C694.116,712.863 712.997,751.23 721.686,781.532C728.518,784.294 734.687,789.159 740.045,794.988C748.463,804.147 754.894,815.657 759.011,823.891C774.287,854.443 777.711,882.931 765.978,918.128C762.252,929.307 750.995,940.94 736.926,951.21C717.286,965.546 692.351,977.518 677.996,982.903C634.702,999.141 572.433,1004.1 533.735,1006.58C496.354,1008.98 416.722,1006.74 368.954,997.148C334.292,990.19 313.486,985.066 279.869,969.613C270.203,965.17 243.275,946.702 235.699,937.157C229.492,929.335 219.52,897.978 219.419,882.216C219.319,866.767 226.54,828.006 233.325,816.563C240.36,804.697 256.198,787.955 273.752,779.986L273.868,779.937C280.773,752.357 295.308,714.074 354.913,679.206C368.278,671.388 388.393,662.747 401.094,658.271C407.303,656.083 412.005,654.946 413.833,654.946C414.131,654.946 415.373,654.695 416.317,654.493C417.345,653.42 418.783,652.782 420.325,652.782L426.852,652.782C429.885,652.782 432.356,655.215 432.402,658.247C432.461,662.117 432.501,665.141 432.501,666.526C432.501,666.858 432.657,670.835 432.756,673.326C443.068,679.321 462.412,683.748 474.044,686.085C496.964,690.69 503.178,688.203 521.803,686.014C526.042,685.516 544.083,681.178 555.271,677.16C557.393,676.398 559.758,675.286 561.095,674.63C561.174,671.568 561.335,664.853 561.412,658.267C561.448,655.227 563.922,652.782 566.962,652.782L572.906,652.782C572.906,652.782 572.906,663.829 572.906,663.829L572.928,663.833L572.906,663.882L572.906,663.882L572.906,663.882ZM717.442,791.02L717.434,791.03L717.38,791.423L717.442,791.02ZM572.906,663.882L572.906,663.829C572.906,663.829 572.906,663.882 572.906,663.882ZM416.125,661.959C416.211,662.059 416.303,662.158 416.401,662.256L416.125,661.959ZM415.455,660.99L415.627,661.286C415.704,661.399 415.781,661.513 415.858,661.626L416.101,661.931C415.833,661.622 415.621,661.306 415.455,660.99Z"/>
            <path d="M420.325,658.332C421.532,659.539 414.984,660.496 413.833,660.496C408.604,660.496 376.41,673.06 357.716,683.996C282.723,727.866 281.351,777.208 274.237,802.256C270.042,817.026 265.418,834.558 276.401,845.541C285.007,854.147 358.678,910.201 465.505,918.711C559.705,926.215 610.444,908.867 669.178,882.517C678.538,878.318 688.877,873.328 697.991,867.249C711.366,858.33 722.103,847.067 723.236,832.526C723.894,824.087 724.036,742.955 650.163,685.965C617.07,660.435 572.868,658.332 572.906,658.332" style="fill:white;"/>
            <path d="M572.928,663.833L572.906,663.882L573.029,663.855L573.095,663.868L573.143,663.876L572.906,663.882L573.152,663.877L573.143,663.876C573.898,663.845 574.614,663.662 575.261,663.357L575.263,663.357C575.135,663.417 574.462,663.83 573.152,663.877C573.337,663.91 573.534,663.934 573.742,663.95C580.88,664.498 618.16,668.285 646.773,690.359C718.267,745.514 718.34,823.927 717.703,832.095C716.697,845.002 706.783,854.715 694.912,862.632C686.056,868.538 676.001,873.373 666.906,877.453C608.954,903.453 558.892,920.583 465.945,913.178C361.136,904.829 288.769,850.06 280.326,841.617C275.979,837.27 274.93,831.56 275.173,825.543C275.463,818.363 277.595,810.747 279.576,803.772C286.486,779.44 287.669,731.403 360.518,688.787C373.326,681.294 392.612,673.029 404.784,668.74C409.236,667.17 412.522,666.046 413.833,666.046C414.68,666.046 417.756,665.694 420.015,665.069C421.635,664.62 422.938,663.948 423.659,663.38C425.574,661.87 426.088,660.003 426.018,658.376C425.963,657.115 425.559,655.716 424.25,654.407C422.084,652.241 418.567,652.241 416.401,654.407L416.32,654.492C415.376,654.694 414.132,654.946 413.833,654.946C412.005,654.946 407.303,656.083 401.094,658.271C388.393,662.747 368.278,671.388 354.913,679.206C277.777,724.33 276.215,774.976 268.898,800.74C266.684,808.535 264.407,817.07 264.082,825.094C263.71,834.283 265.839,842.828 272.477,849.466C281.245,858.234 356.22,915.572 465.064,924.243C560.518,931.848 611.935,914.282 671.45,887.581C681.074,883.263 691.698,878.117 701.071,871.867C715.951,861.943 727.509,849.135 728.77,832.957C729.448,824.246 729.806,740.396 653.553,681.571C622.599,657.691 582.314,653.475 574.592,652.882C573.769,652.819 573.21,652.79 573.21,652.79C573.21,652.79 573.373,652.801 573.379,652.802L573.429,652.807C573.257,652.79 573.083,652.782 572.906,652.782C572.873,652.782 566.927,662.556 572.928,663.833ZM416.167,662.008L416.193,662.036L416.055,661.875L416.167,662.008ZM415.956,661.758L416.012,661.824L415.853,661.618L415.956,661.758ZM415.769,661.506L415.847,661.61L415.698,661.397L415.769,661.506ZM415.604,661.253L415.679,661.368L415.572,661.197L415.604,661.253ZM573.522,652.817C574.929,652.972 576.178,653.654 577.067,654.662L577.068,654.66C576.978,654.558 576.056,653.083 573.522,652.817Z"/>
            <path d="M449.451,585.026C449.571,579.878 431.184,587.66 426.451,596.526C424.517,600.15 426.451,620.637 426.451,626.026C426.451,636.8 426.951,661.7 426.951,666.526C426.951,667.12 427.12,676.295 427.451,676.526C437.473,683.537 459.844,688.893 472.951,691.526C496.707,696.299 503.147,693.795 522.451,691.526C528.726,690.789 564.215,681.998 566.451,677.526C566.882,676.664 566.842,664.776 567.055,651.507C567.189,643.08 567.426,634.096 567.951,627.026C567.99,626.5 568.106,601.182 567.451,599.526C565.451,594.475 561.563,590.734 555.451,589.026C549.557,587.379 541.351,587.826 541.351,587.826C541.351,587.826 544.992,600.986 541.951,604.026C535.843,610.134 501.933,618.126 499.051,618.126C488.92,618.126 458.929,615.481 453.951,605.526C451.213,600.05 449.132,598.708 449.451,585.026Z" style="fill:white;"/>
            <path d="M537.495,600.559C535.779,601.884 532.466,603.161 528.642,604.549C517.116,608.732 500.95,612.576 499.051,612.576C493.268,612.576 480.683,611.678 470.518,608.908C467.413,608.061 464.544,607.05 462.245,605.791C460.75,604.973 459.479,604.172 458.915,603.044C456.526,598.266 454.721,597.093 455,585.156C455.045,583.198 454.403,581.675 453.401,580.475C452.284,579.138 450.516,578.051 447.975,577.86C445.421,577.668 441.153,578.662 436.711,580.832C430.676,583.78 424.293,588.783 421.555,593.913C420.758,595.405 420.104,598.934 420.048,603.409C419.953,611.038 420.901,622.242 420.901,626.026C420.901,636.8 421.401,661.7 421.401,666.526C421.401,667.109 421.585,675.28 421.878,677.092C422.293,679.659 423.809,680.752 424.27,681.074C434.765,688.416 458.132,694.21 471.858,696.968C496.449,701.908 503.115,699.386 523.099,697.039C528.321,696.425 552.994,690.46 563.843,685.713C568.149,683.83 570.677,681.485 571.415,680.009C571.61,679.618 572.078,678.281 572.201,676.071C572.42,672.126 572.432,662.307 572.604,651.596C572.737,643.28 572.968,634.414 573.486,627.437C573.518,627.005 573.616,610.283 573.304,602.742C573.187,599.926 572.812,597.991 572.611,597.484C569.993,590.869 564.948,585.918 556.945,583.681C550.298,581.824 541.049,582.285 541.049,582.285C539.371,582.376 537.825,583.223 536.844,584.587C535.864,585.952 535.554,587.687 536.002,589.306C536.002,589.306 537.175,593.531 537.525,597.497C537.61,598.461 537.536,599.909 537.495,600.559ZM443.888,589.878C444.119,600.752 446.27,602.574 448.987,608.009C450.971,611.975 455.667,615.447 462.022,617.834C473.808,622.26 491.563,623.676 499.051,623.676C501.187,623.676 519.463,619.689 532.429,614.983C538.662,612.72 543.699,610.127 545.875,607.951C547.565,606.261 548.734,603.054 548.712,599.155C548.702,597.334 548.481,595.326 548.189,593.45C550.096,593.593 552.151,593.867 553.957,594.372C557.982,595.496 560.652,597.848 562.088,601.09L562.096,601.162C562.539,606.295 562.45,626.158 562.416,626.616C561.885,633.779 561.642,642.881 561.505,651.419C561.358,660.599 561.164,670.72 561.086,674.635C559.747,675.291 557.388,676.399 555.271,677.16C544.083,681.178 526.042,685.516 521.803,686.014C503.178,688.203 496.964,690.69 474.044,686.085C462.412,683.748 443.068,679.321 432.756,673.326C432.657,670.835 432.501,666.858 432.501,666.526C432.501,661.7 432.001,636.8 432.001,626.026C432.001,622.266 431.053,611.129 431.148,603.547C431.17,601.733 431.438,599.347 431.493,598.879C433.382,595.603 437.707,592.699 441.584,590.805C442.29,590.46 443.104,590.146 443.888,589.878Z"/>
            <path d="M448.417,49.756C448.417,51.804 447.905,51.292 449.954,51.292" style="fill:white;"/>
            <path d="M446.881,43.61C458.25,66.348 451.49,100.029 451.49,125.04C451.49,129.872 446.881,158.616 446.881,146.549" style="fill:white;"/>
            <path d="M542.341,604.803C543.008,565.362 538.552,404.139 539.065,387.764C540.743,334.272 537.529,223.411 537.529,200.323C537.529,182.918 537.529,56.963 537.529,42.074C537.529,40.062 487.376,29.234 454.563,45.147C447.433,48.604 448.417,166.648 448.417,180.35C448.417,285.989 448.836,568.072 449.954,585.959C451.687,613.694 475.731,620.205 496.601,618.684C527.256,616.451 542.341,604.803 542.341,604.803Z" style="fill:white;"/>
            <path d="M546.833,610.62C548.601,609.255 549.652,607.16 549.69,604.927C550.356,565.505 545.898,404.361 546.412,387.994C548.091,334.437 544.879,223.439 544.879,200.323C544.879,182.918 544.879,56.963 544.879,42.074C544.879,40.868 544.222,36.388 538.615,34.338C529.603,31.044 482.964,23.205 451.356,38.533C450.032,39.175 448.456,40.38 447.249,42.66C445.994,45.032 444.697,50.62 443.876,58.454C440.456,91.087 441.067,169.319 441.067,180.35C441.067,286.108 441.499,568.51 442.618,586.418C444.668,619.213 472.457,627.813 497.135,626.015C530.502,623.584 546.833,610.62 546.833,610.62ZM530.179,47.168L530.179,200.323C530.179,223.382 533.394,334.107 531.719,387.534C531.221,403.419 535.393,555.553 535.039,600.753L535.039,600.753C529.701,603.797 516.747,609.847 496.067,611.354C478.998,612.597 458.707,608.185 457.29,585.501C456.173,567.633 455.767,285.87 455.767,180.35C455.767,169.458 455.119,92.209 458.496,59.986C458.878,56.34 459.597,52.607 459.984,50.746C484.474,40.063 517.945,44.184 530.179,47.168Z"/>
            <path d="M421.394,599.557C423.256,610.191 430.98,619.724 440.17,628.758C443.071,631.608 448.537,634.452 455.312,636.786C469.502,641.675 489.666,644.853 499.435,644.547C518.793,643.941 547.127,634.142 559.911,622.981C570.201,613.996 570.411,598.84 570.411,598.84C570.433,595.777 567.964,593.272 564.901,593.25C561.838,593.228 559.333,595.697 559.311,598.76C559.311,598.76 559.34,608.743 552.611,614.619C541.313,624.482 516.195,632.917 499.087,633.452C491.459,633.691 476.887,631.513 464.735,628.095C457.35,626.018 450.834,623.675 447.951,620.842C440.547,613.564 433.827,606.21 432.328,597.643C431.8,594.626 428.921,592.605 425.904,593.133C422.887,593.661 420.866,596.539 421.394,599.557Z"/>
        </g>
    </g>
</svg>
