<svg viewBox="0 0 246 246" xmlns="http://www.w3.org/2000/svg" xml:space="preserve" style="fill-rule:evenodd;clip-rule:evenodd;stroke-linejoin:round;stroke-miterlimit:2"><path d="M136.071 158c-.029 2.469-.037 4.436-.123 4.606-.536 1.074-9.054 3.183-10.56 3.36-4.633.545-6.178 1.146-11.88 0-3.145-.632-8.515-1.917-10.92-3.6-.079-.055-.12-2.257-.12-2.4 0-.329-.009-1.047-.023-1.966h-1.567c.29.289-1.282.519-1.558.519-1.255 0-8.982 3.016-13.468 5.64-14.487 8.475-17.527 17.8-19.052 24.252l-.549-.001c-3.955 1.795-7.522 5.571-9.107 8.244-1.557 2.625-3.174 11.525-3.152 15.069.023 3.545 2.223 10.608 3.619 12.367 1.733 2.183 7.903 6.391 10.114 7.407 7.956 3.657 12.882 4.866 21.086 6.513 11.364 2.28 30.308 2.81 39.2 2.24 9.184-.589 23.966-1.747 34.24-5.6 3.368-1.264 9.218-4.072 13.826-7.436 3.119-2.276 5.668-4.807 6.494-7.284 2.689-8.068 1.902-14.598-1.6-21.6-1.573-3.147-4.6-8.392-8.8-9.72l-.059-.001c-1.936-7.162-6.313-16.448-16.073-23.977-7.942-6.128-18.551-6.632-18.541-6.632h-1.427Z" style="fill:#fff"/><path d="M137.498 159.332h-.11c-.016 1.41-.031 2.533-.068 3.06-.031.447-.135.719-.18.81-.178.354-.784.917-1.818 1.369-2.604 1.139-8.525 2.571-9.778 2.718-4.796.564-6.396 1.169-12.298-.017-3.294-.662-8.902-2.052-11.421-3.814-.111-.078-.475-.34-.574-.956-.071-.435-.115-2.396-.115-2.536l-.003-.46a3.019 3.019 0 0 1-.329.11 7.597 7.597 0 0 1-1.484.235c-.315 0-1.103.27-2.172.647-2.921 1.029-7.55 3.013-10.624 4.811-13.994 8.186-16.954 17.176-18.428 23.408a1.332 1.332 0 0 1-1.298 1.026l-.253-.001c-3.595 1.723-6.808 5.15-8.256 7.592-1.484 2.503-2.986 11.001-2.965 14.381.022 3.305 2.029 9.906 3.331 11.546 1.647 2.076 7.525 6.06 9.626 7.026 7.845 3.606 12.703 4.793 20.792 6.417 11.263 2.26 30.039 2.781 38.853 2.216 9.081-.582 23.698-1.707 33.857-5.518 3.291-1.234 9.007-3.977 13.509-7.263 2.861-2.089 5.258-4.358 6.016-6.631 2.562-7.687 1.809-13.91-1.528-20.583-.9-1.799-2.291-4.324-4.131-6.325-1.088-1.184-2.33-2.19-3.739-2.674a1.332 1.332 0 0 1-1.084-.969c-1.879-6.952-6.128-15.963-15.6-23.271-6.868-5.298-15.815-6.206-17.528-6.338a1.486 1.486 0 0 1-.142-.018c.315-.011.476-.11.507-.124l-.536.119.016.003.013.002-.058.002.029-.007-.024-.005.993-2.202c-.022-.025-.251-.391-.885-.446l-.041-.002s.135.007.332.022c1.853.142 11.522 1.154 18.951 6.885 9.735 7.51 14.266 16.718 16.352 23.991 1.639.663 3.12 1.83 4.406 3.229 2.02 2.198 3.564 4.961 4.552 6.937 3.666 7.332 4.488 14.17 1.672 22.617-.894 2.683-3.596 5.475-6.973 7.939-4.713 3.441-10.698 6.314-14.143 7.607-10.39 3.897-25.335 5.086-34.623 5.682-8.971.575-28.083.038-39.547-2.264-8.319-1.669-13.312-2.899-21.38-6.608-2.32-1.066-8.783-5.499-10.601-7.789-1.49-1.878-3.883-9.403-3.908-13.186-.023-3.708 1.71-13.01 3.338-15.757 1.688-2.848 5.49-6.866 9.703-8.778l.027-.012c1.657-6.619 5.146-15.807 19.451-24.176 3.208-1.876 8.035-3.95 11.084-5.024 1.49-.525 2.618-.798 3.057-.798.072 0 .37-.06.596-.109.247-.257.592-.41.962-.41h1.567c.727 0 1.32.584 1.331 1.311.015.929.024 1.655.024 1.987 0 .08.038 1.034.062 1.632 2.474 1.439 7.117 2.502 9.909 3.062 5.5 1.106 6.992.509 11.462-.017 1.017-.119 5.347-1.16 8.032-2.125a14.796 14.796 0 0 0 1.398-.607c.019-.735.057-2.346.076-3.927a1.332 1.332 0 0 1 1.332-1.316h1.427v2.651l.005.001-.005.012Zm34.688 30.513-.002.002-.013.095.015-.097Zm-34.688-30.513v-.013.013Zm-37.628-.462c.021.024.043.048.066.071l-.066-.071Zm-.161-.232.041.071.056.081.058.073a1.193 1.193 0 0 1-.155-.225Z"/><path d="M100.878 158c.29.289-1.282.519-1.558.519-1.255 0-8.982 3.016-13.468 5.64-17.999 10.529-18.328 22.371-20.035 28.382-1.007 3.545-2.117 7.753.519 10.389 2.066 2.065 19.747 15.518 45.385 17.561 22.608 1.801 34.786-2.363 48.882-8.687 2.246-1.008 4.727-2.205 6.915-3.664 3.21-2.141 5.787-4.844 6.059-8.334.158-2.025.192-21.497-17.538-35.174-7.942-6.128-18.551-6.632-18.541-6.632" style="fill:#fff"/><path d="m137.503 159.32-.005.012.029-.007.016.003.011.002-.056.002.058-.002h-.002c.182-.007.353-.051.509-.124-.031.014-.192.113-.507.124.045.008.092.014.142.018 1.713.132 10.66 1.04 17.528 6.338 17.158 13.237 17.176 32.057 17.023 34.017-.242 3.097-2.621 5.429-5.47 7.329-2.126 1.417-4.539 2.578-6.721 3.557-13.909 6.24-25.924 10.351-48.231 8.574-25.154-2.004-42.522-15.149-44.549-17.175-1.043-1.043-1.295-2.414-1.236-3.858.069-1.723.581-3.551 1.056-5.225 1.659-5.839 1.942-17.368 19.426-27.596 3.074-1.798 7.703-3.782 10.624-4.811 1.069-.377 1.857-.647 2.172-.647.203 0 .942-.084 1.484-.235.388-.107.701-.268.874-.405.46-.362.583-.81.566-1.201a1.38 1.38 0 0 0-.424-.952 1.333 1.333 0 0 0-1.884 0l-.019.02a5.793 5.793 0 0 1-.597.109c-.439 0-1.567.273-3.057.798-3.049 1.074-7.876 3.148-11.084 5.024-18.513 10.83-18.887 22.985-20.643 29.169-.532 1.87-1.078 3.919-1.156 5.845-.09 2.205.421 4.256 2.014 5.849 2.105 2.104 20.099 15.865 46.221 17.946 22.909 1.825 35.249-2.39 49.533-8.799 2.31-1.036 4.86-2.271 7.109-3.771 3.571-2.382 6.345-5.456 6.648-9.338.163-2.091.248-22.215-18.052-36.333-7.429-5.731-17.098-6.743-18.951-6.885a15.238 15.238 0 0 0-.291-.02l.012.002a1.292 1.292 0 0 0-.125-.006c-.008 0-1.435 2.346.005 2.652Zm-37.623-.438.006.007-.033-.039.027.032Zm-.05-.06.013.016-.038-.05.025.034Zm-.045-.06.018.025-.035-.052.017.027Zm-.04-.061.018.027-.026-.041.008.014Zm37.9-2.025c.338.037.638.201.851.443v-.001c-.021-.024-.243-.378-.851-.442Z"/><path d="M107.868 140.406c.029-1.235-4.384.632-5.52 2.76-.464.87 0 5.787 0 7.08 0 2.586.12 8.562.12 9.72 0 .143.041 2.345.12 2.4 2.405 1.683 7.775 2.968 10.92 3.6 5.702 1.146 7.247.545 11.88 0 1.506-.177 10.024-2.286 10.56-3.36.104-.207.094-3.06.145-6.244.032-2.023.089-4.179.215-5.876.01-.126.037-6.202-.12-6.6-.48-1.212-1.413-2.11-2.88-2.52-1.414-.395-3.384-.288-3.384-.288s.874 3.159.144 3.888c-1.466 1.466-9.604 3.384-10.296 3.384-2.431 0-9.629-.634-10.824-3.024-.657-1.314-1.156-1.636-1.08-4.92Z" style="fill:#fff"/><path d="M128.999 144.134c-.412.318-1.207.625-2.125.958-2.766 1.004-6.646 1.926-7.102 1.926-1.388 0-4.408-.215-6.848-.88-.745-.203-1.433-.446-1.985-.748-.359-.196-.664-.389-.799-.659-.574-1.147-1.007-1.429-.94-4.294a1.632 1.632 0 0 0-.384-1.123c-.268-.321-.692-.582-1.302-.628-.613-.046-1.637.193-2.703.714-1.449.707-2.981 1.908-3.638 3.139-.191.358-.348 1.205-.361 2.279-.023 1.831.204 4.52.204 5.428 0 2.586.12 8.562.12 9.72 0 .14.044 2.101.115 2.536.099.616.463.878.574.956 2.519 1.762 8.127 3.152 11.421 3.814 5.902 1.186 7.502.581 12.298.017 1.253-.147 7.174-1.579 9.778-2.718 1.034-.452 1.64-1.015 1.818-1.369.046-.094.159-.415.188-.945.053-.947.056-3.303.097-5.874.032-1.996.087-4.124.212-5.798.007-.104.031-4.117-.044-5.927-.028-.676-.118-1.14-.166-1.262-.629-1.587-1.839-2.776-3.76-3.313-1.595-.445-3.815-.335-3.815-.335a1.332 1.332 0 0 0-1.212 1.686s.282 1.013.366 1.965c.02.232.003.579-.007.735Zm-22.466-2.563c.055 2.609.572 3.047 1.224 4.351.476.952 1.603 1.785 3.128 2.358 2.829 1.062 7.09 1.402 8.887 1.402.513 0 4.899-.957 8.011-2.086 1.496-.543 2.705-1.165 3.227-1.688.406-.405.686-1.175.681-2.111a9.482 9.482 0 0 0-.126-1.369c.458.034.951.1 1.385.221.966.27 1.607.835 1.951 1.613l.002.017c.106 1.232.085 5.999.077 6.109-.128 1.719-.186 3.903-.219 5.952-.035 2.204-.082 4.633-.1 5.572-.322.158-.888.424-1.396.606-2.685.965-7.015 2.006-8.032 2.125-4.47.526-5.962 1.123-11.462.017-2.792-.56-7.435-1.623-9.909-3.062a194.23 194.23 0 0 1-.062-1.632c0-1.158-.12-7.134-.12-9.72 0-.902-.227-3.575-.205-5.395.006-.435.07-1.008.083-1.12.454-.786 1.492-1.483 2.422-1.938.17-.083.365-.158.553-.222Z"/><path d="M107.62 11.941c0 .492-.123.369.369.369" style="fill:#fff"/><path d="M109.038 10.892a1.763 1.763 0 0 0-3.182 1.049c0 1.132.375 1.475.517 1.616.141.142.485.517 1.616.517a1.764 1.764 0 0 0 1.049-3.182Z" style="fill:none"/><path d="M107.251 10.466c2.729 5.458 1.107 13.541 1.107 19.543 0 1.16-1.107 8.059-1.107 5.163" style="fill:#fff"/><path d="M106.061 33.871a1.76 1.76 0 0 0-.574 1.301c0 .728.105 1.134.167 1.295.218.567.578.821.84.961.393.211.803.263 1.227.17.291-.064.646-.208.967-.571.128-.145.422-.628.606-1.403.352-1.478.828-4.814.828-5.615 0-3.617.583-7.987.461-12.087-.09-2.992-.554-5.846-1.754-8.244a1.764 1.764 0 1 0-3.155 1.577c1.246 2.492 1.449 5.592 1.39 8.745-.065 3.465-.47 6.998-.47 10.009 0 .545-.271 2.478-.533 3.862Z" style="fill:none"/><path d="M130.162 145.153c.16-9.466-.91-48.16-.786-52.09.402-12.838-.369-39.444-.369-44.985v-37.98c0-.483-12.037-3.082-19.912.737-1.711.83-1.475 29.161-1.475 32.449 0 25.353.101 93.053.369 97.346.416 6.656 6.187 8.219 11.195 7.854 7.357-.536 10.978-3.331 10.978-3.331Z" style="fill:#fff"/><path d="M131.24 146.549c.424-.328.677-.831.686-1.367.16-9.461-.91-48.135-.787-52.063.403-12.854-.368-39.494-.368-45.041v-37.98c0-.29-.158-1.365-1.503-1.857-2.163-.79-13.357-2.672-20.943 1.007-.317.154-.696.443-.985.99-.301.57-.613 1.911-.81 3.791-.821 7.832-.674 26.608-.674 29.255 0 25.382.104 93.158.372 97.456.492 7.871 7.162 9.935 13.084 9.504 8.008-.584 11.928-3.695 11.928-3.695ZM127.243 11.32v36.758c0 5.534.772 32.108.369 44.93-.119 3.813.882 40.325.797 51.173-1.281.73-4.39 2.182-9.353 2.544-4.097.298-8.966-.761-9.306-6.205-.268-4.288-.366-71.911-.366-97.236 0-2.614-.155-21.154.655-28.887.092-.876.264-1.771.357-2.218 5.878-2.564 13.911-1.575 16.847-.859Z"/><path d="M101.135 143.894c.446 2.552 2.3 4.84 4.506 7.008.696.684 2.008 1.366 3.634 1.927 3.406 1.173 8.245 1.936 10.589 1.862 4.646-.145 11.447-2.497 14.515-5.176 2.469-2.156 2.52-5.794 2.52-5.794a1.333 1.333 0 0 0-2.664-.019s.007 2.396-1.608 3.807c-2.712 2.367-8.74 4.391-12.846 4.52-1.831.057-5.328-.466-8.245-1.286-1.772-.499-3.336-1.061-4.028-1.741-1.777-1.747-3.389-3.512-3.749-5.568a1.333 1.333 0 0 0-2.624.46Z"/></svg>