<svg viewBox="0 0 492 492" xmlns="http://www.w3.org/2000/svg" xml:space="preserve" style="fill-rule:evenodd;clip-rule:evenodd;stroke-linejoin:round;stroke-miterlimit:2"><path d="M566.962 658.332c-.12 10.288-.155 18.484-.511 19.194-2.236 4.472-37.725 13.263-44 14-19.304 2.269-25.744 4.773-49.5 0-13.107-2.633-35.478-7.989-45.5-15-.331-.231-.5-9.406-.5-10 0-1.371-.04-4.364-.099-8.194h-6.527c1.207 1.207-5.341 2.164-6.492 2.164-5.229 0-37.423 12.564-56.117 23.5-60.362 35.311-73.028 74.167-79.382 101.048l-2.287-.004c-16.482 7.482-31.343 23.213-37.948 34.354-6.485 10.937-13.226 48.02-13.131 62.787.096 14.767 9.262 44.197 15.079 51.525 7.219 9.096 32.928 26.63 42.14 30.865 33.152 15.239 53.676 20.274 87.86 27.135 47.348 9.504 126.28 11.714 163.333 9.334 38.267-2.454 99.856-7.276 142.667-23.334 14.033-5.263 38.408-16.965 57.607-30.979 12.994-9.485 23.618-20.029 27.059-30.354 11.205-33.615 7.923-60.821-6.666-90-6.555-13.108-19.167-34.967-36.667-40.5h-.246c-8.067-29.846-26.304-68.535-66.971-99.908-33.093-25.53-77.295-27.633-77.257-27.633h-5.944Z" style="fill:#fff" transform="scale(.48)"/><path d="M274.995 318.663h-.219c-.032 2.82-.063 5.067-.136 6.12-.063.896-.27 1.438-.36 1.621-.355.709-1.568 1.834-3.635 2.738-5.208 2.279-17.05 5.142-19.557 5.437-9.593 1.126-12.792 2.337-24.596-.034-6.589-1.324-17.805-4.105-22.842-7.63-.222-.154-.95-.679-1.149-1.91-.14-.87-.229-4.793-.229-5.073l-.007-.92a6.285 6.285 0 0 1-.658.221c-1.084.3-2.56.47-2.967.47-.63 0-2.207.539-4.344 1.292-5.842 2.059-15.1 6.026-21.247 9.623-27.99 16.373-33.91 34.352-36.856 46.816a2.664 2.664 0 0 1-2.597 2.051h-.506c-7.19 3.444-13.616 10.299-16.511 15.183-2.969 5.007-5.974 22.001-5.93 28.762.042 6.61 4.056 19.812 6.66 23.093 3.294 4.15 15.05 12.118 19.253 14.05 15.69 7.212 25.407 9.587 41.585 12.834 22.525 4.521 60.077 5.563 77.705 4.433 18.161-1.164 47.397-3.414 67.715-11.035 6.58-2.469 18.013-7.956 27.016-14.528 5.722-4.176 10.517-8.714 12.032-13.26 5.125-15.376 3.618-27.82-3.055-41.167-1.8-3.598-4.582-8.647-8.261-12.65-2.176-2.368-4.66-4.38-7.48-5.349a2.663 2.663 0 0 1-2.167-1.937c-3.757-13.904-12.256-31.926-31.201-46.542-13.734-10.595-31.629-12.413-35.055-12.676a2.87 2.87 0 0 1-.283-.035c.629-.023.952-.22 1.013-.25l-1.072.24.032.006.027.004-.118.002.059-.013-.049-.01 1.988-4.403c-.044-.05-.503-.784-1.771-.892l-.081-.006s.268.014.663.044c3.707.285 23.044 2.309 37.901 13.771 19.47 15.02 28.534 33.436 32.704 47.981 3.28 1.326 6.24 3.661 8.813 6.46 4.04 4.396 7.127 9.92 9.103 13.873 7.333 14.665 8.976 28.339 3.344 45.233-1.788 5.366-7.191 10.95-13.945 15.88-9.427 6.881-21.396 12.628-28.286 15.212-20.781 7.795-50.67 10.175-69.245 11.365-17.943 1.152-56.166.077-79.095-4.527-16.638-3.34-26.625-5.8-42.76-13.217-4.64-2.132-17.566-10.997-21.202-15.579-2.98-3.754-7.766-18.806-7.815-26.371-.048-7.416 3.418-26.021 6.675-31.514 3.377-5.695 10.979-13.732 19.405-17.557l.056-.023c3.314-13.239 10.29-31.614 38.901-48.351 6.415-3.753 16.07-7.9 22.167-10.049 2.98-1.05 5.237-1.596 6.115-1.596.143 0 .739-.12 1.192-.217a2.663 2.663 0 0 1 1.924-.822h3.133a2.664 2.664 0 0 1 2.664 2.624c.028 1.857.047 3.309.047 3.973 0 .16.075 2.069.123 3.264 4.95 2.878 14.235 5.003 19.818 6.125 11.002 2.21 13.984 1.016 22.924-.034 2.035-.24 10.695-2.322 16.065-4.25 1.019-.366 2.154-.9 2.796-1.215.038-1.47.115-4.693.152-7.854a2.664 2.664 0 0 1 2.664-2.633h2.853v5.303l.01.002-.01.023Zm69.377 61.027-.004.004-.026.189.03-.193Zm-69.377-61.027v-.025.025Zm-75.255-.923c.041.048.085.096.132.143l-.132-.143Zm-.322-.465.083.142.11.163.117.147c-.128-.148-.23-.3-.31-.452Z"/><path d="M420.325 658.332c1.207 1.207-5.341 2.164-6.492 2.164-5.229 0-37.423 12.564-56.117 23.5-74.993 43.87-76.365 93.212-83.479 118.26-4.195 14.77-8.819 32.302 2.164 43.285 8.606 8.606 82.277 64.66 189.104 73.17 94.2 7.504 144.939-9.844 203.673-36.194 9.36-4.199 19.699-9.189 28.813-15.268 13.375-8.919 24.112-20.182 25.245-34.723.658-8.439.8-89.571-73.073-146.561-33.093-25.53-77.295-27.633-77.257-27.633" style="fill:#fff" transform="scale(.48)"/><path d="m275.005 318.64-.01.023.059-.013.032.007.023.003-.114.003.118-.002h-.004a2.633 2.633 0 0 0 1.016-.25h.001c-.061.03-.384.227-1.013.25.089.016.183.027.283.035 3.426.263 21.32 2.08 35.055 12.676 34.317 26.475 34.352 64.113 34.046 68.034-.482 6.195-5.241 10.857-10.94 14.657-4.25 2.835-9.077 5.156-13.442 7.114-27.817 12.48-51.847 20.703-96.461 17.148-50.309-4.007-85.045-30.296-89.098-34.349-2.086-2.086-2.59-4.827-2.473-7.715.14-3.447 1.163-7.102 2.113-10.45 3.317-11.68 3.885-34.738 38.853-55.193 6.147-3.597 15.405-7.564 21.247-9.623 2.137-.753 3.715-1.293 4.344-1.293.406 0 1.883-.169 2.967-.469.778-.215 1.403-.538 1.75-.81.919-.725 1.165-1.622 1.132-2.403-.027-.605-.22-1.276-.849-1.905a2.665 2.665 0 0 0-3.768 0l-.038.041c-.454.097-1.05.218-1.194.218-.878 0-3.135.546-6.115 1.596-6.096 2.149-15.752 6.296-22.167 10.049-37.025 21.66-37.775 45.97-41.287 58.336-1.063 3.742-2.156 7.839-2.312 11.69-.178 4.41.844 8.512 4.03 11.699 4.209 4.208 40.197 31.73 92.442 35.893 45.818 3.65 70.498-4.782 99.065-17.598 4.62-2.073 9.719-4.543 14.218-7.543 7.142-4.763 12.69-10.911 13.296-18.677.325-4.18.497-44.429-36.105-72.665-14.857-11.462-34.194-13.486-37.9-13.77-.396-.03-.664-.045-.664-.045l.08.006.025.002a2.549 2.549 0 0 0-.251-.012c-.016 0-2.87 4.692.01 5.305Zm-75.245-.876.013.013-.067-.077.054.064Zm-.101-.12.027.032-.077-.1.05.068Zm-.09-.121.038.05-.072-.102.034.052Zm-.08-.122.037.056-.051-.082.015.026Zm75.802-4.049a2.655 2.655 0 0 1 1.701.886v-.001c-.043-.05-.485-.757-1.701-.885Z"/><path d="M449.451 585.026c.12-5.148-18.267 2.634-23 11.5-1.934 3.624 0 24.111 0 29.5 0 10.774.5 35.674.5 40.5 0 .594.169 9.769.5 10 10.022 7.011 32.393 12.367 45.5 15 23.756 4.773 30.196 2.269 49.5 0 6.275-.737 41.764-9.528 44-14 .431-.862.391-12.75.604-26.019.134-8.427.371-17.411.896-24.481.039-.526.155-25.844-.5-27.5-2-5.051-5.888-8.792-12-10.5-5.894-1.647-14.1-1.2-14.1-1.2s3.641 13.16.6 16.2c-6.108 6.108-40.018 14.1-42.9 14.1-10.131 0-40.122-2.645-45.1-12.6-2.738-5.476-4.819-6.818-4.5-20.5Z" style="fill:#fff" transform="scale(.48)"/><path d="M257.998 288.268c-.824.636-2.414 1.25-4.25 1.916-5.532 2.007-13.292 3.852-14.204 3.852-2.775 0-8.816-.43-13.695-1.76-1.49-.407-2.868-.892-3.971-1.496-.718-.393-1.328-.777-1.599-1.319-1.147-2.293-2.013-2.856-1.879-8.586.022-.94-.287-1.671-.768-2.247-.536-.642-1.384-1.164-2.604-1.255-1.226-.092-3.275.385-5.407 1.426-2.897 1.415-5.96 3.817-7.275 6.28-.382.715-.696 2.41-.723 4.557-.046 3.662.41 9.04.41 10.856 0 5.172.24 17.124.24 19.44 0 .28.088 4.202.228 5.072.2 1.232.927 1.757 1.149 1.912 5.037 3.524 16.253 6.305 22.842 7.629 11.804 2.37 15.003 1.16 24.596.034 2.506-.295 14.35-3.158 19.557-5.437 2.067-.904 3.28-2.03 3.634-2.738.094-.187.318-.83.377-1.89.106-1.894.111-6.607.194-11.748.064-3.992.175-8.247.423-11.596.016-.208.063-8.234-.087-11.854-.056-1.352-.236-2.28-.333-2.524-1.256-3.175-3.678-5.551-7.52-6.625-3.19-.891-7.63-.67-7.63-.67a2.664 2.664 0 0 0-2.422 3.37s.563 2.028.731 3.932c.04.462.005 1.157-.014 1.47Zm-44.932-5.127c.111 5.22 1.144 6.095 2.448 8.703.952 1.904 3.206 3.57 6.257 4.716 5.657 2.125 14.18 2.804 17.773 2.804 1.026 0 9.798-1.913 16.022-4.172 2.992-1.086 5.41-2.331 6.454-3.376.811-.81 1.372-2.35 1.362-4.222-.005-.874-.111-1.838-.251-2.738.915.069 1.901.2 2.768.443 1.932.54 3.214 1.668 3.903 3.224l.004.035c.213 2.464.17 11.998.154 12.218-.255 3.438-.372 7.807-.438 11.905-.07 4.407-.163 9.265-.2 11.144-.643.315-1.776.847-2.792 1.212-5.37 1.928-14.03 4.01-16.065 4.25-8.94 1.05-11.922 2.244-22.924.034-5.583-1.122-14.868-3.247-19.818-6.125a387.713 387.713 0 0 1-.123-3.264c0-2.316-.24-14.268-.24-19.44 0-1.804-.455-7.15-.409-10.79.01-.87.14-2.015.166-2.24.906-1.573 2.982-2.966 4.843-3.876.34-.165.73-.316 1.106-.445Z"/><path d="M448.417 49.756c0 2.048-.512 1.536 1.537 1.536" style="fill:#fff" transform="scale(.48)"/><path d="M446.881 43.61c11.369 22.738 4.609 56.419 4.609 81.43 0 4.832-4.609 33.576-4.609 21.509" style="fill:#fff" transform="scale(.48)"/><path d="M542.341 604.803c.667-39.441-3.789-200.664-3.276-217.039 1.678-53.492-1.536-164.353-1.536-187.441V42.074c0-2.012-50.153-12.84-82.966 3.073-7.13 3.457-6.146 121.501-6.146 135.203 0 105.639.419 387.722 1.537 405.609 1.733 27.735 25.777 34.246 46.647 32.725 30.655-2.233 45.74-13.881 45.74-13.881Z" style="fill:#fff" transform="scale(.48)"/><path d="M262.48 293.098a3.528 3.528 0 0 0 1.371-2.733c.32-18.923-1.82-96.272-1.573-104.128.806-25.707-.736-78.986-.736-90.082v-75.96c0-.578-.315-2.729-3.007-3.713-4.326-1.58-26.712-5.344-41.884 2.014-.636.308-1.392.886-1.971 1.98-.603 1.14-1.225 3.822-1.62 7.582-1.641 15.664-1.348 53.215-1.348 58.51 0 50.764.208 186.317.745 194.913.984 15.741 14.322 19.87 26.168 19.006 16.016-1.167 23.855-7.39 23.855-7.39ZM254.486 22.64v73.514c0 11.068 1.543 64.216.74 89.861-.24 7.625 1.763 80.65 1.593 102.345-2.563 1.462-8.78 4.366-18.707 5.089-8.193.597-17.933-1.521-18.613-12.41-.536-8.576-.73-143.822-.73-194.472 0-5.228-.312-42.308 1.31-57.775.182-1.75.528-3.542.713-4.435 11.756-5.128 27.822-3.15 33.694-1.717Z"/><path d="M202.27 287.787c.893 5.105 4.6 9.68 9.012 14.017 1.392 1.368 4.016 2.733 7.268 3.853 6.811 2.347 16.49 3.872 21.179 3.726 9.292-.291 22.892-4.995 29.028-10.352 4.94-4.313 5.04-11.588 5.04-11.588a2.665 2.665 0 0 0-2.645-2.683 2.665 2.665 0 0 0-2.683 2.645s.014 4.792-3.216 7.612c-5.423 4.734-17.48 8.783-25.691 9.04-3.662.115-10.656-.93-16.49-2.571-3.544-.997-6.672-2.122-8.056-3.482-3.553-3.493-6.779-7.023-7.499-11.135a2.665 2.665 0 0 0-5.248.919Z"/></svg>