<?xml version="1.0" encoding="UTF-8" standalone="no"?>
<!DOCTYPE svg PUBLIC "-//W3C//DTD SVG 1.1//EN" "http://www.w3.org/Graphics/SVG/1.1/DTD/svg11.dtd">
<svg width="100%" height="100%" viewBox="0 0 492 492" version="1.1" xmlns="http://www.w3.org/2000/svg" xmlns:xlink="http://www.w3.org/1999/xlink" xml:space="preserve" xmlns:serif="http://www.serif.com/" style="fill-rule:evenodd;clip-rule:evenodd;stroke-linecap:round;stroke-linejoin:round;stroke-miterlimit:1.5;">
    <g transform="matrix(0.48,0,0,0.48,0,0)">
        <g>
            <path d="M864.97,339.609C897.982,365.337 890.538,661.169 861.522,694.734C839.061,720.716 198.161,702.436 165.064,694.734C126.237,685.699 150.463,356.89 171.96,336.162C205.972,303.364 835.985,317.02 864.97,339.609Z" style="fill:white;stroke:black;stroke-width:7.45px;"/>
            <path d="M309.872,175.838C318.289,142.696 722.007,159.011 727.057,170.667C739.629,199.683 718.625,390.001 720.162,430.976C720.494,439.829 620.385,427.985 516.751,430.274C419.897,432.413 319.089,449.732 318.491,429.252C317.493,395.073 302.136,206.3 309.872,175.838Z" style="fill:white;stroke:black;stroke-width:7.45px;"/>
            <path d="M234.02,699.906C234.02,684.013 227.889,547.437 234.02,541.306C243.238,532.088 318.137,546.832 325.387,539.582C329.79,535.179 611.953,539.582 640.862,539.582C651.673,539.582 764.297,534.06 797.737,548.202C805.746,551.589 799.297,627.829 796.013,634.397C790.327,645.769 796.013,678.165 796.013,687.838C796.013,694.159 796.013,713.122 796.013,706.801" style="fill:white;"/>
            <path d="M322.795,536.806C322.701,536.846 322.146,537.075 321.739,537.178C320.671,537.448 319.323,537.616 317.748,537.724C309.285,538.305 295.071,537.04 280.738,535.918C265.908,534.756 250.954,533.754 241.706,534.847C236.694,535.439 233.115,536.837 231.333,538.619C230.673,539.28 229.848,540.677 229.339,542.926C228.647,545.984 228.156,551.406 227.869,558.475C226.298,597.128 230.22,687.178 230.22,699.906C230.22,702.003 231.923,703.706 234.02,703.706C236.117,703.706 237.82,702.003 237.82,699.906C237.82,687.206 233.895,597.353 235.463,558.784C235.752,551.677 236.823,544.974 237.029,543.737C237.601,543.364 238.459,543.153 239.483,542.915C241.401,542.469 243.799,542.213 246.551,542.079C255.471,541.643 267.851,542.532 280.145,543.495C294.909,544.651 309.551,545.905 318.269,545.306C322.388,545.023 325.425,544.123 327.172,542.986C328.984,542.85 341.91,541.919 357.169,541.691C432.567,540.564 617.739,543.382 640.862,543.382C648.411,543.382 705.726,540.675 750.878,543.894C769.419,545.216 785.872,547.485 795.71,551.476C795.864,551.838 796.178,552.608 796.344,553.26C797.157,556.455 797.563,561.357 797.719,567.175C798.165,583.788 796.429,607.55 794.569,621.872C793.846,627.44 793.233,631.46 792.615,632.698C790.14,637.647 789.462,646.234 789.759,655.457C790.167,668.125 792.213,682.056 792.213,687.838L792.213,707.863C792.213,708.109 792.256,708.362 792.335,708.618C792.78,711.659 794.396,712.387 796.013,711.991C797.63,712.387 799.247,711.658 799.692,708.618C799.771,708.362 799.813,708.109 799.813,707.863L799.813,687.838C799.813,682.013 797.766,667.976 797.355,655.213C797.106,647.482 797.338,640.245 799.412,636.097C800.268,634.384 801.467,628.339 802.454,620.049C804.605,601.992 806.39,572.657 804.726,557.424C804.245,553.017 803.403,549.656 802.362,547.748C801.476,546.123 800.337,545.176 799.217,544.702C788.922,540.348 771.326,537.732 751.418,536.313C706.045,533.078 648.448,535.782 640.862,535.782C614.827,535.782 383.529,532.219 334.317,534.717C329.543,534.96 326.344,535.301 325.007,535.656C323.865,535.958 323.175,536.45 322.795,536.806Z"/>
            <path d="M304.7,627.502C304.7,626.195 306.424,640.808 306.424,648.188C306.424,663.181 315.044,683.887 315.044,703.353C315.044,753.572 308.148,810.086 308.148,856.781C308.148,857.491 307.692,861.497 308.148,861.953C315.034,868.839 387.598,863.677 404.687,863.677L654.653,863.677C682.579,863.677 700.791,861.953 728.781,861.953C729.356,861.953 730.099,862.359 730.505,861.953C739.681,852.777 723.609,757.074 723.609,746.451C723.609,730.702 725.544,624.265 723.609,622.33C714.619,613.339 628.247,615.434 613.279,615.434C561.684,615.434 425.452,606.789 384,620.606C371.984,624.611 316.914,613.564 311.596,618.882C310.863,619.615 301.294,625.778 301.252,625.778" style="fill:white;"/>
            <path d="M299.319,622.508C298.202,623.169 297.452,624.387 297.452,625.778C297.452,627.845 299.107,629.53 301.164,629.575C301.565,633.117 302.624,642.985 302.624,648.188C302.624,663.181 311.244,683.887 311.244,703.353C311.244,753.572 304.348,810.086 304.348,856.781C304.348,857.392 304.063,860.274 304.188,861.653C304.33,863.21 305.018,864.196 305.461,864.64C306.168,865.347 307.238,866.049 308.709,866.613C310.936,867.468 314.424,868.13 318.824,868.559C341.57,870.772 390.957,867.477 404.687,867.477L654.653,867.477C682.579,867.477 700.791,865.753 728.781,865.753C728.678,865.753 728.458,865.73 728.458,865.73C728.458,865.73 732.034,865.798 733.192,864.64C734.385,863.447 735.47,861.325 736.116,858.288C737.204,853.169 737.351,844.781 736.858,834.778C735.283,802.892 727.409,753.871 727.409,746.451C727.409,732.251 728.972,644.458 727.873,625.629C727.75,623.52 727.545,622.104 727.365,621.494C727.077,620.518 726.609,619.956 726.296,619.643C725.185,618.532 723.275,617.428 720.591,616.55C715.841,614.996 708.155,613.86 698.96,613.089C669.43,610.612 623.796,611.634 613.279,611.634C561.412,611.634 424.468,603.111 382.798,617.001C380.548,617.751 376.599,617.806 371.729,617.631C359.015,617.176 340.656,614.692 327.546,613.874C321.502,613.497 316.496,613.499 313.448,614.091C311.264,614.515 309.768,615.336 308.909,616.195C308.295,616.809 300.977,621.458 299.499,622.394L299.319,622.508ZM720.133,624.464C719.247,623.997 717.938,623.639 716.343,623.23C711.922,622.096 705.635,621.275 698.325,620.662C669.014,618.203 623.718,619.234 613.279,619.234C561.955,619.234 426.436,610.466 385.202,624.211C382.405,625.143 377.511,625.443 371.457,625.226C358.686,624.769 340.243,622.281 327.073,621.459C322.521,621.175 318.639,621.082 315.936,621.395C315.173,621.483 314.154,621.757 314.01,621.796C313.127,622.482 310.56,624.217 308.156,625.811C308.291,626.105 308.406,626.453 308.483,626.86C308.772,628.391 310.224,641.319 310.224,648.188C310.224,663.181 318.844,683.887 318.844,703.353C318.844,753.572 311.948,810.086 311.948,856.781C311.948,857.097 311.879,858.551 311.823,859.657C312.444,859.866 313.178,860.048 314.011,860.217C317.622,860.95 322.824,861.356 328.937,861.564C353.667,862.407 392.745,859.877 404.687,859.877L654.653,859.877C682.419,859.877 700.583,858.172 728.303,858.154C728.611,857.214 728.841,856.051 729.023,854.699C729.668,849.924 729.659,843.087 729.267,835.153C727.686,803.132 719.809,753.903 719.809,746.451C719.809,733.859 721.048,663.261 720.553,634.535C720.476,630.052 720.242,626.11 720.133,624.464ZM307.299,630.272C307.862,629.81 308.5,628.971 308.5,627.502C308.5,628.594 308.038,629.579 307.299,630.272Z"/>
            <path d="M370.209,663.704C400.833,663.704 433.789,661.98 465.023,661.98C476.906,661.98 510.627,667.151 506.397,667.151" style="fill:rgb(201,184,28);"/>
            <path d="M504.563,670.479C505.107,670.78 505.732,670.951 506.397,670.951C507.837,670.951 508.582,670.46 508.828,670.299C510.505,669.203 510.75,667.749 510.496,666.397C510.407,665.919 510.064,664.168 507.801,663.406C505.241,662.543 476.031,658.18 465.023,658.18C433.789,658.18 400.833,659.904 370.209,659.904C368.111,659.904 366.409,661.606 366.409,663.704C366.409,665.801 368.111,667.504 370.209,667.504C400.833,667.504 433.789,665.78 465.023,665.78C474.391,665.78 499.71,669.711 504.563,670.479Z"/>
            <g transform="matrix(1,0,0,1,3.44784,-8.61955)">
                <path d="M371.933,761.966C457.45,761.966 543.071,770.586 630.518,770.586C640.985,770.586 642.586,772.72 642.586,770.586" style="fill:rgb(201,184,28);"/>
                <path d="M640.374,767.498C638.517,767.218 634.928,766.786 630.518,766.786C543.071,766.786 457.45,758.166 371.933,758.166C369.835,758.166 368.133,759.869 368.133,761.966C368.133,764.064 369.835,765.766 371.933,765.766C457.45,765.766 543.071,774.386 630.518,774.386C635.34,774.386 638.16,774.868 639.782,775.124C640.959,775.309 641.768,775.361 642.308,775.311C643.578,775.193 644.425,774.693 645.064,774.059C645.742,773.386 646.386,772.371 646.386,770.586C646.386,768.489 644.683,766.786 642.586,766.786C641.76,766.786 640.996,767.049 640.374,767.498Z"/>
            </g>
            <g transform="matrix(1,0,0,1,1.72396,-53.4411)">
                <path d="M371.933,761.966C457.45,761.966 543.071,770.586 630.518,770.586C640.985,770.586 642.586,772.72 642.586,770.586" style="fill:rgb(201,184,28);"/>
                <path d="M640.374,767.498C638.517,767.218 634.928,766.786 630.518,766.786C543.071,766.786 457.45,758.166 371.933,758.166C369.835,758.166 368.133,759.869 368.133,761.966C368.133,764.064 369.835,765.766 371.933,765.766C457.45,765.766 543.071,774.386 630.518,774.386C635.34,774.386 638.16,774.868 639.782,775.124C640.959,775.309 641.768,775.361 642.308,775.311C643.578,775.193 644.425,774.693 645.064,774.059C645.742,773.386 646.386,772.371 646.386,770.586C646.386,768.489 644.683,766.786 642.586,766.786C641.76,766.786 640.996,767.049 640.374,767.498Z"/>
            </g>
            <path d="M376.275,816.497C377.765,817.852 380.076,817.81 381.515,816.37C382.998,814.887 382.998,812.479 381.515,810.996C381.4,810.881 381.129,810.671 380.76,810.401C384.42,810.096 389.155,809.945 394.734,809.91C445.53,809.596 564.268,819.207 585.697,819.207C595.675,819.207 616.032,820.282 629.054,820.4C635.212,820.456 639.877,820.204 641.523,819.696C643.557,819.069 644.305,817.742 644.584,816.901C644.991,815.672 645.003,814.175 643.549,812.72C642.145,811.317 639.912,811.242 638.421,812.496C636.748,812.61 632.897,812.835 629.123,812.8C616.08,812.682 595.691,811.607 585.697,811.607C564.262,811.607 445.495,801.996 394.687,802.31C385.468,802.367 378.409,802.769 374.424,803.565C371.734,804.103 370.042,805.029 369.246,805.825C368.125,806.946 367.415,808.608 368.693,810.739C369.025,811.294 369.996,812.301 371.396,813.284C372.985,814.399 376.06,816.36 376.275,816.497ZM637.277,816.67C637.423,817.142 637.702,817.622 638.175,818.094C637.759,817.679 637.46,817.19 637.277,816.67Z"/>
        </g>
    </g>
</svg>
