<svg viewBox="0 0 246 246" xmlns="http://www.w3.org/2000/svg" xml:space="preserve" style="fill-rule:evenodd;clip-rule:evenodd;stroke-linejoin:round;stroke-miterlimit:2"><path d="M207.593 81.506c7.923 6.175 6.136 77.174-.828 85.23-5.39 6.236-159.206 1.849-167.15 0-9.318-2.168-3.504-81.082 1.655-86.057 8.163-7.872 159.366-4.594 166.323.827Z" style="fill:#fff"/><path d="M208.142 80.801c-.349-.272-.993-.563-1.926-.826-1.848-.52-4.986-1.021-9.139-1.483-23.386-2.604-79.428-4.141-117.622-3.024-14.369.421-26.219 1.219-32.879 2.472-3.092.581-5.127 1.325-5.926 2.096-.387.373-.805 1.081-1.194 2.11-.775 2.049-1.55 5.514-2.259 9.911-2.329 14.446-4.017 39.081-3.201 56.117.355 7.426 1.206 13.429 2.646 16.592.754 1.655 1.726 2.597 2.771 2.84 6.365 1.482 106.243 4.608 148.704 2.595 7.489-.356 13.206-.875 16.336-1.583 1.6-.362 2.599-.847 2.988-1.297 1.518-1.756 2.867-6.373 3.867-12.664 2.258-14.195 3.039-37.094 1.807-53.607-.456-6.116-1.192-11.362-2.222-14.986-.749-2.631-1.703-4.446-2.751-5.263Zm-1.099 1.41c.854.665 1.521 2.199 2.131 4.342 1.006 3.538 1.714 8.66 2.159 14.63 1.223 16.386.45 39.108-1.79 53.194-.569 3.575-1.23 6.587-1.981 8.783-.462 1.352-.942 2.378-1.473 2.992-.095.11-.285.188-.533.287-.386.155-.888.298-1.498.436-3.07.695-8.679 1.192-16.026 1.541-42.321 2.007-141.87-1.074-148.214-2.55-.374-.087-.684-.393-.987-.828-.412-.591-.771-1.406-1.093-2.411-1.048-3.263-1.663-8.398-1.957-14.538-.811-16.924.867-41.397 3.181-55.747.588-3.649 1.215-6.637 1.856-8.665.37-1.173.702-1.998 1.073-2.355.231-.223.617-.418 1.129-.618.938-.367 2.248-.7 3.886-1.008 6.604-1.242 18.354-2.025 32.601-2.441 38.113-1.115 94.036.415 117.372 3.013 3.459.385 6.194.792 8.036 1.22 1.063.246 1.796.464 2.128.723Z"/><path d="M74.369 42.201c2.02-7.954 98.913-4.038 100.125-1.241 3.017 6.964-2.024 52.64-1.655 62.474.079 2.125-23.946-.718-48.819-.168-23.245.513-47.439 4.67-47.582-.245-.24-8.204-3.925-53.509-2.069-60.82Z" style="fill:#fff"/><path d="M73.503 41.981c-.566 2.23-.645 7.935-.444 15.056.462 16.345 2.318 40.267 2.486 46.01.026.893.515 1.633 1.525 2.164 1.077.566 2.882.9 5.271 1.02 8.64.432 25.402-1.712 41.699-2.072 19.91-.44 39.279 1.291 46.189.913 1.41-.077 2.366-.277 2.812-.531.534-.305.706-.725.691-1.14-.258-6.876 2.135-31.293 2.558-47.711.187-7.227-.048-12.942-.976-15.085-.089-.205-.31-.49-.78-.699-.755-.335-2.695-.703-5.548-1.038-13.618-1.603-48.919-2.987-72.371-1.864-8.886.426-16.087 1.223-19.819 2.482-1.078.363-1.89.776-2.418 1.213-.482.399-.762.837-.875 1.282Zm100.255-.455c.805 2.182.917 7.481.746 14.118-.416 16.13-2.723 39.966-2.57 47.393-.353.075-1.08.211-1.803.251-6.901.377-26.245-1.355-46.13-.916-16.247.359-32.957 2.504-41.571 2.074-1.736-.087-3.125-.273-4.082-.622-.305-.112-.558-.236-.75-.388-.156-.124-.262-.262-.267-.441-.168-5.743-2.024-29.664-2.486-46.008-.194-6.889-.157-12.409.39-14.566.047-.185.232-.323.468-.484.404-.274.966-.522 1.664-.758 3.64-1.228 10.667-1.975 19.334-2.39 23.356-1.118 58.514.257 72.076 1.853 1.794.212 3.203.425 4.146.639.337.076.673.188.835.245Z"/><path d="M56.165 167.977c0-3.814-1.472-36.592 0-38.063 2.212-2.213 20.188 1.326 21.928-.414 1.057-1.057 68.776 0 75.714 0 2.594 0 29.624-1.326 37.65 2.068 1.922.813.374 19.111-.414 20.687-1.364 2.73 0 10.505 0 12.826v4.551" style="fill:#fff"/><path d="M77.471 128.833c-.023.01-.156.065-.254.09a5.703 5.703 0 0 1-.957.131c-2.032.139-5.443-.164-8.883-.434-3.559-.278-7.148-.519-9.368-.257-1.202.142-2.061.478-2.489.906-.158.158-.357.494-.479 1.033-.166.734-.283 2.035-.352 3.732-.378 9.277.564 30.889.564 33.943a.912.912 0 1 0 1.824 0c0-3.048-.942-24.612-.566-33.869.069-1.706.326-3.314.376-3.611.137-.09.343-.14.589-.197.46-.107 1.036-.169 1.696-.201 2.141-.105 5.112.109 8.063.34 3.543.277 7.057.578 9.149.435.989-.068 1.718-.284 2.137-.557.435-.033 3.537-.256 7.2-.311 18.095-.271 62.536.406 68.086.406 1.812 0 15.567-.65 26.404.123 4.45.317 8.398.861 10.759 1.819.037.087.113.272.153.428.195.767.292 1.944.33 3.34.107 3.987-.31 9.69-.756 13.127-.174 1.337-.321 2.301-.47 2.598-.593 1.188-.756 3.249-.685 5.463.098 3.04.589 6.383.589 7.771v4.806c0 .059.01.12.029.181.107.73.495.905.883.81.388.095.776-.08.883-.81a.61.61 0 0 0 .029-.181v-4.806c0-1.398-.491-4.767-.59-7.83-.06-1.855-.004-3.592.494-4.588.205-.411.493-1.862.73-3.851.516-4.334.945-11.374.545-15.03-.115-1.058-.317-1.865-.567-2.323-.213-.389-.486-.617-.755-.731-2.471-1.044-6.694-1.672-11.472-2.013-10.889-.776-24.713-.127-26.533-.127-6.248 0-61.76-.855-73.571-.256-1.146.058-1.914.14-2.234.225-.274.073-.44.191-.531.276Z"/><path d="M73.128 150.6c0-.313.414 3.194.414 4.965 0 3.599 2.068 8.568 2.068 13.24 0 12.052-1.654 25.616-1.654 36.822 0 .171-.11 1.132 0 1.242 1.652 1.652 19.068.413 23.169.413h59.992c6.702 0 11.073-.413 17.79-.413.138 0 .317.097.414 0 2.202-2.203-1.655-25.171-1.655-27.721 0-3.78.465-29.324 0-29.789-2.157-2.158-22.887-1.655-26.479-1.655-12.383 0-45.079-2.075-55.027 1.241-2.884.962-16.101-1.69-17.377-.413-.176.176-2.473 1.655-2.482 1.655" style="fill:#fff"/><path d="M71.836 149.402a.911.911 0 0 0 .443 1.696c.097.85.351 3.218.351 4.467 0 3.599 2.068 8.568 2.068 13.24 0 12.052-1.654 25.616-1.654 36.822 0 .147-.069.839-.039 1.17.034.373.199.61.306.717.169.169.426.338.779.473.535.205 1.372.364 2.428.467 5.459.531 17.312-.26 20.607-.26h59.992c6.702 0 11.073-.413 17.79-.413a1.01 1.01 0 0 1-.077-.006s.858.017 1.136-.261c.286-.287.547-.796.702-1.525.261-1.228.296-3.242.178-5.642-.378-7.653-2.268-19.418-2.268-21.199 0-3.408.375-24.478.112-28.997-.03-.506-.079-.846-.122-.992a1.01 1.01 0 0 0-.257-.445c-.267-.266-.725-.531-1.369-.742-1.14-.373-2.985-.646-5.192-.831-7.087-.594-18.039-.349-20.563-.349-12.448 0-45.315-2.045-55.315 1.288-.54.18-1.488.193-2.657.152-3.051-.11-7.457-.706-10.604-.902-1.451-.091-2.652-.09-3.383.052-.525.102-.884.299-1.09.505-.147.147-1.904 1.263-2.258 1.488l-.044.027Zm100.996.469c-.213-.112-.527-.198-.91-.296-1.061-.272-2.57-.469-4.324-.616-7.035-.59-17.906-.343-20.411-.343-12.318 0-44.842-2.104-54.739 1.195-.671.223-1.845.295-3.298.243-3.065-.109-7.492-.707-10.653-.904-1.092-.068-2.024-.09-2.672-.015-.183.021-.428.087-.463.096-.211.165-.828.581-1.405.964.033.07.06.154.079.251.069.368.418 3.47.418 5.119 0 3.599 2.068 8.568 2.068 13.24 0 12.052-1.654 25.616-1.654 36.822 0 .076-.017.425-.03.691.148.05.325.094.525.134.866.176 2.115.273 3.582.323 5.935.203 15.314-.405 18.18-.405h59.992c6.664 0 11.023-.409 17.676-.413a4.82 4.82 0 0 0 .173-.829c.154-1.146.152-2.787.058-4.691-.379-7.685-2.27-19.5-2.27-21.289 0-3.022.297-19.965.179-26.86a52.692 52.692 0 0 0-.101-2.417Zm-99.08 1.394c.135-.111.288-.312.288-.665a.908.908 0 0 1-.288.665Z"/><path d="M88.85 159.289c7.35 0 15.259-.414 22.756-.414 2.851 0 10.944 1.241 9.929 1.241" style="fill:#c9b81c"/><path d="M121.095 160.915a.911.911 0 0 0 .44.113c.346 0 .525-.118.584-.156.402-.263.461-.612.4-.937-.021-.114-.104-.535-.647-.718-.614-.207-7.624-1.254-10.266-1.254-7.497 0-15.406.414-22.756.414a.913.913 0 0 0 0 1.824c7.35 0 15.259-.414 22.756-.414 2.248 0 8.324.944 9.489 1.128Z"/><path d="M90.091 180.803c20.524 0 41.074 2.069 62.061 2.069 2.512 0 2.896.512 2.896 0" style="fill:#c9b81c"/><path d="M154.517 182.131a16.28 16.28 0 0 0-2.365-.171c-20.987 0-41.537-2.069-62.061-2.069a.913.913 0 0 0 0 1.824c20.524 0 41.074 2.069 62.061 2.069 1.157 0 1.834.116 2.223.177.283.044.477.057.606.045.305-.028.508-.148.662-.301.163-.161.317-.405.317-.833a.913.913 0 0 0-1.443-.741Z"/><path d="M89.678 170.046c20.524 0 41.073 2.069 62.06 2.069 2.512 0 2.896.512 2.896 0" style="fill:#c9b81c"/><path d="M154.103 171.374a16.268 16.268 0 0 0-2.365-.171c-20.987 0-41.536-2.069-62.06-2.069a.912.912 0 0 0 0 1.824c20.524 0 41.073 2.069 62.06 2.069 1.157 0 1.834.116 2.224.177.282.044.476.057.606.045a1.03 1.03 0 0 0 .661-.301c.163-.161.317-.405.317-.833a.912.912 0 0 0-1.443-.741ZM90.306 195.959a.912.912 0 0 0 1.258-1.32 2.166 2.166 0 0 0-.182-.143c.879-.073 2.015-.109 3.354-.118 12.191-.075 40.688 2.232 45.831 2.232 2.395 0 7.281.258 10.406.286 1.478.013 2.598-.047 2.993-.169.488-.15.667-.469.734-.671.098-.295.101-.654-.248-1.003a.913.913 0 0 0-1.231-.054c-.401.027-1.326.081-2.232.073-3.13-.028-8.023-.286-10.422-.286-5.144 0-33.648-2.307-45.842-2.232-2.213.014-3.907.111-4.863.302-.646.129-1.052.351-1.243.542-.269.269-.439.668-.133 1.179.08.134.313.375.649.611.381.268 1.119.738 1.171.771Zm62.641.042Z"/></svg>