<svg viewBox="0 0 492 492" xmlns="http://www.w3.org/2000/svg" xml:space="preserve" style="fill-rule:evenodd;clip-rule:evenodd;stroke-linecap:round;stroke-linejoin:round;stroke-miterlimit:1.5"><path d="M864.97 339.609c33.012 25.728 25.568 321.56-3.448 355.125-22.461 25.982-663.361 7.702-696.458 0-38.827-9.035-14.601-337.844 6.896-358.572 34.012-32.798 664.025-19.142 693.01 3.447Z" style="fill:#fff;stroke:#000;stroke-width:7.45px" transform="scale(.48)"/><path d="M309.872 175.838c8.417-33.142 412.135-16.827 417.185-5.171 12.572 29.016-8.432 219.334-6.895 260.309.332 8.853-99.777-2.991-203.411-.702-96.854 2.139-197.662 19.458-198.26-1.022-.998-34.179-16.355-222.952-8.619-253.414Z" style="fill:#fff;stroke:#000;stroke-width:7.45px" transform="scale(.48)"/><path d="M234.02 699.906c0-15.893-6.131-152.469 0-158.6 9.218-9.218 84.117 5.526 91.367-1.724 4.403-4.403 286.566 0 315.475 0 10.811 0 123.435-5.522 156.875 8.62 8.009 3.387 1.56 79.627-1.724 86.195-5.686 11.372 0 43.768 0 53.441v18.963" style="fill:#fff" transform="scale(.48)"/><path d="M154.942 257.667c-.046.02-.312.129-.507.178-.513.13-1.16.21-1.916.263-4.062.278-10.885-.329-17.765-.867-7.118-.558-14.296-1.04-18.735-.514-2.406.284-4.124.955-4.98 1.81-.316.317-.712.988-.956 2.067-.332 1.468-.568 4.07-.706 7.464-.754 18.553 1.129 61.777 1.129 67.887a1.825 1.825 0 0 0 3.648 0c0-6.096-1.884-49.226-1.132-67.739.139-3.411.653-6.628.752-7.222.274-.18.686-.28 1.178-.395.92-.214 2.072-.337 3.392-.401 4.282-.21 10.224.217 16.126.68 7.086.554 14.114 1.156 18.3.869 1.976-.136 3.434-.568 4.273-1.114.87-.065 7.074-.512 14.398-.621 36.191-.541 125.074.811 136.173.811 3.623 0 31.134-1.299 52.807.246 8.9.635 16.798 1.724 21.52 3.64.074.173.224.543.304.856.39 1.533.585 3.886.66 6.679.214 7.974-.62 19.38-1.512 26.255-.347 2.672-.641 4.602-.938 5.196-1.188 2.376-1.513 6.497-1.37 10.924.195 6.081 1.177 12.768 1.177 15.543v9.612c0 .118.02.24.059.363.213 1.46.99 1.809 1.765 1.619.776.19 1.553-.16 1.766-1.62a1.23 1.23 0 0 0 .058-.362v-9.612c0-2.796-.982-9.534-1.18-15.66-.12-3.71-.008-7.184.988-9.175.41-.823.986-3.724 1.46-7.703 1.032-8.668 1.89-22.749 1.09-30.06-.23-2.116-.635-3.73-1.134-4.645-.426-.78-.972-1.235-1.51-1.462-4.941-2.09-13.388-3.346-22.943-4.027-21.78-1.553-49.426-.255-53.067-.255-12.497 0-123.52-1.71-147.142-.51-2.291.116-3.827.28-4.469.45-.548.145-.879.381-1.061.552Z"/><path d="M304.7 627.502c0-1.307 1.724 13.306 1.724 20.686 0 14.993 8.62 35.699 8.62 55.165 0 50.219-6.896 106.733-6.896 153.428 0 .71-.456 4.716 0 5.172 6.886 6.886 79.45 1.724 96.539 1.724h249.966c27.926 0 46.138-1.724 74.128-1.724.575 0 1.318.406 1.724 0 9.176-9.176-6.896-104.879-6.896-115.502 0-15.749 1.935-122.186 0-124.121-8.99-8.991-95.362-6.896-110.33-6.896-51.595 0-187.827-8.645-229.279 5.172-12.016 4.005-67.086-7.042-72.404-1.724-.733.733-10.302 6.896-10.344 6.896" style="fill:#fff" transform="scale(.48)"/><path d="M143.673 298.804a1.823 1.823 0 0 0 .886 3.392c.192 1.7.7 6.437.7 8.934 0 7.197 4.138 17.136 4.138 26.48 0 24.105-3.31 51.231-3.31 73.645 0 .293-.137 1.677-.077 2.338.068.748.399 1.221.611 1.434.34.34.853.677 1.56.947 1.068.41 2.743.728 4.855.934 10.918 1.063 34.623-.519 41.214-.519h119.983c13.405 0 22.147-.828 35.582-.828-.05 0-.155-.01-.155-.01s1.716.032 2.272-.524c.573-.572 1.094-1.591 1.404-3.049.522-2.457.592-6.483.356-11.285-.756-15.305-4.536-38.835-4.536-42.397 0-6.816.75-48.956.223-57.994-.059-1.012-.157-1.692-.244-1.985a2.024 2.024 0 0 0-.513-.888c-.533-.534-1.45-1.064-2.738-1.485-2.28-.746-5.97-1.291-10.383-1.661-14.175-1.19-36.079-.699-41.127-.699-24.896 0-90.63-4.09-110.631 2.576-1.08.36-2.975.387-5.313.303-6.103-.219-14.915-1.41-21.208-1.803-2.901-.181-5.304-.18-6.767.104-1.048.203-1.766.597-2.179 1.01-.294.294-3.807 2.526-4.516 2.975l-.087.055Zm201.99.939c-.424-.224-1.053-.396-1.818-.593-2.122-.544-5.14-.938-8.649-1.232-14.07-1.18-35.811-.686-40.822-.686-24.636 0-89.685-4.208-109.477 2.39-1.343.447-3.692.59-6.598.486-6.13-.219-14.982-1.413-21.304-1.808-2.185-.136-4.048-.18-5.346-.03a7.49 7.49 0 0 0-.924.192c-.424.33-1.656 1.162-2.81 1.927.065.141.12.308.157.504.139.735.836 6.94.836 10.237 0 7.197 4.137 17.136 4.137 26.48 0 24.105-3.31 51.231-3.31 73.645 0 .152-.033.85-.06 1.38.298.1.65.188 1.05.27 1.734.351 4.23.546 7.165.646 11.87.404 30.628-.81 36.36-.81h119.983c13.328 0 22.047-.818 35.352-.827.148-.451.259-1.01.346-1.658.31-2.292.305-5.574.117-9.383-.759-15.37-4.54-39-4.54-42.577 0-6.044.595-39.93.357-53.72-.037-2.151-.149-4.043-.201-4.833Zm-198.16 2.788c.27-.222.577-.625.577-1.33 0 .524-.222.997-.576 1.33Z"/><path d="M370.209 663.704c30.624 0 63.58-1.724 94.814-1.724 11.883 0 45.604 5.171 41.374 5.171" style="fill:#c9b81c" transform="scale(.48)"/><path d="M242.19 321.83c.261.144.561.226.88.226.692 0 1.05-.235 1.167-.312.805-.527.923-1.224.801-1.873-.043-.23-.207-1.07-1.294-1.436-1.228-.414-15.25-2.509-20.533-2.509-14.992 0-30.811.828-45.51.828a1.824 1.824 0 0 0 0 3.648c14.699 0 30.518-.828 45.51-.828 4.497 0 16.65 1.887 18.98 2.256Z"/><path d="M371.933 761.966c85.517 0 171.138 8.62 258.585 8.62 10.467 0 12.068 2.134 12.068 0" style="fill:#c9b81c" transform="matrix(.48 0 0 .48 1.655 -4.137)"/><path d="M309.034 364.262a32.533 32.533 0 0 0-4.73-.342c-41.975 0-83.073-4.138-124.121-4.138a1.825 1.825 0 0 0 0 3.648c41.048 0 82.146 4.138 124.12 4.138 2.315 0 3.669.231 4.447.354.565.089.954.114 1.213.09.61-.057 1.016-.297 1.323-.601.325-.323.634-.81.634-1.667a1.825 1.825 0 0 0-2.886-1.482Z"/><path d="M371.933 761.966c85.517 0 171.138 8.62 258.585 8.62 10.467 0 12.068 2.134 12.068 0" style="fill:#c9b81c" transform="matrix(.48 0 0 .48 .828 -25.652)"/><path d="M308.207 342.747a32.533 32.533 0 0 0-4.73-.341c-41.975 0-83.073-4.138-124.122-4.138a1.825 1.825 0 0 0 0 3.648c41.049 0 82.147 4.138 124.121 4.138 2.315 0 3.668.23 4.447.354.565.089.953.114 1.212.09.61-.057 1.017-.297 1.323-.601.326-.323.635-.81.635-1.667a1.825 1.825 0 0 0-2.886-1.483ZM180.612 391.919a1.824 1.824 0 0 0 2.515-2.64 3.95 3.95 0 0 0-.362-.287c1.757-.146 4.03-.218 6.707-.235 24.382-.15 81.377 4.462 91.663 4.462 4.789 0 14.56.516 20.81.573 2.957.027 5.196-.094 5.986-.338.976-.3 1.335-.938 1.47-1.342.195-.59.2-1.308-.497-2.006a1.825 1.825 0 0 0-2.462-.108c-.803.055-2.651.163-4.463.146-6.26-.057-16.047-.573-20.844-.573-10.29 0-67.297-4.613-91.685-4.462-4.425.027-7.814.22-9.726.602-1.292.258-2.104.703-2.486 1.085-.538.538-.879 1.336-.265 2.359.159.266.625.75 1.297 1.221a85.177 85.177 0 0 0 2.342 1.543Zm125.281.083c.07.226.204.457.431.683-.2-.2-.343-.434-.431-.683Z"/></svg>