<svg viewBox="0 0 246 246" xmlns="http://www.w3.org/2000/svg" xml:space="preserve" style="fill-rule:evenodd;clip-rule:evenodd;stroke-linejoin:round;stroke-miterlimit:2"><path d="M180.96 25.2c2.307-2.925 16.64-15.72 18.24-14.88 1.6.84-4.001 9.804-11.28 15.84-15.049 12.48-32.64 42.4-55.44 77.28-16.291 24.922-50.92 75.36-53.52 90.24-1.944 11.124 30.92 12.44 31.92 13.92 4.952 7.328-.96 11.52-.96 11.52-14.6-2.56-31.6-10.24-45.36-17.52-10.159-5.375-37.332-15.149-37.44-16.56 0 0 .985-5.329 11.52-6.72 4.24-.56 26.757 21.374 33.84 11.76 14.44-19.6 32.942-54.839 48.96-79.2 18.2-27.68 47.12-69.96 59.52-85.68Z" style="fill:#fff"/><path d="M179.701 24.207c-12.416 15.741-41.376 58.076-59.601 85.792-16.003 24.339-34.484 59.548-48.911 79.13-1.07 1.452-2.629 1.894-4.428 1.767-2.204-.156-4.72-1.108-7.318-2.399-5.858-2.912-12.054-7.571-16.114-9.986-1.158-.689-2.163-1.206-2.961-1.492-.783-.28-1.442-.354-1.938-.288-11.989 1.583-12.887 8.018-12.887 8.018a1.633 1.633 0 0 0-.022.413c.025.317.149.794.644 1.258.408.381 1.543 1.037 3.241 1.823 7.32 3.389 26.296 10.484 34.404 14.774 13.902 7.355 31.083 15.096 45.833 17.682.422.074.855-.024 1.204-.271 0 0 2.623-1.837 3.398-5.252.494-2.178.283-5.041-2.037-8.474-.147-.217-.413-.499-.885-.717-.338-.156-.931-.331-1.741-.498-3.659-.754-12.773-1.735-20.025-4.055-2.833-.906-5.375-2.004-7.106-3.417-1.369-1.117-2.198-2.423-1.912-4.059.762-4.361 4.38-11.831 9.446-20.833 12.084-21.475 32.448-51.383 43.837-68.806 22.686-34.705 40.148-64.505 55.121-76.923 6.12-5.075 11.046-12.17 11.937-15.236.513-1.769-.159-2.85-.935-3.257-.351-.185-.863-.307-1.531-.151-.536.125-1.366.518-2.372 1.166-4.676 3.013-14.449 11.893-16.341 14.291Zm17.214-10.986c-1.781 3.225-5.582 8.026-10.018 11.705-15.125 12.542-32.845 42.582-55.759 77.637-11.418 17.468-31.832 47.456-43.947 68.987-5.305 9.428-9.012 17.287-9.81 21.854-.402 2.297.314 4.28 1.86 5.981 1.948 2.145 5.374 3.833 9.339 5.101 8.109 2.594 18.525 3.537 21.185 4.338 1.452 2.283 1.687 4.169 1.353 5.642-.324 1.425-1.142 2.424-1.664 2.94-14.281-2.659-30.758-10.141-44.144-17.223-8.145-4.31-27.203-11.445-34.557-14.85a29.305 29.305 0 0 1-1.653-.837c.822-1.294 3.206-3.722 9.75-4.587.184-.024.418.113.733.245.597.251 1.306.636 2.107 1.113 4.111 2.446 10.393 7.152 16.326 10.101 3.017 1.5 5.959 2.545 8.518 2.726 2.965.21 5.473-.669 7.237-3.063 14.453-19.618 32.976-54.886 49.009-79.27 18.175-27.644 47.055-69.869 59.439-85.568 1.579-2.002 8.931-8.72 13.73-12.297.313-.234.643-.462.966-.675Z"/><path d="M50.418 186.452c10.978-1.761 22.707-2.067 31.493-8.214l2.004 1.039c.623 3.442 2.324 6.986 4.54 10.569 3.396 5.492 8.006 11.11 11.358 16.693a1.603 1.603 0 1 0 2.749-1.65c-3.359-5.595-7.977-11.226-11.38-16.729-2.135-3.452-3.792-6.838-4.218-10.138a1.6 1.6 0 0 0-.852-1.218l-3.606-1.869a1.603 1.603 0 0 0-1.707.146c-8.46 6.423-20.083 6.472-30.889 8.205a1.604 1.604 0 0 0 .508 3.166ZM25.523 184.904l-.96 11.28a1.603 1.603 0 0 0 3.194.272l.96-11.28a1.603 1.603 0 0 0-3.194-.272ZM31.067 188.072l-1.218 9.729a1.604 1.604 0 0 0 3.182.398l1.218-9.729a1.604 1.604 0 0 0-3.182-.398ZM35.765 189.918l-1.586 9.498a1.603 1.603 0 1 0 3.162.528l1.587-9.497a1.605 1.605 0 0 0-1.317-1.846 1.605 1.605 0 0 0-1.846 1.317ZM41.644 192.277l-1.47 10.051a1.603 1.603 0 0 0 3.172.464l1.471-10.051a1.604 1.604 0 0 0-3.173-.464ZM47.757 194.694l-1.582 10.507a1.603 1.603 0 1 0 3.17.478l1.583-10.507a1.604 1.604 0 0 0-3.171-.478ZM53.933 197.203l-1.756 10.861a1.605 1.605 0 0 0 1.327 1.839 1.605 1.605 0 0 0 1.839-1.327l1.755-10.861a1.603 1.603 0 1 0-3.165-.512ZM59.965 199.857l-1.788 11.088a1.604 1.604 0 0 0 3.166.51l1.787-11.088a1.604 1.604 0 0 0-1.327-1.838 1.604 1.604 0 0 0-1.838 1.328ZM66.025 202.922l-1.846 10.89a1.605 1.605 0 0 0 1.313 1.849 1.605 1.605 0 0 0 1.849-1.313l1.846-10.89a1.604 1.604 0 0 0-3.162-.536ZM72.19 205.97l-2.006 10.694a1.605 1.605 0 0 0 1.28 1.872 1.605 1.605 0 0 0 1.872-1.28l2.006-10.694a1.605 1.605 0 0 0-1.28-1.872 1.605 1.605 0 0 0-1.872 1.28ZM77.651 208.617l-1.48 11.009a1.604 1.604 0 0 0 3.178.428l1.48-11.01a1.604 1.604 0 0 0-3.178-.427ZM83.767 211.267l-1.355 9.793a1.604 1.604 0 0 0 3.176.44l1.355-9.793a1.604 1.604 0 0 0-3.176-.44ZM89.524 213.586l-1.118 10.159a1.605 1.605 0 0 0 1.419 1.769 1.605 1.605 0 0 0 1.769-1.419l1.117-10.159a1.604 1.604 0 0 0-3.187-.35ZM95.652 215.697l-1.243 9.944a1.604 1.604 0 0 0 3.182.398l1.243-9.945a1.603 1.603 0 0 0-3.182-.397ZM102.038 217.613l-.915 10.488a1.604 1.604 0 0 0 3.194.278l.915-10.488a1.604 1.604 0 0 0-3.194-.278ZM108.324 219.271c.147 1.558-.942 6.211-1.664 10.375a1.604 1.604 0 0 0 3.16.548c.779-4.499 1.855-9.542 1.696-11.225a1.604 1.604 0 0 0-3.192.302Z"/></svg>