<svg viewBox="0 0 492 492" xmlns="http://www.w3.org/2000/svg" xml:space="preserve" style="fill-rule:evenodd;clip-rule:evenodd;stroke-linecap:round;stroke-linejoin:round;stroke-miterlimit:1.5"><path d="M754 105c9.614-12.189 69.333-65.5 76-62 6.667 3.5-16.672 40.849-47 66-62.704 52-136 176.667-231 322-67.878 103.841-212.167 314-223 376-8.099 46.35 128.833 51.833 133 58 20.632 30.535-4 48-4 48-60.833-10.667-131.667-42.667-189-73-42.327-22.394-155.552-63.12-156-69 0 0 4.103-22.202 48-28 17.667-2.333 111.487 89.059 141 49 60.167-81.667 137.258-228.494 204-330 75.833-115.333 196.333-291.5 248-357Z" style="fill:#fff;stroke:#000;stroke-width:13.36px" transform="scale(.48)"/><path d="M209.017 770.289c46.108-7.396 95.583-8.057 131.685-35.464l15.024 7.787c4.711 36.493 42.589 75.715 65.89 114.531M113 771l-4 47M136.074 784.462 131 825M155.611 792.427 149 832" style="fill:none;stroke:#000;stroke-width:13.36px" transform="scale(.48)"/><path d="M155.127 790.12 149 832" style="fill:none;stroke:#000;stroke-width:13.36px" transform="matrix(.48 0 0 .48 12 5.76)"/><path d="M155.594 788.221 149 832" style="fill:none;stroke:#000;stroke-width:13.36px" transform="matrix(.48 0 0 .48 24 11.52)"/><path d="M156.315 786.745 149 832" style="fill:none;stroke:#000;stroke-width:13.36px" transform="matrix(.48 0 0 .48 36 17.28)"/><path d="M156.448 785.801 149 832" style="fill:none;stroke:#000;stroke-width:13.36px" transform="matrix(.48 0 0 .48 48 23.04)"/><path d="M156.692 786.625 149 832" style="fill:none;stroke:#000;stroke-width:13.36px" transform="matrix(.48 0 0 .48 60 28.8)"/><path d="M157.358 787.442 149 832" style="fill:none;stroke:#000;stroke-width:13.36px" transform="matrix(.48 0 0 .48 72 34.56)"/><path d="M155.165 786.129 149 832" style="fill:none;stroke:#000;stroke-width:13.36px" transform="matrix(.48 0 0 .48 84 40.32)"/><path d="M154.644 791.196 149 832" style="fill:none;stroke:#000;stroke-width:13.36px" transform="matrix(.48 0 0 .48 96.48 43.2)"/><path d="M153.656 789.671 149 832" style="fill:none;stroke:#000;stroke-width:13.36px" transform="matrix(.48 0 0 .48 108.48 48.48)"/><path d="M154.179 790.564 149 832" style="fill:none;stroke:#000;stroke-width:13.36px" transform="matrix(.48 0 0 .48 120.48 52.32)"/><path d="M152.813 788.3 149 832" style="fill:none;stroke:#000;stroke-width:13.36px" transform="matrix(.48 0 0 .48 133.92 57.12)"/><path d="M156 787c.639 6.75-3.873 26.952-7 45" style="fill:none;stroke:#000;stroke-width:13.36px" transform="matrix(.48 0 0 .48 144.96 60.48)"/></svg>