<svg viewBox="0 0 492 492" xmlns="http://www.w3.org/2000/svg" xml:space="preserve" style="fill-rule:evenodd;clip-rule:evenodd;stroke-linecap:round;stroke-linejoin:round;stroke-miterlimit:1.5"><path d="M375.642 304.585c0-35.736 7.787-162.334-27.95-162.334l-202.562-7.345c-35.736 0-23.824 181.221-23.824 216.958l24.286 695.676c0 35.74 27.949 153.23 63.685 153.23l143.741 7.56c35.736 0 20.814-103.89 20.814-139.63l1.81-764.115Z" style="fill:#fff;stroke:#000;stroke-width:28.74px" transform="rotate(-35.098 54.33 132.344) scale(.48)"/><path d="m91 172 25-22" style="fill:none;stroke:#000;stroke-width:12.14px" transform="matrix(.65664 -.04222 -.2344 .57648 23.055 -14.33)"/><path d="m91 172 25-22" style="fill:none;stroke:#000;stroke-width:12.14px" transform="matrix(.65664 -.04222 -.2344 .57648 32.655 -1.37)"/><path d="m91 172 25-22" style="fill:none;stroke:#000;stroke-width:12.14px" transform="matrix(.65664 -.04222 -.2344 .57648 42.255 11.59)"/><path d="m91 172 25-22" style="fill:none;stroke:#000;stroke-width:12.14px" transform="matrix(.65664 -.04222 -.2344 .57648 51.855 24.55)"/><path d="m91 172 25-22" style="fill:none;stroke:#000;stroke-width:12.01px" transform="matrix(1.02454 -.27651 -.55814 .78265 83.661 23.368)"/><path d="m91 172 25-22" style="fill:none;stroke:#000;stroke-width:12.14px" transform="matrix(.65664 -.04222 -.2344 .57648 71.055 50.47)"/><path d="m91 172 25-22" style="fill:none;stroke:#000;stroke-width:12.14px" transform="matrix(.65664 -.04222 -.2344 .57648 80.655 63.43)"/><path d="m91 172 25-22" style="fill:none;stroke:#000;stroke-width:12.14px" transform="matrix(.65664 -.04222 -.2344 .57648 90.255 76.39)"/><path d="m91 172 25-22" style="fill:none;stroke:#000;stroke-width:12.14px" transform="matrix(.65664 -.04222 -.2344 .57648 99.855 89.35)"/><path d="m91 172 25-22" style="fill:none;stroke:#000;stroke-width:12.05px" transform="matrix(.92715 -.2145 -.47245 .72807 125.783 91.911)"/><path d="m91 172 25-22" style="fill:none;stroke:#000;stroke-width:12.14px" transform="matrix(.65664 -.04222 -.2344 .57648 119.055 115.27)"/><path d="m91 172 25-22" style="fill:none;stroke:#000;stroke-width:12.14px" transform="matrix(.65664 -.04222 -.2344 .57648 128.655 128.23)"/><path d="m91 172 25-22" style="fill:none;stroke:#000;stroke-width:12.14px" transform="matrix(.65664 -.04222 -.2344 .57648 138.255 141.19)"/><path d="m91 172 25-22" style="fill:none;stroke:#000;stroke-width:12.14px" transform="matrix(.65664 -.04222 -.2344 .57648 147.855 154.15)"/><path d="m91 172 25-22" style="fill:none;stroke:#000;stroke-width:12.05px" transform="matrix(.92715 -.2145 -.47245 .72807 173.783 156.711)"/><path d="m91 172 25-22" style="fill:none;stroke:#000;stroke-width:12.14px" transform="matrix(.65664 -.04222 -.2344 .57648 167.055 180.07)"/><path d="m91 172 25-22" style="fill:none;stroke:#000;stroke-width:12.14px" transform="matrix(.65664 -.04222 -.2344 .57648 176.655 193.03)"/><path d="m91 172 25-22" style="fill:none;stroke:#000;stroke-width:12.14px" transform="matrix(.65664 -.04222 -.2344 .57648 186.255 205.99)"/><path d="m91 172 25-22" style="fill:none;stroke:#000;stroke-width:12.14px" transform="matrix(.65664 -.04222 -.2344 .57648 195.855 218.95)"/><path d="m91 172 25-22" style="fill:none;stroke:#000;stroke-width:12.06px" transform="matrix(.90552 -.20071 -.4534 .71594 220.477 222.343)"/><path d="m91 172 25-22" style="fill:none;stroke:#000;stroke-width:12.14px" transform="matrix(.65664 -.04222 -.2344 .57648 215.055 244.87)"/><path d="m91 172 25-22" style="fill:none;stroke:#000;stroke-width:12.14px" transform="matrix(.65664 -.04222 -.2344 .57648 224.655 257.83)"/><path d="m91 172 25-22" style="fill:none;stroke:#000;stroke-width:12.14px" transform="matrix(.65664 -.04222 -.2344 .57648 234.255 270.79)"/><path d="m91 172 25-22" style="fill:none;stroke:#000;stroke-width:12.14px" transform="matrix(.65664 -.04222 -.2344 .57648 243.855 283.75)"/><path d="m91 172 25-22" style="fill:none;stroke:#000;stroke-width:12.05px" transform="matrix(.93798 -.22139 -.48197 .73414 270.436 285.896)"/><path d="m91 172 25-22" style="fill:none;stroke:#000;stroke-width:12.14px" transform="matrix(.65664 -.04222 -.2344 .57648 263.055 309.67)"/><path d="m91 172 25-22" style="fill:none;stroke:#000;stroke-width:12.14px" transform="matrix(.65664 -.04222 -.2344 .57648 272.655 322.63)"/><path d="m91 172 25-22" style="fill:none;stroke:#000;stroke-width:12.14px" transform="matrix(.65664 -.04222 -.2344 .57648 282.255 335.59)"/><path d="m91 172 25-22" style="fill:none;stroke:#000;stroke-width:12.14px" transform="matrix(.65664 -.04222 -.2344 .57648 291.855 348.55)"/><path d="m91 172 25-22" style="fill:none;stroke:#000;stroke-width:11.99px" transform="matrix(1.06782 -.30407 -.59623 .8069 326.274 345.705)"/></svg>