<?xml version="1.0" encoding="UTF-8" standalone="no"?>
<!DOCTYPE svg PUBLIC "-//W3C//DTD SVG 1.1//EN" "http://www.w3.org/Graphics/SVG/1.1/DTD/svg11.dtd">
<svg width="100%" height="100%" viewBox="0 0 492 492" version="1.1" xmlns="http://www.w3.org/2000/svg" xmlns:xlink="http://www.w3.org/1999/xlink" xml:space="preserve" xmlns:serif="http://www.serif.com/" style="fill-rule:evenodd;clip-rule:evenodd;stroke-linecap:round;stroke-linejoin:round;stroke-miterlimit:1.5;">
    <g transform="matrix(0.48,0,0,0.48,0,0)">
        <g transform="matrix(0.818169,-0.574977,0.574977,0.818169,-137.949,115.215)">
            <path d="M375.642,304.585C375.642,268.849 383.429,142.251 347.692,142.251L145.13,134.906C109.394,134.906 121.306,316.127 121.306,351.864L145.592,1047.54C145.592,1083.28 173.541,1200.77 209.277,1200.77L353.018,1208.33C388.754,1208.33 373.832,1104.44 373.832,1068.7L375.642,304.585Z" style="fill:white;stroke:black;stroke-width:28.74px;"/>
        </g>
        <g transform="matrix(1.368,-0.0879667,-0.48832,1.20099,48.0312,-29.8546)">
            <path d="M91,172L116,150" style="fill:none;stroke:black;stroke-width:12.14px;"/>
        </g>
        <g transform="matrix(1.368,-0.0879667,-0.48832,1.20099,68.0312,-2.85459)">
            <path d="M91,172L116,150" style="fill:none;stroke:black;stroke-width:12.14px;"/>
        </g>
        <g transform="matrix(1.368,-0.0879667,-0.48832,1.20099,88.0312,24.1454)">
            <path d="M91,172L116,150" style="fill:none;stroke:black;stroke-width:12.14px;"/>
        </g>
        <g transform="matrix(1.368,-0.0879667,-0.48832,1.20099,108.031,51.1454)">
            <path d="M91,172L116,150" style="fill:none;stroke:black;stroke-width:12.14px;"/>
        </g>
        <g transform="matrix(2.13446,-0.576065,-1.1628,1.63052,174.294,48.6838)">
            <path d="M91,172L116,150" style="fill:none;stroke:black;stroke-width:12.01px;"/>
        </g>
        <g transform="matrix(1.368,-0.0879667,-0.48832,1.20099,148.031,105.145)">
            <path d="M91,172L116,150" style="fill:none;stroke:black;stroke-width:12.14px;"/>
        </g>
        <g transform="matrix(1.368,-0.0879667,-0.48832,1.20099,168.031,132.145)">
            <path d="M91,172L116,150" style="fill:none;stroke:black;stroke-width:12.14px;"/>
        </g>
        <g transform="matrix(1.368,-0.0879667,-0.48832,1.20099,188.031,159.145)">
            <path d="M91,172L116,150" style="fill:none;stroke:black;stroke-width:12.14px;"/>
        </g>
        <g transform="matrix(1.368,-0.0879667,-0.48832,1.20099,208.031,186.145)">
            <path d="M91,172L116,150" style="fill:none;stroke:black;stroke-width:12.14px;"/>
        </g>
        <g transform="matrix(1.93157,-0.446863,-0.984262,1.51682,262.048,191.482)">
            <path d="M91,172L116,150" style="fill:none;stroke:black;stroke-width:12.05px;"/>
        </g>
        <g transform="matrix(1.368,-0.0879667,-0.48832,1.20099,248.031,240.145)">
            <path d="M91,172L116,150" style="fill:none;stroke:black;stroke-width:12.14px;"/>
        </g>
        <g transform="matrix(1.368,-0.0879667,-0.48832,1.20099,268.031,267.145)">
            <path d="M91,172L116,150" style="fill:none;stroke:black;stroke-width:12.14px;"/>
        </g>
        <g transform="matrix(1.368,-0.0879667,-0.48832,1.20099,288.031,294.145)">
            <path d="M91,172L116,150" style="fill:none;stroke:black;stroke-width:12.14px;"/>
        </g>
        <g transform="matrix(1.368,-0.0879667,-0.48832,1.20099,308.031,321.145)">
            <path d="M91,172L116,150" style="fill:none;stroke:black;stroke-width:12.14px;"/>
        </g>
        <g transform="matrix(1.93157,-0.446863,-0.984262,1.51682,362.048,326.482)">
            <path d="M91,172L116,150" style="fill:none;stroke:black;stroke-width:12.05px;"/>
        </g>
        <g transform="matrix(1.368,-0.0879667,-0.48832,1.20099,348.031,375.145)">
            <path d="M91,172L116,150" style="fill:none;stroke:black;stroke-width:12.14px;"/>
        </g>
        <g transform="matrix(1.368,-0.0879667,-0.48832,1.20099,368.031,402.145)">
            <path d="M91,172L116,150" style="fill:none;stroke:black;stroke-width:12.14px;"/>
        </g>
        <g transform="matrix(1.368,-0.0879667,-0.48832,1.20099,388.031,429.145)">
            <path d="M91,172L116,150" style="fill:none;stroke:black;stroke-width:12.14px;"/>
        </g>
        <g transform="matrix(1.368,-0.0879667,-0.48832,1.20099,408.031,456.145)">
            <path d="M91,172L116,150" style="fill:none;stroke:black;stroke-width:12.14px;"/>
        </g>
        <g transform="matrix(1.88649,-0.418151,-0.944587,1.49155,459.327,463.215)">
            <path d="M91,172L116,150" style="fill:none;stroke:black;stroke-width:12.06px;"/>
        </g>
        <g transform="matrix(1.368,-0.0879667,-0.48832,1.20099,448.031,510.145)">
            <path d="M91,172L116,150" style="fill:none;stroke:black;stroke-width:12.14px;"/>
        </g>
        <g transform="matrix(1.368,-0.0879667,-0.48832,1.20099,468.031,537.145)">
            <path d="M91,172L116,150" style="fill:none;stroke:black;stroke-width:12.14px;"/>
        </g>
        <g transform="matrix(1.368,-0.0879667,-0.48832,1.20099,488.031,564.145)">
            <path d="M91,172L116,150" style="fill:none;stroke:black;stroke-width:12.14px;"/>
        </g>
        <g transform="matrix(1.368,-0.0879667,-0.48832,1.20099,508.031,591.145)">
            <path d="M91,172L116,150" style="fill:none;stroke:black;stroke-width:12.14px;"/>
        </g>
        <g transform="matrix(1.95412,-0.461219,-1.0041,1.52945,563.409,595.616)">
            <path d="M91,172L116,150" style="fill:none;stroke:black;stroke-width:12.05px;"/>
        </g>
        <g transform="matrix(1.368,-0.0879667,-0.48832,1.20099,548.031,645.145)">
            <path d="M91,172L116,150" style="fill:none;stroke:black;stroke-width:12.14px;"/>
        </g>
        <g transform="matrix(1.368,-0.0879667,-0.48832,1.20099,568.031,672.145)">
            <path d="M91,172L116,150" style="fill:none;stroke:black;stroke-width:12.14px;"/>
        </g>
        <g transform="matrix(1.368,-0.0879667,-0.48832,1.20099,588.031,699.145)">
            <path d="M91,172L116,150" style="fill:none;stroke:black;stroke-width:12.14px;"/>
        </g>
        <g transform="matrix(1.368,-0.0879667,-0.48832,1.20099,608.031,726.145)">
            <path d="M91,172L116,150" style="fill:none;stroke:black;stroke-width:12.14px;"/>
        </g>
        <g transform="matrix(2.22463,-0.633489,-1.24215,1.68105,679.737,720.218)">
            <path d="M91,172L116,150" style="fill:none;stroke:black;stroke-width:11.99px;"/>
        </g>
    </g>
</svg>
