<svg viewBox="0 0 246 246" xmlns="http://www.w3.org/2000/svg" xml:space="preserve" style="fill-rule:evenodd;clip-rule:evenodd;stroke-linejoin:round;stroke-miterlimit:2"><path d="M82.685 35.624c-4.932-7.018-20.873-32.951-27.89-28.02L14.006 34.115c-7.017 4.931 20.33 38.872 25.261 45.889l100.768 133.252c4.932 7.018 26.633 26.231 33.65 21.3l29.269-18.351c7.017-4.931-10.25-23.272-15.181-30.289L82.685 35.624Z" style="fill:#fff"/><path d="m85.511 33.648-.005-.007c-3.543-5.042-12.675-19.556-20.274-26.099-2.448-2.107-4.836-3.441-6.889-3.848-2.028-.402-3.865-.059-5.474 1.05L12.127 31.223a3.722 3.722 0 0 0-.103.07c-2.336 1.642-3.334 5.082-1.851 9.841 3.645 11.693 22.24 35.114 26.273 40.853a26757975.468 26757975.468 0 0 0 100.805 133.304c3.685 5.205 15.936 16.643 25.502 21.269 2.844 1.376 5.502 2.163 7.71 2.237 1.997.067 3.72-.406 5.122-1.363l29.2-18.307a3.29 3.29 0 0 0 .151-.1c3.302-2.32 3.974-6.424 1.971-11.482-3.065-7.742-12.758-18.554-16.311-23.609L85.511 33.648Zm-69.167 3.06 40.33-26.212.104-.07c.082-.058.178.022.283.046.255.058.518.162.791.292.912.435 1.873 1.138 2.88 2.005 7.207 6.205 15.765 20.046 19.128 24.833l105.087 150.29.005.006c2.915 4.15 10.227 12.301 14.101 19.22.883 1.578 1.58 3.071 1.921 4.412.11.43.181.836.186 1.215.003.236.012.465-.153.61l-29.154 18.279a3.581 3.581 0 0 0-.151.1c-.407.286-.962.205-1.583.118-1.305-.182-2.781-.735-4.364-1.501-8.598-4.157-19.636-14.435-22.898-19.077a3.496 3.496 0 0 0-.071-.098L42.053 77.971c-3.471-4.922-17.673-22.697-23.521-34.615-.901-1.836-1.595-3.511-1.968-4.95-.146-.566-.202-1.335-.22-1.698Z"/><path d="m22.032 41.723 10.786-6.869a1.462 1.462 0 0 0-1.57-2.465l-10.786 6.869a1.462 1.462 0 0 0 1.57 2.465ZM26.832 48.203l10.786-6.869a1.462 1.462 0 0 0-1.57-2.465l-10.786 6.869a1.462 1.462 0 0 0 1.57 2.465ZM31.632 54.683l10.786-6.869a1.462 1.462 0 0 0-1.57-2.465l-10.786 6.869a1.462 1.462 0 0 0 1.57 2.465ZM36.432 61.163l10.786-6.869a1.462 1.462 0 0 0-1.57-2.465l-10.786 6.869a1.462 1.462 0 0 0 1.57 2.465ZM41.232 67.643l18.946-12.065a1.463 1.463 0 0 0-1.57-2.466L39.662 65.178a1.462 1.462 0 0 0 1.57 2.465ZM46.032 74.123l10.786-6.869a1.462 1.462 0 0 0-1.57-2.465l-10.786 6.869a1.462 1.462 0 0 0 1.57 2.465ZM50.832 80.603l10.786-6.869a1.462 1.462 0 0 0-1.57-2.465l-10.786 6.869a1.462 1.462 0 0 0 1.57 2.465ZM55.632 87.083l10.786-6.869a1.462 1.462 0 0 0-1.57-2.465l-10.786 6.869a1.462 1.462 0 0 0 1.57 2.465ZM60.432 93.563l10.786-6.869a1.462 1.462 0 0 0-1.57-2.465l-10.786 6.869a1.462 1.462 0 0 0 1.57 2.465ZM65.232 100.043l16.786-10.69a1.462 1.462 0 0 0-1.57-2.465l-16.786 10.69a1.462 1.462 0 0 0 1.57 2.465ZM70.032 106.523l10.786-6.869a1.462 1.462 0 0 0-1.57-2.465l-10.786 6.869a1.462 1.462 0 0 0 1.57 2.465ZM74.832 113.003l10.786-6.869a1.462 1.462 0 0 0-1.57-2.465l-10.786 6.869a1.462 1.462 0 0 0 1.57 2.465ZM79.632 119.483l10.786-6.869a1.462 1.462 0 0 0-1.57-2.465l-10.786 6.869a1.462 1.462 0 0 0 1.57 2.465ZM84.432 125.963l10.786-6.869a1.462 1.462 0 0 0-1.57-2.465l-10.786 6.869a1.462 1.462 0 0 0 1.57 2.465ZM89.232 132.443l16.786-10.69a1.462 1.462 0 0 0-1.57-2.465l-16.786 10.69a1.462 1.462 0 0 0 1.57 2.465ZM94.032 138.923l10.786-6.869a1.462 1.462 0 0 0-1.57-2.465l-10.786 6.869a1.462 1.462 0 0 0 1.57 2.465ZM98.832 145.403l10.786-6.869a1.462 1.462 0 0 0-1.57-2.465l-10.786 6.869a1.462 1.462 0 0 0 1.57 2.465ZM103.632 151.883l10.786-6.869a1.462 1.462 0 0 0-1.57-2.465l-10.786 6.869a1.462 1.462 0 0 0 1.57 2.465ZM108.432 158.363l10.786-6.869a1.462 1.462 0 0 0-1.57-2.465l-10.786 6.869a1.462 1.462 0 0 0 1.57 2.465ZM113.232 164.843l16.306-10.384a1.462 1.462 0 1 0-1.57-2.465l-16.306 10.384a1.462 1.462 0 0 0 1.57 2.465ZM118.032 171.323l10.786-6.869a1.462 1.462 0 0 0-1.57-2.465l-10.786 6.869a1.462 1.462 0 0 0 1.57 2.465ZM122.832 177.803l10.786-6.869a1.462 1.462 0 0 0-1.57-2.465l-10.786 6.869a1.462 1.462 0 0 0 1.57 2.465ZM127.632 184.283l10.786-6.869a1.462 1.462 0 0 0-1.57-2.465l-10.786 6.869a1.462 1.462 0 0 0 1.57 2.465ZM132.432 190.763l10.786-6.869a1.462 1.462 0 0 0-1.57-2.465l-10.786 6.869a1.462 1.462 0 0 0 1.57 2.465ZM137.232 197.243l17.026-10.843a1.462 1.462 0 0 0-1.57-2.465l-17.026 10.843a1.462 1.462 0 0 0 1.57 2.465ZM142.032 203.723l10.786-6.869a1.462 1.462 0 0 0-1.57-2.465l-10.786 6.869a1.462 1.462 0 0 0 1.57 2.465ZM146.832 210.203l10.786-6.869a1.462 1.462 0 0 0-1.57-2.465l-10.786 6.869a1.462 1.462 0 0 0 1.57 2.465ZM151.632 216.683l10.786-6.869a1.462 1.462 0 0 0-1.57-2.465l-10.786 6.869a1.462 1.462 0 0 0 1.57 2.465ZM156.432 223.163l10.786-6.869a1.462 1.462 0 0 0-1.57-2.465l-10.786 6.869a1.462 1.462 0 0 0 1.57 2.465ZM161.232 229.643l19.906-12.677a1.462 1.462 0 0 0-1.57-2.465l-19.906 12.677a1.462 1.462 0 0 0 1.57 2.465Z"/></svg>