<svg viewBox="0 0 492 492" xmlns="http://www.w3.org/2000/svg" xml:space="preserve" style="fill-rule:evenodd;clip-rule:evenodd;stroke-linejoin:round;stroke-miterlimit:2"><path d="M432.766 100.047a2.584 2.584 0 0 0 .917-1.804c.036-.418.017-1.072-.485-1.811-.169-.25-.644-.768-1.478-1.415-6.981-5.41-50.257-32.47-50.257-32.47a2.664 2.664 0 0 0-3.794 1.068c-5.402 10.804-17.373 19.1-24.398 28.283-3.976 5.197-6.466 10.668-6.063 16.804.392 5.97 3.556 12.704 11.348 20.495 8.056 8.056 19.032 8.018 29.968 4.132 15.284-5.43 30.424-18.349 35.86-23.785 2.863-2.864 7.288-8.174 8.382-9.497Zm-5.513-1.708c-1.772 2.107-4.61 5.412-6.637 7.438-5.139 5.14-19.425 17.398-33.876 22.532-8.887 3.157-17.87 3.667-24.417-2.88-7.783-7.783-10.43-14.087-9.72-19.796.721-5.79 4.734-10.781 9.489-15.79 6.404-6.745 14.175-13.435 18.928-21.287 8.606 5.393 38.028 23.89 46.233 29.783Zm2.866-2.813Z"/><path d="M715.862 282.985c3.045-13.289-29.454-40.671-24.705-61.036 10.436-44.751 59.068-86.246 59.068-86.246 47.046-47.045 52.173-30.106 89.081 6.802 4.366 4.365 100.232 35.619 79.69 66.703-25.856 39.126-68.51 71.966-114.209 94.815-23.333 11.666-34.982-18.046-53.421.394C700.036 355.75 564 520.434 434.922 682.592c-8.747 10.988-56.687 102.94-75.618 122.116 0 0 85.007 19.436 84.507 46.769-.5 27.334-72.712 103.819-124.507 126.231-52.03 22.512-88.902 14.422-124.673 1.853 0 0-40.338-45.642-30.358-85.999 7.82-31.621 70.587-170.325 102.276-164.73 29.036 5.127 63.939 57.491 63.939 57.491-16.811-6.231 385.374-503.338 385.374-503.338Z" style="fill:#fff" transform="scale(.48)"/><path d="M157.753 371.638c-2.572-3.429-6.541-8.384-11.11-12.913-5.638-5.591-12.219-10.447-18.236-11.509-2.399-.424-5.126.304-7.996 2.227-3.472 2.328-7.32 6.507-11.222 11.852-14.51 19.883-30.26 56.202-32.924 66.975-2.057 8.32-.05 17.086 3.2 24.597 4.718 10.898 11.962 19.087 11.962 19.087.3.34.684.598 1.113.749 17.727 6.229 36 10.201 61.784-.959 17.758-7.684 40.448-28.31 52.53-44.608 5.509-7.432 8.76-14.104 8.839-18.378.038-2.112-.665-4.167-2.021-6.12-1.697-2.44-4.49-4.758-7.915-6.84-8.8-5.35-21.896-9.291-28.527-11.076 10.379-13.698 29.792-50.613 33.617-55.418 61.879-77.737 127.085-156.692 151.693-181.3 1.272-1.272 2.41-1.947 3.547-2.137 1.858-.312 3.578.54 5.415 1.368 4.55 2.05 9.46 4.342 15.987 1.079 22.36-11.18 43.2-27.282 55.851-46.425 3.7-5.6 1.595-11.33-3.915-16.51-7.398-6.952-21.167-13.019-29.299-16.517a194.265 194.265 0 0 1-5.523-2.492c-6.434-6.444-10.912-11.61-15.041-14.557-3.32-2.37-6.49-3.439-10.053-3.03-5.197.596-11.57 4.766-21.219 14.405-1.551 1.351-24.133 21.318-29.129 42.743-.56 2.404-.296 4.978.559 7.614 1.108 3.418 3.232 6.977 5.421 10.36 1.982 3.064 4.014 5.971 5.159 8.477.405.887.743 1.674.763 2.37-9.497 11.747-156.874 194.225-181.473 233.785a74.742 74.742 0 0 0-1.837 3.101Zm-1.705 6.733c-1.4-2.03-6.639-9.4-13.156-15.863-4.81-4.77-10.279-9.139-15.412-10.045-1.253-.221-2.603.4-4.102 1.406-3.078 2.064-6.426 5.828-9.885 10.567-14.112 19.336-29.465 54.637-32.056 65.113-1.775 7.178.114 14.72 2.919 21.201 3.699 8.548 9.07 15.298 10.627 17.163 16.402 5.701 33.389 9.256 57.225-1.058 17.047-7.377 38.768-27.247 50.365-42.892 4.64-6.258 7.727-11.704 7.793-15.303.025-1.356-.682-2.614-1.74-3.84-1.376-1.595-3.347-3.078-5.636-4.47-11.616-7.061-31.118-11.493-31.118-11.493a2.663 2.663 0 0 1-1.302-4.47c9.05-9.166 31.927-53.15 36.108-58.402 62.037-77.935 127.424-157.077 152.094-181.748 2.269-2.27 4.408-3.285 6.434-3.625 2.883-.484 5.635.482 8.484 1.766 3.26 1.468 6.742 3.507 11.416 1.17 21.512-10.755 41.618-26.18 53.79-44.597 1.344-2.034 1.095-4.07-.064-6.037-1.535-2.607-4.41-5.076-7.819-7.407-8.917-6.099-21.463-11.018-26.754-13.383-1.806-.808-2.938-1.5-3.276-1.838-5.254-5.255-9.146-9.662-12.63-12.646-2.851-2.442-5.29-3.902-8.237-3.564-4.508.517-9.743 4.564-18.124 12.945-.05.05-.101.097-.155.143 0 0-22.644 19.207-27.487 39.977-.558 2.39.336 5 1.633 7.661 1.545 3.171 3.745 6.365 5.667 9.328 1.702 2.624 3.192 5.091 3.993 7.229.71 1.893.902 3.61.568 5.069-.091.396-.27.765-.526 1.08 0 0-156.206 193.052-181.57 233.842-1.374 2.21-2.499 4.532-2.906 5.403a2.665 2.665 0 0 1-3.5 3.18 3.004 3.004 0 0 1-1.661-1.562Z"/><path d="m125.256 370.626 17.657 33.547a2.665 2.665 0 0 0 2.278 1.422l46.854 1.39a2.665 2.665 0 0 0 .158-5.326l-45.3-1.343-16.932-32.171a2.665 2.665 0 0 0-4.715 2.481Z"/></svg>