<?xml version="1.0" encoding="UTF-8" standalone="no"?>
<!DOCTYPE svg PUBLIC "-//W3C//DTD SVG 1.1//EN" "http://www.w3.org/Graphics/SVG/1.1/DTD/svg11.dtd">
<svg width="100%" height="100%" viewBox="0 0 492 492" version="1.1" xmlns="http://www.w3.org/2000/svg" xmlns:xlink="http://www.w3.org/1999/xlink" xml:space="preserve" xmlns:serif="http://www.serif.com/" style="fill-rule:evenodd;clip-rule:evenodd;stroke-linejoin:round;stroke-miterlimit:2;">
    <g transform="matrix(0.48,0,0,0.48,0,0)">
        <path d="M901.596,208.432C902.715,207.469 903.373,206.226 903.506,204.673C903.581,203.803 903.541,202.44 902.496,200.9C902.144,200.38 901.155,199.3 899.416,197.953C884.873,186.681 794.715,130.307 794.715,130.307C793.389,129.478 791.776,129.247 790.271,129.67C788.765,130.094 787.509,131.133 786.81,132.531C775.557,155.039 750.617,172.324 735.981,191.454C727.697,202.281 722.51,213.679 723.35,226.463C724.167,238.901 730.759,252.929 746.991,269.16C763.775,285.943 786.642,285.864 809.426,277.769C841.267,266.456 872.809,239.542 884.133,228.217C890.098,222.251 899.317,211.187 901.596,208.432ZM890.11,204.873C886.418,209.262 880.505,216.147 876.284,220.368C865.577,231.076 835.815,256.614 805.709,267.31C787.193,273.888 768.48,274.951 754.84,261.311C738.625,245.096 733.111,231.962 734.591,220.068C736.092,208.006 744.452,197.608 754.358,187.172C767.699,173.12 783.89,159.184 793.791,142.824C811.72,154.061 873.016,192.595 890.11,204.873ZM896.081,199.012C896.574,198.84 897.15,198.729 897.828,198.729C897.227,198.729 896.638,198.826 896.081,199.012Z"/>
        <path d="M715.862,282.985C718.907,269.696 686.408,242.314 691.157,221.949C701.593,177.198 750.225,135.703 750.225,135.703C797.271,88.658 802.398,105.597 839.306,142.505C843.672,146.87 939.538,178.124 918.996,209.208C893.14,248.334 850.486,281.174 804.787,304.023C781.454,315.689 769.805,285.977 751.366,304.417C700.036,355.75 564,520.434 434.922,682.592C426.175,693.58 378.235,785.532 359.304,804.708C359.304,804.708 444.311,824.144 443.811,851.477C443.311,878.811 371.099,955.296 319.304,977.708C267.274,1000.22 230.402,992.13 194.631,979.561C194.631,979.561 154.293,933.919 164.273,893.562C172.093,861.941 234.86,723.237 266.549,728.832C295.585,733.959 330.488,786.323 330.488,786.323C313.677,780.092 715.862,282.985 715.862,282.985Z" style="fill:white;"/>
        <path d="M328.653,774.246C323.293,767.102 315.024,756.78 305.507,747.343C293.761,735.695 280.05,725.58 267.514,723.367C262.517,722.484 256.835,723.999 250.856,728.007C243.622,732.857 235.605,741.562 227.477,752.698C197.246,794.12 164.436,869.786 158.885,892.23C154.6,909.561 158.782,927.824 165.554,943.472C175.381,966.177 190.472,983.237 190.472,983.237C191.099,983.946 191.898,984.483 192.791,984.797C229.722,997.774 267.79,1006.05 321.508,982.801C358.505,966.792 405.775,923.82 430.945,889.866C442.422,874.383 449.197,860.483 449.36,851.579C449.44,847.18 447.976,842.898 445.149,838.831C441.615,833.746 435.795,828.916 428.661,824.579C410.327,813.433 383.044,805.223 369.229,801.505C390.852,772.966 431.295,696.06 439.264,686.049C568.179,524.097 704.026,359.609 755.291,308.341C757.941,305.691 760.314,304.285 762.681,303.889C766.552,303.24 770.136,305.016 773.962,306.74C783.442,311.012 793.671,315.786 807.269,308.987C853.851,285.697 897.27,252.15 923.626,212.268C931.335,200.603 926.948,188.663 915.468,177.873C900.057,163.389 871.371,150.751 854.43,143.463C849.04,141.145 843.761,138.666 842.922,138.27C829.518,124.846 820.189,114.083 811.587,107.944C804.67,103.008 798.067,100.78 790.644,101.631C779.816,102.872 766.539,111.561 746.438,131.641C743.206,134.457 696.161,176.054 685.752,220.689C684.584,225.698 685.135,231.061 686.916,236.553C689.224,243.672 693.651,251.087 698.211,258.135C702.34,264.518 706.573,270.575 708.958,275.796C709.802,277.644 710.507,279.283 710.547,280.732L710.547,280.732C690.763,305.207 383.727,685.368 332.48,767.785C330.997,770.17 329.719,772.329 328.653,774.246ZM325.099,788.273C322.182,784.044 311.269,768.69 297.691,755.224C287.671,745.288 276.278,736.186 265.584,734.298C262.973,733.837 260.161,735.133 257.038,737.227C250.624,741.527 243.649,749.369 236.443,759.242C207.044,799.524 175.058,873.068 169.661,894.894C165.963,909.848 169.898,925.562 175.741,939.063C183.448,956.87 194.639,970.934 197.881,974.818C232.052,986.696 267.441,994.102 317.1,972.614C352.615,957.246 397.867,915.85 422.027,883.256C431.692,870.218 438.125,858.873 438.262,851.376C438.314,848.549 436.842,845.93 434.638,843.375C431.771,840.052 427.664,836.963 422.895,834.064C398.696,819.352 358.067,810.118 358.067,810.118C356.104,809.669 354.539,808.193 353.976,806.26C353.412,804.327 353.94,802.241 355.355,800.808C374.209,781.711 421.869,690.079 430.58,679.136C559.822,516.771 696.046,351.891 747.442,300.493C752.168,295.766 756.626,293.649 760.845,292.942C766.853,291.934 772.585,293.945 778.521,296.62C785.311,299.679 792.567,303.928 802.305,299.059C847.121,276.652 889.009,244.518 914.366,206.148C917.166,201.911 916.647,197.669 914.233,193.57C911.036,188.14 905.044,182.995 897.944,178.139C879.367,165.434 853.23,155.185 842.206,150.258C838.443,148.576 836.086,147.133 835.381,146.429C824.435,135.482 816.327,126.301 809.069,120.083C803.129,114.995 798.049,111.955 791.908,112.659C782.517,113.735 771.611,122.167 754.149,139.628C754.046,139.731 753.939,139.83 753.827,139.925C753.827,139.925 706.653,179.94 696.562,223.21C695.401,228.19 697.262,233.626 699.964,239.171C703.183,245.777 707.766,252.432 711.77,258.604C715.316,264.071 718.421,269.211 720.089,273.664C721.567,277.609 721.968,281.187 721.272,284.225C721.083,285.049 720.709,285.819 720.177,286.476C720.177,286.476 394.747,688.667 341.906,773.646C339.043,778.25 336.701,783.088 335.852,784.902C336.292,786.558 335.947,788.366 334.842,789.764C333.35,791.651 330.814,792.362 328.559,791.527C327.34,791.075 325.9,790.031 325.099,788.273Z"/>
        <path d="M260.95,772.138L297.735,842.027C298.667,843.798 300.481,844.93 302.482,844.99L400.094,847.885C403.156,847.976 405.716,845.564 405.806,842.502C405.897,839.441 403.485,836.881 400.423,836.79L306.049,833.991C306.049,833.991 270.773,766.968 270.773,766.968C269.346,764.258 265.987,763.215 263.277,764.642C260.566,766.069 259.524,769.428 260.95,772.138Z"/>
    </g>
</svg>
