<svg viewBox="0 0 246 246" xmlns="http://www.w3.org/2000/svg" xml:space="preserve" style="fill-rule:evenodd;clip-rule:evenodd;stroke-linejoin:round;stroke-miterlimit:2"><path d="M79.198 188.542c-.681-5.318 92.609-120.626 92.609-120.626.731-3.189-7.069-9.761-5.929-14.648 2.504-10.741 14.176-20.699 14.176-20.699 11.291-11.291 12.521-7.226 21.379 1.632 1.048 1.048 24.056 8.549 19.126 16.009-6.205 9.39-16.442 17.272-27.41 22.756-5.6 2.799-8.396-4.331-12.821.094-12.319 12.32-44.968 51.844-75.947 90.762-2.099 2.637-13.605 24.706-18.148 29.308 0 0 20.402 4.665 20.282 11.225-.12 6.56-17.451 24.916-29.882 30.295-12.487 5.403-21.337 3.461-29.922.445 0 0-9.681-10.955-7.285-20.64 1.876-7.589 16.94-40.878 24.546-39.535 6.482 1.144 14.183 12.098 15.226 13.622.011.091.051.15.119.175l-.119-.175ZM215.479 49.027c1.144 0-25.453-16.624-25.453-16.624-5.474 10.948-24.145 16.915-9.806 31.253 9.127 9.127 26.624-5.419 31.03-9.826 1.611-1.611 4.229-4.803 4.229-4.803Z" style="fill:#fff"/><path d="M78.875 185.817c-1.391-1.854-3.601-4.603-6.124-7.01-2.685-2.563-5.739-4.703-8.548-5.199-1.199-.212-2.563.152-3.997 1.114-1.737 1.164-3.661 3.253-5.611 5.926-7.256 9.941-15.13 28.101-16.462 33.487-1.029 4.16-.025 8.543 1.6 12.298 2.358 5.45 5.98 9.544 5.98 9.544.151.17.342.299.557.374 8.863 3.115 18 5.1 30.892-.479 8.879-3.842 20.224-14.155 26.265-22.304 2.754-3.716 4.38-7.052 4.419-9.189.02-1.056-.332-2.083-1.01-3.06-.849-1.22-2.245-2.379-3.957-3.42-4.4-2.675-10.948-4.646-14.264-5.538 5.189-6.849 14.896-25.307 16.808-27.709 30.94-38.869 63.543-78.346 75.847-90.65.636-.636 1.205-.973 1.773-1.069.93-.156 1.79.271 2.708.685 2.275 1.025 4.73 2.171 7.994.539 11.179-5.59 21.6-13.641 27.925-23.213 1.85-2.799.798-5.665-1.958-8.254-3.698-3.477-10.583-6.51-14.649-8.259a98.452 98.452 0 0 1-2.762-1.246c-3.217-3.222-5.456-5.805-7.52-7.278-1.66-1.185-3.245-1.72-5.026-1.516-2.599.298-5.786 2.384-10.61 7.203-.775.676-12.066 10.659-14.564 21.371-.281 1.202-.149 2.49.279 3.808.554 1.708 1.616 3.488 2.711 5.179.991 1.532 2.006 2.986 2.579 4.239.203.443.372.837.381 1.185-4.128 5.106-60.364 74.729-83.039 105.793-4.162 5.702-7.201 10.12-8.604 12.625l-.013.023Zm1.669 2.685c.078-.192.35-.839.668-1.406 1.374-2.452 4.357-6.773 8.432-12.356 23.522-32.226 83.198-105.986 83.198-105.986.128-.157.218-.342.263-.54.167-.729.071-1.588-.284-2.535-.4-1.068-1.145-2.302-1.996-3.614-.961-1.481-2.061-3.078-2.834-4.664-.648-1.331-1.095-2.635-.816-3.831 2.422-10.384 13.744-19.988 13.744-19.988l.077-.071c4.191-4.191 6.808-6.215 9.062-6.473 1.474-.169 2.693.561 4.119 1.782 1.742 1.492 3.687 3.696 6.315 6.323.169.169.734.515 1.638.919 2.645 1.182 8.918 3.642 13.376 6.691 1.705 1.166 3.143 2.4 3.91 3.704.579.984.704 2.002.032 3.019-6.086 9.208-16.139 16.92-26.895 22.298-2.337 1.169-4.078.149-5.708-.585-1.425-.642-2.8-1.125-4.242-.883-1.013.17-2.083.678-3.217 1.812-12.335 12.336-45.029 51.907-76.047 90.875-2.091 2.626-13.529 24.618-18.054 29.201a1.333 1.333 0 0 0 .651 2.234s9.751 2.216 15.559 5.747c1.144.696 2.13 1.438 2.818 2.235.529.613.882 1.242.87 1.92-.033 1.8-1.577 4.522-3.896 7.652-5.799 7.822-16.659 17.757-25.183 21.445-11.918 5.157-20.412 3.38-28.613.529-.778-.932-3.464-4.307-5.313-8.581-1.402-3.24-2.347-7.011-1.459-10.6 1.295-5.239 8.972-22.889 16.027-32.557 1.73-2.37 3.404-4.252 4.943-5.284.75-.502 1.425-.813 2.051-.703 2.377.42 4.899 2.334 7.172 4.503 3.419 3.264 6.235 7.188 7.059 8.375.16.44.481.708.883.857.148.055.305.083.463.083 0 0 1.237-.61 1.227-1.547ZM216.383 50.024c.269-.231.426-.53.459-.903a1.35 1.35 0 0 0-.243-.905c-.085-.125-.322-.384-.739-.707-3.49-2.706-25.128-16.235-25.128-16.235a1.331 1.331 0 0 0-1.898.533c-2.7 5.402-8.686 9.551-12.199 14.142-1.988 2.598-3.233 5.334-3.031 8.402.196 2.985 1.778 6.352 5.674 10.247 4.028 4.028 9.516 4.009 14.984 2.067 7.642-2.715 15.212-9.175 17.93-11.893 1.432-1.432 3.644-4.087 4.191-4.748Zm-2.757-.854c-.886 1.053-2.305 2.705-3.318 3.718-2.57 2.57-9.712 8.699-16.938 11.266-4.444 1.579-8.935 1.834-12.209-1.439-3.891-3.892-5.214-7.044-4.859-9.899.36-2.895 2.366-5.39 4.744-7.895 3.202-3.372 7.088-6.717 9.464-10.643 4.303 2.697 19.014 11.945 23.116 14.892Zm1.434-1.407Z"/><path d="m62.628 185.313 8.828 16.773c.224.426.659.697 1.14.712l23.427.694a1.333 1.333 0 0 0 1.371-1.291 1.333 1.333 0 0 0-1.292-1.371l-22.65-.672-8.467-16.086a1.333 1.333 0 0 0-2.357 1.241Z"/></svg>