<svg viewBox="0 0 246 246" xmlns="http://www.w3.org/2000/svg" xml:space="preserve" style="fill-rule:evenodd;clip-rule:evenodd;stroke-linejoin:round;stroke-miterlimit:2"><path d="M151.324 74.059c-.549.549 3.951 8.502 4.965 9.516 2.423 2.423 2.112 11.627 4.551 14.067 1.137 1.136 3.49 3.491 5.125 4.309 1.818.909 7.068 1.699 10.636 1.748 5.294.073 14.092-7.682 17.46-9.836 6.655-4.255 20.682-13.154 26.109-17.905 5.14-4.501 9.314-11.664 11.006-19.276.337-1.516-1.508-5.526 0-7.034.187-.187 3.602-4.379 3.31-4.964-.754-1.507-12.278-3.59-14.067-5.379-.902-.901-2.586 1.551-2.897 1.241-1.189-1.189-14.963-7.619-17.79-6.206-4.703 2.351-2.248 6.799-4.965 9.516-1.333 1.333-3.643 1.161-4.965 2.483-1.051 1.051-1.507 3.162-2.482 4.137-.717.717-3.374.064-4.138.827-3.63 3.63-8.297 7.884-11.584 11.171-.467.467-.931-.413-1.242-.413-2.902 0-2.748 1.093-4.551 2.896-.272.272-2.678-1.045-3.723 0-1.036 1.035-.476 3.371-1.242 4.137-.363.364-2.168-.414-2.896-.414-2.072 0-1.77 3.31-4.137 3.31-.139 0-2.651 1.242-1.655 1.242" style="fill:#fff"/><path d="M186.365 49.26c-.264.02-1.144.082-1.673.106-1.111.051-2.077.35-2.587.86-3.395 3.395-7.697 7.335-10.93 10.52a.893.893 0 0 0-.093-.05 1.755 1.755 0 0 0-.726-.159c-2.421 0-3.28.632-4.147 1.611-.291.329-.576.73-.979 1.191-.494-.123-1.255-.291-1.781-.312-.943-.038-1.812.219-2.445.852-.635.635-.956 1.558-1.095 2.55l-.149 1.07c-.174-.04-.348-.082-.486-.118-.519-.135-1.004-.225-1.33-.225-1.432 0-2.29.792-2.967 1.89-.216.35-.41.739-.652 1.075-.123.17-.254.345-.518.345-.093 0-.267.006-.502.082-.192.061-.88.373-1.456.709-.709.414-1.205.975-1.32 1.24a1.96 1.96 0 0 0-.11.336 1.654 1.654 0 0 0-.646 1.112c-.044.311.023.948.337 1.764.962 2.503 4.237 8.079 5.102 8.944.347.347.58.909.803 1.568.444 1.317.74 2.986 1.044 4.654.333 1.824.672 3.646 1.16 5.089.4 1.179.919 2.131 1.544 2.756 1.219 1.219 3.767 3.717 5.521 4.594 1.932.966 7.503 1.857 11.296 1.909 2.34.033 5.327-1.245 8.274-3.031 4.012-2.432 8.001-5.749 10.028-7.045 6.703-4.285 20.826-13.257 26.292-18.042 5.36-4.693 9.725-12.155 11.489-20.092.196-.881-.155-2.497-.423-4.102-.095-.565-.169-1.129-.133-1.63.016-.215.014-.422.146-.555.163-.163 2.572-3.108 3.365-4.606.516-.974.396-1.787.231-2.118-.158-.315-.469-.69-.997-1.025-.601-.382-1.642-.806-2.921-1.229-2.254-.744-5.322-1.544-7.686-2.335-1.281-.429-2.342-.779-2.749-1.186-.658-.658-1.44-.792-2.282-.532-.463.143-1.162.646-1.656 1.033a25.159 25.159 0 0 0-1.532-.857c-2.732-1.414-7.347-3.439-11.004-4.502-1.441-.419-2.744-.688-3.757-.743-.941-.052-1.695.091-2.215.351-2.921 1.46-3.655 3.546-4.045 5.714-.123.683-.206 1.373-.347 2.04-.157.74-.379 1.458-.969 2.048-.635.635-1.583.766-2.439 1.055-.946.319-1.831.732-2.526 1.427-.638.638-1.125 1.578-1.571 2.526-.254.541-.475 1.091-.788 1.473Zm33.481-8.47a2.984 2.984 0 0 0-.197.146c-.348.287-.671.586-.909.756-1.023.727-1.885.342-2.295-.068-.205-.205-.885-.562-1.819-1.046-2.597-1.343-6.98-3.272-10.455-4.282-.999-.29-1.917-.504-2.683-.593-.464-.053-.839-.117-1.075 0-2.229 1.115-2.312 2.891-2.574 4.545-.271 1.711-.662 3.353-1.994 4.686-.7.7-1.588 1.115-2.533 1.435-.857.29-1.803.418-2.432 1.047-.523.523-.828 1.385-1.195 2.146-.376.781-.791 1.495-1.288 1.992-.485.484-1.442.781-2.562.826-.54.021-1.474.098-1.692.117-3.612 3.604-8.215 7.802-11.468 11.055-.69.69-1.387.705-2.051.458-.191-.071-.474-.264-.682-.417-.45.017-.769.073-1.02.204-.295.154-.468.406-.7.694-.352.438-.751.955-1.339 1.543-.254.255-.859.611-1.78.419-.369-.077-.952-.28-1.541-.359a3.123 3.123 0 0 0-.447-.007c-.117.16-.128.388-.164.609-.059.357-.088.728-.126 1.077-.114 1.026-.404 1.896-.907 2.399-.299.299-.788.556-1.478.543-.428-.009-1.052-.15-1.658-.311-.326-.087-.638-.2-.838-.2-.167 0-.2.176-.282.3-.241.362-.45.778-.697 1.155-.635.971-1.454 1.73-2.808 1.841l-.603.328a1.532 1.532 0 0 1-.57.68c.765 1.53 3.66 7.266 4.383 7.989.622.622 1.139 1.572 1.536 2.75.485 1.439.823 3.26 1.155 5.082.304 1.668.602 3.338 1.048 4.657.225.663.461 1.227.812 1.578 1.054 1.054 3.212 3.265 4.729 4.024 1.703.851 6.631 1.541 9.975 1.588 1.896.026 4.265-1.144 6.652-2.59 3.989-2.418 7.951-5.718 9.966-7.007 6.607-4.224 20.538-13.051 25.926-17.768 4.921-4.308 8.902-11.173 10.522-18.46.049-.22-.018-.526-.075-.879-.145-.898-.4-1.968-.507-2.971-.171-1.6.102-3.04.992-3.93.11-.11 1.401-1.703 2.28-2.998a7.74 7.74 0 0 0 .214-.334l-.079-.035c-.829-.349-1.972-.713-3.228-1.09-2.602-.781-5.665-1.608-7.644-2.406-.74-.299-1.35-.615-1.795-.918ZM152.45 75.086l-.048.051.048-.051Zm.041-.047-.012.014.01-.011.002-.003Zm65.98-35.686Z"/><path d="M153.393 76.955c-.382.383-.03 0 .414 0 3.922 0 10.693 10.344 11.171 10.344.668 0 3.311-2.484 3.723-2.897 1.154-1.153 2.19 4.259 2.483 4.552.736.736 3.16-3.873 4.551-2.483 2.133 2.133 0 14.891 0 16.55" style="fill:#fff"/><path d="M153.594 75.445c-.454-.06-.93.084-1.278.433-.692.691-.611 1.227-.61 1.276.009.459.192.8.459 1.061.226.221.572.452 1.118.433.035-.001.412-.11.603-.166.37.026.767.227 1.197.487.655.396 1.338.957 2.023 1.598 2.251 2.107 4.479 5.055 5.71 6.604.669.843 1.198 1.343 1.382 1.446.307.171.578.206.78.206.304 0 .828-.126 1.415-.496.671-.421 1.626-1.232 2.36-1.892.252.674.468 1.44.639 2.016.149.506.282.9.37 1.085.117.244.25.401.344.495.424.424.929.588 1.515.511.421-.056 1.043-.366 1.665-.966.37-.356.793-.83 1.228-1.253.096-.094.225-.201.348-.299.025.11.048.231.074.359.134.648.196 1.445.216 2.325.104 4.574-.941 11.155-.941 12.313a1.525 1.525 0 0 0 3.048 0c0-1.164 1.045-7.783.94-12.383-.03-1.324-.157-2.498-.4-3.381-.228-.832-.581-1.458-.986-1.864-1.115-1.114-2.656-.851-4.085.427-.215.192-.474.441-.729.691a21.745 21.745 0 0 0-.556-1.564c-.307-.739-.682-1.334-1.031-1.658-.419-.39-.876-.554-1.311-.57-.475-.018-.99.118-1.477.606-.225.224-1.572 1.335-2.385 2.001-1.394-1.74-4.171-5.42-6.825-7.677-1.627-1.384-3.276-2.218-4.607-2.218-.07 0-.141.005-.213.014Z"/><path d="M176.562 87.299c.471 0 .945-1.359 1.242-1.655.195-.195.632-.195.827 0 2.415 2.415 7.405-2.027 9.516-4.138.556-.556 3.93-.103 4.551-.413 1.924-.962 1.478-3.428 2.896-4.138.945-.472 4.947-.395 5.793-1.241 1.13-1.131.106-2.282.827-3.724.969-1.937 4.382-1.071 5.792-2.482 1.289-1.288 5.992-7.019 6.62-8.275 1.238-2.475 5.524-4.83 7.448-5.792 1.224-.613.948-3.017 1.654-3.724 2.163-2.162 5.72-3.237 7.448-4.965.749-.749 2.311-3.139.414-1.241" style="fill:#fff"/><path d="M230.077 45.695c-.776.767-1.969 1.368-3.195 2.04-1.501.825-3.051 1.724-4.231 2.905-.442.441-.75 1.261-.949 2.202-.065.311-.128.638-.224.937a3.026 3.026 0 0 1-.144.328c-1.223.614-3.292 1.738-5.038 3.09-1.323 1.023-2.451 2.19-3.033 3.355-.599 1.198-5.105 6.649-6.334 7.878-.232.233-.586.301-.95.384-.665.151-1.39.234-2.055.387-1.357.311-2.479.92-3.073 2.108-.423.845-.467 1.617-.437 2.351.009.201.023.396.022.587-.001.109-.002.219-.074.324-.204.049-1.27.302-2.014.39-1.439.171-2.88.354-3.435.631-.909.455-1.435 1.288-1.822 2.308-.131.347-.251.718-.417 1.07-.121.256-.267.511-.533.688-.354-.002-2.065-.006-2.979.051-1.012.064-1.77.397-2.093.72-1.168 1.168-3.278 3.131-5.272 4.017-.419.186-.827.322-1.215.363-.328.034-.636-.006-.873-.243-.357-.357-.913-.593-1.492-.593-.578 0-1.134.236-1.491.593a3.045 3.045 0 0 0-.454.627l-.437.766a1.525 1.525 0 0 0 .727 2.864c.434 0 .91-.158 1.338-.569.172-.166.401-.505.602-.831 1.286.675 2.876.544 4.533-.192 2.207-.98 4.566-3.052 5.967-4.427.415-.012 1.939-.056 2.725-.068.768-.013 1.373-.14 1.653-.28 1.135-.568 1.744-1.46 2.161-2.43.173-.405.308-.822.462-1.205.079-.194.095-.414.273-.503.169-.085.5-.101.89-.151.941-.122 2.121-.221 3.066-.405 1.029-.201 1.833-.571 2.232-.97.794-.794.997-1.587 1.018-2.423.008-.31-.018-.628-.026-.958-.006-.231-.01-.477.121-.739.15-.3.488-.36.821-.449.475-.127.994-.2 1.502-.289 1.251-.218 2.417-.581 3.184-1.348 1.348-1.348 6.248-7.358 6.905-8.671.408-.816 1.246-1.591 2.172-2.308 1.598-1.237 3.5-2.256 4.594-2.803.855-.428 1.399-1.281 1.693-2.32.162-.571.394-1.588.434-1.764 1.194-1.159 2.835-1.958 4.288-2.764 1.207-.669 2.304-1.347 3.083-2.126.461-.46 1.173-1.428 1.47-1.979.167-.31.245-.574.272-.734.14-.842-.281-1.318-.656-1.575-.295-.201-.768-.424-1.457-.165-.185.069-.646.333-1.37 1.056a1.525 1.525 0 0 0-.435 1.262Z"/><path d="M190.63 95.16c-.384.383-.414.608-.414 0" style="fill:#fff"/><path d="M190.423 94.52a.674.674 0 0 0-.879.64c0 .323.032.503.06.579.068.189.18.291.279.356a.666.666 0 0 0 .49.104.717.717 0 0 0 .372-.179c.066-.057.178-.204.36-.385a.674.674 0 0 0-.682-1.115Z"/><path d="M162.251 89.634c.663.332.058.755.32 1.28.631 1.262 1.28 4.054 1.28 5.6 0 .704.32 1.527.32 2.08 0 .192.16 1.357.16 1.12" style="fill:#fff"/><path d="M161.878 90.193c-.022.12-.049.298-.049.42 0 .192.037.393.141.602.597 1.194 1.209 3.836 1.209 5.299 0 .704.32 1.527.32 2.08 0 .177.118 1.08.163 1.273.069.293.247.407.287.434a.651.651 0 0 0 .478.11.657.657 0 0 0 .576-.697.672.672 0 0 0-.046-.246c-.033-.22-.114-.768-.114-.874 0-.553-.32-1.376-.32-2.08 0-1.629-.686-4.571-1.351-5.9-.031-.064.017-.121.028-.175.025-.12.044-.235.046-.346.01-.376-.081-.753-.694-1.06a.673.673 0 0 0-.674 1.16Zm1.831 9.268Z"/><path d="M165.771 91.074c0 .569 1.215 6.495 1.44 6.72.435.435-.236 3.52.48 3.52" style="fill:#fff"/><path d="M166.66 98.18a6.5 6.5 0 0 1 .039.659c-.008.605-.057 1.329-.015 1.851.031.377.12.677.238.862.188.294.449.434.769.434a.672.672 0 0 0 .363-1.237 5.092 5.092 0 0 1-.044-.551c-.002-.672.063-1.488.012-2.01-.032-.329-.127-.583-.239-.75a1.66 1.66 0 0 1-.026-.076c-.35-1.094-1.314-5.792-1.314-6.288a.672.672 0 0 0-1.344 0c0 .468.788 4.461 1.226 6.158.099.384.187.662.243.786.03.067.062.12.092.162Z"/><path d="M171.691 94.594c.591 1.181.64 3.661.64 4.96v2.08" style="fill:#fff"/><path d="M171.664 101.808c.04.772.354.957.667.856.314.101.628-.084.668-.856a.68.68 0 0 0 .004-.078v-2.176c0-1.379-.084-4.007-.711-5.26a.671.671 0 1 0-1.202.601c.554 1.108.569 3.44.569 4.659v2.176a.68.68 0 0 0 .005.078Z"/><path d="M188.331 90.754c0 1.248-.154 2.604 0 3.84.071.564 0 2.097 0 2.08" style="fill:#fff"/><path d="M187.662 96.622a.453.453 0 0 0-.003.052l.003.006c.017.368.301.409.603.34.347.124.718.131.74-.355.011-.254.06-1.618-.007-2.154-.151-1.21.005-2.536.005-3.757a.672.672 0 0 0-1.344 0c0 1.276-.152 2.66.006 3.924.06.479.007 1.699-.003 1.927v.017Z"/><path d="M191.371 88.354c-1.233 1.234-.679 5.196-.96 6.88-.046.281.162.64-.16.64" style="fill:#fff"/><path d="M189.742 95.436a.672.672 0 0 0 .509 1.11c.283 0 .46-.1.584-.211a.803.803 0 0 0 .266-.534 1.288 1.288 0 0 0-.004-.276c-.006-.057-.033-.121-.023-.18.171-1.023.042-2.876.177-4.464.074-.862.189-1.645.596-2.052a.672.672 0 0 0-.951-.95c-.58.581-.879 1.657-.984 2.888-.132 1.55.003 3.359-.163 4.357a1.576 1.576 0 0 0-.007.312Z"/><path d="M210.251 74.754c-.816 1.634 1.154 5.406-.16 6.72" style="fill:#fff"/><path d="M209.65 74.454c-.206.413-.289.933-.274 1.516.017.722.178 1.558.32 2.378.105.611.2 1.211.188 1.736-.008.371-.052.699-.268.915a.672.672 0 0 0 .951.95c.649-.649.748-1.768.579-3.027-.121-.903-.354-1.884-.415-2.734-.031-.438-.028-.834.121-1.133a.672.672 0 1 0-1.202-.601Z"/><path d="M212.171 74.274c-.844.845.16 4.617.16 5.76" style="fill:#fff"/><path d="M211.696 73.799c-.343.344-.538 1.024-.534 1.879.005 1.469.497 3.557.497 4.356a.673.673 0 0 0 1.344 0c0-.695-.362-2.351-.47-3.748a5.863 5.863 0 0 1-.002-1.117c.022-.179.031-.335.116-.42a.672.672 0 0 0-.951-.95Z"/><path d="M220.171 65.794c0 2.441.16 5.316.16 8" style="fill:#fff"/><path d="M219.499 65.794c0 2.441.16 5.316.16 8a.673.673 0 0 0 1.344 0c0-2.684-.16-5.559-.16-8a.672.672 0 0 0-1.344 0Z"/><path d="M225.131 58.114c1.313 1.313-.213 7.787.8 8.8" style="fill:#fff"/><path d="M224.656 58.589c.09.09.142.229.19.393.074.249.117.547.144.877.092 1.12-.016 2.571-.071 3.869-.048 1.101-.052 2.1.092 2.749.092.414.252.719.445.912a.672.672 0 1 0 .951-.95c-.035-.034-.043-.095-.062-.163a3.112 3.112 0 0 1-.09-.592c-.062-.809.007-1.911.06-3.026.056-1.189.095-2.391-.028-3.31-.102-.771-.338-1.366-.68-1.709a.672.672 0 0 0-.951.95Z"/><path d="M14.118 190.827c-4.329 3.875-12.804 15.528-8.979 19.11 7.403 6.929 24.72-.646 25.319-.884 8.742-3.473 13.373-8.533 19.9-13.858 4.616-3.766 12.66-9.797 25.239-19.878 13.918-11.154 20.477-18.784 33.381-28.804 10.732-8.334 41.925-25.353 43.15-25.964 5.35-2.666 8.739-3.746 14.248-6.491 4.31-2.147 11.137-.175 16.283-.405 11.182-.501 14.504-4.494 19.54-7.709 13.255-8.46 33.186-24.764 37.858-34.077.246-.49-5.099-11.167-7.328-13.388-2.262-2.254-5.611 12.492-10.176 15.822-13.167 9.604-32.252 22.81-43.558 29.209-4.618 2.614-14.862-2.234-17.911-5.274-.549-.546-1.69-7.677-2.443-7.302-.415.207-2.509 10.615-5.699 13.793-3.88 3.867-23.92 15.757-27.681 18.256-6.924 4.601-41.321 25.661-49.257 29.615-15.601 7.775-25.735 14.244-45.592 25.964-6.751 3.985-10.853 7.395-16.294 12.265Z" style="fill:#fff"/><path d="M162.894 96.96c-.178-.713-.869-3.466-1.296-4.936-.332-1.147-.75-2.018-1.052-2.381-.944-1.132-2.007-1.083-2.873-.652-.212.106-.869.502-1.249 1.559-.401 1.115-1.27 4.684-2.52 7.977-.714 1.88-1.515 3.687-2.494 4.663-3.831 3.817-23.637 15.518-27.351 17.985-6.891 4.579-41.125 25.544-49.023 29.48-15.647 7.797-25.812 14.283-45.728 26.037-6.892 4.068-11.083 7.545-16.638 12.518-3.241 2.901-8.625 9.897-10.178 15.135-.904 3.048-.503 5.616 1.164 7.176 3.396 3.18 8.571 3.867 13.651 3.325 6.925-.737 13.578-3.627 13.953-3.776 8.979-3.567 13.766-8.722 20.471-14.193 4.612-3.763 12.652-9.791 25.224-19.866 13.908-11.146 20.46-18.771 33.354-28.783 10.641-8.263 41.573-25.131 42.787-25.736 5.351-2.666 8.739-3.746 14.248-6.491 1.845-.919 4.239-.866 6.713-.699 2.972.202 6.052.638 8.699.519 11.778-.527 15.306-4.661 20.611-8.046 13.554-8.651 33.853-25.412 38.63-34.934.117-.233.405-.988.033-2.098-.754-2.249-5.628-11.668-7.768-13.801-.742-.74-1.548-.941-2.347-.848-.712.083-1.586.501-2.376 1.497-1.146 1.447-2.525 4.793-4.058 8.152-1.272 2.786-2.601 5.632-4.208 6.804-13.104 9.558-32.096 22.706-43.347 29.074-1.443.817-3.589.524-5.796-.061-3.637-.964-7.44-2.986-9.236-4.6Zm69.403-35.536c1.894 2.784 4.571 8.073 5.428 10.2-5.2 9.201-24.078 24.438-36.694 32.49-4.768 3.043-7.884 6.896-18.469 7.37-3.042.136-6.681-.52-10.022-.6-2.642-.064-5.118.227-7.133 1.231-5.508 2.745-8.897 3.825-14.247 6.491-1.236.616-32.69 17.788-43.514 26.192-12.913 10.027-19.478 17.662-33.406 28.824-12.587 10.087-20.636 16.123-25.254 19.891-6.349 5.18-10.826 10.144-19.329 13.522-.345.137-6.449 2.816-12.81 3.494-3.78.402-7.697.188-10.224-2.177-.312-.293-.305-.749-.269-1.253.072-1.018.468-2.19 1.025-3.428 1.907-4.228 5.747-9.042 8.187-11.226 5.327-4.769 9.339-8.112 15.949-12.013 19.799-11.686 29.902-18.139 45.458-25.891 7.972-3.972 42.533-25.128 49.489-29.749 3.81-2.532 24.083-14.611 28.013-18.527 1.317-1.312 2.528-3.668 3.488-6.197.253-.665.49-1.341.711-2.007l.032.11c.267.86.64 1.398.845 1.603 2.004 1.997 6.822 4.752 11.466 5.983 3.449.914 6.794.918 9.048-.357 11.359-6.43 30.537-19.695 43.767-29.345 1.298-.947 2.562-2.636 3.697-4.676 1.461-2.628 2.77-5.859 3.925-8.35.248-.535.56-1.111.843-1.605Z"/><path d="M166.731 75.554c0-1.744.983-.629 1.6-.32.38.19.51-.48.96-.48" style="fill:#fff"/><path d="m167.408 75.442.037.024c.205.138.409.281.586.369.379.19.683.126.964-.062a1.76 1.76 0 0 0 .274-.241c.029-.031.08-.082.11-.112a.67.67 0 0 0-.088-1.338c-.258 0-.475.084-.665.218a2.238 2.238 0 0 0-.226.199c-.282-.178-.599-.415-.867-.505-.376-.127-.711-.077-.981.13-.23.176-.493.575-.493 1.43a.673.673 0 0 0 1.344 0c0-.037.002-.075.005-.112Z"/><path d="M172.971 70.594c-.868-.868 1.514-2.646 1.76-2.4.043.043.691 1.23.96.96.93-.929.201-2.72 2.4-2.72 1.057 0 1.071.64 2.08.64" style="fill:#fff"/><path d="M175.507 68.142a4.996 4.996 0 0 1-.153-.223 1.288 1.288 0 0 0-.147-.2.748.748 0 0 0-.522-.22c-.19-.005-.573.108-.983.384-.528.357-1.156.969-1.424 1.551-.277.6-.236 1.181.218 1.635a.672.672 0 0 0 .96-.94.62.62 0 0 1 .021-.082 1.14 1.14 0 0 1 .125-.231c.207-.304.529-.594.811-.791l.039-.026c.085.125.179.255.263.355.152.18.315.321.454.397.385.211.726.15.998-.122.456-.456.619-1.065.784-1.651.068-.242.124-.482.297-.651.163-.159.426-.221.843-.221.465 0 .646.192.884.327.298.17.637.313 1.196.313a.672.672 0 0 0 0-1.344c-.442 0-.613-.194-.853-.329-.3-.168-.649-.311-1.227-.311-.736 0-1.22.175-1.562.42-.371.264-.592.622-.744 1.03-.089.241-.153.501-.227.759a5.538 5.538 0 0 1-.051.171Z"/><path d="M188.171 55.074c-.726-.726 2.88-.753 2.88-.8" style="fill:#fff"/><path d="m190.91 53.617-.011.001c-.335.026-1.411.069-2.174.218-.462.09-.829.244-1.011.401a.84.84 0 0 0-.311.67c.003.189.067.416.293.642a.672.672 0 0 0 1.135-.346 5.71 5.71 0 0 1 .593-.117c.732-.094 1.538-.118 1.692-.139.573-.078.607-.595.607-.673a.672.672 0 0 0-.813-.657Zm-.379.233Zm.003-.005-.001.001.004-.004-.003.003Z"/><path d="M198.731 50.274c-.631-2.526 2.88-.665 2.88-1.28" style="fill:#fff"/><path d="M201.246 48.431a17.08 17.08 0 0 0-1.251-.183c-.75-.068-1.422.11-1.76.601-.22.319-.348.817-.156 1.588a.673.673 0 0 0 1.304-.326 1.439 1.439 0 0 1-.054-.418c.002-.031-.013-.058.004-.072.042-.035.105-.033.17-.04.104-.01.216-.007.331.002.312.025.64.093.918.143.461.082.841.077 1.026.004.336-.132.505-.374.505-.736a.672.672 0 0 0-1.037-.563Z"/><path d="M200.011 41.794c2.037-3.394 3.251-.657 6.08-1.6.71-.236 1.303-.8 2.08-.8" style="fill:#fff"/><path d="M200.588 42.14c.492-.82.89-1.229 1.316-1.373.411-.14.815-.024 1.265.076.87.195 1.857.415 3.135-.011.386-.129.743-.342 1.107-.528.24-.122.481-.238.76-.238a.672.672 0 0 0 0-1.344c-.498 0-.942.166-1.371.385-.304.155-.598.342-.921.45-1.281.427-2.196-.017-3.021-.146-.475-.074-.928-.073-1.386.083-.632.214-1.307.738-2.037 1.955a.672.672 0 0 0 1.153.691Z"/><path d="M204.971 40.994c-1.245-.622-2.313 2.634-2.88 3.2" style="fill:#fff"/><path d="M205.272 40.393c-.638-.319-1.272-.134-1.841.437-.506.508-.972 1.375-1.347 2.086-.19.359-.337.673-.468.803a.672.672 0 0 0 .951.95c.131-.131.293-.369.464-.677.298-.534.668-1.327 1.093-1.905.126-.171.254-.322.391-.425.053-.04.098-.096.156-.067a.67.67 0 1 0 .601-1.202Z"/><path d="M214.091 51.874c0-1.867 3.28-1.12 4.16-1.12" style="fill:#fff"/><path d="M214.763 51.874c0-.373.317-.477.66-.54.987-.18 2.322.092 2.828.092a.672.672 0 0 0 0-1.344c-.549 0-1.999-.266-3.07-.07-1.031.189-1.762.739-1.762 1.862a.673.673 0 0 0 1.344 0Z"/><path d="M219.051 49.154c1.047-2.094 1.918-.238 3.36-.96.523-.261 1.461-.96 1.92-.96" style="fill:#fff"/><path d="M219.652 49.455c.193-.386.327-.596.513-.653.184-.057.366.034.568.088.582.156 1.219.285 1.979-.095.318-.159.789-.477 1.215-.707.161-.087.299-.182.404-.182a.672.672 0 0 0 0-1.344c-.212 0-.498.077-.807.223-.47.224-1.044.624-1.413.808-.271.136-.511.117-.73.073-.231-.048-.449-.119-.659-.164-.42-.089-.819-.084-1.219.125-.337.177-.702.524-1.053 1.227a.673.673 0 0 0 1.202.601Z"/><path d="M176.171 79.714c.901-2.703 3.665-1.775 5.28-.16" style="fill:#fff"/><path d="M176.809 79.927c.711-2.133 2.893-1.172 4.167.102a.672.672 0 1 0 .951-.95c-.764-.764-1.761-1.384-2.73-1.629-.73-.185-1.447-.161-2.07.12-.667.302-1.249.899-1.593 1.932a.672.672 0 0 0 1.275.425Z"/><path d="M182.891 72.034c-.168-.168-.067-.253.16-.48 1.395-1.394 2.073-.16 3.04-.16" style="fill:#fff"/><path d="M183.562 71.995c.25-.245.456-.38.652-.421.299-.063.538.096.785.206.352.156.707.286 1.092.286a.672.672 0 0 0 0-1.344c-.299 0-.553-.18-.83-.294-.381-.157-.778-.257-1.225-.187-.42.066-.904.283-1.46.838-.381.381-.465.681-.433.914.022.153.087.33.273.516a.672.672 0 0 0 1.146-.514Z"/><path d="M193.291 70.114c-1.169-2.339 2.732-.96 3.2-.96" style="fill:#fff"/><path d="M193.766 69.461c.114-.017.32-.042.471-.033.904.053 2.016.398 2.254.398a.672.672 0 0 0 .026-1.343 83.48 83.48 0 0 1-.69-.152c-.655-.148-1.513-.305-2.128-.233-.571.068-.978.327-1.172.722-.165.335-.208.853.163 1.595a.672.672 0 0 0 1.202-.601 2.013 2.013 0 0 1-.126-.353Z"/><path d="M199.851 63.874c.568-2.837 3.351-1.755 5.28-2.72" style="fill:#fff"/><path d="M200.51 64.006c.101-.503.28-.848.538-1.079.427-.381 1.021-.467 1.643-.549.921-.123 1.903-.204 2.741-.623a.671.671 0 0 0-.601-1.202c-.912.456-2.031.407-2.984.601-.754.153-1.42.432-1.918.996-.332.376-.595.884-.737 1.592a.671.671 0 1 0 1.318.264Z"/></svg>