<svg viewBox="0 0 492 492" xmlns="http://www.w3.org/2000/svg" xml:space="preserve" style="fill-rule:evenodd;clip-rule:evenodd;stroke-linejoin:round;stroke-miterlimit:2"><path d="M630.518 308.579c-2.288 2.289 16.461 35.423 20.687 39.65 10.096 10.096 8.799 48.448 18.963 58.613 4.735 4.735 14.54 14.546 21.354 17.953 7.573 3.786 29.448 7.081 44.316 7.286 22.059.304 58.715-32.012 72.748-40.983 27.729-17.729 86.176-54.81 108.788-74.606 21.419-18.752 38.808-48.601 45.858-80.317 1.404-6.315-6.283-23.023 0-29.306.78-.78 15.011-18.248 13.792-20.687-3.14-6.28-51.159-14.957-58.613-22.411-3.756-3.756-10.775 6.464-12.068 5.172-4.956-4.956-62.348-31.749-74.128-25.859-19.593 9.797-9.365 28.328-20.686 39.65-5.554 5.554-15.181 4.837-20.687 10.343-4.381 4.381-6.281 13.176-10.344 17.239-2.986 2.987-14.056.266-17.239 3.448-15.124 15.125-34.571 32.848-48.269 46.546-1.944 1.944-3.876-1.724-5.172-1.724-12.094 0-11.45 4.555-18.963 12.067-1.133 1.133-11.16-4.355-15.515 0-4.315 4.315-1.981 14.049-5.172 17.239-1.516 1.516-9.035-1.724-12.067-1.724-8.634 0-7.374 13.792-17.239 13.792-.58 0-11.046 5.171-6.896 5.171" style="fill:#fff" transform="scale(.48)"/><path d="M372.731 98.521c-.53.038-2.288.163-3.346.212-2.223.1-4.156.699-5.176 1.719-6.789 6.79-15.393 14.67-21.858 21.04a1.935 1.935 0 0 0-.187-.1 3.495 3.495 0 0 0-1.451-.319c-4.843 0-6.56 1.265-8.294 3.223-.583.658-1.154 1.46-1.958 2.382-.99-.246-2.51-.582-3.562-.624-1.887-.076-3.626.439-4.891 1.704-1.27 1.27-1.913 3.116-2.19 5.1l-.298 2.14a41.71 41.71 0 0 1-.971-.235c-1.04-.27-2.008-.45-2.66-.45-2.865 0-4.58 1.583-5.934 3.778-.433.702-.82 1.478-1.306 2.152-.245.34-.507.69-1.035.69a3.17 3.17 0 0 0-1.003.162c-.384.123-1.76.747-2.914 1.42-1.417.826-2.409 1.95-2.638 2.48-.1.23-.174.454-.222.672a3.31 3.31 0 0 0-1.29 2.223c-.088.622.045 1.895.673 3.528 1.925 5.006 8.474 16.158 10.203 17.887.696.696 1.162 1.818 1.606 3.137.889 2.635 1.482 5.973 2.09 9.309.664 3.646 1.343 7.29 2.32 10.176.798 2.359 1.837 4.262 3.086 5.512 2.438 2.438 7.534 7.435 11.042 9.189 3.864 1.932 15.008 3.714 22.593 3.818 4.68.065 10.654-2.49 16.548-6.062 8.025-4.863 16.002-11.497 20.055-14.089 13.406-8.571 41.652-26.515 52.584-36.086 10.72-9.385 19.451-24.309 22.98-40.184.392-1.761-.311-4.993-.847-8.202-.19-1.131-.339-2.26-.266-3.261.031-.43.028-.845.293-1.11.325-.325 5.143-6.216 6.73-9.211 1.032-1.949.791-3.575.46-4.237-.314-.63-.937-1.38-1.993-2.05-1.203-.764-3.284-1.613-5.842-2.458-4.508-1.488-10.645-3.088-15.373-4.67-2.562-.858-4.683-1.558-5.497-2.371-1.316-1.317-2.88-1.586-4.564-1.065-.927.287-2.324 1.291-3.311 2.066a49.162 49.162 0 0 0-3.064-1.713c-5.465-2.828-14.695-6.88-22.01-9.005-2.88-.837-5.488-1.375-7.513-1.486-1.882-.104-3.39.182-4.43.702-5.841 2.921-7.31 7.092-8.09 11.429-.246 1.364-.411 2.744-.694 4.078-.314 1.481-.758 2.916-1.938 4.096-1.27 1.27-3.165 1.532-4.879 2.11-1.89.638-3.66 1.465-5.05 2.855-1.276 1.276-2.251 3.157-3.143 5.053-.508 1.08-.95 2.18-1.575 2.946Zm66.96-16.942a7.02 7.02 0 0 0-.392.293c-.698.575-1.343 1.172-1.82 1.511-2.045 1.455-3.77.685-4.59-.135-.409-.41-1.768-1.124-3.637-2.092-5.193-2.686-13.96-6.544-20.91-8.564-1.998-.58-3.833-1.008-5.365-1.185-.93-.108-1.68-.235-2.15 0-4.46 2.23-4.625 5.78-5.149 9.09-.542 3.422-1.324 6.705-3.989 9.37-1.4 1.4-3.174 2.232-5.065 2.87-1.714.58-3.606.837-4.865 2.096-1.045 1.045-1.655 2.768-2.39 4.292-.751 1.562-1.58 2.988-2.575 3.982-.969.97-2.885 1.562-5.124 1.653-1.08.043-2.947.196-3.383.233-7.224 7.209-16.431 15.606-22.937 22.111-1.38 1.38-2.774 1.41-4.103.915-.38-.142-.948-.528-1.364-.834-.899.036-1.538.148-2.039.41-.59.307-.936.811-1.399 1.387-.705.877-1.502 1.91-2.68 3.087-.508.508-1.717 1.22-3.56.837-.737-.154-1.903-.559-3.082-.718-.27-.037-.725-.021-.893-.014-.235.319-.255.776-.329 1.218-.118.714-.175 1.456-.252 2.153-.226 2.054-.807 3.792-1.813 4.798-.597.598-1.577 1.113-2.955 1.086-.857-.016-2.105-.3-3.317-.621-.652-.173-1.276-.4-1.676-.4-.334 0-.4.353-.563.6-.483.724-.902 1.555-1.395 2.31-1.27 1.942-2.907 3.46-5.616 3.682l-1.205.657a3.056 3.056 0 0 1-1.141 1.359c1.53 3.06 7.32 14.532 8.766 15.979 1.243 1.243 2.277 3.143 3.072 5.5.97 2.878 1.646 6.518 2.31 10.164.608 3.335 1.204 6.674 2.097 9.313.449 1.325.921 2.455 1.623 3.157 2.108 2.107 6.425 6.53 9.458 8.046 3.406 1.704 13.262 3.084 19.95 3.176 3.792.052 8.53-2.286 13.304-5.18 7.977-4.835 15.902-11.436 19.931-14.012 13.214-8.448 41.077-26.103 51.853-35.536 9.842-8.617 17.805-22.347 21.044-36.92.098-.442-.035-1.053-.15-1.76-.29-1.794-.8-3.936-1.014-5.942-.341-3.198.204-6.08 1.984-7.86.22-.218 2.802-3.405 4.56-5.994.142-.21.289-.44.429-.67l-.158-.07c-1.66-.696-3.944-1.425-6.456-2.179-5.206-1.563-11.33-3.217-15.288-4.812-1.481-.597-2.702-1.229-3.591-1.837Zm-134.79 68.593-.097.101a2.73 2.73 0 0 0 .096-.1Zm.082-.095-.025.03.02-.023.005-.007Zm131.96-71.37Z"/><path d="M639.138 320.646c-1.594 1.594-.125 0 1.724 0 16.343 0 44.554 43.098 46.545 43.098 2.786 0 13.795-10.347 15.516-12.067 4.805-4.805 9.122 17.742 10.343 18.963 3.067 3.067 13.169-16.137 18.963-10.344 8.888 8.888 0 62.048 0 68.957" style="fill:#fff" transform="scale(.48)"/><path d="M307.188 150.89a3.043 3.043 0 0 0-2.557.865c-1.383 1.383-1.22 2.456-1.219 2.553.019.918.384 1.599.918 2.121.452.442 1.143.904 2.237.867.07-.002.824-.22 1.205-.332.74.051 1.533.454 2.393.974 1.31.792 2.677 1.914 4.048 3.197 4.501 4.213 8.958 10.108 11.419 13.207 1.338 1.685 2.395 2.685 2.765 2.892a3.12 3.12 0 0 0 1.558.411c.61 0 1.657-.252 2.832-.99 1.34-.844 3.25-2.466 4.72-3.784.503 1.346.936 2.88 1.276 4.032.3 1.012.565 1.8.741 2.169.234.488.5.801.688.99.848.848 1.858 1.175 3.03 1.021.842-.111 2.087-.731 3.331-1.93.74-.714 1.585-1.661 2.455-2.507a9.63 9.63 0 0 1 .696-.598c.05.22.095.462.148.718.267 1.297.392 2.89.432 4.65.209 9.148-1.882 22.31-1.882 24.625a3.05 3.05 0 0 0 3.048 3.048 3.05 3.05 0 0 0 3.048-3.048c0-2.328 2.09-15.565 1.88-24.764-.06-2.65-.314-4.997-.8-6.764-.457-1.663-1.161-2.914-1.973-3.726-2.23-2.23-5.311-1.702-8.169.853-.43.385-.948.881-1.458 1.382-.352-1.095-.749-2.25-1.112-3.128-.613-1.478-1.363-2.667-2.062-3.317-.838-.778-1.751-1.106-2.621-1.14-.95-.036-1.98.237-2.956 1.213-.448.449-3.143 2.67-4.768 4.002-2.788-3.48-8.342-10.839-13.65-15.354-3.255-2.767-6.553-4.436-9.215-4.436-.14 0-.282.01-.426.028Z"/><path d="M735.677 363.744c1.961 0 3.935-5.659 5.171-6.896.813-.812 2.636-.812 3.448 0 10.062 10.063 30.855-8.443 39.65-17.239 2.317-2.316 16.376-.43 18.963-1.723 8.016-4.008 6.156-14.284 12.067-17.24 3.937-1.968 20.611-1.647 24.135-5.171 4.712-4.712.445-9.51 3.448-15.515 4.036-8.072 18.256-4.466 24.135-10.344 5.367-5.367 24.965-29.245 27.582-34.478 5.157-10.314 23.015-20.127 31.03-24.135 5.104-2.551 3.952-12.571 6.896-15.515 9.011-9.011 23.833-13.49 31.03-20.687 3.124-3.123 9.631-13.078 1.724-5.171" style="fill:#fff" transform="scale(.48)"/><path d="M460.154 91.39c-1.553 1.533-3.938 2.736-6.39 4.081-3.003 1.648-6.102 3.448-8.462 5.808-.883.883-1.5 2.523-1.898 4.406-.13.622-.256 1.275-.449 1.874a5.84 5.84 0 0 1-.287.655c-2.445 1.227-6.584 3.476-10.077 6.18-2.644 2.046-4.9 4.38-6.065 6.709-1.198 2.397-10.21 13.3-12.668 15.757-.465.465-1.172.602-1.9.768-1.33.301-2.78.468-4.11.773-2.714.623-4.958 1.84-6.146 4.217-.845 1.69-.933 3.233-.873 4.703.016.4.046.79.043 1.174-.001.217-.004.437-.148.647-.408.099-2.54.604-4.028.78-2.877.342-5.76.707-6.87 1.262-1.818.91-2.87 2.575-3.644 4.617-.262.692-.501 1.434-.834 2.14-.242.511-.533 1.022-1.066 1.374-.708-.003-4.13-.012-5.958.104-2.025.128-3.54.793-4.185 1.438-2.337 2.337-6.556 6.263-10.544 8.034-.838.372-1.655.646-2.431.727-.656.068-1.272-.012-1.746-.486-.714-.713-1.827-1.185-2.983-1.185-1.157 0-2.27.472-2.983 1.185-.261.261-.59.694-.909 1.254l-.872 1.532a3.05 3.05 0 0 0 1.454 5.727c.866 0 1.82-.316 2.674-1.137.345-.332.804-1.009 1.205-1.662 2.572 1.35 5.751 1.089 9.066-.383 4.415-1.962 9.132-6.105 11.935-8.856.83-.024 3.876-.11 5.45-.136 1.536-.024 2.744-.28 3.305-.56 2.27-1.135 3.489-2.92 4.321-4.859.348-.81.618-1.644.925-2.409.157-.39.19-.828.546-1.007.339-.169 1.001-.202 1.78-.303 1.881-.243 4.242-.441 6.133-.81 2.057-.4 3.665-1.142 4.463-1.94 1.587-1.587 1.993-3.174 2.037-4.844.016-.62-.038-1.257-.054-1.918-.01-.46-.018-.953.243-1.477.3-.6.976-.72 1.642-.899.95-.254 1.988-.399 3.003-.576 2.503-.438 4.835-1.164 6.37-2.698 2.694-2.695 12.496-14.714 13.81-17.342.816-1.632 2.49-3.18 4.343-4.615 3.197-2.474 7-4.512 9.188-5.606 1.71-.856 2.798-2.562 3.386-4.64.324-1.143.789-3.175.869-3.527 2.388-2.32 5.668-3.917 8.575-5.529 2.413-1.338 4.609-2.694 6.167-4.252.92-.921 2.345-2.856 2.939-3.958.334-.62.49-1.148.543-1.469.282-1.683-.562-2.635-1.312-3.148-.589-.403-1.535-.849-2.913-.331-.37.138-1.293.666-2.74 2.113a3.04 3.04 0 0 0-.87 2.523Z"/><path d="M794.29 396.498c-1.599 1.599-1.724 2.537-1.724 0" style="fill:#fff" transform="scale(.48)"/><path d="M380.846 189.04a1.345 1.345 0 0 0-1.758 1.278c0 .649.064 1.008.12 1.16.136.377.36.582.557.712.29.19.614.268.982.209a1.46 1.46 0 0 0 .744-.358c.131-.114.355-.408.718-.772a1.345 1.345 0 0 0-1.363-2.228Z"/><path d="M676.048 373.476c2.76 1.38.239 3.146 1.333 5.334 2.629 5.257 5.333 16.89 5.333 23.333 0 2.933 1.334 6.36 1.334 8.667 0 .797.666 5.655.666 4.666" style="fill:#fff" transform="scale(.48)"/><path d="M323.755 180.385a5.48 5.48 0 0 0-.097.84c0 .386.074.787.283 1.205 1.194 2.388 2.418 7.673 2.418 10.599 0 1.407.64 3.052.64 4.16 0 .352.234 2.158.325 2.545.137.586.493.814.574.869.329.224.657.263.957.218.134-.02 1.152-.183 1.152-1.393 0-.173-.033-.339-.093-.491-.067-.441-.227-1.537-.227-1.748 0-1.108-.64-2.753-.64-4.16 0-3.26-1.373-9.142-2.702-11.802-.064-.127.033-.24.055-.348a4.07 4.07 0 0 0 .093-.693c.018-.752-.164-1.506-1.389-2.12a1.345 1.345 0 0 0-1.349 2.319Zm3.663 18.538Z"/><path d="M690.714 379.476c0 2.368 5.063 27.063 6 28 1.811 1.811-.984 14.667 2 14.667" style="fill:#fff" transform="scale(.48)"/><path d="M333.32 196.359c.019.17.084.825.077 1.319-.014 1.21-.113 2.659-.028 3.703.06.752.24 1.352.476 1.723.375.589.897.869 1.538.869a1.345 1.345 0 0 0 .725-2.475 9.896 9.896 0 0 1-.087-1.102c-.005-1.344.125-2.977.023-4.02-.064-.658-.253-1.165-.478-1.5a3.4 3.4 0 0 1-.053-.152c-.7-2.188-2.626-11.584-2.626-12.576a1.345 1.345 0 0 0-2.688 0c0 .935 1.574 8.923 2.45 12.315.199.768.375 1.326.486 1.573.06.133.125.24.186.323Z"/><path d="M715.381 394.143c2.459 4.919 2.667 15.252 2.667 20.667v8.666" style="fill:#fff" transform="scale(.48)"/><path d="M343.328 203.616c.08 1.545.708 1.913 1.335 1.712.627.202 1.254-.167 1.335-1.712.006-.052.009-.105.009-.156v-4.351c0-2.76-.169-8.015-1.422-10.521a1.344 1.344 0 1 0-2.404 1.202c1.108 2.216 1.138 6.88 1.138 9.319v4.35c0 .052.003.105.009.157Z"/><path d="M784.714 378.143c0 5.2-.644 10.848 0 16 .294 2.35 0 8.735 0 8.667" style="fill:#fff" transform="scale(.48)"/><path d="M375.323 193.244c-.003.035-.004.07-.004.105 0 .003.002.007.005.011.034.737.601.818 1.206.679.693.249 1.436.263 1.48-.708.022-.51.12-3.238-.013-4.309-.303-2.42.01-5.071.01-7.513a1.344 1.344 0 0 0-2.688 0c0 2.55-.306 5.32.01 7.846.12.96.015 3.4-.005 3.856l-.001.033Z"/><path d="M797.381 368.143c-5.14 5.139-2.831 21.649-4 28.667-.195 1.168.672 2.666-.667 2.666" style="fill:#fff" transform="scale(.48)"/><path d="M379.484 190.873a1.345 1.345 0 0 0 1.019 2.22c.565 0 .92-.2 1.168-.422.293-.263.483-.616.531-1.068a2.59 2.59 0 0 0-.007-.553c-.012-.113-.066-.242-.046-.36.34-2.046.082-5.751.353-8.928.147-1.724.378-3.29 1.191-4.103a1.345 1.345 0 0 0-1.9-1.9c-1.162 1.16-1.76 3.313-1.969 5.775-.264 3.1.006 6.717-.327 8.714a3.221 3.221 0 0 0-.013.625Z"/><path d="M876.048 311.476c-3.403 6.806 4.807 22.526-.667 28" style="fill:#fff" transform="scale(.48)"/><path d="M419.3 148.908c-.413.827-.577 1.865-.549 3.033.035 1.442.357 3.114.64 4.756.211 1.22.4 2.422.377 3.472-.017.74-.104 1.398-.536 1.83a1.345 1.345 0 0 0 1.901 1.9c1.3-1.3 1.498-3.537 1.16-6.055-.243-1.805-.709-3.768-.83-5.467-.063-.877-.057-1.669.242-2.268a1.344 1.344 0 0 0-2.404-1.201Z"/><path d="M884.048 309.476c-3.52 3.52.666 19.238.666 24" style="fill:#fff" transform="scale(.48)"/><path d="M423.393 147.598c-.687.687-1.077 2.048-1.07 3.757.011 2.94.996 7.115.996 8.713a1.345 1.345 0 0 0 2.688 0c0-1.39-.725-4.701-.941-7.497-.064-.82-.083-1.591-.004-2.232.043-.36.062-.67.231-.84a1.345 1.345 0 0 0-1.9-1.9Z"/><path d="M917.381 274.143c0 10.17.667 22.15.667 33.333" style="fill:#fff" transform="scale(.48)"/><path d="M438.999 131.589c0 4.881.32 10.632.32 16a1.344 1.344 0 0 0 2.688 0c0-5.368-.32-11.119-.32-16a1.345 1.345 0 0 0-2.688 0Z"/><path d="M938.048 242.143c5.468 5.468-.891 32.443 3.333 36.667" style="fill:#fff" transform="scale(.48)"/><path d="M449.313 117.179c.179.18.282.457.38.784.146.499.234 1.095.288 1.755.183 2.24-.033 5.142-.144 7.738-.094 2.202-.103 4.2.185 5.499.183.826.505 1.438.89 1.824a1.345 1.345 0 0 0 1.901-1.9c-.069-.07-.084-.191-.123-.327-.091-.328-.145-.729-.18-1.183-.124-1.62.013-3.823.12-6.053.112-2.377.189-4.783-.055-6.62-.205-1.541-.677-2.733-1.362-3.418a1.344 1.344 0 0 0-1.9 1.901Z"/><path d="M41.001 807.506c-18.379 16.508-54.36 66.151-38.118 81.408 31.426 29.521 104.946-2.751 107.492-3.765 37.113-14.793 56.777-36.349 84.487-59.036 19.595-16.042 53.746-41.739 107.153-84.685 59.09-47.516 86.935-80.022 141.718-122.707 45.565-35.503 177.996-108.009 183.197-110.61 22.715-11.357 37.101-15.957 60.489-27.652 18.298-9.149 47.285-.747 69.131-1.728 47.473-2.133 61.576-19.144 82.957-32.837 56.277-36.042 140.894-105.501 160.733-145.175 1.04-2.088-21.652-47.572-31.113-57.033-9.604-9.605-23.824 53.217-43.206 67.403-55.901 40.913-136.928 97.174-184.925 124.435-19.608 11.136-63.097-9.521-76.044-22.467-2.328-2.328-7.173-32.708-10.37-31.109-1.764.882-10.655 45.22-24.195 58.761-16.473 16.472-101.554 67.126-117.523 77.772-29.397 19.598-175.43 109.318-209.121 126.164-66.238 33.119-109.26 60.679-193.566 110.609-28.662 16.975-46.076 31.503-69.176 52.252Z" style="fill:#fff" transform="matrix(.47108 0 0 .46947 8.92 2.556)"/><path d="M325.789 193.92c-.357-1.427-1.74-6.931-2.592-9.872-.666-2.295-1.501-4.036-2.106-4.762-1.887-2.265-4.014-2.167-5.745-1.304-.424.212-1.738 1.004-2.499 3.118-.8 2.229-2.54 9.369-5.04 15.953-1.427 3.762-3.03 7.374-4.988 9.326-7.66 7.635-47.274 31.037-54.7 35.971-13.784 9.158-82.25 51.089-98.047 58.96-31.295 15.595-51.625 28.566-91.456 52.075-13.784 8.136-22.167 15.09-33.277 25.035-6.48 5.801-17.249 19.793-20.355 30.27-1.807 6.097-1.005 11.233 2.327 14.353 6.792 6.358 17.142 7.732 27.302 6.65 13.852-1.476 27.156-7.254 27.906-7.552 17.96-7.134 27.533-17.446 40.943-28.387 9.225-7.527 25.304-19.583 50.448-39.733 27.815-22.29 40.92-37.541 66.708-57.565 21.282-16.526 83.145-50.26 85.575-51.472 10.7-5.332 17.477-7.491 28.495-12.981 3.69-1.84 8.479-1.734 13.426-1.398 5.944.403 12.104 1.275 17.398 1.038 23.556-1.055 30.612-9.323 41.221-16.094 27.108-17.302 67.707-50.823 77.264-69.868.23-.465.806-1.975.061-4.196-1.507-4.496-11.254-23.336-15.534-27.602-1.484-1.478-3.096-1.882-4.695-1.695-1.423.165-3.172 1.002-4.75 2.994-2.293 2.893-5.052 9.585-8.118 16.303-2.543 5.573-5.201 11.266-8.415 13.61-26.208 19.115-64.191 45.41-86.694 58.147-2.886 1.633-7.178 1.048-11.593-.122-7.273-1.927-14.879-5.972-18.47-9.2Zm138.804-71.072c3.789 5.569 9.143 16.147 10.858 20.401-10.4 18.4-48.158 48.876-73.39 64.98-9.535 6.085-15.767 13.79-36.938 14.738-6.084.273-13.36-1.038-20.044-1.2-5.284-.127-10.235.455-14.264 2.463-11.018 5.49-17.795 7.65-28.496 12.982-2.47 1.231-65.38 35.575-87.027 52.385-25.826 20.054-38.955 35.324-66.813 57.648-25.174 20.174-41.27 32.245-50.507 39.78-12.698 10.362-21.651 20.29-38.658 27.045-.69.274-12.897 5.632-25.62 6.988-7.56.805-15.395.376-20.448-4.355-.624-.584-.609-1.496-.538-2.505.144-2.036.935-4.38 2.05-6.855 3.814-8.456 11.494-18.086 16.373-22.453 10.655-9.537 18.68-16.224 31.9-24.027 39.597-23.372 59.802-36.277 90.914-51.78 15.945-7.946 85.066-50.256 98.98-59.5 7.619-5.062 48.165-29.22 56.024-37.053 2.635-2.625 5.057-7.336 6.977-12.394.505-1.33.98-2.682 1.42-4.013l.066.219c.535 1.72 1.279 2.796 1.69 3.207 4.008 3.994 13.644 9.504 22.933 11.965 6.896 1.827 13.588 1.836 18.094-.714 22.718-12.86 61.075-39.39 87.534-58.69 2.598-1.894 5.124-5.272 7.394-9.352 2.923-5.256 5.542-11.719 7.852-16.7a44.047 44.047 0 0 1 1.684-3.21Z"/><path d="M694.714 314.81c0-7.267 4.093-2.621 6.667-1.334 1.58.79 2.124-2 4-2" style="fill:#fff" transform="scale(.48)"/><path d="m334.815 150.883.075.049c.41.276.819.562 1.172.739.757.379 1.366.25 1.928-.126.185-.124.368-.293.547-.481.058-.062.162-.164.222-.223a1.345 1.345 0 0 0-.176-2.677c-.518 0-.952.169-1.33.437a4.303 4.303 0 0 0-.453.397c-.564-.356-1.199-.831-1.734-1.01-.752-.254-1.422-.154-1.962.26-.46.352-.985 1.15-.985 2.86a1.345 1.345 0 0 0 2.688 0c0-.074.003-.15.008-.225Z"/><path d="M720.714 294.143c-3.619-3.619 6.307-11.027 7.334-10 .178.178 2.877 5.123 4 4 3.872-3.873.836-11.333 10-11.333 4.402 0 4.458 2.666 8.666 2.666" style="fill:#fff" transform="scale(.48)"/><path d="M351.015 136.284c-.134-.187-.25-.355-.307-.446a2.48 2.48 0 0 0-.295-.4 1.488 1.488 0 0 0-1.044-.439c-.379-.011-1.146.215-1.964.767-1.058.714-2.312 1.937-2.849 3.101-.554 1.202-.473 2.363.436 3.272a1.345 1.345 0 0 0 1.92-1.88 1.19 1.19 0 0 1 .042-.164 2.27 2.27 0 0 1 .25-.463c.413-.609 1.058-1.187 1.622-1.582l.078-.052c.17.25.357.51.526.711.304.36.63.64.909.794.769.42 1.451.299 1.994-.244.912-.912 1.239-2.132 1.57-3.304.135-.483.248-.963.594-1.302.325-.317.85-.44 1.686-.44.93 0 1.292.382 1.766.653.598.34 1.274.626 2.394.626a1.344 1.344 0 0 0 0-2.688c-.885 0-1.227-.388-1.708-.658-.6-.335-1.297-.621-2.452-.621-1.472 0-2.441.35-3.125.838-.74.53-1.185 1.244-1.488 2.061-.178.482-.305 1.003-.453 1.518-.033.114-.066.228-.102.342Z"/><path d="M784.048 229.476c-3.028-3.028 12-3.14 12-3.333" style="fill:#fff" transform="scale(.48)"/><path d="m381.82 107.235-.021.002c-.671.052-2.823.137-4.35.435-.922.18-1.656.488-2.02.803-.454.392-.632.86-.623 1.338.006.378.134.833.587 1.286a1.344 1.344 0 0 0 2.269-.693 11.47 11.47 0 0 1 1.186-.234c1.464-.187 3.076-.236 3.384-.278 1.146-.155 1.215-1.19 1.215-1.345a1.345 1.345 0 0 0-1.628-1.314Zm-.758.464a1.287 1.287 0 0 0-.303.85c0-.322.113-.619.303-.85Zm.007-.009-.002.003.008-.01-.006.007Z"/><path d="M828.048 209.476c-2.632-10.526 12-2.773 12-5.333" style="fill:#fff" transform="scale(.48)"/><path d="M402.491 96.862c-.524-.093-1.7-.293-2.5-.366-1.502-.136-2.845.22-3.522 1.202-.439.639-.696 1.635-.31 3.176a1.345 1.345 0 0 0 2.608-.652c-.084-.333-.124-.608-.11-.836.004-.062-.025-.116.009-.144.084-.07.21-.067.34-.08.208-.02.432-.014.662.005.624.049 1.28.185 1.836.285.921.164 1.681.155 2.052.009.671-.265 1.011-.749 1.011-1.472a1.345 1.345 0 0 0-2.076-1.127Z"/><path d="M833.381 174.143c8.485-14.141 13.545-2.737 25.333-6.667 2.955-.985 5.426-3.333 8.667-3.333" style="fill:#fff" transform="scale(.48)"/><path d="M401.175 84.28c.984-1.64 1.781-2.458 2.633-2.747.823-.28 1.63-.048 2.53.153 1.74.39 3.714.83 6.27-.023.772-.257 1.486-.683 2.214-1.055.48-.244.963-.475 1.52-.475a1.345 1.345 0 0 0 0-2.688c-.997 0-1.884.332-2.741.77-.609.31-1.197.683-1.843.899-2.563.854-4.391-.034-6.043-.291-.948-.148-1.855-.146-2.77.165-1.265.429-2.614 1.475-4.075 3.909a1.345 1.345 0 0 0 2.305 1.383Z"/><path d="M854.048 170.81c-5.188-2.594-9.641 10.973-12 13.333" style="fill:#fff" transform="scale(.48)"/><path d="M410.544 80.786c-1.275-.637-2.544-.267-3.681.873-1.014 1.017-1.945 2.751-2.695 4.174-.38.718-.675 1.344-.935 1.605a1.345 1.345 0 0 0 1.9 1.901c.263-.263.587-.74.93-1.354.595-1.07 1.335-2.655 2.185-3.811.252-.342.508-.644.781-.85.107-.08.196-.191.313-.133a1.345 1.345 0 0 0 1.202-2.405Z"/><path d="M892.048 216.143c0-7.782 13.665-4.667 17.333-4.667" style="fill:#fff" transform="scale(.48)"/><path d="M429.527 103.749c0-.747.633-.955 1.32-1.08 1.973-.361 4.643.183 5.656.183a1.345 1.345 0 0 0 0-2.688c-1.1 0-3.998-.531-6.14-.14-2.063.377-3.524 1.479-3.524 3.725a1.345 1.345 0 0 0 2.688 0Z"/><path d="M912.714 204.81c4.363-8.725 7.988-.994 14-4 2.178-1.089 6.087-4 8-4" style="fill:#fff" transform="scale(.48)"/><path d="M439.305 98.91c.386-.772.653-1.192 1.024-1.306.37-.114.733.068 1.137.176 1.163.311 2.438.57 3.958-.19.637-.318 1.578-.954 2.43-1.413.322-.174.597-.364.809-.364a1.345 1.345 0 0 0 0-2.688c-.426 0-.997.152-1.615.446-.94.447-2.088 1.247-2.826 1.615-.542.272-1.021.234-1.46.145-.463-.094-.898-.238-1.318-.327-.841-.178-1.638-.169-2.437.25-.675.354-1.404 1.049-2.106 2.453a1.345 1.345 0 0 0 2.404 1.203Z"/><path d="M734.048 332.143c3.754-11.263 15.27-7.396 22-.667" style="fill:#fff" transform="scale(.48)"/><path d="M353.618 159.853c1.422-4.265 5.785-2.343 8.335.206a1.344 1.344 0 0 0 1.9-1.9c-1.528-1.529-3.521-2.77-5.46-3.26-1.46-.37-2.893-.321-4.138.24-1.336.604-2.499 1.799-3.187 3.864a1.345 1.345 0 0 0 2.55.85Z"/><path d="M762.048 300.143c-.702-.702-.279-1.055.666-2 5.809-5.809 8.634-.667 12.667-.667" style="fill:#fff" transform="scale(.48)"/><path d="M367.124 143.99c.5-.49.913-.759 1.304-.842.598-.125 1.076.192 1.57.41.704.314 1.414.574 2.185.574a1.345 1.345 0 0 0 0-2.688c-.599 0-1.107-.36-1.662-.588-.76-.313-1.555-.514-2.448-.374-.841.131-1.81.565-2.92 1.676-.762.762-.932 1.363-.866 1.828.043.306.173.66.546 1.033a1.344 1.344 0 0 0 2.291-1.03Z"/><path d="M805.381 292.143c-4.875-9.749 11.382-4 13.333-4" style="fill:#fff" transform="scale(.48)"/><path d="M387.533 138.922c.227-.034.638-.084.942-.067 1.806.107 4.031.798 4.508.798a1.345 1.345 0 0 0 .052-2.687c-.059-.013-.778-.167-1.38-.304-1.31-.297-3.028-.61-4.258-.465-1.141.134-1.956.653-2.343 1.443-.33.67-.415 1.706.327 3.19a1.344 1.344 0 0 0 2.404-1.202 3.797 3.797 0 0 1-.252-.706Z"/><path d="M832.714 266.143c2.365-11.822 13.961-7.314 22-11.333" style="fill:#fff" transform="scale(.48)"/><path d="M401.02 128.012c.202-1.007.56-1.696 1.076-2.157.854-.763 2.042-.935 3.287-1.1 1.842-.245 3.805-.407 5.48-1.244a1.345 1.345 0 0 0-1.201-2.405c-1.825.913-4.062.814-5.968 1.201-1.507.306-2.84.865-3.835 1.993-.665.753-1.19 1.768-1.474 3.185a1.344 1.344 0 0 0 2.636.527Z"/></svg>