<?xml version="1.0" encoding="UTF-8" standalone="no"?>
<!DOCTYPE svg PUBLIC "-//W3C//DTD SVG 1.1//EN" "http://www.w3.org/Graphics/SVG/1.1/DTD/svg11.dtd">
<svg width="100%" height="100%" viewBox="0 0 492 492" version="1.1" xmlns="http://www.w3.org/2000/svg" xmlns:xlink="http://www.w3.org/1999/xlink" xml:space="preserve" xmlns:serif="http://www.serif.com/" style="fill-rule:evenodd;clip-rule:evenodd;stroke-linejoin:round;stroke-miterlimit:2;">
    <g transform="matrix(0.48,0,0,0.48,0,0)">
        <g>
            <path d="M630.518,308.579C628.23,310.868 646.979,344.002 651.205,348.229C661.301,358.325 660.004,396.677 670.168,406.842C674.903,411.577 684.708,421.388 691.522,424.795C699.095,428.581 720.97,431.876 735.838,432.081C757.897,432.385 794.553,400.069 808.586,391.098C836.315,373.369 894.762,336.288 917.374,316.492C938.793,297.74 956.182,267.891 963.232,236.175C964.636,229.86 956.949,213.152 963.232,206.869C964.012,206.089 978.243,188.621 977.024,186.182C973.884,179.902 925.865,171.225 918.411,163.771C914.655,160.015 907.636,170.235 906.343,168.943C901.387,163.987 843.995,137.194 832.215,143.084C812.622,152.881 822.85,171.412 811.529,182.734C805.975,188.288 796.348,187.571 790.842,193.077C786.461,197.458 784.561,206.253 780.498,210.316C777.512,213.303 766.442,210.582 763.259,213.764C748.135,228.889 728.688,246.612 714.99,260.31C713.046,262.254 711.114,258.586 709.818,258.586C697.724,258.586 698.368,263.141 690.855,270.653C689.722,271.786 679.695,266.298 675.34,270.653C671.025,274.968 673.359,284.702 670.168,287.892C668.652,289.408 661.133,286.168 658.101,286.168C649.467,286.168 650.727,299.96 640.862,299.96C640.282,299.96 629.816,305.131 633.966,305.131" style="fill:white;"/>
            <path d="M776.523,205.252C775.42,205.332 771.756,205.592 769.552,205.693C764.92,205.904 760.894,207.149 758.769,209.274C744.625,223.419 726.7,239.836 713.231,253.11C713.085,253.023 712.953,252.951 712.842,252.901C711.797,252.428 710.775,252.236 709.818,252.236C699.73,252.236 696.151,254.871 692.539,258.95C691.325,260.321 690.136,261.991 688.46,263.912C686.399,263.401 683.23,262.699 681.039,262.612C677.108,262.455 673.486,263.527 670.85,266.163C668.203,268.81 666.865,272.654 666.286,276.786L665.666,281.247C664.943,281.08 664.218,280.905 663.643,280.756C661.479,280.193 659.46,279.818 658.101,279.818C652.134,279.818 648.56,283.116 645.739,287.69C644.837,289.152 644.03,290.769 643.019,292.172C642.509,292.881 641.962,293.61 640.862,293.61C640.477,293.61 639.749,293.634 638.772,293.948C637.973,294.205 635.105,295.504 632.703,296.906C629.75,298.628 627.684,300.967 627.206,302.072C626.998,302.552 626.844,303.019 626.744,303.473C626.494,303.657 626.254,303.863 626.028,304.089C625.127,304.991 624.317,306.269 624.056,308.104C623.872,309.4 624.15,312.052 625.458,315.454C629.468,325.884 643.113,349.117 646.715,352.719C648.164,354.168 649.135,356.507 650.061,359.255C651.912,364.743 653.148,371.697 654.414,378.648C655.798,386.244 657.213,393.837 659.248,399.848C660.911,404.762 663.075,408.728 665.678,411.332C670.757,416.411 681.373,426.82 688.682,430.474C696.732,434.499 719.947,438.212 735.751,438.43C745.5,438.565 757.946,433.243 770.224,425.801C786.943,415.668 803.562,401.847 812.006,396.448C839.936,378.591 898.781,341.209 921.557,321.269C943.891,301.716 962.08,270.625 969.431,237.553C970.247,233.883 968.783,227.15 967.666,220.464C967.272,218.108 966.961,215.757 967.112,213.67C967.177,212.774 967.17,211.911 967.722,211.359C968.4,210.681 978.437,198.409 981.744,192.168C983.893,188.109 983.392,184.72 982.703,183.342C982.047,182.03 980.75,180.466 978.551,179.07C976.044,177.479 971.708,175.711 966.379,173.951C956.988,170.849 944.203,167.516 934.353,164.219C929.015,162.433 924.596,160.976 922.901,159.281C920.158,156.538 916.901,155.978 913.392,157.063C911.46,157.66 908.549,159.753 906.493,161.367C904.764,160.307 902.61,159.09 900.11,157.797C888.725,151.906 869.495,143.466 854.257,139.038C848.256,137.294 842.823,136.172 838.605,135.941C834.683,135.726 831.543,136.321 829.376,137.405C817.206,143.49 814.144,152.179 812.52,161.214C812.009,164.057 811.664,166.932 811.075,169.711C810.42,172.796 809.496,175.786 807.038,178.244C804.392,180.89 800.443,181.436 796.873,182.64C792.934,183.969 789.247,185.692 786.352,188.587C783.694,191.245 781.662,195.165 779.805,199.114C778.746,201.365 777.825,203.658 776.523,205.252ZM916.024,169.957C915.727,170.164 915.429,170.383 915.206,170.567C913.752,171.764 912.408,173.009 911.415,173.715C907.155,176.745 903.561,175.141 901.853,173.433C901.001,172.581 898.168,171.091 894.274,169.076C883.456,163.479 865.192,155.441 850.713,151.233C846.551,150.024 842.727,149.133 839.535,148.764C837.599,148.54 836.036,148.274 835.055,148.764C825.766,153.409 825.421,160.808 824.33,167.701C823.201,174.831 821.571,181.671 816.019,187.224C813.103,190.14 809.406,191.872 805.467,193.204C801.895,194.412 797.955,194.945 795.332,197.568C793.154,199.746 791.883,203.335 790.354,206.51C788.787,209.764 787.059,212.736 784.988,214.807C782.969,216.826 778.977,218.061 774.312,218.249C772.062,218.339 768.173,218.659 767.265,218.736C752.214,233.754 733.033,251.247 719.48,264.8C716.605,267.675 713.7,267.738 710.931,266.707C710.138,266.411 708.957,265.607 708.09,264.969C706.217,265.043 704.886,265.277 703.842,265.821C702.611,266.463 701.892,267.513 700.927,268.713C699.459,270.539 697.797,272.692 695.345,275.143C694.286,276.202 691.767,277.687 687.928,276.887C686.391,276.566 683.963,275.723 681.507,275.391C680.944,275.315 679.995,275.347 679.646,275.362C679.157,276.027 679.114,276.979 678.961,277.901C678.715,279.387 678.596,280.934 678.436,282.385C677.964,286.664 676.755,290.286 674.658,292.382C673.414,293.627 671.373,294.699 668.502,294.644C666.716,294.61 664.116,294.019 661.592,293.349C660.234,292.989 658.934,292.518 658.101,292.518C657.404,292.518 657.268,293.252 656.927,293.765C655.92,295.275 655.048,297.007 654.02,298.58C651.376,302.624 647.964,305.788 642.32,306.249L639.81,307.618C639.314,308.781 638.481,309.767 637.433,310.45C640.622,316.826 652.683,340.726 655.696,343.739C658.286,346.329 660.44,350.287 662.096,355.197C664.117,361.193 665.525,368.778 666.908,376.372C668.174,383.32 669.416,390.278 671.277,395.776C672.212,398.536 673.196,400.889 674.659,402.352C679.049,406.742 688.044,415.956 694.362,419.115C701.459,422.664 721.992,425.539 735.926,425.731C743.824,425.84 753.695,420.968 763.642,414.94C780.261,404.867 796.771,391.115 805.165,385.748C832.694,368.147 890.742,331.367 913.191,311.714C933.695,293.763 950.285,265.158 957.034,234.797C957.238,233.877 956.96,232.604 956.722,231.132C956.118,227.393 955.053,222.932 954.608,218.753C953.898,212.089 955.034,206.087 958.742,202.379C959.199,201.922 964.579,195.284 968.242,189.889C968.537,189.453 968.843,188.973 969.135,188.494L968.806,188.349C965.349,186.897 960.589,185.38 955.356,183.809C944.511,180.553 931.751,177.107 923.506,173.783C920.42,172.539 917.878,171.223 916.024,169.957ZM635.209,312.859L635.009,313.069C635.077,313.001 635.144,312.931 635.209,312.859ZM635.381,312.661L635.33,312.721L635.37,312.674L635.381,312.661ZM910.297,163.972C910.511,164.149 910.69,164.309 910.834,164.453C910.661,164.28 910.483,164.12 910.297,163.972Z"/>
            <path d="M639.138,320.646C637.544,322.24 639.013,320.646 640.862,320.646C657.205,320.646 685.416,363.744 687.407,363.744C690.193,363.744 701.202,353.397 702.923,351.677C707.728,346.872 712.045,369.419 713.266,370.64C716.333,373.707 726.435,354.503 732.229,360.296C741.117,369.184 732.229,422.344 732.229,429.253" style="fill:white;"/>
            <path d="M639.976,314.354C638.084,314.103 636.1,314.704 634.648,316.156C631.767,319.037 632.105,321.272 632.109,321.474C632.147,323.388 632.908,324.806 634.021,325.894C634.963,326.815 636.402,327.778 638.681,327.701C638.826,327.696 640.398,327.242 641.192,327.009C642.735,327.115 644.386,327.955 646.177,329.038C648.908,330.688 651.755,333.026 654.61,335.698C663.988,344.475 673.272,356.757 678.399,363.212C681.188,366.723 683.39,368.807 684.16,369.237C685.438,369.95 686.566,370.094 687.407,370.094C688.676,370.094 690.858,369.569 693.306,368.03C696.099,366.273 700.078,362.894 703.138,360.148C704.187,362.953 705.089,366.147 705.798,368.548C706.421,370.656 706.974,372.297 707.342,373.066C707.83,374.084 708.382,374.736 708.776,375.13C710.541,376.895 712.646,377.578 715.086,377.257C716.841,377.025 719.435,375.733 722.027,373.235C723.568,371.748 725.33,369.775 727.142,368.012C727.544,367.62 728.077,367.175 728.592,366.767C728.697,367.226 728.79,367.729 728.9,368.262C729.457,370.964 729.717,374.285 729.8,377.949C730.235,397.009 725.879,424.43 725.879,429.253C725.879,432.757 728.724,435.603 732.229,435.603C735.734,435.603 738.579,432.757 738.579,429.253C738.579,424.403 742.934,396.826 742.497,377.66C742.371,372.141 741.842,367.25 740.83,363.569C739.877,360.105 738.41,357.497 736.719,355.806C732.074,351.161 725.654,352.26 719.701,357.584C718.806,358.385 717.724,359.419 716.662,360.463C715.929,358.181 715.103,355.776 714.345,353.945C713.069,350.866 711.506,348.39 710.05,347.036C708.305,345.414 706.402,344.731 704.589,344.662C702.61,344.586 700.464,345.155 698.432,347.187C697.497,348.122 691.884,352.749 688.497,355.524C682.689,348.275 671.118,332.944 660.06,323.538C653.28,317.772 646.409,314.296 640.862,314.296C640.572,314.296 640.275,314.317 639.976,314.354Z"/>
            <path d="M735.677,363.744C737.638,363.744 739.612,358.085 740.848,356.848C741.661,356.036 743.484,356.036 744.296,356.848C754.358,366.911 775.151,348.405 783.946,339.609C786.263,337.293 800.322,339.179 802.909,337.886C810.925,333.878 809.065,323.602 814.976,320.646C818.913,318.678 835.587,318.999 839.111,315.475C843.823,310.763 839.556,305.965 842.559,299.96C846.595,291.888 860.815,295.494 866.694,289.616C872.061,284.249 891.659,260.371 894.276,255.138C899.433,244.824 917.291,235.011 925.306,231.003C930.41,228.452 929.258,218.432 932.202,215.488C941.213,206.477 956.035,201.998 963.232,194.801C966.356,191.678 972.863,181.723 964.956,189.63" style="fill:white;"/>
            <path d="M958.655,190.396C955.419,193.59 950.449,196.095 945.342,198.898C939.086,202.331 932.63,206.081 927.712,210.998C925.873,212.837 924.586,216.255 923.759,220.177C923.486,221.472 923.224,222.833 922.823,224.081C922.681,224.523 922.337,225.225 922.226,225.446C917.131,228.003 908.509,232.687 901.231,238.32C895.723,242.584 891.022,247.446 888.596,252.298C886.1,257.291 867.324,280.006 862.204,285.126C861.236,286.094 859.763,286.38 858.245,286.725C855.476,287.353 852.455,287.7 849.685,288.336C844.03,289.633 839.355,292.169 836.879,297.12C835.118,300.641 834.935,303.857 835.06,306.918C835.094,307.753 835.156,308.566 835.15,309.364C835.147,309.817 835.141,310.276 834.842,310.712C833.992,310.918 829.55,311.97 826.449,312.338C820.456,313.051 814.449,313.81 812.137,314.967C808.349,316.861 806.16,320.332 804.546,324.585C803.999,326.028 803.502,327.573 802.808,329.043C802.304,330.109 801.697,331.172 800.588,331.906C799.112,331.899 791.984,331.882 788.175,332.123C783.957,332.389 780.799,333.776 779.456,335.119C774.587,339.988 765.798,348.166 757.489,351.857C755.744,352.632 754.041,353.202 752.424,353.37C751.059,353.512 749.774,353.346 748.787,352.359C747.301,350.872 744.982,349.889 742.572,349.889C740.163,349.889 737.844,350.872 736.358,352.358C735.814,352.902 735.13,353.804 734.465,354.97L732.647,358.163C730.67,359.24 729.327,361.336 729.327,363.744C729.327,367.249 732.172,370.094 735.677,370.094C737.481,370.094 739.467,369.436 741.248,367.725C741.967,367.034 742.922,365.623 743.758,364.262C749.117,367.074 755.74,366.531 762.645,363.464C771.843,359.377 781.671,350.746 787.51,345.015C789.24,344.965 795.586,344.785 798.864,344.732C802.064,344.681 804.581,344.149 805.749,343.565C810.478,341.201 813.018,337.482 814.752,333.442C815.477,331.753 816.039,330.017 816.68,328.423C817.007,327.611 817.074,326.697 817.816,326.326C818.523,325.973 819.902,325.904 821.524,325.694C825.444,325.188 830.362,324.774 834.302,324.007C838.588,323.172 841.938,321.628 843.601,319.965C846.907,316.659 847.753,313.353 847.843,309.872C847.877,308.58 847.765,307.254 847.732,305.878C847.709,304.918 847.693,303.891 848.238,302.799C848.863,301.55 850.271,301.301 851.659,300.928C853.636,300.398 855.801,300.096 857.915,299.727C863.129,298.815 867.987,297.303 871.184,294.106C876.798,288.492 897.219,263.452 899.956,257.978C901.656,254.578 905.145,251.351 909.005,248.363C915.664,243.208 923.588,238.962 928.146,236.683C931.71,234.901 933.975,231.346 935.2,227.018C935.875,224.636 936.843,220.402 937.01,219.668C941.985,214.836 948.819,211.509 954.875,208.15C959.903,205.362 964.477,202.537 967.722,199.292C969.641,197.373 972.609,193.341 973.845,191.046C974.542,189.753 974.866,188.654 974.977,187.986C975.564,184.48 973.806,182.495 972.244,181.427C971.017,180.588 969.045,179.659 966.174,180.737C965.406,181.025 963.481,182.124 960.466,185.14C959.032,186.574 958.428,188.525 958.655,190.396Z"/>
            <path d="M794.29,396.498C792.691,398.097 792.566,399.035 792.566,396.498" style="fill:white;"/>
            <path d="M793.429,393.835C793.157,393.746 792.867,393.698 792.566,393.698C791.02,393.698 789.766,394.953 789.766,396.498C789.766,397.847 789.901,398.595 790.017,398.914C790.301,399.698 790.765,400.126 791.177,400.396C791.782,400.793 792.456,400.955 793.222,400.831C793.629,400.766 794.188,400.595 794.773,400.085C795.046,399.847 795.513,399.235 796.269,398.478C797.362,397.386 797.362,395.611 796.27,394.518C795.501,393.75 794.397,393.522 793.429,393.835Z"/>
            <path d="M676.048,373.476C678.808,374.856 676.287,376.622 677.381,378.81C680.01,384.067 682.714,395.7 682.714,402.143C682.714,405.076 684.048,408.503 684.048,410.81C684.048,411.607 684.714,416.465 684.714,415.476" style="fill:white;"/>
            <path d="M674.49,375.802C674.4,376.305 674.286,377.046 674.287,377.553C674.289,378.356 674.441,379.192 674.877,380.062C677.364,385.037 679.914,396.047 679.914,402.143C679.914,405.076 681.248,408.503 681.248,410.81C681.248,411.544 681.736,415.307 681.925,416.113C682.211,417.333 682.953,417.808 683.12,417.922C683.806,418.389 684.49,418.471 685.114,418.377C685.393,418.335 687.514,417.996 687.514,415.476C687.514,415.115 687.446,414.769 687.32,414.452C687.182,413.533 686.848,411.25 686.848,410.81C686.848,408.503 685.514,405.076 685.514,402.143C685.514,395.354 682.655,383.097 679.885,377.557C679.752,377.291 679.955,377.055 680.001,376.831C680.102,376.331 680.182,375.848 680.194,375.388C680.232,373.821 679.853,372.249 677.3,370.972C675.918,370.281 674.234,370.842 673.543,372.224C672.906,373.499 673.334,375.031 674.49,375.802ZM682.121,414.422C682.019,414.651 681.938,414.941 681.92,415.307C681.938,414.995 682.008,414.697 682.121,414.422Z"/>
            <path d="M690.714,379.476C690.714,381.844 695.777,406.539 696.714,407.476C698.525,409.287 695.73,422.143 698.714,422.143" style="fill:white;"/>
            <path d="M694.418,409.081C694.456,409.434 694.591,410.799 694.578,411.829C694.547,414.351 694.341,417.368 694.518,419.544C694.645,421.111 695.018,422.361 695.51,423.133C696.292,424.36 697.379,424.943 698.714,424.943C700.26,424.943 701.514,423.688 701.514,422.143C701.514,421.154 701.001,420.285 700.226,419.787C700.155,419.235 700.045,418.253 700.043,417.492C700.033,414.691 700.304,411.29 700.092,409.116C699.958,407.746 699.564,406.689 699.095,405.992C699.063,405.906 699.019,405.781 698.986,405.676C697.529,401.117 693.514,381.541 693.514,379.476C693.514,377.931 692.26,376.676 690.714,376.676C689.169,376.676 687.914,377.931 687.914,379.476C687.914,381.423 691.194,398.064 693.019,405.132C693.433,406.732 693.799,407.894 694.032,408.408C694.158,408.686 694.292,408.907 694.418,409.081Z"/>
            <path d="M715.381,394.143C717.84,399.062 718.048,409.395 718.048,414.81C718.048,417.494 718.048,426.189 718.048,423.476" style="fill:white;"/>
            <path d="M715.266,424.201C715.434,427.418 716.741,428.186 718.048,427.766C719.355,428.187 720.661,427.419 720.829,424.201C720.841,424.092 720.848,423.982 720.848,423.874L720.848,414.81C720.848,409.062 720.496,398.112 717.885,392.891C717.194,391.508 715.511,390.947 714.129,391.638C712.747,392.33 712.185,394.013 712.877,395.395C715.185,400.012 715.248,409.728 715.248,414.81L715.248,423.874C715.248,423.982 715.254,424.092 715.266,424.201Z"/>
            <path d="M784.714,378.143C784.714,383.343 784.07,388.991 784.714,394.143C785.008,396.493 784.714,402.878 784.714,402.81" style="fill:white;"/>
            <path d="M781.923,402.592C781.917,402.664 781.914,402.736 781.914,402.81C781.914,402.816 781.918,402.824 781.925,402.834C781.995,404.368 783.177,404.537 784.437,404.248C785.882,404.766 787.429,404.796 787.519,402.772C787.567,401.71 787.772,396.028 787.493,393.796C786.863,388.756 787.514,383.231 787.514,378.143C787.514,376.597 786.26,375.343 784.714,375.343C783.169,375.343 781.914,376.597 781.914,378.143C781.914,383.456 781.278,389.227 781.936,394.49C782.186,396.488 781.967,401.572 781.925,402.522L781.923,402.592Z"/>
            <path d="M797.381,368.143C792.241,373.282 794.55,389.792 793.381,396.81C793.186,397.978 794.053,399.476 792.714,399.476" style="fill:white;"/>
            <path d="M790.592,397.652C790.169,398.141 789.914,398.779 789.914,399.476C789.914,401.022 791.169,402.276 792.714,402.276C793.892,402.276 794.631,401.859 795.147,401.397C795.759,400.849 796.155,400.115 796.255,399.172C796.292,398.833 796.285,398.442 796.239,398.021C796.214,397.785 796.102,397.516 796.143,397.27C796.853,393.008 796.315,385.289 796.879,378.671C797.185,375.079 797.667,371.817 799.361,370.123C800.454,369.03 800.454,367.256 799.361,366.163C798.268,365.07 796.494,365.07 795.401,366.163C792.982,368.582 791.737,373.066 791.3,378.195C790.749,384.654 791.312,392.19 790.619,396.349C790.562,396.694 790.567,397.198 790.592,397.652Z"/>
            <path d="M876.048,311.476C872.645,318.282 880.855,334.002 875.381,339.476" style="fill:white;"/>
            <path d="M873.543,310.224C872.681,311.948 872.34,314.111 872.398,316.543C872.47,319.548 873.142,323.032 873.732,326.452C874.171,328.995 874.566,331.498 874.517,333.685C874.482,335.229 874.3,336.597 873.401,337.496C872.308,338.589 872.308,340.363 873.401,341.456C874.494,342.549 876.268,342.549 877.361,341.456C880.068,338.749 880.481,334.087 879.776,328.842C879.27,325.081 878.301,320.992 878.047,317.452C877.917,315.624 877.929,313.975 878.552,312.728C879.243,311.346 878.682,309.663 877.3,308.972C875.918,308.281 874.234,308.842 873.543,310.224Z"/>
            <path d="M884.048,309.476C880.528,312.996 884.714,328.714 884.714,333.476" style="fill:white;"/>
            <path d="M882.068,307.496C880.637,308.927 879.826,311.763 879.84,315.323C879.863,321.448 881.914,330.145 881.914,333.476C881.914,335.022 883.169,336.276 884.714,336.276C886.26,336.276 887.514,335.022 887.514,333.476C887.514,330.579 886.005,323.681 885.554,317.857C885.421,316.146 885.382,314.541 885.545,313.206C885.636,312.457 885.675,311.809 886.027,311.456C887.12,310.363 887.12,308.589 886.027,307.496C884.935,306.404 883.16,306.404 882.068,307.496Z"/>
            <path d="M917.381,274.143C917.381,284.313 918.048,296.293 918.048,307.476" style="fill:white;"/>
            <path d="M914.581,274.143C914.581,284.313 915.248,296.293 915.248,307.476C915.248,309.022 916.502,310.276 918.048,310.276C919.593,310.276 920.848,309.022 920.848,307.476C920.848,296.293 920.181,284.313 920.181,274.143C920.181,272.597 918.926,271.343 917.381,271.343C915.836,271.343 914.581,272.597 914.581,274.143Z"/>
            <path d="M938.048,242.143C943.516,247.611 937.157,274.586 941.381,278.81" style="fill:white;"/>
            <path d="M936.068,244.123C936.441,244.496 936.657,245.076 936.859,245.757C937.165,246.795 937.348,248.037 937.46,249.413C937.842,254.079 937.392,260.126 937.16,265.533C936.964,270.121 936.945,274.284 937.545,276.989C937.927,278.711 938.597,279.985 939.401,280.789C940.494,281.882 942.268,281.882 943.361,280.789C944.454,279.697 944.454,277.922 943.361,276.83C943.217,276.686 943.185,276.433 943.105,276.15C942.914,275.467 942.802,274.632 942.729,273.685C942.47,270.312 942.757,265.721 942.978,261.076C943.213,256.123 943.373,251.111 942.864,247.282C942.438,244.072 941.454,241.59 940.027,240.163C938.935,239.07 937.16,239.07 936.068,240.163C934.975,241.256 934.975,243.03 936.068,244.123Z"/>
            <g transform="matrix(0.98142,0,0,0.97806,18.5848,5.32469)">
                <path d="M41.001,807.506C22.622,824.014 -13.359,873.657 2.883,888.914C34.309,918.435 107.829,886.163 110.375,885.149C147.488,870.356 167.152,848.8 194.862,826.113C214.457,810.071 248.608,784.374 302.015,741.428C361.105,693.912 388.95,661.406 443.733,618.721C489.298,583.218 621.729,510.712 626.93,508.111C649.645,496.754 664.031,492.154 687.419,480.459C705.717,471.31 734.704,479.712 756.55,478.731C804.023,476.598 818.126,459.587 839.507,445.894C895.784,409.852 980.401,340.393 1000.24,300.719C1001.28,298.631 978.588,253.147 969.127,243.686C959.523,234.081 945.303,296.903 925.921,311.089C870.02,352.002 788.993,408.263 740.996,435.524C721.388,446.66 677.899,426.003 664.952,413.057C662.624,410.729 657.779,380.349 654.582,381.948C652.818,382.83 643.927,427.168 630.387,440.709C613.914,457.181 528.833,507.835 512.864,518.481C483.467,538.079 337.434,627.799 303.743,644.645C237.505,677.764 194.483,705.324 110.177,755.254C81.515,772.229 64.101,786.757 41.001,807.506Z" style="fill:white;"/>
                <path d="M672.64,407.62C671.883,404.579 668.948,392.854 667.137,386.591C665.724,381.702 663.951,377.993 662.668,376.448C658.662,371.623 654.146,371.832 650.472,373.67C649.572,374.12 646.783,375.808 645.168,380.312C643.467,385.059 639.777,400.267 634.47,414.293C631.439,422.305 628.038,430 623.88,434.158C607.619,450.419 523.528,500.268 507.764,510.778C478.504,530.284 333.165,619.6 299.633,636.367C233.2,669.584 190.045,697.213 105.492,747.289C76.231,764.62 58.437,779.432 34.853,800.615C21.095,812.973 -1.763,842.776 -8.357,865.093C-12.193,878.08 -10.491,889.019 -3.416,895.666C11.001,909.209 32.972,912.136 54.539,909.83C83.943,906.687 112.185,894.379 113.778,893.744C151.901,878.548 172.224,856.584 200.689,833.279C220.272,817.246 254.404,791.566 307.779,748.645C366.824,701.165 394.644,668.679 449.386,626.026C494.563,590.826 625.884,518.968 631.041,516.389C653.756,505.031 668.142,500.431 691.53,488.737C699.364,484.82 709.529,485.045 720.031,485.76C732.648,486.618 745.725,488.475 756.962,487.97C806.968,485.723 821.945,468.113 844.466,453.69C902.01,416.836 988.192,345.434 1008.48,304.866C1008.97,303.876 1010.19,300.66 1008.61,295.929C1005.41,286.351 984.72,246.222 975.634,237.135C972.483,233.985 969.062,233.126 965.668,233.523C962.646,233.876 958.934,235.659 955.584,239.901C950.716,246.064 944.861,260.318 938.352,274.628C932.953,286.498 927.311,298.624 920.489,303.616C864.854,344.335 784.225,400.344 736.456,427.475C730.331,430.954 721.22,429.707 711.848,427.215C696.408,423.11 680.263,414.494 672.64,407.62ZM967.29,256.23C975.332,268.092 986.697,290.624 990.338,299.686C968.26,338.881 888.111,403.794 834.548,438.098C814.308,451.06 801.079,467.472 756.138,469.491C743.222,470.072 727.776,467.279 713.589,466.935C702.372,466.663 691.862,467.904 683.309,472.181C659.92,483.876 645.534,488.476 622.819,499.834C617.574,502.456 484.033,575.611 438.08,611.416C383.256,654.133 355.386,686.659 296.251,734.211C242.812,777.183 208.642,802.895 189.036,818.947C162.08,841.016 143.075,862.163 106.973,876.553C105.51,877.136 79.596,888.55 52.587,891.437C36.541,893.152 19.908,892.238 9.182,882.162C7.856,880.917 7.889,878.974 8.04,876.826C8.346,872.488 10.025,867.494 12.393,862.224C20.488,844.212 36.791,823.7 47.148,814.397C69.765,794.082 86.8,779.839 114.862,763.219C198.92,713.435 241.81,685.945 307.854,652.923C341.702,635.998 488.43,545.874 517.965,526.184C534.139,515.402 620.209,463.944 636.893,447.26C642.485,441.668 647.627,431.633 651.704,420.858C652.775,418.026 653.782,415.146 654.719,412.311L654.857,412.777C655.993,416.442 657.572,418.734 658.446,419.608C666.954,428.116 687.408,439.852 707.126,445.095C721.765,448.987 735.97,449.006 745.536,443.573C793.762,416.182 875.185,359.669 931.352,318.561C936.865,314.526 942.229,307.331 947.047,298.639C953.251,287.445 958.811,273.678 963.714,263.067C964.766,260.79 966.09,258.334 967.29,256.23Z"/>
            </g>
            <path d="M694.714,314.81C694.714,307.543 698.807,312.189 701.381,313.476C702.961,314.266 703.505,311.476 705.381,311.476" style="fill:white;"/>
            <path d="M697.531,314.34L697.687,314.441C698.54,315.016 699.393,315.613 700.129,315.981C701.707,316.77 702.975,316.503 704.145,315.719C704.532,315.46 704.912,315.109 705.286,314.716C705.407,314.588 705.623,314.374 705.747,314.252C707.119,314.073 708.181,312.898 708.181,311.476C708.181,309.931 706.926,308.676 705.381,308.676C704.303,308.676 703.398,309.027 702.61,309.585C702.333,309.781 701.973,310.112 701.666,310.412C700.492,309.67 699.169,308.681 698.055,308.307C696.487,307.78 695.092,307.988 693.966,308.85C693.009,309.583 691.914,311.246 691.914,314.81C691.914,316.355 693.169,317.61 694.714,317.61C696.26,317.61 697.514,316.355 697.514,314.81C697.514,314.654 697.52,314.496 697.531,314.34Z"/>
            <path d="M720.714,294.143C717.095,290.524 727.021,283.116 728.048,284.143C728.226,284.321 730.925,289.266 732.048,288.143C735.92,284.27 732.884,276.81 742.048,276.81C746.45,276.81 746.506,279.476 750.714,279.476" style="fill:white;"/>
            <path d="M731.281,283.924C731.003,283.536 730.759,283.186 730.641,282.996C730.341,282.511 730.094,282.229 730.027,282.163C729.53,281.666 728.828,281.276 727.853,281.248C727.063,281.225 725.465,281.695 723.76,282.845C721.557,284.333 718.943,286.882 717.825,289.307C716.67,291.81 716.84,294.229 718.734,296.123C719.827,297.215 721.601,297.216 722.694,296.123C723.773,295.044 723.787,293.301 722.735,292.206C722.751,292.122 722.784,291.963 722.821,291.864C722.941,291.544 723.126,291.222 723.343,290.901C724.203,289.632 725.546,288.427 726.721,287.605L726.884,287.496C727.237,288.015 727.628,288.558 727.98,288.977C728.612,289.727 729.291,290.312 729.872,290.631C731.474,291.508 732.896,291.254 734.028,290.123C735.928,288.223 736.608,285.681 737.296,283.24C737.58,282.234 737.814,281.233 738.535,280.528C739.212,279.867 740.306,279.61 742.048,279.61C743.984,279.61 744.739,280.407 745.727,280.97C746.972,281.68 748.382,282.276 750.714,282.276C752.26,282.276 753.514,281.022 753.514,279.476C753.514,277.931 752.26,276.676 750.714,276.676C748.87,276.676 748.158,275.866 747.156,275.305C745.907,274.606 744.454,274.01 742.048,274.01C738.981,274.01 736.962,274.739 735.537,275.757C733.994,276.859 733.069,278.348 732.438,280.051C732.066,281.054 731.802,282.139 731.493,283.213C731.424,283.45 731.356,283.688 731.281,283.924Z"/>
            <path d="M784.048,229.476C781.02,226.448 796.048,226.336 796.048,226.143" style="fill:white;"/>
            <path d="M795.457,223.406L795.414,223.41C794.016,223.518 789.533,223.696 786.354,224.317C784.431,224.692 782.902,225.333 782.143,225.989C781.197,226.807 780.827,227.782 780.845,228.778C780.859,229.565 781.124,230.513 782.068,231.456C783.16,232.549 784.935,232.549 786.027,231.456C786.437,231.047 786.693,230.542 786.795,230.013C787.514,229.837 788.471,229.626 789.266,229.524C792.317,229.135 795.675,229.033 796.316,228.946C798.704,228.622 798.848,226.468 798.848,226.143C798.848,224.597 797.593,223.343 796.048,223.343C795.845,223.343 795.647,223.364 795.457,223.406ZM793.879,224.373C793.398,224.952 793.248,225.568 793.248,226.143C793.248,225.472 793.484,224.855 793.879,224.373ZM793.893,224.355L793.889,224.36L793.906,224.341L793.893,224.355Z"/>
            <path d="M828.048,209.476C825.416,198.95 840.048,206.703 840.048,204.143" style="fill:white;"/>
            <path d="M838.523,201.795C837.431,201.602 834.982,201.185 833.314,201.034C830.186,200.749 827.387,201.491 825.978,203.538C825.063,204.868 824.528,206.943 825.331,210.155C825.706,211.654 827.227,212.567 828.727,212.193C830.226,211.818 831.139,210.296 830.764,208.797C830.59,208.103 830.507,207.53 830.536,207.054C830.544,206.926 830.484,206.813 830.554,206.755C830.73,206.607 830.993,206.615 831.263,206.588C831.696,206.546 832.163,206.559 832.641,206.597C833.941,206.699 835.308,206.984 836.466,207.191C838.386,207.533 839.969,207.514 840.741,207.21C842.14,206.659 842.848,205.65 842.848,204.143C842.848,202.597 841.593,201.343 840.048,201.343C839.485,201.343 838.962,201.509 838.523,201.795Z"/>
            <path d="M833.381,174.143C841.866,160.002 846.926,171.406 858.714,167.476C861.669,166.491 864.14,164.143 867.381,164.143" style="fill:white;"/>
            <path d="M835.782,175.583C837.832,172.167 839.492,170.463 841.267,169.861C842.981,169.279 844.662,169.761 846.537,170.18C850.164,170.992 854.274,171.908 859.6,170.132C861.209,169.596 862.696,168.708 864.213,167.934C865.212,167.425 866.218,166.943 867.381,166.943C868.926,166.943 870.181,165.688 870.181,164.143C870.181,162.597 868.926,161.343 867.381,161.343C865.303,161.343 863.454,162.035 861.668,162.946C860.4,163.593 859.174,164.371 857.829,164.82C852.49,166.6 848.681,164.75 845.24,164.214C843.264,163.906 841.376,163.91 839.467,164.558C836.834,165.452 834.022,167.632 830.98,172.702C830.185,174.027 830.615,175.749 831.94,176.544C833.265,177.339 834.987,176.909 835.782,175.583Z"/>
            <path d="M854.048,170.81C848.86,168.216 844.407,181.783 842.048,184.143" style="fill:white;"/>
            <path d="M855.3,168.305C852.643,166.977 849.999,167.747 847.631,170.123C845.519,172.242 843.58,175.855 842.016,178.819C841.226,180.314 840.611,181.619 840.068,182.163C838.975,183.256 838.975,185.03 840.068,186.123C841.16,187.215 842.935,187.215 844.027,186.123C844.576,185.574 845.25,184.582 845.963,183.302C847.204,181.074 848.745,177.771 850.517,175.362C851.042,174.649 851.575,174.021 852.144,173.592C852.367,173.424 852.553,173.193 852.795,173.314C854.178,174.005 855.861,173.444 856.552,172.062C857.243,170.679 856.682,168.996 855.3,168.305Z"/>
            <path d="M892.048,216.143C892.048,208.361 905.713,211.476 909.381,211.476" style="fill:white;"/>
            <path d="M894.848,216.143C894.848,214.587 896.167,214.154 897.596,213.893C901.709,213.141 907.27,214.276 909.381,214.276C910.926,214.276 912.181,213.022 912.181,211.476C912.181,209.931 910.926,208.676 909.381,208.676C907.09,208.676 901.052,207.568 896.589,208.384C892.292,209.169 889.248,211.464 889.248,216.143C889.248,217.688 890.502,218.943 892.048,218.943C893.593,218.943 894.848,217.688 894.848,216.143Z"/>
            <path d="M912.714,204.81C917.077,196.085 920.702,203.816 926.714,200.81C928.892,199.721 932.801,196.81 934.714,196.81" style="fill:white;"/>
            <path d="M915.219,206.062C916.022,204.454 916.579,203.58 917.353,203.341C918.121,203.104 918.88,203.483 919.721,203.708C922.144,204.357 924.801,204.896 927.967,203.314C929.293,202.651 931.254,201.325 933.028,200.368C933.7,200.006 934.273,199.61 934.714,199.61C936.26,199.61 937.514,198.355 937.514,196.81C937.514,195.264 936.26,194.01 934.714,194.01C933.827,194.01 932.637,194.327 931.351,194.939C929.392,195.871 926.999,197.537 925.462,198.305C924.333,198.87 923.335,198.792 922.422,198.606C921.457,198.41 920.55,198.111 919.676,197.926C917.923,197.555 916.263,197.573 914.597,198.447C913.192,199.183 911.673,200.631 910.21,203.557C909.519,204.94 910.08,206.623 911.462,207.314C912.844,208.005 914.528,207.444 915.219,206.062Z"/>
            <path d="M734.048,332.143C737.802,320.88 749.318,324.747 756.048,331.476" style="fill:white;"/>
            <path d="M736.704,333.028C739.666,324.141 748.757,328.146 754.068,333.456C755.16,334.549 756.935,334.549 758.027,333.456C759.12,332.363 759.12,330.589 758.027,329.496C754.844,326.313 750.691,323.729 746.652,322.707C743.612,321.937 740.624,322.037 738.031,323.208C735.248,324.465 732.826,326.954 731.391,331.257C730.903,332.723 731.696,334.31 733.162,334.799C734.628,335.288 736.215,334.494 736.704,333.028Z"/>
            <path d="M762.048,300.143C761.346,299.441 761.769,299.088 762.714,298.143C768.523,292.334 771.348,297.476 775.381,297.476" style="fill:white;"/>
            <path d="M764.842,299.978C765.885,298.958 766.743,298.398 767.559,298.226C768.805,297.965 769.8,298.625 770.828,299.081C772.295,299.733 773.775,300.276 775.381,300.276C776.926,300.276 778.181,299.022 778.181,297.476C778.181,295.931 776.926,294.676 775.381,294.676C774.134,294.676 773.075,293.925 771.919,293.449C770.335,292.797 768.68,292.38 766.818,292.671C765.066,292.944 763.049,293.848 760.734,296.163C759.147,297.75 758.794,299.002 758.931,299.97C759.021,300.609 759.291,301.346 760.068,302.123C761.16,303.215 762.935,303.216 764.027,302.123C764.616,301.534 764.887,300.749 764.842,299.978Z"/>
            <path d="M805.381,292.143C800.506,282.394 816.763,288.143 818.714,288.143" style="fill:white;"/>
            <path d="M807.36,289.421C807.833,289.351 808.69,289.245 809.323,289.282C813.086,289.505 817.721,290.943 818.714,290.943C820.26,290.943 821.514,289.688 821.514,288.143C821.514,286.634 820.318,285.402 818.822,285.346C818.7,285.319 817.203,284.997 815.946,284.712C813.217,284.094 809.64,283.441 807.078,283.743C804.7,284.023 803.003,285.104 802.195,286.749C801.51,288.144 801.331,290.304 802.877,293.395C803.568,294.777 805.251,295.338 806.633,294.647C808.015,293.956 808.576,292.273 807.885,290.891C807.633,290.387 807.456,289.792 807.36,289.421Z"/>
            <g>
                <path d="M832.714,266.143C835.079,254.321 846.675,258.829 854.714,254.81" style="fill:white;"/>
                <path d="M835.46,266.692C835.879,264.594 836.626,263.158 837.701,262.197C839.479,260.609 841.954,260.251 844.547,259.906C848.385,259.396 852.476,259.059 855.966,257.314C857.349,256.623 857.91,254.939 857.219,253.557C856.528,252.175 854.844,251.614 853.462,252.305C849.661,254.206 845,254 841.029,254.807C837.889,255.444 835.112,256.609 833.039,258.958C831.655,260.527 830.559,262.642 829.969,265.594C829.666,267.109 830.65,268.585 832.165,268.888C833.68,269.192 835.157,268.207 835.46,266.692Z"/>
            </g>
        </g>
    </g>
</svg>
