<svg viewBox="0 0 246 246" xmlns="http://www.w3.org/2000/svg" xml:space="preserve" style="fill-rule:evenodd;clip-rule:evenodd;stroke-linejoin:round;stroke-miterlimit:2"><path d="M194.231 47.407c-.103-.472-12.693-9.084-20.068-11.828-6.225-2.316-12.376-5.988-18.332-9.505-6.113-3.609-17.932-8.609-19.075-9.342-2.313-1.484-20.804 8.187-18.833 26.832.675 6.39 7.424 30.096 14.074 33.823.009.004 13.372-9.845 21.302-14.564 5.3-3.155 25.131-11.516 30.729-13.841 3.1-1.287 9.189-2.225 10.203-1.575Z" style="fill:#fff"/><path d="M193.609 48.585a1.333 1.333 0 0 0 1.923-1.462c-.027-.124-.215-.609-.851-1.123-2.222-1.797-13.291-9.153-20.054-11.669-6.154-2.29-12.231-5.927-18.119-9.404-6.099-3.601-17.893-8.585-19.033-9.317-.391-.25-1.013-.42-1.846-.334-1.154.118-2.954.744-4.997 1.918-6.417 3.688-15.484 12.793-14.034 26.51.481 4.55 3.979 17.735 8.362 26.535 1.994 4.005 4.23 7.102 6.386 8.31.024.013.653.46 1.417-.072l.403-.293c2.232-1.627 13.712-9.99 20.814-14.217 5.27-3.137 24.992-11.443 30.559-13.755 2.054-.852 5.495-1.538 7.703-1.665a10.76 10.76 0 0 1 1.367.038Zm-57.455-30.663c1.669.937 13.039 5.78 18.999 9.299 6.024 3.558 12.249 7.264 18.546 9.607 4.973 1.85 12.361 6.421 16.528 9.25-2.262.313-4.945.941-6.71 1.674-5.63 2.338-25.57 10.753-30.9 13.926-6.842 4.073-17.711 11.944-20.651 14.085-1.593-1.258-3.135-3.727-4.622-6.712-4.233-8.501-7.632-21.232-8.097-25.627-1.309-12.387 6.917-20.59 12.712-23.92 1.417-.814 2.676-1.335 3.596-1.523.215-.044.505-.056.599-.059Z"/><path d="M134.773 16.952c.494-.77-7.269 3.566-9.282 5.19-4.398 3.548-11.067 9.288-12.653 15.54-3.027 11.926-10.018 23.189-13.176 35.635-2.409 9.495-5.231 19.456-7.703 29.198-2.247 8.857-4.358 36.136-5.233 37.502-.2.311-1.733-.842-1.837-.909-3.69-2.367-8.931-5.957-13.685-7.163-.557-.141-1.389-.767-1.7-.284-2.628 4.099 11.835 20.596 13.458 22.608.362.449 2.086 1.777 1.797 2.228-3.622 5.647-8.474 10.383-10.318 17.651-.357 1.409.693 5.19-5.719 14.347-.479.684-3.997 11.612-4.462 12.337-.6.936 15.048 13.376 15.643 14.376 4.502 7.564 12.262 11.627 18.48 15.614.127.081.276-.234.244-.381-.51-2.332 5.404-18.389 6.501-22.712.571-2.25 3.68-16.719 4.284-22.362.576-5.387 2.715-14.529 4.017-19.086 5.741-20.088 10.255-44.39 11.883-50.805 2.069-8.156 3.953-31.472 6.685-38.089.425-1.03-2.154-.39-5.215-7.377-2.001-4.566-9.618-23.338-9.06-29.465.632-6.95 2.967-10.076 6.44-15.492 1.148-1.79 8.145-6.797 10.611-8.101Z" style="fill:#fff"/><path d="m85.785 138.1-.177-.113c-3.792-2.432-9.191-6.094-14.076-7.333-.182-.046-.397-.17-.608-.257-.327-.134-.65-.224-.928-.243-.68-.048-1.231.192-1.613.788-.465.726-.639 1.705-.454 2.889.206 1.32.871 2.974 1.845 4.774 3.494 6.46 11.001 15.075 12.151 16.501.165.204.573.577.989.974.095.092.209.212.313.326-3.641 5.495-8.263 10.267-10.077 17.414-.346 1.366.694 5.039-5.519 13.911-.206.295-.977 2.341-1.812 4.759-1.118 3.239-2.412 7.205-2.68 7.623-.194.302-.339.747-.13 1.333.134.373.699 1.142 1.651 2.089 2.988 2.97 10.083 8.788 13.047 11.406.519.459 1.007.934 1.094 1.019 4.622 7.71 12.509 11.908 18.863 15.983.56.359 1.166.334 1.705-.132.187-.162.381-.429.488-.729.117-.328.125-.678.071-.925-.039-.18.021-.483.088-.887.15-.911.461-2.153.865-3.585 1.636-5.804 4.768-14.596 5.538-17.628.575-2.269 3.708-16.859 4.317-22.548.57-5.324 2.687-14.358 3.974-18.862 5.745-20.103 10.264-44.423 11.893-50.843 2.059-8.116 3.906-31.324 6.625-37.909a1.735 1.735 0 0 0-.336-1.903c-.513-.557-2.566-1.212-4.89-6.517-1.389-3.168-5.507-13.239-7.663-21.08-.879-3.196-1.449-5.996-1.291-7.729.609-6.688 2.893-9.682 6.236-14.894.301-.471 1.084-1.174 2.062-1.988 2.535-2.109 6.371-4.766 8.05-5.654.203-.108.375-.266.499-.459.352-.55.245-.999.142-1.266-.144-.374-.557-1.024-1.572-.852-.326.056-1.26.446-2.443 1.066-2.403 1.259-6.06 3.431-7.367 4.486-4.582 3.697-11.456 9.736-13.108 16.249-3.027 11.927-10.018 23.189-13.176 35.635-2.409 9.495-5.231 19.456-7.703 29.198-1.806 7.118-3.533 26.078-4.598 34.08a46.21 46.21 0 0 1-.285 1.833Zm34.77-109.863c-2.211 3.612-3.669 6.795-4.16 12.187-.177 1.943.39 5.095 1.375 8.677 2.193 7.976 6.38 18.22 7.792 21.444 1.975 4.508 4.081 6.368 4.955 6.989-2.614 7.414-4.481 29.67-6.496 37.615-1.626 6.41-6.136 30.693-11.873 50.766-1.317 4.61-3.478 13.86-4.061 19.31-.598 5.596-3.684 19.945-4.25 22.177-.767 3.02-3.89 11.778-5.52 17.56-.407 1.445-.722 2.713-.895 3.681-5.731-3.566-12.383-7.41-16.375-14.117-.116-.196-.673-.783-1.576-1.581-2.937-2.595-9.972-8.356-12.933-11.299a15.33 15.33 0 0 1-.814-.888c.573-1.48 1.672-4.671 2.613-7.399a166.033 166.033 0 0 1 1.511-4.15c6.572-9.405 5.516-13.283 5.884-14.734 1.806-7.117 6.601-11.729 10.148-17.259.27-.42.374-1.015.019-1.696-.336-.645-1.581-1.692-1.9-2.087-1.123-1.392-8.471-9.789-11.882-16.095-.68-1.256-1.2-2.419-1.451-3.413a5.648 5.648 0 0 1-.164-.815c.143.055.278.101.375.126 4.623 1.173 9.705 4.692 13.293 6.993.101.065 1.337.935 1.942 1.103.88.244 1.453-.156 1.735-.596.096-.149.234-.457.346-.929.149-.63.324-1.735.518-3.189 1.056-7.93 2.749-26.722 4.539-33.776 2.472-9.742 5.294-19.703 7.704-29.198 3.157-12.445 10.149-23.708 13.175-35.635.902-3.555 3.545-6.916 6.426-9.772ZM65.509 201.29a1.218 1.218 0 0 1-.128.261c.03-.047.073-.136.128-.261Z"/><path d="M133.398 77.176c19.196-18.357 63.497-33.117 61.633-28.429-2.629 6.615-10.23 22.046-10.603 22.749-5.124 9.667-9.627 25.041-13.067 34.628-6.047 16.851-13.22 35.104-13.043 42.795.27 11.773-5.51 29.737-5.922 39-.634 14.273-8.627 24.589-11.276 28.721-.656 1.022-23.095 3.684-23.823 4.807-1.171 1.808-13.444 6.866-18.914 9.375-7.403 3.396 20.661-102.157 35.015-153.646Z" style="fill:#fff"/><path d="M118.172 222.468c.637-.136 6.506-1.377 11.276-2.147 4.692-.758 9.377-1.514 11.234-2.049.939-.27 1.424-.703 1.559-.913 2.709-4.225 10.837-14.789 11.486-29.381.412-9.284 6.193-27.29 5.922-39.09-.174-7.607 6.984-25.644 12.966-42.314 3.422-9.538 7.892-24.836 12.99-34.454.375-.707 8.019-16.227 10.664-22.881a1.91 1.91 0 0 0 .103-1.171 1.746 1.746 0 0 0-.721-1.047c-.279-.196-.688-.367-1.243-.439-.756-.098-1.937-.025-3.463.248-11.132 1.989-42.928 14.523-58.467 29.383a1.345 1.345 0 0 0-.363.605c-11.497 41.24-31.772 117.121-35.63 144.083-.721 5.042-.811 8.486-.313 9.848.305.835.825 1.246 1.351 1.406.41.125.885.121 1.415-.122 3.844-1.764 11.034-4.782 15.405-7.056 1.85-.962 3.218-1.873 3.829-2.509ZM193.383 49.26c-2.913 7.011-9.779 20.947-10.131 21.612-5.151 9.717-9.687 25.166-13.145 34.803-6.112 17.032-13.299 35.501-13.121 43.275.27 11.746-5.51 29.668-5.921 38.909-.604 13.608-8.091 23.52-10.864 27.75-.931.192-6.552 1.335-11.178 2.082-4.698.758-9.401 1.533-11.284 2.101-.926.279-1.414.707-1.56.931-.079.123-.273.244-.516.414-.608.426-1.492.927-2.549 1.476-4.069 2.117-10.599 4.881-14.54 6.659a5.531 5.531 0 0 1-.067-.6c-.077-1.622.149-4.138.615-7.394 3.838-26.822 23.973-102.167 35.461-143.39 15.266-14.4 46.023-26.504 56.831-28.436a14.3 14.3 0 0 1 1.969-.192ZM69.993 130.899c-.528-.338.981-.869 1.739-1.035 2.064-.451 4.105-1.79 5.149-3.418 3.791-5.912 2.032-11.062-3.143-14.381-6.489-4.161-8.061 9.637-9.273 11.526-.272.424 2.428 5.052 2.793 5.286.284.182.518.869.518.869s-.718-1.804-1.485-2.296c-2.175-1.395-5.06-2.976-7.55-4.573-3.88-2.488-6.36 4.468-7.24 5.84-1.27 1.98 8.037 7.502 8.546 7.632 3.807.965 5.842-4.88 8.94-5.557"/><path d="M63.151 123.999a118.392 118.392 0 0 1-3.691-2.243c-.894-.573-1.742-.775-2.531-.74-1.137.049-2.185.61-3.09 1.494-1.716 1.675-2.906 4.625-3.46 5.488-.364.568-.446 1.253-.163 2.028.229.623.768 1.373 1.537 2.135 1.947 1.928 5.447 4.145 6.961 5.001.531.299.901.451 1.006.478 1.985.503 3.636-.308 5.119-1.647.868-.783 1.68-1.751 2.509-2.575.618-.615 1.218-1.171 1.923-1.325a1.26 1.26 0 0 0 .088-.023 1.332 1.332 0 0 0 1.855-.637c.265-.101.613-.226.803-.268 2.404-.525 4.769-2.104 5.985-4 2.135-3.33 2.652-6.456 1.962-9.206-.688-2.743-2.6-5.15-5.507-7.015-1.384-.888-2.615-1.109-3.689-.934-1.557.254-2.871 1.402-3.888 3.081-1.241 2.05-2.077 4.912-2.7 7.136-.346 1.237-.581 2.248-.836 2.645-.112.174-.21.407-.227.714-.006.1.003.241.034.413Zm2.154 4.403c-2.14-1.353-4.894-2.871-7.283-4.404-1.243-.797-2.187.132-2.965 1.157-1.064 1.401-1.828 3.183-2.286 4.024.139.211.498.733.857 1.089 2.001 1.982 5.807 4.286 6.795 4.791l.038.018c.701.148 1.301-.095 1.86-.476.528-.359 1.019-.837 1.502-1.338.861-.896 1.695-1.863 2.57-2.574a7.57 7.57 0 0 1 .27-.211 1.298 1.298 0 0 1-.125-.24s-.022-.055-.062-.147l-.108-.233a3.863 3.863 0 0 1-.54-.641 18.676 18.676 0 0 1-.523-.815Zm5.464 1.415Zm0 0c-.018-.014-.037-.026-.057-.039l.057.039Zm-1.557-.338c.497-.365 1.569-.77 2.236-.916 1.723-.377 3.44-1.477 4.312-2.836 1.656-2.583 2.155-4.987 1.62-7.119-.537-2.14-2.093-3.967-4.361-5.421-.692-.444-1.285-.635-1.822-.547-.86.14-1.476.903-2.038 1.83-1.124 1.857-1.85 4.461-2.413 6.475-.323 1.151-.615 2.134-.877 2.782l1.68 3.059c.176.184.347.398.504.63.277.409.519.873.691 1.233.178.334.293.669.293.669.016.048.03.096.04.145l.025.001.065.008.045.007Z"/></svg>