<?xml version="1.0" encoding="UTF-8" standalone="no"?>
<!DOCTYPE svg PUBLIC "-//W3C//DTD SVG 1.1//EN" "http://www.w3.org/Graphics/SVG/1.1/DTD/svg11.dtd">
<svg width="100%" height="100%" viewBox="0 0 492 492" version="1.1" xmlns="http://www.w3.org/2000/svg" xmlns:xlink="http://www.w3.org/1999/xlink" xml:space="preserve" xmlns:serif="http://www.serif.com/" style="fill-rule:evenodd;clip-rule:evenodd;stroke-linejoin:round;stroke-miterlimit:2;">
    <g transform="matrix(0.48,0,0,0.48,0,0)">
        <g transform="matrix(0.213515,0.97694,-0.97694,0.213515,918.623,-134.127)">
            <path d="M300.667,177.619C298.654,177.619 252.397,221.205 234.667,248.786C219.7,272.067 199.282,293.837 179.667,314.952C159.535,336.624 128.667,380.286 124.667,384.286C116.57,392.382 139.484,476.255 217.133,484.819C243.746,487.754 346.246,481.375 367.333,457.619C367.361,457.588 339.159,394.43 327,357.952C318.874,333.572 302.482,245.41 298,220.552C295.518,206.789 297.116,181.17 300.667,177.619Z" style="fill:white;"/>
            <path d="M304.906,181.198C306.238,179.624 306.593,177.424 305.794,175.495C304.935,173.421 302.911,172.069 300.667,172.069C300.139,172.069 297.996,172.406 295.337,174.536C286.045,181.983 246.256,220.494 229.998,245.784C215.203,268.8 194.992,290.301 175.6,311.175C155.515,332.796 124.733,376.37 120.742,380.361C119.374,381.729 118.129,384.113 117.737,387.579C117.193,392.383 118.14,400.267 121.102,409.627C130.404,439.027 159.402,484.036 216.525,490.336C235.475,492.426 292.258,489.916 331.977,479.907C350.056,475.351 364.649,469.003 371.484,461.303C371.56,461.217 373.939,459.056 372.452,455.473C372.401,455.35 372.113,454.692 371.619,453.57C366.983,443.039 343.154,388.867 332.265,356.197C324.185,331.955 307.919,244.285 303.462,219.568C301.818,210.449 302.087,195.832 303.537,186.73C303.902,184.437 304.773,181.622 304.906,181.198ZM128.976,387.796C134.276,381.837 164.104,339.86 183.733,318.73C203.572,297.374 224.198,275.333 239.335,251.787C251.29,233.19 276.471,207.182 291.692,192.736C290.954,202.224 291.126,213.704 292.538,221.537C297.045,246.536 313.563,335.189 321.735,359.707C332.226,391.183 354.598,442.431 360.696,456.302C354.158,461.664 342.738,465.748 329.264,469.143C290.894,478.812 236.049,481.322 217.742,479.302C166.156,473.613 140.085,432.829 131.685,406.279C129.631,399.788 128.631,394.2 128.682,390.285C128.694,389.372 128.903,388.182 128.976,387.796Z"/>
            <path d="M123.8,392.552C121.104,389.857 131.849,425.316 136.667,434.952C147.197,456.014 164.628,488.266 188.667,500.286C234.522,523.214 274.148,561.693 322,585.619C358.507,603.872 396.544,624.224 434,642.952C468.055,659.98 577.22,692.839 582,697.619C583.088,698.707 577.031,703.922 576.667,704.286C563.75,717.202 544.473,735.34 535.333,753.619C534.263,755.76 530.974,758.593 532.667,760.286C547.012,774.631 627.031,730.437 636.667,725.619C638.815,724.545 645.757,718.709 647.333,720.286C667.1,740.053 682.058,764.015 710.003,777.988C715.423,780.698 731.748,779.787 763.315,814.032C765.674,816.59 807.03,840.635 809.568,843.172C812.842,846.446 877.401,793.819 882,792.286C916.797,780.686 940.238,752.713 962,730.952C962.444,730.508 961.295,729.619 960.667,729.619C950.718,729.619 890.621,691.263 874,682.952C865.348,678.626 809.216,653.096 786.784,645.619C765.369,638.481 730.058,621.641 712.667,612.286C636.004,571.046 541.097,531.05 516.433,518.718C485.075,503.04 391.841,474.628 367.333,457.619C363.52,454.972 363.831,466.041 332.667,472.286C312.302,476.367 229.109,490.674 204.667,482.952C176.94,474.194 166.291,461.91 147.333,442.952C141.07,436.689 126.914,403.752 123.8,392.552Z" style="fill:white;"/>
            <path d="M573.361,699.741L572.742,700.361C559.47,713.633 539.761,732.354 530.369,751.137C530.02,751.836 529.326,752.601 528.783,753.384C527.945,754.593 527.295,755.829 526.968,756.943C526.169,759.67 526.656,762.124 528.742,764.21C531.282,766.75 535.113,768.328 540.097,768.63C545.654,768.967 552.979,767.73 561.173,765.367C590.575,756.89 632.322,733.996 639.149,730.583C640.129,730.093 642.007,728.767 643.996,727.427C644.452,727.12 645.044,726.761 645.601,726.44C664.731,746.153 680.041,769.212 707.521,782.952C712.772,785.578 728.647,784.612 759.235,817.793C760.252,818.896 767.896,823.855 776.995,829.402C789.185,836.835 804.178,845.631 805.643,847.097C806.699,848.153 808.379,849.14 810.955,848.808C812.591,848.598 816.224,846.983 820.926,843.947C835.673,834.428 865.666,810.722 878.963,800.985C881.29,799.281 883.657,797.718 884.084,797.438C919.578,785.483 943.684,757.116 965.924,734.877C967.885,732.916 968.321,730.424 966.902,727.817C966.409,726.91 965.495,725.886 964.369,725.182C963.138,724.413 961.721,724.069 960.667,724.069C959.902,724.069 958.721,723.556 957.135,722.924C953.563,721.502 948.784,719.13 943.312,716.213C921.143,704.39 888.139,683.817 876.482,677.988C867.758,673.626 811.157,647.893 788.539,640.354C767.375,633.299 732.483,616.644 715.296,607.398C638.575,566.127 543.598,526.095 518.915,513.754C487.71,498.152 394.886,469.986 370.498,453.06C369.045,452.051 367.699,451.704 366.425,451.67C365.137,451.636 363.835,451.93 362.454,452.737C359.73,454.33 355.234,462.103 331.576,466.844C317.442,469.676 272.785,477.483 238.95,479.283C225.16,480.016 213.253,479.844 206.338,477.66C179.655,469.231 169.502,457.272 151.258,439.028C149.612,437.382 147.445,433.57 145.003,428.864C138.674,416.669 131.267,398.692 129.147,391.066C128.891,390.144 128.401,389.304 127.724,388.628C125.8,386.704 123.874,386.741 122.695,386.923C121.047,387.176 118.032,388.277 117.831,392.564C117.767,393.938 118.523,398.09 119.994,403.457C122.981,414.358 128.573,431.174 131.703,437.434C142.673,459.376 161.142,492.728 186.184,505.25C232.04,528.178 271.666,566.657 319.518,590.583C356.024,608.836 394.062,629.188 431.518,647.916C458.885,661.6 534.526,685.496 566.152,696.951C568.76,697.896 571.282,698.89 573.361,699.741ZM157.087,460.471C169.822,472.683 181.481,481.448 202.995,488.245C210.746,490.693 224.079,491.189 239.54,490.367C273.956,488.537 319.381,480.608 333.757,477.728C353.867,473.698 363.311,466.779 366.617,463.777C394.469,481.012 483.404,508.41 513.951,523.682C538.597,536.004 633.433,575.965 710.037,617.173C727.632,626.638 763.363,643.663 785.029,650.884C807.275,658.299 862.937,683.626 871.518,687.916C883.131,693.723 916.003,714.229 938.089,726.007C943.607,728.949 948.49,731.359 952.275,732.926C932.662,753.081 911.096,776.736 880.245,787.021C879.344,787.321 876.458,789.062 872.405,792.029C859.229,801.678 829.52,825.188 814.906,834.622C813.396,835.596 811.712,836.535 810.567,837.148C805.054,833.495 793.039,826.184 782.774,819.925C775.605,815.554 767.585,810.321 767.223,810.084C734.788,774.965 718.063,775.813 712.485,773.024C685.119,759.341 670.615,735.719 651.258,716.361C649.788,714.891 647.461,713.936 644.369,714.776C641.447,715.571 636.077,719.709 634.185,720.655C627.52,723.987 586.802,746.426 558.098,754.702C552.38,756.35 547.183,757.433 542.914,757.573C541.639,757.615 540.469,757.633 539.453,757.513C539.802,756.98 540.112,756.472 540.297,756.101C549.185,738.326 568.03,720.77 580.591,708.21C580.945,707.856 585.584,703.6 586.806,701.287C588.583,697.922 587.463,695.233 585.924,693.694C585.402,693.172 584.274,692.335 582.451,691.461C580.019,690.294 575.678,688.596 569.932,686.515C538.591,675.162 463.603,651.549 436.482,637.988C399.026,619.26 360.989,598.908 324.482,580.655C276.63,556.729 237.004,518.25 191.149,495.322C177.48,488.487 166.15,474.739 157.087,460.471ZM812.541,838.496C812.898,838.712 813.212,838.968 813.492,839.248C813.327,839.082 813.003,838.828 812.541,838.496Z"/>
            <path d="M367.723,451.727C310.078,357.261 289.407,163.799 306.831,175.554C331.421,192.143 387.472,236.812 390,238.952C424.793,268.413 483.368,300.418 519.333,322.952C582.546,362.559 650.465,407.994 681.928,414.117C730.093,423.491 798.074,463.002 835.411,472.918C892.947,488.198 927.829,529.908 942.29,544.37C945.869,547.949 936.741,641.655 940.667,645.619C946.983,651.997 956.653,706.454 962,730.952C969.236,764.105 564.543,555.966 367.723,451.727Z" style="fill:white;"/>
            <path d="M945.6,642.966C945.615,640.253 945.781,615.257 946.89,595.156C947.98,575.383 949.072,555.641 948.547,547.606C948.281,543.54 946.949,541.18 946.215,540.446C931.429,525.66 895.659,483.176 836.836,467.554C799.414,457.615 731.262,418.065 682.988,408.67C651.865,402.612 584.811,357.429 522.28,318.249C486.499,295.831 428.201,264.026 393.586,234.717C391.043,232.564 334.667,187.638 309.935,170.953C308.286,169.841 306.694,169.466 305.262,169.493C303.51,169.526 301.845,170.133 300.358,171.496C299.31,172.456 298.251,173.97 297.463,176.166C296.391,179.155 295.641,184.027 295.393,190.481C293.587,237.565 316.321,378.145 362.986,454.618C363.505,455.47 364.244,456.165 365.126,456.632C522.765,540.12 813.609,690.159 919.928,729.85C939.809,737.272 953.751,740.703 959.736,739.888C963.406,739.388 965.543,737.636 966.661,735.637C967.533,734.078 967.941,732.143 967.422,729.769C963.665,712.553 957.774,680.601 952.407,660.783C950.136,652.4 947.647,646.018 945.6,642.966ZM307.454,182.719C333.401,200.814 384.021,241.162 386.414,243.188C421.385,272.8 480.237,305.006 516.386,327.655C580.281,367.689 649.066,413.376 680.868,419.565C728.924,428.918 796.733,468.388 833.986,478.282C888.839,492.849 922.528,532.142 937.28,547.194C937.229,551.155 936.882,575.052 935.807,594.545C934.715,614.346 933.683,634.179 934.322,642.35C934.636,646.366 935.94,648.733 936.723,649.524C937.152,649.958 937.474,650.854 937.951,651.995C939.142,654.849 940.395,658.891 941.692,663.684C946.688,682.129 952.128,711.169 955.86,728.796C955.063,728.751 954.179,728.671 953.358,728.532C946.689,727.405 936.647,724.244 923.81,719.451C818.043,679.966 529.255,530.974 371.676,447.54L371.676,447.54C326.639,372.584 304.732,236.618 306.485,190.906C306.599,187.948 307.049,184.929 307.454,182.719Z"/>
            <path d="M530,757.619C528.151,759.468 527.333,752.851 527.333,749.619C527.333,740.816 523.697,731.316 518,725.619C497.307,704.927 474.781,707.505 456.667,725.619C433.955,748.329 488.72,767.006 495.333,773.619C496.818,775.103 518.056,768.23 519.333,766.952C520.327,765.959 523.333,765.619 523.333,765.619C523.333,765.619 515.352,766.934 512.667,769.619C505.054,777.231 496.05,787.569 487.333,796.286C473.754,809.864 499.863,826.149 504.667,830.952C511.595,837.88 542.354,804.912 543.333,802.952C550.651,788.316 528.667,774.833 528.667,761.619"/>
            <path d="M495.824,779.33C491.741,783.73 487.542,788.228 483.409,792.361C480.282,795.488 478.707,798.763 478.145,802.006C477.335,806.678 478.686,811.44 481.477,815.911C486.769,824.386 497.721,831.856 500.742,834.877C502.73,836.864 505.444,837.811 508.851,837.344C511.591,836.969 515.122,835.44 518.907,832.987C528.488,826.779 540.628,814.506 545.456,809.102C547.148,807.209 548.097,805.835 548.297,805.434C552.114,797.801 550.28,790.358 546.15,783.132C543.732,778.9 540.517,774.735 537.898,770.625C535.946,767.563 534.217,764.627 534.217,761.619C534.217,761.492 534.212,761.366 534.202,761.242C536.086,759.064 535.993,755.763 533.925,753.695C533.714,753.484 533.491,753.294 533.258,753.126C533.083,751.956 532.883,750.427 532.883,749.619C532.883,739.365 528.561,728.331 521.924,721.694C510.271,710.041 498.003,705.156 486.196,705.519C474.419,705.881 462.918,711.519 452.742,721.694C447.896,726.541 445.901,731.354 445.659,735.881C445.307,742.444 448.81,748.816 454.74,754.446C461.982,761.322 472.888,767.274 481.385,771.786C486.114,774.297 490.018,776.153 491.409,777.544C492.018,778.153 492.879,778.759 494.111,779.103C494.516,779.216 495.096,779.305 495.824,779.33ZM515.663,774.481C508.251,781.989 499.622,791.846 491.258,800.21C486.908,804.56 489.851,809.229 493.33,813.309C498.084,818.885 504.658,823.578 507.676,826.192C508.659,825.813 511.105,824.817 512.871,823.672C522.719,817.291 535.484,803.849 538.418,800.274L538.526,800.139C539.752,797.415 539.297,794.754 538.244,792.14C537.25,789.672 535.743,787.249 534.13,784.837C531.253,780.534 528.057,776.282 525.94,772.088C525.723,771.659 525.518,771.23 525.323,770.801C524.978,770.933 524.614,771.033 524.235,771.095C524.235,771.095 523.991,771.136 523.58,771.217L522.536,771.449C521.877,771.909 520.84,772.509 519.445,773.077C518.438,773.488 517.137,773.971 515.663,774.481ZM526.283,753.497C526.554,753.253 526.843,753.04 527.146,752.859C526.858,753.024 526.57,753.235 526.283,753.497ZM526.282,753.498C526.213,753.56 526.144,753.626 526.076,753.694L526.282,753.498ZM523.523,759.535C522.48,757.185 521.783,752.464 521.783,749.619C521.783,742.268 518.833,734.301 514.076,729.544C505.036,720.504 495.695,716.333 486.537,716.614C477.349,716.897 468.53,721.605 460.591,729.544C458.168,731.966 456.864,734.211 456.743,736.474C456.549,740.098 459.108,743.287 462.382,746.396C468.942,752.623 478.895,757.896 486.59,761.982C490.99,764.318 494.732,766.384 497.136,768.025L511.08,763.909C511.988,763.356 513.01,762.851 514.093,762.418C516.008,761.652 518.112,761.08 519.728,760.701C521.247,760.276 522.71,760.104 522.71,760.104C522.921,760.08 523.13,760.069 523.338,760.07L523.366,759.969C523.395,759.883 523.425,759.798 523.454,759.712L523.523,759.535Z"/>
        </g>
    </g>
</svg>
