<svg viewBox="0 0 492 492" xmlns="http://www.w3.org/2000/svg" xml:space="preserve" style="fill-rule:evenodd;clip-rule:evenodd;stroke-linejoin:round;stroke-miterlimit:2"><path d="M300.667 177.619c-2.013 0-48.27 43.586-66 71.167-14.967 23.281-35.385 45.051-55 66.166-20.132 21.672-51 65.334-55 69.334-8.097 8.096 14.817 91.969 92.466 100.533 26.613 2.935 129.113-3.444 150.2-27.2.028-.031-28.174-63.189-40.333-99.667-8.126-24.38-24.518-112.542-29-137.4-2.482-13.763-.884-39.382 2.667-42.933Z" style="fill:#fff" transform="rotate(77.672 260.455 241.668) scale(.48)"/><path d="M387.219 97.17a2.662 2.662 0 0 0 3.846-2.924c-.054-.248-.432-1.218-1.703-2.247-4.445-3.594-26.581-18.305-40.107-23.337-12.31-4.579-24.463-11.853-36.239-18.807-12.197-7.203-35.785-17.172-38.066-18.634-.781-.501-2.027-.84-3.692-.67-2.309.238-5.909 1.49-9.994 3.838-12.834 7.375-30.968 25.586-28.068 53.019.962 9.1 7.959 35.47 16.723 53.07 3.99 8.01 8.462 14.203 12.773 16.62.048.026 1.305.92 2.833-.144.053-.037.332-.24.807-.586 4.463-3.253 27.424-19.98 41.628-28.434 10.54-6.273 49.984-22.886 61.118-27.51 4.107-1.705 10.99-3.077 15.406-3.33 1.113-.063 2.522.057 2.735.075ZM272.308 35.843c3.337 1.875 26.079 11.56 37.999 18.599 12.048 7.114 24.497 14.528 37.09 19.213 9.946 3.7 24.723 12.842 33.057 18.5-4.525.626-9.89 1.883-13.42 3.348-11.26 4.675-51.14 21.507-61.8 27.852-13.684 8.145-35.423 23.889-41.302 28.17-3.185-2.517-6.27-7.453-9.243-13.424-8.467-17.002-15.265-42.463-16.194-51.255-2.619-24.773 13.834-41.178 25.423-47.838 2.833-1.629 5.351-2.67 7.192-3.048.43-.088 1.01-.112 1.198-.117Z"/><path d="M123.8 392.552c-2.696-2.695 8.049 32.764 12.867 42.4 10.53 21.062 27.961 53.314 52 65.334 45.855 22.928 85.481 61.407 133.333 85.333 36.507 18.253 74.544 38.605 112 57.333 34.055 17.028 143.22 49.887 148 54.667 1.088 1.088-4.969 6.303-5.333 6.667-12.917 12.916-32.194 31.054-41.334 49.333-1.07 2.141-4.359 4.974-2.666 6.667 14.345 14.345 94.364-29.849 104-34.667 2.148-1.074 9.09-6.91 10.666-5.333 19.767 19.767 34.725 43.729 62.67 57.702 5.42 2.71 21.745 1.799 53.312 36.044 2.359 2.558 43.715 26.603 46.253 29.14 3.274 3.274 67.833-49.353 72.432-50.886 34.797-11.6 58.238-39.573 80-61.334.444-.444-.705-1.333-1.333-1.333-9.949 0-70.046-38.356-86.667-46.667-8.652-4.326-64.784-29.856-87.216-37.333-21.415-7.138-56.726-23.978-74.117-33.333-76.663-41.24-171.57-81.236-196.234-93.568-31.358-15.678-124.592-44.09-149.1-61.099-3.813-2.647-3.502 8.422-34.666 14.667-20.365 4.081-103.558 18.388-128 10.666-27.727-8.758-38.376-21.042-57.334-40-6.263-6.263-20.419-39.2-23.533-50.4Z" style="fill:#fff" transform="rotate(77.672 260.455 241.668) scale(.48)"/><path d="m171.57 276.2-.353-.226c-7.584-4.864-18.383-12.187-28.154-14.666-.363-.092-.793-.34-1.216-.514-.653-.269-1.299-.447-1.855-.486-1.36-.095-2.461.384-3.226 1.576-.93 1.452-1.278 3.41-.909 5.778.412 2.64 1.743 5.949 3.69 9.549 6.99 12.919 22.003 30.149 24.303 33 .33.41 1.145 1.154 1.977 1.95.19.182.42.423.627.651-7.283 10.991-16.527 20.534-20.154 34.828-.693 2.732 1.387 10.077-11.038 27.821-.413.59-1.955 4.683-3.623 9.518-2.237 6.478-4.825 14.41-5.362 15.248-.387.603-.678 1.492-.258 2.666.266.746 1.396 2.284 3.301 4.178 5.976 5.94 20.166 17.574 26.095 22.812a64.244 64.244 0 0 1 2.188 2.038c9.244 15.419 25.016 23.816 37.724 31.965 1.12.719 2.334.668 3.411-.265.375-.324.761-.857.976-1.457.234-.656.25-1.356.143-1.85-.079-.36.04-.966.175-1.774.3-1.82.923-4.305 1.73-7.17 3.272-11.607 9.537-29.192 11.075-35.256 1.152-4.538 7.418-33.717 8.635-45.096 1.14-10.648 5.374-28.717 7.948-37.724 11.49-40.206 20.529-88.847 23.786-101.686 4.118-16.232 7.813-62.647 13.25-75.818.325-.785.35-1.452.235-2.052-.116-.608-.388-1.188-.908-1.753-1.026-1.114-5.132-2.426-9.78-13.034-2.776-6.338-11.014-26.479-15.325-42.16-1.757-6.392-2.897-11.993-2.582-15.46 1.218-13.376 5.786-19.363 12.471-29.788.603-.94 2.169-2.347 4.125-3.974 5.07-4.218 12.741-9.534 16.1-11.31.406-.214.75-.53.997-.917.705-1.1.49-1.999.284-2.533-.287-.747-1.112-2.048-3.143-1.703-.651.111-2.52.891-4.887 2.131-4.805 2.518-12.118 6.864-14.733 8.973-9.165 7.393-22.911 19.472-26.217 32.498-6.052 23.853-20.035 46.379-26.35 71.27-4.818 18.99-10.464 38.913-15.407 58.396-3.612 14.236-7.065 52.156-9.196 68.16a92.348 92.348 0 0 1-.57 3.666Zm69.54-219.726c-4.422 7.224-7.337 13.59-8.32 24.375-.353 3.885.78 10.188 2.75 17.354 4.386 15.951 12.76 36.44 15.583 42.886 3.951 9.017 8.164 12.737 9.91 13.98-5.227 14.826-8.96 59.339-12.991 75.228-3.253 12.82-12.272 61.388-23.745 101.533-2.635 9.22-6.957 27.721-8.122 38.62-1.198 11.193-7.37 39.89-8.502 44.354-1.533 6.04-7.78 23.557-11.04 35.12-.813 2.89-1.443 5.427-1.79 7.362-11.461-7.131-24.764-14.82-32.749-28.233-.233-.392-1.345-1.567-3.152-3.163-5.875-5.19-19.944-16.712-25.866-22.598a31.263 31.263 0 0 1-1.629-1.776c1.148-2.96 3.345-9.343 5.228-14.798a330.49 330.49 0 0 1 3.02-8.3c13.145-18.81 11.033-26.566 11.77-29.467 3.611-14.236 13.202-23.458 20.296-34.519.538-.84.748-2.029.037-3.393-.672-1.289-3.163-3.383-3.8-4.173-2.246-2.784-16.942-19.578-23.764-32.19-1.36-2.513-2.4-4.839-2.903-6.826-.15-.594-.279-1.14-.326-1.63.285.11.555.203.748.252 9.246 2.346 19.41 9.384 26.587 13.987.203.13 2.674 1.869 3.884 2.205 1.76.488 2.906-.313 3.47-1.192.191-.298.468-.913.691-1.858.298-1.26.65-3.47 1.036-6.377 2.112-15.86 5.5-53.445 9.08-67.552 4.943-19.484 10.588-39.407 15.406-58.397 6.315-24.89 20.298-47.416 26.35-71.27 1.805-7.11 7.09-13.831 12.852-19.544ZM131.016 402.58a2.41 2.41 0 0 1-.255.523c.06-.094.147-.272.255-.523Z"/><path d="M367.723 451.727c-57.645-94.466-78.316-287.928-60.892-276.173 24.59 16.589 80.641 61.258 83.169 63.398 34.793 29.461 93.368 61.466 129.333 84 63.213 39.607 131.132 85.042 162.595 91.165 48.165 9.374 116.146 48.885 153.483 58.801 57.536 15.28 92.418 56.99 106.879 71.452 3.579 3.579-5.549 97.285-1.623 101.249 6.316 6.378 15.986 60.835 21.333 85.333 7.236 33.153-397.457-174.986-594.277-279.225Z" style="fill:#fff" transform="rotate(77.672 260.455 241.668) scale(.48)"/><path d="M236.344 444.936c1.274-.27 13.012-2.755 22.552-4.295 9.384-1.515 18.753-3.026 22.467-4.096 1.88-.542 2.85-1.408 3.119-1.827 5.418-8.45 21.674-29.577 22.971-58.762.826-18.567 12.387-54.58 11.845-78.18-.348-15.215 13.967-51.289 25.931-84.627 6.846-19.077 15.785-49.674 25.981-68.91.75-1.413 16.039-32.454 21.328-45.761.353-.888.365-1.672.206-2.341-.195-.818-.65-1.537-1.442-2.095-.558-.393-1.376-.734-2.487-.879-1.511-.196-3.873-.048-6.924.497-22.265 3.979-85.857 29.047-116.935 58.767-.346.33-.597.748-.725 1.21-22.994 82.478-63.545 234.241-71.26 288.165-1.443 10.084-1.623 16.973-.628 19.696.61 1.67 1.651 2.493 2.703 2.812.82.249 1.77.242 2.83-.245 7.688-3.526 22.068-9.563 30.81-14.11 3.7-1.925 6.437-3.746 7.658-5.019ZM386.766 98.52c-5.826 14.022-19.558 41.894-20.263 43.224-10.302 19.434-19.373 50.332-26.289 69.605-12.224 34.065-26.599 71.003-26.242 86.55.54 23.494-11.02 59.337-11.841 77.82-1.21 27.215-16.183 47.04-21.73 55.5-1.862.382-13.103 2.669-22.354 4.162-9.398 1.518-18.804 3.066-22.57 4.203-1.85.56-2.827 1.413-3.118 1.862-.16.245-.547.488-1.033.829-1.216.85-2.983 1.852-5.098 2.952-8.137 4.233-21.197 9.76-29.08 13.317a11.14 11.14 0 0 1-.133-1.2c-.155-3.243.298-8.276 1.23-14.787 7.676-53.644 47.946-204.336 70.92-286.78 30.534-28.802 92.048-53.01 113.663-56.872 1.399-.25 2.86-.348 3.938-.385ZM139.986 261.799c-1.056-.678 1.963-1.74 3.478-2.07 4.128-.903 8.21-3.582 10.298-6.837 7.582-11.824 4.065-22.123-6.286-28.76-12.977-8.324-16.122 19.271-18.546 23.05-.543.849 4.856 10.103 5.586 10.571.568.365 1.035 1.74 1.035 1.74s-1.434-3.608-2.969-4.592c-4.35-2.79-10.12-5.953-15.1-9.147-7.76-4.976-12.72 8.936-14.48 11.681-2.54 3.959 16.073 15.004 17.092 15.262 7.614 1.932 11.683-9.759 17.88-11.113"/><path d="M126.303 247.998c-2.482-1.464-5.022-2.972-7.384-4.487-1.786-1.145-3.484-1.548-5.062-1.48-2.274.1-4.368 1.221-6.179 2.988-3.432 3.35-5.812 9.252-6.92 10.978-.727 1.136-.893 2.505-.325 4.055.457 1.247 1.536 2.746 3.074 4.27 3.893 3.856 10.892 8.29 13.921 10.001 1.061.6 1.803.904 2.011.956 3.97 1.008 7.273-.615 10.238-3.292 1.737-1.568 3.36-3.502 5.02-5.152 1.235-1.229 2.435-2.34 3.846-2.649.06-.013.118-.028.175-.045a2.664 2.664 0 0 0 3.709-1.275c.53-.202 1.227-.452 1.606-.535 4.808-1.051 9.54-4.209 11.972-8.001 4.27-6.659 5.303-12.912 3.923-18.412-1.377-5.485-5.2-10.3-11.014-14.03-2.77-1.775-5.23-2.218-7.378-1.867-3.114.507-5.743 2.803-7.775 6.16-2.482 4.102-4.156 9.826-5.4 14.273-.694 2.475-1.164 4.496-1.673 5.29a2.9 2.9 0 0 0-.455 1.427 3.63 3.63 0 0 0 .07.827Zm4.307 8.806c-4.28-2.706-9.787-5.743-14.567-8.807-2.485-1.595-4.373.264-5.93 2.314-2.127 2.8-3.654 6.364-4.57 8.047.278.422.995 1.467 1.713 2.178 4.002 3.964 11.613 8.572 13.59 9.582l.075.037c1.403.295 2.604-.19 3.722-.952 1.055-.72 2.037-1.674 3.003-2.678 1.723-1.79 3.39-3.725 5.139-5.147.179-.146.36-.286.54-.421a2.665 2.665 0 0 1-.25-.48s-.043-.11-.123-.295l-.216-.466a7.737 7.737 0 0 1-1.08-1.282 37.07 37.07 0 0 1-1.046-1.63Zm10.928 2.83Zm0-.001a2.569 2.569 0 0 0-.114-.077l.113.077Zm-3.114-.675c.995-.73 3.137-1.54 4.471-1.832 3.447-.754 6.881-2.954 8.624-5.672 3.313-5.165 4.312-9.973 3.241-14.239-1.074-4.28-4.186-7.932-8.722-10.842-1.384-.888-2.57-1.269-3.644-1.094-1.72.28-2.953 1.808-4.075 3.661-2.248 3.715-3.7 8.922-4.828 12.95-.644 2.302-1.23 4.269-1.753 5.564l3.36 6.117c.352.37.693.797 1.007 1.26.556.82 1.04 1.748 1.383 2.467.355.669.586 1.337.586 1.337.033.096.06.193.08.291l.05.003.13.015.09.014Z"/></svg>