<?xml version="1.0" encoding="UTF-8" standalone="no"?>
<!DOCTYPE svg PUBLIC "-//W3C//DTD SVG 1.1//EN" "http://www.w3.org/Graphics/SVG/1.1/DTD/svg11.dtd">
<svg width="100%" height="100%" viewBox="0 0 492 492" version="1.1" xmlns="http://www.w3.org/2000/svg" xmlns:xlink="http://www.w3.org/1999/xlink" xml:space="preserve" xmlns:serif="http://www.serif.com/" style="fill-rule:evenodd;clip-rule:evenodd;stroke-linecap:round;stroke-linejoin:round;stroke-miterlimit:1.5;">
    <g transform="matrix(0.48,0,0,0.48,0,0)">
        <g>
            <g transform="matrix(1,0,0,1,-5.62938,-2.72681)">
                <path d="M585,295C586.99,294.788 818,523 818,523C818,523 485.333,865.667 408,933C394.341,944.893 368.107,938.357 354,927C333.09,910.165 285.501,874.015 246.598,834.363C212.322,799.426 186.13,760.877 172,743C162.696,731.229 162.83,709.031 173,698C241.833,623.333 583.01,295.212 585,295Z" style="fill:white;stroke:black;stroke-width:6.26px;"/>
            </g>
            <path d="M544.099,327.542C545.621,326.02 574.826,359.455 583.818,363.951C620.795,382.439 641.673,422.91 674.288,455.525C681.383,462.619 696.06,475.898 700.768,485.314C710.746,505.272 738.594,519.041 747.106,536.066C752.17,546.192 775.849,557.028 774.689,557.028" style="fill:white;"/>
            <path d="M543.549,330.541C547.07,333.137 557.122,343.931 566.344,353C572.879,359.426 579.065,364.984 582.454,366.679C600.575,375.74 614.715,390.229 628.357,406.407C642.329,422.976 655.762,441.311 672.132,457.682C679.053,464.603 693.446,477.491 698.04,486.678C703.195,496.989 712.903,505.758 722.485,514.091C731.429,521.869 740.274,529.22 744.378,537.43C746.379,541.43 750.945,545.613 756.016,549.224C762.803,554.058 770.407,557.946 772.555,559.206C773.105,559.746 773.858,560.078 774.689,560.078C775.099,560.078 775.417,560.004 775.653,559.928C776.559,559.635 777.065,559.078 777.379,558.525C777.742,557.887 777.918,557.126 777.676,556.219C777.613,555.982 777.3,554.948 775.92,554.109C774.119,553.014 766.406,549.135 759.554,544.255C755.384,541.285 751.48,537.993 749.834,534.702C745.427,525.886 736.092,517.841 726.488,509.488C717.524,501.692 708.319,493.597 703.496,483.95C698.673,474.304 683.712,460.635 676.445,453.368C660.2,437.123 646.886,418.916 633.02,402.474C618.825,385.641 604.038,370.651 585.182,361.223C582.097,359.68 576.569,354.5 570.621,348.65C561.132,339.319 550.744,328.255 547.143,325.612C545.758,324.595 544.599,324.416 544.049,324.447C543.15,324.499 542.467,324.861 541.942,325.385C540.752,326.576 540.752,328.508 541.942,329.699C542.397,330.154 542.961,330.435 543.549,330.541ZM772.274,555.168C772.831,554.444 773.706,553.978 774.689,553.978C773.376,553.978 772.672,554.579 772.274,555.168ZM545.754,330.104L545.693,330.142L545.714,330.13L545.754,330.104ZM545.903,330.002L545.94,329.974C545.891,330.012 545.839,330.048 545.787,330.083L545.903,330.002ZM546.11,329.834L546.059,329.878L546.087,329.856L546.11,329.834Z"/>
            <path d="M218.626,643.086C216.99,643.086 224.576,651.243 235.175,661.842C245.814,672.481 254.46,682.23 266.068,693.838C294.121,721.891 329.435,760.515 360.951,792.031C369.492,800.572 389.85,814.522 395.154,825.13C401.226,837.276 440.99,867.656 449.215,875.882C451.323,877.99 452.9,874.779 450.319,874.779" style="fill:white;"/>
            <path d="M449.405,871.868C441.757,864.923 423.053,850.066 410.058,837.686C404.261,832.163 399.606,827.215 397.882,823.766C395.63,819.263 390.876,814.145 385.336,809.101C377.546,802.007 368.208,794.974 363.108,789.875C331.592,758.358 296.278,719.734 268.224,691.681C256.617,680.074 247.971,670.324 237.332,659.685C229.671,652.024 223.593,645.718 221.673,642.994C221.626,641.353 220.278,640.036 218.626,640.036C217.466,640.036 216.71,640.525 216.193,641.093C215.668,641.67 215.263,642.474 215.368,643.607C215.419,644.149 215.784,645.273 216.831,646.69C219.063,649.715 225.238,656.218 233.019,663.999C243.658,674.638 252.304,684.387 263.911,695.994C291.964,724.048 327.278,762.672 358.795,794.188C363.944,799.337 373.363,806.448 381.229,813.611C386.128,818.073 390.434,822.511 392.426,826.494C394.345,830.333 399.397,835.954 405.851,842.102C420.123,855.7 441.309,872.288 447.059,878.039C448.367,879.347 449.672,879.66 450.675,879.649C452.256,879.63 453.46,878.786 454.116,877.73C454.921,876.434 454.93,874.822 454.054,873.533C453.473,872.678 452.377,871.729 450.319,871.729C450,871.729 449.693,871.778 449.405,871.868ZM219.912,645.851C219.574,646.009 219.203,646.107 218.811,646.13C219.243,646.108 219.606,646.007 219.912,645.851Z"/>
            <path d="M241.795,621.02C239.701,618.926 246.936,623.954 248.415,625.433C253.643,630.661 258.5,632.364 261.654,638.673C268.729,652.821 289.879,685.884 307.993,694.941C331.925,706.907 351.055,739.106 368.674,756.726C386.164,774.216 405.756,788.291 420.53,803.064C435.362,817.897 449.264,829.592 464.662,844.99C471.532,851.86 477.644,852.97 476.798,853.816" style="fill:white;"/>
            <path d="M241.536,624.058C243.144,625.112 245.515,626.846 246.258,627.59C248.951,630.282 251.541,632.076 253.87,634C255.82,635.609 257.567,637.318 258.926,640.037C266.187,654.557 288.038,688.373 306.629,697.669C318.26,703.484 328.679,714.268 338.376,725.687C348.41,737.503 357.658,750.022 366.518,758.882C384.007,776.372 403.6,790.448 418.373,805.221C433.205,820.053 447.107,831.749 462.505,847.146C467.236,851.877 472.566,854.672 474.246,855.486C474.358,855.659 474.49,855.822 474.641,855.973C475.831,857.163 477.764,857.163 478.954,855.973C479.652,855.275 479.896,854.514 479.924,853.774C479.954,852.989 479.736,851.751 478.259,850.727C476.958,849.824 472.108,848.123 466.818,842.833C451.421,827.435 437.519,815.74 422.686,800.908C407.913,786.134 388.321,772.059 370.831,754.569C362.072,745.81 352.945,733.42 343.026,721.739C332.77,709.662 321.658,698.363 309.357,692.213C291.72,683.394 271.27,651.084 264.382,637.309C262.587,633.719 260.329,631.422 257.754,629.296C255.56,627.484 253.107,625.812 250.571,623.276C249.187,621.891 243.428,617.933 242.459,617.625C240.465,616.993 239.376,618.153 238.947,618.748C238.72,619.063 237.503,621.042 239.638,623.176C240.168,623.706 240.844,624 241.536,624.058ZM474.347,852L474.346,852.002L474.402,851.929L474.347,852ZM474.433,851.89C474.498,851.81 474.567,851.733 474.641,851.659C474.565,851.735 474.496,851.812 474.433,851.89Z"/>
            <path d="M257.241,604.47C278.118,625.346 304.482,658.331 325.646,679.495C340.817,694.665 362.403,705.219 378.604,721.42C388.187,731.003 401.534,747.779 412.806,753.416C429.068,761.546 456.435,797.045 470.178,810.787C476.828,817.437 501.084,833.97 497.761,830.647" style="fill:white;"/>
            <path d="M497.933,827.603C497.553,827.38 497.113,827.114 496.696,826.848C490.651,822.998 477.02,813.316 472.335,808.631C464.1,800.397 450.969,784.339 438.273,771.058C429.508,761.889 420.897,754.051 414.17,750.688C403.131,745.168 390.145,728.648 380.761,719.263C364.56,703.062 342.973,692.508 327.802,677.338C306.638,656.174 280.274,623.19 259.398,602.314C258.208,601.123 256.275,601.123 255.085,602.314C253.894,603.504 253.894,605.437 255.085,606.627C275.961,627.503 302.325,660.488 323.489,681.651C338.66,696.822 360.246,707.376 376.447,723.577C386.229,733.358 399.937,750.391 411.442,756.144C417.725,759.285 425.677,766.71 433.864,775.273C446.594,788.59 459.765,804.688 468.021,812.944C472.911,817.834 487.11,827.975 493.419,831.993C495.473,833.302 496.956,833.984 497.373,834.068C499.518,834.5 500.45,833.185 500.84,832.336C501.009,831.968 501.694,830.267 499.917,828.49C499.366,827.939 498.655,827.643 497.933,827.603Z"/>
            <path d="M615.814,325.335C615.427,324.949 635.138,301.598 636.776,299.96C642.258,294.478 644.516,290.046 651.119,296.65C651.343,296.873 654.355,298.931 655.532,297.753C671.591,281.694 689.062,266.431 704.078,251.414C720.304,235.187 758.969,201.208 768.069,183.01C769.772,179.604 788.92,160.833 790.135,162.047C797.272,169.184 800.165,178.697 807.788,186.32C834.282,212.813 866.079,244.609 894.948,273.48C906.578,285.11 912.228,298.483 922.531,308.786C927.608,313.863 935.001,314.636 940.184,319.819C948.835,328.47 908.778,355.048 902.672,367.261C895.489,381.625 841.525,425.098 828.75,437.872C823.24,443.382 819.677,449.152 813.304,455.525C812.538,456.291 810.503,456.543 811.098,457.731C811.816,459.168 817.109,463.856 816.614,464.351C809.443,471.522 800.616,477.039 793.445,484.211C791.018,486.638 784.003,493.037 786.825,493.037" style="fill:white;"/>
            <path d="M654.137,294.838L653.102,294.323C650.599,291.862 648.496,290.756 646.71,290.419C644.575,290.017 642.68,290.543 640.804,291.839C638.961,293.112 637.079,295.343 634.62,297.803C633.122,299.3 616.756,318.655 613.784,322.798C612.882,324.055 612.762,325.041 612.758,325.274C612.743,326.319 613.177,327.012 613.657,327.492C614.847,328.682 616.78,328.682 617.97,327.492C618.257,327.206 618.474,326.876 618.622,326.523L618.741,326.353C621.622,322.337 637.481,303.568 638.933,302.116C640.783,300.266 642.244,298.532 643.645,297.343C644.302,296.786 644.841,296.274 645.58,296.414C646.56,296.598 647.579,297.423 648.963,298.806C649.207,299.051 651.566,300.749 653.606,301.086C655.224,301.353 656.665,300.934 657.689,299.91C673.747,283.851 691.218,268.587 706.234,253.571C722.629,237.176 761.603,202.761 770.797,184.374C771.356,183.256 774.044,180.385 777.22,177.14C781.075,173.202 787.056,168.041 789.563,165.911C792.144,168.896 794.13,172.227 796.173,175.586C798.864,180.011 801.638,184.484 805.631,188.476C832.125,214.97 863.922,246.766 892.792,275.637C904.421,287.267 910.071,300.64 920.374,310.943C923.169,313.737 926.57,315.397 930.017,317.022C932.835,318.35 935.694,319.643 938.027,321.976C938.524,322.473 938.389,323.15 938.153,323.914C937.627,325.623 936.351,327.554 934.664,329.674C929.219,336.514 919.596,344.774 911.87,352.122C906.332,357.389 901.758,362.268 899.944,365.897C897.876,370.033 891.701,376.626 883.831,384.241C864.685,402.766 835.542,426.768 826.594,435.715C821.114,441.194 817.56,446.931 811.254,453.261C810.937,453.435 809.296,454.359 808.827,454.92C807.899,456.031 807.498,457.352 808.37,459.095C808.617,459.59 809.2,460.384 809.997,461.268C810.757,462.11 811.756,463.113 812.588,463.994C805.792,470.319 797.848,475.494 791.288,482.054C789.886,483.456 787.006,486.15 785.248,488.243C784.128,489.577 783.435,490.823 783.238,491.613C782.89,493.005 783.286,494.067 783.935,494.83C784.464,495.454 785.328,496.087 786.825,496.087C788.508,496.087 789.875,494.72 789.875,493.037C789.875,492.784 789.844,492.538 789.785,492.302C791.319,490.381 794.246,487.723 795.602,486.367C802.773,479.196 811.599,473.679 818.771,466.508C819.458,465.82 820.164,464.596 819.387,462.847C819.118,462.241 818.112,460.967 816.843,459.631C816.37,459.133 815.77,458.48 815.227,457.884C815.318,457.813 815.397,457.745 815.461,457.682C821.834,451.309 825.397,445.539 830.907,440.029C839.844,431.093 868.951,407.125 888.073,388.625C896.603,380.372 903.158,373.107 905.4,368.625C907.005,365.414 911.174,361.202 916.074,356.542C924.003,349.001 933.849,340.493 939.437,333.473C942.215,329.982 943.963,326.741 944.354,324.099C944.728,321.574 944.09,319.411 942.34,317.662C939.49,314.812 936.062,313.127 932.618,311.504C929.803,310.177 926.97,308.912 924.688,306.629C914.385,296.327 908.734,282.954 897.105,271.324C868.236,242.453 836.439,210.656 809.944,184.163C806.315,180.533 803.831,176.439 801.385,172.417C798.69,167.985 796.036,163.635 792.292,159.89C791.678,159.277 790.054,158.342 787.806,159.57C785.292,160.944 778.333,167.283 772.861,172.873C769.068,176.748 766.008,180.311 765.341,181.646C756.336,199.656 717.98,233.199 701.921,249.258C687.142,264.037 669.986,279.055 654.137,294.838ZM787.02,489.994L787.086,489.999L787.062,489.996L787.02,489.994ZM786.965,489.991C786.919,489.988 786.873,489.987 786.825,489.987L786.965,489.991ZM618.833,324.906L618.844,324.997L618.843,324.991L618.833,324.906ZM618.831,324.897C618.735,324.121 618.368,323.576 617.97,323.179C618.454,323.662 618.741,324.268 618.831,324.897Z"/>
            <path d="M355.297,927.392C360.857,921.832 372.977,926.951 377.708,922.221C390.971,908.957 410.968,897.58 425.977,882.571C461.557,846.991 487.767,810.438 524.24,773.965C579.09,719.114 609.333,702.834 662.459,649.709C671.78,640.387 705.439,599.661 713.869,591.231C724.174,580.926 779.169,513.655 784.55,513.655C785.573,513.655 791.445,509.515 791.445,508.483" style="fill:white;"/>
            <path d="M788.662,507.237L783.9,510.675C783.229,510.806 782.341,511.145 781.327,511.848C779.694,512.981 777.129,515.341 773.941,518.601C756.784,536.146 719.954,580.833 711.713,589.074C703.283,597.504 669.624,638.23 660.302,647.552C607.177,700.677 576.933,716.958 522.083,771.808C485.61,808.281 459.4,844.834 423.82,880.414C408.811,895.423 388.815,906.8 375.551,920.064C374.811,920.804 373.739,921.053 372.557,921.224C370.8,921.477 368.816,921.443 366.809,921.446C361.653,921.453 356.461,921.915 353.14,925.236C351.95,926.426 351.95,928.359 353.14,929.549C354.331,930.739 356.263,930.739 357.454,929.549C358.644,928.359 360.299,927.959 362.063,927.745C364.433,927.458 367.007,927.572 369.426,927.533C373.675,927.465 377.474,926.768 379.864,924.377C393.128,911.114 413.125,899.737 428.134,884.727C463.713,849.148 489.923,812.595 526.396,776.121C581.247,721.271 611.49,704.991 664.615,651.865C673.937,642.544 707.596,601.818 716.026,593.387C724.273,585.14 761.133,540.423 778.303,522.866C780.525,520.593 782.4,518.791 783.821,517.618C784.328,517.199 784.94,516.78 785.138,516.647C785.519,516.58 785.995,516.443 786.529,516.193C787.92,515.542 790.522,513.786 792.16,512.348C793.18,511.454 793.865,510.577 794.13,510.028C794.411,509.447 794.495,508.918 794.495,508.483C794.495,506.8 793.128,505.433 791.445,505.433C790.206,505.433 789.138,506.174 788.662,507.237Z"/>
            <path d="M719.524,263.551C722.637,260.438 746.752,289.675 752.623,295.546C752.733,295.657 755.822,295.657 755.933,295.546C763.477,288.002 770.813,280.666 777.999,273.48C778.267,273.212 776.016,270.394 775.792,270.17C767.415,261.794 758.623,247.485 750.416,239.278C749.896,238.758 748.945,239.278 748.21,239.278C742.351,239.278 719.676,262.295 722.834,259.138" style="fill:white;"/>
            <path d="M748.111,236.23C747.34,236.245 746.391,236.444 745.32,236.883C743.576,237.599 741.285,239.043 738.8,240.901C731.21,246.574 721.475,256.177 720.46,257.194C720.363,257.291 720.27,257.392 720.182,257.496C718.958,258.819 718.351,259.906 718.184,260.763C717.884,260.936 717.613,261.149 717.367,261.394C716.177,262.584 716.177,264.517 717.367,265.707C718.121,266.461 719.172,266.737 720.144,266.536C720.925,267.068 723.136,268.616 724.864,270.217C733.365,278.09 746.369,293.606 750.466,297.703C750.688,297.925 751.122,298.319 751.914,298.519C752.173,298.585 753.224,298.679 754.278,298.679C755.332,298.679 756.382,298.585 756.641,298.519C757.433,298.319 757.867,297.925 758.089,297.703C765.634,290.159 772.97,282.822 780.155,275.637C780.717,275.076 781.357,274.078 780.959,272.557C780.859,272.173 780.538,271.461 780.025,270.696C779.282,269.589 778.119,268.184 777.949,268.014C769.572,259.637 760.78,245.328 752.573,237.121C751.858,236.406 750.994,236.053 750.003,236.003C749.466,235.976 748.295,236.194 748.111,236.23ZM749.049,242.241C748.744,242.288 748.423,242.328 748.21,242.328C747.917,242.328 747.565,242.542 747.116,242.762C745.795,243.408 744.19,244.487 742.452,245.787C735.538,250.955 726.783,259.513 725.015,261.269L724.99,261.294L724.847,261.435L724.778,261.503L724.736,261.543L724.694,261.584L724.664,261.612L724.624,261.65L724.605,261.668L724.405,261.855L724.344,261.909C724.701,262.144 725.07,262.406 725.45,262.696C733.073,268.521 748.377,286.67 753.969,292.553L754.612,292.554L774.136,273.03L773.57,272.262C765.481,264.145 757.007,250.529 749.049,242.241Z"/>
            <path d="M814.408,312.096C804.464,317.068 797.482,325.712 790.135,333.059C789.032,334.162 786.825,336.368 786.825,336.368C786.825,336.368 789.197,337.637 790.135,338.575C807.718,356.159 823.26,369.441 826.544,366.158C834.014,358.688 839.137,352.461 845.3,346.298C845.949,345.649 851.944,344.116 849.713,341.885C847.874,340.046 843.829,340.414 841.99,338.575C836.722,333.307 815.511,301.28 815.511,316.509" style="fill:white;"/>
            <path d="M847.193,348.722C847.608,348.542 848.781,348.028 849.572,347.62C850.656,347.059 851.625,346.359 852.218,345.642C852.961,344.743 853.29,343.748 853.256,342.738C853.224,341.806 852.9,340.758 851.87,339.728C850.785,338.643 849.232,337.97 847.522,337.51C846.707,337.291 845.854,337.113 845.077,336.857C844.727,336.741 844.38,336.651 844.147,336.418C840.398,332.67 828.641,315.651 821.965,311.052C819.712,309.5 817.667,309.174 816.158,309.598C815.271,308.978 814.08,308.85 813.044,309.368C802.798,314.491 795.548,323.332 787.978,330.902C786.875,332.005 784.668,334.212 784.668,334.212C783.986,334.895 783.666,335.86 783.808,336.816C783.95,337.771 784.535,338.602 785.386,339.058C785.386,339.058 787.251,340.005 787.978,340.732C800.534,353.287 812.102,363.655 819.042,367.619C821.289,368.903 823.186,369.565 824.592,369.684C826.384,369.836 827.732,369.282 828.7,368.314C836.063,360.952 841.146,354.797 847.193,348.722ZM818.576,316.126C818.566,316.256 818.561,316.386 818.561,316.509C818.561,318.192 817.194,319.559 815.511,319.559C813.885,319.559 812.555,318.284 812.466,316.68C804.534,321.626 798.572,328.935 792.292,335.215C792.292,335.215 791.648,335.859 791.648,335.859C791.893,336.051 792.113,336.24 792.292,336.418C804.353,348.48 815.401,358.514 822.067,362.323C823.077,362.9 824.32,363.34 824.864,363.52C832.078,356.263 837.113,350.172 843.143,344.141C843.389,343.895 843.97,343.495 844.792,343.107L844.181,342.95C842.471,342.49 840.919,341.817 839.833,340.732C836.677,337.575 827.792,324.796 821.186,318.365C820.252,317.456 819.376,316.686 818.576,316.126Z"/>
            <path d="M662.152,299.891C662.995,299.593 680.799,316.814 682.839,318.854C725.157,361.173 769.314,407.051 812.132,449.87C814.404,452.143 815.58,453.905 815.58,458.49" style="fill:white;"/>
            <path d="M661.046,302.731L661.072,302.75C664.53,305.298 678.878,319.205 680.682,321.01C723.001,363.33 767.157,409.207 809.975,452.027C811.676,453.728 812.53,455.058 812.53,458.49C812.53,460.173 813.897,461.54 815.58,461.54C817.263,461.54 818.63,460.173 818.63,458.49C818.63,452.753 817.132,450.557 814.289,447.714C771.471,404.894 727.314,359.016 684.996,316.697C683.129,314.83 668.266,300.474 664.69,297.839C662.98,296.578 661.506,296.884 661.137,297.015C659.55,297.575 658.716,299.318 659.276,300.906C659.583,301.777 660.247,302.421 661.046,302.731Z"/>
            <path d="M463.558,629.846C465.967,627.438 463.529,627.61 462.455,626.536C452.78,616.861 439.944,626.981 433.769,633.156C420.615,646.31 444.185,657.915 448.112,661.842C449.23,662.96 457.388,661.842 459.145,661.842C462.315,661.842 463.105,660.088 464.662,658.532C472.834,650.36 467.281,637.157 471.281,633.156C480.749,623.688 491.254,612.08 501.07,602.264C501.331,602.004 501.806,602.264 502.174,602.264L544.099,602.264C544.553,602.264 547.117,601.972 547.409,602.264C547.815,602.67 554.449,606.257 556.235,604.47C560.226,600.479 564.427,592.969 569.475,587.921C570.094,587.302 575.56,593.972 578.301,591.231C580.547,588.985 582.443,584.882 584.921,582.404C586.76,580.565 590.438,576.888 590.438,576.888C590.438,576.888 589.053,575.785 588.231,575.785C585.63,575.785 574.156,554.554 571.682,557.028C567.62,561.091 558.442,568.061 558.442,568.061C558.442,568.061 559.913,569.533 560.649,570.268C567.28,576.899 560.308,583.848 554.029,590.127C549.398,594.758 532.951,593.437 522.033,593.437C520.242,593.437 514.517,594.747 514.31,594.541C513.541,593.771 517.185,591.448 517.62,591.231C526.809,586.636 537.185,573.872 545.202,565.855C552.48,558.577 570.537,531.121 578.301,527.239C579.396,526.692 585.14,538.054 587.128,536.066C594.153,529.041 588.291,510.63 594.851,504.07C595.586,503.335 597.058,501.863 597.058,501.863L590.438,501.863C581.5,501.863 567.296,502.939 562.855,507.38C559.724,510.511 574.813,514.178 571.682,517.31C564.412,524.579 551.809,532.783 547.409,541.582C542.533,551.333 502.206,587.888 495.554,594.541C492.98,597.115 487.831,602.264 487.831,602.264C487.831,602.264 486.728,599.367 486.728,597.851C486.728,593.158 479.283,567.783 484.521,562.545C495.466,551.599 511.436,547.767 522.033,537.169C526.555,532.647 516.222,513.044 505.484,518.413C498.122,522.094 492.244,526.383 492.244,537.169C492.244,537.689 493.347,538.272 493.347,538.272C493.347,538.272 491.223,539.886 490.037,540.479C481.606,544.695 475.517,554.999 471.281,559.235C469.304,561.213 474.591,581.901 474.591,586.818C474.591,604.645 477.394,611.598 466.868,622.123C465.732,623.259 463.35,625.641 464.662,624.33" style="fill:white;"/>
            <path d="M568.181,516.452C563.954,520.423 558.405,524.658 553.671,529.108C549.868,532.683 546.583,536.414 544.681,540.218C543.289,543.002 538.804,548.033 533.116,553.951C519.184,568.446 498.049,587.732 493.397,592.384L489.621,596.16C489.035,592.002 486.945,583.259 486.065,575.539C485.696,572.293 485.539,569.248 485.91,566.918C486.061,565.972 486.212,565.168 486.678,564.702C491.943,559.437 498.438,555.916 504.869,552.403C511.813,548.611 518.687,544.829 524.19,539.326C525.407,538.108 526.134,536.295 526.171,534.055C526.211,531.657 525.441,528.644 523.986,525.712C522.234,522.181 519.507,518.774 516.317,516.689C512.649,514.291 508.404,513.543 504.12,515.685C495.731,519.879 489.194,524.878 489.194,537.169C489.194,537.261 489.198,537.355 489.207,537.45C489.016,537.567 488.835,537.67 488.673,537.751C484.104,540.036 480.134,543.93 476.768,547.867C473.723,551.429 471.201,555.002 469.125,557.078C468.71,557.493 468.306,558.101 468.065,558.961C467.842,559.753 467.738,560.991 467.82,562.552C468.159,568.976 471.541,582.91 471.541,586.818C471.541,593.911 471.99,599.273 471.856,603.825C471.675,609.912 470.313,614.365 464.712,619.966L462.288,622.39C456.995,618.565 451.134,618.867 445.659,621.074C440.073,623.326 434.935,627.677 431.612,630.999C428.32,634.292 426.968,637.559 426.788,640.635C426.606,643.738 427.638,646.723 429.458,649.484C431.803,653.042 435.503,656.242 438.966,658.84C442.007,661.121 444.833,662.876 445.955,663.999C446.487,664.53 447.587,665.134 449.201,665.304C452.008,665.6 457.693,664.892 459.145,664.892C463.455,664.892 464.702,662.805 466.818,660.689C471.515,655.992 472.431,649.907 472.585,644.364C472.649,642.02 472.582,639.802 472.747,637.927C472.843,636.834 472.871,635.88 473.438,635.313C482.621,626.13 492.779,614.934 502.34,605.314L544.099,605.314C544.361,605.314 545.863,605.235 546.468,605.202C548.024,606.095 550.768,607.443 553.076,607.86C555.364,608.273 557.287,607.732 558.392,606.627C561.938,603.081 565.649,596.757 569.974,591.851L570.355,592.145C571.692,593.168 573.273,594.187 574.739,594.637C576.873,595.292 578.861,594.985 580.458,593.387C582.704,591.142 584.6,587.039 587.078,584.561C588.917,582.722 592.594,579.045 592.594,579.045C593.209,578.43 593.532,577.584 593.483,576.716C593.434,575.849 593.018,575.044 592.339,574.503C592.339,574.503 591.36,573.73 590.369,573.263C589.983,573.082 589.591,572.946 589.216,572.859C588.682,572.225 586.622,569.75 585.14,567.644C582.125,563.358 578.637,558.182 576.229,555.842C575.103,554.747 574.036,554.14 573.238,553.923C571.734,553.515 570.504,553.892 569.525,554.872C565.56,558.836 556.597,565.633 556.597,565.633C555.896,566.165 555.459,566.976 555.399,567.854C555.339,568.733 555.662,569.595 556.285,570.218C556.285,570.218 557.756,571.689 558.492,572.425C560.641,574.574 560.561,576.778 559.46,578.951C557.889,582.05 554.776,585.067 551.872,587.971C551.251,588.592 550.276,588.982 549.113,589.323C547.547,589.782 545.677,590.069 543.633,590.256C537.772,590.791 530.583,590.49 524.545,590.407C532.447,584.414 540.718,574.653 547.359,568.011C551.771,563.6 560.118,551.862 567.772,542.321C571.56,537.598 575.098,533.395 577.841,531.189C578.755,532.457 580.093,534.288 581.078,535.543C582.585,537.464 584.223,538.811 585.367,539.163C586.884,539.63 588.195,539.311 589.284,538.222C591.051,536.456 592.218,534.145 592.943,531.467C593.863,528.069 594.063,524.028 594.212,520.006C594.323,517 594.408,514.007 594.869,511.375C595.232,509.299 595.773,507.461 597.008,506.227C597.743,505.491 599.214,504.02 599.214,504.02C600.086,503.148 600.347,501.836 599.875,500.696C599.403,499.557 598.291,498.813 597.058,498.813L590.438,498.813C584.889,498.813 577.381,499.225 571.268,500.538C566.641,501.531 562.785,503.136 560.699,505.223C559.89,506.032 559.53,506.89 559.414,507.718C559.293,508.588 559.439,509.48 559.918,510.367C560.521,511.486 562.017,512.78 563.935,513.937C565.109,514.646 566.444,515.359 567.602,516.067C567.786,516.18 567.986,516.314 568.181,516.452ZM590.554,504.913L590.438,504.913C585.261,504.913 578.253,505.277 572.549,506.502C570.237,506.998 568.143,507.582 566.6,508.405C566.714,508.483 566.827,508.556 566.935,508.622C568.093,509.33 569.427,510.044 570.602,510.752C572.52,511.91 574.016,513.203 574.619,514.322C575.098,515.209 575.244,516.102 575.123,516.971C575.007,517.8 574.647,518.658 573.838,519.466C570.164,523.141 565.145,527.057 560.485,531.161C556.194,534.94 552.185,538.851 550.137,542.946C548.603,546.013 543.782,551.657 537.514,558.178C523.551,572.704 502.372,592.036 497.711,596.697C495.136,599.272 489.988,604.42 489.988,604.42C489.256,605.152 488.204,605.463 487.193,605.246C486.182,605.03 485.349,604.316 484.981,603.349C484.981,603.349 483.678,599.734 483.678,597.851C483.678,594.581 480.031,581.227 479.64,571.719C479.525,568.915 479.688,566.406 480.198,564.457C480.654,562.718 481.403,561.349 482.364,560.388C488.045,554.708 495.007,550.839 501.946,547.05C508.373,543.54 514.782,540.107 519.876,535.012C519.997,534.892 519.999,534.696 520.03,534.495C520.088,534.117 520.085,533.699 520.043,533.252C519.904,531.784 519.35,530.092 518.521,528.423C517.243,525.847 515.307,523.316 512.98,521.795C511.131,520.587 509.007,520.061 506.848,521.141C500.512,524.309 495.294,527.886 495.294,537.169C495.294,536.666 494.648,535.492 494.648,535.492L493.347,541.322L495.192,540.701C495.192,540.701 492.756,542.53 491.401,543.207C487.54,545.138 484.249,548.504 481.404,551.831C478.479,555.253 476.002,558.67 473.938,560.873C473.94,561.523 473.965,563.264 474.151,564.761C475.042,571.952 477.641,583.318 477.641,586.818C477.641,593.986 478.089,599.405 477.953,604.005C477.727,611.645 476.055,617.25 469.025,624.28L467.066,626.239C467.48,626.866 467.673,627.588 467.631,628.423C467.593,629.204 467.276,630.442 465.715,632.003C464.525,633.193 462.592,633.193 461.402,632.003C460.584,631.185 460.328,630.017 460.634,628.98C460.506,628.883 460.391,628.786 460.298,628.693C456.485,624.88 452.031,625.082 447.94,626.731C443.145,628.664 438.778,632.461 435.926,635.313C433.956,637.282 432.985,639.152 432.877,640.992C432.708,643.887 434.524,646.496 436.757,648.869C441.107,653.493 447.273,657.131 449.732,659.201C450.267,659.23 451.646,659.295 452.669,659.245C455.293,659.119 458.174,658.792 459.145,658.792C460.194,658.792 460.682,658.364 461.139,657.868C461.58,657.388 462.007,656.873 462.505,656.375C466.776,652.104 466.484,646.184 466.527,641.435C466.549,639.001 466.617,636.794 467.03,635.03C467.419,633.364 468.112,632.012 469.125,630.999C478.592,621.531 489.097,609.924 498.914,600.107C499.792,599.229 502.492,599.239 502.492,599.239C502.492,599.239 502.275,599.214 502.174,599.214L544.099,599.214C544.497,599.214 546.375,599.032 547.273,599.114C548.197,599.198 548.856,599.54 549.266,599.849C549.38,599.912 551.644,601.159 553.334,601.656C553.678,601.757 554.191,601.837 554.501,601.878C558.367,597.797 562.448,590.635 567.318,585.764C567.851,585.232 568.525,584.89 569.38,584.836C569.904,584.804 570.967,584.961 572.153,585.818C572.857,586.326 573.891,587.231 575.018,587.994C575.422,588.268 576.103,588.584 576.461,588.742C578.572,586.443 580.404,582.608 582.765,580.248L585.379,577.634C585.184,577.478 584.988,577.303 584.792,577.108C582.578,574.907 578.738,568.966 575.367,564.364C574.393,563.035 573.118,561.589 572.277,560.669C569.481,563.224 565.619,566.328 563.041,568.352C567.284,572.758 567.156,577.26 564.901,581.709C563.074,585.312 559.561,588.908 556.185,592.284C554.45,594.019 551.454,595.25 547.647,595.892C540.391,597.116 529.83,596.487 522.033,596.487C520.457,596.487 515.769,597.545 514.699,597.605C513.198,597.689 512.409,596.953 512.153,596.697C511.088,595.632 510.693,594.165 511.651,592.441C511.948,591.906 512.5,591.249 513.205,590.635C514.362,589.627 515.949,588.656 516.256,588.503C525.207,584.027 535.236,571.508 543.046,563.698C548.109,558.635 558.407,543.736 566.785,533.935C570.743,529.305 574.386,525.787 576.937,524.511C577.785,524.088 579.185,523.818 580.688,525.043C581.567,525.76 583.203,528.123 584.853,530.408C585.236,530.94 585.762,531.576 586.234,532.125C586.779,531.044 587.123,529.791 587.38,528.45C587.894,525.777 588.005,522.772 588.116,519.781C588.264,515.776 588.417,511.796 589.245,508.5C589.571,507.201 590.002,505.999 590.554,504.913Z"/>
            <path d="M800.065,430.907C823.389,407.582 849.518,370.841 881.088,355.056C890.64,350.28 924.186,317.571 924.186,318.854" style="fill:white;"/>
            <path d="M925.286,321.698C926.426,321.257 927.236,320.149 927.236,318.854C927.236,317.792 926.786,317.08 926.236,316.576C925.751,316.132 925.096,315.777 924.183,315.767C923.894,315.764 922.747,315.915 921.334,317.043C915.877,321.399 888.222,348.079 879.724,352.328C847.878,368.25 821.436,405.222 797.908,428.751C796.718,429.941 796.718,431.874 797.908,433.064C799.098,434.254 801.031,434.254 802.221,433.064C825.342,409.943 851.157,373.431 882.452,357.784C891.148,353.436 919.556,326.268 925.14,321.81L925.286,321.698ZM921.14,319.015C921.169,319.66 921.375,320.165 921.664,320.568C921.359,320.121 921.17,319.589 921.14,319.015Z"/>
        </g>
        <path d="M782.782,175.372C783.247,175.741 784.741,176.955 785.723,178.016C787.873,180.34 790.006,183.159 790.441,184.029C807.693,218.531 882.64,288.515 908.238,314.115C908.965,314.842 912.137,318.734 914.787,321.311C916.304,322.787 917.763,323.846 918.712,324.204C920.232,324.776 921.438,324.429 922.284,323.81C923.006,323.282 923.788,322.344 923.788,320.578C923.788,318.894 922.421,317.528 920.738,317.528C920.439,317.528 920.149,317.571 919.876,317.652C919.292,317.139 918.553,316.466 917.963,315.85C915.607,313.387 913.177,310.427 912.551,309.801C887.237,284.485 812.958,215.421 795.897,181.301C795.094,179.696 789.752,172.692 786.379,170.402C784.563,169.169 782.878,169.069 781.811,169.445C780.223,170.006 779.389,171.749 779.949,173.337C780.386,174.574 781.542,175.354 782.782,175.372Z"/>
        <path d="M594.292,311.719C573.368,332.591 544.895,352.497 516.911,380.481C472.836,424.558 320.627,552.441 233.265,647.559C210.643,672.189 192.353,694.649 181.33,712.921C173.666,725.625 169.513,736.444 169.513,744.658C169.513,746.342 170.88,747.708 172.563,747.708C174.246,747.708 175.613,746.342 175.613,744.658C175.613,737.234 179.626,727.554 186.553,716.072C197.416,698.067 215.466,675.956 237.758,651.685C325.061,556.63 477.179,428.842 521.225,384.795C549.295,356.724 577.859,336.781 598.8,315.839C599.165,315.474 599.436,315.095 599.638,314.73C600.688,314.249 601.418,313.188 601.418,311.958C601.418,310.275 600.051,308.908 598.368,308.908C595.889,308.908 595.174,309.864 594.811,310.355C594.597,310.644 594.412,311.244 594.292,311.719ZM594.252,311.875C594.134,312.145 594.139,312.39 594.139,312.39C594.139,312.39 594.18,312.173 594.252,311.875Z"/>
    </g>
</svg>
