<svg viewBox="0 0 492 492" xmlns="http://www.w3.org/2000/svg" xml:space="preserve" style="fill-rule:evenodd;clip-rule:evenodd;stroke-linecap:round;stroke-linejoin:round;stroke-miterlimit:1.5"><path d="M585 295c1.99-.212 233 228 233 228S485.333 865.667 408 933c-13.659 11.893-39.893 5.357-54-6-20.91-16.835-68.499-52.985-107.402-92.637C212.322 799.426 186.13 760.877 172 743c-9.304-11.771-9.17-33.969 1-45 68.833-74.667 410.01-402.788 412-403Z" style="fill:#fff;stroke:#000;stroke-width:6.26px" transform="matrix(.48 0 0 .48 -2.702 -1.309)"/><path d="M544.099 327.542c1.522-1.522 30.727 31.913 39.719 36.409 36.977 18.488 57.855 58.959 90.47 91.574 7.095 7.094 21.772 20.373 26.48 29.789 9.978 19.958 37.826 33.727 46.338 50.752 5.064 10.126 28.743 20.962 27.583 20.962" style="fill:#fff" transform="scale(.48)"/><path d="M260.904 158.66c1.69 1.246 6.515 6.427 10.941 10.78 3.137 3.084 6.106 5.752 7.733 6.566 8.698 4.35 15.485 11.304 22.033 19.07 6.707 7.952 13.155 16.753 21.012 24.611 3.322 3.322 10.231 9.509 12.436 13.918 2.475 4.95 7.134 9.159 11.734 13.159 4.293 3.733 8.539 7.262 10.508 11.202.96 1.92 3.153 3.928 5.587 5.662 3.257 2.32 6.907 4.186 7.938 4.79a1.482 1.482 0 0 0 1.487.347c.435-.14.678-.408.829-.673.174-.306.259-.672.142-1.107-.03-.114-.18-.61-.842-1.013-.865-.525-4.567-2.387-7.856-4.73-2.002-1.425-3.876-3.005-4.666-4.585-2.115-4.232-6.596-8.093-11.206-12.103-4.302-3.742-8.72-7.627-11.036-12.258-2.315-4.63-9.496-11.191-12.984-14.68-7.798-7.797-14.189-16.536-20.844-24.428-6.814-8.08-13.912-15.276-22.963-19.801-1.48-.74-4.134-3.227-6.989-6.035-4.555-4.479-9.54-9.79-11.27-11.058-.664-.488-1.22-.574-1.484-.56-.432.026-.76.2-1.012.45a1.465 1.465 0 0 0 .772 2.476Zm109.788 107.82a1.46 1.46 0 0 1 1.159-.57c-.63 0-.968.288-1.16.57Zm-108.73-108.03-.03.018.01-.006.02-.012Zm.071-.049.018-.013a1.35 1.35 0 0 1-.073.052l.055-.039Zm.1-.08-.025.02.014-.01.01-.01Z"/><path d="M218.626 643.086c-1.636 0 5.95 8.157 16.549 18.756 10.639 10.639 19.285 20.388 30.893 31.996 28.053 28.053 63.367 66.677 94.883 98.193 8.541 8.541 28.899 22.491 34.203 33.099 6.072 12.146 45.836 42.526 54.061 50.752 2.108 2.108 3.685-1.103 1.104-1.103" style="fill:#fff" transform="scale(.48)"/><path d="M215.714 418.497c-3.67-3.334-12.649-10.465-18.886-16.408-2.783-2.65-5.017-5.026-5.845-6.681-1.08-2.162-3.363-4.618-6.022-7.04-3.739-3.405-8.221-6.78-10.67-9.228-15.127-15.128-32.078-33.668-45.543-47.133-5.572-5.571-9.722-10.251-14.829-15.358-3.677-3.677-6.594-6.704-7.516-8.012a1.464 1.464 0 0 0-1.463-1.42c-.556 0-.92.235-1.167.508a1.509 1.509 0 0 0-.396 1.206c.024.26.2.8.702 1.48 1.071 1.452 4.035 4.574 7.77 8.309 5.107 5.106 9.257 9.786 14.828 15.357 13.466 13.466 30.416 32.006 45.545 47.133 2.471 2.472 6.992 5.885 10.768 9.323 2.351 2.142 4.418 4.272 5.374 6.184.922 1.843 3.347 4.54 6.444 7.492 6.851 6.527 17.02 14.49 19.78 17.25.628.628 1.255.778 1.736.773a1.948 1.948 0 0 0 1.652-.922 1.828 1.828 0 0 0-.03-2.014c-.279-.41-.805-.866-1.793-.866-.153 0-.3.023-.439.067ZM105.558 310.008c-.162.076-.34.123-.529.134.208-.01.382-.059.529-.134Z"/><path d="M241.795 621.02c-2.094-2.094 5.141 2.934 6.62 4.413 5.228 5.228 10.085 6.931 13.239 13.24 7.075 14.148 28.225 47.211 46.339 56.268 23.932 11.966 43.062 44.165 60.681 61.785 17.49 17.49 37.082 31.565 51.856 46.338 14.832 14.833 28.734 26.528 44.132 41.926 6.87 6.87 12.982 7.98 12.136 8.826" style="fill:#fff" transform="scale(.48)"/><path d="M115.937 299.548c.772.506 1.91 1.338 2.267 1.695 1.292 1.292 2.536 2.153 3.654 3.077.936.772 1.774 1.593 2.426 2.898 3.486 6.97 13.974 23.201 22.898 27.663 5.583 2.791 10.584 7.968 15.238 13.449 4.817 5.671 9.256 11.68 13.509 15.933 8.394 8.396 17.799 15.152 24.89 22.243 7.12 7.12 13.792 12.734 21.183 20.124 2.271 2.271 4.83 3.613 5.636 4.003a1.465 1.465 0 0 0 2.26.234c.335-.335.452-.7.466-1.055.014-.377-.09-.972-.8-1.463-.624-.433-2.952-1.25-5.491-3.79-7.39-7.39-14.064-13.004-21.184-20.123-7.09-7.092-16.495-13.848-24.89-22.243-4.204-4.204-8.585-10.151-13.347-15.758-4.922-5.797-10.256-11.22-16.16-14.173-8.466-4.233-18.282-19.742-21.589-26.354-.861-1.723-1.945-2.825-3.181-3.846-1.053-.87-2.23-1.672-3.448-2.89-.664-.664-3.429-2.564-3.894-2.712-.957-.303-1.48.253-1.685.539-.11.151-.694 1.101.331 2.125.255.255.58.396.911.424Zm111.75 109.412v.001l.026-.035-.026.034Zm.04-.053Z"/><path d="M257.241 604.47c20.877 20.876 47.241 53.861 68.405 75.025 15.171 15.17 36.757 25.724 52.958 41.925 9.583 9.583 22.93 26.359 34.202 31.996 16.262 8.13 43.629 43.629 57.372 57.371 6.65 6.65 30.906 23.183 27.583 19.86" style="fill:#fff" transform="scale(.48)"/><path d="M239.008 397.25a19.268 19.268 0 0 1-.594-.363c-2.902-1.848-9.444-6.495-11.693-8.744-3.953-3.952-10.256-11.66-16.35-18.035-4.207-4.401-8.34-8.164-11.57-9.778-5.298-2.65-11.531-10.579-16.036-15.084-7.776-7.776-18.138-12.842-25.42-20.124-10.159-10.158-22.813-25.99-32.834-36.011a1.464 1.464 0 0 0-2.07 2.07c10.02 10.02 22.675 25.853 32.834 36.011 7.282 7.283 17.643 12.348 25.42 20.125 4.695 4.695 11.275 12.87 16.797 15.632 3.016 1.508 6.833 5.072 10.763 9.182 6.11 6.392 12.432 14.12 16.395 18.082 2.347 2.347 9.163 7.215 12.191 9.144.986.628 1.698.955 1.898.996 1.03.207 1.477-.424 1.664-.832.081-.176.41-.993-.443-1.846a1.457 1.457 0 0 0-.952-.426Z"/><path d="M615.814 325.335c-.387-.386 19.324-23.737 20.962-25.375 5.482-5.482 7.74-9.914 14.343-3.31.224.223 3.236 2.281 4.413 1.103 16.059-16.059 33.53-31.322 48.546-46.339 16.226-16.227 54.891-50.206 63.991-68.404 1.703-3.406 20.851-22.177 22.066-20.963 7.137 7.137 10.03 16.65 17.653 24.273 26.494 26.493 58.291 58.289 87.16 87.16 11.63 11.63 17.28 25.003 27.583 35.306 5.077 5.077 12.47 5.85 17.653 11.033 8.651 8.651-31.406 35.229-37.512 47.442-7.183 14.364-61.147 57.837-73.922 70.611-5.51 5.51-9.073 11.28-15.446 17.653-.766.766-2.801 1.018-2.206 2.206.718 1.437 6.011 6.125 5.516 6.62-7.171 7.171-15.998 12.688-23.169 19.86-2.427 2.427-9.442 8.826-6.62 8.826" style="fill:#fff" transform="scale(.48)"/><path d="m313.986 141.522-.497-.247c-1.201-1.181-2.21-1.712-3.068-1.874-1.025-.193-1.935.06-2.835.682-.885.61-1.788 1.682-2.968 2.862-.72.719-8.575 10.01-10.002 11.998-.433.603-.49 1.077-.492 1.189-.007.501.201.834.431 1.064a1.465 1.465 0 0 0 2.384-.465l.057-.082c1.383-1.927 8.995-10.936 9.692-11.633.888-.888 1.59-1.72 2.262-2.291.315-.268.574-.513.928-.446.47.088.96.484 1.624 1.148.117.117 1.25.933 2.229 1.094.777.128 1.468-.073 1.96-.564 7.708-7.709 16.094-15.035 23.301-22.243 7.87-7.87 26.577-24.389 30.99-33.214.269-.537 1.56-1.915 3.084-3.473 1.85-1.89 4.72-4.367 5.924-5.39 1.24 1.433 2.192 3.032 3.173 4.644 1.292 2.124 2.623 4.271 4.54 6.187l41.837 41.838c5.582 5.582 8.294 12.001 13.24 16.947 1.341 1.34 2.974 2.138 4.628 2.918 1.353.637 2.725 1.258 3.845 2.377.239.239.174.564.06.93-.252.821-.865 1.748-1.674 2.766-2.614 3.283-7.233 7.248-10.941 10.775-2.659 2.528-4.854 4.87-5.725 6.612-.993 1.985-3.957 5.15-7.734 8.805-9.19 8.892-23.179 20.413-27.474 24.707-2.63 2.63-4.336 5.384-7.363 8.422-.152.084-.94.527-1.165.797-.445.533-.638 1.167-.22 2.004.12.237.399.618.782 1.043.364.404.844.885 1.243 1.308-3.262 3.036-7.075 5.52-10.224 8.669-.673.673-2.055 1.966-2.899 2.97-.538.641-.87 1.239-.965 1.618-.167.668.023 1.178.335 1.544.254.3.668.604 1.387.604a1.465 1.465 0 0 0 1.42-1.817c.737-.922 2.142-2.198 2.793-2.849 3.442-3.442 7.679-6.09 11.121-9.532.33-.33.669-.918.296-1.757-.13-.291-.612-.903-1.221-1.544a59.69 59.69 0 0 1-.776-.839c.044-.034.082-.066.112-.097 3.06-3.059 4.77-5.828 7.414-8.473 4.29-4.29 18.261-15.794 27.44-24.674 4.094-3.961 7.24-7.449 8.317-9.6.77-1.541 2.772-3.563 5.124-5.8 3.805-3.62 8.532-7.703 11.214-11.073 1.333-1.676 2.172-3.231 2.36-4.5.18-1.211-.127-2.25-.967-3.09-1.368-1.367-3.013-2.176-4.666-2.955-1.352-.637-2.711-1.244-3.807-2.34-4.945-4.945-7.658-11.364-13.24-16.946-13.857-13.859-29.12-29.121-41.837-41.838-1.742-1.742-2.934-3.707-4.108-5.638-1.294-2.127-2.568-4.215-4.365-6.013-.295-.294-1.074-.743-2.153-.153-1.207.66-4.547 3.702-7.174 6.385-1.82 1.86-3.29 3.57-3.61 4.211-4.322 8.645-22.733 24.746-30.44 32.454-7.095 7.094-15.33 14.302-22.937 21.878Zm63.784 93.675.031.003-.011-.002h-.02Zm-.027-.001a1.027 1.027 0 0 0-.067-.002l.067.002Zm-80.703-79.241.005.044v-.003l-.005-.041Zm-.001-.004a1.375 1.375 0 0 0-.413-.825c.232.232.37.523.413.825Z"/><path d="M355.297 927.392c5.56-5.56 17.68-.441 22.411-5.171 13.263-13.264 33.26-24.641 48.269-39.65 35.58-35.58 61.79-72.133 98.263-108.606 54.85-54.851 85.093-71.131 138.219-124.256 9.321-9.322 42.98-50.048 51.41-58.478 10.305-10.305 65.3-77.576 70.681-77.576 1.023 0 6.895-4.14 6.895-5.172" style="fill:#fff" transform="scale(.48)"/><path d="m378.558 243.474-2.286 1.65c-.322.063-.748.226-1.235.563-.784.544-2.015 1.677-3.545 3.241-8.236 8.422-25.914 29.872-29.87 33.828-4.046 4.046-20.202 23.594-24.677 28.069-25.5 25.5-40.017 33.315-66.345 59.643-17.507 17.507-30.088 35.052-47.166 52.13-7.205 7.205-16.803 12.666-23.17 19.033-.355.355-.87.474-1.437.557-.843.121-1.795.105-2.759.106-2.475.003-4.967.225-6.56 1.82a1.465 1.465 0 0 0 2.07 2.07c.571-.572 1.366-.764 2.212-.866 1.138-.138 2.373-.083 3.534-.102 2.04-.033 3.864-.367 5.01-1.515 6.367-6.366 15.966-11.827 23.17-19.032 17.078-17.078 29.659-34.623 47.166-52.13 26.329-26.329 40.845-34.143 66.345-59.644 4.475-4.474 20.631-24.022 24.677-28.07 3.959-3.958 21.652-25.422 29.893-33.85 1.067-1.09 1.967-1.955 2.65-2.518.242-.201.536-.403.631-.466a2.69 2.69 0 0 0 .668-.218c.668-.313 1.917-1.156 2.703-1.846.49-.43.818-.85.945-1.114.135-.278.176-.532.176-.741a1.465 1.465 0 0 0-2.8-.598Z"/><path d="M719.524 263.551c3.113-3.113 27.228 26.124 33.099 31.995.11.111 3.199.111 3.31 0l22.066-22.066c.268-.268-1.983-3.086-2.207-3.31-8.377-8.376-17.169-22.685-25.376-30.892-.52-.52-1.471 0-2.206 0-5.859 0-28.534 23.017-25.376 19.86" style="fill:#fff" transform="scale(.48)"/><path d="M359.093 113.39c-.37.008-.825.103-1.34.314-.837.344-1.936 1.037-3.129 1.928-3.643 2.724-8.316 7.333-8.803 7.821a2.374 2.374 0 0 0-.134.145c-.587.635-.879 1.157-.959 1.568a1.903 1.903 0 0 0-.392.303 1.465 1.465 0 0 0 1.333 2.468c.375.256 1.436.999 2.266 1.767 4.08 3.78 10.322 11.227 12.289 13.193.106.107.315.296.695.392.124.032.629.077 1.134.077.506 0 1.01-.045 1.135-.077.38-.096.588-.285.695-.392l10.591-10.591c.27-.27.577-.749.386-1.479-.048-.184-.202-.526-.448-.893a14.405 14.405 0 0 0-.996-1.287c-4.021-4.021-8.242-10.89-12.181-14.829a1.81 1.81 0 0 0-1.234-.537c-.257-.013-.82.092-.908.11Zm.45 2.886c-.146.022-.3.041-.402.041-.14 0-.31.103-.525.209-.634.31-1.405.828-2.239 1.452-3.319 2.48-7.521 6.588-8.37 7.431l-.012.012-.068.068-.034.032-.02.02-.02.02-.014.013-.02.018-.009.009-.096.09-.029.025c.171.113.349.239.531.378 3.659 2.796 11.005 11.508 13.69 14.331h.308l9.371-9.37-.271-.37c-3.883-3.895-7.95-10.431-11.77-14.41Z"/><path d="M814.408 312.096c-9.944 4.972-16.926 13.616-24.273 20.963l-3.31 3.309s2.372 1.269 3.31 2.207c17.583 17.584 33.125 30.866 36.409 27.583 7.47-7.47 12.593-13.697 18.756-19.86.649-.649 6.644-2.182 4.413-4.413-1.839-1.839-5.884-1.471-7.723-3.31-5.268-5.268-26.479-37.295-26.479-22.066" style="fill:#fff" transform="scale(.48)"/><path d="M406.653 167.387c.199-.087.762-.334 1.142-.53.52-.269.985-.605 1.27-.949.356-.431.514-.909.498-1.394-.015-.447-.171-.95-.665-1.445-.521-.52-1.267-.843-2.087-1.064-.392-.105-.801-.19-1.174-.314-.168-.055-.335-.099-.446-.21-1.8-1.8-7.443-9.969-10.648-12.176-1.081-.745-2.063-.901-2.787-.698a1.464 1.464 0 0 0-1.495-.11c-4.918 2.459-8.398 6.702-12.032 10.336l-1.588 1.589a1.464 1.464 0 0 0 .344 2.326s.895.454 1.244.803c6.027 6.027 11.58 11.003 14.911 12.906 1.079.616 1.99.934 2.664.991.86.073 1.507-.193 1.972-.657 3.534-3.534 5.974-6.488 8.877-9.404Zm-13.737-15.647a2.42 2.42 0 0 0-.007.184 1.465 1.465 0 0 1-2.925.082c-3.808 2.374-6.67 5.883-9.684 8.897l-.309.31c.118.091.223.182.31.268 5.788 5.79 11.091 10.606 14.291 12.434.485.277 1.082.488 1.343.575 3.462-3.484 5.88-6.407 8.774-9.302.118-.118.397-.31.791-.497l-.293-.075c-.82-.22-1.566-.544-2.087-1.065-1.515-1.515-5.78-7.649-8.95-10.736-.449-.436-.87-.806-1.254-1.075Z"/><path d="M662.152 299.891c.843-.298 18.647 16.923 20.687 18.963 42.318 42.319 86.475 88.197 129.293 131.016 2.272 2.273 3.448 4.035 3.448 8.62" style="fill:#fff" transform="scale(.48)"/><path d="m317.302 145.31.013.01c1.66 1.223 8.546 7.898 9.412 8.765 20.313 20.313 41.508 42.334 62.061 62.888.816.816 1.226 1.455 1.226 3.102a1.465 1.465 0 0 0 2.928 0c0-2.754-.719-3.808-2.083-5.172-20.553-20.554-41.748-42.575-62.06-62.888-.897-.897-8.031-7.787-9.748-9.052-.82-.606-1.528-.459-1.705-.396a1.465 1.465 0 0 0-.044 2.744Z"/><path d="M463.558 629.846c2.409-2.408-.029-2.236-1.103-3.31-9.675-9.675-22.511.445-28.686 6.62-13.154 13.154 10.416 24.759 14.343 28.686 1.118 1.118 9.276 0 11.033 0 3.17 0 3.96-1.754 5.517-3.31 8.172-8.172 2.619-21.375 6.619-25.376 9.468-9.468 19.973-21.076 29.789-30.892.261-.26.736 0 1.104 0h41.925c.454 0 3.018-.292 3.31 0 .406.406 7.04 3.993 8.826 2.206 3.991-3.991 8.192-11.501 13.24-16.549.619-.619 6.085 6.051 8.826 3.31 2.246-2.246 4.142-6.349 6.62-8.827l5.517-5.516s-1.385-1.103-2.207-1.103c-2.601 0-14.075-21.231-16.549-18.757-4.062 4.063-13.24 11.033-13.24 11.033l2.207 2.207c6.631 6.631-.341 13.58-6.62 19.859-4.631 4.631-21.078 3.31-31.996 3.31-1.791 0-7.516 1.31-7.723 1.104-.769-.77 2.875-3.093 3.31-3.31 9.189-4.595 19.565-17.359 27.582-25.376 7.278-7.278 25.335-34.734 33.099-38.616 1.095-.547 6.839 10.815 8.827 8.827 7.025-7.025 1.163-25.436 7.723-31.996l2.207-2.207h-6.62c-8.938 0-23.142 1.076-27.583 5.517-3.131 3.131 11.958 6.798 8.827 9.93-7.27 7.269-19.873 15.473-24.273 24.272-4.876 9.751-45.203 46.306-51.855 52.959l-7.723 7.723s-1.103-2.897-1.103-4.413c0-4.693-7.445-30.068-2.207-35.306 10.945-10.946 26.915-14.778 37.512-25.376 4.522-4.522-5.811-24.125-16.549-18.756-7.362 3.681-13.24 7.97-13.24 18.756 0 .52 1.103 1.103 1.103 1.103s-2.124 1.614-3.31 2.207c-8.431 4.216-14.52 14.52-18.756 18.756-1.977 1.978 3.31 22.666 3.31 27.583 0 17.827 2.803 24.78-7.723 35.305-1.136 1.136-3.518 3.518-2.206 2.207" style="fill:#fff" transform="scale(.48)"/><path d="M272.727 247.897c-2.03 1.906-4.693 3.939-6.965 6.075-1.825 1.716-3.402 3.507-4.315 5.333-.668 1.336-2.821 3.75-5.551 6.591-6.688 6.958-16.832 16.215-19.065 18.448l-1.813 1.813c-.281-1.996-1.284-6.193-1.707-9.898-.177-1.558-.252-3.02-.074-4.138.072-.454.145-.84.368-1.064 2.528-2.527 5.645-4.217 8.732-5.904 3.333-1.82 6.633-3.635 9.274-6.277.584-.584.933-1.454.951-2.53.02-1.15-.35-2.597-1.049-4.004-.84-1.695-2.15-3.33-3.68-4.331-1.761-1.151-3.8-1.51-5.855-.482-4.027 2.013-7.165 4.412-7.165 10.312 0 .044.002.09.006.135a3.503 3.503 0 0 1-.256.144c-2.193 1.097-4.099 2.966-5.714 4.856-1.462 1.71-2.673 3.425-3.669 4.421-.2.2-.393.491-.509.904-.107.38-.157.975-.117 1.724.162 3.083 1.786 9.772 1.786 11.648 0 3.404.215 5.978.15 8.163-.086 2.922-.74 5.06-3.428 7.748l-1.164 1.163c-2.54-1.836-5.354-1.69-7.982-.631-2.681 1.08-5.147 3.169-6.742 4.764-1.58 1.58-2.23 3.148-2.316 4.625-.087 1.49.408 2.922 1.282 4.247 1.125 1.708 2.901 3.244 4.564 4.491 1.46 1.095 2.816 1.937 3.354 2.477.256.254.784.544 1.558.626 1.348.142 4.077-.198 4.774-.198 2.068 0 2.667-1.002 3.683-2.017 2.254-2.255 2.694-5.176 2.768-7.836.03-1.125-.002-2.19.078-3.09.046-.525.06-.983.331-1.255 4.408-4.408 9.284-9.782 13.873-14.4h20.045c.125 0 .846-.037 1.137-.053.747.429 2.064 1.076 3.171 1.276 1.099.198 2.022-.062 2.552-.592 1.702-1.702 3.484-4.738 5.56-7.093l.182.142c.642.49 1.401.98 2.105 1.196 1.024.314 1.978.167 2.745-.6 1.078-1.078 1.988-3.047 3.177-4.237l2.648-2.647a1.463 1.463 0 0 0-.122-2.18s-.47-.372-.946-.596a2.813 2.813 0 0 0-.553-.194c-.257-.304-1.245-1.492-1.957-2.503-1.447-2.057-3.121-4.542-4.277-5.665-.54-.525-1.053-.817-1.436-.921-.722-.196-1.312-.015-1.782.456-1.903 1.902-6.205 5.165-6.205 5.165a1.464 1.464 0 0 0-.15 2.2l1.06 1.06c1.03 1.032.992 2.09.464 3.132-.754 1.488-2.249 2.936-3.642 4.33-.299.298-.767.485-1.325.649-.751.22-1.649.358-2.63.448-2.813.257-6.264.112-9.162.072 3.793-2.876 7.763-7.562 10.95-10.75 2.118-2.117 6.125-7.751 9.799-12.33 1.818-2.268 3.516-4.285 4.833-5.344a72.758 72.758 0 0 0 1.553 2.09c.724.922 1.51 1.568 2.06 1.737.727.224 1.357.071 1.88-.451.847-.848 1.408-1.957 1.756-3.243.441-1.63.537-3.57.609-5.501.053-1.443.094-2.88.315-4.143.174-.996.434-1.879 1.027-2.471l1.059-1.06a1.464 1.464 0 0 0-1.035-2.499h-3.178c-2.663 0-6.267.198-9.201.828-2.221.477-4.072 1.247-5.073 2.249-.389.388-.562.8-.617 1.198-.058.417.012.845.242 1.271.29.537 1.007 1.158 1.928 1.714.563.34 1.204.682 1.76 1.022.088.054.184.119.278.185Zm10.739-5.539h-.056c-2.485 0-5.849.175-8.586.763-1.11.238-2.115.518-2.856.913.055.038.109.073.16.105.557.34 1.197.682 1.761 1.022.92.556 1.639 1.176 1.928 1.714.23.425.3.854.242 1.271-.056.398-.228.81-.617 1.198-1.763 1.764-4.172 3.643-6.41 5.613-2.059 1.814-3.983 3.691-4.966 5.657-.737 1.472-3.05 4.181-6.06 7.311-6.702 6.973-16.867 16.252-19.105 18.49l-3.707 3.707a1.463 1.463 0 0 1-2.403-.514s-.626-1.736-.626-2.64c0-1.57-1.75-7.979-1.938-12.543-.055-1.346.023-2.55.268-3.486.219-.834.578-1.491 1.04-1.953 2.727-2.726 6.068-4.583 9.4-6.402 3.084-1.685 6.16-3.333 8.605-5.778.059-.058.06-.152.074-.248a2.46 2.46 0 0 0 .007-.597c-.067-.705-.333-1.517-.73-2.318-.614-1.236-1.544-2.451-2.66-3.181-.888-.58-1.908-.833-2.944-.314-3.041 1.52-5.546 3.237-5.546 7.693 0-.241-.31-.805-.31-.805l-.624 2.799.885-.299s-1.17.878-1.82 1.203c-1.853.927-3.432 2.543-4.798 4.14-1.404 1.642-2.593 3.283-3.584 4.34.001.312.013 1.148.102 1.866.428 3.452 1.676 8.908 1.676 10.588 0 3.44.215 6.041.15 8.25-.109 3.667-.912 6.357-4.286 9.731l-.94.94c.198.302.291.648.27 1.049-.017.375-.17.97-.919 1.718a1.465 1.465 0 0 1-2.439-1.45 1.585 1.585 0 0 1-.161-.138c-1.83-1.83-3.968-1.734-5.932-.942-2.301.928-4.398 2.75-5.767 4.12-.945.944-1.411 1.842-1.463 2.725-.081 1.39.79 2.642 1.862 3.781 2.088 2.22 5.048 3.966 6.228 4.96.257.013.92.045 1.41.02 1.26-.06 2.643-.217 3.109-.217.503 0 .737-.205.957-.443.211-.23.416-.478.655-.717 2.05-2.05 1.91-4.892 1.931-7.171.01-1.169.043-2.228.241-3.075.187-.8.52-1.448 1.006-1.934 4.544-4.545 9.587-10.116 14.299-14.829.421-.421 1.717-.416 1.717-.416s-.104-.012-.152-.012h20.124c.19 0 1.092-.088 1.523-.048.444.04.76.204.957.353.054.03 1.141.628 1.952.867.165.048.412.087.56.106 1.856-1.958 3.815-5.396 6.153-7.734.255-.256.579-.42.99-.446.25-.015.761.06 1.33.472.338.243.835.678 1.376 1.044.194.132.52.283.692.36 1.014-1.104 1.893-2.945 3.026-4.078l1.255-1.255a3.503 3.503 0 0 1-.282-.252c-1.063-1.057-2.906-3.908-4.524-6.117-.467-.638-1.08-1.332-1.483-1.774-1.342 1.227-3.196 2.716-4.433 3.688 2.036 2.115 1.975 4.276.892 6.411-.876 1.73-2.563 3.456-4.183 5.076-.833.833-2.271 1.424-4.098 1.732-3.483.588-8.553.286-12.295.286-.757 0-3.007.508-3.52.536-.721.04-1.1-.313-1.223-.435-.51-.512-.7-1.216-.24-2.043.142-.257.407-.572.745-.867a9.79 9.79 0 0 1 1.465-1.024c4.296-2.148 9.11-8.157 12.86-11.906 2.43-2.43 7.372-9.582 11.394-14.286 1.9-2.223 3.648-3.911 4.873-4.524.407-.203 1.079-.332 1.8.256.422.344 1.207 1.478 2 2.575.183.255.436.56.662.824.262-.519.427-1.12.55-1.764.247-1.283.3-2.725.354-4.161.07-1.923.144-3.833.542-5.415.156-.624.363-1.2.628-1.722Z"/><path d="M800.065 430.907c23.324-23.325 49.453-60.066 81.023-75.851 9.552-4.776 43.098-37.485 43.098-36.202" style="fill:#fff" transform="scale(.48)"/><path d="M444.137 154.415c.547-.212.936-.743.936-1.365 0-.51-.216-.852-.48-1.094a1.431 1.431 0 0 0-.985-.388c-.139-.001-.69.071-1.368.613-2.619 2.09-15.893 14.897-19.972 16.936-15.287 7.643-27.979 25.39-39.272 36.683a1.465 1.465 0 0 0 2.07 2.07c11.098-11.097 23.49-28.623 38.511-36.134 4.174-2.087 17.81-15.127 20.49-17.267l.07-.054Zm-1.99-1.288c.014.31.113.552.252.746a1.454 1.454 0 0 1-.252-.746Z"/><path d="M375.735 84.179c.224.177.94.76 1.412 1.269 1.032 1.115 2.056 2.468 2.265 2.886 8.28 16.56 44.255 50.153 56.542 62.441.35.35 1.872 2.217 3.144 3.454.728.709 1.428 1.217 1.884 1.389.73.274 1.308.108 1.714-.19.347-.253.722-.703.722-1.55a1.465 1.465 0 0 0-1.878-1.405c-.28-.246-.635-.57-.918-.865-1.13-1.182-2.297-2.603-2.598-2.904-12.15-12.151-47.804-45.302-55.993-61.68-.386-.77-2.95-4.132-4.57-5.231-.87-.592-1.68-.64-2.192-.46a1.465 1.465 0 0 0 .466 2.846ZM285.26 149.625c-10.043 10.019-23.71 19.574-37.143 33.006-21.156 21.157-94.216 82.54-136.15 128.197-10.858 11.823-19.638 22.604-24.929 31.374-3.678 6.098-5.672 11.291-5.672 15.234a1.465 1.465 0 0 0 2.928 0c0-3.564 1.926-8.21 5.251-13.721 5.215-8.643 13.879-19.256 24.579-30.906 41.905-45.627 114.922-106.965 136.064-128.107 13.474-13.474 27.184-23.047 37.236-33.1.175-.174.305-.356.402-.532a1.464 1.464 0 0 0-.61-2.794c-1.19 0-1.532.459-1.707.694-.102.14-.191.427-.249.655Zm-.019.075c-.057.13-.054.247-.054.247s.02-.104.054-.247Z"/></svg>