<svg viewBox="0 0 246 246" xmlns="http://www.w3.org/2000/svg" xml:space="preserve" style="fill-rule:evenodd;clip-rule:evenodd;stroke-linejoin:round;stroke-miterlimit:2"><path d="M139.049 70.146c.478-.051 55.92 54.72 55.92 54.72s-79.84 82.24-98.4 98.4c-3.278 2.854-9.574 1.285-12.96-1.44-5.019-4.041-16.44-12.717-25.777-22.233-8.226-8.385-14.512-17.637-17.903-21.927-2.233-2.825-2.201-8.153.24-10.8 16.52-17.92 98.402-96.67 98.88-96.72Z" style="fill:#fff"/><path d="M138.969 69.398c-.047.005-.211.018-.417.177-.193.148-1.049.935-2.457 2.26-13.767 12.961-81.605 78.387-96.479 94.521-1.335 1.449-2.034 3.624-2.071 5.83-.037 2.195.579 4.408 1.794 5.946 3.401 4.302 9.707 13.578 17.957 21.987 9.361 9.541 20.81 18.241 25.842 22.292 2.145 1.727 5.396 3.015 8.402 3.117 2.098.071 4.073-.434 5.523-1.696 18.568-16.167 98.445-98.443 98.445-98.443a.75.75 0 0 0-.011-1.058s-44.918-44.374-54.249-53.211c-.988-.936-1.605-1.488-1.754-1.587a.753.753 0 0 0-.525-.135Zm.088 1.742c.281.253.689.628 1.157 1.071 8.731 8.269 48.627 47.659 53.696 52.666-6.882 7.083-80.159 82.432-97.835 97.822-1.173 1.021-2.786 1.384-4.483 1.327-2.687-.092-5.594-1.242-7.512-2.786-5.005-4.03-16.398-12.682-25.711-22.174-8.203-8.361-14.469-17.588-17.85-21.867-1.018-1.287-1.502-3.15-1.471-4.987.031-1.826.569-3.638 1.674-4.837 14.862-16.122 82.647-81.495 96.404-94.445.823-.776 1.517-1.413 1.931-1.79Z"/><path d="M130.584 78.61c.365-.365 7.374 7.659 9.532 8.738 8.875 4.437 13.886 14.15 21.713 21.978 1.703 1.703 5.225 4.889 6.355 7.149 2.395 4.79 9.079 8.095 11.122 12.181 1.215 2.43 6.898 5.031 6.619 5.031" style="fill:#fff"/><path d="M130.452 79.33c.845.623 3.257 3.213 5.47 5.39 1.569 1.542 3.054 2.876 3.867 3.283 4.349 2.174 7.743 5.652 11.017 9.535 3.353 3.976 6.577 8.377 10.506 12.306 1.661 1.661 5.115 4.754 6.218 6.959 1.237 2.474 3.567 4.579 5.866 6.579 2.147 1.867 4.27 3.631 5.255 5.601.48.96 1.576 1.964 2.793 2.831 1.629 1.16 3.454 2.093 3.969 2.396a.731.731 0 0 0 .744.173.71.71 0 0 0 .414-.337.708.708 0 0 0 .071-.553c-.015-.057-.09-.305-.421-.507-.432-.263-2.284-1.194-3.928-2.365-1.001-.713-1.938-1.503-2.333-2.293-1.058-2.115-3.298-4.046-5.603-6.051-2.151-1.871-4.36-3.814-5.518-6.129-1.158-2.315-4.748-5.595-6.492-7.34-3.899-3.898-7.094-8.268-10.422-12.214-3.407-4.04-6.956-7.638-11.481-9.9-.741-.371-2.067-1.614-3.495-3.018-2.277-2.239-4.77-4.895-5.635-5.529-.332-.244-.61-.287-.742-.28a.756.756 0 0 0-.506.226.733.733 0 0 0 .386 1.237Zm54.894 53.91a.73.73 0 0 1 .579-.285c-.315 0-.484.144-.579.285Zm-54.365-54.015-.015.009.005-.003.01-.006Zm.036-.024.009-.007a.833.833 0 0 1-.037.026l.028-.019Zm.05-.041-.013.011.007-.006.006-.005Z"/><path d="M52.47 154.341c-.392 0 1.428 1.957 3.972 4.501 2.553 2.553 4.629 4.893 7.414 7.679 6.733 6.733 15.208 16.003 22.772 23.566 2.05 2.05 6.936 5.398 8.209 7.944 1.457 2.915 11.001 10.207 12.975 12.181.505.506.884-.265.264-.265" style="fill:#fff"/><path d="M107.857 209.248c-1.835-1.666-6.324-5.232-9.443-8.203-1.391-1.326-2.509-2.513-2.922-3.341-.541-1.081-1.682-2.309-3.011-3.52-1.87-1.702-4.111-3.39-5.335-4.614-7.564-7.564-16.039-16.834-22.772-23.567-2.786-2.785-4.861-5.125-7.414-7.679-1.839-1.838-3.298-3.352-3.758-4.006a.732.732 0 0 0-.732-.709.754.754 0 0 0-.584.253.757.757 0 0 0-.198.604c.013.13.1.4.351.74.536.726 2.018 2.286 3.885 4.154 2.554 2.553 4.629 4.893 7.415 7.679 6.732 6.732 15.208 16.002 22.772 23.566 1.236 1.236 3.496 2.943 5.384 4.662 1.176 1.07 2.209 2.136 2.687 3.092.461.921 1.673 2.27 3.222 3.746 3.426 3.263 8.51 7.244 9.89 8.624.314.314.627.389.868.387a.976.976 0 0 0 .826-.461.915.915 0 0 0-.015-1.007c-.14-.205-.402-.433-.897-.433a.754.754 0 0 0-.219.033Zm-55.078-54.244Z"/><path d="M58.031 149.045c-.503-.503 1.234.704 1.589 1.059 1.254 1.255 2.42 1.663 3.177 3.177 1.698 3.396 6.774 11.331 11.121 13.505 5.744 2.872 10.335 10.599 14.564 14.828 4.197 4.198 8.899 7.576 12.445 11.121 3.56 3.56 6.896 6.367 10.592 10.063 1.649 1.648 3.116 1.915 2.912 2.118" style="fill:#fff"/><path d="M57.969 149.774c.385.253.955.669 1.133.848.646.646 1.268 1.076 1.827 1.538.468.386.887.796 1.213 1.449 1.743 3.485 6.987 11.601 11.449 13.832 2.791 1.395 5.292 3.983 7.619 6.724 2.408 2.836 4.628 5.84 6.754 7.967 4.198 4.197 8.9 7.575 12.445 11.121 3.56 3.56 6.897 6.367 10.592 10.062a11.037 11.037 0 0 0 2.818 2.002.732.732 0 0 0 1.13.116.76.76 0 0 0 .233-.527c.007-.189-.045-.486-.4-.732-.312-.216-1.476-.625-2.746-1.894-3.695-3.696-7.032-6.502-10.591-10.062-3.546-3.546-8.248-6.924-12.446-11.121-2.102-2.103-4.292-5.076-6.673-7.88-2.461-2.898-5.128-5.61-8.08-7.086-4.233-2.116-9.141-9.871-10.794-13.177-.431-.862-.973-1.413-1.591-1.923-.527-.435-1.115-.836-1.724-1.445-.332-.332-1.714-1.282-1.947-1.356a.708.708 0 0 0-.843.27c-.054.075-.346.55.166 1.062.127.127.29.198.456.212Zm55.874 54.706.014-.017-.014.017Zm.021-.026Z"/><path d="M61.738 145.073c5.01 5.01 11.338 12.926 16.417 18.006 3.641 3.641 8.822 6.174 12.71 10.062 2.3 2.3 5.503 6.326 8.209 7.679 3.902 1.951 10.47 10.471 13.769 13.769 1.596 1.596 7.417 5.564 6.62 4.766" style="fill:#fff"/><path d="M119.504 198.625a13.425 13.425 0 0 1-.297-.181c-1.451-.925-4.722-3.248-5.847-4.373-1.976-1.976-5.127-5.83-8.175-9.017-2.103-2.201-4.17-4.082-5.784-4.889-2.65-1.325-5.766-5.289-8.018-7.542-3.889-3.888-9.069-6.421-12.71-10.062-5.08-5.079-11.407-12.995-16.418-18.006a.733.733 0 0 0-1.035 0 .733.733 0 0 0 0 1.035c5.011 5.011 11.338 12.927 16.417 18.006 3.641 3.641 8.822 6.174 12.71 10.062 2.348 2.348 5.638 6.436 8.399 7.817 1.508.753 3.417 2.535 5.381 4.59 3.056 3.197 6.217 7.06 8.198 9.042 1.174 1.173 4.581 3.607 6.095 4.571.494.315.849.478.95.498.514.104.738-.212.832-.415.04-.089.205-.497-.222-.923a.722.722 0 0 0-.476-.213Z"/><path d="M147.795 78.081c-.092-.093 4.638-5.697 5.031-6.091 1.316-1.315 1.858-2.379 3.443-.794.053.054.776.547 1.059.265 3.854-3.854 8.047-7.518 11.651-11.122 3.894-3.894 13.174-12.049 15.358-16.417.408-.817 5.004-5.322 5.295-5.031 1.713 1.713 2.408 3.996 4.237 5.826l20.919 20.918c2.791 2.792 4.147 6.001 6.619 8.474 1.219 1.218 2.993 1.404 4.237 2.648 2.076 2.076-7.537 8.454-9.003 11.386-1.724 3.447-14.675 13.88-17.741 16.946-1.322 1.323-2.178 2.708-3.707 4.237-.184.184-.672.244-.53.53.173.344 1.443 1.47 1.324 1.588-1.721 1.721-3.839 3.045-5.56 4.767-.583.582-2.266 2.118-1.589 2.118" style="fill:#fff"/><path d="m156.993 70.761-.249-.124c-.6-.59-1.105-.856-1.534-.936-.512-.097-.967.029-1.417.34-.442.306-.894.841-1.484 1.432-.36.359-4.288 5.004-5.001 5.998-.216.302-.245.539-.246.595a.7.7 0 0 0 .216.532.732.732 0 0 0 1.191-.232l.029-.041c.691-.964 4.498-5.469 4.846-5.817.444-.444.795-.86 1.131-1.146.157-.133.287-.256.464-.223.235.045.48.243.812.575.059.058.625.466 1.114.547.389.064.735-.037.98-.283 3.854-3.854 8.047-7.517 11.651-11.121 3.935-3.935 13.289-12.194 15.495-16.607.134-.268.78-.958 1.542-1.736.925-.946 2.36-2.184 2.962-2.695.62.716 1.096 1.515 1.587 2.322.645 1.062 1.311 2.135 2.269 3.093l20.919 20.919c2.791 2.791 4.147 6.001 6.62 8.473.671.671 1.487 1.069 2.314 1.459.676.319 1.363.629 1.923 1.189.119.119.086.282.03.465-.127.411-.433.874-.838 1.383-1.306 1.641-3.616 3.624-5.47 5.387-1.329 1.264-2.427 2.435-2.863 3.306-.496.993-1.978 2.575-3.867 4.403-4.595 4.446-11.589 10.206-13.736 12.354-1.316 1.315-2.169 2.691-3.682 4.211-.076.041-.47.263-.583.398-.222.266-.319.583-.109 1.002.059.119.199.309.39.521.183.202.423.443.622.655-1.631 1.518-3.538 2.76-5.112 4.334-.336.336-1.028.983-1.449 1.485-.269.321-.436.62-.483.809a.83.83 0 0 0 .167.772c.127.15.335.302.694.302a.732.732 0 0 0 .71-.909c.369-.461 1.071-1.099 1.396-1.424 1.721-1.721 3.84-3.045 5.561-4.766.165-.165.334-.459.148-.879-.065-.145-.306-.451-.611-.772a35.017 35.017 0 0 1-.388-.419.79.79 0 0 0 .057-.048c1.529-1.53 2.384-2.915 3.707-4.237 2.144-2.145 9.13-7.897 13.719-12.337 2.048-1.981 3.621-3.724 4.159-4.8.385-.771 1.386-1.781 2.562-2.9 1.903-1.81 4.266-3.852 5.607-5.537.667-.837 1.086-1.615 1.18-2.249.09-.606-.064-1.125-.483-1.545-.684-.684-1.507-1.089-2.334-1.478-.675-.318-1.355-.622-1.903-1.17-2.473-2.473-3.829-5.682-6.62-8.473l-20.918-20.919c-.871-.871-1.468-1.854-2.055-2.819-.646-1.063-1.283-2.108-2.182-3.006-.147-.148-.537-.372-1.077-.077-.603.329-2.273 1.851-3.586 3.193-.911.93-1.645 1.785-1.805 2.105-2.161 4.322-11.367 12.373-15.221 16.227-3.547 3.547-7.664 7.151-11.468 10.939Zm31.892 46.838.016.001-.006-.001h-.01Zm-.013-.001-.034-.001.034.001Zm-40.352-39.62.002.021v-.001l-.002-.02Zm0-.003Z"/><path d="M85.271 222.574c1.335-1.334 4.243-.106 5.379-1.241 3.183-3.183 7.982-5.914 11.585-9.516 8.539-8.539 14.829-17.312 23.583-26.065 13.164-13.165 20.422-17.072 33.172-29.822 2.237-2.237 10.315-12.011 12.339-14.035 2.473-2.473 15.672-18.618 16.963-18.618.246 0 1.655-.993 1.655-1.241" style="fill:#fff"/><path d="m189.279 121.737-1.143.825a1.677 1.677 0 0 0-.617.282c-.393.272-1.008.838-1.773 1.62-4.118 4.211-12.957 14.936-14.935 16.914-2.023 2.023-10.101 11.797-12.339 14.035-12.75 12.75-20.008 16.657-33.172 29.821-8.754 8.753-15.044 17.526-23.583 26.065-3.602 3.603-8.401 6.333-11.585 9.516-.177.178-.435.238-.718.279-.422.061-.898.052-1.38.053-1.237.002-2.483.113-3.28.91a.732.732 0 1 0 1.035 1.035c.286-.286.683-.382 1.106-.433.569-.069 1.187-.042 1.767-.051 1.02-.016 1.932-.184 2.505-.757 3.184-3.184 7.983-5.914 11.585-9.516 8.539-8.54 14.83-17.312 23.583-26.066 13.164-13.164 20.423-17.071 33.173-29.821 2.237-2.238 10.315-12.012 12.338-14.035 1.98-1.979 10.826-12.711 14.947-16.925.533-.546.983-.978 1.324-1.26.122-.1.269-.201.316-.233.092-.016.206-.049.334-.109.334-.156.958-.577 1.352-.922.244-.215.409-.425.472-.557a.84.84 0 0 0 .088-.371.732.732 0 0 0-1.4-.299Z"/><path d="M172.686 63.252c.747-.747 6.534 6.27 7.943 7.679.027.027.768.027.795 0l5.296-5.296c.064-.064-.476-.74-.53-.794-2.01-2.011-4.12-5.445-6.09-7.414-.125-.125-.353 0-.53 0-1.406 0-6.848 5.524-6.09 4.766" style="fill:#fff"/><path d="M179.547 56.695a1.923 1.923 0 0 0-.67.157c-.419.172-.969.518-1.565.964-1.822 1.362-4.158 3.666-4.402 3.911a1.126 1.126 0 0 0-.066.072c-.294.318-.44.579-.48.784a.962.962 0 0 0-.196.152.732.732 0 0 0 .666 1.234c.188.127.719.499 1.133.883 2.041 1.89 5.162 5.613 6.145 6.597a.717.717 0 0 0 .347.196c.063.015.315.038.568.038.253 0 .505-.023.567-.038a.717.717 0 0 0 .347-.196l5.296-5.296a.728.728 0 0 0 .193-.739 1.708 1.708 0 0 0-.224-.447 7.116 7.116 0 0 0-.498-.644c-2.011-2.01-4.121-5.444-6.091-7.414a.906.906 0 0 0-.616-.268c-.129-.007-.41.046-.454.054Zm.225 1.443c-.073.011-.15.021-.202.021-.07 0-.154.051-.262.104-.317.155-.702.414-1.12.726-1.659 1.24-3.76 3.294-4.184 3.715l-.006.007-.035.033-.016.017-.01.009-.01.01-.008.007-.009.009-.005.004-.048.045-.014.013c.085.057.174.119.265.189 1.83 1.398 5.503 5.754 6.845 7.166h.154l4.686-4.686-.136-.184c-1.942-1.948-3.975-5.216-5.885-7.205Z"/><path d="M195.458 74.903c-2.387 1.193-4.062 3.268-5.826 5.031l-.794.794s.569.305.794.53c4.22 4.22 7.95 7.408 8.739 6.62 1.792-1.793 3.022-3.287 4.501-4.766.156-.156 1.595-.524 1.059-1.06-.441-.441-1.412-.353-1.853-.794-1.265-1.264-6.355-8.951-6.355-5.296" style="fill:#fff"/><path d="M203.326 83.693c.1-.043.381-.166.571-.264.261-.135.493-.303.635-.475.179-.216.258-.454.249-.697-.007-.223-.085-.475-.332-.722-.261-.261-.633-.422-1.044-.533-.195-.052-.4-.095-.587-.156-.084-.028-.167-.05-.223-.106-.9-.899-3.721-4.984-5.323-6.088-.541-.372-1.032-.45-1.394-.348a.734.734 0 0 0-.748-.056c-2.458 1.23-4.198 3.352-6.015 5.168l-.795.795a.734.734 0 0 0 .173 1.163s.447.227.622.402c3.013 3.013 5.789 5.501 7.455 6.453.539.308.995.467 1.332.495.43.037.754-.096.986-.329 1.767-1.767 2.987-3.244 4.438-4.702Zm-6.868-7.823a1.46 1.46 0 0 0-.003.092.732.732 0 0 1-1.463.041c-1.904 1.187-3.335 2.941-4.842 4.449l-.154.154c.058.046.111.092.154.134 2.895 2.895 5.546 5.303 7.146 6.217.243.139.541.245.671.288 1.732-1.742 2.94-3.204 4.387-4.651a1.57 1.57 0 0 1 .396-.248l-.147-.038c-.41-.11-.783-.272-1.043-.532-.758-.758-2.89-3.825-4.475-5.368a5.283 5.283 0 0 0-.627-.538Z"/><path d="M158.917 71.974c.202-.072 4.475 4.061 4.964 4.551 10.157 10.157 20.754 21.167 31.031 31.444.545.545.827.968.827 2.069" style="fill:#fff"/><path d="m158.651 72.656.006.004c.83.611 4.274 3.949 4.707 4.382 10.156 10.157 20.754 21.168 31.03 31.444.408.409.613.728.613 1.552a.732.732 0 0 0 1.464 0c0-1.377-.359-1.904-1.042-2.587-10.276-10.276-20.874-21.287-31.03-31.444-.448-.448-4.015-3.893-4.873-4.526-.411-.302-.765-.229-.853-.198a.733.733 0 0 0-.022 1.373Z"/><path d="M111.254 151.163c.578-.578-.007-.537-.265-.794-2.322-2.322-5.402.107-6.884 1.588-3.157 3.157 2.499 5.943 3.442 6.885.268.268 2.226 0 2.648 0 .76 0 .95-.421 1.324-.794 1.961-1.962.628-5.13 1.589-6.091 2.272-2.272 4.793-5.058 7.149-7.414.062-.062.176 0 .265 0h10.062c.109 0 .724-.07.794 0 .098.098 1.69.959 2.118.53.958-.958 1.966-2.76 3.178-3.972.149-.149 1.46 1.452 2.118.794.539-.539.994-1.523 1.589-2.118l1.324-1.324s-.332-.265-.53-.265c-.624 0-3.378-5.095-3.971-4.501-.975.975-3.178 2.648-3.178 2.648l.53.529c1.591 1.592-.082 3.26-1.589 4.767-1.111 1.111-5.059.794-7.679.794-.43 0-1.804.314-1.854.265-.184-.185.69-.742.795-.795 2.205-1.102 4.695-4.166 6.62-6.09 1.746-1.747 6.08-8.336 7.943-9.268.263-.131 1.642 2.596 2.119 2.119 1.686-1.686.279-6.105 1.853-7.679l.53-.53h-1.589c-2.145 0-5.554.258-6.62 1.324-.751.752 2.87 1.632 2.119 2.383-1.745 1.745-4.77 3.714-5.826 5.826-1.17 2.34-10.849 11.113-12.445 12.71l-1.854 1.853s-.264-.695-.264-1.059c0-1.126-1.787-7.216-.53-8.473 2.627-2.627 6.46-3.547 9.003-6.09 1.085-1.086-1.395-5.791-3.972-4.502-1.767.884-3.177 1.913-3.177 4.502 0 .124.264.264.264.264s-.509.388-.794.53c-2.024 1.012-3.485 3.485-4.501 4.501-.475.475.794 5.44.794 6.62 0 4.279.673 5.947-1.854 8.474l-.529.529" style="fill:#fff"/><path d="M136.364 123.949c-1.015.953-2.347 1.969-3.483 3.037-.913.858-1.701 1.753-2.158 2.666-.334.668-1.41 1.876-2.775 3.296-3.344 3.479-8.416 8.108-9.533 9.224l-.906.906c-.141-.998-.642-3.096-.853-4.949-.089-.779-.127-1.509-.037-2.069.036-.227.072-.42.184-.532 1.263-1.263 2.822-2.108 4.366-2.951 1.666-.91 3.316-1.818 4.637-3.139.292-.292.466-.727.475-1.265.01-.575-.175-1.298-.524-2.002-.421-.848-1.075-1.665-1.841-2.166-.88-.575-1.899-.755-2.927-.241-2.014 1.007-3.582 2.207-3.582 5.157l.003.067c-.046.028-.09.053-.128.072-1.097.549-2.05 1.483-2.858 2.428-.731.855-1.336 1.712-1.834 2.211a.998.998 0 0 0-.254.452c-.054.19-.079.487-.059.861.081 1.542.893 4.886.893 5.824 0 1.703.108 2.99.075 4.082-.043 1.461-.37 2.53-1.714 3.874l-.582.582c-1.27-.918-2.677-.846-3.991-.316-1.34.54-2.574 1.584-3.371 2.382-.79.79-1.115 1.574-1.158 2.313-.043.744.204 1.46.641 2.123.563.854 1.451 1.622 2.282 2.246.73.547 1.408.968 1.677 1.238.128.127.392.272.779.313.674.071 2.038-.099 2.387-.099 1.034 0 1.333-.501 1.841-1.009 1.128-1.127 1.348-2.587 1.384-3.918.016-.562 0-1.095.039-1.545.023-.262.03-.491.166-.627 2.204-2.204 4.642-4.891 6.937-7.2h10.022c.063 0 .423-.019.568-.026.374.214 1.032.537 1.586.637.549.099 1.011-.03 1.276-.296.851-.851 1.742-2.368 2.78-3.546l.091.071c.321.245.701.49 1.052.598.512.157.99.083 1.373-.3.539-.539.994-1.524 1.589-2.118l1.324-1.324a.734.734 0 0 0-.062-1.09s-.235-.186-.472-.298a1.455 1.455 0 0 0-.277-.097 20.721 20.721 0 0 1-.978-1.252c-.724-1.028-1.561-2.27-2.139-2.832-.27-.263-.526-.408-.718-.46-.361-.098-.656-.008-.891.227-.952.952-3.103 2.583-3.103 2.583a.731.731 0 0 0-.075 1.1l.53.53c.516.516.497 1.045.232 1.566-.377.744-1.124 1.468-1.821 2.165-.149.149-.383.243-.662.325-.376.11-.825.179-1.315.223-1.407.129-3.132.057-4.581.037 1.896-1.439 3.881-3.781 5.475-5.375 1.059-1.059 3.062-3.876 4.899-6.166.91-1.133 1.759-2.142 2.417-2.672.219.305.54.744.777 1.045.361.461.755.785 1.029.869.364.112.679.036.94-.226.424-.423.704-.978.878-1.621.221-.816.269-1.785.305-2.751.026-.721.047-1.439.158-2.071.087-.498.217-.939.513-1.236l.529-.529a.732.732 0 0 0-.517-1.25h-1.589c-1.332 0-3.134.099-4.601.414-1.11.239-2.036.624-2.536 1.125-.194.194-.281.4-.309.598-.029.209.006.423.121.636.145.269.504.579.964.857.282.17.602.341.88.511.045.027.093.059.14.093Zm5.369-2.77h-.028c-1.242 0-2.924.087-4.293.381-.555.12-1.058.26-1.428.457.027.019.055.037.08.052.278.17.599.341.88.512.461.277.82.588.965.856a1.017 1.017 0 0 1-.188 1.235c-.882.882-2.086 1.822-3.205 2.807-1.029.907-1.992 1.845-2.483 2.828-.368.736-1.525 2.091-3.03 3.656-3.351 3.486-8.434 8.126-9.552 9.244l-1.854 1.854a.734.734 0 0 1-1.202-.257s-.312-.868-.312-1.32c0-.785-.876-3.99-.969-6.271-.028-.673.011-1.276.134-1.743.109-.418.289-.746.519-.977 1.364-1.363 3.035-2.292 4.7-3.201 1.542-.843 3.081-1.666 4.303-2.889.029-.029.03-.076.037-.124.014-.091.013-.191.003-.298-.033-.353-.166-.759-.365-1.16-.307-.618-.771-1.225-1.33-1.59-.443-.29-.953-.416-1.472-.157-1.52.76-2.772 1.619-2.772 3.847 0-.121-.156-.403-.156-.403l-.312 1.399.443-.149s-.584.439-.91.602c-.926.463-1.716 1.271-2.399 2.069-.702.822-1.297 1.642-1.792 2.17.001.156.007.574.051.934.214 1.725.838 4.453.838 5.293 0 1.721.107 3.021.075 4.125-.055 1.834-.456 3.179-2.143 4.866l-.47.47a.859.859 0 0 1 .136.525c-.01.187-.086.484-.46.859a.735.735 0 0 1-1.036 0 .735.735 0 0 1-.184-.726.633.633 0 0 1-.08-.069c-.916-.915-1.985-.866-2.966-.47-1.151.463-2.199 1.375-2.884 2.059-.472.473-.706.921-.731 1.363-.041.695.395 1.321.931 1.891 1.044 1.109 2.523 1.982 3.114 2.479.128.007.459.023.704.011.63-.031 1.322-.109 1.555-.109.252 0 .369-.103.478-.222.106-.115.209-.238.328-.358 1.025-1.025.955-2.446.965-3.585.006-.585.022-1.114.121-1.538.094-.4.26-.724.503-.967 2.272-2.272 4.793-5.058 7.149-7.414.211-.211.859-.209.859-.209s-.052-.006-.076-.006h10.062c.095 0 .546-.043.762-.024.221.021.38.103.478.177.027.015.57.314.976.433.083.025.206.044.28.054.928-.98 1.907-2.699 3.076-3.868a.749.749 0 0 1 .495-.222c.126-.008.381.03.666.235.169.122.417.339.687.523.097.065.261.141.347.179.506-.552.946-1.472 1.512-2.039l.628-.627a1.599 1.599 0 0 1-.141-.126c-.531-.528-1.453-1.954-2.262-3.059a11.59 11.59 0 0 0-.742-.887c-.671.614-1.597 1.359-2.216 1.844 1.018 1.058.988 2.138.446 3.206-.438.865-1.281 1.728-2.091 2.538-.417.417-1.136.712-2.05.866-1.741.294-4.276.143-6.147.143-.378 0-1.503.254-1.76.268a.76.76 0 0 1-.611-.218c-.256-.255-.351-.607-.121-1.021.071-.129.204-.286.373-.434.278-.242.659-.474.732-.511 2.149-1.074 4.556-4.079 6.43-5.953 1.215-1.216 3.687-4.791 5.697-7.144.95-1.111 1.825-1.955 2.437-2.261.203-.102.539-.167.9.127.211.172.604.739 1 1.288.092.128.218.28.331.412.131-.259.214-.56.275-.882.124-.642.15-1.363.177-2.081.035-.961.072-1.916.271-2.707.078-.312.181-.6.314-.861Z"/><path d="M192.016 103.418c5.597-5.598 11.868-14.416 19.445-18.205 2.293-1.146 10.344-8.996 10.344-8.688" style="fill:#fff"/><path d="M222.069 77.208a.734.734 0 0 0 .468-.683.709.709 0 0 0-.24-.547.719.719 0 0 0-.493-.194c-.069-.001-.345.036-.684.306-1.309 1.046-7.947 7.449-9.986 8.469-7.643 3.821-13.989 12.694-19.636 18.341a.732.732 0 1 0 1.035 1.035c5.549-5.549 11.745-14.312 19.256-18.067 2.086-1.043 8.904-7.564 10.245-8.634l.035-.026Zm-.995-.644Z"/><path d="M187.868 42.089c.111.089.47.38.705.635.516.558 1.028 1.234 1.133 1.443 4.14 8.28 22.128 25.077 28.271 31.22.175.175.936 1.109 1.572 1.728.364.354.714.608.942.694.365.137.654.054.857-.095.173-.126.361-.352.361-.775a.732.732 0 0 0-.939-.703 7.866 7.866 0 0 1-.459-.432c-.565-.591-1.149-1.301-1.299-1.452-6.075-6.076-23.902-22.651-27.997-30.84-.192-.385-1.475-2.066-2.284-2.616-.436-.296-.84-.319-1.096-.229a.732.732 0 0 0 .233 1.422ZM142.63 74.813c-5.022 5.009-11.855 9.786-18.571 16.503-10.578 10.578-47.109 41.27-68.075 64.098-5.43 5.911-9.819 11.302-12.465 15.687-1.839 3.049-2.836 5.645-2.836 7.617a.732.732 0 0 0 1.464 0c0-1.782.963-4.105 2.626-6.861 2.607-4.321 6.939-9.627 12.289-15.453 20.953-22.813 57.461-53.482 68.032-64.053 6.737-6.737 13.592-11.524 18.618-16.55.088-.087.153-.178.201-.266a.73.73 0 0 0-.305-1.397c-.595 0-.766.229-.853.347-.052.069-.096.214-.125.328Zm-.009.037c-.029.065-.028.124-.028.124s.01-.052.028-.124Z"/></svg>