<svg viewBox="0 0 492 492" xmlns="http://www.w3.org/2000/svg" xml:space="preserve" style="fill-rule:evenodd;clip-rule:evenodd;stroke-linecap:round;stroke-linejoin:round;stroke-miterlimit:1.5"><circle cx="606.5" cy="558.5" r="374.5" style="fill:#fff;stroke:#000;stroke-width:16.77px" transform="matrix(.58376 0 0 .58702 -96.771 -82.092)"/><path d="M265 143c14.667 107.333 62.849 186.266 105 249 64.167 95.5 166 120 166 120s-30.938 171.39-60 226c-35.833 67.333-75.667 106-155 178M970.456 404S830.775 390.802 757 407c-75.909 16.667-141.667 42-221 105" style="fill:#fff;stroke:#000;stroke-width:20.46px" transform="scale(.48)"/><path d="M970.456 404S830.775 390.802 757 407c-75.909 16.667-141.667 42-221 105" style="fill:#fff;stroke:#000;stroke-width:17.4px" transform="matrix(.55955 0 0 .56886 -154.587 -158.295)"/><path d="M958.924 398.931s-99.32-21.26-196.982 0C686.005 415.463 615.333 449 536 512" style="fill:#fff;stroke:#000;stroke-width:17.05px" transform="matrix(.58275 0 0 .56886 -120.114 -93.975)"/><path d="M852 398.931c12.667 87.69 11.754 194.992-13 274.069-28.333 90.511-82.667 172.667-157 269" style="fill:#fff;stroke:#000;stroke-width:20.46px" transform="scale(.48)"/><path d="M852 398.931c12.667 87.69 11.754 194.992-13 274.069-28.333 90.511-99.4 180.734-198.24 269" style="fill:#fff;stroke:#000;stroke-width:22.98px" transform="matrix(.37215 0 0 .476 7.3 17.215)"/><path d="M152 265.801C188.333 347.868 206.657 443.565 261 512c71.307 89.798 146.327 112.73 232 138" style="fill:#fff;stroke:#000;stroke-width:20.46px" transform="scale(.48)"/><path d="M147.044 292.237C183.378 374.303 215.253 415.432 269 484.336 352.307 591.134 413.327 601.73 499 627" style="fill:#fff;stroke:#000;stroke-width:20.46px" transform="matrix(.48 0 0 .48 -27.6 79.519)"/></svg>