<svg viewBox="0 0 246 246" xmlns="http://www.w3.org/2000/svg" xml:space="preserve" style="fill-rule:evenodd;clip-rule:evenodd;stroke-linejoin:round;stroke-miterlimit:2"><ellipse cx="128.64" cy="122.88" rx="109.309" ry="109.92" style="fill:#fff"/><path d="M128.64 10.505c-61.681 0-111.764 50.35-111.764 112.375S66.959 235.255 128.64 235.255s111.764-50.35 111.764-112.375S190.321 10.505 128.64 10.505Zm0 4.91c58.978 0 106.854 48.157 106.854 107.465 0 59.308-47.876 107.465-106.854 107.465S21.786 182.188 21.786 122.88c0-59.308 47.876-107.465 106.854-107.465Z"/><path d="M61.168 34.652c3.58 26.201 15.305 45.484 25.594 60.797 13.098 19.494 32.52 27.075 39.061 29.166-1.613 8.583-7.826 40.22-13.75 51.352-8.472 15.92-17.925 25.032-36.683 42.055a2.457 2.457 0 0 0-.168 3.468 2.457 2.457 0 0 0 3.468.168c19.322-17.537 28.989-26.985 37.717-43.385 7.069-13.283 14.649-54.957 14.649-54.957a2.456 2.456 0 0 0-1.842-2.823s-23.535-5.693-38.376-27.782c-9.944-14.799-21.346-33.404-24.806-58.723a2.455 2.455 0 0 0-4.864.664Z"/><path d="M233.14 94.516s-34.019-3.179-51.986.766c-18.562 4.076-34.642 10.27-54.041 25.676a2.455 2.455 0 0 0 3.054 3.844c18.681-14.834 34.165-20.8 52.039-24.724 17.445-3.83 50.472-.674 50.472-.674a2.456 2.456 0 0 0 .462-4.888ZM194.449 33.318s-39.582-3.766-60.488.901c-21.584 4.818-40.281 12.14-62.838 30.351a2.456 2.456 0 0 0-.368 3.452 2.456 2.456 0 0 0 3.452.368c21.834-17.627 39.932-24.716 60.823-29.379 20.374-4.548 58.95-.806 58.95-.806a2.455 2.455 0 0 0 .469-4.887ZM219.851 64.077s-29.449-6.152-58.407.002c-22.457 4.772-43.367 14.434-66.828 32.621a2.456 2.456 0 0 0 3.008 3.88c22.77-17.651 43.045-27.067 64.84-31.699 27.954-5.94 56.383.002 56.383.002a2.456 2.456 0 0 0 1.004-4.806Z"/><path d="M202.05 96.094c2.99 20.699 2.81 46.027-3.033 64.693-6.721 21.472-19.646 40.94-37.281 63.793a2.458 2.458 0 0 0 .444 3.444 2.458 2.458 0 0 0 3.444-.444c18.045-23.387 31.2-43.353 38.079-65.327 6.039-19.292 6.297-45.467 3.207-66.86a2.457 2.457 0 0 0-2.781-2.079 2.457 2.457 0 0 0-2.079 2.78ZM159.747 103.827c2.326 20.595 2.181 45.796-2.364 64.368-5.189 21.203-18.248 42.312-36.35 62.988a2.457 2.457 0 0 0 .23 3.464 2.457 2.457 0 0 0 3.464-.23c18.681-21.338 32.07-43.174 37.425-65.054 4.667-19.069 4.862-44.942 2.474-66.087a2.457 2.457 0 0 0-2.715-2.164 2.457 2.457 0 0 0-2.164 2.715ZM34.235 64.786c8.804 19.884 13.316 43.039 26.483 59.621 17.504 22.043 35.877 27.744 56.907 33.948a2.458 2.458 0 0 0 3.05-1.66 2.458 2.458 0 0 0-1.66-3.05c-20.093-5.926-37.73-11.232-54.453-32.292-12.917-16.267-17.201-39.047-25.837-58.554a2.456 2.456 0 0 0-4.49 1.987ZM19.246 110.89c8.816 19.913 16.537 29.901 29.578 46.62 20.456 26.223 35.405 28.879 56.441 35.084a2.458 2.458 0 0 0 3.05-1.66 2.456 2.456 0 0 0-1.66-3.049c-20.087-5.925-34.427-8.355-53.959-33.395-12.758-16.355-20.337-26.109-28.961-45.588a2.456 2.456 0 0 0-3.238-1.251c-1.239.549-1.8 2-1.251 3.239Z"/></svg>