<?xml version="1.0" encoding="UTF-8" standalone="no"?>
<!DOCTYPE svg PUBLIC "-//W3C//DTD SVG 1.1//EN" "http://www.w3.org/Graphics/SVG/1.1/DTD/svg11.dtd">
<svg width="100%" height="100%" viewBox="0 0 492 492" version="1.1" xmlns="http://www.w3.org/2000/svg" xmlns:xlink="http://www.w3.org/1999/xlink" xml:space="preserve" xmlns:serif="http://www.serif.com/" style="fill-rule:evenodd;clip-rule:evenodd;stroke-linecap:round;stroke-linejoin:round;stroke-miterlimit:1.5;">
    <g transform="matrix(0.48,0,0,0.48,0,0)">
        <g>
            <g transform="matrix(1.21617,0,0,1.22296,-201.607,-171.025)">
                <circle cx="606.5" cy="558.5" r="374.5" style="fill:white;stroke:black;stroke-width:16.77px;"/>
            </g>
            <path d="M265,143C279.667,250.333 327.849,329.266 370,392C434.167,487.5 536,512 536,512C536,512 505.062,683.39 476,738C440.167,805.333 400.333,844 321,916" style="fill:white;stroke:black;stroke-width:20.46px;"/>
            <path d="M970.456,404C970.456,404 830.775,390.802 757,407C681.091,423.667 615.333,449 536,512" style="fill:white;stroke:black;stroke-width:20.46px;"/>
            <g transform="matrix(1.16572,0,0,1.18512,-322.056,-329.782)">
                <path d="M970.456,404C970.456,404 830.775,390.802 757,407C681.091,423.667 615.333,449 536,512" style="fill:white;stroke:black;stroke-width:17.4px;"/>
            </g>
            <g transform="matrix(1.21406,0,0,1.18512,-250.237,-195.782)">
                <path d="M958.924,398.931C958.924,398.931 859.604,377.671 761.942,398.931C686.005,415.463 615.333,449 536,512" style="fill:white;stroke:black;stroke-width:17.05px;"/>
            </g>
            <path d="M852,398.931C864.667,486.621 863.754,593.923 839,673C810.667,763.511 756.333,845.667 682,942" style="fill:white;stroke:black;stroke-width:20.46px;"/>
            <g transform="matrix(0.775314,0,0,0.991651,15.2095,35.8652)">
                <path d="M852,398.931C864.667,486.621 863.754,593.923 839,673C810.667,763.511 739.6,853.734 640.76,942" style="fill:white;stroke:black;stroke-width:22.98px;"/>
            </g>
            <path d="M152,265.801C188.333,347.868 206.657,443.565 261,512C332.307,601.798 407.327,624.73 493,650" style="fill:white;stroke:black;stroke-width:20.46px;"/>
            <g transform="matrix(1,0,0,1,-57.5,165.664)">
                <path d="M147.044,292.237C183.378,374.303 215.253,415.432 269,484.336C352.307,591.134 413.327,601.73 499,627" style="fill:white;stroke:black;stroke-width:20.46px;"/>
            </g>
        </g>
    </g>
</svg>
