<?xml version="1.0" encoding="UTF-8" standalone="no"?>
<!DOCTYPE svg PUBLIC "-//W3C//DTD SVG 1.1//EN" "http://www.w3.org/Graphics/SVG/1.1/DTD/svg11.dtd">
<svg width="100%" height="100%" viewBox="0 0 492 492" version="1.1" xmlns="http://www.w3.org/2000/svg" xmlns:xlink="http://www.w3.org/1999/xlink" xml:space="preserve" xmlns:serif="http://www.serif.com/" style="fill-rule:evenodd;clip-rule:evenodd;stroke-linecap:round;stroke-linejoin:round;stroke-miterlimit:1.5;">
    <g transform="matrix(0.48,0,0,0.48,0,0)">
        <g transform="matrix(1.05198,0,0,1.04963,-45.7678,-39.8284)">
            <path d="M880.485,281.492C880.485,185.634 802.834,107.809 707.19,107.809L357.322,107.809C261.678,107.809 184.027,185.634 184.027,281.492L184.027,628.859C184.027,724.718 261.678,802.543 357.322,802.543L707.19,802.543C802.834,802.543 880.485,724.718 880.485,628.859L880.485,281.492Z" style="fill:white;"/>
        </g>
        <g transform="matrix(1.05198,0,0,1.04963,-45.7678,-39.8284)">
            <path d="M884.024,281.492C884.024,183.676 804.787,104.262 707.19,104.262L357.322,104.262C259.725,104.262 180.488,183.676 180.488,281.492L180.488,628.859C180.488,726.676 259.725,806.09 357.322,806.09C357.322,806.09 707.19,806.09 707.19,806.09C804.787,806.09 884.024,726.676 884.024,628.859C884.024,628.859 884.024,281.492 884.024,281.492ZM876.946,281.492L876.946,628.859C876.946,722.76 800.881,798.996 707.19,798.996L357.322,798.996C263.631,798.996 187.566,722.76 187.566,628.859C187.566,628.859 187.566,281.492 187.566,281.492C187.566,187.591 263.631,111.356 357.322,111.356C357.322,111.356 707.19,111.356 707.19,111.356C800.881,111.356 876.946,187.591 876.946,281.492Z"/>
        </g>
        <path d="M516.741,206.071C362.898,209.262 280.279,312.391 280.566,416.388C281.003,574.949 401.207,672.473 513.293,673.25C645.08,674.163 749.36,593.174 747.744,445.694C746.068,292.701 641.163,203.491 516.741,206.071Z" style="fill:white;"/>
        <path d="M516.663,202.349C360.288,205.592 276.551,310.69 276.843,416.398C277.287,577.353 399.489,676.185 513.267,676.973C580.169,677.436 640.062,657.03 683.052,617.872C726.1,578.659 752.288,520.625 751.467,445.653C749.764,290.23 643.062,199.728 516.664,202.349L516.663,202.349ZM516.818,209.794C639.263,207.254 742.372,295.173 744.021,445.735C744.816,518.243 719.671,574.443 678.037,612.367C636.344,650.344 578.203,669.976 513.319,669.527C402.925,668.762 284.72,572.544 284.289,416.378C284.006,314.092 365.507,212.932 516.818,209.794L516.818,209.794Z"/>
        <path d="M433.993,802.543C419.617,802.72 445.408,839.801 432.269,845.64C414.168,853.685 347.511,845.64 325.387,850.812C313.517,853.587 303.031,864.995 299.529,876.671C295.219,891.037 295.219,923.216 299.529,937.007C302.931,947.894 313.999,958.78 325.387,959.418C392.045,963.153 631.955,965.165 699.475,959.418C714.881,958.107 725.621,938.731 730.505,924.94C735.389,911.149 733.378,889.887 728.781,876.671C724.358,863.954 716.07,848.543 702.923,845.64C680.799,840.756 613.854,854.547 596.04,847.364C582.184,841.777 610.981,802.434 596.04,802.543C438.016,803.692 597.477,800.531 433.993,802.543Z" style="fill:white;"/>
        <path d="M518.601,798.773C518.187,798.577 517.533,798.381 516.445,798.294C513.394,798.049 499.614,798.012 433.947,798.82C431.34,798.852 429.516,799.707 428.223,800.954C426.945,802.185 426.122,803.9 425.858,806.086C425.521,808.888 426.196,812.771 427.367,817.083C429.138,823.609 432.034,831.326 432.379,837.198C432.512,839.467 432.521,841.454 430.757,842.238C423.802,845.329 409.368,845.777 393.211,845.724C367.659,845.64 337.982,844.044 324.54,847.187C311.459,850.244 299.822,862.734 295.963,875.601C291.497,890.486 291.51,923.828 295.975,938.118C299.798,950.353 312.381,962.418 325.179,963.135C391.93,966.876 632.176,968.882 699.79,963.128C706.834,962.528 713.084,958.74 718.334,953.264C725.586,945.698 730.93,934.894 734.015,926.183C739.148,911.688 737.129,889.339 732.298,875.448C729.492,867.381 725.174,858.311 719.199,851.665C714.895,846.878 709.733,843.331 703.725,842.005C690.239,839.027 660.355,842.759 634.7,844.742C618.594,845.986 604.25,846.66 597.433,843.911C596.194,843.412 595.944,842.193 595.885,840.776C595.812,839.04 596.133,837.032 596.636,834.876C597.941,829.284 600.483,822.852 602.207,817.296C603.538,813.008 604.358,809.155 604.161,806.364C603.998,804.058 603.205,802.262 601.928,800.987C600.632,799.692 598.757,798.8 596.013,798.82C538.5,799.238 521.129,798.843 518.601,798.773ZM515.563,805.696C515.938,805.874 516.497,806.051 517.372,806.157C519.99,806.471 532.477,806.728 596.067,806.266C596.243,806.265 596.474,806.295 596.626,806.32C596.669,806.63 596.764,807.41 596.721,807.996C596.566,810.1 595.85,812.701 594.953,815.544C592.634,822.896 589.144,831.629 588.533,838.174C587.958,844.328 589.796,848.861 594.648,850.817C602.082,853.815 617.711,853.523 635.274,852.166C660.122,850.246 689.058,846.392 702.12,849.276C706.63,850.272 710.431,853.05 713.662,856.644C718.99,862.57 722.763,870.7 725.265,877.894C729.627,890.436 731.631,910.609 726.996,923.697C724.219,931.536 719.485,941.302 712.958,948.111C709.021,952.218 704.441,955.259 699.159,955.708C631.734,961.447 392.16,959.431 325.596,955.701C315.616,955.142 306.063,945.437 303.082,935.897C298.928,922.604 298.941,891.587 303.095,877.741C306.24,867.255 315.575,856.929 326.235,854.437C339.34,851.374 368.276,853.088 393.187,853.17C410.671,853.227 426.255,852.388 433.781,849.043C438.338,847.018 440.156,842.626 439.812,836.762C439.442,830.457 436.455,822.14 434.553,815.133C433.991,813.064 433.534,811.125 433.323,809.419C433.207,808.478 433.16,807.629 433.261,806.899C433.286,806.723 433.362,806.47 433.401,806.35C433.534,806.322 433.825,806.268 434.039,806.266C497.29,805.487 511.997,805.474 515.563,805.696Z"/>
        <g transform="matrix(0.721423,0,0,0.706667,147.115,129.388)">
            <path d="M516.741,206.071C362.898,209.262 280.279,312.391 280.566,416.388C281.003,574.949 401.207,672.473 513.293,673.25C645.08,674.163 749.36,593.174 747.744,445.694C746.068,292.701 641.163,203.491 516.741,206.071Z" style="stroke:black;stroke-width:10.43px;"/>
        </g>
        <g transform="matrix(0.465103,0,0,0.451413,280.844,239.323)">
            <path d="M516.741,206.071C362.898,209.262 280.279,312.391 280.566,416.388C281.003,574.949 401.207,672.473 513.293,673.25C645.08,674.163 749.36,593.174 747.744,445.694C746.068,292.701 641.163,203.491 516.741,206.071Z" style="fill:none;stroke:black;stroke-width:16.25px;"/>
        </g>
        <g transform="matrix(0.639322,0,0,0.638866,187.344,156.315)">
            <path d="M516.741,206.071C362.898,209.262 280.279,312.391 280.566,416.388C281.003,574.949 401.207,672.473 513.293,673.25C645.08,674.163 749.36,593.174 747.744,445.694C746.068,292.701 641.163,203.491 516.741,206.071Z" style="fill:white;"/>
        </g>
        <g transform="matrix(0.639322,0,0,0.638866,187.344,156.315)">
            <path d="M516.62,200.245C358.815,203.518 274.448,309.729 274.742,416.404C275.19,578.711 398.518,678.283 513.253,679.077C580.723,679.545 641.109,658.92 684.464,619.429C727.913,579.852 754.396,521.299 753.567,445.63C751.849,288.834 644.135,197.601 516.62,200.245L516.62,200.245ZM516.861,211.898C638.19,209.382 740.286,296.569 741.921,445.758C742.708,517.569 717.858,573.25 676.624,610.809C635.297,648.454 577.649,667.868 513.333,667.422C403.896,666.664 286.817,571.186 286.389,416.372C286.109,315.053 366.98,215.006 516.861,211.898L516.861,211.898Z"/>
        </g>
        <g transform="matrix(0.2104,0,0,0.204207,409.193,348.864)">
            <path d="M516.741,206.071C362.898,209.262 280.279,312.391 280.566,416.388C281.003,574.949 401.207,672.473 513.293,673.25C645.08,674.163 749.36,593.174 747.744,445.694C746.068,292.701 641.163,203.491 516.741,206.071Z"/>
        </g>
        <g transform="matrix(0.2104,0,0,0.204207,409.193,348.864)">
            <path d="M516.385,187.843C350.356,191.286 262.56,304.205 262.87,416.44C263.34,586.574 392.907,690.648 513.174,691.482C583.785,691.971 646.892,670.108 692.265,628.779C738.114,587.015 766.313,525.338 765.439,445.488C763.634,280.766 650.346,185.065 516.385,187.843ZM517.097,224.3C631.98,221.917 728.502,304.636 730.05,445.9C730.791,513.531 707.658,566.087 668.824,601.46C629.514,637.267 574.588,655.442 513.412,655.018C409.507,654.298 298.667,563.324 298.261,416.336C297.997,320.572 375.433,227.238 517.097,224.3Z"/>
        </g>
    </g>
</svg>
