<svg viewBox="0 0 492 492" xmlns="http://www.w3.org/2000/svg" xml:space="preserve" style="fill-rule:evenodd;clip-rule:evenodd;stroke-linecap:round;stroke-linejoin:round;stroke-miterlimit:1.5"><path d="M880.485 281.492c0-95.858-77.651-173.683-173.295-173.683H357.322c-95.644 0-173.295 77.825-173.295 173.683v347.367c0 95.859 77.651 173.684 173.295 173.684H707.19c95.644 0 173.295-77.825 173.295-173.684V281.492Z" style="fill:#fff" transform="matrix(.50495 0 0 .50382 -21.969 -19.118)"/><path d="M424.42 122.704c0-49.282-40.011-89.292-89.293-89.292H158.461c-49.281 0-89.292 40.01-89.292 89.292v175.012c0 49.282 40.01 89.293 89.292 89.293h176.666c49.282 0 89.293-40.011 89.293-89.293V122.704Zm-3.574 0v175.012c0 47.309-38.41 85.718-85.719 85.718H158.461c-47.309 0-85.718-38.409-85.718-85.718V122.704c0-47.31 38.409-85.718 85.718-85.718h176.666c47.31 0 85.719 38.409 85.719 85.718Z"/><path d="M516.741 206.071c-153.843 3.191-236.462 106.32-236.175 210.317.437 158.561 120.641 256.085 232.727 256.862 131.787.913 236.067-80.076 234.451-227.556-1.676-152.993-106.581-242.203-231.003-239.623Z" style="fill:#fff" transform="scale(.48)"/><path d="M247.998 97.128c-75.06 1.556-115.254 52.003-115.113 102.743.213 77.258 58.87 124.698 113.483 125.076 32.113.222 60.862-9.573 81.497-28.368 20.663-18.823 33.233-46.679 32.84-82.666-.818-74.603-52.035-118.044-112.706-116.785Zm.075 3.573c58.773-1.22 108.266 40.982 109.057 113.252.382 34.804-11.688 61.78-31.672 79.983-20.013 18.23-47.92 27.652-79.065 27.437-52.989-.367-109.727-46.552-109.934-121.512-.136-49.097 38.984-97.654 111.614-99.16Z"/><path d="M433.993 802.543c-14.376.177 11.415 37.258-1.724 43.097-18.101 8.045-84.758 0-106.882 5.172-11.87 2.775-22.356 14.183-25.858 25.859-4.31 14.366-4.31 46.545 0 60.336 3.402 10.887 14.47 21.773 25.858 22.411 66.658 3.735 306.568 5.747 374.088 0 15.406-1.311 26.146-20.687 31.03-34.478s2.873-35.053-1.724-48.269c-4.423-12.717-12.711-28.128-25.858-31.031-22.124-4.884-89.069 8.907-106.883 1.724-13.856-5.587 14.941-44.93 0-44.821-158.024 1.149 1.437-2.012-162.047 0Z" style="fill:#fff" transform="scale(.48)"/><path d="M248.928 383.411c-.198-.094-.512-.188-1.034-.23-1.465-.117-8.08-.135-39.6.253-1.25.015-2.126.425-2.747 1.024-.613.59-1.008 1.414-1.135 2.463-.162 1.345.162 3.21.724 5.279.85 3.132 2.24 6.836 2.406 9.655.064 1.09.068 2.043-.779 2.42-3.338 1.483-10.266 1.698-18.022 1.673-12.265-.04-26.51-.807-32.962.702-6.279 1.467-11.864 7.462-13.717 13.638-2.143 7.145-2.137 23.15.006 30.009 1.835 5.872 7.875 11.664 14.018 12.008 32.04 1.795 147.358 2.758 179.813-.004 3.381-.288 6.381-2.106 8.901-4.734 3.481-3.632 6.046-8.818 7.527-13 2.464-6.957 1.495-17.684-.824-24.352-1.347-3.872-3.42-8.226-6.287-11.416-2.066-2.298-4.544-4-7.428-4.637-6.473-1.429-20.818.362-33.132 1.314-7.73.597-14.616.92-17.888-.399-.595-.24-.715-.824-.743-1.505-.035-.833.119-1.797.36-2.832.627-2.684 1.847-5.771 2.674-8.438.64-2.058 1.033-3.908.938-5.247-.078-1.107-.459-1.97-1.072-2.581-.622-.622-1.522-1.05-2.839-1.04-27.606.2-35.944.01-37.158-.023Zm-1.458 3.323c.18.086.449.17.869.221 1.256.151 7.25.274 37.773.053.085 0 .196.014.268.026.021.148.067.523.046.804-.074 1.01-.418 2.258-.849 3.623-1.113 3.53-2.788 7.72-3.081 10.863-.276 2.953.606 5.13 2.935 6.068 3.568 1.44 11.07 1.299 19.5.648 11.928-.922 25.817-2.772 32.087-1.388 2.164.479 3.989 1.812 5.54 3.537 2.557 2.845 4.368 6.747 5.57 10.2 2.093 6.02 3.055 15.703.83 21.986-1.333 3.762-3.605 8.45-6.738 11.718-1.89 1.972-4.088 3.431-6.624 3.647-32.364 2.755-147.36 1.787-179.31-.004-4.79-.268-9.376-4.926-10.807-9.505-1.994-6.381-1.987-21.27.007-27.915 1.51-5.034 5.99-9.99 11.107-11.186 6.29-1.47 20.18-.648 32.137-.608 8.392.027 15.872-.376 19.485-1.981 2.187-.972 3.06-3.08 2.895-5.895-.178-3.027-1.612-7.019-2.525-10.382-.27-.993-.489-1.924-.59-2.743-.056-.452-.078-.86-.03-1.21.012-.084.049-.205.067-.263.064-.013.204-.04.307-.04 30.36-.374 37.42-.38 39.131-.274Z"/><path d="M516.741 206.071c-153.843 3.191-236.462 106.32-236.175 210.317.437 158.561 120.641 256.085 232.727 256.862 131.787.913 236.067-80.076 234.451-227.556-1.676-152.993-106.581-242.203-231.003-239.623Z" style="stroke:#000;stroke-width:10.43px" transform="matrix(.34628 0 0 .3392 70.615 62.106)"/><path d="M516.741 206.071c-153.843 3.191-236.462 106.32-236.175 210.317.437 158.561 120.641 256.085 232.727 256.862 131.787.913 236.067-80.076 234.451-227.556-1.676-152.993-106.581-242.203-231.003-239.623Z" style="fill:none;stroke:#000;stroke-width:16.25px" transform="matrix(.22325 0 0 .21668 134.805 114.875)"/><path d="M516.741 206.071c-153.843 3.191-236.462 106.32-236.175 210.317.437 158.561 120.641 256.085 232.727 256.862 131.787.913 236.067-80.076 234.451-227.556-1.676-152.993-106.581-242.203-231.003-239.623Z" style="fill:#fff" transform="matrix(.30687 0 0 .30666 89.925 75.031)"/><path d="M248.463 136.437c-48.427 1.004-74.317 33.574-74.227 66.287.138 49.772 37.984 80.307 73.193 80.55 20.705.144 39.236-6.181 52.54-18.291 13.334-12.137 21.461-30.093 21.207-53.297-.528-48.082-33.582-76.06-72.713-75.249Zm.074 3.574c37.232-.772 68.563 25.965 69.065 71.714.241 22.022-7.385 39.097-20.038 50.614-12.682 11.544-30.373 17.498-50.11 17.36-33.583-.231-69.512-29.51-69.643-76.985-.086-31.07 24.73-61.75 70.726-62.703Z"/><path d="M248.6 187.654c-15.538.312-23.881 10.421-23.852 20.615.044 15.542 12.183 25.101 23.503 25.177 13.31.09 23.841-7.849 23.678-22.305-.17-14.996-10.764-23.74-23.33-23.487Z"/><path d="M248.563 185.867c-16.767.337-25.634 11.406-25.603 22.407.048 16.676 13.133 26.878 25.28 26.96 7.13.047 13.504-2.096 18.086-6.147 4.63-4.093 7.478-10.139 7.39-17.966-.182-16.146-11.624-25.526-25.153-25.254Zm.072 3.573c11.603-.233 21.35 7.875 21.507 21.722.075 6.629-2.262 11.78-6.183 15.247-3.97 3.51-9.518 5.292-15.696 5.25-10.493-.07-21.687-8.988-21.728-23.395-.027-9.387 7.793-18.536 22.1-18.824Z"/></svg>