<svg viewBox="0 0 246 246" xmlns="http://www.w3.org/2000/svg" xml:space="preserve" style="fill-rule:evenodd;clip-rule:evenodd;stroke-linejoin:round;stroke-miterlimit:2"><path d="M211.316 61.352c0-24.148-19.605-43.753-43.752-43.753H79.231c-24.148 0-43.753 19.605-43.753 43.753v87.506c0 24.147 19.605 43.752 43.753 43.752h88.333c24.147 0 43.752-19.605 43.752-43.752V61.352Z" style="fill:#fff"/><path d="M124.018 49.457c-36.922.766-56.751 25.517-56.682 50.476.105 38.055 28.954 61.461 55.854 61.647 31.629.219 56.656-19.218 56.269-54.613-.403-36.719-25.58-58.129-55.441-57.51ZM104.158 192.61c-3.45.043 2.74 8.942-.413 10.344-4.345 1.93-20.342 0-25.652 1.241-2.849.666-5.365 3.404-6.206 6.206-1.034 3.448-1.034 11.171 0 14.481.816 2.613 3.473 5.225 6.206 5.378 15.998.897 73.576 1.379 89.781 0 3.697-.314 6.275-4.964 7.447-8.274 1.172-3.31.69-8.413-.414-11.585-1.061-3.052-3.05-6.751-6.206-7.447-5.309-1.173-21.376 2.137-25.651.413-3.326-1.341 3.585-10.783 0-10.757-37.926.276.344-.482-38.892 0Z" style="fill:#fff"/><path d="M212.21 61.352c0-24.641-20.005-44.646-44.646-44.646H79.231c-24.641 0-44.647 20.005-44.647 44.646v87.506c0 24.64 20.006 44.646 44.647 44.646h88.333c24.641 0 44.646-20.006 44.646-44.646V61.352Zm-1.787 0v87.506c0 23.654-19.205 42.859-42.859 42.859H79.231c-23.655 0-42.859-19.205-42.859-42.859V61.352c0-23.655 19.204-42.859 42.859-42.859h88.333c23.654 0 42.859 19.204 42.859 42.859Z"/><path d="M123.999 48.564c-37.53.778-57.627 26.001-57.557 51.372.107 38.629 29.435 62.348 56.742 62.537 16.057.112 30.431-4.786 40.748-14.184 10.332-9.411 16.617-23.339 16.42-41.332-.409-37.302-26.017-59.022-56.353-58.393Zm.037 1.786c29.387-.609 54.133 20.491 54.529 56.626.191 17.402-5.844 30.89-15.836 39.992-10.006 9.115-23.96 13.826-39.533 13.718-26.494-.183-54.863-23.275-54.967-60.755-.067-24.549 19.493-48.827 55.807-49.581ZM124.464 191.705c-.099-.047-.256-.094-.517-.115-.732-.058-4.04-.067-19.8.127-.625.007-1.063.213-1.374.512-.306.295-.504.707-.567 1.232-.081.672.081 1.604.362 2.639.425 1.566 1.12 3.418 1.203 4.827.032.545.034 1.022-.389 1.21-1.669.742-5.134.849-9.011.837-6.133-.02-13.255-.403-16.481.351-3.14.734-5.933 3.731-6.859 6.819-1.072 3.573-1.069 11.575.003 15.004.918 2.937 3.937 5.832 7.009 6.005 16.02.897 73.679 1.379 89.907-.002 1.69-.144 3.19-1.053 4.45-2.368 1.741-1.816 3.023-4.409 3.763-6.499 1.233-3.479.748-8.843-.412-12.177-.673-1.936-1.709-4.112-3.143-5.707-1.033-1.149-2.272-2-3.714-2.319-3.237-.714-10.409.181-16.566.657-3.866.299-7.308.46-8.944-.199-.297-.12-.357-.413-.372-.753-.017-.416.06-.898.181-1.416.313-1.342.923-2.885 1.337-4.219.319-1.029.516-1.954.469-2.624-.039-.553-.23-.984-.536-1.29-.311-.311-.761-.525-1.42-.52-13.803.1-17.972.005-18.579-.012Zm-.729 1.662c.09.043.224.085.434.111.629.075 3.625.137 18.887.026a.801.801 0 0 1 .134.013c.011.074.033.261.023.402-.037.505-.209 1.129-.424 1.812-.557 1.764-1.394 3.86-1.541 5.431-.138 1.477.303 2.565 1.468 3.034 1.784.72 5.535.65 9.75.324 5.963-.461 12.908-1.386 16.043-.694 1.082.239 1.994.906 2.77 1.768 1.279 1.423 2.184 3.374 2.785 5.101 1.047 3.01 1.527 7.851.415 10.992-.666 1.882-1.803 4.226-3.369 5.86-.945.985-2.044 1.715-3.312 1.823-16.182 1.377-73.68.893-89.655-.002-2.395-.134-4.688-2.463-5.403-4.753-.997-3.19-.994-10.634.003-13.957.755-2.517 2.995-4.995 5.553-5.593 3.146-.735 10.09-.324 16.069-.304 4.196.014 7.936-.188 9.743-.991 1.093-.486 1.529-1.54 1.447-2.947-.089-1.513-.806-3.509-1.262-5.191a10.11 10.11 0 0 1-.295-1.372 2.352 2.352 0 0 1-.015-.604.975.975 0 0 1 .033-.132.84.84 0 0 1 .153-.02c15.181-.187 18.71-.19 19.566-.137Z"/><path d="M124.777 66.003c-26.637.541-40.941 18.032-40.892 35.669.076 26.892 20.888 43.433 40.295 43.564 22.818.155 40.873-13.581 40.593-38.593-.29-25.948-18.453-41.078-39.996-40.64Z"/><path d="M124.759 65.109c-27.25.554-41.818 18.522-41.767 36.566.077 27.461 21.364 44.32 41.182 44.455 11.648.079 22.074-3.408 29.559-10.086 7.506-6.697 12.077-16.607 11.934-29.411-.297-26.525-18.886-41.971-40.908-41.524Zm.036 1.787c21.063-.428 38.801 14.387 39.085 39.757.136 12.208-4.181 21.672-11.337 28.058-7.177 6.403-17.188 9.707-28.357 9.632-18.996-.129-39.333-16.351-39.407-42.673-.049-17.232 13.992-34.245 40.016-34.774Z"/><path d="M125.066 78.87c-17.788.358-27.272 12.011-27.239 23.681.05 17.746 13.941 28.632 26.866 28.719 7.593.051 14.387-2.208 19.267-6.522 4.903-4.335 7.896-10.746 7.803-19.034-.194-17.15-12.327-27.133-26.697-26.844Zm.035 1.786c13.407-.269 24.694 9.077 24.875 25.078.087 7.689-2.651 13.654-7.2 17.676-4.573 4.043-10.954 6.121-18.071 6.073-12.099-.081-25.044-10.326-25.091-26.937-.031-10.863 8.93-21.556 25.487-21.89Z" style="fill:#fff"/><path d="M124.231 68.219c-24.213.501-37.158 16.787-37.113 33.143.069 24.886 18.992 40.153 36.597 40.275 10.352.072 19.618-3.091 26.27-9.146 6.667-6.068 10.73-15.046 10.603-26.648-.264-24.041-16.791-38.03-36.357-37.624Zm.037 1.786c18.617-.385 34.282 12.983 34.533 35.858.121 11.01-3.692 19.548-10.019 25.307-6.341 5.772-15.186 8.748-25.055 8.68-16.792-.116-34.756-14.756-34.822-38.493-.043-15.535 12.366-30.875 35.363-31.352Z" style="fill:#fff"/><path d="M124.3 93.827c-7.769.156-11.941 5.211-11.926 10.307.022 7.771 6.092 12.551 11.752 12.589 6.654.045 11.92-3.924 11.838-11.152-.084-7.498-5.382-11.871-11.664-11.744Z" style="fill:#fff"/><path d="M124.282 92.934c-8.384.168-12.817 5.702-12.802 11.203.024 8.338 6.567 13.439 12.64 13.48 3.565.024 6.752-1.048 9.043-3.073 2.315-2.047 3.739-5.07 3.695-8.983-.091-8.073-5.812-12.764-12.576-12.627Zm.036 1.786c5.801-.116 10.675 3.938 10.753 10.861.037 3.314-1.131 5.89-3.092 7.624-1.985 1.755-4.758 2.645-7.847 2.625-5.247-.036-10.844-4.494-10.865-11.698-.013-4.693 3.897-9.268 11.051-9.412Z"/></svg>