<svg viewBox="0 0 2481 3508" xmlns="http://www.w3.org/2000/svg" xml:space="preserve" style="fill-rule:evenodd;clip-rule:evenodd;stroke-linecap:round;stroke-linejoin:round;stroke-miterlimit:1.5"><path d="M957.081 754.796C1000.71 737.59 1049.2 728 1100.26 728c190.55 0 345.24 133.522 345.24 297.98 0 130.49-97.38 241.49-232.76 281.79l130.76 193.55c16.65 24.65 9.33 56.74-16.35 71.61l-139.59 80.86c-25.68 14.87-60.04 6.94-76.7-17.71L968.057 1424.7v172.29c0 34.22-27.786 62.01-62.011 62.01H720.011c-34.225 0-62.011-27.79-62.011-62.01V892.302c0-34.225 109.242-137.506 143.467-137.506L906.046 728c21.151 0 39.843 10.612 51.035 26.796Z" style="fill:#fee440" transform="matrix(2.33623 0 0 1.96374 -1191.98 -486.422)"/><path d="M535.775 1086.95c4.947 0 44.825 3.26 53.744 14.66 5.665 7.24 5.575 19.8 0 25.37-12.719 12.72-30.169 8.72-55.863 8.72M446.714 1160.31c5 43.08 56.46 45.28 73.243 48.15 4.811.83 31.252.23 43.738-5.07 15.161-6.43 42.865-34.94 44.425-34.94" style="fill:none;stroke:#190505;stroke-width:5.76px" transform="translate(115.628 -1040.513) scale(2.5108)"/><path d="M479.861 1004.39c27.672 0 50.139 16.33 50.139 57.3 0 31.63-22.467 57.31-50.139 57.31-27.672 0-50.139-25.68-50.139-57.31 0-32.96 22.467-57.3 50.139-57.3Z" style="fill:#fff4f4" transform="matrix(2.81125 0 0 3.7602 -54.915 -2510.898)"/><ellipse cx="477.415" cy="1030.5" rx="19.585" ry="18.5" style="fill:#170606" transform="matrix(3.3441 0 0 3.70592 -307.442 -2294.205)"/><path d="M479.861 1004.39c27.672 0 50.139 16.33 50.139 57.3 0 31.63-22.467 57.31-50.139 57.31-27.672 0-50.139-25.68-50.139-57.31 0-32.96 22.467-57.3 50.139-57.3Z" style="fill:#fff4f4" transform="matrix(2.81125 0 0 3.7602 256.424 -2566.135)"/><ellipse cx="477.415" cy="1030.5" rx="19.585" ry="18.5" style="fill:#170606" transform="matrix(3.3441 0 0 3.70592 8.919 -2367.018)"/><g><path d="M393.606 554.799c164.537-7.812 285.078 48.639 338.247 110.047 46.158 53.311-343.733 85.705-402.973 119.496-15.603 8.9 7.773 188.148-33.704 195.58-11.403 2.043-52.816 17.448-82.298 14.514-35.454-3.53-59.37-27.552-59.37-27.552 0-23.829-4.302-128.231-4.302-182.542 0-140.312-3.073-217.793 244.4-229.543Z" style="fill:#00bbf9" transform="matrix(2.91807 0 0 2.69082 -102.69 -602.572)"/></g></svg>