<?xml version="1.0" encoding="UTF-8" standalone="no"?>
<!DOCTYPE svg PUBLIC "-//W3C//DTD SVG 1.1//EN" "http://www.w3.org/Graphics/SVG/1.1/DTD/svg11.dtd">
<svg width="100%" height="100%" viewBox="0 0 2481 3508" version="1.1" xmlns="http://www.w3.org/2000/svg" xmlns:xlink="http://www.w3.org/1999/xlink" xml:space="preserve" xmlns:serif="http://www.serif.com/" style="fill-rule:evenodd;clip-rule:evenodd;stroke-linecap:round;stroke-linejoin:round;stroke-miterlimit:1.5;">
    <g transform="matrix(2.69934,0,0,2.69934,-44.6254,-1659.11)">
        <g transform="matrix(0.865481,0,0,0.727489,-425.05,434.435)">
            <path d="M957.081,754.796C1000.71,737.59 1049.2,728 1100.26,728C1290.81,728 1445.5,861.522 1445.5,1025.98C1445.5,1156.47 1348.12,1267.47 1212.74,1307.77L1343.5,1501.32C1360.15,1525.97 1352.83,1558.06 1327.15,1572.93L1187.56,1653.79C1161.88,1668.66 1127.52,1660.73 1110.86,1636.08L968.057,1424.7L968.057,1596.99C968.057,1631.21 940.271,1659 906.046,1659L720.011,1659C685.786,1659 658,1631.21 658,1596.99L658,892.302C658,858.077 767.242,754.796 801.467,754.796L906.046,728C927.197,728 945.889,738.612 957.081,754.796Z" style="fill:rgb(254,228,64);"/>
        </g>
        <g transform="matrix(0.930154,0,0,0.930154,59.3677,229.166)">
            <path d="M535.775,1086.95C540.722,1086.95 580.6,1090.21 589.519,1101.61C595.184,1108.85 595.094,1121.41 589.519,1126.98C576.8,1139.7 559.35,1135.7 533.656,1135.7" style="fill:none;stroke:rgb(25,5,5);stroke-width:5.76px;"/>
        </g>
        <g transform="matrix(0.930154,0,0,0.930154,59.3677,229.166)">
            <path d="M446.714,1160.31C451.714,1203.39 503.174,1205.59 519.957,1208.46C524.768,1209.29 551.209,1208.69 563.695,1203.39C578.856,1196.96 606.56,1168.45 608.12,1168.45" style="fill:none;stroke:rgb(25,5,5);stroke-width:5.76px;"/>
        </g>
        <g>
            <g transform="matrix(1.04146,0,0,1.39301,-3.81186,-315.554)">
                <path d="M479.861,1004.39C507.533,1004.39 530,1020.72 530,1061.69C530,1093.32 507.533,1119 479.861,1119C452.189,1119 429.722,1093.32 429.722,1061.69C429.722,1028.73 452.189,1004.39 479.861,1004.39Z" style="fill:rgb(255,244,244);"/>
            </g>
            <g transform="matrix(1.23886,0,0,1.3729,-97.3633,-235.278)">
                <ellipse cx="477.415" cy="1030.5" rx="19.585" ry="18.5" style="fill:rgb(23,6,6);"/>
            </g>
        </g>
        <g transform="matrix(1,0,0,1,115.339,-20.4634)">
            <g transform="matrix(1.04146,0,0,1.39301,-3.81186,-315.554)">
                <path d="M479.861,1004.39C507.533,1004.39 530,1020.72 530,1061.69C530,1093.32 507.533,1119 479.861,1119C452.189,1119 429.722,1093.32 429.722,1061.69C429.722,1028.73 452.189,1004.39 479.861,1004.39Z" style="fill:rgb(255,244,244);"/>
            </g>
            <g transform="matrix(1.23886,0,0,1.3729,-95.503,-241.789)">
                <ellipse cx="477.415" cy="1030.5" rx="19.585" ry="18.5" style="fill:rgb(23,6,6);"/>
            </g>
            <g transform="matrix(0.545094,-0.137097,0.102391,0.407102,-420.97,586.64)">
                <path d="M1115.4,1695.4C1191.89,1695.4 1238.15,1811.83 1238.15,1857.26C1238.15,1902.68 1177.82,1882.37 1101.58,1889.03C1009.27,1897.09 939.959,1929.38 963,1806.72C971.275,1762.66 1038.92,1695.4 1115.4,1695.4Z" style="fill:rgb(254,228,64);"/>
            </g>
        </g>
        <g transform="matrix(1.08103,0,0,0.996844,-21.5106,391.406)">
            <path d="M393.606,554.799C558.143,546.987 678.684,603.438 731.853,664.846C778.011,718.157 388.12,750.551 328.88,784.342C313.277,793.242 336.653,972.49 295.176,979.922C283.773,981.965 242.36,997.37 212.878,994.436C177.424,990.906 153.508,966.884 153.508,966.884C153.508,943.055 149.206,838.653 149.206,784.342C149.206,644.03 146.133,566.549 393.606,554.799Z" style="fill:rgb(0,187,249);"/>
        </g>
    </g>
</svg>
