<svg viewBox="0 0 2481 3508" xmlns="http://www.w3.org/2000/svg" xml:space="preserve" style="fill-rule:evenodd;clip-rule:evenodd;stroke-linejoin:round;stroke-miterlimit:2"><path d="M2442.92 1128.95c-4.75 75.09-157.79 213.56-98.25 250.07 48.13 29.51 171.95-25.36 198.94-24.9 36.41.63 26.3 99.25 26.3 99.25.06 20.1-16.22 36.47-36.32 36.52l-248.46.69c-.98.06-1.97.1-2.97.1h-136.52c-25.11 0-45.5-20.39-45.5-45.51 0 0 218.82-258.33 218.82-316.22 0-26.07 10.48-86.81-55.95-86.81-50.94 0-101.37 112.55-162.87 86.81-6.83-2.86-9.68-19.21-9.18-41.79 1.23-55.03 22.42-147.051 54.68-170.744 45.51-33.412 177.99-23.364 227.54 12.058 49.54 35.421 74.21 129.866 69.74 200.476Z" style="fill:#00f5d4" transform="matrix(3.5402 0 0 3.5402 -6904.907 -2209.919)"/><path d="M2203.73 995.824c120.38.725 123.94-2.626 123.94 55.526 0 36.82-30.12 75.95-109.9 75.47-109.79-.66-120.63-38.65-120.63-75.47 0-61.321.44-56.165 106.59-55.526Z" style="fill:#171632" transform="matrix(-4.48207 .0197 -.03352 -3.11531 11046.09 4223.293)"/><ellipse cx="2228.58" cy="873.708" rx="53.581" ry="42.708" style="fill:#c642b3" transform="matrix(4.75754 0 0 3.0407 -9507.69 -1957.536)"/><path d="M2235.14 1177.81c25.88 33.74 48.85 23.81 90.5 23.81" style="fill:#f02727" transform="rotate(-32.335 -19.31 16111.76) scale(3.54019)"/><g><path d="M479.861 1004.39c27.672 0 50.139 16.33 50.139 57.3 0 31.63-22.467 57.31-50.139 57.31-27.672 0-50.139-25.68-50.139-57.31 0-32.96 22.467-57.3 50.139-57.3Z" style="fill:#fff4f4" transform="matrix(-.01371 2.198 -2.93994 -.01834 3895.264 333.995)"/><ellipse cx="477.415" cy="1030.5" rx="19.585" ry="18.5" style="fill:#170606" transform="matrix(-.01631 2.6146 -2.8975 -.01808 3740.79 139.51)"/></g></svg>