<svg viewBox="0 0 2481 3508" xmlns="http://www.w3.org/2000/svg" xml:space="preserve" style="fill-rule:evenodd;clip-rule:evenodd;stroke-linejoin:round;stroke-miterlimit:2"><path d="M2190.05 1342.17c-18.27 37.2-17.45 39.29 0 62.21 17.99 23.64 234.83-.11 274.71 24.16 70.71 43.03 35.05 192.42 35.05 192.42 0 34.22-275.54 32.83-309.76 32.83H2047c-34.22 0-105 0-105-62.01 0 0-15.9-57.21 0-121.47 8.1-32.73 118.58-202.07 118.58-276.84 0-56.31-118.58-408.672-118.58-408.672 0-62.011 70.78-62.011 105-62.011h387.39c29.74.06 60.51 17.233 65.42 42.833 7.5 39.064 31.19 159.629-20.44 191.555-51.63 31.926-246.44-13.129-289.32 0-21.1 6.459-30.3 34.318-5.98 77.415 21.4 37.91 239.15 29.5 239.15 180.63 0 108.17-215.5 90.95-233.17 126.95Z" style="fill:#fee440" transform="matrix(-2.3004 0 0 1.90366 6264.412 -331.893)"/><ellipse cx="2402" cy="1547.5" rx="39" ry="27.498" style="fill:#f7fafd" transform="matrix(-3.26984 0 0 3.49705 8782.475 -3528.652)"/><ellipse cx="2159.5" cy="1162" rx="11.5" ry="10.998" style="fill:#0b1119" transform="matrix(-3.56759 0 0 3.97401 8546.07 -2734.762)"/><ellipse cx="2402" cy="1547.5" rx="39" ry="27.498" style="fill:#f7fafd" transform="matrix(-3.26984 0 0 3.49705 9113.432 -3528.652)"/><ellipse cx="2159.5" cy="1162" rx="11.5" ry="10.998" style="fill:#0b1119" transform="matrix(-3.56759 0 0 3.97401 8877.026 -2734.762)"/><g><path d="M2708.47 1357.33c4.21 6.21 15.12 13.23 21.2 15.26 2.39.79 70.2 26.56 111.29 29.88 41.73 3.37 96.83-20.42 102.33-22.25 10.67-3.56 39.84-20.97 39.84-24.59" style="fill:#171632" transform="matrix(-2.8556 .30858 .3603 3.23174 8769.527 -2755.25)"/></g><g><path d="m2793.96 937.382-38.9-56.661c-13.4-19.508-8.43-46.22 11.08-59.613l135.24-92.851c19.5-13.393 46.22-8.429 59.61 11.079l48.53 70.693a42.19 42.19 0 0 1 3.83 6.828c43.97-6.177 78.32 1.669 90.84 24.553 22.64 41.388-34.64 116.392-127.85 167.39-93.21 50.99-187.26 58.8-209.91 17.41-12.4-22.68-.82-55.447 27.53-88.828Z" style="fill:#9b5de5" transform="matrix(-3.11493 .3472 .35268 3.06665 10229.645 -2707.365)"/></g></svg>