<svg viewBox="0 0 2481 3508" xmlns="http://www.w3.org/2000/svg" xml:space="preserve" style="fill-rule:evenodd;clip-rule:evenodd;stroke-linecap:round;stroke-linejoin:round;stroke-miterlimit:1.5"><path d="M1197.71 1409.01c30.98-38.49 0-638.858 0-638.858 0-40.704 126.21-36.827 166.91-36.827h147.5c40.71 0 73.75 33.046 73.75 73.75V2542.98c0 40.71-33.04 73.75-73.75 73.75h-147.5c-40.7 0-166.91-33.04-166.91-73.75v-820.72s-242.153-5.3-351.188-88.33c-20.346-15.5-41.214-70.65-49.5-91.59-40.746-102.99-32.7-521.63 21.121-697.499 8.995-29.39 21.397-62.844 45.98-74.689 24.584-11.846 84.625-23.807 107.336-5.811 26.773 21.217 31.261 32.559 36.881 80.5 12.29 104.847-154.748 374.199-45.43 570.619 50.08 89.98 197.76 39.6 234.8-6.45Z" style="fill:#00bbf9" transform="matrix(1.98854 0 0 1.29185 -968.528 -268.051)"/><path d="M2708.47 1357.33c4.21 6.21 15.12 13.23 21.2 15.26 2.39.79 50.48 29.28 91.57 32.59 41.73 3.37 116.55-23.13 122.05-24.96 10.67-3.56 39.84-20.97 39.84-24.59" style="fill:#171632" transform="matrix(-1.97164 .37905 .63648 2.50818 6424.43 -2502.6)"/><ellipse cx="2402" cy="1547.5" rx="39" ry="27.498" style="fill:#f7fafd" transform="matrix(-3.98972 0 0 2.891 11183.808 -3286.898)"/><ellipse cx="2159.5" cy="1162" rx="11.5" ry="10.998" style="fill:#0b1119" transform="matrix(-5.82371 0 0 3.2853 14109.8 -2630.592)"/><ellipse cx="2159.5" cy="1162" rx="11.5" ry="10.998" style="fill:#0b1119" transform="matrix(-5.82371 0 0 3.2853 14109.8 -2630.592)"/><path d="M1525.09 2965.53c0-51.02 173.87-233.98 350.82-213.23 196.11 23 260.98 226.49 260.98 248.93" style="fill:none;stroke:#000;stroke-width:11px" transform="matrix(1.20804 0 0 1.05997 -419.045 -121.124)"/><path d="M1692.75 2890.78c8.49 57.84 16.47 124.19 13.01 162.94" style="fill:none;stroke:#000;stroke-width:11px" transform="matrix(1.20804 0 0 1.05997 -214.495 -126.64)"/><path d="M1645.03 2877.76c-29.29 29.29-25.4 108.4-25.4 151.34" style="fill:none;stroke:#000;stroke-width:11px" transform="matrix(1.20804 0 0 1.05997 -295.727 -112.844)"/><g><path d="M1814.63 1101.75c10.99-21.98 197.74-88.83 223.63-80.2 12.13 4.04 80.81 543.69 43.53 652.43-28.87 84.24-267.16 5.63-267.16 0" style="fill:none;stroke:#000;stroke-width:11px" transform="matrix(1.20804 0 0 1.05997 -454.567 -258.654)"/></g><g transform="matrix(.94022 0 0 1.05997 200.959 -147.583)"><ellipse cx="697.5" cy="916" rx="138.5" ry="75" style="fill:#3298ba;stroke:#000;stroke-width:12.48px"/></g><g><path d="M696.236 1467.38c62.923 0 84.543-18.53 116.258-18.53M739.672 1688.52c42.193-42.2 130.14-51.14 130.14-114.57" style="fill:none;stroke:#000;stroke-width:11px" transform="matrix(1.20804 0 0 1.05997 -114.534 -105.993)"/><path d="M728.5 1575.95c30.759 0 78.113-61.15 101.994-61.15" style="fill:none;stroke:#000;stroke-width:11px" transform="matrix(1.20804 0 0 1.05997 -114.534 -108.113)"/></g><g><path d="M1478.44 564S1415 699.331 1415 745.815c0 25.409 28.43 46.038 63.44 46.038s63.44-20.629 63.44-46.038c0-46.484-63.44-181.815-63.44-181.815Z" style="fill:#ffe000" transform="matrix(-.98587 1.0782 -1.65961 -1.16832 4137.154 -219.754)"/><path d="M1374.82 618.514c0 13.382 23.32 65.967 31.79 70.202 1.58.792 6.71 22.605 10.59 26.491 8.19 8.187 13.33 38.571 19.87 51.658 2.89 5.781 19.87 32.952 19.87 34.438" style="fill:#333122" transform="matrix(1.89779 -.84419 .9621 1.66519 -1793.114 607.616)"/><path d="M1382.77 642.356c11.04-2.76 21.19-9.595 21.19-21.193M1399.99 664.874c7.91-2.638 21.19-12.986 21.19-19.869M1423.83 699.312c0-8.996 11.92-13.824 11.92-22.517M1357.6 631.76c4.14 8.279 18.87 15.895 26.49 15.895M1357.6 658.251c13.02 13.023 18.98 22.517 39.74 22.517M1388.06 701.961c4.03 8.056 22.26 21.193 29.14 21.193" style="fill:#333122" transform="matrix(1.89779 -.84419 .9621 1.66519 -1793.114 607.616)"/><g><path d="M1478.44 564S1415 696.353 1415 741.815c0 27.617 28.43 50.038 63.44 50.038s63.44-22.421 63.44-50.038c0-45.462-63.44-177.815-63.44-177.815Z" style="fill:#6ce8d4" transform="matrix(-1.33336 -.73623 1.13324 -1.58012 3052.597 2699.018)"/><path d="M1374.82 618.514c0 13.382 23.32 65.967 31.79 70.202 1.58.792 6.71 22.605 10.59 26.491 8.19 8.187 13.33 38.571 19.87 51.658 2.89 5.781 19.87 32.952 19.87 34.438" style="fill:#193732" transform="matrix(1.17257 1.55787 -1.77548 1.02886 1438.482 -2375.86)"/><path d="M1382.77 642.356c11.04-2.76 21.19-9.595 21.19-21.193M1399.99 664.874c7.91-2.638 21.19-12.986 21.19-19.869M1423.83 699.312c0-8.996 11.92-13.824 11.92-22.517M1357.6 631.76c4.14 8.279 18.87 15.895 26.49 15.895M1357.6 658.251c13.02 13.023 18.98 22.517 39.74 22.517M1388.06 701.961c4.03 8.056 22.26 21.193 29.14 21.193" style="fill:#193732" transform="matrix(1.17257 1.55787 -1.77548 1.02886 1438.482 -2375.86)"/></g><g><path d="M1478.44 564S1415 693.866 1415 738.473c0 29.461 28.43 53.38 63.44 53.38s63.44-23.919 63.44-53.38c0-44.607-63.44-174.473-63.44-174.473Z" style="fill:#e86ccb" transform="matrix(-1.56565 .15353 -.23632 -1.8554 4173.327 1537.977)"/><path d="M1374.82 618.514c0 13.382 23.32 65.967 31.79 70.202 1.58.792 6.71 22.605 10.59 26.491 8.19 8.187 13.33 38.571 19.87 51.658 2.89 5.781 19.87 32.952 19.87 34.438" style="fill:#1b0c0e" transform="matrix(2.0236 .5769 -.6575 1.77558 -693.96 -1547.645)"/><path d="M1382.77 642.356c11.04-2.76 21.19-9.595 21.19-21.193M1399.99 664.874c7.91-2.638 21.19-12.986 21.19-19.869M1423.83 699.312c0-8.996 11.92-13.824 11.92-22.517M1357.6 631.76c4.14 8.279 18.87 15.895 26.49 15.895M1357.6 658.251c13.02 13.023 18.98 22.517 39.74 22.517M1388.06 701.961c4.03 8.056 22.26 21.193 29.14 21.193" style="fill:#1b0c0e" transform="matrix(2.0236 .5769 -.6575 1.77558 -693.96 -1547.645)"/></g></g></svg>